<svg width="16" height="17" viewBox="0 0 16 17" fill="none" xmlns="http://www.w3.org/2000/svg">
<g clip-path="url(#clip0_6_255)">
<path d="M4.47262 2.92293C4.63212 2.92993 4.77462 2.99843 4.87762 3.10543C4.96262 3.17393 5.01662 3.27793 5.01662 3.39443C5.01662 3.43343 5.01062 3.47043 4.99962 3.50593L5.00012 3.50343C4.98762 3.54093 4.90762 3.50343 4.84512 3.54593C4.79912 3.58293 4.76962 3.63943 4.76962 3.70243C4.76962 3.78893 4.82462 3.86243 4.90112 3.89043L4.90262 3.89093C5.07762 3.96343 5.19262 3.80343 5.23762 3.72093C5.25762 3.68593 5.25262 3.73343 5.23762 3.76093C5.20412 3.94393 5.04612 4.08093 4.85612 4.08093C4.79562 4.08093 4.73862 4.06693 4.68762 4.04243L4.69012 4.04343C4.51512 3.94543 4.38812 3.77843 4.34612 3.58043L4.34512 3.57593C4.48562 3.56543 4.59562 3.44893 4.59562 3.30643C4.59562 3.29993 4.59562 3.29343 4.59512 3.28743V3.28843C4.57662 3.17893 4.52362 3.08443 4.44812 3.01393C4.41312 2.97893 4.38012 2.91543 4.47262 2.92293Z" fill="black"/>
<path d="M10.4551 2.84293C10.1891 2.78743 9.97812 2.59693 9.89412 2.34843L9.89262 2.34293C9.80512 1.99043 9.70262 1.99793 9.65762 1.98043C9.62562 1.97193 9.58612 1.96493 9.54612 1.96093L9.54212 1.96043C9.43462 1.96043 9.36212 1.93793 9.13712 1.92793C9.06962 1.92793 8.91962 1.92793 8.88712 1.91043C8.79362 1.88143 8.71462 1.83043 8.65262 1.76343C8.59712 1.68393 8.56312 1.58493 8.56312 1.47843C8.56312 1.46493 8.56362 1.45193 8.56462 1.43893V1.44043C8.81462 1.39543 8.98962 1.25793 8.98962 1.09793C8.98962 0.93793 8.71962 0.73793 8.38962 0.73793H8.19962C8.17262 0.63243 8.15412 0.50943 8.14712 0.38293V0.37793H7.78212C7.77412 0.50743 7.75412 0.62743 7.72412 0.74393L7.72712 0.73043H7.53462C7.20712 0.73043 6.93712 0.89293 6.93712 1.09043C6.93712 1.28793 7.11462 1.37793 7.35962 1.43293C7.36112 1.44743 7.36212 1.46393 7.36212 1.48043C7.36212 1.58393 7.32812 1.67943 7.27112 1.75643L7.27212 1.75493C7.21062 1.82343 7.13112 1.87493 7.04062 1.90143L7.03712 1.90243C7.01212 1.90243 6.85962 1.91743 6.78712 1.91993C6.55962 1.91993 6.48712 1.93993 6.38212 1.95243C6.33862 1.95693 6.29962 1.96393 6.26162 1.97343L6.26712 1.97243C6.21962 1.98993 6.11712 1.97243 6.01712 2.33493C5.93562 2.59093 5.72362 2.78243 5.46162 2.83443L5.45712 2.83543C5.45712 2.83543 5.39712 2.83543 5.41712 2.87793C5.43712 2.92043 6.88962 5.24293 5.76212 6.65043C5.48712 7.02043 5.20462 7.53293 5.37462 8.13293C5.40212 8.20743 5.43862 8.27193 5.48312 8.32943L5.48212 8.32793C4.27462 9.01793 4.07712 9.67293 4.03962 10.1554C3.85212 12.4704 9.71462 13.4054 8.14212 16.3554C8.11962 16.3929 8.22212 16.3554 8.33712 16.2304C8.45212 16.1054 9.58712 15.3579 9.78212 14.5329C10.3221 12.4904 5.47462 11.8279 4.49962 10.4304C3.88962 9.56793 5.11212 8.74293 5.59462 8.46043C5.75212 8.36293 6.40712 7.97543 7.07712 7.64543C7.74712 7.31543 8.41462 6.97043 8.74962 6.62793C8.80712 6.57043 8.83212 6.76043 8.69962 7.03543H8.54712C8.48212 7.08876 8.41212 7.14126 8.33712 7.19293H8.60962C8.55962 7.26893 8.50862 7.33493 8.45312 7.39693L8.45462 7.39543H8.01462C7.92712 7.44793 7.83712 7.49793 7.74212 7.54793H8.30212C8.22262 7.61943 8.13612 7.68843 8.04562 7.75193L8.03712 7.75793H7.30462L7.17962 7.81293C7.11462 7.84043 7.05212 7.87043 6.98962 7.90293H7.80712C7.74312 7.94143 7.66612 7.98143 7.58662 8.01693L7.57212 8.02293L7.36712 8.12293H6.61712C6.54712 8.16793 6.48212 8.21293 6.41962 8.25793H7.12212C6.98862 8.33593 6.87562 8.41093 6.76812 8.49193L6.77712 8.48543H6.12462L5.97462 8.61293H6.61462C5.37962 9.66543 6.04712 10.9104 6.70462 11.3154C6.74212 11.3379 6.76462 11.3404 6.77712 11.3154C6.65362 11.1949 6.57662 11.0269 6.57662 10.8409C6.57662 10.7869 6.58312 10.7339 6.59562 10.6834L6.59462 10.6879C6.83212 9.28543 11.7746 9.06293 10.1496 6.66293C9.05712 5.04793 10.4846 2.91543 10.4996 2.87793C10.5146 2.84043 10.4551 2.84293 10.4551 2.84293Z" fill="black"/>
<path d="M11.4076 2.92293C11.2481 2.92993 11.1056 2.99843 11.0026 3.10543C10.9236 3.17343 10.8736 3.27393 10.8736 3.38593C10.8736 3.42793 10.8806 3.46793 10.8931 3.50543L10.8921 3.50293C10.8921 3.52043 10.9196 3.52043 10.9471 3.52043C10.9516 3.51993 10.9571 3.51943 10.9621 3.51943C10.9936 3.51943 11.0231 3.52893 11.0476 3.54543C11.0956 3.58243 11.1261 3.63943 11.1261 3.70393C11.1261 3.78793 11.0746 3.85943 11.0011 3.88943L10.9996 3.88993C10.8246 3.96243 10.7096 3.80243 10.6646 3.71993C10.6446 3.68493 10.6496 3.73243 10.6646 3.75993C10.6981 3.94293 10.8561 4.07993 11.0461 4.07993C11.1066 4.07993 11.1636 4.06593 11.2146 4.04143L11.2121 4.04243C11.3871 3.94443 11.5141 3.77743 11.5561 3.57943L11.5571 3.57493C11.4166 3.56443 11.3066 3.44793 11.3066 3.30543C11.3066 3.29893 11.3066 3.29243 11.3071 3.28643C11.3256 3.17693 11.3786 3.08343 11.4541 3.01293C11.4891 2.97793 11.5221 2.91493 11.4296 2.92243L11.4076 2.92293ZM12.7901 7.26793C12.6476 6.99993 12.5291 6.68893 12.4506 6.36293L12.4451 6.33543C12.3746 6.58943 12.3341 6.88143 12.3341 7.18293C12.3341 7.48443 12.3746 7.77643 12.4506 8.05343L12.4451 8.03043C12.4551 8.05193 12.4606 8.07693 12.4606 8.10343C12.4606 8.15793 12.4361 8.20693 12.3976 8.23993C12.1621 7.69693 12.0246 7.06493 12.0246 6.40093C12.0246 5.92493 12.0951 5.46493 12.2261 5.03143L12.2176 5.06493C12.2796 4.86693 12.3151 4.63993 12.3151 4.40393C12.3151 4.04643 12.2331 3.70793 12.0866 3.40593L12.0926 3.41943C12.0551 4.18193 11.2876 5.31193 11.4476 6.49943C11.5486 7.36943 11.8576 8.15143 12.3231 8.81543L12.3126 8.79943C12.8926 9.57443 13.2476 10.0894 13.2476 10.0894C14.1626 11.5669 13.4476 13.2094 13.4476 13.2094C14.0776 12.5669 14.2326 11.3769 14.2326 11.3769C14.4051 11.3044 15.0401 12.2219 15.0401 12.2219C15.1001 9.37693 13.5001 8.65693 12.7676 7.26693L12.7901 7.26793ZM11.6401 2.71043C11.5411 2.67093 11.4266 2.64843 11.3066 2.64843C11.1171 2.64843 10.9411 2.70543 10.7941 2.80243L10.7976 2.80043C10.7401 2.73293 11.0251 2.55043 11.0476 2.52293C11.1931 2.40793 11.3791 2.33843 11.5816 2.33843C11.9326 2.33843 12.2346 2.54743 12.3701 2.84743L12.3721 2.85293C12.3721 2.85293 12.5696 3.17043 12.4471 4.01293C12.3346 3.56793 12.1096 2.97543 11.6821 2.73043L11.6421 2.70543L11.6401 2.71043Z" fill="black"/>
<path d="M5.10762 2.80043C5.16512 2.73293 4.88012 2.55043 4.85762 2.52293C4.71212 2.40793 4.52612 2.33843 4.32362 2.33843C3.97262 2.33843 3.67062 2.54743 3.53512 2.84743L3.53312 2.85293C3.53312 2.85293 3.25812 3.21043 3.44062 4.93043C3.46112 5.07443 3.47312 5.24093 3.47312 5.40993C3.47312 5.95243 3.35162 6.46693 3.13412 6.92693L3.14312 6.90543C3.47712 6.59843 3.78362 6.27593 4.06762 5.93393L4.08062 5.91793C4.18812 5.74293 4.23812 6.56043 2.71812 8.19293C1.75562 9.22543 0.925616 10.5854 0.968116 12.2929C0.968116 12.2929 1.50812 11.2929 1.68312 11.3754C1.68312 11.3754 1.80812 12.5104 2.46312 13.1529C2.32162 12.7269 2.23962 12.2364 2.23962 11.7269C2.23962 11.4354 2.26612 11.1504 2.31762 10.8739L2.31312 10.9024C2.50512 10.0294 2.87812 9.26443 3.39212 8.61593L3.38312 8.62743C4.17062 7.65243 4.56312 7.20743 4.63312 6.64243C4.78312 5.52243 4.03312 4.43243 3.88312 3.64243C3.88312 3.62493 3.86562 3.61993 3.86312 3.64243C3.83962 3.78393 3.82612 3.94693 3.82612 4.11293C3.82612 4.44493 3.88012 4.76493 3.97912 5.06343L3.97312 5.04193C3.95812 5.04193 3.89812 5.04193 3.83312 4.87693C3.72562 4.59193 3.46562 3.71693 3.94312 3.02193C4.02212 2.89193 4.13262 2.78843 4.26362 2.71893L4.26812 2.71693C4.36612 2.67893 4.47962 2.65693 4.59812 2.65693C4.78862 2.65693 4.96612 2.71393 5.11412 2.81143L5.11062 2.80943L5.10762 2.80043Z" fill="black"/>
<path d="M9.98011 9.25543H9.51262L9.30512 9.34293C9.20762 9.38293 9.11012 9.41293 9.11012 9.41293H9.61012C9.46511 9.47543 9.33012 9.53293 9.20262 9.59293H8.70262L8.38512 9.74043H8.88512C8.75512 9.80293 8.63512 9.86793 8.52762 9.92793H8.01262C7.92512 9.97293 7.84262 10.0204 7.76262 10.0629H8.29762C8.18762 10.1304 8.09012 10.1979 8.00262 10.2629H7.44762C7.38262 10.3054 7.32262 10.3479 7.26762 10.3879H7.84512C6.84512 11.2129 7.46262 11.7854 7.72762 11.9779C7.74612 11.9914 7.76762 12.0049 7.78962 12.0164L7.79262 12.0179C7.80762 12.0029 7.79262 11.9704 7.79262 11.9654C7.19262 11.2154 8.87012 10.9204 9.84012 10.5079C9.71512 10.2054 9.87761 9.74043 9.99512 9.41043L10.0301 9.30793C10.0316 9.30343 10.0331 9.29843 10.0331 9.29293C10.0331 9.26943 10.0141 9.25043 9.99062 9.25043C9.98962 9.25043 9.98862 9.25043 9.98762 9.25043L9.98011 9.25543Z" fill="black"/>
</g>
<defs>
<clipPath id="clip0_6_255">
<rect width="16" height="16" fill="white" transform="translate(0 0.37793)"/>
</clipPath>
</defs>
</svg>
