<svg width="16" height="17" viewBox="0 0 16 17" fill="none" xmlns="http://www.w3.org/2000/svg">
<g clip-path="url(#clip0_6_416)">
<path d="M15.14 11.9244C15.0765 11.8799 14.9985 11.8529 14.914 11.8509C14.7805 11.8584 14.66 11.9104 14.566 11.9914L11.72 14.6574C11.5675 14.7604 11.468 14.9329 11.468 15.1284C11.468 15.2519 11.5075 15.3659 11.5745 15.4589L11.5735 15.4574C11.9915 15.9489 12.589 16.2759 13.264 16.3369L13.2735 16.3374H13.487C14.875 16.3374 16.001 15.2124 16.001 13.8239C16.001 13.0699 15.669 12.3939 15.1435 11.9329L15.1405 11.9304L15.14 11.9244Z" fill="black"/>
<path d="M13.7935 11.1244C13.905 11.0054 13.9735 10.8449 13.9735 10.6684C13.9735 10.6624 13.9735 10.6559 13.9735 10.6499C13.9695 10.4804 13.933 10.3219 13.8705 10.1759L13.8735 10.1844L11.6735 4.23792L10.8 1.79142C10.8 1.79142 10.8 1.74492 10.8 1.71792L10.7535 1.59142C10.4585 0.919422 9.81049 0.452922 9.05049 0.424922H9.04699C9.01249 0.421922 8.97249 0.419922 8.93199 0.419922C8.19549 0.419922 7.59849 1.01692 7.59849 1.75342C7.59849 2.00092 7.66599 2.23242 7.78349 2.43142L7.77999 2.42542L11.32 9.23192C11.3445 9.27692 11.359 9.33042 11.359 9.38692C11.359 9.51342 11.287 9.62342 11.1815 9.67742L11.1795 9.67842C11.136 9.70342 11.0835 9.71842 11.028 9.71842H11.026C10.899 9.71742 10.789 9.64542 10.7335 9.54042L10.7325 9.53842L6.88599 2.68492C6.74499 2.41992 6.46999 2.24242 6.15399 2.24242C6.06799 2.24242 5.98499 2.25542 5.90699 2.27992L5.91299 2.27842C5.21349 2.52042 4.70349 3.13342 4.61399 3.87592L4.61299 3.88492C4.58799 4.02342 4.46799 4.12742 4.32399 4.12742C4.31049 4.12742 4.29749 4.12642 4.28449 4.12492H4.28599H4.17949C4.15449 4.12392 4.12549 4.12292 4.09599 4.12292C3.40599 4.12292 2.80099 4.48842 2.46449 5.03642L2.45949 5.04492C2.37199 5.17642 2.31999 5.33842 2.31999 5.51192C2.31999 5.79192 2.45499 6.04092 2.66349 6.19642L2.66599 6.19792L9.19949 11.1114C9.28099 11.1729 9.33299 11.2694 9.33299 11.3779C9.33299 11.4534 9.30799 11.5229 9.26549 11.5789L9.26599 11.5779C9.20399 11.6584 9.10799 11.7099 8.99949 11.7114H8.99749C8.92299 11.7114 8.85399 11.6864 8.79899 11.6444L8.79999 11.6449L2.29349 6.83842C2.06249 6.65792 1.76749 6.54892 1.44749 6.54892C0.995488 6.54892 0.594488 6.76592 0.342988 7.10192L0.340488 7.10542C0.143488 7.38342 0.0189883 7.72492 0.000488281 8.09442V8.19242C0.00148828 8.96792 0.460488 9.63642 1.12199 9.94092L1.13399 9.94592L1.24049 9.99942L9.90699 14.0459C9.99449 14.1029 10.102 14.1369 10.217 14.1369C10.3525 14.1369 10.4765 14.0899 10.5745 14.0114L10.5735 14.0124L13.827 11.1324L13.7935 11.1244Z" fill="black"/>
</g>
<defs>
<clipPath id="clip0_6_416">
<rect width="16" height="16" fill="white" transform="translate(0 0.37793)"/>
</clipPath>
</defs>
</svg>
