<svg width="16" height="17" viewBox="0 0 16 17" fill="none" xmlns="http://www.w3.org/2000/svg">
<path d="M15.0065 3.04445C15.0025 3.04445 14.998 3.04445 14.993 3.04445C14.4445 3.04445 13.9995 3.48895 13.9995 4.03795V5.64445H15.9995V4.03795C15.9995 3.48945 15.5555 3.04445 15.0065 3.04445Z" fill="black"/>
<path d="M9.2 12.4915H0C0 13.4305 0.761 14.1915 1.7 14.1915H10.2065C9.533 14.1915 9.2 13.4315 9.2 12.4915Z" fill="black"/>
<path d="M14.8935 2.56445H5.7C4.761 2.56445 4 3.32545 4 4.26445V11.711H9.9065V12.4845C9.9045 12.5165 9.903 12.5535 9.903 12.591C9.903 13.53 10.664 14.291 11.603 14.291C12.542 14.291 13.303 13.53 13.303 12.591C13.303 12.5535 13.302 12.5165 13.2995 12.4795L13.3 12.4845V4.26445C13.3 4.26445 13.3 4.26445 13.3 4.22445C13.3205 3.33945 14.0195 2.62445 14.896 2.57795H14.9C14.9 2.57795 14.8935 2.57145 14.8935 2.56445ZM9.3665 9.53795H5.493V8.37795H9.3665V9.53795ZM11.6935 6.43795H5.4935V5.27795H11.6935V6.43795Z" fill="black"/>
</svg>
