<svg width="16" height="17" viewBox="0 0 16 17" fill="none" xmlns="http://www.w3.org/2000/svg">
<g clip-path="url(#clip0_6_378)">
<path d="M6.6665 0.563953L0.1865 7.04395C0.071 6.44445 0.003 5.75295 0 5.04645V5.04395C0.002 3.62545 0.266 2.26945 0.746 1.01995L0.72 1.09695C1.892 0.642953 3.248 0.378953 4.666 0.376953C5.375 0.379953 6.0675 0.447953 6.7375 0.574953L6.6665 0.563953ZM15.82 9.71095L9.3335 16.1975C9.934 16.3105 10.6255 16.376 11.332 16.3775H11.3335C12.752 16.3755 14.108 16.1115 15.3575 15.6315L15.2805 15.6575C15.7345 14.4855 15.9985 13.1295 16.0005 11.7115C15.999 11.0035 15.9335 10.311 15.8095 9.63995L15.82 9.71095ZM15.3335 7.88395L7.507 15.7105C4.3115 14.541 1.8365 12.066 0.6925 8.94895L0.667 8.87045L8.4935 1.04395C11.689 2.21345 14.164 4.68845 15.308 7.80545L15.3335 7.88395ZM11.5465 8.61745C11.425 8.49145 11.255 8.41345 11.0665 8.41345C10.878 8.41345 10.708 8.49145 10.5865 8.61745L10.1265 9.07745L9.193 8.15095L9.6595 7.68445C9.7795 7.56045 9.8535 7.39095 9.8535 7.20445C9.8535 6.82295 9.5445 6.51395 9.163 6.51395C8.968 6.51395 8.792 6.59445 8.6665 6.72445L8.1995 7.19145L7.333 6.25795L7.793 5.79795C7.9165 5.67545 7.993 5.50545 7.993 5.31795C7.993 4.94445 7.69 4.64145 7.3165 4.64145C7.1305 4.64145 6.962 4.71645 6.84 4.83795L4.46 7.18445C4.3385 7.30695 4.2635 7.47495 4.2635 7.66095C4.2635 8.03445 4.5665 8.33745 4.94 8.33745C5.1275 8.33745 5.2975 8.26095 5.42 8.13745L5.88 7.71095L6.8135 8.63745L6.3535 9.10395C6.2405 9.22395 6.1715 9.38595 6.1715 9.56395C6.1715 9.93495 6.4725 10.236 6.8435 10.236C7.0365 10.236 7.2105 10.1545 7.333 10.0245L7.8 9.56395L8.7265 10.4975L8.2665 10.9575C8.143 11.08 8.0665 11.25 8.0665 11.4375C8.0665 11.811 8.3695 12.114 8.743 12.114C8.929 12.114 9.0975 12.039 9.2195 11.9175L11.566 9.57095C11.682 9.45095 11.7535 9.28745 11.7535 9.10745C11.7535 8.91395 11.671 8.73995 11.5395 8.61795L11.5465 8.61745Z" fill="black"/>
</g>
<defs>
<clipPath id="clip0_6_378">
<rect width="16" height="16" fill="white" transform="translate(0 0.37793)"/>
</clipPath>
</defs>
</svg>
