<svg width="16" height="17" viewBox="0 0 16 17" fill="none" xmlns="http://www.w3.org/2000/svg">
<g clip-path="url(#clip0_6_582)">
<path d="M5.58194 3.37538C6.06294 3.09188 6.38094 2.57638 6.38094 1.98638C6.38094 1.09888 5.66144 0.379883 4.77444 0.379883C3.88744 0.379883 3.16794 1.09938 3.16794 1.98638C3.16794 2.28188 3.24744 2.55838 3.38644 2.79588L3.38244 2.78838C3.66344 3.27388 4.17994 3.59538 4.77194 3.59538C5.07094 3.59538 5.35044 3.51338 5.58944 3.37088L5.58194 3.37538Z" fill="black"/>
<path d="M12.0019 13.5089L10.2554 6.84238L9.11544 4.84238C9.26294 4.83088 9.43494 4.82438 9.60894 4.82438C9.78294 4.82438 9.95444 4.83088 10.1249 4.84388L10.1024 4.84238C10.1544 4.84088 10.2149 4.83988 10.2759 4.83988C11.3864 4.83988 12.4214 5.16388 13.2909 5.72238L13.2689 5.70888L14.3624 4.44888C13.3359 3.56888 11.5159 3.20888 10.1624 3.17538C10.0999 3.17388 10.0264 3.17288 9.95244 3.17288C9.19544 3.17288 8.46144 3.27088 7.76294 3.45538L7.82244 3.44188C7.64194 3.37388 7.43344 3.33488 7.21594 3.33488C6.89244 3.33488 6.58894 3.42138 6.32744 3.57288L6.33594 3.56838H6.27594C5.73394 3.87688 5.37444 4.45088 5.37444 5.10838C5.37444 5.43238 5.46144 5.73538 5.61344 5.99638L5.60894 5.98788L6.98894 8.37438L6.48894 9.62088L6.78244 10.7274L4.00244 9.28738C3.62944 9.08238 3.38094 8.69238 3.38094 8.24388C3.38094 8.04788 3.42844 7.86338 3.51244 7.70088L3.50944 7.70738L1.90944 6.84738C1.69244 7.25088 1.56494 7.73038 1.56494 8.23988C1.56494 9.38388 2.20844 10.3779 3.15344 10.8794L3.16944 10.8874L4.00294 11.3409L4.38944 11.5409L9.38294 14.1674L10.6364 14.8339L13.5964 16.3739L14.4364 14.7739L12.0019 13.5089ZM8.80194 11.8089L8.26194 9.76238L8.60844 8.89588L9.06194 8.80238L10.0019 12.4559L8.80194 11.8089Z" fill="black"/>
</g>
<defs>
<clipPath id="clip0_6_582">
<rect width="16" height="16" fill="white" transform="translate(0 0.37793)"/>
</clipPath>
</defs>
</svg>
