<svg width="17" height="16" viewBox="0 0 17 16" fill="none" xmlns="http://www.w3.org/2000/svg">
<g clip-path="url(#clip0_6_382)">
<path d="M15.4335 0H1.56699C0.977988 0 0.500488 0.4775 0.500488 1.0665V15C0.500488 15.5525 0.947988 16 1.50049 16H15.5005C16.053 16 16.5005 15.5525 16.5005 15V1.0665C16.5005 0.4775 16.0225 0 15.4335 0ZM4.99999 12.56L2.99999 10.56L4.06649 9.4935L5.03299 10.467L7.46649 8.0005L8.53299 9.067L4.99999 12.56ZM4.99999 7.56L2.99999 5.56L4.03349 4.4665L4.99999 5.44L7.46649 2.9665L8.53299 4.033L4.99999 7.56ZM14 11.2535H10.5V9.747H14V11.2535ZM14 6.2535H10.5V4.747H14V6.2535Z" fill="black"/>
</g>
<defs>
<clipPath id="clip0_6_382">
<rect width="16" height="16" fill="white" transform="translate(0.5)"/>
</clipPath>
</defs>
</svg>
