<svg width="16" height="17" viewBox="0 0 16 17" fill="none" xmlns="http://www.w3.org/2000/svg">
<g clip-path="url(#clip0_6_501)">
<path d="M15.0135 13.7849C14.4945 14.5189 13.649 14.9924 12.693 14.9924C12.1945 14.9924 11.726 14.8634 11.319 14.6374L11.3335 14.6449L9.83351 13.8184L10.5 12.5984L12 13.4319C12.1915 13.5394 12.42 13.6029 12.6635 13.6029C13.179 13.6029 13.628 13.3189 13.863 12.8989L13.8665 12.8919C14.1895 12.3174 14.3795 11.6314 14.3795 10.9004C14.3795 9.35936 13.5335 8.01586 12.28 7.30886L12.2595 7.29836L9.24601 5.63836L8.91951 6.23186C8.80601 6.44786 8.58351 6.59236 8.32751 6.59236C8.20151 6.59236 8.08401 6.55736 7.98351 6.49686L7.98651 6.49836L4.98651 4.83836L3.65301 2.53836L1.44651 1.31836L1.19301 7.45186L3.03301 8.47186L2.35951 9.71186L0.666012 8.75836L-0.000488281 9.92486L10.666 15.8114C11.242 16.1384 11.9315 16.3309 12.666 16.3314H12.6695C14.079 16.3314 15.325 15.6304 16.077 14.5579L16.086 14.5444L15.0135 13.7849ZM4.20001 9.11836L9.33351 11.9519L8.66701 13.1719L3.52701 10.3384L4.20001 9.11836Z" fill="black"/>
</g>
<defs>
<clipPath id="clip0_6_501">
<rect width="16" height="16" fill="white" transform="translate(0 0.37793)"/>
</clipPath>
</defs>
</svg>
