<svg width="16" height="17" viewBox="0 0 16 17" fill="none" xmlns="http://www.w3.org/2000/svg">
<g clip-path="url(#clip0_6_471)">
<path d="M5.71244 4.86078V4.89578C5.71394 4.94778 5.72694 4.99678 5.74844 5.04028L5.74744 5.03828C5.87244 5.17578 6.67244 5.38078 7.99744 5.38078C9.32244 5.38078 10.1249 5.17578 10.2474 5.03828C10.2679 4.99678 10.2809 4.94778 10.2824 4.89628V4.86078C10.2819 4.70078 10.1784 4.56528 10.0349 4.51678L10.0324 4.51578L10.7499 2.62828C10.7499 2.30828 9.62244 2.12828 8.38994 2.10328L8.26244 1.62828H8.67494C8.81294 1.62828 8.92494 1.51628 8.92494 1.37828C8.92494 1.24028 8.81294 1.12828 8.67494 1.12828H8.32744L8.45744 0.628281C8.45744 0.295781 7.54244 0.295781 7.54244 0.628281L7.67244 1.12828H7.32494C7.18694 1.12828 7.07494 1.24028 7.07494 1.37828C7.07494 1.51628 7.18694 1.62828 7.32494 1.62828H7.74994L7.62744 2.10328C6.38244 2.12828 5.24994 2.30828 5.24994 2.62828L5.95744 4.51578C5.81344 4.56678 5.71244 4.70228 5.71244 4.86078Z" fill="black"/>
<path d="M7.99994 6.04828C7.96394 6.04878 7.92094 6.04928 7.87794 6.04928C7.28544 6.04928 6.70594 5.99328 6.14444 5.88678L6.20194 5.89578C6.13444 5.88328 6.04194 5.86328 5.95194 5.83578V6.14328C5.82044 6.17578 5.72394 6.29178 5.72194 6.43078V6.45828C5.72194 6.54778 5.76394 6.62828 5.82894 6.68028C6.07894 6.81278 6.82944 6.97328 8.00944 6.97328C9.18944 6.97328 9.93944 6.81328 10.1894 6.68078C10.2549 6.62878 10.2969 6.54878 10.2969 6.45878V6.43028C10.2949 6.29128 10.1984 6.17528 10.0689 6.14328L10.0669 6.14278V5.83778C9.52594 5.97428 8.90494 6.05228 8.26544 6.05228C8.17194 6.05228 8.07894 6.05078 7.98594 6.04728L7.99994 6.04828Z" fill="black"/>
<path d="M5.63244 15.6408C5.24044 15.6093 4.87944 15.5048 4.55344 15.3408L4.56994 15.3483V15.8783C4.56994 16.5458 11.4299 16.5458 11.4299 15.8783V15.3533C11.0399 15.5758 10.1299 15.7733 7.99994 15.7733C7.95644 15.7738 7.90544 15.7738 7.85394 15.7738C7.07094 15.7738 6.29944 15.7253 5.54194 15.6318L5.63244 15.6408Z" fill="black"/>
<path d="M7.99994 13.0508C8.07894 13.0533 8.17144 13.0548 8.26444 13.0548C9.04194 13.0548 9.79594 12.9538 10.5134 12.7648L10.4519 12.7783C9.78694 11.7783 9.83694 9.62078 9.88694 7.47078L9.79694 7.48828C9.29294 7.58578 8.71394 7.64178 8.12144 7.64178C8.07844 7.64178 8.03594 7.64128 7.99294 7.64078H7.99944C7.96344 7.64128 7.92044 7.64178 7.87744 7.64178C7.28494 7.64178 6.70544 7.58578 6.14394 7.47928L6.20144 7.48828L6.11144 7.47078C6.16144 9.62078 6.21144 11.7758 5.54644 12.7783C6.20294 12.9538 6.95694 13.0548 7.73444 13.0548C7.82744 13.0548 7.91994 13.0533 8.01244 13.0503L7.99994 13.0508Z" fill="black"/>
<path d="M11.2024 13.3783L11.1124 13.3433C10.6074 13.6908 9.56744 13.8783 7.99994 13.8783C7.95844 13.8788 7.90944 13.8793 7.86044 13.8793C7.13294 13.8793 6.42144 13.8118 5.73144 13.6823L5.80244 13.6933C5.45644 13.6353 5.14694 13.5183 4.87044 13.3518L4.88244 13.3583L4.79744 13.3908C4.11244 13.6408 4.11244 14.1408 4.56994 14.6408C4.56994 15.3358 11.4299 15.3358 11.4299 14.6408C11.8874 14.1283 11.8874 13.6283 11.2024 13.3783Z" fill="black"/>
</g>
<defs>
<clipPath id="clip0_6_471">
<rect width="16" height="16" fill="white" transform="translate(0 0.37793)"/>
</clipPath>
</defs>
</svg>
