<svg width="16" height="17" viewBox="0 0 16 17" fill="none" xmlns="http://www.w3.org/2000/svg">
<g clip-path="url(#clip0_6_339)">
<path d="M1.97523 1.93543C2.00273 1.93543 2.01273 1.95043 2.02523 1.96043C2.46973 2.25743 2.99773 2.46743 3.56673 2.55293L3.58773 2.55543C3.74923 2.57793 3.93623 2.59043 4.12573 2.59043C4.78623 2.59043 5.41073 2.43543 5.96423 2.15943L5.94023 2.17043C6.69523 1.82793 7.32173 1.31693 7.79123 0.68293L7.80023 0.67043C7.86623 0.58593 7.93223 0.49043 7.99273 0.39143L8.00023 0.37793L8.05273 0.46543C8.36373 0.94393 8.74823 1.34543 9.19473 1.66643L9.20773 1.67543C9.73873 2.07143 10.3717 2.36343 11.0592 2.50743L11.0902 2.51293C11.3302 2.56743 11.6057 2.59843 11.8887 2.59843C12.6767 2.59843 13.4082 2.35743 14.0132 1.94493L14.0002 1.95343C14.0037 1.95143 14.0082 1.95043 14.0127 1.95043C14.0172 1.95043 14.0217 1.95143 14.0252 1.95343C14.0277 1.96193 14.0287 1.97093 14.0287 1.98093C14.0287 1.99093 14.0272 1.99993 14.0247 2.00893C14.0247 5.4656 14.0247 8.9226 14.0247 12.3809C14.0202 12.8334 13.8482 13.2449 13.5682 13.5574L13.5697 13.5559C13.2722 13.8929 12.8992 14.1559 12.4762 14.3194L12.4572 14.3259C12.0727 14.4869 11.6252 14.6109 11.1592 14.6774L11.1297 14.6809C10.5902 14.7524 10.1027 14.8794 9.64123 15.0584L9.68473 15.0434C8.99773 15.3104 8.43273 15.7659 8.03773 16.3464L8.02973 16.3584C8.02973 16.3784 8.00973 16.4109 7.97973 16.3584C7.55123 15.7234 6.93623 15.2429 6.21423 14.9909L6.18973 14.9834C5.83123 14.8529 5.40923 14.7479 4.97323 14.6874L4.93973 14.6834C4.36823 14.6099 3.84923 14.4624 3.36623 14.2489L3.40223 14.2634C3.02473 14.1004 2.70523 13.8704 2.44423 13.5854L2.44223 13.5834C2.14923 13.2609 1.96973 12.8304 1.96973 12.3579C1.96973 12.3494 1.96973 12.3409 1.96973 12.3319V12.3334V1.93593L1.97523 1.93543ZM11.1102 4.48543C11.1227 4.46793 11.1102 4.45043 11.1102 4.43043C11.0627 4.27793 11.0152 4.12293 10.9652 3.96793C10.9617 3.96143 10.9592 3.95343 10.9592 3.94543C10.9592 3.92693 10.9697 3.91143 10.9847 3.90343L11.2602 3.69843L11.4202 3.57593C11.4117 3.57243 11.4017 3.57093 11.3912 3.57093C11.3807 3.57093 11.3712 3.57293 11.3617 3.57643H10.8947C10.8917 3.57693 10.8877 3.57743 10.8842 3.57743C10.8527 3.57743 10.8272 3.55443 10.8222 3.52443C10.7672 3.35943 10.7072 3.19393 10.6472 3.02393L10.6297 3.06893C10.5747 3.22393 10.5222 3.37643 10.4697 3.53143C10.4652 3.55893 10.4412 3.57943 10.4132 3.57943C10.4102 3.57943 10.4072 3.57943 10.4047 3.57893H9.94023C9.93173 3.57593 9.92173 3.57443 9.91123 3.57443C9.90073 3.57443 9.89123 3.57593 9.88173 3.57893C9.88173 3.59393 9.90223 3.59893 9.91223 3.60643C10.0422 3.70393 10.1622 3.80393 10.3022 3.89893C10.3232 3.91193 10.3367 3.93443 10.3367 3.96043C10.3367 3.97143 10.3342 3.98243 10.3297 3.99193C10.2797 4.13943 10.2347 4.28893 10.1897 4.43893C10.1897 4.45393 10.1697 4.46893 10.1897 4.48643C10.2057 4.48193 10.2192 4.47293 10.2297 4.46143L10.6247 4.18643C10.6372 4.18643 10.6497 4.15893 10.6747 4.18643L11.1102 4.48543ZM11.1102 6.35793C11.1277 6.33793 11.1102 6.32043 11.1102 6.30293C11.0627 6.14793 11.0152 5.99293 10.9652 5.84043C10.9612 5.83343 10.9592 5.82543 10.9592 5.81693C10.9592 5.79793 10.9697 5.78193 10.9847 5.77343C11.1222 5.67343 11.2572 5.57093 11.3897 5.46843C11.3897 5.46843 11.4172 5.46843 11.4172 5.43593C11.2422 5.43593 11.0672 5.43593 10.8947 5.43593C10.8922 5.43643 10.8892 5.43643 10.8862 5.43643C10.8572 5.43643 10.8332 5.41593 10.8277 5.38893C10.7727 5.22143 10.7127 5.05593 10.6527 4.88843L10.6352 4.93343C10.5827 5.08343 10.5277 5.23093 10.4802 5.38093C10.4747 5.41593 10.4447 5.44243 10.4087 5.44243C10.4032 5.44243 10.3977 5.44193 10.3922 5.44043C10.2372 5.44043 10.0802 5.44043 9.92273 5.44043C9.91023 5.44043 9.89523 5.44043 9.88523 5.44043L10.1802 5.66293C10.2352 5.70543 10.3152 5.73793 10.3352 5.79293C10.3552 5.84793 10.3052 5.92793 10.2852 5.99543C10.2477 6.11293 10.2127 6.22793 10.1727 6.35543L10.6202 6.04293C10.6327 6.04293 10.6452 6.01543 10.6702 6.04293C10.8127 6.14793 10.9652 6.24543 11.1102 6.35793ZM4.88023 6.35793C4.98273 6.29793 5.07273 6.22543 5.17023 6.15793L5.34773 6.03793L5.52773 6.16043L5.81523 6.36043C5.81523 6.34543 5.81523 6.33793 5.81523 6.32793C5.77023 6.18043 5.72523 6.03043 5.67523 5.88543C5.66773 5.87243 5.66373 5.85643 5.66373 5.83993C5.66373 5.80343 5.68423 5.77143 5.71473 5.75543C5.85223 5.65793 5.98523 5.55243 6.12273 5.44993C6.11473 5.44643 6.10523 5.44493 6.09523 5.44493C6.08523 5.44493 6.07573 5.44693 6.06723 5.45043C5.90723 5.45043 5.75023 5.45043 5.59023 5.45043C5.58823 5.45043 5.58623 5.45093 5.58373 5.45093C5.55773 5.45093 5.53573 5.43293 5.53023 5.40843C5.48023 5.25843 5.42773 5.10793 5.37523 4.96043C5.37523 4.94293 5.37523 4.92043 5.34773 4.90793C5.29023 5.07043 5.23273 5.23043 5.18023 5.39043C5.16523 5.43543 5.14773 5.45293 5.09773 5.45043C4.94023 5.45043 4.78023 5.45043 4.62273 5.45043C4.61023 5.45043 4.59523 5.45043 4.58273 5.45043L5.01523 5.77543C5.03223 5.78443 5.04323 5.80193 5.04323 5.82193C5.04323 5.83043 5.04123 5.83843 5.03773 5.84593C4.98773 5.99843 4.94023 6.15293 4.89273 6.30793C4.89273 6.32543 4.87523 6.34043 4.89273 6.35793H4.88023ZM2.75023 6.92793C2.69773 6.92793 2.68523 6.92793 2.68523 6.99293C2.68523 8.78793 2.68523 10.5821 2.68523 12.3754C2.68523 12.3789 2.68523 12.3824 2.68523 12.3864C2.68523 12.6399 2.77373 12.8724 2.92173 13.0549L2.92023 13.0529C3.11973 13.2954 3.37073 13.4879 3.65723 13.6154L3.67023 13.6204C4.04873 13.7959 4.48723 13.9274 4.94773 13.9924L4.97273 13.9954C5.54473 14.0779 6.05973 14.2169 6.54723 14.4094L6.50023 14.3929C7.07323 14.6054 7.56173 14.9239 7.96523 15.3279C7.98773 15.3479 8.00023 15.3479 8.02273 15.3279C8.29973 15.0474 8.62273 14.8134 8.97923 14.6374L9.00023 14.6279C9.56273 14.3379 10.2162 14.1239 10.9057 14.0219L10.9402 14.0179C11.3717 13.9564 11.7592 13.8554 12.1282 13.7154L12.0902 13.7279C12.4337 13.6089 12.7277 13.4244 12.9707 13.1874C13.1737 12.9999 13.3007 12.7344 13.3052 12.4389V6.99043C13.3052 6.94043 13.3052 6.92793 13.2427 6.92793H2.75023ZM6.62773 6.23543C6.62773 6.20793 6.62773 6.18793 6.62773 6.17043C6.62773 6.15293 6.62773 6.12793 6.62773 6.10543C6.71873 5.50293 6.88323 4.96043 7.11373 4.45443L7.09773 4.49293C7.13773 4.40543 7.13773 4.40793 7.04523 4.37793C7.00023 4.36293 6.92523 4.37793 6.91773 4.33543C6.91023 4.29293 6.95523 4.24793 6.97523 4.20293C6.99523 4.15793 7.00523 4.16793 7.03773 4.17293C7.26073 4.22093 7.45773 4.30743 7.63073 4.42643L7.62523 4.42293C7.71273 4.48293 7.71273 4.48293 7.65523 4.57793C7.64273 4.59393 7.63173 4.61193 7.62323 4.63143L7.62273 4.63293C7.62273 4.66043 7.59523 4.65543 7.57523 4.63293C7.55523 4.61043 7.47273 4.56543 7.42523 4.53043C7.37773 4.49543 7.37273 4.50543 7.35023 4.54793C7.07873 5.02443 6.85823 5.57643 6.71873 6.15993L6.71023 6.20293C6.69523 6.27043 6.71023 6.28793 6.77523 6.28293C6.84023 6.27793 6.92023 6.26293 6.99273 6.25043C7.47923 6.17743 7.91723 6.02293 8.31173 5.80043L8.29273 5.81043C8.78973 5.53793 9.17423 5.11193 9.38673 4.59643L9.39273 4.58043C9.51923 4.27143 9.59323 3.91243 9.59323 3.53643C9.59323 3.27443 9.55773 3.02093 9.49073 2.78043L9.49523 2.80043C9.46373 2.67043 9.42423 2.55793 9.37523 2.45093L9.38023 2.46293C9.34773 2.39543 9.32023 2.38793 9.26023 2.42543C9.06973 2.55793 8.90273 2.70043 8.75123 2.85693L8.75023 2.85793C8.72523 2.88293 8.73273 2.89293 8.75023 2.90793L8.90273 3.00793C8.93273 3.02793 8.93023 3.04293 8.90273 3.06293C8.86723 3.09193 8.83573 3.12143 8.80573 3.15243C8.78573 3.17493 8.77023 3.17543 8.74773 3.15293C8.64223 3.06893 8.52223 2.99593 8.39323 2.93943L8.38273 2.93543C8.30523 2.90043 8.22523 2.87793 8.13273 2.84793L8.19023 2.80793C8.32023 2.71793 8.32023 2.71793 8.47023 2.77293C8.48023 2.77993 8.49273 2.78393 8.50673 2.78393C8.52073 2.78393 8.53273 2.77993 8.54323 2.77293C8.70723 2.64793 8.89223 2.53293 9.08873 2.43643L9.10823 2.42793L9.25073 2.37793C9.25073 2.36293 9.23573 2.37793 9.22573 2.37793C9.20273 2.37493 9.17623 2.37343 9.14973 2.37343C9.12323 2.37343 9.09623 2.37493 9.07023 2.37843L9.07323 2.37793C8.69823 2.38643 8.34373 2.46343 8.01873 2.59743L8.03823 2.59043C7.33173 2.85643 6.78723 3.41293 6.54373 4.11043L6.53823 4.12793C6.44173 4.41343 6.38623 4.74243 6.38623 5.08393C6.38623 5.42543 6.44173 5.75443 6.54423 6.06193L6.53773 6.03993C6.56223 6.11443 6.59373 6.17893 6.63223 6.23843L6.63023 6.23493L6.62773 6.23543ZM2.50023 5.44543C2.50023 5.47043 2.52773 5.47793 2.54023 5.48793L2.86523 5.73793C2.96523 5.81543 2.96523 5.81543 2.92773 5.93543C2.89023 6.05543 2.83773 6.22293 2.79273 6.37043C2.81473 6.36693 2.83373 6.35643 2.84773 6.34043L3.14773 6.13043C3.18773 6.10293 3.22773 6.05543 3.26773 6.05543C3.30773 6.05543 3.34773 6.10293 3.38773 6.13043C3.50273 6.21043 3.61523 6.29293 3.73273 6.38043C3.73573 6.37393 3.73773 6.36593 3.73773 6.35793C3.73773 6.34993 3.73573 6.34193 3.73273 6.33493C3.68523 6.17993 3.63773 6.02543 3.58773 5.87293C3.58373 5.86493 3.58123 5.85543 3.58123 5.84593C3.58123 5.82343 3.59373 5.80343 3.61223 5.79343C3.74723 5.69593 3.87773 5.59593 4.01023 5.49593C4.01023 5.49593 4.03773 5.49593 4.03523 5.46093H3.50023C3.46273 5.46093 3.45023 5.44843 3.43773 5.41343C3.38273 5.24843 3.32273 5.08343 3.26523 4.91343C3.24523 4.91343 3.24523 4.94343 3.24023 4.96093C3.19023 5.10343 3.13523 5.24343 3.09273 5.38843C3.08623 5.42943 3.05123 5.46043 3.00873 5.46043C3.00223 5.46043 2.99573 5.45993 2.98973 5.45843L2.50023 5.44543ZM3.73273 4.49543C3.73573 4.48893 3.73773 4.48093 3.73773 4.47293C3.73773 4.46493 3.73573 4.45693 3.73273 4.44993C3.68523 4.29493 3.63773 4.14043 3.58773 3.98793C3.58423 3.98043 3.58223 3.97143 3.58223 3.96193C3.58223 3.93893 3.59423 3.91943 3.61273 3.90843C3.74773 3.81093 3.87823 3.71093 4.01073 3.61093C4.01073 3.61093 4.03823 3.61093 4.03823 3.57593H3.51823C3.51573 3.57643 3.51273 3.57643 3.50973 3.57643C3.47523 3.57643 3.44673 3.55143 3.44073 3.51893C3.38823 3.35643 3.32823 3.19343 3.27323 3.01843C3.25323 3.01843 3.25323 3.04843 3.24823 3.06343C3.20323 3.18593 3.16073 3.31343 3.11823 3.43093C3.07573 3.54843 3.07323 3.56093 2.93573 3.56093H2.50073C2.50073 3.58593 2.52323 3.59093 2.53323 3.59843L2.83323 3.82343C2.87573 3.85593 2.93573 3.88093 2.95323 3.92343C2.97073 3.96593 2.93073 4.02593 2.91323 4.07843C2.87323 4.21093 2.83323 4.34343 2.79073 4.47593C2.81573 4.47593 2.82573 4.46093 2.84073 4.45093C2.97073 4.36093 3.09073 4.27093 3.22823 4.17843C3.23823 4.16943 3.25123 4.16343 3.26573 4.16343C3.28023 4.16343 3.29323 4.16893 3.30323 4.17843C3.36823 4.22843 3.43573 4.27343 3.50323 4.32093L3.73273 4.49543ZM5.82523 4.49543L5.81273 4.45793C5.76439 4.29126 5.71439 4.13126 5.66273 3.97793C5.65973 3.97093 5.65773 3.96243 5.65773 3.95393C5.65773 3.93093 5.67073 3.91093 5.68973 3.90093L5.90023 3.74593L6.12023 3.57843C6.11173 3.57593 6.10173 3.57393 6.09173 3.57393C6.08173 3.57393 6.07173 3.57543 6.06223 3.57843C5.90723 3.57843 5.75273 3.57843 5.59773 3.57843C5.59473 3.57893 5.59073 3.57943 5.58723 3.57943C5.55473 3.57943 5.52773 3.55543 5.52273 3.52393C5.47523 3.37893 5.42273 3.23093 5.37273 3.08593C5.37273 3.06843 5.37273 3.04593 5.34523 3.03593C5.28773 3.20093 5.22773 3.36343 5.17273 3.53593C5.16823 3.56493 5.14323 3.58643 5.11373 3.58643C5.11073 3.58643 5.10773 3.58643 5.10523 3.58593H4.57323L4.62323 3.62843C4.75323 3.72593 4.87323 3.82343 5.01323 3.91843C5.02973 3.92793 5.04073 3.94593 5.04073 3.96593C5.04073 3.97393 5.03873 3.98193 5.03573 3.98893C4.98323 4.14643 4.93573 4.30343 4.88823 4.46093C4.88823 4.47343 4.87323 4.48593 4.88823 4.50343C5.02573 4.40843 5.16323 4.31343 5.29823 4.21593C5.31173 4.20143 5.33073 4.19193 5.35173 4.19193C5.37273 4.19193 5.39223 4.20093 5.40523 4.21593C5.53773 4.30593 5.67523 4.39843 5.82523 4.50343V4.49543ZM13.2027 6.34543C13.2027 6.32793 13.2027 6.31543 13.2027 6.30043C13.1552 6.14793 13.1077 5.99293 13.0577 5.83793C13.0537 5.83043 13.0512 5.82143 13.0512 5.81143C13.0512 5.78943 13.0637 5.76993 13.0822 5.76043C13.2197 5.66043 13.3527 5.55793 13.4877 5.45543C13.4877 5.45543 13.5127 5.45543 13.5052 5.42793C13.3327 5.42793 13.1577 5.42793 12.9827 5.42793C12.9802 5.42843 12.9772 5.42843 12.9742 5.42843C12.9472 5.42843 12.9247 5.40893 12.9202 5.38293L12.7477 4.88243C12.7327 4.88243 12.7327 4.89993 12.7277 4.90993C12.6727 5.06743 12.6152 5.22743 12.5627 5.38743C12.5582 5.40943 12.5392 5.42543 12.5162 5.42543C12.5142 5.42543 12.5122 5.42543 12.5102 5.42493C12.4252 5.42493 12.3427 5.42493 12.2602 5.42493H11.9727C11.9727 5.44743 11.9977 5.45493 12.0127 5.46493L12.4077 5.76493C12.4227 5.77143 12.4332 5.78643 12.4332 5.80393C12.4332 5.81143 12.4312 5.81893 12.4277 5.82493L12.2927 6.25243C12.2927 6.28243 12.2777 6.30993 12.2652 6.35243L12.6977 6.04743C12.7087 6.03593 12.7242 6.02843 12.7412 6.02843C12.7582 6.02843 12.7742 6.03593 12.7847 6.04743C12.9222 6.15743 13.0622 6.25493 13.2022 6.35243L13.2027 6.34543ZM11.9777 3.55793V3.57043L12.4102 3.89543C12.4252 3.90343 12.4352 3.91943 12.4352 3.93693C12.4352 3.94443 12.4332 3.95143 12.4302 3.95793C12.4127 4.01043 12.3977 4.06243 12.3802 4.11493L12.2652 4.48493L12.7052 4.17493C12.7147 4.16543 12.7282 4.15893 12.7427 4.15893C12.7572 4.15893 12.7707 4.16493 12.7802 4.17493C12.8277 4.21243 12.8802 4.24743 12.9327 4.28243L13.2052 4.47493C13.2087 4.46943 13.2112 4.46243 13.2112 4.45493C13.2112 4.44743 13.2092 4.44043 13.2052 4.43493C13.1602 4.28493 13.1152 4.13493 13.0652 3.98743C13.0592 3.97643 13.0557 3.96343 13.0557 3.94943C13.0557 3.91793 13.0737 3.89093 13.0997 3.87793C13.2397 3.77793 13.3752 3.67293 13.5127 3.56793C13.5047 3.56443 13.4952 3.56243 13.4852 3.56243C13.4752 3.56243 13.4657 3.56443 13.4572 3.56793C13.3097 3.56793 13.1627 3.56793 13.0152 3.56793C13.0107 3.56893 13.0052 3.56943 12.9997 3.56943C12.9552 3.56943 12.9187 3.53643 12.9127 3.49343C12.8627 3.33593 12.8052 3.18043 12.7452 3.01543L12.7227 3.06793C12.6727 3.21293 12.6202 3.35793 12.5727 3.50543C12.5667 3.54143 12.5357 3.56893 12.4987 3.56893C12.4947 3.56893 12.4912 3.56843 12.4872 3.56793C12.3122 3.56293 12.1452 3.56543 11.9777 3.56543V3.55793Z" fill="black"/>
<path d="M4.42023 10.0504V12.2204C4.42023 12.2224 4.41973 12.2254 4.41973 12.2279C4.41973 12.2589 4.43573 12.2864 4.45973 12.3029C4.55973 12.3754 4.65523 12.4529 4.75523 12.5254C4.77523 12.5389 4.78773 12.5619 4.78773 12.5874C4.78773 12.5894 4.78773 12.5914 4.78773 12.5934C4.78773 12.7959 4.78773 12.9959 4.78773 13.1984C4.78773 13.2384 4.78773 13.2434 4.73773 13.2334L3.23773 12.8509C3.20273 12.8509 3.18773 12.8309 3.18773 12.7909C3.18773 12.6234 3.18773 12.4559 3.18773 12.2909C3.18723 12.2889 3.18723 12.2864 3.18723 12.2839C3.18723 12.2599 3.20323 12.2399 3.22473 12.2334C3.31973 12.2009 3.41273 12.1609 3.50523 12.1284C3.53423 12.1214 3.55573 12.0959 3.55573 12.0649C3.55573 12.0619 3.55573 12.0584 3.55523 12.0554C3.55523 11.6754 3.55523 11.3059 3.55523 10.9159C3.55523 10.0784 3.55523 9.23843 3.55523 8.39843C3.55573 8.39543 3.55623 8.39143 3.55623 8.38743C3.55623 8.35493 3.53523 8.32793 3.50573 8.31843C3.40823 8.27343 3.31273 8.22343 3.21523 8.17593C3.19323 8.16943 3.17773 8.14943 3.17773 8.12543C3.17773 8.12393 3.17773 8.12243 3.17773 8.12043C3.17773 7.92043 3.17773 7.72043 3.17773 7.52043C3.17773 7.48793 3.17773 7.47793 3.22023 7.47793H4.34773C4.39023 7.47793 4.39773 7.50293 4.40523 7.53043C4.63189 8.22543 4.85773 8.92043 5.08273 9.61543C5.22106 10.0304 5.35689 10.4471 5.49023 10.8654C5.49023 10.8804 5.49023 10.8979 5.51023 10.9079C5.51273 10.8999 5.51373 10.8909 5.51373 10.8819C5.51373 10.8729 5.51223 10.8634 5.50973 10.8549V8.40043C5.51023 8.39693 5.51073 8.39243 5.51073 8.38793C5.51073 8.35593 5.49073 8.32893 5.46273 8.31793C5.37773 8.27543 5.29723 8.22543 5.21223 8.18043C5.19273 8.17143 5.17973 8.15243 5.17973 8.13043C5.17973 8.12943 5.17973 8.12893 5.17973 8.12793C5.17973 7.92543 5.17973 7.72543 5.17973 7.52293C5.17973 7.49293 5.17973 7.48543 5.21973 7.48543H6.63473C6.66473 7.48543 6.67473 7.48543 6.67473 7.52293V8.12793C6.67523 8.12993 6.67523 8.13243 6.67523 8.13543C6.67523 8.15643 6.66273 8.17443 6.64523 8.18293L6.39473 8.32293C6.36923 8.33543 6.35173 8.36093 6.35173 8.39093C6.35173 8.39343 6.35173 8.39593 6.35223 8.39843V13.6029C6.35223 13.6679 6.35223 13.6679 6.29223 13.6504C6.06223 13.5804 5.83473 13.5104 5.60723 13.4454C5.57273 13.4379 5.54623 13.4119 5.53723 13.3784C5.17889 12.2818 4.81389 11.1854 4.44223 10.0904C4.43823 10.0799 4.43373 10.0664 4.43023 10.0529L4.42973 10.0504H4.42023Z" fill="black"/>
<path d="M8.59773 14.3929L8.14023 14.2229L7.05523 13.8179C7.02773 13.8124 7.00723 13.7879 7.00723 13.7589C7.00723 13.7559 7.00723 13.7529 7.00773 13.7499C7.00773 13.5833 7.00773 13.4238 7.00773 13.2704C7.00723 13.2684 7.00723 13.2659 7.00723 13.2634C7.00723 13.2384 7.02423 13.2169 7.04723 13.2104C7.13473 13.1779 7.22023 13.1404 7.29773 13.1054C7.32723 13.0979 7.34823 13.0714 7.34823 13.0399C7.34823 13.0364 7.34773 13.0334 7.34773 13.0299V8.39293C7.34823 8.38993 7.34823 8.38693 7.34823 8.38343C7.34823 8.35343 7.32973 8.32793 7.30323 8.31793C7.21323 8.27543 7.12773 8.22793 7.04023 8.18543C7.01673 8.17643 7.00073 8.15393 7.00023 8.12793C7.00023 7.93126 7.00023 7.73376 7.00023 7.53543C7.00023 7.49543 7.01273 7.48543 7.05273 7.48543H9.72273C9.76273 7.48543 9.77523 7.48543 9.77523 7.53543C9.77523 7.96043 9.77523 8.38793 9.77523 8.81293C9.77523 8.85043 9.77523 8.86543 9.72523 8.86543C9.55523 8.86543 9.38273 8.86543 9.22523 8.86543C9.22273 8.86593 9.22023 8.86593 9.21723 8.86593C9.19073 8.86593 9.16873 8.84643 9.16523 8.82043C9.11523 8.66043 9.06023 8.49993 9.01023 8.33993C9.01023 8.30993 8.98773 8.29743 8.95523 8.29743C8.75023 8.29743 8.54523 8.29743 8.34023 8.29743C8.30273 8.29743 8.29273 8.30993 8.29273 8.34493C8.29273 8.84493 8.29273 9.34493 8.29273 9.84493C8.29273 9.87993 8.29273 9.89243 8.33773 9.89243H8.78273C8.78523 9.89293 8.78773 9.89293 8.79023 9.89293C8.81273 9.89293 8.83223 9.88093 8.84223 9.86293L8.99973 9.62743C9.01073 9.60643 9.03223 9.59243 9.05723 9.59243C9.05823 9.59243 9.05873 9.59243 9.05973 9.59243H9.39973C9.42973 9.59243 9.43723 9.59243 9.43723 9.63243V10.9724C9.43723 11.0049 9.43723 11.0124 9.39723 11.0124H9.04973C9.04823 11.0124 9.04673 11.0124 9.04523 11.0124C9.02323 11.0124 9.00473 11.0004 8.99473 10.9824C8.94223 10.9049 8.88723 10.8294 8.83723 10.7519C8.82573 10.7339 8.80523 10.7219 8.78223 10.7219C8.78123 10.7219 8.78023 10.7219 8.77923 10.7219H8.31923C8.28673 10.7219 8.27923 10.7219 8.27923 10.7644V13.3144C8.27923 13.3149 8.27923 13.3154 8.27923 13.3159C8.27923 13.3399 8.28873 13.3614 8.30423 13.3774L8.57173 13.6949C8.58723 13.7109 8.59673 13.7324 8.59673 13.7559C8.59673 13.7564 8.59673 13.7569 8.59673 13.7574L8.59773 14.3929Z" fill="black"/>
<path d="M10.0352 13.5929V12.9279C10.0362 12.9079 10.0467 12.8909 10.0627 12.8804L10.3977 12.6079C10.4177 12.5934 10.4302 12.5699 10.4302 12.5434C10.4302 12.5424 10.4302 12.5414 10.4302 12.5404V8.39043C10.4302 8.38843 10.4307 8.38593 10.4307 8.38393C10.4307 8.35743 10.4142 8.33493 10.3907 8.32543C10.3032 8.28293 10.2177 8.23543 10.1402 8.19043C10.1182 8.18393 10.1027 8.16393 10.1027 8.13993C10.1027 8.13843 10.1027 8.13693 10.1027 8.13493C10.1027 7.93243 10.1027 7.73243 10.1027 7.52993C10.1027 7.49743 10.1027 7.48493 10.1477 7.48493H11.6477C11.6802 7.48493 11.6877 7.48493 11.6877 7.52493V8.12743C11.6877 8.12943 11.6882 8.13143 11.6882 8.13343C11.6882 8.15693 11.6737 8.17643 11.6532 8.18443L11.4302 8.30943C11.3972 8.32193 11.3747 8.35293 11.3747 8.38943C11.3747 8.39293 11.3747 8.39643 11.3752 8.39993C11.3752 9.53493 11.3752 10.6694 11.3752 11.8044C11.3752 11.9619 11.3752 12.1219 11.3752 12.2794C11.3752 12.3169 11.3752 12.3269 11.4202 12.3144L12.0227 12.1519C12.0527 12.1519 12.0602 12.1319 12.0652 12.1019L12.1777 11.1969C12.1777 11.0994 12.1777 11.0994 12.2852 11.0994H12.7852C12.8202 11.0994 12.8302 11.0994 12.8302 11.1419V12.7994C12.8302 12.8319 12.8302 12.8444 12.7902 12.8519L10.0652 13.5794L10.0352 13.5929Z" fill="black"/>
<path d="M7.14023 3.93043C7.17773 3.87043 7.21523 3.81543 7.25023 3.75793C7.25023 3.73793 7.27523 3.75793 7.29023 3.75793C7.55073 3.81693 7.77873 3.92993 7.97073 4.08543L7.96773 4.08293C7.99023 4.10043 7.98773 4.11293 7.96773 4.13293C7.94223 4.16593 7.91673 4.20343 7.89323 4.24243L7.89023 4.24793C7.87023 4.28043 7.85773 4.28293 7.82523 4.24793C7.66623 4.12043 7.47723 4.02193 7.27123 3.96543L7.26023 3.96293L7.14023 3.93043Z" fill="black"/>
<path d="M7.57023 3.37793C7.65473 3.39293 7.72923 3.41443 7.80023 3.44293L7.79273 3.44043C7.96823 3.50543 8.12073 3.58993 8.25723 3.69343L8.25273 3.69043C8.28023 3.71043 8.28273 3.72543 8.25273 3.75043C8.22273 3.77543 8.19023 3.82793 8.16023 3.86793C8.13023 3.90793 8.13523 3.89043 8.11523 3.86793C7.92823 3.71193 7.70223 3.59693 7.45373 3.53993L7.44273 3.53793C7.41773 3.53793 7.41023 3.52543 7.42773 3.50293C7.44523 3.48043 7.49773 3.42293 7.53023 3.38043C7.56273 3.33793 7.55523 3.36043 7.57023 3.37793Z" fill="black"/>
<path d="M7.75023 3.16793C7.81273 3.11543 7.86773 3.07043 7.92023 3.02293C7.93273 3.02293 7.94523 3.02293 7.96023 3.02293C8.20023 3.08693 8.40923 3.19443 8.58873 3.33793L8.58523 3.33543C8.61023 3.35543 8.60523 3.36543 8.58523 3.38543C8.56523 3.40543 8.51023 3.49293 8.46023 3.50293C8.41023 3.51293 8.37023 3.44543 8.32273 3.41543C8.15923 3.30393 7.96773 3.21843 7.76173 3.17043L7.75023 3.16793Z" fill="black"/>
</g>
<defs>
<clipPath id="clip0_6_339">
<rect width="16" height="16" fill="white" transform="translate(0 0.37793)"/>
</clipPath>
</defs>
</svg>
