<svg width="16" height="17" viewBox="0 0 16 17" fill="none" xmlns="http://www.w3.org/2000/svg">
<path d="M11.82 2.32444C10.4265 1.85794 7.98 1.73094 8 1.71094C8 1.71094 5.5735 1.86444 4.18 2.32444C3.1535 2.66444 2 3.86444 2 4.29094C2 5.79744 2.3 7.55744 2.3 9.05744C2.3 9.80394 2.9065 10.8639 3.4335 11.9909C3.92 13.0244 4.467 13.8374 4.94 14.4309C5.0535 14.5844 5.24 14.8309 5.5 14.8309C6.14 14.8309 7.2865 13.2844 7.58 12.8844C8.0065 12.3044 8.0335 11.3444 7.78 10.6509C7.3865 9.54444 6.4535 8.75094 5.62 8.75094C5.4265 8.75094 5.1735 8.76444 4.88 8.90444L4.74 7.88444H11.2465L11.1065 8.90444C10.8065 8.76444 10.5665 8.75094 10.3665 8.75094C9.533 8.75094 8.6 9.54444 8.2065 10.6509C7.953 11.3509 7.9865 12.3109 8.4065 12.8844C8.7 13.2844 9.8465 14.8309 10.4865 14.8309C10.753 14.8309 10.94 14.5844 11.0465 14.4309C11.513 13.8374 12.0665 13.0244 12.553 11.9909C13.0795 10.8644 13.6865 9.80444 13.6865 9.05744C13.6865 7.55744 13.9865 5.79094 13.9865 4.29094C13.9865 3.85744 12.84 2.67094 11.8065 2.32444H11.82ZM8 6.37794C7.08 6.37794 6.3335 5.63144 6.3335 4.71144C6.3335 3.79144 7.08 3.04494 8 3.04494C8.92 3.04494 9.6665 3.79144 9.6665 4.71144C9.6665 5.63144 8.92 6.37794 8 6.37794Z" fill="black"/>
</svg>
