<svg width="16" height="17" viewBox="0 0 16 17" fill="none" xmlns="http://www.w3.org/2000/svg">
<g clip-path="url(#clip0_6_222)">
<path d="M4.13992 4.56038C4.63392 4.28338 4.96242 3.76288 4.96242 3.16588C4.96242 2.28588 4.24892 1.57238 3.36892 1.57238C2.48892 1.57238 1.77542 2.28588 1.77542 3.16588C1.77542 3.46638 1.85892 3.74788 2.00342 3.98738L1.99942 3.98038C2.28042 4.45088 2.78692 4.76138 3.36642 4.76138C3.65042 4.76138 3.91692 4.68688 4.14742 4.55638L4.13992 4.56038Z" fill="black"/>
<path d="M4.96642 6.46038L1.95992 8.19388L2.85342 9.74738L8.95342 6.21388L8.06692 4.67388C7.75192 4.13488 7.17592 3.77838 6.51692 3.77838C5.52892 3.77838 4.72792 4.57938 4.72792 5.56738C4.72792 5.89638 4.81642 6.20438 4.97142 6.46938L4.96642 6.46038Z" fill="black"/>
<path d="M13.8534 7.10688L11.8534 4.87338L11.3134 5.17338L9.47342 1.97988L10.0199 1.66638L9.39992 0.599883L8.85342 0.913383L8.54692 0.379883L7.48042 0.999883L11.7204 8.33988L13.8534 7.10688Z" fill="black"/>
<path d="M14.1799 8.59338L8.17992 12.0534L7.33342 10.5934L8.89992 9.71338C9.44292 9.39988 9.80242 8.82238 9.80242 8.16088C9.80242 7.83438 9.71492 7.52838 9.56192 7.26488L9.56642 7.27338L6.45992 9.04688C5.91542 9.35988 5.55442 9.93838 5.55442 10.6014C5.55442 10.9299 5.64292 11.2379 5.79792 11.5024L5.79342 11.4939L6.66692 12.9474L4.07342 14.4339C3.90492 14.5339 3.70192 14.5929 3.48542 14.5929C3.05492 14.5929 2.67892 14.3599 2.47642 14.0129L2.47342 14.0074L0.919922 14.9009C1.44342 15.7899 2.39542 16.3774 3.48492 16.3774C4.03042 16.3774 4.54142 16.2304 4.98042 15.9734L4.96642 15.9809L15.0799 10.1474L14.1799 8.59338Z" fill="black"/>
</g>
<defs>
<clipPath id="clip0_6_222">
<rect width="16" height="16" fill="white" transform="translate(0 0.37793)"/>
</clipPath>
</defs>
</svg>
