<svg width="17" height="16" viewBox="0 0 17 16" fill="none" xmlns="http://www.w3.org/2000/svg">
<path d="M14.0098 7.393C12.9823 4.527 10.8048 1.953 8.49979 0C6.19479 1.9535 4.01729 4.527 2.98979 7.393C2.35429 9.1655 2.29179 11.0895 3.18629 12.79C4.21529 14.7455 6.28979 16 8.49929 16C10.7088 16 12.7838 14.7455 13.8123 12.79C14.7073 11.0895 14.6443 9.1655 14.0088 7.393H14.0098ZM12.0428 11.8585C11.3583 13.1595 9.96779 14 8.49979 14C7.63829 14 6.80429 13.7105 6.12329 13.2085C6.33029 13.2355 6.53929 13.25 6.75029 13.25C8.58529 13.25 10.3233 12.2 11.1783 10.5745C11.8793 9.242 11.8188 7.858 11.5513 6.7565C11.7788 7.1965 11.9718 7.6345 12.1268 8.068C12.4798 9.0535 12.7523 10.511 12.0428 11.8585Z" fill="black"/>
</svg>
