<svg width="16" height="16" viewBox="0 0 16 16" fill="none" xmlns="http://www.w3.org/2000/svg">
<path d="M7.49347 6.63447C7.87997 6.63447 8.33997 6.83447 8.57347 7.13447V8.84748C8.33997 9.15448 7.87347 9.36097 7.49347 9.36097C6.78697 9.36097 6.26697 8.83447 6.26697 7.99447C6.26697 7.15447 6.78697 6.63447 7.49347 6.63447Z" fill="black"/>
<path fill-rule="evenodd" clip-rule="evenodd" d="M8 16.001C12.4185 16.001 16 12.4195 16 8.00098C16 3.58248 12.4185 0.000976562 8 0.000976562C3.5815 0.000976562 0 3.58248 0 8.00098C0 12.4195 3.5815 16.001 8 16.001ZM10.347 4.70747H10.9735V3.74097H10.347V3.06747H8.57347V3.74097H6.94697V4.71447H8.57347V5.86097C8.11997 5.30747 7.52697 5.06097 6.91347 5.06097C5.51347 5.06097 4.43347 6.09447 4.43347 7.99447C4.43347 9.89447 5.53347 10.941 6.91347 10.941C7.53997 10.941 8.10697 10.688 8.57347 10.1545V10.801H10.347V4.70747ZM9.81347 11.961H5.59997V12.9475H9.81347V11.961Z" fill="black"/>
</svg>
