<svg width="16" height="17" viewBox="0 0 16 17" fill="none" xmlns="http://www.w3.org/2000/svg">
<path d="M0 1.29102V3.04452H1.8065V15.4445H3.333C3.5105 14.649 4.21 14.0635 5.0465 14.0635C5.883 14.0635 6.5825 14.649 6.7575 15.433L6.7595 15.4445H9.253C9.4305 14.649 10.13 14.0635 10.9665 14.0635C11.803 14.0635 12.5025 14.649 12.6775 15.433L12.6795 15.4445H14.2195V3.04452H15.9995V1.29102H0ZM10.7535 12.691L8.147 10.0845C7.7625 10.2655 7.3115 10.371 6.8365 10.371C5.1025 10.371 3.6965 8.96502 3.6965 7.23102C3.6965 6.68902 3.8335 6.17952 4.0755 5.73452L4.0675 5.75102L5.7875 7.47102C5.958 7.64152 6.194 7.74702 6.454 7.74702C6.9745 7.74702 7.397 7.32502 7.397 6.80402C7.397 6.54352 7.2915 6.30802 7.121 6.13752L5.3745 4.44402C5.807 4.20502 6.3225 4.06452 6.871 4.06452C8.605 4.06452 10.011 5.47052 10.011 7.20452C10.011 7.69352 9.899 8.15702 9.6995 8.56952L9.7075 8.55102L12.314 11.1575L10.7535 12.691Z" fill="black"/>
</svg>
