<svg width="16" height="17" viewBox="0 0 16 17" fill="none" xmlns="http://www.w3.org/2000/svg">
<g clip-path="url(#clip0_6_493)">
<path d="M16 13.044H15.6735C14.831 13.0995 14.068 13.399 13.443 13.8715L13.4535 13.864C13.0715 14.1835 12.575 14.3775 12.0335 14.3775C12.022 14.3775 12.01 14.3775 11.9985 14.377H12.0005C11.985 14.3775 11.967 14.3775 11.9485 14.3775C11.417 14.3775 10.9295 14.1885 10.55 13.874L10.5535 13.877C9.938 13.4065 9.173 13.1025 8.34 13.0445L8.327 13.044H7.6805C6.836 13.0985 6.07 13.398 5.4435 13.8715L5.454 13.864C5.0755 14.1835 4.582 14.3775 4.0435 14.3775C4.0285 14.3775 4.0135 14.3775 3.9985 14.377H4.0005C3.9865 14.3775 3.9695 14.3775 3.953 14.3775C3.4225 14.3775 2.936 14.1885 2.557 13.874L2.5605 13.877C1.9455 13.406 1.18 13.102 0.3465 13.0445L0.3335 13.044H0V15.044C0.0205 15.0435 0.044 15.0435 0.068 15.0435C1.006 15.0435 1.8705 15.357 2.563 15.885L2.553 15.8775C2.928 16.189 3.4145 16.378 3.9455 16.378C3.9645 16.378 3.9835 16.3775 4.0025 16.3775H3.9995C4.015 16.378 4.033 16.378 4.0515 16.378C4.583 16.378 5.0705 16.189 5.45 15.8745L5.4465 15.8775C6.129 15.357 6.9935 15.0435 7.9315 15.0435C7.9555 15.0435 7.9795 15.0435 8.0035 15.044H8C8.0215 15.0435 8.047 15.0435 8.0725 15.0435C9.011 15.0435 9.8765 15.357 10.57 15.885L10.56 15.8775C10.936 16.189 11.423 16.378 11.9545 16.378C11.9705 16.378 11.9865 16.378 12.0025 16.3775H12C12.0125 16.378 12.0275 16.378 12.0425 16.378C12.577 16.378 13.0675 16.189 13.4505 15.8745L13.4465 15.8775C14.1265 15.357 14.9895 15.0435 15.925 15.0435C15.9515 15.0435 15.9775 15.0435 16.0035 15.044H15.9995L16 13.044Z" fill="black"/>
<path d="M9.1265 3.35095C9.3545 3.48495 9.629 3.56395 9.922 3.56395C10.802 3.56395 11.5155 2.85045 11.5155 1.97045C11.5155 1.09045 10.802 0.376953 9.922 0.376953C9.334 0.376953 8.82 0.695953 8.544 1.16995L8.54 1.17745C8.407 1.40495 8.329 1.67845 8.329 1.97045C8.329 2.55745 8.6465 3.07045 9.1195 3.34695L9.1265 3.35095Z" fill="black"/>
<path d="M14.22 10.044C13.7315 10.3725 13.143 10.5905 12.508 10.6495L12.493 10.6505L10.993 8.23695C10.713 7.70595 10.2755 7.28945 9.743 7.04395L9.7265 7.03695L8.9465 6.69045L9.34 6.02395L13.6065 8.15745L14.353 6.66395L10.3995 4.66395C10.2395 4.69645 10.056 4.71545 9.868 4.71545C9.381 4.71545 8.9235 4.59045 8.525 4.37045L8.5395 4.37745C7.9755 4.03745 7.55 3.51695 7.3385 2.89695L7.333 2.87745C6.733 2.63745 5.9995 2.01745 5.9995 0.377453H4.2995C4.2995 2.43745 5.233 3.58395 6.226 4.16395L5.606 5.26395C5.4725 5.49845 5.3935 5.77945 5.3935 6.07845C5.3935 6.59445 5.628 7.05595 5.9965 7.36195L5.999 7.36395L6.2925 8.24395L2.826 9.57745L0.2325 9.23745C0.225 9.29745 0.2205 9.36695 0.2205 9.43695C0.2205 10.288 0.8555 10.9905 1.6775 11.0965L1.686 11.0975L11.386 12.2975C11.6075 12.33 11.864 12.3495 12.1245 12.351H12.126C13.2555 12.3505 14.304 12.004 15.1715 11.4125L15.153 11.4245L14.22 10.044ZM6.3665 9.99745L7.233 9.65745C7.7205 9.47595 8.0615 9.01445 8.0615 8.47345C8.0615 8.33445 8.039 8.20045 7.997 8.07495L7.9995 8.08395L9.073 8.55745C9.282 8.65695 9.448 8.81845 9.5505 9.01845L9.553 9.02445L10.4665 10.5045L6.3665 9.99745Z" fill="black"/>
</g>
<defs>
<clipPath id="clip0_6_493">
<rect width="16" height="16" fill="white" transform="translate(0 0.37793)"/>
</clipPath>
</defs>
</svg>
