<svg width="16" height="17" viewBox="0 0 16 17" fill="none" xmlns="http://www.w3.org/2000/svg">
<g clip-path="url(#clip0_6_461)">
<path d="M7.33351 8.68445C7.56151 8.81845 7.83601 8.89745 8.12901 8.89745C9.00901 8.89745 9.72251 8.18395 9.72251 7.30395C9.72251 6.42395 9.00901 5.71045 8.12901 5.71045C7.54101 5.71045 7.02701 6.02945 6.75101 6.50345L6.74701 6.51095C6.61401 6.73845 6.53601 7.01195 6.53601 7.30395C6.53601 7.89095 6.85351 8.40394 7.32651 8.68045L7.33351 8.68445Z" fill="black"/>
<path d="M16 6.73145V0.731445H13.6665V2.89795H2.33301V0.731445H-0.000488281V6.73145H2.33301V4.56495H3.07951C3.15301 5.23145 3.70601 9.43145 6.20601 10.8984C6.16001 11.0479 6.13301 11.2199 6.13251 11.3979V12.7314C6.13251 12.7324 6.13251 12.7334 6.13251 12.7344C6.13251 12.8654 6.14701 12.9934 6.17451 13.1164L6.17251 13.1049L5.33251 12.9314C5.20601 12.9064 5.06101 12.8919 4.91251 12.8919C3.67201 12.8919 2.66601 13.8974 2.66601 15.1379V16.3779H4.33251V15.1379C4.33251 15.1369 4.33251 15.1354 4.33251 15.1339C4.33251 14.9529 4.41501 14.7919 4.54501 14.6854L4.54601 14.6844C4.64451 14.6019 4.77301 14.5519 4.91301 14.5519C4.95551 14.5519 4.99701 14.5564 5.03651 14.5654L5.03251 14.5649L6.09251 14.7849C6.71601 14.9199 7.43201 14.9974 8.16601 14.9974C8.90001 14.9974 9.61601 14.9199 10.3065 14.7729L10.2395 14.7849L11.3995 14.5514C11.4355 14.5434 11.477 14.5389 11.5195 14.5389C11.84 14.5389 12.0995 14.7984 12.0995 15.1189C12.0995 15.1209 12.0995 15.1229 12.0995 15.1249V16.3779H13.766V15.1314C13.765 13.8879 12.7565 12.8799 11.5125 12.8799C11.3545 12.8799 11.2 12.8964 11.051 12.9274L11.0655 12.9249L10.1255 13.1184C10.151 13.0034 10.1655 12.8709 10.1655 12.7354C10.1655 12.7339 10.1655 12.7329 10.1655 12.7314V11.3979C10.1625 11.2114 10.1335 11.0329 10.082 10.8644L10.0855 10.8779C12.492 9.40444 12.9255 5.33145 12.992 4.56445H13.6655V6.73095L16 6.73145ZM8.92651 9.56444C8.69301 9.45994 8.42051 9.39845 8.13351 9.39795C7.84101 9.39995 7.56351 9.46394 7.31351 9.57644L7.32651 9.57144C5.49301 8.80494 4.89301 5.49795 4.76001 4.56495H11.28C11.1935 5.43845 10.72 8.77094 8.92651 9.56444Z" fill="black"/>
</g>
<defs>
<clipPath id="clip0_6_461">
<rect width="16" height="16" fill="white" transform="translate(0 0.37793)"/>
</clipPath>
</defs>
</svg>
