<svg width="16" height="17" viewBox="0 0 16 17" fill="none" xmlns="http://www.w3.org/2000/svg">
<g clip-path="url(#clip0_13_205)">
<path d="M11.17 0.37793C10.43 1.31793 9.29 1.91793 8.01 1.91793H7.98C6.7 1.91793 5.56 1.31793 4.83 0.37793H4.82L0 1.50793V6.69793H2.14V16.3779H13.86V6.69793H16V1.50793L11.17 0.37793ZM10.67 12.0179C10.42 12.3379 10.08 12.5879 9.64 12.7779C9.2 12.9579 8.71 13.0479 8.14 13.0479C7.57 13.0479 7.08 12.9579 6.64 12.7779C6.2 12.5879 5.86 12.3379 5.61 12.0179C5.36 11.6979 5.24 11.3379 5.24 10.9279C5.24 10.6179 5.31 10.3379 5.45 10.0679C5.6 9.80793 5.79 9.58793 6.04 9.41793C6.28 9.23793 6.56 9.12793 6.86 9.07793V9.02793C6.46 8.94793 6.14 8.75793 5.89 8.44793C5.64 8.13793 5.52 7.77793 5.52 7.36793C5.52 6.98793 5.63 6.63793 5.86 6.33793C6.08 6.02793 6.4 5.79793 6.79 5.61793C7.19 5.44793 7.64 5.35793 8.14 5.35793C8.64 5.35793 9.1 5.44793 9.49 5.61793C9.89 5.79793 10.2 6.03793 10.43 6.33793C10.65 6.64793 10.77 6.98793 10.77 7.36793C10.77 7.78793 10.64 8.13793 10.39 8.44793C10.14 8.75793 9.82 8.94793 9.43 9.02793V9.07793C9.72 9.12793 10 9.23793 10.24 9.41793C10.49 9.58793 10.68 9.80793 10.82 10.0679C10.97 10.3379 11.05 10.6179 11.05 10.9279C11.05 11.3379 10.92 11.6979 10.67 12.0179ZM8.79 9.83793C8.6 9.73793 8.39 9.68793 8.14 9.68793C7.89 9.68793 7.69 9.73793 7.5 9.83793C7.31 9.93793 7.16 10.0679 7.05 10.2379C6.94 10.3979 6.89 10.5879 6.89 10.8079C6.89 11.0279 6.94 11.2079 7.04 11.3679C7.15 11.5279 7.29 11.6579 7.48 11.7479C7.67 11.8379 7.89 11.8879 8.14 11.8879C8.39 11.8879 8.61 11.8379 8.8 11.7479C8.99 11.6579 9.13 11.5279 9.24 11.3679C9.35 11.2079 9.4 11.0179 9.4 10.8079C9.4 10.5979 9.34 10.3979 9.24 10.2379C9.13 10.0679 8.98 9.93793 8.79 9.83793ZM7.58 8.41793C7.75 8.49793 7.93 8.53793 8.14 8.53793C8.35 8.53793 8.54 8.49793 8.7 8.41793C8.86 8.32793 8.99 8.20793 9.09 8.05793C9.18 7.90793 9.22 7.73793 9.22 7.53793C9.22 7.33793 9.18 7.16793 9.09 7.02793C8.99 6.87793 8.87 6.75793 8.71 6.67793C8.54 6.58793 8.36 6.54793 8.14 6.54793C7.92 6.54793 7.74 6.58793 7.58 6.67793C7.42 6.75793 7.29 6.87793 7.2 7.02793C7.11 7.16793 7.06 7.33793 7.06 7.53793C7.06 7.73793 7.11 7.90793 7.2 8.05793C7.29 8.20793 7.42 8.32793 7.58 8.41793Z" fill="black"/>
</g>
<defs>
<clipPath id="clip0_13_205">
<rect width="16" height="16" fill="white" transform="translate(0 0.37793)"/>
</clipPath>
</defs>
</svg>
