<svg width="16" height="17" viewBox="0 0 16 17" fill="none" xmlns="http://www.w3.org/2000/svg">
<g clip-path="url(#clip0_6_555)">
<path d="M0.662918 13.9444L0.042918 15.4844C0.017918 15.5519 0.00341797 15.6299 0.00341797 15.7109C0.00341797 16.0769 0.297918 16.3734 0.662918 16.3774H1.99642L3.08292 13.1109H1.89642C1.34142 13.1119 0.865918 13.4524 0.666418 13.9354L0.662918 13.9444Z" fill="black"/>
<path d="M13.9964 0.37793L7.88292 12.3779C7.66342 12.8184 7.21892 13.1174 6.70392 13.1244H4.45642L3.36292 16.3779H7.94942C8.49042 16.3779 8.95692 16.0559 9.16592 15.5929L9.16942 15.5844C10.8029 11.8379 15.9959 0.37793 15.9959 0.37793H13.9964Z" fill="black"/>
<path d="M1.72992 9.87143C2.56342 10.4114 4.39642 10.5914 5.82992 10.2849C6.78992 10.0784 7.32992 9.71143 7.32992 9.31143V8.11793C6.97842 8.29393 6.57042 8.43643 6.14292 8.52543L6.10992 8.53143C5.58892 8.64593 4.98992 8.71143 4.37642 8.71143C4.35992 8.71143 4.34392 8.71143 4.32742 8.71143H4.32992C4.29492 8.71193 4.25392 8.71243 4.21242 8.71243C3.16992 8.71243 2.17892 8.49143 1.28392 8.09343L1.32992 8.11193V9.31193C1.35742 9.56093 1.51142 9.76843 1.72592 9.86993L1.72992 9.87143Z" fill="black"/>
<path d="M7.31642 6.25143C7.31642 6.87343 5.97942 7.37793 4.32992 7.37793C2.68042 7.37793 1.34342 6.87343 1.34342 6.25143C1.34342 5.62943 2.68042 5.12493 4.32992 5.12493C5.97942 5.12493 7.31642 5.62943 7.31642 6.25143Z" fill="black"/>
</g>
<defs>
<clipPath id="clip0_6_555">
<rect width="16" height="16" fill="white" transform="translate(0 0.37793)"/>
</clipPath>
</defs>
</svg>
