<svg width="16" height="17" viewBox="0 0 16 17" fill="none" xmlns="http://www.w3.org/2000/svg">
<g clip-path="url(#clip0_6_380)">
<path d="M3.81008 3.58102C4.32558 3.27752 4.66608 2.72552 4.66608 2.09402C4.66608 1.14402 3.89608 0.374023 2.94608 0.374023C1.99608 0.374023 1.22608 1.14402 1.22608 2.09402C1.22608 2.41102 1.31158 2.70752 1.46108 2.96252L1.45658 2.95452C1.75958 3.47202 2.31258 3.81402 2.94608 3.81402C3.26458 3.81402 3.56258 3.72752 3.81808 3.57702L3.81008 3.58102Z" fill="black"/>
<path d="M4.73658 5.63452L1.45008 7.51452L2.41658 9.19452L13.4966 2.79452L12.5301 1.11452L8.07008 3.70102C7.75258 3.04252 7.09008 2.59602 6.32308 2.59602C5.25508 2.59602 4.38958 3.46152 4.38958 4.52952C4.38958 4.94302 4.51958 5.32652 4.74058 5.64052L4.73658 5.63452Z" fill="black"/>
<path d="M14.6701 7.94752L8.19658 11.701L7.28308 10.121L8.95658 9.15452C9.54458 8.81552 9.93358 8.19052 9.93358 7.47402C9.93358 7.11002 9.83308 6.76952 9.65808 6.47902L9.66308 6.48752L6.32958 8.42102C5.74008 8.76152 5.35008 9.38852 5.35008 10.1065C5.35008 10.468 5.44908 10.8065 5.62158 11.0965L5.61658 11.0875L6.53008 12.6675L3.73658 14.261C3.55408 14.369 3.33408 14.433 3.09958 14.433C2.63358 14.433 2.22658 14.1815 2.00658 13.807L2.00358 13.801L0.330078 14.7675C0.893578 15.739 1.92858 16.382 3.11358 16.382C3.71208 16.382 4.27208 16.218 4.75158 15.9325L4.73708 15.9405L15.6706 9.62702L14.6701 7.94752Z" fill="black"/>
</g>
<defs>
<clipPath id="clip0_6_380">
<rect width="16" height="16" fill="white" transform="translate(0 0.37793)"/>
</clipPath>
</defs>
</svg>
