<svg width="16" height="17" viewBox="0 0 16 17" fill="none" xmlns="http://www.w3.org/2000/svg">
<g clip-path="url(#clip0_621_1325)">
<path d="M15.083 3.02816C13.6119 2.73257 12.3606 2.0079 11.6537 1.01624L11.3576 0.606228L10.8418 0.539482C8.96955 0.320173 7.03045 0.320173 5.15821 0.539482L4.65194 0.606228L4.35582 1.01624C3.64895 2.0079 2.39761 2.73257 0.926567 3.02816L0 3.20933V5.32613C0 7.66225 0.716418 9.92208 2.07284 11.8577C3.4197 13.8029 5.3206 15.2999 7.56537 16.2058L8.00478 16.3774L8.44418 16.2058C10.689 15.2999 12.5899 13.8029 13.9367 11.8577C15.2931 9.92208 16 7.66225 16 5.32613V3.20933L15.083 3.02816ZM14.8442 6.29872C14.8155 6.62291 14.7678 6.93757 14.7009 7.25223C14.4334 8.67297 13.8603 10.027 13.0197 11.2379C11.797 13.0019 10.0681 14.3655 8.02388 15.1855H7.98567C5.94149 14.3655 4.21254 13.0019 2.98985 11.2379C1.76716 9.48346 1.11761 7.4334 1.11761 5.32613V4.10563H1.14627C2.89433 3.75283 4.39403 2.86606 5.26328 1.64556H5.29194C7.08776 1.42625 8.92179 1.42625 10.7081 1.63603H10.7463C11.6155 2.86606 13.1152 3.75283 14.8633 4.10563L14.8919 5.32613C14.8919 5.65033 14.8728 5.97452 14.8442 6.29872Z" fill="black"/>
<path d="M7.99522 8.39657L6.4191 7.24282H2.22567C2.41672 8.53006 2.92299 9.76963 3.68716 10.8662C4.71881 12.3537 6.16119 13.4979 7.8806 14.1844L8.00478 14.2321L8.12895 14.1844C9.83881 13.4979 11.2907 12.3537 12.3224 10.8662C13.077 9.76963 13.5737 8.5396 13.7743 7.25235H9.46627L7.99522 8.39657Z" fill="black"/>
<path d="M10.4693 2.73268L10.3833 2.61826L10.24 2.59919C9.50448 2.51338 8.74985 2.47524 8.00478 2.47524C7.2597 2.47524 6.50507 2.51338 5.76955 2.59919L5.62627 2.61826L5.5403 2.73268C4.87164 3.6576 3.71582 4.34413 2.36896 4.61111L2.11104 4.66832V5.88882C2.11104 6.02232 2.11104 6.15581 2.13015 6.2893H6.73433L7.97612 7.20468L9.13194 6.29884H13.8699C13.889 6.16534 13.889 6.02232 13.889 5.88882V4.66832L13.631 4.61111C12.2842 4.34413 11.1379 3.6576 10.4693 2.73268Z" fill="black"/>
</g>
<defs>
<clipPath id="clip0_621_1325">
<rect width="16" height="16" fill="white" transform="translate(0 0.37793)"/>
</clipPath>
</defs>
</svg>
