<svg width="16" height="17" viewBox="0 0 16 17" fill="none" xmlns="http://www.w3.org/2000/svg">
<path d="M6.67504 12.0976V5.40258C6.67504 4.92758 6.79254 4.81008 7.27254 4.81008C7.82004 4.81008 8.37004 4.81008 8.91754 4.81008C8.91954 4.81008 8.92204 4.81008 8.92454 4.81008C9.34354 4.81008 9.73854 4.91258 10.086 5.09408L10.072 5.08758C10.52 5.32158 10.8475 5.73558 10.96 6.23108L10.962 6.24258C11.003 6.40808 11.026 6.59858 11.026 6.79408C11.026 7.09308 10.9715 7.37958 10.8715 7.64408L10.877 7.62758C10.751 7.98008 10.4995 8.26208 10.1775 8.42408L10.1695 8.42758L10.3445 8.52258C10.6705 8.72308 10.908 9.04208 10.9975 9.41758L10.9995 9.42758C11.0505 9.61308 11.0795 9.82658 11.0795 10.0466C11.0795 10.3076 11.0385 10.5591 10.962 10.7951L10.967 10.7781C10.717 11.5281 10.162 11.9356 9.39454 12.0681C9.26304 12.0906 9.11154 12.1031 8.95704 12.1031C8.95204 12.1031 8.94654 12.1031 8.94154 12.1031H8.94254C8.23254 12.1031 7.52504 12.1031 6.81504 12.1031L6.67504 12.0976ZM8.10504 10.8476C8.35504 10.8476 8.57504 10.8476 8.80504 10.8476C8.80854 10.8476 8.81304 10.8476 8.81704 10.8476C9.16954 10.8476 9.46654 10.6081 9.55354 10.2826L9.55454 10.2771C9.59104 10.1776 9.61204 10.0626 9.61204 9.94258C9.61204 9.63308 9.47154 9.35658 9.25104 9.17358L9.24954 9.17208C9.22204 9.15258 9.19104 9.13508 9.15804 9.12058L9.15454 9.11958C8.81204 8.98208 8.45704 9.05708 8.10454 9.03458L8.10504 10.8476ZM8.10504 7.81258C8.35504 7.81258 8.60504 7.81258 8.85504 7.81258C9.21804 7.80408 9.51454 7.53058 9.55954 7.17858L9.56004 7.17508C9.57254 7.10008 9.57954 7.01358 9.57954 6.92508C9.57954 6.83658 9.57254 6.75008 9.55854 6.66608L9.55954 6.67508C9.52804 6.40308 9.34154 6.18158 9.09204 6.09908L9.08704 6.09758C8.76704 5.98758 8.43704 6.05508 8.10954 6.03508L8.10504 7.81258Z" fill="black"/>
<path d="M14.5 9.65258H13.1575V12.1001H11.7025C11.7025 12.0601 11.7025 12.0251 11.7025 11.9876C11.7025 10.2076 11.7025 8.42758 11.7025 6.64758C11.7015 6.62358 11.701 6.59558 11.701 6.56758C11.701 5.95008 11.994 5.40058 12.448 5.05108L12.4525 5.04758C12.806 4.79458 13.2475 4.64258 13.7245 4.64258C13.8215 4.64258 13.9175 4.64908 14.0115 4.66108L14.0005 4.66008C14.2735 4.67558 14.5295 4.73008 14.7685 4.81858L14.7505 4.81258C15.4855 5.09008 15.833 5.67258 15.933 6.42258C15.9425 6.49358 15.948 6.57558 15.948 6.65908C15.948 6.66808 15.948 6.67758 15.948 6.68658V6.68508V12.0951H14.5005L14.5 9.65258ZM14.4725 8.28508C14.4725 7.70508 14.4725 7.14008 14.4725 6.57758C14.469 6.52358 14.4575 6.47358 14.439 6.42658L14.44 6.43008C14.357 6.16158 14.111 5.96958 13.82 5.96958C13.5375 5.96958 13.297 6.15058 13.2085 6.40308L13.207 6.40758C13.1735 6.50808 13.1525 6.62358 13.1495 6.74358V6.74508C13.1495 7.22258 13.1495 7.70008 13.1495 8.17758C13.1495 8.21258 13.1495 8.24758 13.1495 8.28508H14.4725Z" fill="black"/>
<path d="M1.50004 6.21508V7.74758H3.56254V9.10758H1.50004V12.1076H0.0400391V5.40258C0.0400391 5.36258 0.0400391 5.32008 0.0400391 5.28008C0.0400391 4.95508 0.185039 4.81258 0.510039 4.81258C1.64754 4.81258 2.78504 4.81258 3.92254 4.81258H3.98254V6.21008L1.50004 6.21508Z" fill="black"/>
<path d="M5.93254 12.1001H4.48254V5.29008C4.49504 4.96008 4.63004 4.82008 4.96004 4.81258C5.29004 4.80508 5.60254 4.81258 5.93254 4.81258V12.1001Z" fill="black"/>
</svg>
