<svg width="16" height="16" viewBox="0 0 16 16" fill="none" xmlns="http://www.w3.org/2000/svg">
<g clip-path="url(#clip0_854_502)">
<path d="M6.20247 6.62422C6.43218 6.62422 6.61196 6.43446 6.61196 6.21473C6.61196 5.99501 6.43218 5.80524 6.20247 5.80524C5.97276 5.80524 5.79298 5.99501 5.79298 6.21473C5.79298 6.43446 5.97276 6.62422 6.20247 6.62422Z" fill="black"/>
<path d="M15.3211 2H0.659398C0.28986 2 -0.00976562 2.29963 -0.00976562 2.66916V6.33458C0.869136 6.37453 1.56826 7.10362 1.56826 7.99251C1.56826 8.8814 0.869136 9.61049 -0.00976562 9.66042V13.3258C-0.00976562 13.6854 0.28986 13.985 0.659398 13.985H8.36976C8.30983 13.8452 8.2599 13.7054 8.21995 13.5655V13.5156L8.19997 13.4956V13.4557C8.08012 13.0961 8.0202 12.6966 8.0202 12.2772C8.0202 11.618 8.15003 11.0087 8.4197 10.4494C8.8991 9.45069 9.58824 8.78152 10.3073 8.37204C10.8966 8.03246 11.5558 7.8427 12.2549 7.80275C12.3248 7.79276 12.4147 7.79276 12.5046 7.79276H12.5146C12.974 7.79276 13.4035 7.85268 13.773 7.98252L13.8629 8.0025H13.8829C14.0427 8.06242 14.1925 8.12235 14.3423 8.18227C14.3223 8.12235 14.3223 8.05243 14.3223 7.99251C14.3223 7.07366 15.0714 6.33458 15.9902 6.33458V2.66916C15.9902 2.29963 15.6906 2 15.3211 2ZM6.20247 4.69663C7.04142 4.69663 7.71058 5.37578 7.71058 6.21473C7.71058 7.05368 7.04142 7.72285 6.20247 7.72285C5.36352 7.72285 4.69435 7.04369 4.69435 6.21473C4.69435 5.38577 5.36352 4.69663 6.20247 4.69663ZM6.08262 11.2884H4.69435L9.84791 4.69663H11.2462L6.08262 11.2884Z" fill="black"/>
<path d="M13.5133 8.95131C13.5133 8.95131 13.4734 8.94132 13.4534 8.93134C13.1638 8.83146 12.8442 8.79151 12.5146 8.79151H12.5046C12.5046 8.79151 12.3947 8.79151 12.3448 8.8015C11.9053 8.82147 11.4859 8.92135 11.0964 9.09114C10.7568 9.24095 10.4372 9.45069 10.1675 9.70037C10.0077 9.85019 9.8579 10.01 9.72806 10.1798C9.62819 10.3096 9.54829 10.4295 9.46839 10.5693C9.44841 10.5993 9.43842 10.6292 9.42844 10.6592C9.33855 10.819 9.25865 10.9888 9.19872 11.1685C9.07887 11.5181 9.01895 11.8876 9.01895 12.2772C9.01895 12.5868 9.0589 12.8964 9.14879 13.176C9.15877 13.216 9.16876 13.2459 9.17875 13.2859C9.24866 13.5356 9.34854 13.7653 9.47837 13.985C10.0676 15.0537 11.2062 15.7628 12.5046 15.7628C13.3336 15.7628 14.0926 15.4732 14.6919 14.9738C15.0514 14.6941 15.341 14.3446 15.5608 13.9451C15.8404 13.4557 15.9902 12.8864 15.9902 12.2772C15.9902 10.7091 14.9515 9.37079 13.5133 8.95131ZM12.155 13.985H12.0951L10.7068 12.5868L11.4259 11.8677L12.0951 12.5368L13.4234 11.1086L13.8629 10.6292L14.602 11.3084L12.155 13.985Z" fill="black"/>
</g>
<defs>
<clipPath id="clip0_854_502">
<rect width="16" height="16" fill="white"/>
</clipPath>
</defs>
</svg>
