<svg width="17" height="16" viewBox="0 0 17 16" fill="none" xmlns="http://www.w3.org/2000/svg">
<g clip-path="url(#clip0_6_219)">
<path d="M15.8327 11.2925C14.4802 14.5 10.8527 16.375 7.7502 15.9375C7.7902 15.7525 7.8202 15.565 7.8702 15.3825C8.20353 14.1325 8.54353 12.8825 8.8902 11.6325C8.9202 11.5395 8.9897 11.467 9.0782 11.433L9.0802 11.4325C9.9417 11.298 10.6837 10.864 11.2112 10.2425L11.2152 10.2375C11.2632 10.1705 11.3412 10.1275 11.4287 10.1275C11.4542 10.1275 11.4787 10.131 11.5022 10.138L11.5002 10.1375L15.8327 11.2925Z" fill="black"/>
<path d="M0.500195 7.19999L3.4527 7.99999C3.9077 8.12249 4.3602 8.25 4.8152 8.3675C4.9502 8.4025 5.0252 8.44749 5.0502 8.60499C5.1937 9.47899 5.6552 10.2245 6.3102 10.7345L6.3177 10.74C6.3507 10.7745 6.3707 10.8215 6.3707 10.873C6.3707 10.8855 6.3697 10.8975 6.3672 10.909V10.908C6.0422 12.1363 5.7147 13.363 5.3847 14.588C5.3222 14.8155 5.2472 15.0355 5.1697 15.2955C3.5872 14.566 2.3157 13.3895 1.4882 11.928L1.4672 11.888C0.827695 10.7925 0.450195 9.476 0.450195 8.07199C0.450195 7.76499 0.468195 7.462 0.503195 7.16449L0.500195 7.19999Z" fill="black"/>
<path d="M16.5002 8.77L14.4502 8.23499C13.7002 8.04 12.9702 7.83999 12.2302 7.65249C12.0817 7.6375 11.9657 7.51699 11.9577 7.36849V7.36749C11.8147 6.54049 11.3867 5.83199 10.7807 5.33199L10.7752 5.32749C10.6962 5.27099 10.6457 5.17999 10.6457 5.07649C10.6457 5.03549 10.6537 4.99599 10.6687 4.95999L10.6677 4.96199C11.0327 3.62033 11.3935 2.27616 11.7502 0.929495C11.7952 0.756995 11.8727 0.719495 12.0327 0.799495C13.0847 1.315 13.9692 2.0205 14.6742 2.8785L14.6852 2.892C14.9767 3.246 15.2577 3.639 15.5112 4.051L15.5377 4.097C15.9967 4.85299 16.3212 5.74199 16.4537 6.69299L16.4577 6.72949C16.5402 7.32449 16.5302 7.932 16.5552 8.5345C16.5467 8.621 16.5272 8.701 16.4982 8.7755L16.5002 8.77Z" fill="black"/>
<path d="M9.28519 0.0474949C9.1902 0.432495 9.1027 0.797495 9.0027 1.17249C8.72269 2.21249 8.4302 3.24749 8.1527 4.28749C8.1342 4.42899 8.02219 4.53949 7.88169 4.55499H7.8802C7.0677 4.69399 6.36919 5.10549 5.86669 5.69049L5.8627 5.69499C5.79019 5.7885 5.67819 5.84749 5.5522 5.84749C5.4957 5.84749 5.44169 5.83549 5.39269 5.81399L5.3952 5.81499C4.20019 5.49999 3.0002 5.18749 1.8027 4.87249C1.6052 4.81999 1.4102 4.75249 1.2152 4.69249C2.2752 1.99999 5.62269 -0.367505 9.28519 0.0474949Z" fill="black"/>
</g>
<defs>
<clipPath id="clip0_6_219">
<rect width="16" height="16" fill="white" transform="translate(0.5)"/>
</clipPath>
</defs>
</svg>
