<svg width="17" height="16" viewBox="0 0 17 16" fill="none" xmlns="http://www.w3.org/2000/svg">
<path d="M14.7 3.6C14.7 2.9335 14.1665 2.4665 13.5665 2.4665C12.9 2.4665 12.433 3 12.433 3.6V8H10.9665V1.1335C10.9665 0.467 10.433 0 9.83299 0C9.23299 0 8.69949 0.5335 8.69949 1.1335V8H7.29949V3C7.29949 2.3335 6.76599 1.8665 6.16599 1.8665C5.49949 1.8665 5.03249 2.4 5.03249 3V10.6665L3.23249 8.8665C2.76599 8.4 1.96599 8.4 1.49899 8.8665C1.03199 9.333 1.03249 10.133 1.49899 10.6L5.09899 15C5.49899 15.6665 6.23249 16 7.03249 16H11.099C13.0325 16 14.6325 14.4 14.6325 12.4665L14.7 3.6Z" fill="black"/>
</svg>
