<svg width="17" height="16" viewBox="0 0 17 16" fill="none" xmlns="http://www.w3.org/2000/svg">
<g clip-path="url(#clip0_6_263)">
<path d="M10.8702 8.42522C10.3487 9.20122 9.70122 9.84872 8.95022 10.3542L8.92522 10.3702L14.555 16L16.5 14.055L10.8702 8.42522Z" fill="black"/>
<path d="M6.275 0C3.0855 0 0.5 2.5855 0.5 5.775C0.5 8.9645 3.0855 11.55 6.275 11.55C9.4645 11.55 12.05 8.9645 12.05 5.775C12.05 2.5855 9.4645 0 6.275 0ZM6.275 9.25C4.356 9.25 2.8 7.694 2.8 5.775C2.8 3.856 4.356 2.3 6.275 2.3C8.194 2.3 9.75 3.856 9.75 5.775C9.75 7.694 8.194 9.25 6.275 9.25Z" fill="black"/>
</g>
<defs>
<clipPath id="clip0_6_263">
<rect width="16" height="16" fill="white" transform="translate(0.5)"/>
</clipPath>
</defs>
</svg>
