<svg width="16" height="17" viewBox="0 0 16 17" fill="none" xmlns="http://www.w3.org/2000/svg">
<g clip-path="url(#clip0_6_254)">
<path d="M8.654 0.37793C8.658 0.40543 8.66 0.43743 8.66 0.46943C8.66 0.54393 8.6485 0.61543 8.628 0.68293L8.6295 0.67793C8.542 1.30543 8.487 1.92793 8.447 2.56793C8.392 3.41293 8.382 4.25543 8.397 5.10043C8.412 5.94543 8.4695 6.80543 8.557 7.65543C8.6145 8.22043 8.6895 8.78293 8.787 9.34043C8.9715 10.4139 9.1955 11.3334 9.4745 12.2284L9.432 12.0704C9.7925 13.2419 10.217 14.2479 10.7275 15.2009L10.682 15.1079C10.787 15.3054 10.9045 15.4979 11.0145 15.6904C11.027 15.7154 11.0495 15.7354 11.047 15.7654C10.947 15.7454 10.9195 15.6479 10.8645 15.5854C10.707 15.4079 10.562 15.2204 10.417 15.0329C10.1445 14.6829 9.887 14.3229 9.6345 13.9579C9.153 13.2644 8.6625 12.4574 8.22 11.6214L8.157 11.4904C8.0295 11.2404 7.907 10.9904 7.787 10.7404C7.54867 10.2604 7.3295 9.77126 7.1295 9.27293C6.362 7.48843 5.6615 5.35393 5.1435 3.14943L5.0895 2.87793C5.022 2.58543 4.9595 2.29293 4.887 2.00293C4.862 1.91043 4.887 1.87543 4.9695 1.84043C5.7195 1.54793 6.4495 1.24793 7.1895 0.95293L8.4945 0.43293C8.5295 0.41793 8.572 0.41293 8.597 0.37793H8.654Z" fill="black"/>
<path d="M9.9115 12.1279C9.864 11.9579 9.8165 11.7904 9.774 11.6279C9.6915 11.3079 9.6065 10.9879 9.524 10.6654C9.4815 10.4804 9.4515 10.2904 9.414 10.1029C9.3765 9.91543 9.3365 9.72543 9.304 9.53793C9.279 9.41043 9.274 9.28793 9.244 9.15043C9.214 9.01293 9.199 8.84543 9.169 8.69293C9.139 8.54043 9.1465 8.35793 9.114 8.19293C9.0815 8.02793 9.094 7.90543 9.059 7.76543C9.048 7.70393 9.0405 7.63243 9.039 7.55943V7.55793C8.9775 6.84393 8.9425 6.01243 8.9425 5.17343C8.9425 4.77593 8.9505 4.38043 8.966 3.98643L8.964 4.04293C9.0175 2.80093 9.1715 1.62843 9.419 0.49093L9.394 0.62793C9.4165 0.52543 9.419 0.52543 9.5115 0.57793C10.279 1.01543 11.044 1.45543 11.8115 1.89043C11.879 1.92793 11.8815 1.96043 11.849 2.02543C11.354 3.00693 10.9035 4.16193 10.561 5.36293L10.5265 5.50543C10.349 6.12793 10.204 6.75543 10.0865 7.39543C10.0215 7.74293 9.969 8.09543 9.9315 8.44793C9.894 8.80043 9.8615 9.13793 9.839 9.48293C9.822 9.74243 9.8125 10.0454 9.8125 10.3509C9.8125 10.5734 9.8175 10.7944 9.828 11.0144L9.827 10.9834C9.8385 11.3709 9.8755 11.7399 9.936 12.1009L9.9295 12.0534C9.9295 12.0834 9.9295 12.1159 9.9295 12.1459L9.9115 12.1279Z" fill="black"/>
<path d="M1.0615 9.96543C1.034 9.82543 1.0415 9.68043 1.014 9.54043C1.014 9.48293 1.014 9.42293 1.014 9.36543C1.005 9.22843 1 9.06843 1 8.90693C1 6.43593 2.2045 4.24593 4.058 2.89243L4.079 2.87793C4.1465 2.82543 4.1615 2.84543 4.1865 2.91793C4.196 2.93943 4.2015 2.96393 4.2015 2.99043C4.2015 3.05893 4.1635 3.11893 4.1075 3.14993L4.1065 3.15043C3.367 3.77643 2.78 4.55943 2.3945 5.44993L2.379 5.49043C1.999 6.31393 1.745 7.27093 1.6705 8.27793L1.669 8.30543C1.6545 8.48443 1.646 8.69293 1.646 8.90293C1.646 10.4169 2.078 11.8299 2.8255 13.0254L2.8065 12.9929C3.155 13.5659 3.56 14.0589 4.0245 14.4889L4.029 14.4929C4.485 14.9179 5.0135 15.2734 5.5925 15.5379L5.629 15.5529C5.704 15.5854 5.719 15.6204 5.699 15.6879C5.6935 15.7049 5.688 15.7259 5.6845 15.7479L5.684 15.7504C5.684 15.8254 5.6365 15.8229 5.5815 15.8004C5.1065 15.5979 4.7015 15.3779 4.32 15.1249L4.349 15.1429C4.0725 14.9639 3.8325 14.7809 3.6075 14.5824L3.614 14.5879C3.4115 14.4104 3.214 14.2279 3.029 14.0304C2.7295 13.7104 2.452 13.3609 2.205 12.9899L2.1865 12.9604C1.97 12.6294 1.7645 12.2474 1.591 11.8484L1.5715 11.7979C1.4195 11.4439 1.28 11.0194 1.175 10.5814L1.164 10.5259C1.129 10.3409 1.0965 10.1529 1.0615 9.96543Z" fill="black"/>
<path d="M15.9115 8.84793C15.9115 8.85943 15.9115 8.87293 15.9115 8.88693C15.9115 9.89193 15.716 10.8514 15.3605 11.7289L15.3785 11.6779C15.063 12.4554 14.652 13.1259 14.15 13.7159L14.1585 13.7054C13.564 14.4084 12.855 14.9929 12.057 15.4359L12.0185 15.4554C11.906 15.5179 11.8985 15.4279 11.861 15.3729C11.8235 15.3179 11.826 15.2779 11.896 15.2379C12.2565 15.0384 12.5675 14.8189 12.8525 14.5699L12.846 14.5754C13.045 14.4029 13.226 14.2254 13.3965 14.0384L13.401 14.0329C13.6295 13.7819 13.8405 13.5059 14.0265 13.2124L14.041 13.1879C14.293 12.8004 14.5225 12.3549 14.706 11.8859L14.7235 11.8354C14.8745 11.4574 15.0055 11.0084 15.0935 10.5449L15.101 10.4979C15.141 10.2854 15.1835 10.0704 15.206 9.85793C15.2315 9.68643 15.2465 9.48743 15.2485 9.28493V9.28293C15.2485 9.14793 15.2735 9.01293 15.266 8.87793C15.2485 8.60793 15.236 8.33543 15.2135 8.06543C15.115 6.97693 14.8075 5.97943 14.3305 5.08593L14.351 5.12793C13.9055 4.24043 13.277 3.50493 12.5105 2.94743L12.4935 2.93543C12.466 2.91543 12.416 2.90043 12.4335 2.85293C12.449 2.78643 12.4805 2.72943 12.5235 2.68293C12.5435 2.66543 12.5685 2.68293 12.5885 2.70793C14.233 3.81443 15.4 5.52343 15.776 7.51143L15.7835 7.55793C15.854 7.93893 15.9 8.38393 15.911 8.83743L15.9115 8.84793Z" fill="black"/>
<path d="M6.9065 9.93293C6.9815 10.1029 7.059 10.2704 7.1265 10.4329C7.3955 11.0724 7.647 11.8449 7.8375 12.6414L7.859 12.7479C7.97567 13.2379 8.074 13.7321 8.154 14.2304C8.2215 14.6579 8.2765 15.0879 8.3215 15.5179C8.349 15.7679 8.359 16.0179 8.3915 16.2679C8.3915 16.3329 8.374 16.3704 8.3065 16.3654C8.1465 16.3654 7.989 16.3379 7.8315 16.3304C7.674 16.3229 7.5815 16.3054 7.4515 16.2904C7.279 16.2729 7.1115 16.2379 6.9515 16.2054C6.862 16.1794 6.7465 16.1529 6.629 16.1334L6.609 16.1304C6.509 16.1304 6.5165 16.0604 6.534 16.0029C6.574 15.8804 6.5965 15.7529 6.6265 15.6279C6.694 15.3454 6.7415 15.0629 6.7915 14.7779C6.824 14.5904 6.8515 14.4029 6.8765 14.2154C6.9015 14.0279 6.9215 13.8354 6.939 13.6454C6.9565 13.4554 6.9765 13.3079 6.9865 13.1454C6.9965 12.9829 7.014 12.8204 7.014 12.6454C7.014 12.4704 7.0365 12.2704 7.034 12.0829C7.0315 11.8954 7.034 11.6754 7.034 11.4704C7.034 11.2654 7.019 10.9879 6.9965 10.7479C6.974 10.5079 6.9365 10.1954 6.9065 9.91793V9.93293Z" fill="black"/>
<path d="M9.1015 16.3404H9.004C8.9715 16.3404 8.949 16.3254 8.9515 16.2904C8.9485 16.1714 8.9355 16.0579 8.9145 15.9474L8.9165 15.9604C8.894 15.8129 8.884 15.6654 8.859 15.5179C8.834 15.3704 8.7965 15.1879 8.769 15.0179C8.7265 14.7679 8.6715 14.5179 8.6215 14.2679C8.5715 14.0179 8.5265 13.7954 8.4715 13.5604C8.4165 13.3254 8.3665 13.0279 8.284 12.7654C8.284 12.7654 8.284 12.7279 8.284 12.7254C8.284 12.7229 8.319 12.7429 8.329 12.7604L8.579 13.2154C9.0045 13.9539 9.418 14.5769 9.865 15.1729L9.829 15.1229C10.0665 15.4449 10.2965 15.7259 10.54 15.9949L10.5315 15.9854C10.5965 16.0579 10.5315 16.0779 10.4965 16.0904C10.3865 16.1254 10.274 16.1454 10.164 16.1729C9.899 16.2354 9.6315 16.2779 9.3615 16.3154C9.279 16.3279 9.189 16.3329 9.1015 16.3404Z" fill="black"/>
<path d="M11.074 15.8129V15.8079H11.079L11.074 15.8129Z" fill="black"/>
</g>
<defs>
<clipPath id="clip0_6_254">
<rect width="16" height="16" fill="white" transform="translate(0 0.37793)"/>
</clipPath>
</defs>
</svg>
