<svg width="16" height="17" viewBox="0 0 16 17" fill="none" xmlns="http://www.w3.org/2000/svg">
<g clip-path="url(#clip0_6_247)">
<path d="M8 0.37793C3.5815 0.37793 0 3.95943 0 8.37793C0 12.7964 3.5815 16.3779 8 16.3779C12.4185 16.3779 16 12.7964 16 8.37793C16 3.95943 12.4185 0.37793 8 0.37793ZM7.24 8.44443L5.2935 9.41093C5.2665 9.41993 5.2475 9.44493 5.2475 9.47443C5.2475 9.50393 5.2665 9.52893 5.293 9.53743H7.3335C7.371 9.54093 7.4005 9.57243 7.4005 9.61043C7.4005 9.61293 7.4005 9.61543 7.4 9.61793L7.0535 11.2174C7.045 11.2474 7.0185 11.2689 6.987 11.2709H1.507C1.506 11.2709 1.505 11.2709 1.504 11.2709C1.467 11.2709 1.4375 11.2409 1.4375 11.2044C1.4375 11.1974 1.4385 11.1904 1.4405 11.1839L1.7605 9.85093C1.759 9.84393 1.758 9.83593 1.758 9.82743C1.758 9.81893 1.759 9.81093 1.7605 9.80343V9.80443L6.007 7.42443C6.009 7.41743 6.0105 7.40943 6.0105 7.40093C6.0105 7.39243 6.009 7.38443 6.007 7.37693L6.047 7.20393C6.047 7.20193 6.0475 7.19943 6.0475 7.19693C6.0475 7.15843 6.018 7.12743 5.981 7.12393H4.154C4.126 7.12543 4.1025 7.14443 4.094 7.16993L4.0005 7.65043C3.997 7.68043 3.9715 7.70393 3.941 7.70393H2.194C2.156 7.70093 2.126 7.66943 2.126 7.63093C2.126 7.62593 2.1265 7.62143 2.1275 7.61693L2.414 6.32393C2.469 5.85893 2.859 5.50093 3.3335 5.49743H7.527C8.0935 5.49743 8.1935 5.89743 8.1405 6.30393L7.847 7.63743C7.799 8.00093 7.566 8.30043 7.247 8.44143L7.24 8.44443ZM12.1535 8.26443C12.1455 8.27443 12.141 8.28743 12.141 8.30093C12.141 8.31443 12.1455 8.32743 12.1535 8.33793L13.44 11.1714C13.4455 11.1809 13.449 11.1924 13.449 11.2049C13.449 11.2419 13.419 11.2714 13.3825 11.2714C13.3815 11.2714 13.381 11.2714 13.38 11.2714H11.22C11.1935 11.2709 11.1705 11.2549 11.16 11.2319L10.3935 9.61143C10.3845 9.58443 10.3595 9.56543 10.33 9.56543C10.3005 9.56543 10.2755 9.58443 10.267 9.61093L9.9335 11.2049C9.925 11.2349 9.8985 11.2564 9.867 11.2584H7.9335C7.933 11.2584 7.9325 11.2584 7.932 11.2584C7.895 11.2584 7.8655 11.2284 7.8655 11.1919C7.8655 11.1874 7.866 11.1824 7.867 11.1779L9.047 5.52493C9.057 5.49593 9.0825 5.47543 9.1135 5.47143H11.0475C11.048 5.47143 11.0485 5.47143 11.049 5.47143C11.086 5.47143 11.1155 5.50143 11.1155 5.53793C11.1155 5.54243 11.115 5.54743 11.114 5.55193L10.8205 6.94493C10.819 6.94993 10.8185 6.95543 10.8185 6.96093C10.8185 6.99793 10.8485 7.02743 10.885 7.02743C10.908 7.02743 10.928 7.01593 10.94 6.99843L12.18 5.51193C12.188 5.50793 12.197 5.50593 12.2065 5.50593C12.216 5.50593 12.2255 5.50843 12.2335 5.51243H14.493C14.5295 5.51293 14.5585 5.54243 14.5585 5.57893C14.5585 5.59693 14.551 5.61343 14.5395 5.62543L12.1535 8.26443Z" fill="black"/>
</g>
<defs>
<clipPath id="clip0_6_247">
<rect width="16" height="16" fill="white" transform="translate(0 0.37793)"/>
</clipPath>
</defs>
</svg>
