<svg width="16" height="17" viewBox="0 0 16 17" fill="none" xmlns="http://www.w3.org/2000/svg">
<path d="M12.9998 10.3691C13.0747 9.84789 12.9493 9.80653 13.0474 9.29028C13.1999 8.48778 13.4001 7.69403 13.581 6.89527C13.5319 6.23527 13.351 5.64902 12.9764 5.11777C12.0811 3.84902 11.1883 2.57776 10.2904 1.31151C9.56951 0.294006 8.47264 0.0927558 7.41195 0.784008C6.14842 1.60776 4.88748 2.43651 3.62783 3.26526C2.56843 3.96152 2.36171 5.01277 3.08262 6.04652C3.94048 7.27777 4.81384 8.49778 5.65877 9.73778C6.12517 10.4215 6.74918 10.879 7.55665 11.089C7.98945 11.2015 8.43647 11.264 8.87961 11.3365C9.72067 11.4765 10.2246 11.4529 10.9998 11.8691C11.6874 11.3898 12.3685 10.9206 12.9998 10.3691Z" fill="black"/>
<path d="M15.8742 15.0853C15.5667 14.729 15.2425 14.3853 14.9608 14.0103C14.5758 13.499 14.2231 12.964 13.8562 12.439C13.5914 12.0628 13.3239 11.6878 13.0281 11.269C12.6263 11.5328 12.271 11.7815 11.8989 12.0053C11.678 12.1378 11.6767 12.2528 11.8175 12.4478C12.3692 13.2153 12.9182 13.984 13.4415 14.769C13.7412 15.219 13.9919 15.7003 14.2619 16.1703C14.4066 16.4228 14.5823 16.4315 14.8135 16.269C15.1262 16.049 15.4427 15.834 15.7722 15.639C16.0383 15.4803 16.0693 15.3103 15.8755 15.084L15.8742 15.0853Z" fill="black"/>
<path d="M1.67052 7.79028C0.740316 7.78028 0.00519596 8.47528 2.816e-05 9.37153C-0.00513964 10.2778 0.701558 10.9728 1.63693 10.984C2.54776 10.9953 3.30871 10.2678 3.30742 9.38778C3.30742 8.51653 2.57359 7.80153 1.67052 7.79028Z" fill="black"/>
</svg>
