<svg width="16" height="17" viewBox="0 0 16 17" fill="none" xmlns="http://www.w3.org/2000/svg">
<g clip-path="url(#clip0_6_228)">
<path d="M9.86659 4.49795C10.1106 4.21945 10.2596 3.85195 10.2596 3.44995C10.2596 2.56995 9.54609 1.85645 8.66609 1.85645C7.78609 1.85645 7.07259 2.56995 7.07259 3.44995C7.07259 3.92845 7.28359 4.35795 7.61759 4.64995L7.61959 4.65145C7.89809 4.89495 8.26459 5.04345 8.66609 5.04345C9.14409 5.04345 9.57259 4.83295 9.86459 4.49995L9.86659 4.49795Z" fill="black"/>
<path d="M14.9536 9.83145C14.5011 9.94595 14.1031 10.122 13.7446 10.3545L13.7601 10.345L13.4736 10.5315C13.0916 10.8515 12.5951 11.0455 12.0531 11.0455C12.0346 11.0455 12.0161 11.0455 11.9976 11.045H12.0001C11.9846 11.0455 11.9666 11.0455 11.9481 11.0455C11.4166 11.0455 10.9291 10.8565 10.5496 10.542L10.5531 10.545C9.96909 10.096 9.24909 9.79595 8.46459 9.71295L8.44659 9.71145H8.00009C7.97959 9.71095 7.95609 9.71095 7.93209 9.71095C6.99409 9.71095 6.12959 10.0245 5.43709 10.5525L5.44709 10.545C5.07109 10.8565 4.58359 11.0455 4.05209 11.0455C4.03359 11.0455 4.01559 11.0455 3.99759 11.045H4.00009C3.98609 11.0455 3.96909 11.0455 3.95259 11.0455C3.42209 11.0455 2.93559 10.8565 2.55659 10.542L2.56009 10.545C1.87759 10.0245 1.01259 9.71095 0.0745938 9.71095C0.0480938 9.71095 0.0220938 9.71095 -0.00390625 9.71145H9.37502e-05V11.7115C0.0205938 11.711 0.0440938 11.711 0.0680938 11.711C1.00609 11.711 1.87059 12.0245 2.56309 12.5525L2.55309 12.545C2.77609 12.715 3.03509 12.853 3.31409 12.946L3.33309 12.9515L3.60659 13.018C3.72459 13.0345 3.86059 13.044 3.99959 13.0445C4.01509 13.045 4.03359 13.045 4.05209 13.045C4.58359 13.045 5.07109 12.856 5.45059 12.5415L5.44709 12.5445C6.12959 12.024 6.99409 11.7105 7.93209 11.7105C7.95609 11.7105 7.98009 11.7105 8.00409 11.711H8.00059H8.24709C9.12259 11.7465 9.92159 12.049 10.5711 12.5385L10.5606 12.531C10.9391 12.8505 11.4321 13.0445 11.9711 13.0445C11.9816 13.0445 11.9921 13.0445 12.0026 13.0445H12.0011C12.0136 13.045 12.0286 13.045 12.0436 13.045C12.5781 13.045 13.0686 12.856 13.4516 12.5415L13.4476 12.5445C14.1276 12.024 14.9906 11.7105 15.9261 11.7105C15.9526 11.7105 15.9786 11.7105 16.0046 11.711H16.0006V9.71095C15.9911 9.71095 15.9801 9.71095 15.9686 9.71095C15.6086 9.71095 15.2586 9.75495 14.9241 9.83745L14.9536 9.83145Z" fill="black"/>
<path d="M12.0001 14.378C11.9846 14.3785 11.9666 14.3785 11.9481 14.3785C11.4166 14.3785 10.9291 14.1895 10.5496 13.875L10.5531 13.878C9.87009 13.3575 9.00459 13.044 8.06559 13.044C8.04259 13.044 8.01909 13.044 7.99609 13.0445H7.99959H7.81959C6.92259 13.073 6.10209 13.379 5.43559 13.879L5.44659 13.871C5.06959 14.1865 4.57909 14.378 4.04409 14.378C4.02859 14.378 4.01309 14.378 3.99759 14.3775H4.00009C3.98609 14.378 3.96909 14.378 3.95259 14.378C3.42209 14.378 2.93559 14.189 2.55659 13.8745L2.56009 13.8775C1.87759 13.357 1.01259 13.0435 0.0745938 13.0435C0.0480938 13.0435 0.0220938 13.0435 -0.00390625 13.044H9.37502e-05V15.044C0.0205938 15.0435 0.0440938 15.0435 0.0680938 15.0435C1.00609 15.0435 1.87059 15.357 2.56309 15.885L2.55309 15.8775C2.92809 16.189 3.41459 16.378 3.94559 16.378C3.96459 16.378 3.98359 16.3775 4.00259 16.3775H3.99959C4.01509 16.378 4.03309 16.378 4.05159 16.378C4.58309 16.378 5.07059 16.189 5.45009 15.8745L5.44659 15.8775C6.12909 15.357 6.99359 15.0435 7.93159 15.0435C7.95559 15.0435 7.97959 15.0435 8.00359 15.044H8.00009C8.02159 15.0435 8.04709 15.0435 8.07259 15.0435C9.01109 15.0435 9.87659 15.357 10.5701 15.885L10.5601 15.8775C10.9361 16.189 11.4231 16.378 11.9546 16.378C11.9706 16.378 11.9866 16.378 12.0026 16.3775H12.0001C12.0126 16.378 12.0276 16.378 12.0426 16.378C12.5771 16.378 13.0676 16.189 13.4506 15.8745L13.4466 15.8775C14.1266 15.357 14.9896 15.0435 15.9251 15.0435C15.9516 15.0435 15.9776 15.0435 16.0036 15.044H15.9996V13.044C15.9776 13.0435 15.9511 13.0435 15.9251 13.0435C14.9891 13.0435 14.1266 13.357 13.4366 13.885L13.4466 13.8775C13.0671 14.189 12.5771 14.378 12.0426 14.378C12.0276 14.378 12.0126 14.378 11.9976 14.3775L12.0001 14.378Z" fill="black"/>
<path d="M3.52009 2.77795C3.72609 2.93445 3.98409 3.03245 4.26409 3.04445H4.59309L4.77309 2.99095H4.81959C5.02509 2.89395 5.19709 2.75645 5.33059 2.58745L5.33309 2.58445C5.53609 2.35195 5.65959 2.04545 5.65959 1.71045C5.65959 0.973953 5.06259 0.376953 4.32609 0.376953C3.58959 0.376953 2.99259 0.973953 2.99259 1.71045C2.99259 2.11195 3.17009 2.47195 3.45109 2.71645L3.45259 2.71795L3.52009 2.77795Z" fill="black"/>
<path d="M5.18659 3.86495C4.93809 3.96795 4.64909 4.02795 4.34659 4.02795C4.04409 4.02795 3.75509 3.96795 3.49159 3.85945L3.50659 3.86495C3.57059 4.51095 3.79309 5.09495 4.13459 5.59045L4.12659 5.57795C4.45059 6.03895 4.85209 6.42145 5.31609 6.71445L5.33309 6.72445L4.39959 9.62445L4.69959 9.43795C5.58309 8.77545 6.69759 8.37695 7.90509 8.37695C7.93809 8.37695 7.97159 8.37745 8.00459 8.37795H7.99959C8.00509 8.37795 8.01159 8.37795 8.01809 8.37795C8.45809 8.37795 8.88659 8.42645 9.29859 8.51845L9.25959 8.51095L9.50609 7.74445C10.6871 8.11645 11.6971 8.74345 12.5126 9.56395L12.7131 9.43795C13.0976 9.16295 13.5371 8.92345 14.0046 8.73895L14.0461 8.72445C11.7196 6.26445 9.33959 5.85795 8.04609 5.85795C8.02259 5.85845 7.99459 5.85895 7.96659 5.85895C6.96709 5.85895 6.07809 5.38595 5.51159 4.65195L5.50609 4.64495C5.35509 4.42245 5.24309 4.16045 5.18809 3.87795L5.18659 3.86495Z" fill="black"/>
</g>
<defs>
<clipPath id="clip0_6_228">
<rect width="16" height="16" fill="white" transform="translate(0 0.37793)"/>
</clipPath>
</defs>
</svg>
