<svg width="16" height="17" viewBox="0 0 16 17" fill="none" xmlns="http://www.w3.org/2000/svg">
<g clip-path="url(#clip0_6_329)">
<path d="M3.67351 14.3784H13.3335V15.0449C13.3335 15.7814 12.7365 16.3784 12 16.3784H5.00651C4.27001 16.3784 3.67301 15.7814 3.67301 15.0449L3.67351 14.3784ZM14.6665 5.04491V9.04491L13.333 13.0449H3.67301L1.33301 9.04491V4.37841C1.36101 4.00391 1.67201 3.71041 2.05101 3.71041C2.06551 3.71041 2.08051 3.71091 2.09501 3.71191H2.09301H3.33301V3.04541C3.33301 1.94091 4.22851 1.04541 5.33301 1.04541H7.18651C7.55201 0.637906 8.07901 0.381906 8.66601 0.378906H9.33351C9.92101 0.381906 10.448 0.638406 10.812 1.04391L10.8135 1.04591H12.667C13.7715 1.04591 14.667 1.94141 14.667 3.04591V5.04591L14.6665 5.04491ZM4.66651 3.71191H6.66651V2.37841H5.33301C4.96501 2.37841 4.66651 2.67691 4.66651 3.04491V3.71191ZM6.66651 5.04491H2.66651V6.37841H5.33301C6.06951 6.37841 6.66651 5.78141 6.66651 5.04491ZM10 2.37841C10 2.01041 9.70151 1.71191 9.33351 1.71191H8.66701C8.29901 1.71191 8.00051 2.01041 8.00051 2.37841V6.37841C8.00051 6.74641 8.29901 7.04491 8.66701 7.04491H9.33351C9.70151 7.04491 10 6.74641 10 6.37841V2.37841ZM13.3335 3.04491C13.3335 2.67691 13.035 2.37841 12.667 2.37841H11.3335V6.37841C11.3315 6.61791 11.2875 6.84691 11.209 7.05891L11.2135 7.04491H12C12.7365 7.04491 13.3335 6.44791 13.3335 5.71141V3.04491Z" fill="black"/>
</g>
<defs>
<clipPath id="clip0_6_329">
<rect width="16" height="16" fill="white" transform="translate(0 0.37793)"/>
</clipPath>
</defs>
</svg>
