<svg width="16" height="17" viewBox="0 0 16 17" fill="none" xmlns="http://www.w3.org/2000/svg">
<g clip-path="url(#clip0_6_370)">
<path d="M12.5734 12.6914C12.2039 13.1499 11.6419 13.4414 11.0124 13.4414C9.90789 13.4414 9.01239 12.5459 9.01239 11.4414C9.01239 10.3369 9.90789 9.44141 11.0124 9.44141C11.4859 9.44141 11.9214 9.60591 12.2639 9.88141L12.2599 9.87841C12.7199 10.2479 13.0124 10.8104 13.0124 11.4414C13.0124 11.9164 12.8469 12.3524 12.5704 12.6954L12.5734 12.6914Z" fill="black"/>
<path d="M8.61989 9.00441L9.28639 4.67791L15.9999 4.73141V3.04491L8.13989 2.97841L0.0463867 0.711914V2.44541L5.99989 4.13891L5.44639 8.59891C5.43989 8.65191 5.43589 8.71341 5.43589 8.77541C5.43589 9.16691 5.58389 9.52391 5.82739 9.79391L5.82639 9.79241L4.86639 16.3789H6.55289L6.97939 13.5124L7.55289 16.3789H9.25289L7.99939 10.0454C8.33539 9.80541 8.56589 9.43691 8.61889 9.01291L8.61939 9.00541L8.61989 9.00441Z" fill="black"/>
<path d="M12.2599 9.87841C11.9214 9.60641 11.4859 9.44141 11.0124 9.44141C9.90789 9.44141 9.01239 10.3369 9.01239 11.4414C9.01239 12.5459 9.90789 13.4414 11.0124 13.4414C11.6419 13.4414 12.2039 13.1504 12.5704 12.6954L12.5734 12.6914C12.8469 12.3524 13.0124 11.9159 13.0124 11.4414C13.0124 10.8104 12.7204 10.2479 12.2639 9.88141L12.2599 9.87841Z" fill="black"/>
</g>
<defs>
<clipPath id="clip0_6_370">
<rect width="16" height="16" fill="white" transform="translate(0 0.37793)"/>
</clipPath>
</defs>
</svg>
