<svg width="16" height="16" viewBox="0 0 16 16" fill="none" xmlns="http://www.w3.org/2000/svg">
<path d="M11.925 11.9221L1.5 1.5L0.565 2.435L2.9075 4.77711C1.7145 5.62861 0.7385 6.70511 0.0255 7.95111L0 7.99961C1.6575 10.9171 4.62 12.8621 8 12.8621H8.003C8.928 12.8621 9.8185 12.7156 10.6535 12.4451L10.593 12.4621L13.065 14.935L14 14L11.9255 11.9246L11.925 11.9221ZM8.015 11.4671C6.101 11.4641 4.55 9.91161 4.55 7.99711C4.55 7.52211 4.6455 7.06911 4.8185 6.65661L4.81 6.67961L5.975 7.84211C5.975 7.89461 5.975 7.94711 5.975 7.99961C5.975 9.13161 6.893 10.0496 8.025 10.0496H8.1825L9.345 11.2121C8.959 11.3736 8.511 11.4671 8.0405 11.4671C8.0315 11.4671 8.0225 11.4671 8.0135 11.4671H8.015Z" fill="black"/>
<path d="M8.015 4.53211C9.93 4.53211 11.483 6.08461 11.483 7.99961C11.483 8.48411 11.3835 8.94561 11.204 9.36461L11.2125 9.34211L13.095 11.2246C14.286 10.3711 15.261 9.29411 15.9745 8.04811L16 7.99961C14.3425 5.08211 11.38 3.13711 8 3.13711C7.074 3.13861 6.182 3.28461 5.346 3.55411L5.4075 3.53711L6.675 4.80211C7.0705 4.63161 7.531 4.53211 8.015 4.53211Z" fill="black"/>
<path d="M7.83 5.95961L10.055 8.18461C10.055 8.12211 10.055 8.06211 10.055 7.99961C10.055 6.86761 9.137 5.94961 8.005 5.94961C7.9525 5.94961 7.8925 5.95461 7.83 5.95961Z" fill="black"/>
</svg>
