<svg width="16" height="17" viewBox="0 0 16 17" fill="none" xmlns="http://www.w3.org/2000/svg">
<g clip-path="url(#clip0_6_486)">
<path d="M0.171233 11.1149L1.55873 12.5024C1.85423 12.2069 2.26273 12.0239 2.71373 12.0239C3.61573 12.0239 4.34723 12.7554 4.34723 13.6574C4.34723 14.1084 4.16423 14.5169 3.86873 14.8124L5.24373 16.1999C5.35273 16.3099 5.50423 16.3779 5.67123 16.3779C5.83823 16.3779 5.98973 16.3099 6.09873 16.1999L8.32373 13.9874L2.38373 8.04743L0.171233 10.2599C0.0612331 10.3689 -0.00676676 10.5204 -0.00676678 10.6874C-0.00676679 10.8544 0.061233 11.0059 0.171233 11.1149Z" fill="black"/>
<path d="M9.14873 13.1624L15.8162 6.49493C15.9297 6.38493 16.0007 6.23143 16.0007 6.06143C16.0007 5.89143 15.9302 5.73743 15.8167 5.62793L14.4292 4.25293C14.1337 4.54843 13.7252 4.73143 13.2742 4.73143C12.3722 4.73143 11.6407 3.99993 11.6407 3.09793C11.6407 2.64693 11.8237 2.23843 12.1192 1.94293L10.7317 0.55543C10.6227 0.44543 10.4712 0.377429 10.3042 0.377429C10.1372 0.377429 9.98573 0.44543 9.87673 0.55543L3.20923 7.22293L9.14873 13.1624Z" fill="black"/>
</g>
<defs>
<clipPath id="clip0_6_486">
<rect width="16" height="16" fill="white" transform="translate(0 0.37793)"/>
</clipPath>
</defs>
</svg>
