<svg width="16" height="17" viewBox="0 0 16 17" fill="none" xmlns="http://www.w3.org/2000/svg">
<path d="M10.2607 4.27866C10.4892 4.41316 10.7647 4.49266 11.0582 4.49266C11.9382 4.49266 12.6517 3.77916 12.6517 2.89916C12.6517 2.01916 11.9382 1.30566 11.0582 1.30566C10.4732 1.30566 9.96167 1.62116 9.68467 2.09116L9.68067 2.09866C9.54667 2.32766 9.46717 2.60316 9.46717 2.89666C9.46717 3.48316 9.78267 3.99566 10.2532 4.27416L10.2607 4.27866Z" fill="black"/>
<path d="M12.9807 8.79866L13.2807 7.89866L12.1942 7.53866C11.1007 7.11416 10.2652 6.23466 9.90867 5.13916L9.90117 5.11216C9.88017 4.60766 9.62367 4.16716 9.23917 3.89566L9.23417 3.89216L9.09417 3.79866C8.84567 3.62216 8.53617 3.51666 8.20167 3.51666C7.68067 3.51666 7.21917 3.77316 6.93717 4.16716L6.93417 4.17166L4.44767 7.71816L5.11417 8.17816L7.11417 10.0917V14.0452H8.78067V9.37866L7.88067 8.51866L8.98067 6.95866C9.55917 7.88016 10.3947 8.59316 11.3867 9.00616L11.4207 9.01866C10.1792 9.52216 9.31967 10.7187 9.31967 12.1157C9.31967 13.9567 10.8122 15.4492 12.6532 15.4492C14.4942 15.4492 15.9867 13.9567 15.9867 12.1157C15.9867 10.3902 14.6757 8.97066 12.9952 8.79966L12.9807 8.79866ZM12.6807 14.0987C11.5762 14.0987 10.6807 13.2032 10.6807 12.0987C10.6807 10.9942 11.5762 10.0987 12.6807 10.0987C13.7852 10.0987 14.6807 10.9942 14.6807 12.0987C14.6807 13.2032 13.7852 14.0987 12.6807 14.0987Z" fill="black"/>
<path d="M3.34717 8.76566C1.50617 8.76566 0.0136719 10.2582 0.0136719 12.0992C0.0136719 13.9402 1.50617 15.4327 3.34717 15.4327C5.18817 15.4327 6.68067 13.9402 6.68067 12.0992C6.68067 10.2582 5.18817 8.76566 3.34717 8.76566ZM3.34717 14.0987C2.24267 14.0987 1.34717 13.2032 1.34717 12.0987C1.34717 10.9942 2.24267 10.0987 3.34717 10.0987C4.45167 10.0987 5.34717 10.9942 5.34717 12.0987C5.34717 13.2032 4.45167 14.0987 3.34717 14.0987Z" fill="black"/>
</svg>
