<svg width="16" height="17" viewBox="0 0 16 17" fill="none" xmlns="http://www.w3.org/2000/svg">
<g clip-path="url(#clip0_6_205)">
<path d="M5.50613 9.39483C6.20863 8.98383 6.67313 8.23333 6.67313 7.37383C6.67313 6.08533 5.62863 5.04033 4.33963 5.04033C3.05063 5.04033 2.00613 6.08483 2.00613 7.37383C2.00613 7.80383 2.12263 8.20633 2.32513 8.55233L2.31913 8.54133C2.73013 9.24333 3.48063 9.70733 4.33913 9.70733C4.76863 9.70733 5.17113 9.59133 5.51663 9.38883L5.50613 9.39483Z" fill="black"/>
<path d="M12.9791 0.361328L9.41913 7.12783L11.8326 8.14783L16.0061 0.374328L12.9791 0.361328Z" fill="black"/>
<path d="M8.02613 9.78133L10.4126 10.7813L11.1991 9.32783L8.79913 8.31433L8.02613 9.78133Z" fill="black"/>
<path d="M5.18613 12.3748L2.00613 12.9548C1.27013 13.0808 0.678629 13.5943 0.443629 14.2743L0.439629 14.2883L0.0396289 15.4883C0.0111289 15.5598 -0.00537109 15.6423 -0.00537109 15.7288C-0.00537109 16.0968 0.293129 16.3953 0.661129 16.3953C0.719629 16.3953 0.776629 16.3878 0.830629 16.3733L0.826129 16.3743L6.49263 15.1208C7.67863 14.8503 8.64713 14.0868 9.18863 13.0628L9.19913 13.0408L9.77913 11.9608L7.38563 10.9543C6.88213 11.6923 6.10613 12.2128 5.20563 12.3713L5.18613 12.3748Z" fill="black"/>
</g>
<defs>
<clipPath id="clip0_6_205">
<rect width="16" height="16" fill="white" transform="translate(0 0.37793)"/>
</clipPath>
</defs>
</svg>
