<svg width="16" height="17" viewBox="0 0 16 17" fill="none" xmlns="http://www.w3.org/2000/svg">
<g clip-path="url(#clip0_6_355)">
<path d="M2.9699 10.6429H3.7974C3.9714 10.6429 4.1124 10.7839 4.1124 10.9579V12.5604C4.1124 12.7344 3.9714 12.8754 3.7974 12.8754H2.9699C2.7959 12.8754 2.6549 12.7344 2.6549 12.5604V10.9579C2.6549 10.7839 2.7959 10.6429 2.9699 10.6429Z" fill="black"/>
<path d="M2.9649 1.56793H3.7974C4.1439 1.56793 4.4249 1.84893 4.4249 2.19543V3.36793C4.4249 3.71443 4.1439 3.99543 3.7974 3.99543H2.9649C2.6184 3.99543 2.3374 3.71443 2.3374 3.36793V2.19543C2.3374 1.84893 2.6184 1.56793 2.9649 1.56793Z" fill="black"/>
<path d="M11.2049 10.6429H12.0324C12.2064 10.6429 12.3474 10.7839 12.3474 10.9579V12.5604C12.3474 12.7344 12.2064 12.8754 12.0324 12.8754H11.2049C11.0309 12.8754 10.8899 12.7344 10.8899 12.5604V10.9579C10.8899 10.7839 11.0309 10.6429 11.2049 10.6429Z" fill="black"/>
<path d="M11.1999 1.56793H12.0324C12.3789 1.56793 12.6599 1.84893 12.6599 2.19543V3.36793C12.6599 3.71443 12.3789 3.99543 12.0324 3.99543H11.1999C10.8534 3.99543 10.5724 3.71443 10.5724 3.36793V2.19543C10.5724 1.84893 10.8534 1.56793 11.1999 1.56793Z" fill="black"/>
<path d="M8.4824 11.9404C12.6474 10.7729 11.2324 7.61293 11.2324 7.61293C12.3199 6.90793 12.2324 4.36293 12.2324 4.36293C12.0184 4.35043 11.7679 4.34343 11.5159 4.34343C11.2639 4.34343 11.0134 4.35043 10.7649 4.36443L10.7994 4.36293C10.5449 4.44093 10.3294 4.58393 10.1659 4.77343L10.1644 4.77543H8.7494L8.2494 2.35293H9.7994L10.5494 0.37793H4.4569L5.2069 2.35293H6.7494L6.2494 4.77293H4.8194C4.6544 4.58143 4.4389 4.43843 4.1939 4.36293L4.1844 4.36043C3.9704 4.34793 3.7199 4.34093 3.4679 4.34093C3.2159 4.34093 2.9654 4.34793 2.7169 4.36193L2.7514 4.36043C2.7514 4.36043 2.6714 6.90793 3.7514 7.61043C3.7514 7.61043 2.3439 10.7704 6.5014 11.9379C6.5804 13.0014 6.7039 13.9574 6.8744 14.8974L6.8489 14.7279L3.9989 13.1279V15.3779L7.4989 16.3779L10.9989 15.3779V13.1279L8.1489 14.7279C8.2899 13.9549 8.4079 12.9984 8.4764 12.0284L8.4814 11.9404H8.4824ZM6.6399 10.5179V8.37793H8.3599V10.5179C8.3599 10.9929 7.9749 11.3779 7.4999 11.3779C7.0249 11.3779 6.6399 10.9929 6.6399 10.5179Z" fill="black"/>
</g>
<defs>
<clipPath id="clip0_6_355">
<rect width="16" height="16" fill="white" transform="translate(0 0.37793)"/>
</clipPath>
</defs>
</svg>
