<svg width="16" height="16" viewBox="0 0 16 16" fill="none" xmlns="http://www.w3.org/2000/svg">
<path d="M14.9334 6.86652C14.9334 8.33302 14.9334 12.733 14.9334 12.733C14.9334 14.133 13.7334 15.333 12.3334 15.333H7.59993C6.93343 15.333 6.26643 15.0665 5.73343 14.533L3.86693 12.6665L1.33343 10C0.933426 9.53351 0.933426 8.86652 1.39993 8.46652C1.79993 8.13302 2.33343 8.06652 2.73343 8.33302L5.13343 9.99952V1.66602C5.19993 1.13252 5.59993 0.666016 6.13343 0.666016C6.66693 0.666016 7.13343 1.13252 7.13343 1.66602V6.93252H7.79993V6.26602C7.79993 5.73252 8.26643 5.26602 8.79993 5.26602C9.33343 5.26602 9.79993 5.73252 9.79993 6.26602V6.93252H10.4664C10.5329 6.39902 10.9999 5.99902 11.5329 6.06602C11.9994 6.13252 12.3994 6.46602 12.3994 6.93252H13.0659C13.1324 6.39902 13.5994 5.99902 14.1324 6.06602C14.5324 5.99952 14.9324 6.46602 14.9324 6.86602L14.9334 6.86652ZM11.2664 2.06652C11.2664 1.26652 10.6664 0.666516 9.86643 0.666516C9.06643 0.666516 8.46643 1.26652 8.46643 2.00002C8.46643 2.73352 9.06643 3.40002 9.86643 3.40002C10.5999 3.40002 11.2664 2.80002 11.2664 2.06652ZM3.93343 2.06652C3.93343 1.26652 3.33343 0.666516 2.53343 0.666516C1.79993 0.666516 1.13343 1.26652 1.13343 2.00002C1.13343 2.73352 1.73343 3.40002 2.53343 3.40002C3.26693 3.40002 3.93343 2.80002 3.93343 2.06652ZM3.93343 5.46652C3.93343 4.73302 3.33343 4.06652 2.53343 4.06652C1.73343 4.06652 1.13343 4.73302 1.13343 5.46652C1.13343 6.20002 1.73343 6.86652 2.53343 6.86652C3.26693 6.86652 3.93343 6.26652 3.93343 5.46652Z" fill="black"/>
</svg>
