<svg width="16" height="17" viewBox="0 0 16 17" fill="none" xmlns="http://www.w3.org/2000/svg">
<g clip-path="url(#clip0_6_293)">
<path d="M8.02263 6.1126H10.3826C10.5876 6.1126 10.6001 6.1276 10.5651 6.3201C10.4676 6.8676 10.3626 7.4126 10.2701 7.9626C10.2451 8.1151 10.1851 8.1851 10.0201 8.1801C9.70013 8.1676 9.37763 8.1801 9.05763 8.1801C8.91513 8.1801 8.86013 8.1451 8.89763 7.9926C8.93513 7.8401 8.95263 7.6651 8.98763 7.4926C9.01263 7.3826 8.98763 7.3301 8.86513 7.3326H7.13013C7.02013 7.3326 6.99513 7.3851 7.01513 7.4876C7.07013 7.7751 7.12263 8.0651 7.16763 8.3576C7.18763 8.4801 7.24763 8.5126 7.36263 8.5126C7.70013 8.5126 8.03763 8.5126 8.37513 8.5126C8.51263 8.5126 8.55513 8.5526 8.52513 8.6926C8.46513 8.9751 8.41513 9.2601 8.37013 9.5451C8.37013 9.5461 8.37013 9.5476 8.37013 9.5486C8.37013 9.6466 8.29063 9.7261 8.19263 9.7261C8.18013 9.7261 8.16813 9.7246 8.15663 9.7226H8.15763C7.96013 9.7226 7.76263 9.7226 7.56513 9.7226C7.45263 9.7226 7.41013 9.7626 7.43013 9.8801C7.53013 10.4326 7.62263 10.9851 7.72513 11.5376C7.73763 11.6101 7.78013 11.7251 7.82513 11.7326C7.88213 11.7431 7.94713 11.7496 8.01363 11.7496C8.08013 11.7496 8.14563 11.7436 8.20913 11.7316L8.20263 11.7326C8.23263 11.7326 8.26013 11.6376 8.27013 11.5826C8.35013 11.1401 8.43013 10.7001 8.50263 10.2551C8.52263 10.1326 8.57513 10.0801 8.70263 10.0801C9.03763 10.0801 9.37513 10.0801 9.70263 10.0801C9.83013 10.0801 9.87763 10.1176 9.85263 10.2501C9.69763 11.1051 9.54596 11.9593 9.39763 12.8126C9.39713 12.8936 9.33113 12.9591 9.25013 12.9591C9.24213 12.9591 9.23463 12.9586 9.22663 12.9571H9.22763H6.75263C6.64763 12.9571 6.60513 12.9096 6.58513 12.8046C6.2518 10.8629 5.91013 8.91876 5.56013 6.9721C5.52263 6.7571 5.48513 6.5396 5.44013 6.3246C5.41263 6.1846 5.45513 6.1321 5.60263 6.1321C6.40763 6.1321 7.21013 6.1321 8.01263 6.1321L8.02263 6.1126Z" fill="black"/>
<path d="M13.5601 5.0926H15.8101C16.0326 5.0926 16.0401 5.1201 15.9451 5.3226C15.5501 6.1551 15.1601 6.9876 14.7676 7.8226C14.6051 8.1651 14.4376 8.5076 14.2676 8.8526C14.2101 8.9751 14.1501 8.9801 14.0501 8.8976C13.7876 8.6801 13.5201 8.4651 13.2476 8.2576C13.1936 8.2286 13.1576 8.1721 13.1576 8.1076C13.1576 8.0701 13.1696 8.0351 13.1906 8.0071C13.4406 7.5071 13.6701 6.9926 13.9101 6.4851C13.9901 6.3151 13.9776 6.2901 13.7951 6.2901H12.4401C12.3151 6.2901 12.2426 6.3226 12.2201 6.4601C12.1068 7.12676 11.9893 7.79343 11.8676 8.4601C11.8621 8.4801 11.8591 8.5031 11.8591 8.5266C11.8591 8.6191 11.9071 8.7001 11.9791 8.7471L11.9801 8.7476C12.4951 9.1476 13.0001 9.5601 13.5176 9.9601C13.5926 9.9996 13.6431 10.0771 13.6431 10.1666C13.6431 10.2201 13.6251 10.2691 13.5951 10.3081C13.2726 10.9656 12.9631 11.6301 12.6556 12.2951C12.6241 12.3871 12.5386 12.4521 12.4376 12.4521C12.4266 12.4521 12.4151 12.4511 12.4046 12.4496H12.4056C11.9406 12.4496 11.4731 12.4496 11.0081 12.4496C10.8231 12.4496 10.8106 12.4346 10.8406 12.2571C10.8881 11.9771 10.9406 11.6996 10.9856 11.4196C11.0056 11.2971 11.0581 11.2421 11.1856 11.2421C11.3506 11.2421 11.5806 11.2871 11.6631 11.1996C11.8046 11.0171 11.9191 10.8046 11.9961 10.5746L12.0006 10.5596C12.0181 10.5246 11.9581 10.4346 11.9106 10.3971C11.4756 10.0421 11.0381 9.6896 10.5931 9.3471C10.4896 9.2831 10.4216 9.1706 10.4216 9.0416C10.4216 9.0061 10.4266 8.9716 10.4366 8.9396L10.4361 8.9421C10.6595 7.7221 10.8736 6.4996 11.0786 5.2746C11.1036 5.1396 11.1586 5.0871 11.2986 5.0896C12.0486 5.0896 12.7986 5.0896 13.5636 5.0896L13.5601 5.0926Z" fill="black"/>
<path d="M2.45513 5.0951C3.20513 5.0951 3.95513 5.0951 4.70513 5.0951C4.85513 5.0951 4.90763 5.1426 4.93263 5.2901C5.14513 6.5176 5.36013 7.7451 5.58513 8.9726C5.59363 8.9991 5.59863 9.0296 5.59863 9.0611C5.59863 9.1666 5.54413 9.2591 5.46113 9.3116L5.46013 9.3121C5.01263 9.6596 4.57513 10.0196 4.12513 10.3646C4.05513 10.4011 4.00863 10.4731 4.00863 10.5556C4.00863 10.6066 4.02613 10.6531 4.05563 10.6896C4.11963 10.8026 4.18613 10.9401 4.24513 11.0821L4.25513 11.1091C4.28163 11.1891 4.35563 11.2456 4.44313 11.2456C4.45113 11.2456 4.45863 11.2451 4.46613 11.2441H4.83263C4.83863 11.2431 4.84613 11.2426 4.85313 11.2426C4.92963 11.2426 4.99263 11.3011 5.00013 11.3761C5.04513 11.6711 5.10013 11.9666 5.15763 12.2616C5.18263 12.3941 5.13263 12.4341 5.00763 12.4341C4.52513 12.4341 4.04513 12.4341 3.56263 12.4341C3.55713 12.4346 3.55113 12.4351 3.54463 12.4351C3.45713 12.4351 3.38263 12.3791 3.35563 12.3006L3.35513 12.2991C3.03013 11.6074 2.70263 10.9158 2.37263 10.2241C2.31763 10.1116 2.37263 10.0566 2.45013 9.9966C2.97263 9.5791 3.49263 9.1591 4.01763 8.7466C4.09163 8.6981 4.14013 8.6156 4.14013 8.5216C4.14013 8.4956 4.13663 8.4706 4.12963 8.4471L4.13013 8.4491C4.0068 7.79243 3.89096 7.13326 3.78263 6.4716C3.78263 6.3666 3.69763 6.2811 3.59263 6.2811C3.58113 6.2811 3.57013 6.2821 3.55913 6.2841C3.09913 6.2841 2.64013 6.2841 2.18013 6.2841C2.01763 6.2841 2.00263 6.3166 2.07263 6.4666C2.32263 6.9791 2.55513 7.4941 2.79763 8.0066C2.81763 8.0341 2.83013 8.0686 2.83013 8.1056C2.83013 8.1716 2.79163 8.2291 2.73613 8.2561L2.73513 8.2566C2.48513 8.4541 2.23513 8.6616 1.96763 8.8641C1.80263 8.9941 1.78513 8.9916 1.69513 8.7991C1.31346 7.99243 0.933464 7.18493 0.55513 6.3766C0.38763 6.0191 0.21513 5.6616 0.0551304 5.3041C-0.0248696 5.1316 -0.00736958 5.0991 0.18513 5.0991C0.93513 5.0991 1.70513 5.0991 2.46513 5.0991L2.45513 5.0951Z" fill="black"/>
<path d="M8.00013 5.7976C7.19263 5.7976 6.38513 5.7976 5.57513 5.7976C5.41763 5.7976 5.34763 5.7501 5.32513 5.5901C5.14513 4.5451 4.9618 3.50176 4.77513 2.4601C4.75763 2.3501 4.79513 2.3126 4.89763 2.3126H6.00013C6.10763 2.3126 6.13513 2.3701 6.15013 2.4576C6.26013 3.0851 6.37263 3.7076 6.48263 4.3401C6.52513 4.5901 6.52763 4.5901 6.76263 4.5901C6.89763 4.5901 7.03013 4.5901 7.16513 4.5901C7.30013 4.5901 7.35013 4.5376 7.35013 4.4001C7.35013 3.7801 7.35013 3.1501 7.35013 2.5376C7.35013 2.3176 7.35013 2.3126 7.57013 2.3126C7.88763 2.3126 8.20263 2.3126 8.51763 2.3126C8.64763 2.3126 8.69263 2.3476 8.69263 2.4851C8.69263 3.1176 8.69263 3.7501 8.69263 4.3801C8.69263 4.5376 8.73513 4.6076 8.90263 4.5926C8.96713 4.5886 9.04263 4.5861 9.11913 4.5861C9.19563 4.5861 9.27063 4.5886 9.34563 4.5931L9.33563 4.5926C9.46813 4.5926 9.52563 4.5551 9.54813 4.4201C9.65563 3.7776 9.77563 3.1351 9.88313 2.4901C9.90563 2.3551 9.96313 2.3101 10.0931 2.3126C10.4306 2.3126 10.7681 2.3126 11.0931 2.3126C11.2156 2.3126 11.2656 2.3301 11.2406 2.4751C11.0506 3.51843 10.8665 4.56176 10.6881 5.6051C10.6606 5.7651 10.5931 5.8126 10.4381 5.8126C9.63063 5.8126 8.82313 5.8126 8.01313 5.8126L8.00013 5.7976Z" fill="black"/>
<path d="M7.98263 14.4501H6.41263C6.22513 14.4501 6.21263 14.4301 6.27013 14.2551C6.36763 13.9651 6.47263 13.6801 6.56763 13.3901C6.58513 13.3061 6.65863 13.2441 6.74663 13.2441C6.75413 13.2441 6.76163 13.2446 6.76863 13.2456C7.59113 13.2456 8.41263 13.2456 9.23513 13.2456C9.24013 13.2451 9.24563 13.2451 9.25113 13.2451C9.34013 13.2451 9.41463 13.3081 9.43213 13.3921V13.3931C9.52963 13.6806 9.63463 13.9656 9.73463 14.2556C9.78963 14.4181 9.75963 14.4556 9.58713 14.4556H7.98213L7.98263 14.4501Z" fill="black"/>
</g>
<defs>
<clipPath id="clip0_6_293">
<rect width="16" height="16" fill="white" transform="translate(0 0.37793)"/>
</clipPath>
</defs>
</svg>
