<svg width="16" height="17" viewBox="0 0 16 17" fill="none" xmlns="http://www.w3.org/2000/svg">
<g clip-path="url(#clip0_6_217)">
<path d="M0.7555 4.97138L1.882 6.09788C2.805 7.01388 3.498 8.16038 3.8685 9.44338L3.882 9.49788C4.386 11.3134 6.024 12.6239 7.968 12.6239C8.84 12.6239 9.6505 12.3604 10.324 11.9084L10.309 11.9179C11.3505 11.2159 12.0605 10.0919 12.194 8.79638L12.1955 8.77788C12.207 8.65938 12.214 8.52138 12.214 8.38238C12.214 6.45288 10.9315 4.82338 9.1725 4.29938L9.1425 4.29188C7.789 3.90888 6.6275 3.21588 5.6955 2.29138L4.5895 1.13838C2.888 1.93288 1.551 3.27038 0.7765 4.92388L0.7565 4.97188L0.7555 4.97138Z" fill="black"/>
<path d="M13.6485 2.71138C12.202 1.27088 10.207 0.379883 8.0035 0.379883C7.2875 0.379883 6.593 0.473883 5.9325 0.650383L5.9885 0.637883L6.655 1.30438C7.428 2.09388 8.393 2.69238 9.474 3.02488L9.5215 3.03738C10.4685 3.31438 11.281 3.80338 11.9355 4.45138C12.9035 5.45338 13.4995 6.81938 13.4995 8.32538C13.4995 11.4069 11.001 13.9054 7.9195 13.9054C6.776 13.9054 5.713 13.5614 4.828 12.9714L4.8485 12.9844C3.77 12.2459 2.976 11.1599 2.6245 9.88988L2.6155 9.85088C2.293 8.74238 1.713 7.79388 0.943 7.03838L0.942 7.03738L0.2555 6.37088C0.0935 6.97238 0 7.66338 0 8.37588C0 12.7944 3.5815 16.3759 8 16.3759C12.4185 16.3759 16 12.7944 16 8.37588C16 6.16288 15.101 4.15988 13.6485 2.71138Z" fill="black"/>
</g>
<defs>
<clipPath id="clip0_6_217">
<rect width="16" height="16" fill="white" transform="translate(0 0.37793)"/>
</clipPath>
</defs>
</svg>
