<svg width="16" height="17" viewBox="0 0 16 17" fill="none" xmlns="http://www.w3.org/2000/svg">
<g clip-path="url(#clip0_6_407)">
<path d="M7.73246 0.37793H8.32746C8.37746 0.37793 8.42746 0.40293 8.47746 0.40793C8.82996 0.45293 9.18746 0.46793 9.53246 0.54043C12.395 1.15043 14.3775 2.82043 15.5 5.52543C15.595 5.76043 15.55 5.82793 15.2925 5.81793C15.0225 5.81093 14.764 5.78343 14.5125 5.73593L14.5425 5.74043C12.396 5.37093 10.6455 3.95843 9.81096 2.05343L9.79496 2.01293C9.75946 1.94143 9.69846 1.88743 9.62446 1.86093L9.62246 1.86043C9.31496 1.77543 8.99996 1.69293 8.69496 1.62793C8.50446 1.58093 8.28546 1.55343 8.05996 1.55343C7.76796 1.55343 7.48696 1.59893 7.22296 1.68293L7.24246 1.67743C6.81196 1.82043 6.50646 2.21993 6.50646 2.69043C6.50646 2.72993 6.50846 2.76893 6.51296 2.80743L6.51246 2.80243C6.54096 3.16493 6.67046 3.49243 6.87346 3.76193L6.86996 3.75743C7.18496 4.19493 7.55896 4.56593 7.98546 4.86743L7.99996 4.87743C9.58596 6.03993 11.453 6.92993 13.4735 7.43193L13.5825 7.45493C14.29 7.62993 15.015 7.72993 15.7325 7.85743C15.85 7.87993 15.965 7.91743 15.9825 8.03493C15.997 8.14843 16.005 8.27993 16.005 8.41343C16.005 8.47643 16.003 8.53893 15.9995 8.60093L16 8.59243C15.996 8.69193 15.915 8.77093 15.815 8.77243C15.63 8.79493 15.445 8.82243 15.2575 8.84993C13.195 9.11693 11.329 9.75043 9.65346 10.6854L9.73246 10.6449C8.76496 11.1684 7.93446 11.7969 7.21146 12.5309L7.20996 12.5324C6.94346 12.7989 6.73046 13.1194 6.58896 13.4759L6.58246 13.4949C6.33246 14.2199 6.56496 14.9224 7.40996 15.1174C7.56446 15.1579 7.74196 15.1809 7.92496 15.1809C8.00046 15.1809 8.07546 15.1769 8.14896 15.1694L8.13996 15.1704C8.61246 15.1104 9.07996 15.0029 9.55246 14.9204C9.67046 14.9029 9.76546 14.8214 9.80196 14.7124L9.80246 14.7104C10.5165 13.1099 11.833 11.8864 13.456 11.3114L13.5 11.2979C14.0315 11.0904 14.6465 10.9694 15.2895 10.9679C15.5245 10.9679 15.565 11.0304 15.475 11.2429C14.25 14.1904 12.0425 15.8779 8.86746 16.3129C8.67746 16.3379 8.48496 16.3554 8.29496 16.3779H7.79496C7.50996 16.3454 7.22496 16.3204 6.94246 16.2804C5.17496 16.0444 3.62496 15.2524 2.44146 14.0894L2.44246 14.0904C2.06246 13.7334 1.78296 13.2734 1.64896 12.7549L1.64496 12.7354C1.61396 12.6344 1.59596 12.5189 1.59596 12.3984C1.59596 12.1114 1.69846 11.8479 1.86896 11.6434L1.86746 11.6454C2.08496 11.3829 2.32096 11.1504 2.57796 10.9429L2.58746 10.9354C3.31496 10.3604 4.17496 10.0229 5.01746 9.66043C5.93596 9.25443 7.06796 8.84943 8.23246 8.51943L8.42496 8.47293C8.48046 8.44693 8.52846 8.41543 8.57046 8.37743C8.52696 8.34393 8.47696 8.31443 8.42496 8.28993L8.41996 8.28793C7.89996 8.12043 7.37496 7.97043 6.85746 7.78793C5.44396 7.31393 4.23796 6.77693 3.09346 6.14243L3.20746 6.20043C2.67796 5.92743 2.23446 5.55693 1.88646 5.10943L1.87996 5.10043C1.71646 4.89643 1.61746 4.63393 1.61746 4.34893C1.61746 4.28793 1.62196 4.22793 1.63096 4.16893L1.62996 4.17543C1.70546 3.66943 1.92746 3.22493 2.25146 2.87643L2.24996 2.87793C3.49746 1.54443 5.20096 0.65143 7.11096 0.44843L7.14496 0.44543C7.33996 0.42043 7.53496 0.40043 7.73246 0.37793Z" fill="black"/>
<path d="M0.0299609 8.08043C0.0624609 7.79793 0.0899609 7.51293 0.129961 7.23043C0.220461 6.58243 0.378461 5.99743 0.600461 5.44443L0.582461 5.49543C0.602461 5.44293 0.667461 5.40793 0.712461 5.36793C0.737461 5.40943 0.757961 5.45793 0.771461 5.50893L0.772461 5.51293C0.818461 5.89193 0.992461 6.22393 1.24946 6.46993C1.73846 6.95693 2.31946 7.35243 2.96446 7.62693L2.99996 7.64043C3.49996 7.86793 4.02746 8.06543 4.54496 8.27793L4.74996 8.37793C4.62746 8.42543 4.54996 8.45793 4.46996 8.48543C3.42096 8.81393 2.50846 9.27693 1.69146 9.86493L1.71996 9.84543C1.47996 10.0359 1.26696 10.2409 1.07496 10.4644L1.06996 10.4704C0.891961 10.6719 0.774461 10.9304 0.747961 11.2154L0.747461 11.2204C0.729961 11.2749 0.707461 11.3219 0.678461 11.3649L0.679961 11.3629C0.642461 11.3204 0.579961 11.2854 0.564961 11.2354C0.434961 10.7979 0.289961 10.3604 0.192461 9.91543C0.114961 9.56543 0.0974609 9.20293 0.0524609 8.84793C0.0524609 8.79043 0.0324609 8.73543 0.0224609 8.68043L0.0299609 8.08043Z" fill="black"/>
</g>
<defs>
<clipPath id="clip0_6_407">
<rect width="16" height="16" fill="white" transform="translate(0 0.37793)"/>
</clipPath>
</defs>
</svg>
