<svg width="16" height="17" viewBox="0 0 16 17" fill="none" xmlns="http://www.w3.org/2000/svg">
<path d="M5.69257 12.4505C5.86007 12.4505 6.02257 12.4505 6.18007 12.4505C6.19207 12.4485 6.20607 12.447 6.22007 12.447C6.32907 12.447 6.42057 12.521 6.44707 12.6215L6.44757 12.623C6.51757 12.7855 6.60757 12.938 6.69757 13.103H1.13257C0.595066 13.103 0.207566 12.663 0.207566 12.058V5.1455C0.206066 5.127 0.205566 5.105 0.205566 5.083C0.205566 4.6375 0.505066 4.2625 0.913066 4.147L0.920066 4.1455C0.976566 4.1325 1.04157 4.1255 1.10807 4.1255C1.11207 4.1255 1.11657 4.1255 1.12057 4.1255H9.66757C9.67057 4.125 9.67357 4.125 9.67707 4.125C9.71507 4.125 9.74807 4.146 9.76507 4.1775C10.6667 5.51083 11.5697 6.83383 12.4731 8.1455C12.4921 8.1695 12.5031 8.2005 12.5031 8.234C12.5031 8.2505 12.5001 8.2665 12.4951 8.2815L12.4956 8.2805C12.4581 8.4155 12.4281 8.5555 12.3931 8.6905C12.2681 8.6205 12.1431 8.5455 12.0206 8.483C11.8326 8.387 11.6106 8.3305 11.3756 8.3305C11.3686 8.3305 11.3616 8.3305 11.3546 8.3305H11.3556C10.9531 8.3305 10.5506 8.3305 10.1506 8.3305C10.0206 8.3305 9.96057 8.2805 9.93057 8.1355C9.91757 8.058 9.91007 7.969 9.91007 7.878C9.91007 7.787 9.91757 7.698 9.93207 7.611L9.93057 7.6205C9.93057 7.6205 9.93057 7.6205 9.94807 7.6205C10.1156 7.6205 10.1006 7.653 10.1106 7.443C10.1146 7.3775 10.1171 7.3015 10.1171 7.2245C10.1171 6.962 10.0891 6.706 10.0361 6.459L10.0406 6.483C9.95157 6.0185 9.67657 5.631 9.29757 5.3945L9.29057 5.3905C8.95707 5.1655 8.54657 5.031 8.10457 5.031C7.96957 5.031 7.83807 5.0435 7.71007 5.0675L7.72307 5.0655C7.09257 5.2055 6.61707 5.7275 6.54857 6.3715L6.54807 6.378C6.52807 6.503 6.52307 6.628 6.50557 6.7555C6.49907 6.792 6.48207 6.8235 6.45807 6.848L5.63807 7.4955L5.55557 7.563H6.70557C6.72707 7.6115 6.73957 7.6685 6.73957 7.728C6.73957 7.7875 6.72707 7.8445 6.70457 7.8955L6.70557 7.893C6.61307 8.083 6.53807 8.2855 6.45557 8.483C6.44557 8.5015 6.43707 8.5235 6.43107 8.546L6.43057 8.548C6.41307 8.6355 6.43057 8.6605 6.51057 8.663C6.59057 8.6655 6.70307 8.663 6.80057 8.663C6.83207 8.666 6.85907 8.683 6.87557 8.7075C6.93207 8.8305 6.96557 8.975 6.96557 9.127C6.96557 9.1765 6.96207 9.2255 6.95507 9.2735L6.95557 9.268C6.95107 9.302 6.93007 9.3305 6.90107 9.345C6.55157 9.4935 6.27757 9.765 6.12907 10.1035L6.12557 10.113C5.93457 10.4865 5.80157 10.9215 5.75207 11.3815L5.75057 11.398C5.71307 11.728 5.70307 12.063 5.68057 12.398C5.68257 12.4175 5.68707 12.435 5.69357 12.452L5.69257 12.4505ZM2.05257 10.283C1.70107 10.321 1.42957 10.616 1.42957 10.9745C1.42957 11.333 1.70107 11.628 2.04957 11.6655L2.05257 11.666C2.40407 11.628 2.67557 11.333 2.67557 10.9745C2.67557 10.616 2.40407 10.321 2.05557 10.2835L2.05257 10.283Z" fill="black"/>
<path d="M11.0576 4.128H14.8976C15.3576 4.1375 15.7341 4.4845 15.7896 4.931L15.7901 4.9355C15.8016 5.0055 15.8081 5.086 15.8081 5.168C15.8081 5.1785 15.8081 5.189 15.8076 5.1995V5.198C15.8076 7.483 15.8076 9.76633 15.8076 12.048C15.8086 12.0665 15.8096 12.0875 15.8096 12.1095C15.8096 12.5735 15.4936 12.964 15.0646 13.0765L15.0576 13.078C15.0316 13.0805 15.0016 13.0815 14.9716 13.0815C14.9416 13.0815 14.9111 13.08 14.8816 13.0775L14.8856 13.078H13.2056V12.438H13.2881C13.6881 12.438 14.0906 12.438 14.4931 12.438C14.4966 12.438 14.5006 12.438 14.5041 12.438C14.6336 12.438 14.7506 12.3855 14.8356 12.3005C15.0991 12.0315 15.2931 11.693 15.3876 11.3155L15.3906 11.3005C15.3911 11.2935 15.3916 11.2855 15.3916 11.2775C15.3916 11.2435 15.3846 11.211 15.3726 11.1815L15.3731 11.183C15.3631 11.156 15.3486 11.1325 15.3306 11.113C15.1501 10.909 15.0121 10.6625 14.9341 10.3915L14.9306 10.378C14.8916 10.258 14.8096 10.1615 14.7031 10.1045L14.7006 10.103C14.5331 9.9955 14.3781 9.868 14.2156 9.748C14.1841 9.725 14.1641 9.6885 14.1641 9.647C14.1641 9.6405 14.1646 9.634 14.1656 9.6275C14.1656 9.58 14.1656 9.5305 14.1656 9.4805C14.1696 9.462 14.1716 9.441 14.1716 9.419C14.1716 9.319 14.1256 9.2295 14.0536 9.171C14.0031 9.1365 13.9441 9.1025 13.8836 9.074L13.8756 9.0705C13.8766 9.06 13.8771 9.048 13.8771 9.036C13.8771 8.923 13.8286 8.8215 13.7506 8.751C13.7261 8.728 13.6936 8.712 13.6581 8.708C13.6181 8.708 13.5926 8.683 13.6001 8.633C13.6006 8.6255 13.6011 8.6165 13.6011 8.6075C13.6011 8.5025 13.5531 8.408 13.4781 8.346C13.4481 8.311 13.3801 8.3105 13.3276 8.3055C13.2861 8.3035 13.2506 8.2775 13.2356 8.241L11.0881 4.193L11.0576 4.128Z" fill="black"/>
</svg>
