<svg width="17" height="16" viewBox="0 0 17 16" fill="none" xmlns="http://www.w3.org/2000/svg">
<g clip-path="url(#clip0_6_584)">
<path d="M16.5 8.52663C16.4975 9.73563 15.5465 10.7216 14.352 10.7796H12.5005C12.4965 8.38913 10.558 6.45313 8.16697 6.45313C5.77397 6.45313 3.83347 8.39313 3.83347 10.7866C3.83347 10.7891 3.83347 10.7911 3.83347 10.7936L2.77347 10.7931C1.55097 10.7556 0.573975 9.75563 0.573975 8.52763C0.573975 7.33213 1.49947 6.35313 2.67297 6.26713L2.68047 6.26663C2.56747 5.92613 2.50197 5.53413 2.50047 5.12713C2.50447 3.10863 4.14147 1.47363 6.16047 1.47363C7.76197 1.47363 9.12297 2.50213 9.61947 3.93413L9.62697 3.95963C10.0535 3.64763 10.5885 3.46013 11.167 3.45963C12.64 3.45963 13.8335 4.65363 13.8335 6.12613C13.835 6.15213 13.836 6.18213 13.836 6.21263C13.836 6.24313 13.835 6.27363 13.8335 6.30363V6.29963C13.9565 6.27263 14.099 6.25563 14.245 6.25313H14.247C15.494 6.26463 16.5 7.27863 16.5 8.52663ZM9.12647 8.03363C8.86397 7.95963 8.56297 7.91663 8.25197 7.91663C6.54347 7.91663 5.13548 9.20163 4.94147 10.8576L4.93997 10.8731H4.27347L5.42697 12.4666L6.54697 10.8731H5.95347C6.13047 9.75863 7.08297 8.91613 8.23297 8.91313C8.45447 8.91513 8.66797 8.94663 8.87047 9.00413L8.85347 9.00013C9.83897 9.27963 10.549 10.1716 10.549 11.2296C10.549 12.0286 10.144 12.7326 9.52847 13.1486L9.52047 13.1536C9.16197 13.3856 8.72398 13.5236 8.25397 13.5236C7.67298 13.5236 7.14097 13.3131 6.73047 12.9641L6.73397 12.9671L6.06747 13.7271C6.64247 14.2321 7.40097 14.5406 8.23197 14.5406C8.23297 14.5406 8.23347 14.5406 8.23447 14.5406C8.23897 14.5406 8.24397 14.5406 8.24897 14.5406C8.92548 14.5406 9.55497 14.3391 10.0805 13.9926L10.068 14.0001C10.952 13.3916 11.524 12.3856 11.524 11.2456C11.524 9.73863 10.524 8.46513 9.15147 8.05263L9.12797 8.04663L9.12647 8.03363Z" fill="black"/>
</g>
<defs>
<clipPath id="clip0_6_584">
<rect width="16" height="16" fill="white" transform="translate(0.5)"/>
</clipPath>
</defs>
</svg>
