<svg width="16" height="16" viewBox="0 0 16 16" fill="none" xmlns="http://www.w3.org/2000/svg">
<g clip-path="url(#clip0_245_123)">
<path fill-rule="evenodd" clip-rule="evenodd" d="M8 16.001C12.4185 16.001 16 12.4195 16 8.00098C16 3.58248 12.4185 0.000976562 8 0.000976562C3.5815 0.000976562 0 3.58248 0 8.00098C0 12.4195 3.5815 16.001 8 16.001ZM11.5735 10.4145L10.36 9.79446L10.3595 9.80746C9.9725 10.481 9.1995 10.981 8.326 10.981C7.146 10.981 6.206 10.3275 5.7795 9.30746H9.05949V8.49396H5.5595C5.5465 8.35396 5.533 8.20696 5.533 8.06046C5.533 7.90046 5.546 7.74696 5.5595 7.60046H9.05949V6.78696H5.786C6.213 5.78046 7.153 5.14046 8.3195 5.14046C9.193 5.14046 9.96649 5.64746 10.353 6.31396L11.5665 5.69396C10.96 4.72046 9.9535 3.87396 8.31999 3.87396C6.3665 3.87396 4.7665 5.01396 4.26 6.78046H3.62V7.59396H4.1065C4.0935 7.74046 4.08 7.89396 4.08 8.05396C4.08 8.19396 4.093 8.34096 4.1065 8.48746H3.62V9.30096H4.2535C4.767 11.081 6.36699 12.2345 8.32699 12.2345C9.96 12.2345 10.9535 11.381 11.5735 10.4145Z" fill="black"/>
</g>
<defs>
<clipPath id="clip0_245_123">
<rect width="16" height="16" fill="white" transform="translate(0 0.000976562)"/>
</clipPath>
</defs>
</svg>
