<svg width="16" height="16" viewBox="0 0 16 16" fill="none" xmlns="http://www.w3.org/2000/svg">
<g clip-path="url(#clip0_6_389)">
<path d="M13.3159 0.535156H2.68439C1.49789 0.535156 0.535889 1.49716 0.535889 2.68366V13.3152C0.535889 14.5017 1.49789 15.4637 2.68439 15.4637H13.3159C14.5024 15.4637 15.4644 14.5017 15.4644 13.3152V2.68366C15.4644 1.49716 14.5024 0.535156 13.3159 0.535156ZM3.85239 13.8057C2.93639 13.8057 2.19389 13.0632 2.19389 12.1472C2.19389 11.2312 2.93639 10.4887 3.85239 10.4887C4.76839 10.4887 5.51089 11.2312 5.51089 12.1472C5.51089 13.0632 4.76839 13.8057 3.85239 13.8057ZM3.85239 5.51066C2.93639 5.51066 2.19389 4.76816 2.19389 3.85216C2.19389 2.93616 2.93639 2.19366 3.85239 2.19366C4.76839 2.19366 5.51089 2.93616 5.51089 3.85216C5.51089 4.76816 4.76839 5.51066 3.85239 5.51066ZM7.99989 9.65816C7.08389 9.65816 6.34139 8.91566 6.34139 7.99966C6.34139 7.08366 7.08389 6.34116 7.99989 6.34116C8.91589 6.34116 9.65839 7.08366 9.65839 7.99966C9.65839 8.91566 8.91589 9.65816 7.99989 9.65816ZM12.1474 13.8057C11.2314 13.8057 10.4889 13.0632 10.4889 12.1472C10.4889 11.2312 11.2314 10.4887 12.1474 10.4887C13.0634 10.4887 13.8059 11.2312 13.8059 12.1472C13.8059 13.0632 13.0634 13.8057 12.1474 13.8057ZM12.1474 5.51066C11.2314 5.51066 10.4889 4.76816 10.4889 3.85216C10.4889 2.93616 11.2314 2.19366 12.1474 2.19366C13.0634 2.19366 13.8059 2.93616 13.8059 3.85216C13.8059 4.76816 13.0634 5.51066 12.1474 5.51066Z" fill="black"/>
</g>
<defs>
<clipPath id="clip0_6_389">
<rect width="16" height="16" fill="white"/>
</clipPath>
</defs>
</svg>
