<svg width="16" height="16" viewBox="0 0 16 16" fill="none" xmlns="http://www.w3.org/2000/svg">
<path d="M9.78389 9.37C9.55403 9.37 9.37414 9.56 9.37414 9.78C9.37414 10 9.56402 10.19 9.78389 10.19C10.0037 10.19 10.1936 10 10.1936 9.78C10.1936 9.56 10.0037 9.37 9.78389 9.37Z" fill="black"/>
<path d="M6.20612 6.62C6.43598 6.62 6.61587 6.43 6.61587 6.21C6.61587 5.99 6.43598 5.8 6.20612 5.8C5.97626 5.8 5.79638 5.99 5.79638 6.21C5.79638 6.43 5.97626 6.62 6.20612 6.62Z" fill="black"/>
<path d="M15.99 6.33V2.67C15.99 2.3 15.6902 2 15.3204 2H0.669582C0.299813 2 0 2.3 0 2.67V6.34C0.87945 6.38 1.57901 7.11 1.57901 8C1.57901 8.89 0.87945 9.62 0 9.67V13.33C0 13.7 0.289819 14 0.669582 14H15.3304C15.7002 14 16 13.7 16 13.33V9.67C15.0806 9.67 14.331 8.92 14.331 8C14.331 7.08 15.0806 6.33 16 6.33H15.99ZM6.20612 4.7C7.0356 4.7 7.71518 5.38 7.71518 6.21C7.71518 7.04 7.0456 7.72 6.20612 7.72C5.36665 7.72 4.69706 7.04 4.69706 6.21C4.69706 5.38 5.36665 4.7 6.20612 4.7ZM4.69706 11.29L9.85384 4.7H11.253L6.09619 11.29H4.69706ZM9.77389 11.29C8.93442 11.29 8.26484 10.61 8.26484 9.78C8.26484 8.95 8.93442 8.27 9.77389 8.27C10.6134 8.27 11.2829 8.95 11.2829 9.78C11.2829 10.61 10.6134 11.29 9.77389 11.29Z" fill="black"/>
</svg>
