<svg width="16" height="17" viewBox="0 0 16 17" fill="none" xmlns="http://www.w3.org/2000/svg">
<g clip-path="url(#clip0_6_537)">
<path d="M10.7535 11.044C10.1995 11.2015 9.722 11.478 9.332 11.8455L9.3335 11.844C8.2315 12.7455 7.243 13.6435 6.3015 14.589L6.3 14.5905C6.3 14.5905 4 13.157 3.44 13.157C2.88 13.157 0 16.377 0 16.377H16C16 16.377 12.06 11.044 10.7535 11.044Z" fill="black"/>
<path d="M2.9335 7.28398C3.3145 7.53448 3.7815 7.68398 4.2835 7.68398C4.5315 7.68398 4.7715 7.64748 4.9975 7.57948L4.98 7.58398C4.8235 7.90198 4.732 8.27648 4.732 8.67198C4.732 9.17398 4.879 9.64148 5.1325 10.0335L5.1265 10.0235C4.633 10.1005 4.2065 10.3415 3.895 10.688L3.8935 10.69C4.7845 11.5435 5.942 12.126 7.229 12.3L7.26 12.3035C7.8065 11.8035 8.2735 11.41 8.66 11.11C8.483 10.9705 8.281 10.85 8.064 10.7565L8.0465 10.75C8.753 10.7035 9.4465 9.67648 9.5665 8.96998C10.0765 9.20248 10.6725 9.33798 11.3 9.33798C11.45 9.33798 11.5985 9.32998 11.745 9.31498L11.7265 9.31648C11.6145 9.56248 11.5495 9.84948 11.5495 10.152C11.5495 10.196 11.551 10.239 11.5535 10.2825L11.553 10.2765C11.8095 10.408 12.028 10.543 12.234 10.693L12.2195 10.683C13.1745 9.75698 13.8215 8.51848 13.9965 7.13248L13.9995 7.10298C13.824 7.02148 13.619 6.97398 13.403 6.97398C13.187 6.97398 12.9815 7.02148 12.7975 7.10648L12.8065 7.10298C12.8525 6.94848 12.879 6.77098 12.879 6.58698C12.879 5.94898 12.56 5.38548 12.0725 5.04698L12.0665 5.04298C12.9265 4.96298 13.4 3.46948 13.4 3.46948C12.824 2.41598 11.98 1.57198 10.9585 1.01198L10.927 0.995977C10.927 0.995977 9.4735 0.795977 9.0405 1.25598C8.474 0.375977 6.927 0.375977 6.927 0.375977C5.7035 0.613977 4.642 1.19048 3.8125 2.00348L3.8135 2.00248V2.00648C3.8135 2.49548 4.0415 2.93148 4.397 3.21348L4.4 3.21598C3.6265 3.39598 2.8265 4.47598 2.96 4.90948C2.805 4.70748 2.5645 4.57848 2.2935 4.57598C2.132 5.09348 2.0385 5.68848 2.0385 6.30548C2.0385 6.96948 2.1465 7.60798 2.3455 8.20498L2.3335 8.16248C2.604 7.93248 2.811 7.63498 2.929 7.29648L2.9335 7.28248V7.28398ZM8.9335 1.63098C9.1335 2.72448 10.34 4.55098 11.467 4.91098C10.256 5.37648 9.412 6.52998 9.412 7.88098C9.412 7.98998 9.4175 8.09798 9.4285 8.20448L9.4275 8.19098C8.6675 7.11098 6.441 6.45748 5.2875 7.10448C5.535 6.63698 5.68 6.08248 5.68 5.49398C5.68 4.65298 5.3835 3.88148 4.8895 3.27798L4.8945 3.28398C5.004 3.29298 5.1315 3.29798 5.26 3.29798C6.7185 3.29798 8.0265 2.65498 8.916 1.63648L8.921 1.63098H8.9335Z" fill="black"/>
</g>
<defs>
<clipPath id="clip0_6_537">
<rect width="16" height="16" fill="white" transform="translate(0 0.37793)"/>
</clipPath>
</defs>
</svg>
