<svg width="16" height="17" viewBox="0 0 16 17" fill="none" xmlns="http://www.w3.org/2000/svg">
<g clip-path="url(#clip0_18_46)">
<path d="M9.77833 8.41962C9.77833 7.67408 9.30636 7.03616 8.64458 6.78669V10.0526C9.30636 9.80309 9.77833 9.16517 9.77833 8.41962Z" fill="black"/>
<path d="M13.9323 10.3797H16V6.53081H13.9323V10.3797Z" fill="black"/>
<path d="M8.64458 1.37793V5.52725C9.98603 5.81164 10.9959 7.00052 10.9959 8.41962C10.9959 9.83872 9.98603 11.0276 8.64458 11.312V15.3774H16V11.5914H12.7148V5.31912H16V1.38933L8.64458 1.37793Z" fill="black"/>
<path d="M2.18657 6.53081H0V10.3797H2.18657V6.53081Z" fill="black"/>
<path d="M6.26893 8.41962C6.26893 9.12882 6.69579 9.74036 7.30743 10.0134V6.8259C6.69579 7.09888 6.26893 7.71043 6.26893 8.41962Z" fill="black"/>
<path d="M0 1.38933L0 5.31912H3.40412V11.5914H0L0 15.3774H7.30743V11.2906C6.01325 10.9706 5.05139 9.80451 5.05139 8.41962C5.05139 7.03473 6.01325 5.86866 7.30743 5.54863V1.37793L0 1.38933Z" fill="black"/>
</g>
<defs>
<clipPath id="clip0_18_46">
<rect width="16" height="16" fill="white" transform="translate(0 0.37793)"/>
</clipPath>
</defs>
</svg>
