<svg width="16" height="17" viewBox="0 0 16 17" fill="none" xmlns="http://www.w3.org/2000/svg">
<path d="M15.6998 2.28793C15.6998 2.28493 15.6998 2.28143 15.6998 2.27793C15.6998 2.06043 15.5263 1.88343 15.3103 1.87793H0.689805C0.473305 1.88343 0.299805 2.06043 0.299805 2.27793C0.299805 2.28143 0.299805 2.28493 0.299805 2.28843V14.3779C0.299805 14.3819 0.299805 14.3859 0.299805 14.3904C0.299805 14.6064 0.472305 14.7824 0.686805 14.7879H15.3123C15.5293 14.7809 15.7023 14.6034 15.7023 14.3854C15.7023 14.3829 15.7023 14.3799 15.7023 14.3774C15.699 10.3441 15.6981 6.3146 15.6998 2.28793ZM12.9498 8.78793C12.9198 8.80993 12.8978 8.84093 12.8878 8.87693L12.8873 8.87793C12.8748 8.91243 12.8428 8.93643 12.8048 8.93643C12.7893 8.93643 12.7748 8.93243 12.7618 8.92543C12.7243 8.90543 12.7073 8.92543 12.6948 8.95543C12.6888 9.00143 12.6503 9.03643 12.6028 9.03643C12.5848 9.03643 12.5683 9.03143 12.5543 9.02243C12.5293 9.02243 12.5148 9.02243 12.4973 9.02243L11.9573 9.28493C11.9323 9.28493 11.9098 9.30243 11.9123 9.34743C11.9148 9.39243 11.8223 9.43493 11.7848 9.40743C11.7473 9.37993 11.7148 9.38743 11.7048 9.44493C11.6948 9.50243 11.6123 9.54493 11.5698 9.50493C11.5273 9.46493 11.5348 9.50493 11.5148 9.50493C11.4983 9.50993 11.4788 9.51243 11.4593 9.51243C11.3493 9.51243 11.2593 9.42793 11.2503 9.32043V9.31943C11.2503 9.25193 11.2278 9.18193 11.2203 9.11443C11.2203 9.05593 11.1753 9.00743 11.1183 9.00193C10.8518 8.94793 10.5453 8.91693 10.2318 8.91693C10.2163 8.91693 10.2008 8.91693 10.1853 8.91693H10.1878C10.0678 8.92693 9.9288 8.93293 9.7878 8.93293C9.6468 8.93293 9.5078 8.92693 9.3698 8.91593L9.3878 8.91693C9.2078 8.90143 9.0458 8.83843 8.9098 8.73993L8.9128 8.74193C8.8098 8.66393 8.6798 8.61693 8.5383 8.61693C8.5328 8.61693 8.5273 8.61693 8.5218 8.61693C8.1368 8.61693 7.7528 8.59943 7.3678 8.58693C7.3228 8.58693 7.2928 8.58693 7.2878 8.64943C7.2828 8.71193 7.2528 8.69943 7.2153 8.69943C6.8053 8.69943 6.3928 8.69943 5.9828 8.69943H5.2028L5.4528 8.83443C5.4883 8.84793 5.5128 8.88143 5.5128 8.92093C5.5128 8.92043 5.5128 8.92143 5.5128 8.92093C5.5403 9.20343 5.5678 9.48693 5.6003 9.76943C5.6003 9.81693 5.6003 9.83693 5.5503 9.83943C5.5003 9.84193 5.4978 9.87193 5.5003 9.91943C5.5403 10.3094 5.5578 10.6994 5.5628 11.0919C5.5633 11.0994 5.5633 11.1084 5.5633 11.1174C5.5633 11.3014 5.4708 11.4639 5.3293 11.5609L5.3273 11.5619C5.2198 11.6379 5.0958 11.7154 4.9668 11.7849L4.9473 11.7944C4.9198 11.8094 4.8898 11.8169 4.9123 11.8644C4.9348 11.9119 4.8873 11.9144 4.8623 11.9269C4.5448 12.0869 4.2173 12.2144 3.8898 12.3419C3.3618 12.5229 2.9298 12.7039 2.5113 12.9084L2.5823 12.8769C2.2488 13.0389 1.9703 13.2664 1.7538 13.5444L1.7498 13.5494C1.7093 13.6049 1.6698 13.6689 1.6343 13.7354L1.6298 13.7444C1.6088 13.7904 1.5638 13.8214 1.5113 13.8214C1.4938 13.8214 1.4768 13.8179 1.4618 13.8114L1.4628 13.8119C1.3978 13.7944 1.3503 13.7364 1.3503 13.6669C1.3503 13.6659 1.3503 13.6654 1.3503 13.6644C1.3503 13.5919 1.3753 13.5169 1.3128 13.4494C1.3038 13.4344 1.2983 13.4169 1.2983 13.3974C1.2983 13.3674 1.3118 13.3404 1.3328 13.3219C1.3638 13.2904 1.3833 13.2469 1.3833 13.1989C1.3833 13.1774 1.3793 13.1569 1.3723 13.1379L1.3728 13.1389C1.3663 13.1254 1.3628 13.1089 1.3628 13.0919C1.3628 13.0459 1.3903 13.0064 1.4298 12.9889C1.4388 12.9849 1.4468 12.9784 1.4528 12.9709C1.5453 12.8194 1.6368 12.6894 1.7358 12.5659L1.7303 12.5734C1.7578 12.5309 1.7878 12.4959 1.7628 12.4309C1.7608 12.4229 1.7593 12.4139 1.7593 12.4044C1.7593 12.3629 1.7838 12.3269 1.8198 12.3109C1.8493 12.2989 1.8703 12.2694 1.8703 12.2364C1.8703 12.2244 1.8678 12.2129 1.8628 12.2024C1.8613 12.1954 1.8603 12.1879 1.8603 12.1799C1.8603 12.1304 1.8908 12.0879 1.9343 12.0709L1.9353 12.0704C1.9353 12.0704 1.9603 12.0704 1.9653 12.0704C2.0853 11.9579 2.1978 12.0079 2.3178 12.0704C2.3933 12.1189 2.4858 12.1479 2.5853 12.1479C2.7358 12.1479 2.8708 12.0814 2.9623 11.9759C3.1973 11.7534 3.4253 11.5204 3.6703 11.3079C3.8218 11.1674 3.9933 11.0459 4.1798 10.9489L4.1928 10.9429C4.2658 10.9074 4.3503 10.8829 4.4393 10.8734L4.4428 10.8729C4.3603 10.6654 4.2803 10.4604 4.2128 10.2529C4.1768 10.1574 4.14331 10.0409 4.1183 9.92143L4.1153 9.90543C4.1153 9.85543 4.0853 9.83293 4.0403 9.83043C4.0393 9.83043 4.0378 9.83043 4.0363 9.83043C3.9873 9.83043 3.9463 9.79493 3.9378 9.74843C3.7438 9.12293 3.6318 8.40293 3.6318 7.65743C3.6318 7.61293 3.6323 7.56793 3.6328 7.52343V7.52993C3.6328 7.48743 3.6328 7.44243 3.6478 7.38743L3.5453 7.43243C3.5298 7.38343 3.5208 7.32743 3.5208 7.26943C3.5208 7.23893 3.5233 7.20843 3.5278 7.17943L3.5273 7.18243C3.5823 6.47693 3.7023 5.82443 3.8818 5.19743L3.8648 5.26743C3.9173 5.07743 3.9973 4.93743 4.1923 4.89743C4.2443 4.88343 4.2898 4.85943 4.3278 4.82693L3.9723 4.79993C3.7748 4.78243 3.5748 4.76993 3.3773 4.74993C3.3708 4.74893 3.3633 4.74843 3.3558 4.74843C3.3118 4.74843 3.2723 4.76743 3.2448 4.79743C2.8998 5.10743 2.5748 5.40743 2.2498 5.69993C2.1598 5.77443 2.0948 5.87693 2.0678 5.99393L2.0673 5.99743C2.0533 6.04843 2.0243 6.09143 1.9853 6.12193C1.8448 6.26693 1.6568 6.36643 1.4468 6.39443L1.4423 6.39493C1.4223 6.39943 1.3998 6.40193 1.3763 6.40193C1.3303 6.40193 1.2868 6.39193 1.2478 6.37393L1.2498 6.37493C1.1873 6.33743 1.1848 6.29243 1.2498 6.24743L1.4573 6.08493L1.5398 6.01743C1.4898 5.98243 1.4673 6.01743 1.4448 6.01743C1.3853 6.04443 1.3163 6.06443 1.2438 6.07443L1.2398 6.07493C1.2373 6.07543 1.2348 6.07543 1.2318 6.07543C1.2013 6.07543 1.1758 6.05243 1.1723 6.02293C1.1688 6.01493 1.1668 6.00543 1.1668 5.99593C1.1668 5.96793 1.1833 5.94393 1.2068 5.93293L1.2998 5.89293C1.4273 5.84743 1.5318 5.76443 1.6033 5.65743L1.6048 5.65543C1.6633 5.55993 1.7613 5.49393 1.8758 5.48043H1.8773C1.9173 5.48043 1.9298 5.44793 1.9473 5.42293C2.2748 4.98293 2.6048 4.54043 2.9473 4.12293C3.0108 4.03693 3.1118 3.98193 3.2253 3.98193C3.2338 3.98193 3.2423 3.98243 3.2508 3.98293C3.3108 3.98293 3.3348 3.96793 3.3373 3.91043C3.3398 3.85293 3.3798 3.83793 3.4273 3.83543C3.7073 3.80143 4.0313 3.78193 4.3603 3.78193C4.5398 3.78193 4.7173 3.78793 4.8938 3.79893L4.8698 3.79793C5.0308 3.80793 5.1808 3.83343 5.3248 3.87393L5.3098 3.87043C5.3698 3.89043 5.3923 3.88793 5.3923 3.81293C5.3923 3.81243 5.3923 3.81343 5.3923 3.81293C5.3923 3.67693 5.4173 3.54543 5.4623 3.42543L5.4598 3.43293C5.5448 3.13393 5.8158 2.91843 6.1368 2.91843C6.1873 2.91843 6.2368 2.92393 6.2843 2.93393L6.2798 2.93293C6.5503 2.99043 6.7758 3.15143 6.9173 3.37143L6.9198 3.37543C6.9728 3.44393 7.0043 3.53043 7.0043 3.62493C7.0043 3.68693 6.9908 3.74543 6.9663 3.79793L6.9673 3.79543C6.9308 3.88393 6.9098 3.98693 6.9098 4.09493C6.9098 4.14993 6.9153 4.20343 6.9258 4.25543L6.9248 4.25043C6.9398 4.36293 6.9523 4.46543 6.8298 4.52543C6.8048 4.53793 6.7898 4.57293 6.7723 4.60043C6.7283 4.67693 6.6843 4.76743 6.6473 4.86093L6.6423 4.87543C6.5823 5.02043 6.5823 5.02043 6.4273 5.00793L6.1998 4.99043C6.1948 4.98893 6.1893 4.98793 6.1833 4.98793C6.1558 4.98793 6.1333 5.00693 6.1273 5.03243C5.8998 5.50893 5.7078 6.06543 5.5793 6.64543L5.5698 6.69793C5.5498 6.80793 5.5498 6.80543 5.6573 6.82293L7.3823 7.07293C7.4188 7.07293 7.4483 7.10193 7.4498 7.13793C7.4513 7.18643 7.4908 7.22543 7.5398 7.22543C7.9443 7.28693 8.3083 7.40043 8.6463 7.56043L8.6223 7.55043C8.6663 7.56693 8.7168 7.57643 8.7703 7.57643C8.7808 7.57643 8.7913 7.57593 8.8013 7.57543H8.7998C8.8243 7.57393 8.8523 7.57293 8.8808 7.57293C9.0123 7.57293 9.1393 7.59193 9.2588 7.62793L9.2493 7.62543C9.2493 7.62543 9.2743 7.62543 9.2793 7.62543C9.3493 7.55043 9.4168 7.61043 9.4793 7.62543C9.8593 7.76043 10.2293 7.94543 10.5868 8.10793C11.1748 8.37493 11.8603 8.53593 12.5823 8.54793H12.5868C12.6838 8.54793 12.7793 8.55343 12.8733 8.56393L12.8618 8.56293C12.9168 8.57143 12.9623 8.60393 12.9888 8.64943L12.9893 8.65043C13.0023 8.66593 13.0108 8.68643 13.0108 8.70843C13.0108 8.74693 12.9868 8.77993 12.9528 8.79243L12.9498 8.78793ZM13.9873 8.28793C13.9738 8.28843 13.9583 8.28893 13.9423 8.28893C13.4453 8.28893 13.0423 7.88593 13.0423 7.38893C13.0423 6.89193 13.4453 6.48893 13.9423 6.48893C14.4393 6.48893 14.8423 6.89193 14.8423 7.38893C14.8423 7.38943 14.8423 7.38993 14.8423 7.39043C14.8428 7.40043 14.8428 7.41193 14.8428 7.42343C14.8428 7.89543 14.4688 8.28043 14.0013 8.29793H13.9998L13.9873 8.28793Z" fill="black"/>
</svg>
