<svg width="16" height="17" viewBox="0 0 16 17" fill="none" xmlns="http://www.w3.org/2000/svg">
<g clip-path="url(#clip0_6_392)">
<path d="M5.87731 4.09891C6.35481 3.81791 6.66981 3.30641 6.66981 2.72141C6.66981 1.84141 5.95631 1.12791 5.07631 1.12791C4.19631 1.12791 3.48281 1.84141 3.48281 2.72141C3.48281 3.01491 3.56231 3.29041 3.70081 3.52641L3.69681 3.51891C3.97731 3.99791 4.48981 4.31491 5.07631 4.31491C5.37131 4.31491 5.64731 4.23491 5.88431 4.09491L5.87731 4.09891Z" fill="black"/>
<path d="M10.0438 11.5124L12.4638 12.1789L13.1503 11.7854L15.9903 10.1454L15.0968 8.59191L10.0438 11.5124Z" fill="black"/>
<path d="M9.39031 12.3789L6.09031 11.4589L6.65681 9.71241C6.79281 9.22391 7.23381 8.87141 7.75681 8.87141C7.77331 8.87141 7.78931 8.87191 7.80581 8.87241H7.80331C7.48231 9.19541 7.28331 9.64041 7.28331 10.1324C7.28331 10.3704 7.32981 10.5969 7.41381 10.8044L7.40931 10.7924L9.82931 11.4589L9.06281 10.1254L10.6563 9.23891C11.1998 8.92391 11.5593 8.34491 11.5593 7.68191C11.5593 7.35441 11.4718 7.04741 11.3183 6.78341L11.3228 6.79191L10.2093 4.93191C11.9428 4.31541 13.1618 2.68941 13.1628 0.778906V0.378906H11.4963V0.778906C11.4928 2.18791 10.4208 3.34541 9.04781 3.48441L9.03631 3.48541C8.80981 3.37241 8.54281 3.30641 8.26031 3.30641C7.93781 3.30641 7.63531 3.39241 7.37431 3.54291L7.38281 3.53841L7.32281 3.57841C6.83531 3.86141 6.50181 4.36341 6.45631 4.94591L6.45581 4.95191L6.26231 5.04541C5.63281 5.41091 4.87731 5.62641 4.07181 5.62641C3.38781 5.62641 2.74031 5.47091 2.16231 5.19391L2.18881 5.20541L1.47531 6.72541C2.23481 7.09141 3.12731 7.30491 4.06931 7.30491C5.15031 7.30491 6.16581 7.02341 7.04631 6.52941L7.01581 6.54541L7.40231 7.21191C6.28831 7.36141 5.39181 8.15041 5.08731 9.19241L5.08231 9.21191L4.48231 11.0454L2.65581 10.5119C2.15181 10.3699 1.78881 9.91441 1.78881 9.37441C1.78881 9.25741 1.80581 9.14391 1.83781 9.03691L1.83581 9.04541L0.115812 8.59191C0.0473125 8.82941 0.0078125 9.10241 0.0078125 9.38441C0.0078125 10.7399 0.918813 11.8824 2.16181 12.2334L2.18281 12.2384L3.10931 12.4919L3.52931 12.6054L6.65581 13.4719L8.92231 14.0919L9.07581 14.1384L10.2823 14.4719L13.4423 15.3384L13.9158 13.6184L9.38931 12.3784L9.39031 12.3789Z" fill="black"/>
<path d="M4.98381 14.4319C4.81531 14.5319 4.61231 14.5909 4.39581 14.5909C3.96531 14.5909 3.58931 14.3579 3.38681 14.0109L3.38381 14.0054L1.83731 14.8989C2.35731 15.7889 3.30781 16.3774 4.39581 16.3774C4.94131 16.3774 5.45231 16.2294 5.89081 15.9714L5.87681 15.9789L7.09031 15.2854L7.85681 14.8389L5.43681 14.1724L4.98381 14.4319Z" fill="black"/>
</g>
<defs>
<clipPath id="clip0_6_392">
<rect width="16" height="16" fill="white" transform="translate(0 0.37793)"/>
</clipPath>
</defs>
</svg>
