<svg width="16" height="16" viewBox="0 0 16 16" fill="none" xmlns="http://www.w3.org/2000/svg">
<path d="M4.20669 5.51998C4.23319 5.33348 4.26669 5.09348 4.19319 4.79348H4.21969C4.04619 4.05998 3.42619 3.59348 3.01319 3.34698C3.01319 3.34698 2.92669 3.26698 2.93319 3.17348C2.93969 3.09348 2.99969 3.03998 3.01319 3.03348C3.31969 2.85348 3.66669 2.60698 4.02669 2.28698C4.34019 2.01348 4.58669 1.74698 4.78669 1.50048C5.00669 1.63398 5.66019 1.98048 6.54669 1.90048C7.30019 1.83398 7.82019 1.49398 8.03319 1.33398C8.23969 1.48748 8.76669 1.83398 9.51969 1.90048C10.3997 1.98048 11.0597 1.63398 11.2797 1.50048C11.4797 1.74698 11.7262 2.01398 12.0397 2.28698C12.3932 2.60698 12.7462 2.85348 13.0532 3.03348C13.0667 3.03998 13.1267 3.09348 13.1332 3.17348C13.1397 3.27348 13.0532 3.34698 13.0532 3.34698C12.6397 3.59348 12.0197 4.06048 11.8467 4.79348C11.7802 5.08698 11.8067 5.31998 11.8332 5.50698C11.9467 6.36048 12.1132 6.82048 12.2532 7.18048C12.3397 7.41398 12.4132 7.60698 12.4467 7.83398C12.4667 8.00748 12.5267 8.52748 12.2932 9.09398C11.9532 9.90048 11.2267 10.2805 11.0067 10.3875C10.6267 10.581 10.3532 10.614 10.0802 10.654C9.82019 10.6875 9.55369 10.7275 9.20669 10.894C8.62669 11.1675 8.26019 11.6005 8.03319 11.9205C7.80669 11.6005 7.43969 11.174 6.85969 10.894C6.50619 10.7205 6.24619 10.6875 5.97969 10.654C5.70619 10.614 5.43319 10.5805 5.05319 10.3875C4.82669 10.2675 4.09969 9.89398 3.76669 9.09398C3.52669 8.52748 3.59319 8.00048 3.61319 7.83398C3.64669 7.60748 3.71319 7.41398 3.80669 7.18048C3.94019 6.82048 4.11319 6.36048 4.22669 5.51398L4.20669 5.51998ZM8.00669 3.19348L6.73319 5.40698H6.73969V7.75348L9.27969 9.35349V5.46698L8.00669 3.19348ZM2.03369 9.63348L3.15369 9.09348C3.30719 9.37998 3.49369 9.73348 3.73369 10.0335L2.80719 10.8535L2.73369 10.767C2.42719 10.3935 2.20019 9.95348 2.03369 9.64048V9.63348ZM11.5537 10.6135C11.1802 10.847 10.8672 10.8935 10.5137 10.9535C10.5137 10.9535 10.4537 10.967 10.4202 10.967C9.98019 11.0405 9.46669 11.127 8.92669 11.5605C8.56669 11.847 8.19319 12.174 8.00019 12.6005C7.93369 12.234 7.52669 11.9205 7.18669 11.6605C7.12669 11.614 7.06669 11.567 7.01319 11.5205C6.47319 11.087 5.96669 11.0005 5.51969 10.927C5.48619 10.927 5.45969 10.9135 5.42619 10.9135C5.07269 10.8535 4.75969 10.8 4.38619 10.5735C4.21969 10.4735 4.12619 10.407 3.97969 10.247L3.03319 11.1005C3.27319 11.3605 3.46669 11.507 3.74669 11.674C4.36669 12.0475 4.90019 12.1475 5.32019 12.214C5.70669 12.2805 5.92669 12.3605 6.26669 12.554C6.94669 12.954 7.69319 13.7875 7.97319 14.574C7.97319 14.6005 7.98669 14.6275 7.99319 14.6475V14.661C7.99319 14.661 7.99319 14.6475 8.00669 14.641C8.00669 14.641 8.00669 14.6545 8.01319 14.661V14.6275C8.28669 13.821 9.04669 12.961 9.74669 12.5675C10.0802 12.374 10.3132 12.294 10.6932 12.2275H10.7132C11.1332 12.154 11.6532 12.061 12.2667 11.6875C12.5467 11.514 12.7467 11.3675 12.9802 11.114L11.9667 10.3005C11.8202 10.4605 11.7267 10.527 11.5602 10.627V10.6135H11.5537ZM12.7402 9.14648C12.7402 9.14648 12.7602 9.10648 12.7667 9.09298L13.9667 9.62648C13.8002 9.94648 13.5667 10.38 13.2667 10.753L13.1932 10.8395L12.1867 10.0195C12.4202 9.73298 12.5932 9.41298 12.7332 9.13948L12.7402 9.14648Z" fill="black"/>
</svg>
