<svg width="16" height="17" viewBox="0 0 16 17" fill="none" xmlns="http://www.w3.org/2000/svg">
<g clip-path="url(#clip0_6_388)">
<path d="M12.4899 1.75793C11.9279 1.37143 11.2814 1.04593 10.5919 0.81393L10.5369 0.79793C10.4419 2.19193 10.2049 3.49043 9.83788 4.73293L9.87038 4.60493H11.7369C12.2119 3.84793 12.4934 2.92743 12.4934 1.94143C12.4934 1.87693 12.4924 1.81293 12.4899 1.74893V1.75793Z" fill="black"/>
<path d="M9.46988 10.7914H11.6899C11.9384 10.1534 12.0824 9.41493 12.0824 8.64243C12.0824 8.54943 12.0804 8.45693 12.0764 8.36493L12.0769 8.37793C12.0769 8.35693 12.0774 8.33243 12.0774 8.30743C12.0774 7.46093 11.9209 6.65093 11.6349 5.90543L11.6504 5.95143H4.31688C4.06238 6.62943 3.91538 7.41243 3.91538 8.23043C3.91538 8.28243 3.91588 8.33393 3.91738 8.38593V8.37843C3.91388 8.45843 3.91138 8.55193 3.91138 8.64643C3.91138 9.42193 4.05538 10.1639 4.31788 10.8474L4.30388 10.8054H9.47038L9.46988 10.7914Z" fill="black"/>
<path d="M6.07688 12.1244H4.23688C3.80638 12.8344 3.55188 13.6924 3.55188 14.6104C3.55188 14.7584 3.55838 14.9054 3.57138 15.0499L3.56988 15.0314C4.11688 15.4019 4.74538 15.7159 5.41438 15.9419L5.46988 15.9579C5.52638 14.5709 5.74438 13.2589 6.10538 12.0074L6.07688 12.1244Z" fill="black"/>
<path d="M4.22988 4.60443H6.09638C5.76188 3.48993 5.52488 2.19193 5.43288 0.85393L5.42988 0.79793C4.69488 1.04843 4.05788 1.37343 3.47688 1.77493L3.50288 1.75793C3.49988 1.82493 3.49788 1.90293 3.49788 1.98193C3.49788 2.95143 3.76988 3.85693 4.24188 4.62693L4.22988 4.60443Z" fill="black"/>
<path d="M11.7569 12.1244H9.91688C10.2529 13.2574 10.4754 14.5689 10.5359 15.9224L10.5374 15.9579C11.2619 15.7199 11.8909 15.4104 12.4659 15.0264L12.4374 15.0444C12.4484 14.9214 12.4549 14.7789 12.4549 14.6344C12.4549 13.7069 12.1954 12.8404 11.7454 12.1029L11.7569 12.1244Z" fill="black"/>
<path d="M8.52988 12.1244H7.46338C7.06988 13.3609 6.82838 14.7854 6.79688 16.2614L6.79638 16.2779C7.15488 16.3379 7.56988 16.3744 7.99288 16.3779H7.99638C8.42688 16.3749 8.84688 16.3389 9.25638 16.2714L9.20988 16.2779C9.17338 14.7834 8.92738 13.3599 8.50038 12.0169L8.52988 12.1244Z" fill="black"/>
<path d="M13.7634 2.84443C13.6804 3.79793 13.3584 4.66293 12.8584 5.39593L12.8704 5.37743C13.2124 6.24293 13.4109 7.24593 13.4109 8.29493C13.4109 8.32393 13.4109 8.35293 13.4104 8.38143V8.37693C13.4144 8.46793 13.4169 8.57443 13.4169 8.68143C13.4169 9.66543 13.2184 10.6034 12.8594 11.4574L12.8769 11.4104C13.3334 12.1419 13.6369 13.0129 13.7219 13.9474L13.7234 13.9704C15.1279 12.5304 15.9944 10.5594 15.9944 8.38643C15.9944 6.23343 15.1439 4.27943 13.7609 2.84093L13.7634 2.84443Z" fill="black"/>
<path d="M3.11688 11.3979C2.77588 10.5919 2.57738 9.65443 2.57738 8.67043C2.57738 8.56743 2.57938 8.46543 2.58388 8.36343L2.58338 8.37793C2.58288 8.35343 2.58288 8.32443 2.58288 8.29543C2.58288 7.24643 2.78138 6.24343 3.14238 5.32243L3.12338 5.37793C2.63488 4.66293 2.31288 3.79843 2.23138 2.86443L2.22988 2.84443C0.852883 4.27893 0.00488281 6.23093 0.00488281 8.38043C0.00488281 10.5504 0.868883 12.5184 2.27138 13.9594L2.26988 13.9574C2.35638 12.9999 2.65988 12.1289 3.13088 11.3724L3.11688 11.3979Z" fill="black"/>
<path d="M7.47688 4.60443H8.51688C8.88638 3.38193 9.12638 1.96943 9.18238 0.50993L9.18338 0.47793C8.82938 0.41843 8.41888 0.38243 8.00088 0.37793H7.99638C7.56588 0.38093 7.14588 0.41693 6.73638 0.48443L6.78288 0.47793C6.84988 1.97343 7.09838 3.38443 7.50788 4.72543L7.47688 4.60443Z" fill="black"/>
</g>
<defs>
<clipPath id="clip0_6_388">
<rect width="16" height="16" fill="white" transform="translate(0 0.37793)"/>
</clipPath>
</defs>
</svg>
