<svg width="16" height="16" viewBox="0 0 16 16" fill="none" xmlns="http://www.w3.org/2000/svg">
<g clip-path="url(#clip0_6_333)">
<path d="M10.7336 13.0267L5.0871 11.1402C4.8221 11.0477 4.6356 10.8002 4.6356 10.5092C4.6356 10.4367 4.6471 10.3672 4.6686 10.3022L4.6671 10.3067L6.7336 4.12023L6.5801 3.80673C6.4671 3.59023 6.2441 3.44523 5.9871 3.44523C5.8801 3.44523 5.7791 3.47023 5.6896 3.51523L5.6936 3.51373L0.360104 6.18023C0.148104 6.29473 0.00610352 6.51523 0.00610352 6.76923C0.00610352 6.87023 0.0286035 6.96573 0.0686035 7.05123L0.0671035 7.04723L4.3471 15.6337C4.4591 15.8532 4.6836 16.0007 4.9426 16.0007C5.0486 16.0007 5.1486 15.9762 5.2376 15.9322L5.2336 15.9337L10.5671 13.2672C10.6736 13.2117 10.7596 13.1297 10.8186 13.0302L10.8201 13.0272L10.7336 13.0267Z" fill="black"/>
<path d="M15.5201 2.00023L9.8736 0.126727C9.8126 0.106227 9.7421 0.0947266 9.6691 0.0947266C9.3801 0.0947266 9.1341 0.278727 9.0416 0.535727L6.0001 9.64023C5.9801 9.70073 5.9686 9.77023 5.9686 9.84273C5.9686 10.1337 6.1551 10.3812 6.4156 10.4722L12.0666 12.3602C12.1276 12.3807 12.1981 12.3922 12.2711 12.3922C12.5601 12.3922 12.8061 12.2082 12.8986 11.9512L15.9401 2.84673C15.9626 2.78273 15.9756 2.70923 15.9756 2.63223C15.9756 2.33973 15.7871 2.09123 15.5251 2.00123L15.5201 2.00023ZM11.5601 5.16673C11.4686 5.40323 11.3226 5.60073 11.1361 5.75123L11.1336 5.75323C10.8671 5.97973 10.2671 6.37323 9.9136 6.61973L10.7936 6.93323C10.8326 6.94973 10.8596 6.98773 10.8596 7.03173C10.8596 7.04423 10.8576 7.05623 10.8536 7.06723L10.6936 7.51273C10.6781 7.55373 10.6391 7.58273 10.5936 7.58273C10.5841 7.58273 10.5751 7.58173 10.5666 7.57923H10.5676L8.5676 6.85923C8.5291 6.84473 8.5021 6.80823 8.5021 6.76523C8.5021 6.75323 8.5041 6.74223 8.5081 6.73173V6.62573C8.9416 6.35223 10.0416 5.60573 10.5081 5.29223C10.6246 5.20773 10.7161 5.09523 10.7726 4.96423L10.7746 4.95923C10.7841 4.92623 10.7891 4.88823 10.7891 4.84923C10.7891 4.64973 10.6501 4.48273 10.4641 4.43973L10.4611 4.43923C10.4031 4.42323 10.3361 4.41423 10.2671 4.41423C10.1246 4.41423 9.9916 4.45323 9.8776 4.52123L9.8811 4.51923C9.8686 4.52473 9.8536 4.52823 9.8381 4.52823C9.7951 4.52823 9.7581 4.50273 9.7411 4.46673L9.5606 3.99973C9.5536 3.98623 9.5496 3.97073 9.5496 3.95373C9.5496 3.91623 9.5701 3.88373 9.6001 3.86673C9.8161 3.74423 10.0751 3.67173 10.3501 3.67173C10.5036 3.67173 10.6516 3.69423 10.7916 3.73573L10.7806 3.73273C11.2681 3.84973 11.6246 4.28173 11.6246 4.79723C11.6246 4.92973 11.6011 5.05623 11.5581 5.17373L11.5601 5.16673ZM12.4001 8.12673C12.3876 8.16473 12.3526 8.19223 12.3111 8.19223C12.3001 8.19223 12.2891 8.19023 12.2796 8.18673L11.7201 7.98673C11.6806 7.97523 11.6526 7.93923 11.6526 7.89723C11.6526 7.88373 11.6556 7.87123 11.6606 7.85973L12.4671 5.60023L12.0006 5.42673C11.9581 5.41723 11.9271 5.38023 11.9271 5.33573C11.9271 5.33473 11.9271 5.33423 11.9271 5.33323L12.0406 5.01973C12.0526 4.99273 12.0711 4.97023 12.0936 4.95323L13.0341 4.63923L13.4941 4.80573C13.5326 4.82023 13.5596 4.85673 13.5596 4.89973C13.5596 4.91173 13.5576 4.92273 13.5536 4.93323L12.4001 8.12673Z" fill="black"/>
</g>
<defs>
<clipPath id="clip0_6_333">
<rect width="16" height="16" fill="white"/>
</clipPath>
</defs>
</svg>
