<svg width="16" height="17" viewBox="0 0 16 17" fill="none" xmlns="http://www.w3.org/2000/svg">
<g clip-path="url(#clip0_6_465)">
<path d="M7.9922 0.377453C6.8462 0.379953 5.7577 0.624953 4.7752 1.06445L4.8257 1.04445V2.14445L5.3257 2.64445C6.1137 2.26745 7.0387 2.04695 8.0152 2.04695C11.5242 2.04695 14.3687 4.89145 14.3687 8.40045C14.3687 11.9095 11.5242 14.754 8.0152 14.754C4.5062 14.754 1.6617 11.9095 1.6617 8.40045C1.6617 7.42395 1.8822 6.49895 2.2757 5.67245L2.2592 5.71095L1.7592 5.21745H0.659199C0.248199 6.14895 0.00869918 7.23545 0.00869918 8.37745C0.00869918 12.796 3.5902 16.3775 8.0087 16.3775C12.4272 16.3775 16.0087 12.796 16.0087 8.37745C16.0087 3.95895 12.4272 0.377453 8.0087 0.377453C8.0032 0.377453 7.9977 0.377453 7.9922 0.377453Z" fill="black"/>
<path d="M2.3122 3.87745L2.9787 4.54395L6.6587 8.23745C6.6572 8.25845 6.6562 8.28295 6.6562 8.30745C6.6562 8.33195 6.6572 8.35645 6.6587 8.38045V8.37745C6.6587 9.11395 7.2557 9.71095 7.9922 9.71095C8.7287 9.71095 9.3257 9.11395 9.3257 8.37745C9.3257 7.64095 8.7287 7.04395 7.9922 7.04395H7.8522L3.4787 2.69045V0.376953H1.8252V2.21045H-0.00830078V3.87695L2.3122 3.87745Z" fill="black"/>
<path d="M7.9922 11.3775C6.3637 11.3745 5.0397 10.074 4.9987 8.45445V8.45045L3.5387 6.98395C3.4032 7.39695 3.3252 7.87195 3.3252 8.36545C3.3252 8.36945 3.3252 8.37395 3.3252 8.37795C3.3252 10.9555 5.4147 13.044 7.9917 13.044C10.5687 13.044 12.6582 10.9545 12.6582 8.37745C12.6582 5.79995 10.5687 3.71095 7.9917 3.71095C7.9882 3.71095 7.9842 3.71095 7.9797 3.71095C7.4862 3.71095 7.0112 3.78895 6.5657 3.93345L6.5982 3.92445L8.0647 5.38445C9.7057 5.40495 11.0282 6.74045 11.0282 8.38445C11.0282 10.0415 9.6852 11.3845 8.0282 11.3845C8.0152 11.3845 8.0022 11.3845 7.9897 11.3845H7.9917L7.9922 11.3775Z" fill="black"/>
</g>
<defs>
<clipPath id="clip0_6_465">
<rect width="16" height="16" fill="white" transform="translate(0 0.37793)"/>
</clipPath>
</defs>
</svg>
