<svg width="17" height="16" viewBox="0 0 17 16" fill="none" xmlns="http://www.w3.org/2000/svg">
<g clip-path="url(#clip0_6_322)">
<path d="M9.125 13.7125C10.551 13.5285 11.7745 12.7825 12.5855 11.708L12.595 11.695L11.55 11C10.8365 11.912 9.736 12.4925 8.5 12.4925C7.264 12.4925 6.1635 11.912 5.4565 11.0085L5.45 11L4.405 11.6875C5.224 12.778 6.4475 13.5265 7.849 13.7095L7.875 13.7125V14.75H2.5V16H14.75V14.75H9.125V13.7125Z" fill="black"/>
<path d="M12.25 3.74998C12.2495 1.67948 10.571 0.000976562 8.5 0.000976562C7.2245 0.000976562 6.098 0.637477 5.4205 1.61048L5.4125 1.62298L12.25 6.00048V3.74998Z" fill="black"/>
<path d="M1.25 0.532477L0.5 1.71998L4.75 4.44248V7.49998C4.7595 9.56398 6.435 11.2335 8.5 11.2335C10.0095 11.2335 11.311 10.3415 11.9055 9.05598L11.915 9.03298L15.75 11.483L16.5 10.2955L1.25 0.532477Z" fill="black"/>
</g>
<defs>
<clipPath id="clip0_6_322">
<rect width="16" height="16" fill="white" transform="translate(0.5)"/>
</clipPath>
</defs>
</svg>
