<svg width="16" height="17" viewBox="0 0 16 17" fill="none" xmlns="http://www.w3.org/2000/svg">
<g clip-path="url(#clip0_6_549)">
<path d="M4.84751 16.3778C4.81151 16.3638 4.76951 16.3548 4.72601 16.3528C4.00101 16.2278 3.50001 15.7628 3.50001 15.2078V1.62784C3.50001 1.61984 3.49951 1.60984 3.49951 1.60034C3.49951 1.30484 3.62751 1.03934 3.83151 0.856344L3.83251 0.855344C4.10001 0.615344 4.44501 0.457344 4.82601 0.423344L4.83251 0.422844C4.84501 0.422844 4.86251 0.422844 4.87001 0.422844H5.79751C5.80601 0.425344 5.81501 0.426844 5.82501 0.426844C5.83501 0.426844 5.84451 0.425344 5.85301 0.422844H8.05751C7.76051 0.568844 7.55951 0.868344 7.55751 1.21534C7.55551 1.24484 7.54151 1.27034 7.52001 1.28784C7.42451 1.37884 7.36501 1.50734 7.36501 1.64984C7.36501 1.66684 7.36601 1.68384 7.36751 1.70034V1.69834C7.36751 1.70134 7.36751 1.70484 7.36751 1.70784C7.36751 1.79934 7.41401 1.87984 7.48401 1.92734L7.48501 1.92784C7.50001 1.92784 7.50251 1.95034 7.48501 1.96034C7.45251 2.07284 7.45001 2.19034 7.41501 2.30284C7.36251 2.44884 7.23451 2.55584 7.07951 2.57784H7.07751C6.85451 2.62434 6.59851 2.65134 6.33601 2.65134C6.30601 2.65134 6.27551 2.65084 6.24551 2.65034H6.25001H6.16001C6.14051 2.64884 6.11801 2.64834 6.09501 2.64834C5.89401 2.64834 5.70651 2.70584 5.54801 2.80534L5.55251 2.80284C5.34451 2.93134 5.16351 3.06934 4.99751 3.22234L5.00001 3.22034C4.95401 3.26984 4.91601 3.32784 4.88901 3.39134L4.88751 3.39534C4.63751 3.81534 4.38751 4.23534 4.13751 4.64534C4.02251 4.83284 3.88751 5.01534 3.79001 5.20534C3.70901 5.32834 3.64651 5.47234 3.61151 5.62684L3.61001 5.63534C3.59901 5.68284 3.59251 5.73734 3.59251 5.79384C3.59251 5.91884 3.62401 6.03634 3.67951 6.13934L3.67751 6.13534C3.77151 6.27534 3.92951 6.36584 4.10801 6.36584C4.11651 6.36584 4.12501 6.36584 4.13351 6.36534C4.22101 6.36534 4.31001 6.36534 4.40001 6.36534C4.49001 6.36534 4.46501 6.38534 4.44501 6.42534C4.37001 6.56784 4.30501 6.71284 4.24251 6.85784C4.14251 7.08334 4.07101 7.34484 4.04101 7.61834L4.04001 7.63034C4.04001 7.63834 4.03951 7.64734 4.03951 7.65684C4.03951 7.86034 4.09651 8.05084 4.19501 8.21284L4.19251 8.20834C4.34751 8.51334 4.56001 8.79584 4.74751 9.08834C4.81901 9.19334 4.89251 9.31684 4.95951 9.44434L4.97001 9.46584C4.98751 9.50334 5.01001 9.51834 5.06501 9.51834C5.19501 9.51834 5.31501 9.51834 5.45751 9.51834C5.46051 9.51784 5.46401 9.51784 5.46801 9.51784C5.49751 9.51784 5.52351 9.53384 5.53751 9.55834C5.74451 9.88234 5.96351 10.1648 6.20601 10.4248L6.20251 10.4213C6.33501 10.5663 6.47751 10.7088 6.62501 10.8463C6.94751 11.1463 7.32501 11.4063 7.67251 11.6913C8.14801 12.0718 8.67951 12.4393 9.23601 12.7688L9.30001 12.8038C9.40751 12.8713 9.51251 12.9413 9.62251 13.0038C9.67051 13.0303 9.70451 13.0758 9.71501 13.1303V13.1313C9.77551 13.4523 9.89151 13.7378 10.0535 13.9908L10.0475 13.9813C10.0885 14.0483 10.131 14.1063 10.1785 14.1603L10.1775 14.1588C10.25 14.2378 10.3 14.3388 10.317 14.4508L10.3175 14.4538C10.3525 14.6238 10.3925 14.7913 10.4375 14.9538C10.4435 14.9808 10.447 15.0118 10.447 15.0438C10.447 15.0758 10.4435 15.1068 10.437 15.1368L10.4375 15.1338C10.4225 15.2088 10.4175 15.2863 10.4075 15.3613C10.38 15.4868 10.364 15.6308 10.364 15.7788C10.364 15.8343 10.366 15.8893 10.3705 15.9433L10.37 15.9363C10.3875 16.0943 10.4335 16.2383 10.503 16.3673L10.5 16.3613C10.48 16.3763 10.46 16.3613 10.44 16.3613H8.55001C8.53851 16.3588 8.52501 16.3573 8.51101 16.3573C8.49701 16.3573 8.48401 16.3588 8.47101 16.3613H8.47251L4.84751 16.3778ZM5.09751 14.3503L5.11501 14.3778C5.27251 14.7478 5.43251 15.1278 5.59251 15.4903C5.60501 15.5203 5.61751 15.5328 5.66251 15.5303H6.25001C6.29251 15.5303 6.31251 15.5303 6.31251 15.4903C6.31251 14.8478 6.31251 14.2078 6.31251 13.5653C6.31251 13.5353 6.31251 13.5253 6.25751 13.5253C6.09251 13.5253 5.93001 13.5253 5.75751 13.5253C5.70001 13.5253 5.68251 13.5378 5.68501 13.5803C5.68501 13.9378 5.68501 14.2953 5.68501 14.6528V14.7128C5.67051 14.6983 5.65851 14.6808 5.65051 14.6613L5.65001 14.6603L5.20001 13.5728C5.20001 13.5478 5.18501 13.5228 5.13001 13.5228C4.93751 13.5228 4.74751 13.5228 4.55501 13.5228C4.51001 13.5228 4.50001 13.5228 4.50001 13.5628V15.4878C4.50001 15.5253 4.51751 15.5278 4.56001 15.5278C4.71251 15.5278 4.86501 15.5278 5.01751 15.5278C5.08001 15.5278 5.09251 15.5128 5.09251 15.4703C5.09001 15.1003 5.09001 14.7253 5.09001 14.3503H5.09751ZM7.63001 14.4828C7.69151 14.4713 7.74551 14.4428 7.78751 14.4028C7.86401 14.3323 7.91701 14.2373 7.93451 14.1308L7.93501 14.1278C7.99001 13.8303 7.79001 13.5703 7.33251 13.5403C7.04001 13.5203 6.74251 13.5403 6.44751 13.5403C6.40751 13.5403 6.41251 13.5578 6.41251 13.5753V15.5053C6.41251 15.5353 6.41251 15.5453 6.46501 15.5453H7.36501C7.37201 15.5458 7.38051 15.5458 7.38951 15.5458C7.56551 15.5458 7.72601 15.4783 7.84551 15.3673C7.96151 15.2683 8.03401 15.1228 8.03401 14.9593C8.03401 14.8538 8.00351 14.7558 7.95101 14.6728L7.95251 14.6748C7.88851 14.5593 7.76701 14.4823 7.62801 14.4823C7.62601 14.4823 7.62401 14.4823 7.62251 14.4823L7.63001 14.4828ZM8.00001 15.5303H8.56751C8.60501 15.5303 8.62001 15.5303 8.62501 15.4928C8.64251 15.4028 8.66501 15.3128 8.68001 15.2203C8.68001 15.1853 8.70001 15.1728 8.75001 15.1753C8.85751 15.1753 8.96501 15.1753 9.07251 15.1753C9.12501 15.1753 9.14001 15.1753 9.14501 15.2253C9.14501 15.3153 9.17001 15.4053 9.18001 15.4953C9.18001 15.5278 9.20001 15.5353 9.24001 15.5328H9.74001C9.82501 15.5328 9.82501 15.5328 9.80751 15.4703C9.75001 15.2203 9.69001 14.9703 9.63001 14.7203C9.54001 14.3378 9.44751 13.9703 9.36001 13.5753C9.36001 13.5278 9.32251 13.5178 9.26501 13.5203H8.57501C8.52501 13.5203 8.50251 13.5203 8.49251 13.5678C8.46251 13.7003 8.42751 13.8328 8.39251 13.9653C8.25001 14.4903 8.12501 15.0078 8.00001 15.5303Z" fill="black"/>
<path d="M7.03001 14.9253C7.03001 14.8453 7.03001 14.7678 7.03001 14.6903C7.03001 14.6603 7.03001 14.6478 7.08001 14.6528H7.13001C7.14451 14.6488 7.16101 14.6468 7.17851 14.6468C7.24951 14.6468 7.31101 14.6853 7.34451 14.7423L7.34501 14.7433C7.37901 14.7983 7.39901 14.8653 7.39901 14.9368C7.39901 14.9888 7.38851 15.0383 7.36951 15.0833L7.37051 15.0808C7.33001 15.1668 7.24351 15.2253 7.14401 15.2253C7.11151 15.2253 7.08001 15.2188 7.05151 15.2078L7.05301 15.2083C7.02051 15.2083 7.03051 15.1833 7.03051 15.1708V14.9208L7.03001 14.9253Z" fill="black"/>
<path d="M7.03001 14.0728C7.03001 14.0128 7.03001 13.9528 7.03001 13.8903C7.03001 13.8278 7.03001 13.8478 7.08251 13.8478C7.31751 13.8478 7.43001 13.9603 7.37501 14.1503C7.33751 14.2803 7.24751 14.3253 7.06501 14.3078C7.03251 14.3078 7.03001 14.2903 7.03001 14.2728V14.0728Z" fill="black"/>
<path d="M8.91001 13.8403C8.94001 14.0078 8.96751 14.1778 8.99751 14.3403C9.02751 14.5028 9.04251 14.6303 9.07001 14.7753C9.07001 14.8128 9.07001 14.8178 9.01501 14.8178H8.79251C8.75751 14.8178 8.75001 14.8178 8.75501 14.7828C8.79751 14.5153 8.83751 14.2503 8.87751 13.9828C8.87751 13.9328 8.89501 13.8828 8.90251 13.8353L8.91001 13.8403Z" fill="black"/>
<path d="M11.125 10.6278C11.123 10.6278 11.1205 10.6278 11.118 10.6278C10.265 10.6278 9.56601 9.96984 9.50051 9.13334L9.50001 9.12784C9.46251 8.37784 9.71001 7.80534 10.375 7.46034C10.435 7.44034 10.4525 7.42034 10.4325 7.37034C10.3905 7.26484 10.3485 7.17784 10.3015 7.09384L10.3075 7.10534C10.185 6.89784 10.03 6.70284 9.89251 6.50034C9.81751 6.41284 9.75601 6.31084 9.71251 6.19984L9.71001 6.19284L9.62251 5.84284C9.54651 5.49534 9.45001 5.19384 9.32951 4.90484L9.34251 4.94034C9.31251 4.87034 9.31251 4.87284 9.23001 4.90284C8.95901 5.01234 8.72901 5.17384 8.54401 5.37634L8.54251 5.37784C8.53051 5.39034 8.52251 5.40684 8.52001 5.42484C8.49551 5.53084 8.46701 5.62184 8.43301 5.70884L8.43751 5.69534C8.37001 5.87534 8.30001 6.05534 8.23251 6.23284C8.23251 6.25534 8.21251 6.27534 8.23251 6.29534C8.39251 6.42084 8.52151 6.57784 8.61151 6.75734L8.61501 6.76534C8.78201 7.08184 8.93801 7.45534 9.06151 7.84284L9.07501 7.89284C9.08351 7.90784 9.08801 7.92584 9.08801 7.94484C9.08801 7.99434 9.05551 8.03584 9.01051 8.04984H9.00951C8.98501 8.05584 8.96701 8.07734 8.96701 8.10334C8.96701 8.11534 8.97051 8.12584 8.97701 8.13484C9.03851 8.27084 9.09901 8.43684 9.14801 8.60834L9.15451 8.63484C9.28201 9.07734 9.36201 9.52484 9.46451 9.97234C9.49051 10.1108 9.55151 10.2323 9.63751 10.3308L9.63701 10.3298C9.72251 10.4208 9.80451 10.5188 9.88051 10.6208L9.88701 10.6298C10.0475 10.8663 10.1835 11.1388 10.2825 11.4283L10.2895 11.4523C10.4345 11.8348 10.5395 12.2298 10.6445 12.6173C10.6735 12.7438 10.738 12.8518 10.8265 12.9343C10.874 12.9768 10.9195 13.0223 10.962 13.0673C11.0395 13.1458 11.087 13.2538 11.087 13.3723C11.087 13.3738 11.087 13.3758 11.087 13.3773C11.0825 13.6068 11.014 13.8198 10.899 13.9998L10.902 13.9948C10.8905 14.0113 10.8835 14.0313 10.8835 14.0533C10.8835 14.0628 10.885 14.0718 10.887 14.0803C10.9465 14.3423 11.043 14.5733 11.1725 14.7818L11.167 14.7718C11.2035 14.8248 11.2255 14.8908 11.2255 14.9618C11.2255 14.9923 11.2215 15.0213 11.214 15.0493L11.2145 15.0468C11.2115 15.0558 11.2095 15.0663 11.2095 15.0768C11.2095 15.0988 11.217 15.1188 11.2295 15.1343C11.353 15.3108 11.4265 15.5298 11.4265 15.7658C11.4265 15.9388 11.387 16.1023 11.3165 16.2483L11.3195 16.2418C11.307 16.2718 11.292 16.3018 11.2745 16.3368C11.377 16.3243 11.47 16.3013 11.5585 16.2688L11.5495 16.2718C12.1695 16.0518 12.497 15.6868 12.497 15.1768C12.4987 13.4085 12.4995 11.6418 12.4995 9.87684C12.206 10.3308 11.703 10.6268 11.13 10.6268C11.128 10.6268 11.126 10.6268 11.124 10.6268L11.125 10.6278Z" fill="black"/>
<path d="M10.28 3.73284C10.3485 3.84634 10.405 3.97784 10.4425 4.11684L10.445 4.12784C10.575 4.59784 10.6375 5.07534 10.725 5.54784C10.7375 5.67734 10.764 5.79584 10.8035 5.90884L10.8 5.89784C10.89 6.09784 11.005 6.29034 11.1125 6.48534C11.276 6.75234 11.4085 7.06084 11.4945 7.38884L11.5 7.41284C11.5 7.41284 11.5 7.41284 11.5 7.42534C11.904 7.52434 12.241 7.76334 12.464 8.08734L12.4675 8.09284C12.4745 8.05484 12.48 8.00934 12.4825 7.96334V1.59784C12.5 1.01034 12.0125 0.557844 11.25 0.425344C11.248 0.425344 11.246 0.425344 11.2435 0.425344C11.2185 0.425344 11.1955 0.416844 11.177 0.402344H10.6145C10.6145 0.402344 10.597 0.402344 10.5845 0.402344L9.89701 0.429844L9.20201 0.449844C9.18451 0.449844 9.16451 0.449844 9.15701 0.449844C9.14951 0.449844 9.15701 0.469844 9.17951 0.477344C9.20201 0.484844 9.27951 0.557344 9.32451 0.599844C9.51051 0.747844 9.62851 0.973844 9.62851 1.22734C9.62851 1.24384 9.62801 1.26034 9.62701 1.27684V1.27484C9.60451 1.43434 9.54351 1.57584 9.45301 1.69434L9.45451 1.69234C9.45451 1.70984 9.42701 1.72234 9.45451 1.74484C9.48201 1.76734 9.51951 1.83984 9.47451 1.90234C9.43851 1.94784 9.39901 1.98784 9.35601 2.02384L9.35451 2.02484C9.27101 2.08634 9.19951 2.15734 9.13901 2.23734L9.13701 2.23984C9.07201 2.35034 8.98851 2.44284 8.88951 2.51534L8.88701 2.51734C8.80951 2.57734 8.71951 2.62984 8.64951 2.69484C8.57951 2.75984 8.61201 2.76234 8.66701 2.78984C9.27301 3.07584 9.76451 3.34334 10.2405 3.63384L10.167 3.59234C10.2155 3.62834 10.254 3.67534 10.2785 3.73034L10.28 3.73284Z" fill="black"/>
</g>
<defs>
<clipPath id="clip0_6_549">
<rect width="16" height="16" fill="white" transform="translate(0 0.37793)"/>
</clipPath>
</defs>
</svg>
