<svg width="16" height="17" viewBox="0 0 16 17" fill="none" xmlns="http://www.w3.org/2000/svg">
<g clip-path="url(#clip0_6_301)">
<path d="M7.97504 11.1925L8.02754 11.2575L8.00254 11.2775L7.97254 11.195L7.97504 11.1925Z" fill="black"/>
<path d="M15.5 0.627459C15.5 0.332459 15.335 0.377459 15.1675 0.377459H8.00004C5.64254 0.377459 3.28504 0.377459 0.930039 0.377459C0.602539 0.377459 0.485039 0.414959 0.500039 0.787459C0.512539 2.62746 0.500039 4.47746 0.500039 6.32246C0.499539 6.36496 0.499039 6.41546 0.499039 6.46546C0.499039 8.74896 1.25054 10.8575 2.51904 12.5565L2.50004 12.5295C2.63504 12.712 2.60754 12.8045 2.45754 12.952C1.91504 13.4745 1.40004 14.027 0.847539 14.5395C0.625039 14.747 0.785039 14.827 0.905039 14.9345C1.02504 15.042 1.09504 15.2695 1.32504 15.0245C1.82504 14.492 2.36254 13.9945 2.86504 13.4645C3.04254 13.2795 3.11504 13.3045 3.28754 13.4795C4.47154 14.76 5.97104 15.7325 7.66304 16.2745L7.73504 16.2945C7.81454 16.3245 7.90654 16.342 8.00304 16.342C8.07604 16.342 8.14654 16.332 8.21304 16.3135L8.20754 16.315C12.1775 15.1625 15.2675 11.2875 15.4575 7.15996C15.5625 4.97996 15.475 2.79746 15.5 0.627459ZM7.25004 4.15746C7.37254 4.05246 7.40504 3.73246 7.69004 3.92996C7.87004 4.06596 8.09804 4.14796 8.34454 4.14796C8.35504 4.14796 8.36604 4.14796 8.37654 4.14746H8.37504C8.58254 4.13496 8.78004 4.07496 8.80504 3.82746C8.83004 3.57996 8.62754 3.53246 8.44504 3.48996C8.19954 3.44946 7.99354 3.40346 7.79204 3.34696L7.83504 3.35746C7.51054 3.25896 7.27854 2.96246 7.27854 2.61196C7.27854 2.59346 7.27904 2.57546 7.28054 2.55746V2.55996C7.28054 2.55546 7.28054 2.54996 7.28054 2.54496C7.28054 2.18196 7.51454 1.87346 7.84004 1.76196L7.84604 1.76046C8.00304 1.70446 8.18454 1.67196 8.37354 1.67196C8.67404 1.67196 8.95504 1.75396 9.19604 1.89746L9.18854 1.89346C9.27854 1.94096 9.40354 2.00596 9.27604 2.12346C9.14854 2.24096 9.17854 2.51346 8.92104 2.40096C8.75904 2.31146 8.56904 2.25146 8.36654 2.23396L8.36104 2.23346C8.16354 2.23346 7.97604 2.27346 7.94604 2.51096C7.91604 2.74846 8.09104 2.80346 8.26854 2.84346C8.44604 2.88346 8.63604 2.90096 8.81354 2.95096C9.19004 3.01696 9.47204 3.34146 9.47204 3.73196C9.47204 3.74746 9.47154 3.76296 9.47054 3.77796V3.77596C9.47054 3.78296 9.47104 3.79146 9.47104 3.79946C9.47104 4.19496 9.20354 4.52796 8.83904 4.62696L8.83304 4.62846C8.70904 4.66196 8.55654 4.69196 8.40104 4.71146L8.38304 4.71346C8.37654 4.71346 8.36954 4.71346 8.36204 4.71346C7.99204 4.71346 7.64604 4.60946 7.35204 4.42846L7.36054 4.43346C7.26804 4.37846 7.08054 4.30346 7.25054 4.15846L7.25004 4.15746ZM5.25004 1.71496C5.50004 1.71496 5.59254 1.76746 5.58254 2.03746C5.56004 2.60496 5.58254 3.17496 5.57004 3.73996C5.57004 3.98996 5.61504 4.12496 5.90754 4.09246C6.20004 4.05996 6.46504 4.09246 6.74254 4.09246C7.02004 4.09246 6.93754 4.25246 6.94504 4.39496C6.95254 4.53746 6.96004 4.66996 6.74254 4.66496C6.21004 4.66496 5.67504 4.66496 5.14254 4.66496C4.96004 4.66496 4.94004 4.57746 4.94004 4.42996C4.94004 4.02496 4.94004 3.61746 4.94004 3.21246C4.94004 2.80746 4.95504 2.42496 4.94004 2.02996C4.94004 1.77246 5.02754 1.71746 5.26504 1.71496H5.25004ZM6.40754 6.93496C6.09004 6.61996 5.81004 6.59496 5.50504 6.93496C5.59254 6.58746 5.75504 6.23496 5.18754 6.08996C5.60254 6.08996 5.93754 6.06246 5.93754 5.52746C6.02254 5.96246 6.22004 6.15496 6.68754 6.05246C6.30754 6.26996 6.16754 6.53246 6.42254 6.93496H6.40754ZM5.24754 7.93496C5.12754 8.04246 4.94504 8.13246 4.90254 8.26746C4.86004 8.40246 4.96504 8.56746 5.00754 8.71996C4.68754 8.40496 4.41754 8.46996 4.11504 8.76996C4.27004 8.40496 4.30004 8.09996 3.83004 7.91996C4.26754 7.97246 4.51754 7.82996 4.55004 7.37496C4.67254 7.73246 4.80754 8.02746 5.26254 7.92996L5.24754 7.93496ZM2.15754 4.66246C1.90754 4.66246 1.81754 4.60246 1.82504 4.33496C1.84504 3.56996 1.82504 2.80496 1.82504 2.03996C1.82504 1.92996 1.74504 1.73746 1.94004 1.73496C2.13504 1.73246 2.38754 1.59746 2.51504 1.89496C2.72254 2.39496 2.94504 2.86746 3.20254 3.44496C3.45254 2.89996 3.64004 2.44496 3.84504 1.97496C3.92804 1.80696 4.09804 1.69346 4.29504 1.69346C4.35804 1.69346 4.41804 1.70496 4.47354 1.72646L4.47004 1.72546C4.57504 1.76796 4.55754 1.85046 4.55754 1.92796C4.55754 2.76296 4.55754 3.59796 4.55754 4.42796C4.55754 4.70296 4.38504 4.63546 4.23254 4.64796C4.08004 4.66046 3.95754 4.62046 3.96504 4.39796C3.96954 4.29796 3.97204 4.18046 3.97204 4.06246C3.97204 3.71346 3.94954 3.36996 3.90554 3.03296L3.90954 3.07296C3.77204 3.38296 3.62454 3.69046 3.49704 4.00546C3.46404 4.14196 3.34254 4.24196 3.19804 4.24196C3.18704 4.24196 3.17654 4.24146 3.16604 4.24046H3.16754C2.98754 4.24046 2.91754 4.14546 2.87004 4.00796C2.74154 3.67146 2.59054 3.38096 2.41004 3.11196L2.42004 3.12796C2.42004 3.54296 2.42004 3.95546 2.42004 4.37796C2.43004 4.57796 2.38004 4.65746 2.15754 4.66246ZM2.46754 6.07746C2.87754 6.10496 3.16004 6.01746 3.19004 5.52996C3.27504 5.95246 3.48004 6.15746 3.94004 6.06996C3.55004 6.25496 3.46004 6.50496 3.65504 6.89996C3.33004 6.58996 3.05004 6.63746 2.75754 6.93746C2.94004 6.55246 2.90254 6.26496 2.46754 6.07746ZM14.6925 7.95996C14.0275 11.75 11.8 14.285 8.19754 15.6275C8.13954 15.6475 8.07254 15.659 8.00254 15.659C7.91104 15.659 7.82404 15.639 7.74604 15.603L7.75004 15.6045C6.17004 15.051 4.82754 14.161 3.75504 13.015L3.75004 13.0095C3.57004 12.8195 3.62254 12.727 3.78004 12.572C6.53504 9.82029 9.28921 7.06529 12.0425 4.30696L14.77 1.58196L14.855 1.61446C14.75 3.72946 15.0625 5.87746 14.6925 7.95996Z" fill="black"/>
</g>
<defs>
<clipPath id="clip0_6_301">
<rect width="16" height="16" fill="white" transform="translate(0 0.37793)"/>
</clipPath>
</defs>
</svg>
