<svg width="16" height="17" viewBox="0 0 16 17" fill="none" xmlns="http://www.w3.org/2000/svg">
<path d="M15.95 5.92832C15.7 5.62832 15.45 5.32832 15.225 5.05332C14.525 5.05332 13.825 5.05332 13.125 5.05332C13.15 5.05332 13.125 5.07832 13.125 5.07832C13.075 5.30332 13.025 5.50332 12.975 5.72832C12.9 6.00332 12.85 6.27832 12.775 6.55332C13.025 6.55332 13.275 6.55332 13.55 6.55332C13.475 6.82832 13.425 7.07832 13.35 7.35332C13.35 7.40332 13.325 7.42832 13.275 7.42832C13 7.42832 12.7 7.42832 12.425 7.42832C12.375 7.42832 12.35 7.45332 12.325 7.50332C12.225 8.00332 12.1 8.47832 12 8.95332C11.975 9.00332 12 9.02832 12.05 9.02832C12.325 9.02832 12.625 9.02832 12.9 9.02832C12.975 9.02832 12.975 9.02832 12.975 9.10332C12.9 9.37832 12.85 9.65332 12.775 9.92832C12.75 9.97832 12.725 10.0033 12.675 10.0033C12.45 10.0033 12.25 10.0033 12.025 10.0033C11.975 10.0033 11.975 10.0033 11.95 10.0533C11.85 10.5033 11.725 10.9783 11.625 11.4283C11.6 11.5033 11.625 11.5033 11.675 11.5033C12.325 11.5033 13 11.5033 13.65 11.5033C13.7 11.5033 13.725 11.4783 13.775 11.4533C14.15 11.1783 14.525 10.8783 14.9 10.6033C14.95 10.5783 14.95 10.5283 14.975 10.4783C15.075 10.0033 15.2 9.52832 15.3 9.07832C15.325 9.02832 15.3 9.00332 15.275 8.95332C15.075 8.70332 14.875 8.47832 14.675 8.22832C14.7 8.20332 14.7 8.20332 14.725 8.17832C15.025 7.92832 15.325 7.70332 15.625 7.45332C15.65 7.42832 15.675 7.40332 15.7 7.35332C15.8 6.92832 15.9 6.47832 16 6.05332C16 6.00332 15.975 5.95332 15.95 5.92832ZM2.675 9.10332C2.675 9.05332 2.7 9.02832 2.75 9.02832C3.05 9.02832 3.325 9.02832 3.625 9.02832C3.675 9.02832 3.7 9.02832 3.7 8.97832C3.8 8.47832 3.925 8.00332 4.05 7.50332C4.075 7.45332 4.05 7.42832 4 7.42832C3.7 7.42832 3.425 7.42832 3.125 7.42832C3.075 7.42832 3.05 7.42832 3.075 7.37832C3.15 7.12832 3.2 6.87832 3.25 6.62832C3.25 6.57832 3.275 6.57832 3.325 6.57832C3.5 6.57832 3.7 6.57832 3.875 6.57832C3.925 6.57832 3.95 6.57832 3.95 6.52832C4.075 6.02832 4.175 5.55332 4.3 5.05332C3.625 5.05332 2.95 5.05332 2.275 5.05332C2.1 5.20332 1.9 5.35332 1.7 5.50332C1.5 5.65332 1.3 5.80332 1.1 5.97832C1.075 6.00332 1.05 6.02832 1.025 6.07832C0.925 6.52832 0.8 6.97832 0.7 7.40332C0.7 7.45332 0.7 7.47832 0.725 7.52832C0.925 7.75332 1.1 7.97832 1.3 8.20332C1.325 8.25332 1.325 8.25332 1.3 8.30332C1 8.55332 0.7 8.77832 0.4 9.02832C0.375 9.05332 0.35 9.07832 0.35 9.12832C0.25 9.57832 0.125 10.0533 0.025 10.5033C0.025 10.5033 0.025 10.5283 0 10.5283C0 10.5533 0 10.5783 0 10.6033C0 10.6033 0.025 10.6033 0.025 10.6283C0.275 10.9033 0.5 11.2033 0.75 11.4783C0.775 11.5033 0.8 11.5283 0.85 11.5283C1.5 11.5283 2.175 11.5283 2.825 11.5283C2.875 11.5283 2.875 11.5283 2.9 11.4783C2.95 11.2783 3 11.0533 3.05 10.8533C3.125 10.5783 3.175 10.3033 3.25 10.0283C3 10.0283 2.75 10.0283 2.475 10.0283C2.55 9.67832 2.625 9.37832 2.675 9.10332ZM10.95 9.97832C10.8 9.97832 10.65 9.97832 10.475 9.97832C10.425 9.97832 10.375 9.95332 10.35 9.90332C10 9.35332 9.625 8.80332 9.275 8.25332C9.45 8.10332 10.65 7.02832 11.15 6.60332C11.175 6.57832 11.225 6.55332 11.275 6.55332C11.425 6.55332 11.6 6.55332 11.75 6.55332C11.8 6.55332 11.825 6.52832 11.825 6.50332C11.85 6.35332 11.9 6.20332 11.925 6.02832C12 5.70332 12.075 5.37832 12.15 5.05332C12.125 5.05332 12.125 5.05332 12.125 5.05332C11.5 5.05332 10.875 5.05332 10.25 5.05332C10.225 5.05332 10.2 5.05332 10.175 5.07832C9.675 5.50332 8.5 6.57832 8.3 6.72832C7.925 6.15332 7.575 5.60332 7.2 5.02832C6.55 5.02832 5.9 5.02832 5.25 5.02832C5.25 5.05332 5.25 5.07832 5.25 5.10332C5.15 5.55332 5.025 6.02832 4.925 6.47832C4.925 6.52832 4.925 6.52832 4.975 6.52832C5.125 6.52832 5.275 6.52832 5.45 6.52832C5.5 6.52832 5.525 6.55332 5.575 6.57832C5.925 7.12832 6.3 7.67832 6.65 8.22832C5.825 8.97832 5.025 9.67832 4.8 9.90332C4.775 9.92832 4.725 9.95332 4.675 9.95332C4.55 9.95332 4.425 9.95332 4.275 9.95332C4.225 9.95332 4.225 9.97832 4.2 10.0033C4.1 10.4533 3.975 10.9283 3.875 11.3783C3.85 11.4283 3.875 11.4533 3.925 11.4533C4.225 11.4533 4.5 11.4533 4.8 11.4533C5.1 11.4533 5.375 11.4533 5.675 11.4533C5.725 11.4533 5.75 11.4283 5.775 11.4033C6 11.2033 6.8 10.4783 7.625 9.75332C7.975 10.3033 8.35 10.8533 8.7 11.4033C8.725 11.4283 8.725 11.4533 8.775 11.4533C9.4 11.4533 10 11.4533 10.625 11.4533C10.675 11.4533 10.675 11.4283 10.7 11.4033C10.8 10.9283 10.925 10.4533 11.025 10.0033C11 9.97832 11 9.97832 10.95 9.97832ZM15.625 3.77832H0L0.35 2.52832H15.975L15.625 3.77832ZM15.625 14.0033H0L0.35 12.7533H15.975L15.625 14.0033Z" fill="black"/>
</svg>
