<svg width="16" height="16" viewBox="0 0 16 16" fill="none" xmlns="http://www.w3.org/2000/svg">
<g clip-path="url(#clip0_706_492)">
<path fill-rule="evenodd" clip-rule="evenodd" d="M7.99988 4.60944C8.73624 4.60944 9.3332 4.01633 9.3332 3.2847C9.3332 2.55306 8.73624 1.95996 7.99988 1.95996C7.2635 1.95996 6.66655 2.55306 6.66655 3.2847C6.66655 4.01633 7.2635 4.60944 7.99988 4.60944ZM14.6664 5.73982C15.4028 5.73982 15.9998 5.14672 15.9998 4.41509C15.9998 3.68346 15.4028 3.09035 14.6664 3.09035C13.9301 3.09035 13.3331 3.68346 13.3331 4.41509C13.3331 5.14672 13.9301 5.73982 14.6664 5.73982ZM2.66666 4.41509C2.66666 5.14672 2.06971 5.73982 1.33333 5.73982C0.596953 5.73982 0 5.14672 0 4.41509C0 3.68346 0.596953 3.09035 1.33333 3.09035C2.06971 3.09035 2.66666 3.68346 2.66666 4.41509ZM12.5359 5.51074L10.639 7.05273L9.52864 5.12144C9.11296 5.4634 8.5804 5.66935 7.99975 5.66935C7.41913 5.66935 6.88651 5.4634 6.47086 5.12144L5.36046 7.05273L3.46358 5.51074C3.08812 6.22857 2.35638 6.73374 1.50234 6.79308L2.36456 12.6281H13.6346L14.4968 6.79308C13.6431 6.73374 12.911 6.22857 12.5359 5.51074ZM13.5113 13.922V15.5117C13.5113 15.8042 13.2723 16.0416 12.9779 16.0416H3.02239C2.72799 16.0416 2.48906 15.8042 2.48906 15.5117V13.922H13.5113Z" fill="black"/>
</g>
<defs>
<clipPath id="clip0_706_492">
<rect width="16" height="16" fill="white"/>
</clipPath>
</defs>
</svg>
