<svg width="16" height="17" viewBox="0 0 16 17" fill="none" xmlns="http://www.w3.org/2000/svg">
<g clip-path="url(#clip0_6_450)">
<path d="M8 0.37793C3.5815 0.37793 0 3.95943 0 8.37793C0 12.7964 3.5815 16.3779 8 16.3779C12.4185 16.3779 16 12.7964 16 8.37793C16 3.95943 12.4185 0.37793 8 0.37793ZM8 10.8129C7.231 10.8129 6.6075 10.1894 6.6075 9.42043C6.6075 8.65143 7.231 8.02793 8 8.02793C8.769 8.02793 9.3925 8.65143 9.3925 9.42043C9.3925 10.1894 8.769 10.8129 8 10.8129ZM10.0875 6.29043H10.085C9.316 6.29043 8.6925 5.66693 8.6925 4.89793C8.6925 4.12893 9.316 3.50543 10.085 3.50543C10.854 3.50543 11.4775 4.12893 11.4775 4.89793V4.90043C11.4775 5.66793 10.855 6.29043 10.0875 6.29043ZM13.2175 10.4654H13.215C12.446 10.4654 11.8225 9.84193 11.8225 9.07293C11.8225 8.30393 12.446 7.68043 13.215 7.68043C13.984 7.68043 14.6075 8.30393 14.6075 9.07293C14.6075 9.84093 13.9855 10.4639 13.2175 10.4654Z" fill="black"/>
</g>
<defs>
<clipPath id="clip0_6_450">
<rect width="16" height="16" fill="white" transform="translate(0 0.37793)"/>
</clipPath>
</defs>
</svg>
