<svg width="17" height="16" viewBox="0 0 17 16" fill="none" xmlns="http://www.w3.org/2000/svg">
<g clip-path="url(#clip0_6_367)">
<path d="M11.4735 0C9.45996 0.023 7.76146 1.346 7.17596 3.1675L7.16696 3.2H1.87346C1.36896 3.2 0.959961 3.609 0.959961 4.1135V15.087C0.959961 15.5915 1.36896 16.0005 1.87346 16.0005H11.0135C11.518 16.0005 11.927 15.5915 11.927 15.087V9.087C14.201 8.8065 15.944 6.8865 15.944 4.5595C15.944 2.0725 13.953 0.0505 11.4785 0.0005L11.4735 0ZM3.23996 5.4865H5.98646V6.86H3.23996V5.4865ZM9.63996 13.7135H3.23996V12.34H9.63996V13.7135ZM9.63996 10.2865H3.23996V8.913H9.63996V10.2865ZM11.4735 7.3335C11.4715 7.3335 11.469 7.3335 11.467 7.3335C9.94996 7.3335 8.72046 6.104 8.72046 4.587C8.72046 3.07 9.94996 1.8405 11.467 1.8405C12.984 1.8405 14.2135 3.07 14.2135 4.587C14.2135 4.5895 14.2135 4.5915 14.2135 4.594C14.2135 6.1075 12.987 7.3335 11.4735 7.3335ZM11.8335 6.42L10.787 4.7665V2.7665H12.1605V4.38L12.974 5.7135L11.8335 6.42Z" fill="black"/>
</g>
<defs>
<clipPath id="clip0_6_367">
<rect width="16" height="16" fill="white" transform="translate(0.5)"/>
</clipPath>
</defs>
</svg>
