<svg width="16" height="17" viewBox="0 0 16 17" fill="none" xmlns="http://www.w3.org/2000/svg">
<g clip-path="url(#clip0_6_190)">
<path d="M9.95998 3.44357C10.1905 3.57457 10.4665 3.65207 10.76 3.65207C11.6655 3.65207 12.4 2.91807 12.4 2.01207C12.4 1.10607 11.666 0.37207 10.76 0.37207C10.1515 0.37207 9.62048 0.70357 9.33748 1.19557L9.33348 1.20357C9.19948 1.43607 9.12048 1.71457 9.12048 2.01207C9.12048 2.62407 9.45548 3.15757 9.95198 3.43957L9.95998 3.44357Z" fill="black"/>
<path d="M6.52648 6.51007C6.76198 6.64857 7.04498 6.73007 7.34698 6.73007C8.25298 6.73007 8.98698 5.99557 8.98698 5.09007C8.98698 4.18457 8.25298 3.45007 7.34698 3.45007C6.74298 3.45007 6.21548 3.77657 5.93098 4.26257L5.92698 4.27007C5.78898 4.50507 5.70748 4.78807 5.70748 5.09007C5.70748 5.69357 6.03348 6.22107 6.51948 6.50607L6.52648 6.51007Z" fill="black"/>
<path d="M15.5135 9.32357L13.8535 4.97707C13.5765 4.27607 12.9045 3.78957 12.1195 3.78957C11.092 3.78957 10.2595 4.62207 10.2595 5.64957C10.2595 5.70857 10.2625 5.76707 10.2675 5.82457L10.267 5.81707C10.2845 5.90607 10.2945 6.00807 10.2945 6.11257C10.2945 6.78407 9.87898 7.35857 9.29098 7.59307L9.28048 7.59707C9.02748 7.67207 8.73648 7.71507 8.43548 7.71507C7.52848 7.71507 6.71348 7.32307 6.14948 6.69957L6.14698 6.69707C6.06298 6.55457 5.96598 6.43207 5.85398 6.32407L5.79998 6.27007C5.47698 5.96507 5.04048 5.77757 4.55998 5.77757C4.04298 5.77757 3.57698 5.99457 3.24748 6.34257L3.24648 6.34357L1.11298 8.59707C0.79848 8.92557 0.60498 9.37207 0.60498 9.86407C0.60498 10.3891 0.82548 10.8621 1.17898 11.1966L1.17998 11.1976L2.51348 12.4711L0.47998 14.5511L1.81348 15.8176L3.85348 13.7176C4.16448 13.3896 4.35548 12.9456 4.35548 12.4571C4.35548 12.0991 4.25298 11.7656 4.07548 11.4831L4.07998 11.4906C4.63198 11.6176 5.04798 12.0741 5.11298 12.6376L5.11348 12.6436V16.3836H6.83348V14.4436L7.57998 14.9101L9.57998 11.7301L12.3865 10.5166L13.5 10.0901L12.9335 12.0236C12.9085 12.0951 12.894 12.1776 12.8935 12.2636V16.3836H14.6135V12.3836L15.52 9.31707L15.5135 9.32357ZM8.39998 10.3836L6.83348 12.8971V12.6436C6.75548 11.4286 5.98098 10.4121 4.90748 9.98407L4.88698 9.97657L5.92048 8.88307C5.96048 8.84307 5.98698 8.79657 6.02698 8.74957C6.72098 9.18457 7.56198 9.44807 8.46298 9.46307H8.46698C8.96998 9.46157 9.45098 9.36857 9.89498 9.20057L9.86698 9.21007C10.3725 9.01507 10.799 8.71457 11.1375 8.33357L11.1405 8.33007L11.427 9.06357L8.39998 10.3836Z" fill="black"/>
</g>
<defs>
<clipPath id="clip0_6_190">
<rect width="16" height="16" fill="white" transform="translate(0 0.37793)"/>
</clipPath>
</defs>
</svg>
