<svg width="16" height="17" viewBox="0 0 16 17" fill="none" xmlns="http://www.w3.org/2000/svg">
<g clip-path="url(#clip0_6_1830)">
<path d="M4.11682 4.37006C6.54182 1.96194 10.1087 0.628186 14.2587 0.503186C11.9256 -0.0799393 6.75057 -0.738689 2.99182 3.37819C-0.591305 7.30319 -0.325055 12.0201 0.11682 14.3782C0.399945 10.1113 1.72495 6.73631 4.1087 4.37006H4.11682Z" fill="black"/>
<path d="M14.5418 1.31131C10.4837 1.38631 7.0337 2.65319 4.7087 4.96131C2.39182 7.26131 1.14182 10.5944 0.933695 14.8694C12.5256 13.3026 14.3087 3.28631 14.5418 1.31131Z" fill="black"/>
<path d="M2.09182 16.3782C4.6087 16.9701 9.64994 17.3282 13.8337 12.5451C16.6918 9.27819 16.4668 5.16194 16.0087 2.79506C15.3918 5.92006 12.7256 14.4869 2.09182 16.3782Z" fill="black"/>
</g>
<defs>
<clipPath id="clip0_6_1830">
<rect width="16" height="16" fill="white" transform="translate(0 0.37793)"/>
</clipPath>
</defs>
</svg>
