<svg width="16" height="17" viewBox="0 0 16 17" fill="none" xmlns="http://www.w3.org/2000/svg">
<g clip-path="url(#clip0_6_593)">
<path d="M9.68476 0.37793C9.25776 0.53843 8.88926 0.73443 8.55076 0.97143L8.56726 0.96043C8.47726 1.02543 8.39226 1.09293 8.28476 1.17543C8.99076 1.38443 9.59676 1.63093 10.1718 1.92843L10.1123 1.90043C9.68726 1.91793 9.26226 1.91793 8.83976 1.95543C8.41726 1.99293 7.95976 2.03793 7.51976 2.07793C7.45476 2.08293 7.40026 2.12193 7.37276 2.17693L7.37226 2.17793C7.05176 2.68043 6.80176 3.26543 6.65476 3.88943L6.64726 3.92793C6.63476 3.98293 6.62226 4.03793 6.60476 4.10793C6.43526 3.94243 6.27876 3.76493 6.13576 3.57743L6.12726 3.56543C5.89876 3.29143 5.69076 2.98393 5.51426 2.65743L5.49976 2.62793C5.44726 2.52293 5.38976 2.51543 5.28726 2.54793C4.57726 2.76043 3.98476 2.98743 3.41276 3.25143L3.49976 3.21543C3.47976 3.21543 3.45726 3.23043 3.40476 3.25043C3.68826 2.89043 3.99426 2.57193 4.32826 2.28543L4.33726 2.27793C4.52276 2.11543 4.72576 1.95743 4.93776 1.81193L4.95976 1.79793C5.02226 1.75543 5.04476 1.72793 4.99726 1.65293C4.86676 1.41743 4.71226 1.21493 4.53276 1.03843C4.67026 0.98643 4.82926 0.95093 4.99526 0.94043H4.99976C5.26576 0.89943 5.57226 0.87643 5.88476 0.87643C6.05526 0.87643 6.22476 0.88343 6.39176 0.89693L6.36976 0.89543C6.39776 0.89793 6.43076 0.89943 6.46376 0.89943C6.60976 0.89943 6.74976 0.87143 6.87776 0.82043L6.87026 0.82293C7.43426 0.61143 8.08776 0.46393 8.76726 0.40943L8.79276 0.40793C8.82776 0.40793 8.87276 0.42543 8.89526 0.37793H9.68476Z" fill="black"/>
<path d="M11.1698 10.0879C10.7498 9.99543 10.3623 9.91543 9.97476 9.82293C9.40976 9.68543 8.84226 9.54793 8.27976 9.39793C8.25976 9.38943 8.23676 9.38443 8.21276 9.38443C8.13926 9.38443 8.07626 9.42993 8.05026 9.49393L8.04976 9.49493C7.62226 10.1774 7.18226 10.8524 6.79976 11.5649C6.78476 11.5899 6.77976 11.6224 6.73726 11.6299C6.57676 11.0569 6.44176 10.3644 6.35876 9.65643L6.35226 9.58993C6.32476 9.36243 6.29976 9.13493 6.28976 8.90743C6.28976 8.79743 6.21726 8.78493 6.14226 8.75993C5.39226 8.50993 4.64226 8.22493 3.90726 7.89993C3.99226 7.83843 4.08976 7.78543 4.19326 7.74543L4.20226 7.74243C4.8306 7.44743 5.4706 7.17993 6.12226 6.93993C6.19976 6.92543 6.25776 6.85843 6.25776 6.77743C6.25776 6.77393 6.25776 6.77043 6.25726 6.76693C6.30326 5.83093 6.44376 4.95043 6.66976 4.10393L6.64976 4.19243C6.70476 4.19243 6.70726 4.23743 6.72226 4.26743C7.09226 4.91743 7.49226 5.54993 7.91226 6.16993C7.93626 6.21893 7.98576 6.25243 8.04326 6.25243C8.06876 6.25243 8.09226 6.24593 8.11326 6.23443L8.11226 6.23493C9.02726 5.93743 9.95226 5.67493 10.8898 5.46993L10.9798 5.45243L10.8848 5.57993C10.3331 6.29493 9.79309 7.01993 9.26476 7.75493C9.23626 7.78093 9.21876 7.81843 9.21876 7.85993C9.21876 7.90143 9.23626 7.93893 9.26476 7.96493C9.85676 8.70793 10.4513 9.37143 11.0818 9.99943L11.0828 9.99993C11.1143 10.0274 11.1428 10.0559 11.1693 10.0864L11.1698 10.0879Z" fill="black"/>
<path d="M14.8198 7.52043C14.9448 8.27043 15.0098 8.99543 15.0698 9.74293C15.4818 9.58643 15.8218 9.31993 16.0653 8.97943L16.0698 8.97293C16.0183 9.32843 15.9308 9.64893 15.8098 9.95143L15.8198 9.92293C15.6448 10.3999 15.4253 10.8129 15.1588 11.1894L15.1698 11.1729C15.0953 11.2834 15.0448 11.4159 15.0303 11.5594L15.0298 11.5629C14.9778 12.0204 14.8643 12.4379 14.6963 12.8264L14.7073 12.7979C14.6673 12.8854 14.6198 12.9704 14.5673 13.0729C14.4408 12.9094 14.3118 12.7644 14.1728 12.6284C13.9378 12.4184 13.9373 12.4154 13.6723 12.5854C13.1558 12.9169 12.5568 13.1819 11.9183 13.3484L11.8748 13.3579C11.8373 13.3579 11.7973 13.3579 11.7523 13.3779C11.7523 13.3104 11.7948 13.2779 11.8223 13.2404C12.1598 12.7804 12.4673 12.3029 12.7648 11.8179C12.8123 11.7379 12.8023 11.7004 12.7323 11.6454C12.1543 11.1684 11.6418 10.6509 11.1858 10.0859L11.1698 10.0654C11.6018 10.1314 12.0998 10.1689 12.6068 10.1689C12.7723 10.1689 12.9368 10.1649 13.1003 10.1569L13.0773 10.1579C13.2373 10.1579 13.3973 10.1279 13.5573 10.1204H13.5583C13.6573 10.1204 13.7423 10.0574 13.7743 9.96943L13.7748 9.96793C14.0858 9.36843 14.4223 8.61093 14.7198 7.83443L14.7748 7.67043L14.8198 7.52043Z" fill="black"/>
<path d="M6.71726 11.6504C6.66726 11.9654 6.61976 12.2454 6.57726 12.5254C6.50526 12.9149 6.44476 13.3969 6.40976 13.8854L6.40726 13.9304C6.40576 13.9384 6.40476 13.9479 6.40476 13.9579C6.40476 14.0264 6.44676 14.0854 6.50576 14.1099L6.50676 14.1104C7.00676 14.3929 7.52676 14.6529 8.05426 14.8854C8.07426 14.8854 8.10426 14.8854 8.10426 14.9379C7.62426 14.9804 7.14176 15.0104 6.65676 15.0154C6.34926 15.0154 6.35176 15.0154 6.40676 15.3279C6.44326 15.6514 6.53126 15.9464 6.66376 16.2164L6.65676 16.2004C6.65576 16.2004 6.65476 16.2004 6.65326 16.2004C6.54726 16.2004 6.44776 16.1734 6.36076 16.1264L6.36376 16.1279C5.75376 15.8789 5.24226 15.4974 4.84626 15.0169L4.84126 15.0104C4.75876 14.9154 4.64376 14.8499 4.51426 14.8309L4.51126 14.8304C3.80076 14.7099 3.16576 14.4644 2.60126 14.1149L2.62376 14.1279C2.45076 14.0199 2.30126 13.8969 2.16976 13.7564L2.16876 13.7554C2.31626 13.7799 2.48676 13.7934 2.66026 13.7934C2.76176 13.7934 2.86226 13.7884 2.96176 13.7794L2.94926 13.7804C3.23626 13.7484 3.49576 13.6949 3.74576 13.6199L3.71426 13.6279C3.81926 13.5979 3.82676 13.5629 3.77426 13.4704C3.49576 12.9874 3.23426 12.4234 3.02276 11.8354L2.99926 11.7604C2.98176 11.7129 2.96676 11.6629 2.93926 11.5829C3.37176 11.9429 3.78176 12.2854 4.20926 12.6029C4.39176 12.7404 4.57926 12.8729 4.75676 13.0129C4.78226 13.0359 4.81576 13.0504 4.85326 13.0504C4.89076 13.0504 4.92426 13.0364 4.94976 13.0129C5.56926 12.6264 6.10676 12.2144 6.60176 11.7564L6.59476 11.7629L6.71726 11.6504Z" fill="black"/>
<path d="M15.6098 5.55043C15.3203 5.35893 14.9733 5.23043 14.5998 5.19143L14.5898 5.19043C14.7208 5.77293 14.7958 6.44193 14.7958 7.12893C14.7958 7.24493 14.7938 7.35993 14.7893 7.47493L14.7898 7.45843C14.7423 7.44593 14.7373 7.40343 14.7223 7.37343C14.2703 6.52443 13.8303 5.81343 13.3503 5.13193L13.3948 5.19843C13.3578 5.13693 13.2918 5.09693 13.2163 5.09693C13.2068 5.09693 13.1978 5.09743 13.1888 5.09893C12.4358 5.13743 11.7298 5.23743 11.0448 5.39493L11.1273 5.37893L11.0123 5.39893C11.0123 5.34393 11.0448 5.32893 11.0673 5.30393C11.4583 4.86943 11.8273 4.39493 12.1613 3.89443L12.1898 3.84893C12.2143 3.82243 12.2298 3.78693 12.2298 3.74793C12.2298 3.70043 12.2073 3.65843 12.1728 3.63143C11.6273 3.03193 11.0238 2.50093 10.3668 2.04193L10.3323 2.01893C10.2903 1.99393 10.2538 1.96393 10.2228 1.92943C10.5573 1.95193 10.8678 2.00643 11.1663 2.09143L11.1348 2.08393C11.7228 2.23393 12.2353 2.42993 12.7173 2.67643L12.6748 2.65643C12.7548 2.69393 12.7948 2.70893 12.8198 2.59393C12.8678 2.42443 12.8953 2.22943 12.8953 2.02843C12.8953 1.96343 12.8923 1.89893 12.8868 1.83543L12.8873 1.84343C12.9348 1.88393 12.9783 1.92493 13.0193 1.96793C13.3998 2.37893 13.7273 2.84843 13.9838 3.35843L13.9998 3.39343C14.0373 3.46943 14.0878 3.53343 14.1488 3.58543L14.1498 3.58593C14.7708 4.11143 15.2698 4.76143 15.6108 5.49893L15.6248 5.53343L15.6098 5.55043Z" fill="black"/>
<path d="M2.90976 11.5029C2.82126 11.4799 2.74426 11.4404 2.67876 11.3869L2.67976 11.3879C2.26526 11.1519 1.91026 10.9099 1.57576 10.6424L1.59226 10.6554C1.49476 10.5754 1.46226 10.5979 1.40726 10.6979C1.21326 11.0379 1.05526 11.4309 0.953762 11.8464L0.947262 11.8779C0.937762 11.9144 0.925762 11.9459 0.910762 11.9759L0.912262 11.9729C0.714262 11.5274 0.582762 11.0104 0.545762 10.4674L0.544762 10.4529C0.536262 10.3549 0.531762 10.2409 0.531762 10.1254C0.531762 10.0099 0.536762 9.89593 0.545762 9.78293L0.544762 9.79793C0.545262 9.79093 0.545762 9.78243 0.545762 9.77443C0.545762 9.71143 0.522762 9.65443 0.484262 9.61043C0.317262 9.41143 0.174762 9.18493 0.0662617 8.93893L0.0592617 8.92093C0.0412617 8.89443 0.0307617 8.86143 0.0307617 8.82643C0.0307617 8.75743 0.0717617 8.69793 0.130762 8.67143L0.131762 8.67093C0.275762 8.57043 0.440262 8.47993 0.614262 8.40743L0.631762 8.40093C0.732762 8.36793 0.809262 8.28693 0.836262 8.18543L0.836762 8.18343C1.04576 7.56443 1.30976 7.02793 1.63326 6.53393L1.61676 6.56093C1.63026 6.53993 1.64326 6.52193 1.65726 6.50493L1.65676 6.50593C1.69926 6.88843 1.73926 7.25593 1.77926 7.62093C1.79676 7.76093 1.77926 7.94343 1.85426 8.02593C1.92926 8.10843 2.10426 8.01093 2.25176 7.99093C2.72026 7.92493 3.27576 7.87993 3.83876 7.86643L3.85676 7.86593C3.85676 7.92843 3.79426 7.95093 3.75926 7.98093C3.21376 8.44093 2.72326 8.92543 2.27326 9.44693L2.25926 9.46343C2.22076 9.50243 2.19726 9.55543 2.19726 9.61443C2.19726 9.64493 2.20376 9.67343 2.21476 9.69993L2.21426 9.69843C2.40826 10.3704 2.64576 10.9509 2.93626 11.4989L2.91176 11.4484C2.91176 11.4684 2.93926 11.4884 2.91176 11.5134L2.90976 11.5029Z" fill="black"/>
<path d="M13.5448 14.2229C13.2008 14.5729 12.8148 14.8789 12.3933 15.1334L12.3673 15.1479C11.1853 15.9134 9.74176 16.3709 8.19176 16.3779H8.18976C8.17126 16.3799 8.14926 16.3809 8.12726 16.3809C8.10526 16.3809 8.08326 16.3799 8.06176 16.3779H8.06476C8.54026 16.2409 8.95526 16.0524 9.33526 15.8134L9.31476 15.8254C8.88376 15.5774 8.51126 15.2959 8.17826 14.9739L8.17976 14.9754C8.53726 15.0154 8.85476 15.0429 9.17976 15.0579C9.50476 15.0729 9.85226 15.0729 10.1798 15.0579C10.2613 15.0569 10.3338 15.0214 10.3848 14.9659C10.8033 14.5554 11.1873 14.1129 11.5338 13.6409L11.5548 13.6109L11.6873 13.4334C11.7873 13.6384 11.7873 14.1284 11.6873 14.8684C12.3853 14.7104 12.9998 14.4824 13.5733 14.1854L13.5298 14.2059L13.5448 14.2229Z" fill="black"/>
<path d="M1.65226 6.46793C1.43326 6.17443 1.23026 5.84293 1.05876 5.49243L1.04226 5.45543C0.730262 5.83443 0.439262 6.25693 0.185262 6.70393L0.162262 6.74793C0.521762 4.82793 1.54676 3.19393 2.98326 2.05793L2.99976 2.04543C2.74926 2.43443 2.51376 2.88343 2.31826 3.35293L2.29726 3.41043C2.63076 3.33193 3.01826 3.28093 3.41526 3.26793H3.42476L3.27476 3.37793C2.78376 3.74743 2.35276 4.10743 1.94076 4.48843L1.95226 4.47793C1.90376 4.52893 1.87026 4.59493 1.85976 4.66843V4.67043C1.79976 4.91093 1.74726 5.20843 1.71276 5.51193L1.70976 5.54543C1.67726 5.84043 1.66476 6.12793 1.65226 6.46793Z" fill="black"/>
<path d="M15.6248 5.53343C15.6248 5.54593 15.6248 5.56293 15.6248 5.56543C15.6248 5.56793 15.6048 5.56543 15.6023 5.55043L15.6248 5.53343Z" fill="black"/>
<path d="M2.90726 11.5054H2.92726V11.5229V11.5029L2.90726 11.5054Z" fill="black"/>
<path d="M13.5248 14.2054C13.5398 14.1929 13.5523 14.1829 13.5673 14.2054L13.5448 14.2254L13.5248 14.2054Z" fill="black"/>
</g>
<defs>
<clipPath id="clip0_6_593">
<rect width="16" height="16" fill="white" transform="translate(0 0.37793)"/>
</clipPath>
</defs>
</svg>
