<svg width="16" height="17" viewBox="0 0 16 17" fill="none" xmlns="http://www.w3.org/2000/svg">
<g clip-path="url(#clip0_6_408)">
<path d="M14.0001 6.83293H12.9326C12.8926 6.83293 12.8801 6.83293 12.8701 6.79293C12.7876 6.56293 12.7026 6.33543 12.6201 6.10793C12.6201 6.07543 12.5951 6.06543 12.5526 6.06543H11.2226C11.1826 6.06543 11.1701 6.06543 11.1576 6.10543C11.0701 6.33293 10.9801 6.56043 10.8926 6.79043C10.8926 6.82043 10.8676 6.83293 10.8251 6.83293H9.84511C9.88761 6.73043 9.92511 6.63293 9.96511 6.53543L11.2701 3.28543C11.2851 3.25043 11.3026 3.24043 11.3451 3.24043H12.4751C12.5176 3.24043 12.5351 3.24043 12.5501 3.28543C13.0251 4.4521 13.5018 5.61876 13.9801 6.78543C13.9801 6.78543 13.9801 6.81293 14.0001 6.82043V6.83293ZM12.3626 5.37793L11.9076 3.97793L11.8951 3.99793L11.4176 5.36293C11.4176 5.38793 11.4176 5.38793 11.4451 5.38793H12.3626V5.37793Z" fill="black"/>
<path d="M12.8901 13.8429C13.0441 13.8679 13.1816 13.9089 13.3116 13.9649L13.3001 13.9604C13.5411 14.0514 13.7166 14.2659 13.7496 14.5244L13.7501 14.5279C13.7571 14.5694 13.7611 14.6174 13.7611 14.6664C13.7611 14.8944 13.6741 15.1024 13.5321 15.2584C13.3696 15.4229 13.1616 15.5414 12.9281 15.5939L12.9201 15.5954C12.6821 15.6579 12.4091 15.6934 12.1276 15.6934C12.1066 15.6934 12.0851 15.6934 12.0641 15.6929H12.0671H10.1296C10.0846 15.6929 10.0721 15.6929 10.0721 15.6454V12.1129C10.0721 12.0879 10.0721 12.0654 10.1146 12.0654C10.8646 12.0654 11.6296 12.0654 12.3871 12.0654C12.3886 12.0654 12.3901 12.0654 12.3921 12.0654C12.6446 12.0654 12.8851 12.1169 13.1041 12.2099L13.0921 12.2054C13.4216 12.3114 13.6556 12.6149 13.6556 12.9734C13.6556 12.9999 13.6541 13.0254 13.6521 13.0514V13.0479C13.6501 13.2854 13.5346 13.4954 13.3566 13.6264L13.3546 13.6279C13.2431 13.7084 13.1131 13.7734 12.9741 13.8154L12.9646 13.8179C12.9366 13.8204 12.9111 13.8294 12.8891 13.8434L12.8901 13.8429ZM11.2301 14.5929C11.2301 14.7229 11.2301 14.8429 11.2301 14.9829C11.2301 15.0129 11.2301 15.0204 11.2726 15.0204H11.8951C12.0486 15.0204 12.1966 14.9964 12.3356 14.9524L12.3251 14.9554C12.4806 14.9199 12.5971 14.7894 12.6101 14.6294V14.6279C12.6126 14.6119 12.6141 14.5929 12.6141 14.5739C12.6141 14.4374 12.5361 14.3189 12.4221 14.2614L12.4201 14.2604C12.3191 14.2089 12.2001 14.1759 12.0746 14.1704H12.0726C11.8051 14.1454 11.5351 14.1579 11.2676 14.1529C11.2326 14.1529 11.2276 14.1679 11.2276 14.1904C11.2301 14.3204 11.2301 14.4504 11.2301 14.5804V14.5929ZM11.2301 13.1354C11.2301 13.2479 11.2301 13.3604 11.2301 13.4729C11.2301 13.5004 11.2301 13.5129 11.2751 13.5129H11.7976C11.8071 13.5129 11.8176 13.5134 11.8286 13.5134C11.9981 13.5134 12.1591 13.4784 12.3051 13.4149L12.2971 13.4179C12.4171 13.3749 12.5011 13.2624 12.5011 13.1299C12.5011 13.1194 12.5006 13.1089 12.4996 13.0989V13.1004C12.4981 12.9639 12.4051 12.8494 12.2791 12.8159L12.2771 12.8154C12.1956 12.7864 12.1011 12.7669 12.0026 12.7604H11.9996C11.7496 12.7429 11.5171 12.7604 11.2746 12.7604C11.2396 12.7604 11.2321 12.7604 11.2321 12.7979C11.2296 12.9004 11.2296 13.0129 11.2296 13.1279L11.2301 13.1354Z" fill="black"/>
<path d="M13.7101 8.56793L13.5151 8.49043C13.2371 8.37943 12.9146 8.31543 12.5776 8.31543C12.5686 8.31543 12.5601 8.31543 12.5516 8.31543H12.5531C11.8681 8.31543 11.3481 8.70043 11.2481 9.26793C11.2326 9.33643 11.2236 9.41493 11.2236 9.49543C11.2236 9.72043 11.2936 9.92943 11.4131 10.1014L11.4106 10.0979C11.5961 10.3434 11.8651 10.5174 12.1751 10.5764L12.1831 10.5779C12.3451 10.6124 12.5316 10.6319 12.7226 10.6319C12.9881 10.6319 13.2446 10.5939 13.4871 10.5229L13.4681 10.5279C13.5506 10.5079 13.6331 10.4829 13.7181 10.4579C13.7506 10.4579 13.7581 10.4579 13.7606 10.4804C13.7756 10.7138 13.7931 10.9463 13.8131 11.1779C13.8131 11.2004 13.8131 11.2079 13.7831 11.2129C13.4271 11.2994 13.0186 11.3489 12.5981 11.3489C12.3821 11.3489 12.1696 11.3359 11.9606 11.3104L11.9856 11.3129C11.4996 11.2619 11.0616 11.0899 10.6921 10.8274L10.7006 10.8329C10.3996 10.6209 10.1811 10.3099 10.0901 9.94843L10.0876 9.93793C10.0511 9.80093 10.0301 9.64393 10.0301 9.48143C10.0301 9.19293 10.0966 8.91993 10.2151 8.67693L10.2101 8.68793C10.4456 8.24093 10.8491 7.90893 11.3346 7.77343L11.3476 7.77043C11.6836 7.65993 12.0706 7.59593 12.4726 7.59593C12.5366 7.59593 12.6006 7.59743 12.6641 7.60093L12.6551 7.60043C13.0601 7.62343 13.4396 7.68493 13.8046 7.78193L13.7651 7.77293C13.7901 7.77293 13.8076 7.77293 13.8051 7.81293C13.7701 8.06293 13.7501 8.31293 13.7101 8.56793Z" fill="black"/>
<path d="M12.1251 0.37793C11.9631 0.37793 11.8071 0.40643 11.6631 0.45843L11.6726 0.45543C11.6446 0.45493 11.6111 0.45443 11.5776 0.45443C11.3741 0.45443 11.1731 0.46493 10.9751 0.48493L11.0001 0.48293C10.6826 0.50343 10.3951 0.61743 10.1616 0.79793L10.1651 0.79543C10.0026 0.92543 9.84761 1.06043 9.67761 1.18293C9.44511 1.34793 9.19261 1.49543 8.95011 1.65043C8.58261 1.85193 8.28211 2.13443 8.06611 2.47543L8.06011 2.48543C8.04161 2.51143 8.01911 2.53293 7.99361 2.54993L7.99261 2.55043L7.06761 3.21793C7.06761 3.21793 7.05011 3.23793 7.02761 3.23043C7.02561 3.07793 6.99611 2.93293 6.94461 2.79943L6.94761 2.80793C6.84411 2.52443 6.59261 2.31893 6.28861 2.28343L6.28461 2.28293C6.21911 2.27293 6.14411 2.26693 6.06711 2.26693C5.89411 2.26693 5.72811 2.29643 5.57411 2.35093L5.58461 2.34793C5.34061 2.41593 5.15261 2.60393 5.08561 2.84293L5.08461 2.84793C5.06811 2.90893 5.05811 2.97843 5.05811 3.05043C5.05811 3.14643 5.07511 3.23793 5.10611 3.32343L5.10411 3.31793C5.20161 3.60443 5.33411 3.85293 5.49911 4.07493L5.49411 4.06793C5.51911 4.09643 5.53711 4.13243 5.54411 4.17143V4.17293C5.54661 4.19143 5.54861 4.21293 5.54861 4.23443C5.54861 4.35293 5.50211 4.46093 5.42661 4.54043C5.39661 4.57043 5.37161 4.60043 5.34411 4.63043C5.18911 4.79293 5.01661 4.93793 4.84411 5.09043C4.76811 5.15243 4.70861 5.23243 4.67311 5.32393L4.67161 5.32793C4.64961 5.39643 4.63661 5.47543 4.63661 5.55743C4.63661 5.75843 4.71361 5.94143 4.83961 6.07843C5.01811 6.27343 5.20261 6.45293 5.39811 6.62093L5.40661 6.62793C5.71911 6.92543 6.03411 7.22293 6.31161 7.54293C6.42911 7.66943 6.53261 7.81093 6.61861 7.96443L6.62411 7.97543C6.65111 8.01943 6.66711 8.07243 6.66711 8.12993C6.66711 8.19943 6.64311 8.26343 6.60361 8.31393C6.59211 8.33443 6.58211 8.35143 6.57011 8.36793L6.57161 8.36593C6.50711 8.45543 6.45411 8.55943 6.41861 8.67043L6.41661 8.67843C6.27511 9.06343 6.12561 9.56443 6.00261 10.0759L5.98161 10.1784C5.89911 10.5559 5.84161 10.9284 5.78911 11.3184C5.77661 11.4059 5.78911 11.4659 5.89661 11.4934C5.91811 11.4939 5.93561 11.5114 5.93561 11.5334C5.93561 11.5399 5.93411 11.5459 5.93161 11.5509C5.91911 11.6209 5.90411 11.6934 5.89411 11.7634C5.88811 11.8054 5.86011 11.8399 5.82261 11.8554L5.82161 11.8559C5.71961 11.9119 5.59861 11.9669 5.47261 12.0124L5.45411 12.0184C5.24161 12.0899 5.05861 12.1974 4.90211 12.3349L4.90411 12.3334C4.79411 12.4384 4.68911 12.5459 4.58911 12.6584C4.36411 12.9084 4.15661 13.1809 3.92411 13.4309C3.77711 13.5989 3.61311 13.7464 3.43261 13.8724L3.42411 13.8784C3.38411 13.9034 3.35661 13.9084 3.32911 13.8784C3.31961 13.8594 3.30011 13.8464 3.27761 13.8464C3.26161 13.8464 3.24711 13.8529 3.23661 13.8634C3.12511 13.9324 2.99011 13.9734 2.84511 13.9734C2.83861 13.9734 2.83211 13.9734 2.82561 13.9734C2.66561 13.9769 2.51411 14.0024 2.36961 14.0464L2.38161 14.0434C2.30911 14.0684 2.26911 14.1059 2.27161 14.1759C2.27711 14.2529 2.28011 14.3429 2.28011 14.4334C2.28011 14.5239 2.27711 14.6139 2.27111 14.7029L2.27161 14.6909C2.25761 14.9074 2.19261 15.1064 2.08811 15.2794L2.09161 15.2734C2.04361 15.3459 2.01111 15.4324 1.99961 15.5254L1.99911 15.5284C1.99711 15.5589 1.99561 15.5949 1.99561 15.6309C1.99561 15.8329 2.03561 16.0254 2.10761 16.2009L2.10411 16.1909C2.12311 16.2944 2.21011 16.3729 2.31611 16.3784H2.36161C2.45561 16.3524 2.53461 16.2974 2.59061 16.2244L2.59161 16.2234C2.73161 16.0614 2.85111 15.8759 2.94311 15.6754L2.94911 15.6609C3.05111 15.4654 3.17111 15.2969 3.31061 15.1469L3.30911 15.1484C3.30911 15.1484 3.32161 15.1259 3.34161 15.1259C3.32211 15.1894 3.31011 15.2624 3.30911 15.3379C3.30961 15.5434 3.35011 15.7394 3.42261 15.9189L3.41911 15.9084C3.44411 15.9734 3.48411 15.9909 3.56411 15.9759C3.62911 15.9604 3.68511 15.9259 3.72611 15.8789C3.82311 15.7749 3.90711 15.6559 3.97261 15.5269L3.97661 15.5184C4.06911 15.3559 4.13911 15.1834 4.22661 15.0184C4.24111 14.9879 4.26461 14.9639 4.29311 14.9489L4.29411 14.9484C4.33311 14.9334 4.36211 14.8999 4.37161 14.8594C4.39111 14.7954 4.42861 14.7404 4.47861 14.7014C4.51861 14.6639 4.55911 14.6234 4.60161 14.5884C4.92961 14.3279 5.30961 14.1144 5.72111 13.9669L5.74911 13.9584C6.26161 13.7559 6.77411 13.5609 7.28411 13.3609C7.70361 13.1954 8.04661 13.0334 8.37811 12.8529L8.32661 12.8784C8.56861 12.7359 8.75561 12.5239 8.86361 12.2694L8.86661 12.2609C8.90061 12.1464 8.9966 12.0609 9.11511 12.0434H9.11661C9.14661 12.0384 9.17061 12.0159 9.17661 11.9864C9.33161 11.5379 9.43061 11.0194 9.45111 10.4809L9.45161 10.4709C9.45661 10.3739 9.45961 10.2609 9.45961 10.1469C9.45961 9.67643 9.40911 9.21793 9.31361 8.77593L9.32111 8.81843C9.25761 8.47843 9.15161 8.17493 9.00711 7.89493L9.01561 7.91343C8.98061 7.84493 8.94611 7.76243 8.91711 7.67693L8.91311 7.66343C8.83811 7.41343 8.8006 7.16343 8.7231 6.91343C8.65861 6.71893 8.61011 6.49193 8.58661 6.25693L8.58561 6.24343C8.55361 5.87093 8.49411 5.53043 8.40861 5.19993L8.41811 5.24343C8.35911 4.97343 8.24211 4.73643 8.08061 4.53793L8.08311 4.54093C8.20661 4.51793 8.31311 4.48943 8.41661 4.45343L8.40061 4.45843C8.80461 4.31343 9.15411 4.13693 9.47711 3.92443L9.45811 3.93593C9.71461 3.78043 9.93711 3.61543 10.1426 3.43193L10.1381 3.43593C10.2021 3.38043 10.2481 3.30593 10.2676 3.22093L10.2681 3.21843C10.3431 2.84343 10.3806 2.46843 10.4306 2.09093C10.4506 1.90193 10.4776 1.73593 10.5136 1.57293L10.5081 1.60343C10.5221 1.51593 10.5606 1.43893 10.6161 1.37793C10.6161 1.39543 10.7481 1.37843 10.7481 1.37843H10.8006C10.7676 1.49093 10.7486 1.61993 10.7481 1.75343C10.7481 2.51293 11.3636 3.12843 12.1231 3.12843C12.8826 3.12843 13.4981 2.51293 13.4981 1.75343C13.4981 0.99393 12.8826 0.37843 12.1231 0.37843L12.1251 0.37793ZM7.59011 12.1429C7.14911 12.2854 6.76561 12.4729 6.41511 12.7064L6.43261 12.6954C6.08511 12.9154 5.76011 13.1554 5.42011 13.3804C5.34761 13.4279 5.27761 13.4779 5.20011 13.5204C5.38061 13.2859 5.61311 13.1009 5.88161 12.9799L5.89261 12.9754C6.04661 12.9204 6.18011 12.8459 6.29811 12.7529L6.29511 12.7554C6.41761 12.6429 6.5451 12.5279 6.65761 12.4104C6.93111 12.1379 7.17061 11.8309 7.36861 11.4964L7.38011 11.4749C7.41761 11.4099 7.45011 11.3399 7.48761 11.2674C7.51761 11.3194 7.53811 11.3804 7.54511 11.4454V11.4474C7.55861 11.5584 7.56661 11.6874 7.56661 11.8179C7.56661 11.8514 7.56611 11.8844 7.56511 11.9174V11.9124C7.56511 11.9144 7.56511 11.9164 7.56511 11.9189C7.56511 11.9594 7.58811 11.9949 7.62211 12.0124C7.68461 12.0524 7.67261 12.1279 7.59011 12.1429ZM9.11511 3.10043C8.95761 3.15993 8.7696 3.21193 8.5756 3.24743L8.55511 3.25043C8.60061 3.20343 8.64961 3.16093 8.70211 3.12243L8.70511 3.12043C8.91361 2.97393 9.09611 2.82093 9.26561 2.65493C9.29411 2.61793 9.33211 2.58993 9.37611 2.57343L9.3776 2.57293C9.3326 2.71043 9.29761 2.85293 9.24011 2.98543C9.21461 3.03843 9.17061 3.07893 9.11661 3.09993L9.11511 3.10043Z" fill="black"/>
</g>
<defs>
<clipPath id="clip0_6_408">
<rect width="16" height="16" fill="white" transform="translate(0 0.37793)"/>
</clipPath>
</defs>
</svg>
