<svg width="16" height="17" viewBox="0 0 16 17" fill="none" xmlns="http://www.w3.org/2000/svg">
<g clip-path="url(#clip0_6_424)">
<path d="M2.44 2.62495C3.8775 1.23395 5.8385 0.376953 8 0.376953C9.723 0.376953 11.319 0.921453 12.6245 1.84845L12.5995 1.83195C12.506 2.05195 12.413 2.26545 12.306 2.49845C12.199 2.73145 12.146 2.81195 12.0525 2.97195C10.51 2.37845 8.725 2.03445 6.86 2.03445C6.663 2.03445 6.4665 2.03845 6.2715 2.04595L6.2995 2.04495C4.892 2.12095 3.5715 2.32795 2.299 2.65545L2.44 2.62495ZM0.9 4.68495C2.5095 4.11045 4.3725 3.72245 6.3075 3.60145L6.3665 3.59845C6.557 3.58895 6.7795 3.58345 7.004 3.58345C8.51 3.58345 9.957 3.83295 11.3075 4.29295L11.2135 4.26495C10.987 4.59845 10.7335 4.93145 10.467 5.27145C9.3715 5.06095 8.112 4.94045 6.8245 4.94045C6.1025 4.94045 5.389 4.97845 4.6865 5.05195L4.774 5.04445C3.1395 5.21345 1.6455 5.54245 0.2195 6.02095L0.3675 5.97795C0.527 5.47595 0.7075 5.04795 0.922 4.63995L0.9 4.68495ZM16 8.98495C15.566 9.45895 15.1135 9.89445 14.635 10.3005L14.6135 10.3185C14.42 9.89845 14.207 9.48495 13.947 9.07195C14.6285 8.37295 15.2495 7.60795 15.797 6.78995L15.8335 6.73195C15.9395 7.22695 16 7.79545 16 8.37845C16 8.58495 16 8.78495 16 8.98495ZM15.1665 4.81845L15.093 4.95195C14.511 6.01145 13.8475 6.92595 13.085 7.74745L13.093 7.73845C12.6665 7.19845 12.2665 6.65845 11.7995 6.12495C12.4875 5.26395 13.1165 4.29645 13.647 3.26945L13.693 3.17145C13.7395 3.07795 13.7865 2.99145 13.8265 2.89795C14.348 3.45095 14.7945 4.08295 15.1455 4.77195L15.1665 4.81845ZM14.08 13.5785C13.2595 14.536 12.2295 15.2895 11.0595 15.7725L11.0065 15.792C10.594 15.1715 10.198 14.4565 9.8595 13.7095L9.82 13.612C8.893 11.5645 8.168 9.18495 7.7625 6.69795L7.74 6.53195C8.732 6.59545 9.6465 6.71595 10.54 6.89395L10.407 6.87195C11.626 8.17495 12.6385 9.69145 13.379 11.3555L13.42 11.459C13.6705 12.0515 13.8975 12.76 14.0635 13.491L14.08 13.5785ZM0 7.74495C0.54 7.54495 1.08 7.37145 1.6135 7.21845C1.6865 9.34795 2.1155 11.356 2.8425 13.215L2.8 13.092C3.098 13.912 3.3835 14.572 3.701 15.213L3.6465 15.092C1.438 13.644 0 11.18 0 8.37995C0 8.37945 0 8.37895 0 8.37845C0 8.16495 0 7.95845 0 7.74495ZM6.1335 6.49845C6.59 9.40295 7.3805 12.0125 8.4785 14.454L8.4 14.2585C8.762 15.0565 9.111 15.7125 9.4955 16.345L9.4465 16.2585C9.0325 16.335 8.556 16.379 8.0695 16.379C8.045 16.379 8.0205 16.379 7.996 16.3785H8C7.3035 16.377 6.628 16.2895 5.983 16.126L6.04 16.138C5.364 15.1085 4.7725 13.9265 4.3235 12.676L4.2865 12.558C3.613 10.863 3.2135 8.89995 3.193 6.84645V6.83795C3.77967 6.72229 4.35967 6.63562 4.933 6.57795C5.333 6.53795 5.7395 6.51145 6.1595 6.49795L6.1335 6.49845Z" fill="black"/>
</g>
<defs>
<clipPath id="clip0_6_424">
<rect width="16" height="16" fill="white" transform="translate(0 0.37793)"/>
</clipPath>
</defs>
</svg>
