<svg width="16" height="17" viewBox="0 0 16 17" fill="none" xmlns="http://www.w3.org/2000/svg">
<g clip-path="url(#clip0_6_411)">
<path d="M5.12629 5.35143C5.35429 5.48543 5.62879 5.56443 5.92179 5.56443C6.80179 5.56443 7.51529 4.85093 7.51529 3.97093C7.51529 3.09093 6.80179 2.37743 5.92179 2.37743C5.33379 2.37743 4.81979 2.69643 4.54379 3.17043L4.53979 3.17793C4.40679 3.40543 4.32879 3.67893 4.32879 3.97093C4.32879 4.55793 4.64629 5.07093 5.11929 5.34743L5.12629 5.35143Z" fill="black"/>
<path d="M15.9998 7.98443H9.99979V7.04443C9.35479 7.04693 8.79729 7.41643 8.52429 7.95493L8.51979 7.96443H7.22629C6.80229 7.30393 6.13379 6.83243 5.35179 6.67443L5.33329 6.67143C5.03379 6.60693 4.76879 6.50593 4.52479 6.37043L4.53979 6.37793C4.18979 6.17243 3.90029 5.90193 3.67879 5.58043L3.67279 5.57143C3.42979 5.20543 3.14329 4.89343 2.81429 4.63093L2.80629 4.62443L2.45979 4.37793C2.17779 4.15393 1.99879 3.81093 1.99879 3.42593C1.99879 3.40693 1.99929 3.38743 2.00029 3.36893V3.37143V0.37793H0.300293V3.53793C0.305293 4.37293 0.707293 5.11343 1.32729 5.57993L1.33379 5.58443L2.58029 6.51793L2.12679 8.75793C2.10779 8.85193 2.09679 8.96043 2.09679 9.07143C2.09679 9.18243 2.10779 9.29043 2.12829 9.39543L2.12679 9.38493L1.66679 10.5449C1.24479 11.5804 1.00029 12.7824 1.00029 14.0409C1.00029 14.0494 1.00029 14.0579 1.00029 14.0659V14.0644V16.3779H2.66679V13.5179C2.66679 13.5154 2.66679 13.5124 2.66679 13.5094C2.66679 12.8469 2.79929 12.2149 3.03879 11.6389L3.02679 11.6714L3.40679 10.7114H3.44679L3.72029 10.7649C3.80029 10.7774 3.89279 10.7849 3.98679 10.7849C4.08079 10.7849 4.17329 10.7774 4.26329 10.7639L4.25329 10.7654L6.16679 12.4989C6.26929 12.5929 6.33329 12.7279 6.33329 12.8774V16.3789H7.99979V13.1454C7.99929 12.4659 7.71829 11.8519 7.26679 11.4124L5.55279 9.79193C5.58779 9.70743 5.62179 9.60293 5.64929 9.49543L5.65279 9.47843L5.77929 8.81193L5.88579 8.97843C6.13729 9.38043 6.57729 9.64393 7.07879 9.64493H8.57879C8.87979 10.0899 9.38279 10.3789 9.95279 10.3789C9.96879 10.3789 9.98479 10.3789 10.0008 10.3784H9.99829V9.65193H15.9983L15.9998 7.98443Z" fill="black"/>
</g>
<defs>
<clipPath id="clip0_6_411">
<rect width="16" height="16" fill="white" transform="translate(0 0.37793)"/>
</clipPath>
</defs>
</svg>
