<svg width="16" height="16" viewBox="0 0 16 16" fill="none" xmlns="http://www.w3.org/2000/svg">
<g clip-path="url(#clip0_285_58)">
<path d="M5.857 6.92948H1.5715C0.98 6.92948 0.5 6.44998 0.5 5.85798V1.57248C0.5 0.980977 0.9795 0.500977 1.5715 0.500977H5.857C6.4485 0.500977 6.9285 0.980476 6.9285 1.57248V5.85798C6.9285 6.44948 6.449 6.92948 5.857 6.92948ZM6.9285 14.4295V10.144C6.9285 9.55248 6.449 9.07248 5.857 9.07248H1.5715C0.98 9.07248 0.5 9.55198 0.5 10.144V14.4295C0.5 15.021 0.9795 15.501 1.5715 15.501H5.857C6.4485 15.501 6.9285 15.0215 6.9285 14.4295ZM15.5 14.4295V10.144C15.5 9.55248 15.0205 9.07248 14.4285 9.07248H10.143C9.5515 9.07248 9.0715 9.55198 9.0715 10.144V14.4295C9.0715 15.021 9.551 15.501 10.143 15.501H14.4285C15.02 15.501 15.5 15.0215 15.5 14.4295Z" fill="black"/>
<path d="M16 3.75098C16 5.82204 14.3211 7.50098 12.25 7.50098C10.1789 7.50098 8.5 5.82204 8.5 3.75098C8.5 1.67991 10.1789 0.000976562 12.25 0.000976562C14.3211 0.000976562 16 1.67991 16 3.75098Z" fill="black"/>
</g>
<defs>
<clipPath id="clip0_285_58">
<rect width="16" height="16" fill="white" transform="translate(0 0.000976562)"/>
</clipPath>
</defs>
</svg>
