<svg width="16" height="17" viewBox="0 0 16 17" fill="none" xmlns="http://www.w3.org/2000/svg">
<g clip-path="url(#clip0_6_413)">
<path d="M8.06999 0.425781C8.18999 0.490781 8.31999 0.455781 8.44999 0.478281C8.70099 0.526281 8.91549 0.583781 9.12349 0.653781L9.08749 0.643281C9.18749 0.678281 9.18249 0.723281 9.11499 0.785781C9.01749 0.875781 8.90649 0.953281 8.78599 1.01428L8.77749 1.01828C8.14649 1.35878 7.39449 1.69128 6.61599 1.96728L6.49999 2.00328C5.52549 2.39078 4.32549 2.76528 3.09349 3.05628L2.90749 3.09328C2.71499 3.13928 2.48649 3.17378 2.25349 3.19028L2.23999 3.19078C2.17749 3.19078 2.09999 3.19078 2.06749 3.13328C2.03499 3.07578 2.09749 3.02328 2.13249 2.97828C2.40499 2.66178 2.70599 2.38228 3.03499 2.13878L3.04999 2.12828C3.09999 2.08828 3.12249 2.11078 3.15749 2.12828C3.23149 2.19328 3.32899 2.23278 3.43549 2.23278C3.48649 2.23278 3.53499 2.22378 3.58049 2.20728L3.57749 2.20828C4.30249 2.00828 5.02999 1.82328 5.75749 1.63328C6.08849 1.52428 6.36849 1.40378 6.63649 1.26328L6.60499 1.27828C7.05249 1.08578 7.49999 0.878281 7.95249 0.675781C7.82249 0.596281 7.67049 0.536281 7.50899 0.504781L7.49999 0.503281C7.60749 0.423281 7.74999 0.503281 7.85749 0.425781H8.06999Z" fill="black"/>
<path d="M10.29 4.22578C9.43499 4.24478 8.61449 4.35028 7.82399 4.53428L7.90499 4.51828C7.84149 4.52878 7.78899 4.56928 7.76299 4.62478L7.76249 4.62578C7.35599 5.37828 6.99349 6.25528 6.72249 7.17178L6.69749 7.27078C6.69099 7.29128 6.68749 7.31428 6.68749 7.33878C6.68749 7.37478 6.69599 7.40928 6.71099 7.43978L6.71049 7.43828C7.12949 8.34928 7.68349 9.12628 8.35649 9.78178L8.35799 9.78328C8.43799 9.86078 8.52299 9.83328 8.60799 9.82578C8.91299 9.79328 8.92049 9.78828 8.96549 10.0908C9.02799 10.5233 9.07799 10.9558 9.11299 11.3908C9.11299 11.4633 9.11299 11.4833 9.03049 11.4683C7.83199 11.2623 6.81849 10.5963 6.15999 9.66228L6.15049 9.64828C5.72199 9.04578 5.43499 8.31478 5.35199 7.52278L5.35049 7.50328C5.32149 7.31628 5.30499 7.10028 5.30499 6.88028C5.30499 5.98528 5.57799 5.15428 6.04499 4.46578L6.03549 4.48078C6.70799 3.42378 7.82299 2.70028 9.11299 2.56978L9.13049 2.56828C9.24999 2.55578 9.38849 2.54828 9.52899 2.54828C10.4235 2.54828 11.2495 2.84178 11.916 3.33828L11.9055 3.33078C12.902 4.01528 13.5895 5.08828 13.7485 6.32678L13.7505 6.34828C13.794 6.58178 13.819 6.85078 13.819 7.12578C13.819 8.42878 13.258 9.60028 12.364 10.4128L12.3605 10.4163C12.0055 10.7423 11.592 11.0123 11.139 11.2078L11.1105 11.2188C11.0005 11.2663 10.983 11.2388 10.978 11.1288C10.9655 10.6358 10.925 10.1648 10.858 9.70228L10.8655 9.76628C10.8455 9.63878 10.8505 9.55128 11.023 9.55878C11.0245 9.55878 11.026 9.55878 11.028 9.55878C11.219 9.55878 11.383 9.44378 11.4545 9.27928L11.4555 9.27628C11.8985 8.58878 12.2345 7.78578 12.417 6.92578L12.4255 6.87878C12.4325 6.84928 12.436 6.81578 12.436 6.78128C12.436 6.70378 12.4165 6.63028 12.3815 6.56678L12.3825 6.56928C11.953 5.72378 11.4385 4.99678 10.8355 4.35428L10.84 4.35928C10.774 4.27128 10.67 4.21478 10.553 4.21478C10.528 4.21478 10.504 4.21728 10.4805 4.22228L10.483 4.22178C10.4445 4.22628 10.4 4.22828 10.355 4.22828C10.3325 4.22828 10.3095 4.22778 10.2875 4.22628L10.29 4.22578Z" fill="black"/>
<path d="M0.129988 6.75578C0.179988 6.55728 0.243488 6.38528 0.321988 6.22178L0.314988 6.23828C0.439988 5.93078 0.608988 5.66628 0.816988 5.43878L0.814988 5.44078C0.990988 5.21878 1.26049 5.07778 1.56299 5.07778C1.72749 5.07778 1.88249 5.11978 2.01749 5.19278L2.01249 5.19028C2.47149 5.42378 2.84349 5.77128 3.10099 6.19578L3.10749 6.20778C3.56999 6.90428 3.89949 7.72978 4.03799 8.61828L4.04249 8.65278C4.11399 9.06678 4.15499 9.54378 4.15499 10.0298C4.15499 10.3768 4.13399 10.7193 4.09349 11.0558L4.09749 11.0153C4.04249 11.6628 3.86399 12.2573 3.58499 12.7913L3.59749 12.7653C3.53599 12.8783 3.47299 12.9748 3.40349 13.0658L3.40749 13.0603C3.02749 13.5603 2.49499 13.6128 1.95249 13.4028C1.40999 13.1928 1.12249 12.7428 0.874988 12.2278C1.07499 12.2628 1.30549 12.2828 1.54049 12.2828C1.72099 12.2828 1.89899 12.2708 2.07299 12.2483L2.05249 12.2503C2.06349 12.2498 2.07599 12.2493 2.08849 12.2493C2.10099 12.2493 2.11399 12.2498 2.12649 12.2503H2.12499C2.59999 12.1603 2.60249 12.1628 2.69749 11.6578C2.82499 10.9848 2.91499 10.1908 2.94649 9.38178L2.94749 9.35028C2.94849 9.33078 2.94899 9.30828 2.94899 9.28528C2.94899 9.05678 2.90149 8.83928 2.81599 8.64228L2.81999 8.65278C2.47449 7.78378 2.04399 7.03328 1.52349 6.35528L1.53999 6.37778C1.51449 6.33328 1.46749 6.30378 1.41349 6.30378C1.39299 6.30378 1.37399 6.30778 1.35649 6.31528L1.35749 6.31478C0.931988 6.42628 0.563488 6.56478 0.213988 6.73578L0.249988 6.71978C0.214988 6.73478 0.184988 6.76828 0.129988 6.75578Z" fill="black"/>
<path d="M11.81 15.4433C11.847 15.2213 11.8705 14.9618 11.875 14.6983V14.6933C11.8815 14.6528 11.885 14.6063 11.885 14.5588C11.885 14.4418 11.863 14.3298 11.823 14.2268L11.825 14.2328C11.75 14.1228 11.55 14.1478 11.4025 14.1153C10.749 13.9638 9.93099 13.8273 9.09899 13.7363L8.99999 13.7278C8.99499 13.7273 8.98899 13.7273 8.98249 13.7273C8.94249 13.7273 8.90499 13.7358 8.87049 13.7508L8.87199 13.7503C7.88349 14.0983 7.02749 14.5333 6.24149 15.0638L6.28199 15.0378C6.23499 15.0618 6.20349 15.1098 6.20349 15.1648C6.20349 15.1793 6.20549 15.1928 6.20949 15.2063L6.20899 15.2053C6.27699 15.6138 6.40799 15.9803 6.59299 16.3128L6.58399 16.2953C6.02149 16.1553 5.48649 16.0228 5.17649 15.4978C5.09349 15.3543 5.04499 15.1823 5.04499 14.9983C5.04499 14.7113 5.16449 14.4523 5.35649 14.2678C5.73299 13.8648 6.19999 13.5498 6.72499 13.3553L6.74949 13.3473C7.67149 12.9513 8.74449 12.7208 9.87149 12.7208C9.92549 12.7208 9.97899 12.7213 10.0325 12.7223H10.0245C10.736 12.7268 11.4085 12.8898 12.0105 13.1768L11.982 13.1648C12.146 13.2438 12.2875 13.3383 12.414 13.4493L12.412 13.4473C12.623 13.6233 12.756 13.8863 12.756 14.1803C12.756 14.3438 12.7145 14.4978 12.642 14.6323L12.6445 14.6273C12.4445 14.9728 12.161 15.2498 11.8205 15.4368L11.8095 15.4423L11.81 15.4433Z" fill="black"/>
<path d="M9.74999 8.42578C9.72799 8.42678 9.70199 8.42778 9.67549 8.42778C8.87199 8.42778 8.22049 7.77628 8.22049 6.97278C8.22049 6.16928 8.87199 5.51778 9.67549 5.51778C10.446 5.51778 11.0765 6.11628 11.127 6.87378V6.87828C11.1295 6.90878 11.1305 6.94428 11.1305 6.97978C11.1305 7.75578 10.52 8.38928 9.75249 8.42578H9.74899H9.74999Z" fill="black"/>
<path d="M16 8.48078C15.957 9.87528 15.614 11.1793 15.033 12.3448L15.0575 12.2908C14.981 12.4523 14.882 12.5908 14.7625 12.7083C14.6475 12.8158 14.5825 12.7958 14.5575 12.6408C14.536 12.4558 14.524 12.2418 14.524 12.0248C14.524 11.8078 14.536 11.5933 14.56 11.3828L14.5575 11.4088C14.5925 10.7863 14.66 10.1588 14.7475 9.55128C14.88 8.40528 15.0915 7.37478 15.3835 6.37828L15.35 6.51128C15.3845 6.39978 15.4295 6.30278 15.4855 6.21378L15.4825 6.21878C15.5225 6.15878 15.56 6.15128 15.59 6.23628C15.7535 6.66128 15.8765 7.15578 15.937 7.66928L15.94 7.69878C15.97 7.97128 15.9825 8.24578 16 8.48078Z" fill="black"/>
<path d="M1.65999 9.77828C1.66049 9.79578 1.66099 9.81628 1.66099 9.83678C1.66099 10.1328 1.60199 10.4153 1.49499 10.6728L1.50049 10.6583C1.46349 10.7403 1.42199 10.8113 1.37349 10.8763L1.37549 10.8733C1.29049 11.0093 1.14149 11.0983 0.971488 11.0983C0.844988 11.0983 0.729988 11.0488 0.644988 10.9683C0.397988 10.7523 0.217488 10.4653 0.134988 10.1398L0.132488 10.1283C0.0489883 9.87878 0.000488281 9.59128 0.000488281 9.29228C0.000488281 9.02378 0.0394883 8.76378 0.112488 8.51878L0.107488 8.53778C0.150488 8.39828 0.213488 8.27678 0.294488 8.16978L0.292488 8.17278C0.378488 8.03528 0.528988 7.94478 0.700988 7.94478C0.834488 7.94478 0.955488 7.99928 1.04249 8.08728C1.31999 8.35078 1.51499 8.69928 1.58599 9.09128L1.58749 9.10228C1.63249 9.30478 1.65899 9.53778 1.65999 9.77628V9.77828Z" fill="black"/>
<path d="M8.78749 16.3308C8.77699 16.3308 8.76449 16.3313 8.75249 16.3313C8.51249 16.3313 8.28099 16.2938 8.06449 16.2243L8.08049 16.2288C7.97149 16.1938 7.87699 16.1438 7.79299 16.0798L7.79549 16.0813C7.69549 16.0128 7.63049 15.8993 7.63049 15.7703C7.63049 15.6868 7.65749 15.6098 7.70399 15.5473L7.70349 15.5483C7.78499 15.4183 7.89549 15.3133 8.02649 15.2408L8.03099 15.2383C8.46549 14.9773 8.98949 14.8233 9.54949 14.8233C9.79299 14.8233 10.03 14.8523 10.2565 14.9073L10.236 14.9033C10.3625 14.9323 10.474 14.9843 10.571 15.0553L10.5685 15.0533C10.686 15.1218 10.764 15.2473 10.764 15.3913C10.764 15.4973 10.722 15.5933 10.6535 15.6633C10.539 15.8013 10.398 15.9133 10.2385 15.9923L10.231 15.9958C9.81199 16.2073 9.31749 16.3308 8.79399 16.3308C8.79199 16.3308 8.78899 16.3308 8.78749 16.3308Z" fill="black"/>
<path d="M11.0325 1.11328C11.67 1.36128 12.2205 1.67778 12.7145 2.06428L12.7 2.05328C13.5645 2.68128 14.273 3.46828 14.7935 4.37728L14.8125 4.41328C14.83 4.44328 14.86 4.46578 14.8475 4.52078C14.502 4.26728 14.2005 4.02128 13.912 3.76128L13.9225 3.77078C12.985 2.93328 12.0525 2.08828 11.12 1.24578C11.082 1.20928 11.047 1.17128 11.0145 1.13078L11.0125 1.12828L11.0325 1.11328Z" fill="black"/>
<path d="M3.80249 1.64078C3.80249 1.57828 3.85249 1.58078 3.88249 1.56328C4.57599 1.15328 5.38149 0.834281 6.23699 0.650281L6.28999 0.640781C6.31549 0.638281 6.34499 0.637281 6.37499 0.637281C6.40499 0.637281 6.43449 0.638781 6.46399 0.641281L6.45999 0.640781C6.46249 0.645781 6.46449 0.651781 6.46449 0.658281C6.46449 0.674281 6.45449 0.687781 6.44049 0.693281C5.69999 1.11828 4.83849 1.44278 3.92549 1.61978L3.87249 1.62828C3.86149 1.62928 3.84899 1.63028 3.83649 1.63028C3.82399 1.63028 3.81099 1.62978 3.79849 1.62828H3.79999L3.80249 1.64078Z" fill="black"/>
<path d="M11.0125 1.12828C11.0125 1.12828 10.985 1.12828 10.9975 1.10328C11.01 1.07828 11.02 1.10328 11.0325 1.10328L11.0125 1.12828Z" fill="black"/>
</g>
<defs>
<clipPath id="clip0_6_413">
<rect width="16" height="16" fill="white" transform="translate(0 0.37793)"/>
</clipPath>
</defs>
</svg>
