<svg width="17" height="16" viewBox="0 0 17 16" fill="none" xmlns="http://www.w3.org/2000/svg">
<path d="M8.5 11.25C10.571 11.25 12.25 9.571 12.25 7.5V3.75C12.25 1.679 10.571 0 8.5 0C6.429 0 4.75 1.679 4.75 3.75V7.5C4.75 9.571 6.429 11.25 8.5 11.25Z" fill="black"/>
<path d="M9.125 14.75V13.7125C10.551 13.5285 11.7745 12.7825 12.5855 11.708L12.595 11.695L11.55 11C10.8365 11.912 9.736 12.4925 8.5 12.4925C7.264 12.4925 6.1635 11.912 5.4565 11.0085L5.45 11L4.405 11.6875C5.224 12.778 6.4475 13.5265 7.849 13.7095L7.875 13.7125V14.75H2.5V16H14.75V14.75H9.125Z" fill="black"/>
</svg>
