<svg width="16" height="17" viewBox="0 0 16 17" fill="none" xmlns="http://www.w3.org/2000/svg">
<g clip-path="url(#clip0_6_267)">
<path d="M7.126 3.35193C7.354 3.48593 7.6285 3.56493 7.9215 3.56493C8.8015 3.56493 9.515 2.85143 9.515 1.97143C9.515 1.09143 8.8015 0.37793 7.9215 0.37793C7.3335 0.37793 6.8195 0.69693 6.5435 1.17093L6.5395 1.17843C6.4065 1.40593 6.3285 1.67943 6.3285 1.97143C6.3285 2.55843 6.646 3.07143 7.119 3.34793L7.126 3.35193Z" fill="black"/>
<path d="M12.666 9.78493H11.746L12.4125 9.15843C12.091 8.81643 11.7375 8.51143 11.3545 8.24593L11.3325 8.23143L9.9325 9.35793C10.1865 9.48843 10.405 9.62993 10.6075 9.79093L10.5995 9.78443H9.406L7.3325 11.4509H12.5325C12.5345 11.4509 12.5365 11.4509 12.539 11.4509C13.3665 11.4509 14.1195 11.1314 14.681 10.6089L14.679 10.6109L15.679 9.67093L14.5455 8.45743L13.5055 9.44393C13.2855 9.64943 12.991 9.77743 12.667 9.78393H12.6655L12.666 9.78493Z" fill="black"/>
<path d="M15.9995 13.0449H15.673C14.8305 13.1004 14.0675 13.3999 13.4425 13.8724L13.453 13.8649C13.071 14.1844 12.5745 14.3784 12.033 14.3784C12.0215 14.3784 12.0095 14.3784 11.998 14.3779H12C11.9845 14.3784 11.9665 14.3784 11.948 14.3784C11.4165 14.3784 10.929 14.1894 10.5495 13.8749L10.553 13.8779C9.9365 13.4099 9.172 13.1059 8.34 13.0454L8.3265 13.0444H7.68C6.8355 13.0989 6.0695 13.3984 5.443 13.8719L5.4535 13.8644C5.0735 14.1839 4.5785 14.3779 4.038 14.3779C4.0245 14.3779 4.0115 14.3779 3.998 14.3774H4C3.9805 14.3779 3.958 14.3784 3.935 14.3784C3.438 14.3784 2.9815 14.2044 2.623 13.9144L2.627 13.9174L5.7805 11.4509L8.827 8.97743L10.3605 7.71093L13.6605 5.04443L12.607 3.75093L12.0005 4.23093H6.4005C6.102 4.04443 5.7395 3.93343 5.3515 3.93343C4.63 3.93343 3.9975 4.31543 3.6455 4.88893L3.6405 4.89743L2.267 7.04393C2.074 7.34593 1.9595 7.71443 1.9595 8.10943C1.9595 8.81593 2.326 9.43693 2.879 9.79243L2.887 9.79743H0.0005V11.4639H1.554L3.594 9.78393L4.2605 9.26393L6.667 7.32393L7.007 7.04393V6.99743C7.208 6.69493 7.329 6.32393 7.3335 5.92543L10 5.92443L8.34 7.25793L5.8865 9.21143L3.1265 11.4514L0.9265 13.1449C0.752 13.0964 0.5475 13.0609 0.337 13.0454L0.3265 13.0449H0V15.0449C0.0165 15.0449 0.0365 15.0444 0.056 15.0444C0.405 15.0444 0.7445 15.0859 1.069 15.1639L1.0395 15.1579C1.6175 15.3094 2.123 15.5574 2.5645 15.8864L2.553 15.8779C2.928 16.1894 3.4145 16.3784 3.9455 16.3784C3.9645 16.3784 3.9835 16.3779 4.0025 16.3779H3.9995C4.0135 16.3784 4.03 16.3784 4.0465 16.3784C4.5795 16.3784 5.0685 16.1894 5.4495 15.8749L5.4455 15.8779C6.128 15.3574 6.9925 15.0439 7.9305 15.0439C7.9545 15.0439 7.9785 15.0439 8.0025 15.0444H7.999C8.0205 15.0439 8.046 15.0439 8.0715 15.0439C9.01 15.0439 9.8755 15.3574 10.569 15.8854L10.559 15.8779C10.935 16.1894 11.422 16.3784 11.9535 16.3784C11.9695 16.3784 11.9855 16.3784 12.0015 16.3779H11.999C12.0115 16.3784 12.0265 16.3784 12.0415 16.3784C12.576 16.3784 13.0665 16.1894 13.4495 15.8749L13.4455 15.8779C14.124 15.3574 14.9855 15.0439 15.9195 15.0439C15.9475 15.0439 15.975 15.0444 16.003 15.0449H15.999L15.9995 13.0449Z" fill="black"/>
</g>
<defs>
<clipPath id="clip0_6_267">
<rect width="16" height="16" fill="white" transform="translate(0 0.37793)"/>
</clipPath>
</defs>
</svg>
