<svg width="16" height="17" viewBox="0 0 16 17" fill="none" xmlns="http://www.w3.org/2000/svg">
<g clip-path="url(#clip0_6_260)">
<path d="M11.24 7.51814L5.3335 5.27164L1.3335 0.431641L0 1.49814L4.5335 6.87814L3.407 7.44464L1.3335 4.83114L0 5.87764L2.5265 9.04414C2.6805 9.23614 2.915 9.35764 3.178 9.35764C3.1835 9.35764 3.189 9.35764 3.194 9.35764C3.33 9.35464 3.457 9.32314 3.572 9.26864L3.5665 9.27114L4.6665 8.68464L8.3465 10.0781L7.333 10.9846C7.165 11.1386 7.0605 11.3591 7.0605 11.6041C7.0605 11.6946 7.075 11.7821 7.1015 11.8641L7.1 11.8581L7.7 13.6781L2.72 11.8716L2.2665 13.1251L11.153 16.3786L11.6065 15.1251L9.673 14.3786L8.8395 11.8321L10.086 10.7056C10.2485 10.7681 10.436 10.8046 10.6325 10.8056C10.6475 10.8061 10.666 10.8066 10.684 10.8066C11.6305 10.8066 12.3975 10.0396 12.3975 9.09314C12.3975 8.34564 11.919 7.71014 11.2515 7.47614L11.2395 7.47264L11.24 7.51814Z" fill="black"/>
<path d="M15.78 7.88464C15.499 7.40564 14.987 7.08914 14.401 7.08914C13.521 7.08914 12.8075 7.80264 12.8075 8.68264C12.8075 9.56264 13.521 10.2761 14.401 10.2761C14.6925 10.2761 14.966 10.1976 15.201 10.0611L15.1935 10.0651C15.674 9.78314 15.992 9.26864 15.992 8.68064C15.992 8.38814 15.9135 8.11364 15.776 7.87764L15.78 7.88464Z" fill="black"/>
</g>
<defs>
<clipPath id="clip0_6_260">
<rect width="16" height="16" fill="white" transform="translate(0 0.37793)"/>
</clipPath>
</defs>
</svg>
