<svg width="16" height="17" viewBox="0 0 16 17" fill="none" xmlns="http://www.w3.org/2000/svg">
<path d="M9.42674 3.26488L8.60674 3.23138C8.47324 3.21788 8.32674 3.27788 8.22024 3.37788C8.11374 3.47788 8.05374 3.61138 8.05374 3.75788L7.98024 5.85788L7.50024 4.61138C7.40024 4.35138 7.12674 4.21138 6.86674 4.28488L6.06024 4.50488C5.86024 4.55838 5.72024 4.73138 5.68024 4.93138C5.66674 4.87788 5.64674 4.83138 5.61374 4.78488C5.53374 4.66488 5.40724 4.58488 5.26724 4.55838L4.45374 4.41838C4.16024 4.37188 3.88724 4.56488 3.84024 4.85838L3.38024 7.55838L3.10024 6.81188C3.04674 6.67188 2.94024 6.55838 2.80674 6.50538C2.67324 6.44538 2.52024 6.45188 2.38674 6.51188L1.64674 6.85188C1.38674 6.97188 1.26674 7.27188 1.37324 7.54538L2.82674 13.3589C2.90674 13.5724 3.10674 13.7054 3.32674 13.7054C3.34674 13.7054 3.37324 13.7054 3.39324 13.7054L4.17974 13.6054C4.41324 13.5789 4.59324 13.3989 4.63974 13.1654L5.66624 5.45188L5.59974 13.1719C5.59974 13.3184 5.65324 13.4584 5.75324 13.5584C5.85324 13.6584 5.98674 13.7184 6.13324 13.7184H6.94674C7.24024 13.7184 7.47324 13.4784 7.48024 13.1849L7.49374 12.1914L7.85374 13.2049C7.93374 13.4384 8.16724 13.5849 8.40724 13.5649L9.22724 13.4914C9.49374 13.4649 9.70074 13.2449 9.71374 12.9714L9.95374 3.83788C9.96724 3.53788 9.73374 3.29138 9.44024 3.27788L9.42674 3.26488Z" fill="black"/>
<path d="M14.5337 10.4919L13.9802 9.84538C13.8867 9.73188 13.7537 9.66538 13.6067 9.65888C13.4667 9.64538 13.3202 9.69888 13.2132 9.79888L12.1997 10.7524L11.8732 4.39888C11.8532 4.10538 11.5997 3.89238 11.3132 3.89888L10.4732 3.94538C10.3332 3.95188 10.1997 4.01888 10.0997 4.13188C10.0062 4.23838 9.95974 4.38538 9.96624 4.53188L10.4062 12.6584C10.4197 12.8449 10.5262 13.0049 10.6862 13.0984L11.5862 13.5984C11.6662 13.6449 11.7527 13.6649 11.8397 13.6649C11.9732 13.6649 12.1062 13.6114 12.2132 13.5114L14.4997 11.2449C14.6997 11.0449 14.7132 10.7184 14.5262 10.4984L14.5337 10.4919Z" fill="black"/>
</svg>
