<svg width="16" height="17" viewBox="0 0 16 17" fill="none" xmlns="http://www.w3.org/2000/svg">
<g clip-path="url(#clip0_6_577)">
<path d="M13.1065 16.3779H16V13.4844L13.1065 16.3779Z" fill="black"/>
<path d="M2.8265 0.37793L0 3.34443L2.8935 3.27093L2.8265 0.37793Z" fill="black"/>
<path d="M5.6935 8.20443C5.027 8.71793 4.4135 8.97093 4.0135 8.57793C3.4735 8.03793 4.127 7.05143 5.3935 5.78443C6.66 4.51743 7.647 3.86443 8.187 4.37793C8.567 4.75143 8.387 5.23793 7.9335 5.91143L10.0335 6.91143C10.66 5.77143 11.367 4.13793 9.9135 2.67793C8.067 0.83793 5.66 1.54443 3.407 3.79793C1.154 6.05143 0.447 8.46443 2.2935 10.2979C3.7935 11.8044 5.56 10.9644 6.667 10.2979L5.6935 8.20443Z" fill="black"/>
<path d="M15.1935 12.0714C15.82 10.9314 16.527 9.29793 15.067 7.83793C13.227 5.99793 10.8205 6.70443 8.567 8.95793C6.3135 11.2114 5.607 13.6244 7.4535 15.4579C8.9535 16.9579 10.72 16.1244 11.82 15.4579L10.8535 13.3779C10.187 13.8979 9.5735 14.1514 9.1735 13.7579C8.6335 13.2179 9.287 12.2314 10.5535 10.9644C11.82 9.69743 12.807 9.04443 13.3335 9.56443C13.7135 9.93793 13.5335 10.4244 13.08 11.0979L15.1935 12.0714Z" fill="black"/>
</g>
<defs>
<clipPath id="clip0_6_577">
<rect width="16" height="16" fill="white" transform="translate(0 0.37793)"/>
</clipPath>
</defs>
</svg>
