<svg width="16" height="17" viewBox="0 0 16 17" fill="none" xmlns="http://www.w3.org/2000/svg">
<g clip-path="url(#clip0_6_498)">
<path d="M13.6665 15.0444C13.6665 15.7809 13.0695 16.3779 12.333 16.3779H4.9995C4.263 16.3779 3.666 15.7809 3.666 15.0444V14.3779H13.666L13.6665 15.0444Z" fill="black"/>
<path d="M3.04 5.04443C3.1 5.47193 3.177 5.84193 3.275 6.20293L3.26 6.13743C3.4025 6.60643 3.4895 7.14643 3.5 7.70493V7.71093H4.5C4.489 7.06793 4.39 6.45243 4.2145 5.86943L4.227 5.91743C4.113 5.52693 4.0325 5.07243 4.0015 4.60393L4.0005 4.58443V2.37793C4.0005 1.27343 4.896 0.37793 6.0005 0.37793H10.667C12.876 0.37793 14.667 2.16893 14.667 4.37793V9.04443L13.4135 13.0444H4L1.3335 9.04443V7.04443C1.3335 7.03793 1.3335 7.03043 1.3335 7.02293C1.3335 6.02193 2.069 5.19243 3.029 5.04593L3.04 5.04443Z" fill="black"/>
</g>
<defs>
<clipPath id="clip0_6_498">
<rect width="16" height="16" fill="white" transform="translate(0 0.37793)"/>
</clipPath>
</defs>
</svg>
