<svg width="17" height="16" viewBox="0 0 17 16" fill="none" xmlns="http://www.w3.org/2000/svg">
<g clip-path="url(#clip0_6_268)">
<path d="M5.3925 1.99968L0.7925 7.22468C0.611 7.43018 0.5 7.70218 0.5 7.99968C0.5 8.29718 0.611 8.56918 0.794 8.77568L0.793 8.77418L5.393 13.9992C5.61 14.2432 5.925 14.3962 6.2755 14.3967H15.328C15.9745 14.3967 16.499 13.8732 16.5005 13.2267V2.77168C16.5005 2.77068 16.5005 2.77018 16.5005 2.76918C16.5005 2.12168 15.9755 1.59668 15.328 1.59668H6.2755C5.924 1.59868 5.6095 1.75318 5.394 1.99768L5.3925 1.99968ZM13.3675 9.82468L12.4625 10.7247L10.6425 8.90468L8.8225 10.7247L7.9175 9.81968L9.75 7.99968L7.93 6.17968L8.835 5.27468L10.655 7.09468L12.475 5.27468L13.38 6.17968L11.5475 7.99968L13.3675 9.82468Z" fill="black"/>
</g>
<defs>
<clipPath id="clip0_6_268">
<rect width="16" height="16" fill="white" transform="translate(0.5)"/>
</clipPath>
</defs>
</svg>
