<svg width="16" height="17" viewBox="0 0 16 17" fill="none" xmlns="http://www.w3.org/2000/svg">
<g clip-path="url(#clip0_6_362)">
<path d="M14.4667 1.37841L14.9267 0.711914H13.7867C9.82669 0.711914 9.78669 6.21191 7.70019 6.21191C5.74019 6.21191 3.44669 6.33841 2.80019 7.72541C2.10469 7.86641 1.55719 8.38041 1.37019 9.04541L1.36719 9.05841C0.887191 10.6049 0.0336914 10.5919 0.0336914 10.5919V13.3719C1.42719 13.3719 2.35369 10.9454 2.78719 9.47191C3.08069 10.2854 3.68719 10.8519 3.66069 11.0719C3.62069 11.4119 2.63419 12.4584 2.63419 12.4584V16.3784H3.43419C3.43419 16.3784 3.54069 13.1919 3.78769 12.9049C4.03469 12.6179 5.92769 11.3449 6.20119 9.84491C6.20119 9.84491 10.1412 10.1784 11.3612 8.04491H12.5812C12.5812 8.04491 11.7547 9.95841 10.5347 9.95841L10.1412 11.0449C10.1412 11.0449 14.6277 10.4849 14.6277 6.98491C14.6277 6.98491 13.1877 6.41141 13.1877 4.01841C13.1877 4.01841 13.6877 5.46491 14.7942 4.99191L15.3677 5.89841L16.0012 5.00491L14.4667 1.37841Z" fill="black"/>
</g>
<defs>
<clipPath id="clip0_6_362">
<rect width="16" height="16" fill="white" transform="translate(0 0.37793)"/>
</clipPath>
</defs>
</svg>
