<svg width="16" height="16" viewBox="0 0 16 16" fill="none" xmlns="http://www.w3.org/2000/svg">
<g clip-path="url(#clip0_854_520)">
<path d="M6.20247 6.62422C6.43218 6.62422 6.61196 6.43446 6.61196 6.21473C6.61196 5.99501 6.43218 5.80524 6.20247 5.80524C5.97276 5.80524 5.79298 5.99501 5.79298 6.21473C5.79298 6.43446 5.97276 6.62422 6.20247 6.62422Z" fill="black"/>
<path d="M10.3073 8.37204C10.8966 8.03246 11.5558 7.8427 12.2549 7.80275C12.3248 7.79276 12.4147 7.79276 12.5046 7.79276H12.5146C12.974 7.79276 13.4035 7.85268 13.773 7.98252L13.8629 8.0025H13.8829C14.0427 8.06242 14.1925 8.12235 14.3423 8.18227C14.3223 8.12235 14.3223 8.05243 14.3223 7.99251C14.3223 7.07366 15.0714 6.33458 15.9902 6.33458V2.66916C15.9902 2.29963 15.6906 2 15.3211 2H0.659398C0.28986 2 -0.00976562 2.29963 -0.00976562 2.66916V6.33458C0.869136 6.37453 1.56826 7.10362 1.56826 7.99251C1.56826 8.8814 0.869136 9.61049 -0.00976562 9.66042V13.3258C-0.00976562 13.6854 0.28986 13.985 0.659398 13.985H8.36976C8.30983 13.8452 8.2599 13.7054 8.21995 13.5655V13.5156L8.19997 13.4956V13.4557C8.08012 13.0961 8.0202 12.6966 8.0202 12.2772C8.0202 11.618 8.15003 11.0087 8.4197 10.4494C8.8991 9.45069 9.58824 8.78152 10.3073 8.37204ZM6.20247 4.69663C7.04142 4.69663 7.71058 5.37578 7.71058 6.21473C7.71058 7.05368 7.04142 7.72285 6.20247 7.72285C5.36352 7.72285 4.69435 7.0437 4.69435 6.21473C4.69435 5.38577 5.36352 4.69663 6.20247 4.69663ZM6.08262 11.2884H4.69435L9.84791 4.69663H11.2462L6.08262 11.2884Z" fill="black"/>
<path d="M13.5133 8.94132C13.5133 8.94132 13.4734 8.93134 13.4534 8.92135C13.1638 8.82147 12.8442 8.78152 12.5146 8.78152H12.5046C12.5046 8.78152 12.3947 8.78152 12.3448 8.79151C11.1163 8.84145 10.0477 9.54057 9.46839 10.5593C9.44841 10.5893 9.43842 10.6192 9.42844 10.6492C9.15877 11.1286 9.01895 11.6779 9.01895 12.2672C9.01895 12.5768 9.0589 12.8864 9.14879 13.166C9.15877 13.206 9.16876 13.236 9.17875 13.2759C9.59822 14.7141 10.9366 15.7528 12.5046 15.7528C13.3336 15.7528 14.0926 15.4632 14.6919 14.9638C15.4909 14.3346 15.9902 13.3558 15.9902 12.2672C15.9902 10.6991 14.9515 9.3608 13.5133 8.94132ZM14.4322 13.4856L13.6432 14.2747L12.5246 13.1561L11.396 14.2747L10.617 13.4856L11.7356 12.3571L10.617 11.2385L11.396 10.4395L12.5246 11.568L13.6432 10.4395L14.4322 11.2385L13.3136 12.3571L14.4322 13.4856Z" fill="black"/>
</g>
<defs>
<clipPath id="clip0_854_520">
<rect width="16" height="16" fill="white"/>
</clipPath>
</defs>
</svg>
