<svg width="16" height="17" viewBox="0 0 16 17" fill="none" xmlns="http://www.w3.org/2000/svg">
<g clip-path="url(#clip0_6_386)">
<path d="M4.24665 2.5445C4.30915 2.379 4.34565 2.188 4.34565 1.9885C4.34565 1.0975 3.62315 0.375 2.73215 0.375C1.84115 0.375 1.11865 1.0975 1.11865 1.9885C1.11865 2.6815 1.55565 3.272 2.16865 3.501L2.17965 3.5045C2.34365 3.566 2.53365 3.602 2.73165 3.602C3.42315 3.602 4.01315 3.167 4.24265 2.5555L4.24665 2.5445Z" fill="black"/>
<path d="M14.8537 1.818C12.2902 1.91 10.0607 3.258 8.75165 5.262L8.73365 5.291L7.28015 4.4445L8.86015 3.918C9.20415 3.798 9.44665 3.476 9.44665 3.098C9.44665 3.0225 9.43715 2.949 9.41865 2.879L9.42015 2.885L8.82665 0.4915L7.14665 0.9115L7.54665 2.525L4.66665 3.485C4.26615 3.605 3.94065 3.87 3.74415 4.217L3.74015 4.225L3.64665 4.3785V4.4185C3.62365 4.446 3.60165 4.4765 3.58215 4.5085L3.58015 4.512L2.29365 7.312C2.24715 7.4155 2.22015 7.536 2.22015 7.663C2.22015 7.9885 2.39865 8.273 2.66265 8.423L2.66715 8.4255L5.11365 9.8055L5.96715 8.299L4.20065 7.3055L4.47415 6.712L7.71415 8.5985V8.5385V16.3785H9.38065V7.945C10.4342 3.625 14.6672 3.4915 14.8472 3.485L14.8537 1.818Z" fill="black"/>
</g>
<defs>
<clipPath id="clip0_6_386">
<rect width="16" height="16" fill="white" transform="translate(0 0.37793)"/>
</clipPath>
</defs>
</svg>
