<svg width="16" height="17" viewBox="0 0 16 17" fill="none" xmlns="http://www.w3.org/2000/svg">
<g clip-path="url(#clip0_6_261)">
<path d="M9.12643 3.35095C9.35443 3.48495 9.62893 3.56395 9.92193 3.56395C10.8019 3.56395 11.5154 2.85045 11.5154 1.97045C11.5154 1.09045 10.8019 0.376953 9.92193 0.376953C9.33393 0.376953 8.81993 0.695953 8.54393 1.16995L8.53993 1.17745C8.40693 1.40495 8.32893 1.67845 8.32893 1.97045C8.32893 2.55745 8.64643 3.07045 9.11943 3.34695L9.12643 3.35095Z" fill="black"/>
<path d="M13.4264 11.811C12.6409 12.486 11.6119 12.897 10.4864 12.8975H4.48493C3.35693 12.8975 2.32543 12.4835 1.53393 11.7995L1.53943 11.8045L0.419434 13.0445C1.12743 13.663 1.98793 14.1255 2.93643 14.3685L2.97943 14.378C2.78493 14.583 2.66543 14.861 2.66543 15.1665C2.66543 15.182 2.66593 15.198 2.66643 15.2135V15.2115C2.66643 15.856 3.18893 16.378 3.83293 16.378C4.47693 16.378 4.99943 15.8555 4.99943 15.2115C4.99943 15.2065 4.99943 15.2005 4.99943 15.194C4.99943 14.9525 4.92743 14.7275 4.80343 14.54L4.80593 14.5445H10.1924C10.0714 14.7275 9.99893 14.9525 9.99893 15.194C9.99893 15.2 9.99893 15.206 9.99893 15.212V15.211C9.99893 15.8555 10.5214 16.3775 11.1654 16.3775C11.8094 16.3775 12.3319 15.855 12.3319 15.211C12.3224 14.882 12.1809 14.588 11.9589 14.378C12.9354 14.1375 13.7844 13.69 14.4934 13.084L14.4849 13.091L13.9714 12.4245L13.4264 11.811Z" fill="black"/>
<path d="M11.5599 5.29095C11.4249 5.29095 11.2979 5.25395 11.1899 5.18895L11.1934 5.19095L10.3469 4.68445C10.2044 4.71095 10.0399 4.72645 9.87193 4.72645C9.38243 4.72645 8.92343 4.59745 8.52643 4.37095L8.53993 4.37795C7.85043 3.97245 7.35793 3.29395 7.20943 2.49495L7.20693 2.47795L6.18043 1.71145C5.68743 1.34895 5.06843 1.13145 4.39893 1.13145C4.39743 1.13145 4.39543 1.13145 4.39393 1.13145H2.20743V2.79795H4.56093C4.75043 2.79995 4.92593 2.85945 5.07043 2.95995L5.06743 2.95795L6.40093 3.91795C6.37993 3.93695 6.36193 3.95895 6.34843 3.98345L6.34793 3.98495L5.60793 5.26495C5.47243 5.49695 5.39243 5.77645 5.39243 6.07395C5.39243 6.18145 5.40293 6.28695 5.42293 6.38845L5.42143 6.37795V7.80445C5.42143 7.80645 5.42143 7.80845 5.42143 7.81095C5.42143 8.04945 5.32743 8.26545 5.17443 8.42495L3.20143 10.4915L4.40793 11.638L6.40793 9.55145C6.82043 9.12295 7.07443 8.53945 7.07443 7.89695C7.07443 7.89295 7.07443 7.88845 7.07443 7.88445C7.13943 7.89345 7.21443 7.89895 7.29093 7.89895C7.59943 7.89895 7.88843 7.81445 8.13543 7.66745L8.12793 7.67145L9.41443 8.63145L8.40093 10.698L9.89443 11.4315L10.9679 9.24495C11.0659 9.05095 11.1234 8.82195 11.1234 8.57995C11.1234 8.08995 10.8884 7.65495 10.5249 7.38095L10.5209 7.37795L9.14093 6.37795L9.33443 6.04445L9.88793 6.37095C10.5154 6.75195 11.2734 6.97745 12.0844 6.97745C12.0879 6.97745 12.0914 6.97745 12.0949 6.97745H14.4944V5.29095H11.5599Z" fill="black"/>
</g>
<defs>
<clipPath id="clip0_6_261">
<rect width="16" height="16" fill="white" transform="translate(0 0.37793)"/>
</clipPath>
</defs>
</svg>
