<svg width="16" height="17" viewBox="0 0 16 17" fill="none" xmlns="http://www.w3.org/2000/svg">
<g clip-path="url(#clip0_6_326)">
<path d="M8 0.37793C3.5815 0.37793 0 3.95943 0 8.37793C0 12.7964 3.5815 16.3779 8 16.3779C12.4185 16.3779 16 12.7964 16 8.37793C16 3.95943 12.4185 0.37793 8 0.37793ZM8 2.12793C10.552 2.12843 12.746 3.65793 13.7165 5.85043L13.7325 5.89043C12.9975 5.76543 12.2575 5.67293 11.565 5.60793L9.2875 5.03793C8.901 4.93643 8.4575 4.87843 8 4.87843C7.5425 4.87843 7.099 4.93643 6.676 5.04593L6.7125 5.03793L4.435 5.60793C3.7425 5.67293 3.0025 5.76543 2.2675 5.89043C3.254 3.65793 5.448 2.12843 8 2.12793ZM6.375 14.4129C4.1365 13.7904 2.4275 12.0149 1.911 9.78293L1.9025 9.74043C2.736 9.50343 3.725 9.31693 4.739 9.21843L4.81 9.21293C5.5295 9.40243 6.101 9.91393 6.3695 10.5799L6.375 10.5954V14.4129ZM8 9.50293C6.9645 9.50293 6.125 8.66343 6.125 7.62793C6.125 6.59243 6.9645 5.75293 8 5.75293C9.0355 5.75293 9.875 6.59243 9.875 7.62793C9.875 8.66343 9.0355 9.50293 8 9.50293ZM9.625 14.4129V10.5954C9.899 9.91393 10.4705 9.40243 11.174 9.21643L11.19 9.21293C12.275 9.31693 13.264 9.50343 14.2195 9.76943L14.0975 9.74043C13.5725 12.0149 11.8635 13.7904 9.669 14.4024L9.625 14.4129Z" fill="black"/>
<path d="M9.125 7.62793C9.125 8.24943 8.6215 8.75293 8 8.75293C7.3785 8.75293 6.875 8.24943 6.875 7.62793C6.875 7.00643 7.3785 6.50293 8 6.50293C8.6215 6.50293 9.125 7.00643 9.125 7.62793Z" fill="black"/>
</g>
<defs>
<clipPath id="clip0_6_326">
<rect width="16" height="16" fill="white" transform="translate(0 0.37793)"/>
</clipPath>
</defs>
</svg>
