<svg width="16" height="17" viewBox="0 0 16 17" fill="none" xmlns="http://www.w3.org/2000/svg">
<g clip-path="url(#clip0_6_231)">
<path d="M3.33398 7.71214C3.33398 7.71564 3.33398 7.71964 3.33398 7.72364C3.33398 8.82615 3.65198 9.85465 4.20098 10.7216L4.18748 10.6986L0.000976562 14.3786L2.00098 16.3786L5.66098 12.1921C6.50648 12.7276 7.53648 13.0456 8.63998 13.0456C8.64948 13.0456 8.65948 13.0456 8.66898 13.0456H8.66748L3.33398 7.71214Z" fill="black"/>
<path d="M14.494 1.88564C12.6675 0.0591445 9.73398 -0.0808555 7.26048 1.31914L7.72698 3.57914H9.22698L9.89348 8.11264L8.23998 5.19264L6.49998 5.85914L5.17998 3.04564C4.55548 3.76264 4.05848 4.61014 3.73598 5.53864L3.71998 5.59214L10.7935 12.6386C11.9585 12.2486 12.9545 11.6221 13.767 10.8116C16.4335 8.14514 16.754 4.15214 14.494 1.88564Z" fill="black"/>
</g>
<defs>
<clipPath id="clip0_6_231">
<rect width="16" height="16" fill="white" transform="translate(0 0.37793)"/>
</clipPath>
</defs>
</svg>
