<svg width="16" height="17" viewBox="0 0 16 17" fill="none" xmlns="http://www.w3.org/2000/svg">
<path d="M3.5876 6.56531H12.9126C13.2371 6.56531 13.5001 6.30231 13.5001 5.97781V5.15281C13.5001 4.82831 13.2371 4.56531 12.9126 4.56531H5.6626L5.9976 3.56531C6.1206 3.20231 6.4586 2.94531 6.8566 2.94531C6.8561 2.94531 6.8571 2.94531 6.8566 2.94531H12.3751C12.7201 2.94531 13.0001 2.66531 13.0001 2.32031C13.0001 1.97531 12.7201 1.69531 12.3751 1.69531H6.8551C6.8541 1.69531 6.8536 1.69531 6.8526 1.69531C5.9056 1.69531 5.1016 2.30581 4.8121 3.15531L4.8076 3.17031L4.3401 4.57031H3.5901C3.5891 4.57031 3.5886 4.57031 3.5876 4.57031C3.2651 4.57031 3.0031 4.83031 3.0001 5.15231V5.97781C3.0001 6.30231 3.2631 6.56531 3.5876 6.56531Z" fill="black"/>
<path d="M3.7501 15.0653H12.2501C14.1431 15.0633 15.7076 13.6588 15.9606 11.8348L15.9626 11.8153H0.0375977C0.292598 13.6588 1.8571 15.0633 3.7501 15.0653Z" fill="black"/>
<path d="M12.2501 7.56531H3.7501C1.8571 7.56731 0.292598 8.97181 0.0395977 10.7958L0.0375977 10.8153H15.9626C15.7076 8.97181 14.1431 7.56731 12.2501 7.56531Z" fill="black"/>
</svg>
