<svg width="16" height="17" viewBox="0 0 16 17" fill="none" xmlns="http://www.w3.org/2000/svg">
<g clip-path="url(#clip0_6_192)">
<path d="M15.2198 10.6579L14.6798 9.43791L12.6863 10.3114L10.9398 9.30491L13.0398 8.37841L10.9398 7.45191L12.6863 6.44541L14.6798 7.31891L15.2198 6.10541L14.1198 5.61891L15.2598 4.95891L14.5933 3.79891L13.4533 4.46541L13.5798 3.26541L12.2533 3.12541L12.0198 5.28541L10.2733 6.29891L10.5198 4.01241L8.66626 5.37241V3.35241L10.4263 2.06591L9.63976 0.992406L8.66626 1.69891V0.378906H7.33276V1.69891L6.35926 0.992406L5.57276 2.06591L7.33276 3.35241V5.37241L5.47926 4.01241L5.72576 6.29891L3.97926 5.28541L3.74576 3.12541L2.41926 3.26541L2.54576 4.46541L1.40576 3.79891L0.739258 4.95891L1.87926 5.61891L0.779258 6.10541L1.31926 7.31891L3.31276 6.44541L5.05926 7.45191L2.95926 8.37841L5.05926 9.30491L3.31276 10.3114L1.31926 9.43791L0.779258 10.6579L1.87926 11.1379L0.739258 11.8044L1.40576 12.9579L2.54576 12.2979L2.41926 13.4914L3.74576 13.6379L3.97926 11.4714L5.72576 10.4579L5.47926 12.7444L7.33276 11.3844V13.4044L5.57276 14.6909L6.35926 15.7644L7.33276 15.0579V16.3779H8.66626V15.0579L9.63976 15.7644L10.4263 14.6909L8.66626 13.4044V11.3844L10.5198 12.7444L10.2733 10.4579L12.0198 11.4714L12.2533 13.6379L13.5798 13.4914L13.4533 12.2979L14.5933 12.9579L15.2598 11.8044L14.1198 11.1379L15.2198 10.6579Z" fill="black"/>
</g>
<defs>
<clipPath id="clip0_6_192">
<rect width="16" height="16" fill="white" transform="translate(0 0.37793)"/>
</clipPath>
</defs>
</svg>
