<svg width="17" height="16" viewBox="0 0 17 16" fill="none" xmlns="http://www.w3.org/2000/svg">
<g clip-path="url(#clip0_6_210)">
<path d="M0.5 0V12.3935H16.5V0H0.5ZM10.2135 7.2H8.267C7.8435 8.364 6.747 9.18 5.46 9.18C3.814 9.18 2.48 7.846 2.48 6.2C2.48 4.554 3.814 3.22 5.46 3.22C6.7475 3.22 7.844 4.036 8.2605 5.1795L8.267 5.2H10.2135V7.2ZM14.5 10.4865H12.5V7.4665H14.5V10.4865ZM14.5 4.9335H12.5V1.9135H14.5V4.9335Z" fill="black"/>
<path d="M6.4735 6.2C6.4735 6.7525 6.026 7.2 5.4735 7.2C4.921 7.2 4.4735 6.7525 4.4735 6.2C4.4735 5.6475 4.921 5.2 5.4735 5.2C6.026 5.2 6.4735 5.6475 6.4735 6.2Z" fill="black"/>
<path d="M1.8335 16H5.18L6.32 14.06H1.8335V16Z" fill="black"/>
<path d="M11.82 16H15.1665V14.06H10.68L11.82 16Z" fill="black"/>
</g>
<defs>
<clipPath id="clip0_6_210">
<rect width="16" height="16" fill="white" transform="translate(0.5)"/>
</clipPath>
</defs>
</svg>
