<svg width="16" height="17" viewBox="0 0 16 17" fill="none" xmlns="http://www.w3.org/2000/svg">
<g clip-path="url(#clip0_6_565)">
<path d="M12.6752 0.460617C12.7697 0.917117 12.9437 1.32162 13.1827 1.67762L13.1752 1.66562C13.5357 2.21412 14.0737 2.62062 14.7057 2.80562L14.7252 2.81062C14.8277 2.84062 14.9352 2.85812 15.0402 2.88062C14.7432 3.43612 14.5127 4.08012 14.3822 4.76012L14.3752 4.80312C14.3142 5.10962 14.2792 5.46262 14.2792 5.82312C14.2792 6.51012 14.4062 7.16762 14.6382 7.77312L14.6257 7.73562C14.7707 8.12312 14.9332 8.50562 15.0507 8.90562C15.1817 9.31762 15.2572 9.79162 15.2572 10.2836C15.2572 11.0886 15.0547 11.8461 14.6982 12.5081L14.7107 12.4831C14.2302 13.4101 13.4997 14.1506 12.6077 14.6301L12.5807 14.6431C12.1017 14.8996 11.5467 15.1046 10.9622 15.2281L10.9207 15.2356C10.2957 15.3781 9.67073 15.4856 9.04073 15.6281C8.95073 15.6481 8.86323 15.6806 8.77323 15.6981C8.64973 15.7276 8.54473 15.7946 8.46923 15.8871L8.46824 15.8881C8.33323 16.0431 8.18573 16.1881 8.05073 16.3406C8.00573 16.3906 7.98573 16.3806 7.94823 16.3406C7.78573 16.1631 7.61823 15.9881 7.44823 15.8131C7.41523 15.7786 7.37373 15.7521 7.32773 15.7361L7.32573 15.7356C7.05873 15.6491 6.71773 15.5626 6.36973 15.4951L6.31073 15.4856C5.54123 15.3566 4.88473 15.2021 4.24473 15.0101L4.36323 15.0406C2.94573 14.6056 1.81323 13.6116 1.20373 12.3216L1.19073 12.2906C0.906734 11.7016 0.740234 11.0101 0.740234 10.2796C0.740234 10.1701 0.744234 10.0611 0.751234 9.95362L0.750234 9.96812C0.798734 9.37762 0.935234 8.83162 1.14573 8.32462L1.13273 8.36062C1.28073 8.02012 1.42823 7.59962 1.54823 7.16712L1.56523 7.09562C1.60573 6.95212 1.63773 6.78212 1.65423 6.60762L1.65523 6.59562C1.68123 6.46762 1.69723 6.31962 1.70023 6.16812V6.16562C1.70523 6.07262 1.70823 5.96412 1.70823 5.85512C1.70823 4.94112 1.51123 4.07312 1.15723 3.29162L1.17323 3.33062C1.11373 3.16962 1.04473 3.03112 0.962734 2.90112L0.968234 2.91062C0.968234 2.91062 0.968234 2.89062 0.968234 2.87812C2.31073 2.62812 3.00073 1.72562 3.33323 0.460617C3.42073 0.538117 3.50823 0.618117 3.59823 0.693117C3.96973 1.02312 4.40623 1.29012 4.88473 1.47112L4.91323 1.48062C5.12173 1.55562 5.36223 1.59862 5.61273 1.59862C5.74973 1.59862 5.88423 1.58562 6.01423 1.56062L6.00073 1.56262C6.79023 1.40562 7.46423 0.992617 7.94873 0.415117L7.95273 0.410117C8.00023 0.377617 8.00023 0.377617 8.04523 0.410117C8.48423 0.927617 9.06423 1.31312 9.72523 1.50862L9.75023 1.51512C9.93573 1.56762 10.1482 1.59762 10.3682 1.59762C10.8137 1.59762 11.2302 1.47412 11.5857 1.25912L11.5752 1.26512C11.9682 1.04562 12.3077 0.797117 12.6132 0.512117L12.6102 0.515117C12.6352 0.485117 12.6452 0.458117 12.6752 0.460617ZM1.72273 3.23812C1.99173 3.82962 2.17873 4.51612 2.24823 5.23662L2.25023 5.26312C2.26673 5.43112 2.27623 5.62612 2.27623 5.82312C2.27623 6.24412 2.23323 6.65512 2.15073 7.05212L2.15773 7.01312C2.04223 7.52512 1.89873 7.96762 1.72023 8.39162L1.74023 8.33812C1.56373 8.74062 1.42373 9.20962 1.34273 9.69812L1.33773 9.73312C1.31273 9.90362 1.29823 10.1006 1.29823 10.3011C1.29823 10.8876 1.42123 11.4451 1.64323 11.9496L1.63273 11.9231C2.16573 13.1166 3.14973 14.0286 4.36273 14.4531L4.39523 14.4631C4.88323 14.6316 5.46723 14.7761 6.06773 14.8706L6.12773 14.8781C6.47773 14.9481 6.83273 15.0031 7.17773 15.0956C7.45223 15.1346 7.69223 15.2586 7.87523 15.4406C7.91273 15.4856 7.96023 15.5531 8.00023 15.5506C8.04023 15.5481 8.08273 15.4781 8.12523 15.4381C8.18873 15.3671 8.26224 15.3061 8.34324 15.2581L8.34773 15.2556C8.56273 15.1606 8.81373 15.0821 9.07523 15.0316L9.09773 15.0281C9.73023 14.8981 10.3677 14.7906 10.9977 14.6381C12.1262 14.3846 13.0837 13.7726 13.7682 12.9296L13.7752 12.9206C14.3577 12.2176 14.7112 11.3066 14.7112 10.3131C14.7112 9.94812 14.6632 9.59362 14.5737 9.25662L14.5802 9.28512C14.4587 8.83012 14.3222 8.44512 14.1592 8.07462L14.1802 8.12762C13.9147 7.48762 13.7522 6.74562 13.7327 5.96762V5.96012C13.7317 5.91962 13.7312 5.87212 13.7312 5.82462C13.7312 4.90612 13.9222 4.03262 14.2662 3.24062L14.2502 3.28262C14.2677 3.24262 14.2652 3.23012 14.2227 3.21762C13.7717 3.07612 13.3887 2.82512 13.0922 2.49512L13.0902 2.49262C12.8147 2.19512 12.5942 1.84162 12.4477 1.45212L12.4402 1.43012C12.4202 1.38012 12.4102 1.37512 12.3677 1.41262C12.1877 1.56612 11.9852 1.70362 11.7682 1.81662L11.7502 1.82512C11.4242 1.99962 11.0412 2.11512 10.6352 2.14712L10.6252 2.14762C10.5612 2.15212 10.4872 2.15462 10.4117 2.15462C9.75873 2.15462 9.14973 1.96562 8.63673 1.63962L8.65023 1.64762C8.40523 1.49162 8.19223 1.32012 8.00023 1.12762C7.87473 1.25112 7.73923 1.36512 7.59523 1.46812L7.58523 1.47512C7.10123 1.83362 6.50873 2.07212 5.86473 2.13662L5.85023 2.13762C5.77723 2.14412 5.69173 2.14812 5.60573 2.14812C5.06374 2.14812 4.55623 2.00012 4.12173 1.74312L4.13523 1.75062C3.92323 1.63812 3.74073 1.51412 3.57273 1.37412L3.57773 1.37812C3.22773 2.26812 2.66023 2.93562 1.72273 3.23812Z" fill="black"/>
<path d="M1.92023 10.5056C1.88773 10.4306 1.94523 10.3856 2.01273 10.3331C3.72107 9.05645 5.4269 7.77645 7.13023 6.49312L12.3002 2.60562C12.3427 2.57312 12.3627 2.57062 12.3952 2.61812C12.6717 2.99512 13.0167 3.30412 13.4142 3.53212L13.4302 3.54062C13.4542 3.54962 13.4712 3.57262 13.4712 3.59912C13.4712 3.61062 13.4682 3.62162 13.4627 3.63062C13.2387 4.28812 13.1097 5.04462 13.1097 5.83212C13.1097 5.86212 13.1097 5.89262 13.1102 5.92262V5.91812C13.1117 6.22262 13.1362 6.52062 13.1822 6.81112L13.1777 6.77812C13.1787 6.78362 13.1792 6.78962 13.1792 6.79562C13.1792 6.82862 13.1617 6.85712 13.1352 6.87312L8.48223 10.3781C7.04557 11.4581 5.60807 12.5414 4.16973 13.6281C4.15023 13.6451 4.12523 13.6556 4.09723 13.6556C4.06923 13.6556 4.04373 13.6451 4.02473 13.6281C3.19473 13.1921 2.54973 12.4981 2.18723 11.6541L2.17723 11.6281C2.03673 11.2981 1.94423 10.9161 1.92023 10.5151V10.5056ZM5.79273 10.3781H5.78023C5.76873 10.3636 5.75773 10.3471 5.74873 10.3301L5.74773 10.3281L4.85523 8.96312C4.82773 8.92062 4.81023 8.91062 4.76523 8.94562L3.80273 9.67312C3.78273 9.68562 3.75773 9.69312 3.75273 9.72312C3.95723 9.73512 4.11873 9.90362 4.11873 10.1101C4.11873 10.1281 4.11773 10.1456 4.11523 10.1626V10.1606V12.9556L4.18273 12.9056C4.39773 12.7431 4.61273 12.5806 4.83023 12.4206C4.86223 12.3996 4.88323 12.3641 4.88323 12.3241C4.88323 12.3211 4.88323 12.3181 4.88273 12.3156C4.88273 11.7056 4.88273 11.0961 4.88273 10.4861C4.87923 10.4751 4.87723 10.4626 4.87723 10.4496C4.87723 10.4366 4.87923 10.4241 4.88273 10.4126L5.75023 11.7286L6.50023 11.1586C6.52923 11.1401 6.54873 11.1081 6.54873 11.0716C6.54873 11.0671 6.54823 11.0626 6.54773 11.0581V7.62862L6.50023 7.66112C6.27773 7.82862 6.05523 7.99862 5.83023 8.16112C5.79973 8.18212 5.78023 8.21662 5.78023 8.25612C5.78023 8.25812 5.78023 8.25962 5.78023 8.26162C5.78023 8.94912 5.78023 9.63862 5.78023 10.3261L5.79273 10.3781ZM9.64023 5.29812L8.92023 5.84062C8.89023 5.86062 8.89273 5.88812 8.89273 5.91562C8.89273 6.31062 8.89273 6.70312 8.89273 7.09812C8.89273 7.10012 8.89273 7.10262 8.89273 7.10512C8.89273 7.14162 8.87373 7.17412 8.84523 7.19312C8.65273 7.33312 8.46223 7.47862 8.27223 7.62112L8.02223 7.80362V6.50862L6.86723 7.37862C7.01123 7.38712 7.13473 7.46862 7.20123 7.58662L7.20223 7.58862C7.22973 7.64962 7.24573 7.72062 7.24573 7.79562C7.24573 7.80612 7.24523 7.81712 7.24473 7.82762V7.82612V10.5211C7.24073 10.5321 7.23823 10.5446 7.23823 10.5576C7.23823 10.5706 7.24073 10.5831 7.24473 10.5946V10.5936C7.26373 10.5836 7.28023 10.5726 7.29523 10.5606C7.52273 10.3906 7.74723 10.2186 7.97473 10.0611C8.00223 10.0426 8.02024 10.0111 8.02024 9.97612C8.02024 9.97262 8.02023 9.96912 8.01973 9.96612V8.78912C8.01973 8.78662 8.01923 8.78412 8.01923 8.78112C8.01923 8.74712 8.03623 8.71762 8.06173 8.69912L8.83974 8.12912C8.85474 8.12912 8.86723 8.09912 8.89473 8.10162V9.37912C9.14473 9.20162 9.35723 9.02912 9.58723 8.85912C9.61923 8.83812 9.64023 8.80262 9.64023 8.76262C9.64023 8.75962 9.64023 8.75662 9.63973 8.75412C9.63973 7.63412 9.63973 6.50462 9.63973 5.39212L9.64023 5.29812ZM11.0777 4.21812L9.91523 5.09062L9.99023 5.10812C10.1367 5.13512 10.2507 5.24762 10.2797 5.39062L10.2802 5.39312C10.2827 5.41762 10.2842 5.44562 10.2842 5.47412C10.2842 5.50262 10.2827 5.53112 10.2802 5.55912L10.2807 5.55562C10.2807 6.44812 10.2807 7.34062 10.2807 8.23562C10.2807 8.25812 10.2807 8.28312 10.2807 8.30562L10.3357 8.26812C10.9907 7.76812 11.6432 7.28312 12.3007 6.79562C12.4032 6.72062 12.4657 6.64812 12.4257 6.51562C12.4247 6.50562 12.4237 6.49362 12.4237 6.48162C12.4237 6.46962 12.4242 6.45812 12.4257 6.44662V6.44812C12.4192 6.35012 12.4157 6.23562 12.4157 6.12062C12.4157 6.00562 12.4192 5.89112 12.4267 5.77762L12.4257 5.79312L11.0457 6.83062L11.0777 4.21812Z" fill="black"/>
<path d="M4.89023 13.9731L5.21773 13.7231L13.3202 7.64062C13.3427 7.62562 13.3552 7.60562 13.3702 7.64062C13.5077 8.12812 13.7127 8.59062 13.8702 9.06812C14.0042 9.43812 14.0822 9.86512 14.0822 10.3106C14.0822 10.3511 14.0817 10.3916 14.0802 10.4316V10.4256C14.0557 11.1746 13.7962 11.8586 13.3742 12.4116L13.3802 12.4031C12.7737 13.2066 11.9082 13.7856 10.9092 14.0176L10.8802 14.0231C10.2802 14.1681 9.67023 14.2731 9.06523 14.3881C8.76673 14.4411 8.50473 14.5131 8.25273 14.6061L8.28473 14.5956C8.18673 14.6451 8.10373 14.7096 8.03573 14.7871L8.03473 14.7881C8.01973 14.8031 8.00473 14.8281 7.97973 14.7881C7.82423 14.6231 7.61473 14.5106 7.37973 14.4786L7.37473 14.4781C6.87473 14.3556 6.37473 14.2756 5.87473 14.1781C5.54973 14.1281 5.22273 14.0631 4.89023 13.9731Z" fill="black"/>
<path d="M10.9152 2.74312L2.02773 9.41812C2.07523 9.23062 2.13023 9.06312 2.19023 8.89562C2.33023 8.50812 2.50023 8.12812 2.60773 7.73062C2.78673 7.16512 2.88973 6.51512 2.88973 5.84062C2.88973 5.68762 2.88423 5.53562 2.87373 5.38562L2.87473 5.40612C2.83323 4.75712 2.71123 4.15162 2.51773 3.57862L2.53223 3.62862C2.52723 3.62062 2.52473 3.61112 2.52473 3.60062C2.52473 3.57662 2.54023 3.55612 2.56173 3.54862C3.06523 3.25662 3.47673 2.85562 3.77123 2.37612L3.77973 2.36112C3.80973 2.31112 3.83223 2.30362 3.88473 2.33112C4.29123 2.56362 4.77023 2.72062 5.28023 2.77012L5.29473 2.77112C5.38273 2.77862 5.48473 2.78262 5.58773 2.78262C6.00873 2.78262 6.41323 2.71262 6.79073 2.58312L6.76473 2.59112C7.21623 2.44012 7.60773 2.23512 7.95923 1.97762L7.94723 1.98612C7.96073 1.97362 7.97873 1.96612 7.99823 1.96612C8.01773 1.96612 8.03623 1.97362 8.04973 1.98662C8.53473 2.34862 9.11524 2.61112 9.74623 2.73262L9.77223 2.73662C9.95973 2.77262 10.1752 2.79312 10.3957 2.79312C10.5602 2.79312 10.7222 2.78162 10.8807 2.75962L10.8622 2.76162L10.9152 2.74312Z" fill="black"/>
</g>
<defs>
<clipPath id="clip0_6_565">
<rect width="16" height="16" fill="white" transform="translate(0 0.37793)"/>
</clipPath>
</defs>
</svg>
