<svg width="16" height="17" viewBox="0 0 16 17" fill="none" xmlns="http://www.w3.org/2000/svg">
<g clip-path="url(#clip0_6_523)">
<path d="M14.4935 8.57147C14.2335 7.11097 12.9755 6.01547 11.4605 6.01147H8.36652V4.51797C9.09752 4.34547 9.63302 3.69847 9.63302 2.92647C9.63302 2.02447 8.90152 1.29297 7.99952 1.29297C7.09752 1.29297 6.36602 2.02447 6.36602 2.92647C6.36602 3.69847 6.90152 4.34547 7.62152 4.51597L7.63252 4.51797V6.01147H4.53902C3.02352 6.01547 1.76552 7.11097 1.50852 8.55297L1.50552 8.57147C0.662023 8.63247 0.000523438 9.33097 -0.000976562 10.1845V11.298C0.000523438 12.1515 0.662023 12.8505 1.50052 12.911L1.50552 12.9115C1.76552 14.372 3.02352 15.4675 4.53852 15.4715H11.459C12.9745 15.4675 14.2325 14.372 14.4895 12.93L14.4925 12.9115C15.336 12.8505 15.9975 12.152 15.999 11.2985V10.185C15.9975 9.33147 15.336 8.63247 14.4975 8.57197L14.492 8.57147H14.4935ZM5.06002 12.198C5.05002 12.198 5.03852 12.1985 5.02652 12.1985C4.12052 12.1985 3.38652 11.4645 3.38652 10.5585C3.38652 9.65247 4.12102 8.91847 5.02652 8.91847C5.93202 8.91847 6.66652 9.65247 6.66652 10.558C6.66652 11.452 5.95102 12.1795 5.06152 12.198H5.06002ZM10.94 12.198C10.0345 12.198 9.30002 11.464 9.30002 10.558C9.30002 9.65197 10.034 8.91797 10.94 8.91797C11.8455 8.91797 12.58 9.65197 12.58 10.558C12.58 11.4635 11.846 12.198 10.94 12.198Z" fill="black"/>
</g>
<defs>
<clipPath id="clip0_6_523">
<rect width="16" height="16" fill="white" transform="translate(0 0.37793)"/>
</clipPath>
</defs>
</svg>
