<svg width="17" height="16" viewBox="0 0 17 16" fill="none" xmlns="http://www.w3.org/2000/svg">
<g clip-path="url(#clip0_6_204)">
<path d="M4.1625 0H1.2975C0.857 0 0.5 0.357 0.5 0.7975V3.6625C0.5 4.103 0.857 4.46 1.2975 4.46H4.1625C4.603 4.46 4.96 4.103 4.96 3.6625V0.7975C4.96 0.357 4.603 0 4.1625 0ZM3.71 3.21H1.75V1.25H3.71V3.21Z" fill="black"/>
<path d="M7.77 3.75H14.98C15.8195 3.75 16.5 3.0695 16.5 2.23C16.5 1.3905 15.8195 0.71 14.98 0.71H7.77C6.9305 0.71 6.25 1.3905 6.25 2.23C6.25 3.0695 6.9305 3.75 7.77 3.75Z" fill="black"/>
<path d="M7.77 9.52H11.25V11L16.6225 8L11.25 5V6.48H7.77C6.9305 6.48 6.25 7.1605 6.25 8C6.25 8.8395 6.9305 9.52 7.77 9.52Z" fill="black"/>
<path d="M14.98 12.25H7.77C6.9305 12.25 6.25 12.9305 6.25 13.77C6.25 14.6095 6.9305 15.29 7.77 15.29H14.98C15.8195 15.29 16.5 14.6095 16.5 13.77C16.5 12.9305 15.8195 12.25 14.98 12.25Z" fill="black"/>
<path d="M4.1625 5.77H1.2975C0.857 5.77 0.5 6.127 0.5 6.5675V9.4325C0.5 9.873 0.857 10.23 1.2975 10.23H4.1625C4.603 10.23 4.96 9.873 4.96 9.4325V6.5675C4.96 6.127 4.603 5.77 4.1625 5.77ZM3.71 8.98H1.75V7.02H3.71V8.98Z" fill="black"/>
<path d="M4.1625 11.54H1.2975C0.857 11.54 0.5 11.897 0.5 12.3375V15.2025C0.5 15.643 0.857 16 1.2975 16H4.1625C4.603 16 4.96 15.643 4.96 15.2025V12.3375C4.96 11.897 4.603 11.54 4.1625 11.54ZM3.71 14.75H1.75V12.79H3.71V14.75Z" fill="black"/>
</g>
<defs>
<clipPath id="clip0_6_204">
<rect width="16" height="16" fill="white" transform="translate(0.5)"/>
</clipPath>
</defs>
</svg>
