<svg width="16" height="17" viewBox="0 0 16 17" fill="none" xmlns="http://www.w3.org/2000/svg">
<g clip-path="url(#clip0_6_252)">
<path d="M15.3926 0.397752V9.57525C15.3946 9.59575 15.3956 9.61975 15.3956 9.64375C15.3956 9.66775 15.3946 9.69175 15.3926 9.71575V9.71275C15.3866 9.90125 15.3686 10.0808 15.3391 10.2563L15.3421 10.2328C15.2636 10.7273 15.1441 11.1683 14.9841 11.5888L14.9996 11.5428C14.6296 12.5613 14.0706 13.4318 13.3591 14.1508C12.6596 14.8638 11.8176 15.4333 10.8786 15.8153L10.8296 15.8328C9.99255 16.1773 9.02055 16.3773 8.00205 16.3773C7.21455 16.3773 6.45505 16.2578 5.74105 16.0363L5.79505 16.0508C4.86405 15.7688 4.05505 15.3413 3.34905 14.7888L3.36505 14.8008C2.38105 14.0338 1.61155 13.0353 1.13255 11.8858L1.11505 11.8383C0.831051 11.1498 0.650551 10.3528 0.615551 9.51775L0.615051 9.50325C0.616051 9.49525 0.617051 9.48575 0.617051 9.47625C0.617051 9.44925 0.612051 9.42325 0.602051 9.39975L0.602551 9.40125V7.83375H6.50005L6.45755 7.88125C6.09855 8.26225 5.87805 8.77725 5.87805 9.34375C5.87805 9.69875 5.96455 10.0338 6.11805 10.3283L6.11255 10.3163C6.48905 11.0638 7.25005 11.5673 8.12855 11.5673C8.15355 11.5673 8.17855 11.5668 8.20355 11.5663H8.20005C8.21205 11.5663 8.22605 11.5668 8.24055 11.5668C8.74055 11.5668 9.20155 11.4023 9.57355 11.1248L9.56755 11.1288C9.58505 11.1098 9.60705 11.0953 9.63155 11.0868L9.63255 11.0863C9.65005 11.1238 9.61505 11.1413 9.60005 11.1638C9.31705 11.5198 9.14555 11.9763 9.14555 12.4728C9.14555 12.6163 9.16005 12.7568 9.18705 12.8923L9.18455 12.8788C9.30805 13.5448 9.72255 14.0948 10.2881 14.4008L10.2996 14.4063C10.6306 14.5958 11.0276 14.7078 11.4501 14.7078C12.126 14.7078 12.7351 14.4223 13.1631 13.9653L13.1641 13.9638C13.5275 13.5773 13.7511 13.0553 13.7511 12.4813C13.7511 11.8053 13.4411 11.2013 12.9556 10.8043L12.9516 10.8013C12.5536 10.4623 12.0331 10.2558 11.4641 10.2558C11.3626 10.2558 11.2626 10.2623 11.1646 10.2753L11.1761 10.2743C10.725 10.3228 10.3221 10.4968 9.99405 10.7603L9.99855 10.7568C9.98105 10.7718 9.96605 10.7918 9.93855 10.7943C9.91105 10.7968 9.96855 10.7518 9.98355 10.7318C10.2956 10.3628 10.4856 9.88125 10.4856 9.35575C10.4856 9.03925 10.4166 8.73875 10.2931 8.46825L10.2986 8.48175C9.94105 7.68575 9.16005 7.13975 8.25005 7.12925H8.24855C8.21305 7.12725 8.17205 7.12625 8.13005 7.12625C7.52805 7.12625 6.98105 7.36275 6.57755 7.74775L6.57855 7.74675C6.55655 7.77225 6.53105 7.79375 6.50255 7.81075L6.50105 7.81175C6.49805 7.79875 6.49655 7.78425 6.49655 7.76925C6.49655 7.75425 6.49805 7.73975 6.50155 7.72525L6.50105 7.72675V0.489252C6.50055 0.478752 6.50005 0.466752 6.50005 0.454252C6.50005 0.441752 6.50055 0.429752 6.50105 0.417752V0.419252C6.50105 0.404252 6.50105 0.396752 6.52605 0.394252H15.3911L15.3926 0.397752Z" fill="black"/>
<path d="M6.52755 0.392752L6.50005 0.377752H15.3251C15.3476 0.377752 15.3801 0.360252 15.3976 0.392752H6.52755Z" fill="black"/>
<path d="M0.617551 9.49275L0.605051 9.51275V9.39025C0.614051 9.41275 0.619551 9.43825 0.619551 9.46575C0.619551 9.47525 0.619051 9.48475 0.617551 9.49425V9.49275Z" fill="black"/>
<path d="M6.50005 7.81275C6.50005 7.81275 6.48005 7.81275 6.48505 7.83025V7.81275H6.50005Z" fill="black"/>
<path d="M9.63255 11.0863C9.63255 11.0688 9.65005 11.0603 9.66505 11.0553C9.68005 11.0503 9.66255 11.0938 9.63255 11.0863Z" fill="black"/>
<path d="M9.92505 10.8103C9.92505 10.8103 9.92505 10.7928 9.94255 10.7928L9.92505 10.8103Z" fill="black"/>
<path d="M9.91005 10.8203C9.91205 10.8128 9.91905 10.8078 9.92705 10.8078H9.92805L9.91005 10.8203Z" fill="black"/>
<path d="M9.66505 11.0553C9.66505 11.0553 9.66505 11.0403 9.68505 11.0353C9.70505 11.0303 9.67755 11.0553 9.66505 11.0553Z" fill="black"/>
</g>
<defs>
<clipPath id="clip0_6_252">
<rect width="16" height="16" fill="white" transform="translate(0 0.37793)"/>
</clipPath>
</defs>
</svg>
