<svg width="17" height="16" viewBox="0 0 17 16" fill="none" xmlns="http://www.w3.org/2000/svg">
<g clip-path="url(#clip0_6_426)">
<path d="M14.1865 3.76602H14.9665V2.10602H9.16651V0.666016H7.50001V2.10602H1.68651V3.76602H2.81301L0.499512 9.37952C0.499512 11.1395 1.92601 12.566 3.68601 12.566C5.44601 12.566 6.87251 11.1395 6.87251 9.37952L4.55901 3.76602H7.49251V13.706H5.16601V15.366H11.4595V13.706H9.16601V3.76602H12.446L10.1325 9.37952C10.1325 11.1395 11.559 12.566 13.319 12.566C15.079 12.566 16.5055 11.1395 16.5055 9.37952L14.1865 3.76602ZM1.83351 9.37952L3.68701 4.90602L5.52701 9.37952H1.83351ZM11.46 9.37952L13.3 4.90602L15.1665 9.37952H11.46Z" fill="black"/>
</g>
<defs>
<clipPath id="clip0_6_426">
<rect width="16" height="16" fill="white" transform="translate(0.5)"/>
</clipPath>
</defs>
</svg>
