<svg width="17" height="16" viewBox="0 0 17 16" fill="none" xmlns="http://www.w3.org/2000/svg">
<g clip-path="url(#clip0_243_135)">
<path fill-rule="evenodd" clip-rule="evenodd" d="M8.5 16C12.9183 16 16.5 12.4183 16.5 8C16.5 3.58172 12.9183 0 8.5 0C4.08172 0 0.5 3.58172 0.5 8C0.5 12.4183 4.08172 16 8.5 16ZM8.46466 6.06157C8.50353 6.04894 8.58128 6.0227 8.58128 6.0227L10.3827 4.22131L12.2812 6.11988L10.4021 7.99902L12.2744 9.87136L10.3759 11.7699L8.50353 9.8976L6.62439 11.7767L4.72582 9.87816L6.60496 7.99902L4.72582 6.11988L6.62439 4.22131L8.46466 6.06157Z" fill="black"/>
</g>
<defs>
<clipPath id="clip0_243_135">
<rect width="16" height="16" fill="white" transform="translate(0.5)"/>
</clipPath>
</defs>
</svg>
