<svg width="16" height="17" viewBox="0 0 16 17" fill="none" xmlns="http://www.w3.org/2000/svg">
<g clip-path="url(#clip0_6_526)">
<path d="M8 0.37793C3.5815 0.37793 0 3.95943 0 8.37793C0 12.7964 3.5815 16.3779 8 16.3779C12.4185 16.3779 16 12.7964 16 8.37793C16 3.95943 12.4185 0.37793 8 0.37793ZM15.3775 8.95293L14.91 8.37793L14.41 6.24543L14.425 6.13293L14.57 4.98793C15.093 5.97143 15.401 7.13843 15.4025 8.37743C15.4025 8.56993 15.3925 8.76293 15.3775 8.95293ZM14.08 4.16293L13.875 5.77543L12.6025 5.70043L9.75 2.94293L9.6875 1.92043L11.25 1.72543C12.404 2.30193 13.356 3.12893 14.064 4.13893L14.08 4.16293ZM8 15.7804C7.998 15.7804 7.996 15.7804 7.994 15.7804C6.313 15.7804 4.7635 15.2164 3.525 14.2674L3.5425 14.2804L3.13 13.6904L4.5275 12.1904L6.585 12.5179L8.975 14.6429L8.03 15.7754L8 15.7804ZM1.36 7.04793L1.93 4.67543L1.945 4.62793L5.075 2.87793L6.2875 4.00793L5.5125 7.55293L3.5125 8.80293L1.36 7.04793ZM12.15 6.09543L12.13 6.31793L11.63 8.34793L8.2125 9.34793L6.6125 8.07043L6.0975 7.60293L6.8475 4.15793L9.435 3.48793L12.15 6.09543ZM11.71 13.5954L9.5 14.3054L7.25 12.3229L8.185 9.98543L11.7925 8.92793L13.1125 10.4279L11.71 13.5954ZM10.065 1.27043L9.1975 1.37793V1.42543L6.8975 1.07293V1.05543C7.222 1.00443 7.596 0.97543 7.977 0.97543C7.985 0.97543 7.993 0.97543 8.001 0.97543H8C8.736 0.97593 9.4465 1.08343 10.1175 1.28393L10.065 1.27043ZM6.2725 1.18043L6.3025 1.23043L5.415 2.00043L2.165 3.81793C3.183 2.52943 4.597 1.59293 6.2215 1.19093L6.2725 1.18043ZM0.6 8.30543L1.1 7.60793L3.4825 9.55043L4.0675 11.8004L2.7025 13.2654L2.1225 12.8779C1.171 11.6494 0.5975 10.0864 0.5975 8.38943C0.5975 8.38543 0.5975 8.38143 0.5975 8.37693C0.5975 8.35193 0.6 8.32793 0.6 8.30543ZM12.5125 14.2404L12.295 13.7404L13.895 10.1279L14.785 9.17543L15.27 9.76793C14.909 11.5999 13.915 13.1539 12.5295 14.2279L12.5125 14.2404Z" fill="black"/>
</g>
<defs>
<clipPath id="clip0_6_526">
<rect width="16" height="16" fill="white" transform="translate(0 0.37793)"/>
</clipPath>
</defs>
</svg>
