<svg width="16" height="17" viewBox="0 0 16 17" fill="none" xmlns="http://www.w3.org/2000/svg">
<g clip-path="url(#clip0_6_246)">
<path d="M8.88615 3.26408C8.08615 4.38408 6.09846 5.25178 4.41846 5.09793C5.33538 6.34716 5.59385 7.52255 4.85538 9.33178C6.14154 8.61793 8.58462 9.33793 9.44 10.5441C9.45231 9.25178 9.68 7.81793 11.68 6.90716C10.4492 6.49485 9.12 4.47639 8.88615 3.26408Z" fill="black"/>
<path d="M8 0.37793C3.58154 0.37793 0 3.95947 0 8.37793C0 12.7964 3.58154 16.3779 8 16.3779C12.4185 16.3779 16 12.7964 16 8.37793C16 3.95947 12.4185 0.37793 8 0.37793ZM11.9938 13.7564C11.8708 13.4487 11.8031 13.1164 11.8031 12.7656C11.8031 12.4149 11.8708 12.0641 11.9938 11.7687C11.8338 11.7872 11.6738 11.7933 11.5138 11.7933C10.8185 11.7933 10.1662 11.6456 9.6 11.3872C9.48308 12.1687 8.70769 13.3133 7.92615 13.3625H7.94462C8.65231 13.6641 9.21846 14.2241 9.53231 14.9441H9.57539C9.05231 15.0733 8.49846 15.1472 7.92615 15.1472C6.13539 15.1472 4.51077 14.4395 3.31077 13.301C3.66154 12.9195 4.13538 12.6549 4.67692 12.581C4.40615 12.1502 4.24 11.6395 4.24 11.0795C4.24 10.6364 4.34462 10.2179 4.52308 9.86716C4.27692 9.93485 4.01846 9.97793 3.74769 9.97793C3.19385 9.97793 2.67077 9.81178 2.24615 9.5287V9.54716C2.10462 9.92255 1.87077 10.2549 1.55692 10.5072C1.34154 9.85485 1.22462 9.16562 1.22462 8.44562C1.23077 7.76255 1.32923 7.10408 1.50769 6.53178H1.53231C1.83385 6.53178 2.10462 6.67947 2.27692 6.90716C2.12923 6.42101 3.01538 5.22716 3.87077 5.01793C3.47692 4.70408 3.22462 4.21793 3.22462 3.67639C4.14154 2.77178 5.32308 2.13178 6.68308 1.86716C6.68308 1.86716 8.39385 1.86716 8.99692 2.84562C9.48308 2.33485 11.1077 2.55639 11.1077 2.55639L11.1385 2.57485C12.2646 3.20255 13.1938 4.13793 13.8215 5.30716C13.8215 5.30716 13.3231 6.9687 12.3631 7.05485C12.9292 7.43024 13.3046 8.07639 13.3046 8.80255C13.3046 8.99331 13.28 9.17178 13.2369 9.33178C13.44 9.24562 13.6615 9.19024 13.8954 9.19024C14.1292 9.19024 14.3631 9.24562 14.5538 9.33178V9.3687C14.3015 11.1472 13.36 12.6979 11.9877 13.7564H11.9938Z" fill="black"/>
</g>
<defs>
<clipPath id="clip0_6_246">
<rect width="16" height="16" fill="white" transform="translate(0 0.37793)"/>
</clipPath>
</defs>
</svg>
