<svg width="16" height="17" viewBox="0 0 16 17" fill="none" xmlns="http://www.w3.org/2000/svg">
<g clip-path="url(#clip0_6_353)">
<path d="M13.9465 2.21144L13.26 4.26494H15.3135L16 2.21144H13.9465Z" fill="black"/>
<path d="M11.8865 2.21144H9.83301L9.14651 4.26494H11.2065L11.8865 2.21144Z" fill="black"/>
<path d="M11.8935 8.37794H13.947L14.6335 6.32444H12.5735L11.8935 8.37794Z" fill="black"/>
<path d="M10.52 6.32444H8.46651L7.78001 8.37794H9.83351L10.52 6.32444Z" fill="black"/>
<path d="M5.72001 8.37794L6.40651 6.32444H4.35301L5.03951 4.26444H7.09301L7.77951 2.21094H4.11301L-0.000488281 14.5444H1.61301L3.66651 8.37794H5.72001Z" fill="black"/>
<path d="M10.52 6.32444H12.5735L13.26 4.26494H11.2065L10.52 6.32444Z" fill="black"/>
<path d="M6.40651 6.32444H8.46651L9.14651 4.26494L7.09301 4.26444L6.40651 6.32444Z" fill="black"/>
<path d="M9.14651 10.4314H11.2065L11.8865 8.37794H9.83351L9.14651 10.4314Z" fill="black"/>
<path d="M5.04001 10.4314H7.09351L7.78001 8.37794H5.72001L5.04001 10.4314Z" fill="black"/>
</g>
<defs>
<clipPath id="clip0_6_353">
<rect width="16" height="16" fill="white" transform="translate(0 0.37793)"/>
</clipPath>
</defs>
</svg>
