<svg width="16" height="17" viewBox="0 0 16 17" fill="none" xmlns="http://www.w3.org/2000/svg">
<g clip-path="url(#clip0_6_456)">
<path d="M13.4466 13.8775C13.0671 14.189 12.5771 14.378 12.0426 14.378C12.0276 14.378 12.0126 14.378 11.9976 14.3775H11.9996C11.9841 14.378 11.9661 14.378 11.9476 14.378C11.4161 14.378 10.9286 14.189 10.5491 13.8745L10.5526 13.8775C9.86959 13.357 9.00409 13.0435 8.06509 13.0435C8.04209 13.0435 8.01859 13.0435 7.99559 13.044H7.99909C7.97859 13.0435 7.95509 13.0435 7.93109 13.0435C6.99309 13.0435 6.12859 13.357 5.43609 13.885L5.44609 13.8775C5.30009 13.9675 5.17359 14.0595 5.05509 14.161L5.05909 14.1575C5.05909 14.1325 5.05859 14.1035 5.05859 14.074C5.05859 13.2355 5.15859 12.4205 5.34659 11.64L5.33209 11.7105C6.12659 11.0205 6.71609 10.114 7.00959 9.082L7.01909 9.0435C7.01909 9.0435 10.6256 9.35 11.7391 7.397H12.8656C12.8656 7.397 12.1121 9.1505 10.9921 9.1505L10.6656 10.177C10.6656 10.177 14.7656 9.6635 14.7656 6.4635C14.7656 6.4635 13.4321 5.937 13.4321 3.75C13.4321 3.75 13.8856 5.0835 14.8986 4.6365L15.4186 5.463L15.9986 4.6365L14.6121 1.303L15.0321 0.683H13.9986C10.3521 0.703 10.2986 5.7095 8.40509 5.7095C6.51159 5.7095 4.51159 5.823 3.91859 7.096C3.27259 7.213 2.76159 7.684 2.58809 8.2975L2.58509 8.3095C2.17159 9.7495 -0.00140625 9.8295 -0.00140625 9.8295V11.7095C2.06509 11.7095 3.28509 9.7095 3.81859 8.516C4.04509 9.3625 4.70509 9.956 4.66509 10.176C4.62509 10.396 3.72509 11.4425 3.72509 11.4425V14.376C3.27109 14.3295 2.86509 14.1565 2.53359 13.8925L2.53809 13.896C1.85109 13.3635 0.976594 13.0425 0.0270938 13.0425C0.0165938 13.0425 0.00659375 13.0425 -0.00390625 13.0425H-0.00240625V15.0425C0.0180937 15.042 0.0415937 15.042 0.0655937 15.042C1.00359 15.042 1.86809 15.3555 2.56059 15.8835L2.55059 15.876C2.92559 16.1875 3.41209 16.3765 3.94309 16.3765C3.96209 16.3765 3.98109 16.376 4.00009 16.376H3.99709C4.01259 16.3765 4.03059 16.3765 4.04909 16.3765C4.58059 16.3765 5.06809 16.1875 5.44759 15.873L5.44409 15.876C6.12659 15.3555 6.99109 15.042 7.92909 15.042C7.95309 15.042 7.97709 15.042 8.00109 15.0425H7.99759C8.01909 15.042 8.04459 15.042 8.07009 15.042C9.00859 15.042 9.87409 15.3555 10.5676 15.8835L10.5576 15.876C10.9336 16.1875 11.4206 16.3765 11.9521 16.3765C11.9681 16.3765 11.9841 16.3765 12.0001 16.376H11.9976C12.0101 16.3765 12.0251 16.3765 12.0401 16.3765C12.5746 16.3765 13.0651 16.1875 13.4481 15.873L13.4441 15.876C14.1241 15.3555 14.9871 15.042 15.9226 15.042C15.9491 15.042 15.9751 15.042 16.0011 15.0425H15.9971V13.0425C15.9751 13.042 15.9486 13.042 15.9226 13.042C14.9866 13.042 14.1241 13.3555 13.4341 13.8835L13.4441 13.876L13.4466 13.8775Z" fill="black"/>
<path d="M1.37359 2.084C1.64959 1.923 1.83209 1.628 1.83209 1.2905C1.83209 0.785 1.42209 0.375 0.916594 0.375C0.748594 0.375 0.591094 0.4205 0.455594 0.4995L0.460094 0.497C0.183594 0.661 0.00159383 0.9575 0.00159383 1.297C0.00159383 1.4635 0.0455938 1.62 0.122594 1.755L0.120094 1.7505C0.282594 2.025 0.577594 2.2065 0.914594 2.2065C1.08359 2.2065 1.24159 2.161 1.37809 2.0815L1.37359 2.084Z" fill="black"/>
<path d="M4.87359 2.084C5.14959 1.9215 5.33159 1.6265 5.33159 1.2885C5.33159 1.123 5.28759 0.9675 5.21109 0.833L5.21359 0.8375C5.05259 0.5615 4.75759 0.379 4.42009 0.379C3.91459 0.379 3.50459 0.789 3.50459 1.2945C3.50459 1.4625 3.55009 1.62 3.62909 1.7555L3.62659 1.751C3.78759 2.0255 4.08109 2.2065 4.41709 2.2065C4.58509 2.2065 4.74259 2.161 4.87759 2.082L4.87359 2.084Z" fill="black"/>
<path d="M1.37359 5.631C1.64609 5.4695 1.82559 5.177 1.82559 4.843C1.82559 4.3385 1.41659 3.9295 0.912094 3.9295C0.407594 3.9295 -0.00140619 4.3385 -0.00140619 4.843C-0.00140619 5.0105 0.0435938 5.1675 0.122094 5.302L0.119594 5.2975C0.280094 5.5735 0.574594 5.756 0.911594 5.756C1.08159 5.756 1.24059 5.7095 1.37709 5.6285L1.37359 5.631Z" fill="black"/>
<path d="M3.96009 4.051C3.68959 4.213 3.51109 4.5045 3.51109 4.8375C3.51109 5.342 3.92009 5.751 4.42459 5.751C4.92909 5.751 5.33809 5.342 5.33809 4.8375C5.33809 4.668 5.29209 4.5095 5.21159 4.3735L5.21409 4.3775C5.05259 4.1045 4.76009 3.924 4.42509 3.924C4.25409 3.924 4.09359 3.971 3.95659 4.053L3.96009 4.051Z" fill="black"/>
<path d="M2.05359 3.744C2.21609 3.8945 2.43409 3.987 2.67409 3.987C3.17859 3.987 3.58759 3.578 3.58759 3.0735C3.58759 2.569 3.17859 2.16 2.67409 2.16C2.40759 2.16 2.16759 2.274 2.00059 2.456C1.85209 2.618 1.76059 2.835 1.76059 3.073C1.76059 3.3375 1.87309 3.576 2.05259 3.7425L2.05359 3.744Z" fill="black"/>
</g>
<defs>
<clipPath id="clip0_6_456">
<rect width="16" height="16" fill="white" transform="translate(0 0.37793)"/>
</clipPath>
</defs>
</svg>
