<svg width="17" height="16" viewBox="0 0 17 16" fill="none" xmlns="http://www.w3.org/2000/svg">
<g clip-path="url(#clip0_6_590)">
<path d="M0.5 12.9665H10.9265V15.993H0.5V12.9665Z" fill="black"/>
<path d="M6.4665 0H0.5V3.0265H4.26C4.7135 1.833 5.48 0.793 6.4665 0Z" fill="black"/>
<path d="M0.5 6.4865V9.513H4.9665C4.38 8.6195 3.9865 7.593 3.8465 6.4865H0.5Z" fill="black"/>
<path d="M16.5 12.32L14.7535 9.58C15.807 8.5665 16.467 7.1535 16.467 5.58C16.467 2.52 13.9805 0.0335 10.9205 0.0335C7.8605 0.0335 5.374 2.52 5.374 5.58C5.374 8.64 7.8605 11.1265 10.9205 11.1265C11.5405 11.1265 12.1405 11.02 12.7005 10.8265L14.4805 13.613L16.5 12.32ZM7.7735 5.58C7.7735 3.8465 9.187 2.4335 10.92 2.4335C12.653 2.4335 14.0665 3.847 14.0665 5.58C14.0665 7.313 12.653 8.7265 10.92 8.7265C9.187 8.7265 7.7735 7.313 7.7735 5.58Z" fill="black"/>
</g>
<defs>
<clipPath id="clip0_6_590">
<rect width="16" height="16" fill="white" transform="translate(0.5)"/>
</clipPath>
</defs>
</svg>
