<svg width="16" height="17" viewBox="0 0 16 17" fill="none" xmlns="http://www.w3.org/2000/svg">
<g clip-path="url(#clip0_6_256)">
<path d="M10.1329 4.09886C10.3624 4.23436 10.6384 4.31436 10.9334 4.31436C11.8134 4.31436 12.5264 3.60136 12.5264 2.72136C12.5264 1.84136 11.8134 1.12836 10.9334 1.12836C10.3464 1.12836 9.83344 1.44586 9.55744 1.91836L9.55344 1.92586C9.41944 2.15386 9.34044 2.42836 9.34044 2.72136C9.34044 3.30636 9.65594 3.81786 10.1259 4.09486L10.1329 4.09886Z" fill="black"/>
<path d="M15.8919 9.76436L14.1654 10.2374C14.1979 10.3394 14.2164 10.4569 14.2164 10.5789C14.2164 11.1229 13.8439 11.5799 13.3404 11.7089L13.3324 11.7104L11.8929 12.1039L10.9329 9.25086C10.6154 8.18986 9.71644 7.40236 8.61444 7.25286L8.59994 7.25136L8.99344 6.58486C9.84144 7.06036 10.8539 7.34136 11.9319 7.34486H11.9344C12.8754 7.34486 13.7669 7.13086 14.5619 6.74936L14.5254 6.76536L13.8189 5.21886C13.2709 5.48086 12.6279 5.63386 11.9494 5.63386C11.1384 5.63386 10.3789 5.41536 9.72544 5.03436L9.74644 5.04586L9.55294 4.93936C9.49594 4.35336 9.15694 3.85736 8.67494 3.58436L8.66644 3.57986L8.59994 3.53986C8.34894 3.39386 8.04794 3.30786 7.72644 3.30786C7.44494 3.30786 7.17944 3.37386 6.94344 3.49136L6.95344 3.48686C5.57644 3.33736 4.51344 2.18436 4.50744 0.781359V0.380859H2.84094V0.780859C2.84594 2.68986 4.06294 4.31386 5.76294 4.92386L5.79394 4.93336L4.72094 6.79286C4.57244 7.04836 4.48444 7.35536 4.48444 7.68286C4.48444 8.34536 4.84394 8.92436 5.37894 9.23486L5.38744 9.23936L6.94044 10.1324L4.53444 14.1314L3.12144 14.5179C3.04144 14.5374 2.94994 14.5489 2.85594 14.5489C2.33044 14.5489 1.88644 14.1994 1.74394 13.7199L1.74194 13.7119L0.00244141 14.1519C0.358941 15.4149 1.50094 16.3244 2.85544 16.3244C3.13544 16.3244 3.40594 16.2854 3.66244 16.2129L3.64144 16.2179L4.57444 15.9579L4.98744 15.8444L10.3864 14.3779L11.7194 13.9979L12.8659 13.6844L13.7989 13.4244C15.0769 13.0784 16.0014 11.9289 16.0014 10.5634C16.0014 10.2794 15.9614 10.0044 15.8864 9.74436L15.8914 9.76536L15.8919 9.76436ZM9.34644 9.76436L10.2729 12.5504L7.02694 13.4434L8.47344 11.0439C8.62144 10.7889 8.70894 10.4824 8.70894 10.1559C8.70894 9.65886 8.50694 9.20936 8.18044 8.88436C8.18544 8.88436 8.19194 8.88436 8.19794 8.88436C8.73544 8.88436 9.18944 9.24386 9.33144 9.73586L9.33344 9.74436L9.34644 9.76436Z" fill="black"/>
</g>
<defs>
<clipPath id="clip0_6_256">
<rect width="16" height="16" fill="white" transform="translate(0 0.37793)"/>
</clipPath>
</defs>
</svg>
