<svg width="16" height="17" viewBox="0 0 16 17" fill="none" xmlns="http://www.w3.org/2000/svg">
<g clip-path="url(#clip0_6_432)">
<path d="M3.88001 10.4915L3.56001 11.1915L5.53351 11.758L5.11351 10.8645L3.88001 10.4915Z" fill="black"/>
<path d="M14.9665 5.09804V4.50454L13.733 3.71104L12.053 3.42454L11.913 3.88454L12.3865 4.34454C11.7665 4.84454 10.773 5.48454 9.93301 5.22454C8.59951 4.81804 8.06651 3.22454 5.69301 2.47804C5.10651 2.29804 3.69301 2.36454 3.11301 3.01154H3.05301C3.05301 3.09804 2.99301 3.19154 2.95951 3.27804C2.92601 3.36454 2.95951 3.27804 2.92601 3.33804L2.88601 3.47154C2.27251 5.10504 1.08601 7.27154 -0.000488281 7.27154V8.27154C1.36601 8.27154 2.46601 6.69154 3.16601 5.31154C3.21951 5.42504 3.28601 5.53804 3.35251 5.65804H3.33251C3.46851 5.96204 3.66301 6.21854 3.90301 6.42204L3.90601 6.42454C4.04151 6.57654 4.18101 6.71554 4.32751 6.84654L4.33251 6.85104L6.25251 10.9845L6.66601 11.831L6.78601 11.971L8.87951 14.3775H11.246V13.644L9.17951 12.9775C8.85101 12.4555 8.52151 11.8405 8.23301 11.2035L8.19301 11.104C8.00051 10.6995 7.79101 10.1795 7.60751 9.64654L7.57301 9.53054C7.46501 9.23304 7.35051 8.84254 7.25601 8.44504L7.23951 8.36404C7.75301 8.69204 8.20001 9.04354 8.60951 9.43404L8.60601 9.43054C8.74601 9.83704 8.89951 10.224 9.05251 10.577L10.386 9.74354H10.426L10.5325 9.71004C11.3035 9.24904 11.87 8.51304 12.1005 7.64054L12.106 7.61654C12.286 6.74304 14.0395 5.73004 14.566 6.18304C15.0925 6.63604 15.9995 5.85654 15.9995 5.85654L14.9665 5.09804Z" fill="black"/>
</g>
<defs>
<clipPath id="clip0_6_432">
<rect width="16" height="16" fill="white" transform="translate(0 0.37793)"/>
</clipPath>
</defs>
</svg>
