<svg width="16" height="17" viewBox="0 0 16 17" fill="none" xmlns="http://www.w3.org/2000/svg">
<path fill-rule="evenodd" clip-rule="evenodd" d="M15.257 12.7816H0.8L0 14.3779H16L15.257 12.7816Z" fill="black"/>
<path fill-rule="evenodd" clip-rule="evenodd" d="M10.2844 11.5358H10.8055C11.3584 10.9674 11.7307 10.2348 11.8463 9.41846V9.39636C11.737 9.34741 11.604 9.31583 11.4693 9.31583C11.3347 9.31583 11.2095 9.34741 11.0923 9.39636C11.1176 9.30478 11.1319 9.20373 11.1319 9.09478C11.1319 8.68109 10.9164 8.3132 10.5933 8.09846C11.1414 8.04952 11.4265 7.10215 11.4265 7.10215C11.0685 6.43583 10.5362 5.90215 9.89307 5.54373L9.87564 5.53425C9.87564 5.53425 8.94574 5.40794 8.66693 5.69846C8.32317 5.14109 7.34416 5.14109 7.34416 5.14109C6.56634 5.29109 5.8899 5.65741 5.36554 6.17215C5.36554 6.48162 5.5097 6.75794 5.73624 6.93794C5.24673 7.05636 4.7398 7.73688 4.82376 8.01478C4.72555 7.8853 4.5703 7.80004 4.39762 7.80004H4.38337C4.28198 8.12688 4.22495 8.50267 4.22178 8.89109C4.22178 9.30162 4.28832 9.69478 4.41188 10.0674C4.59089 9.92215 4.72554 9.73267 4.80634 9.51952V9.50846C5.04871 9.66952 5.34812 9.76425 5.66495 9.76425C5.8202 9.76425 5.96753 9.74057 6.10852 9.70109C6.00713 9.90162 5.94693 10.14 5.94693 10.3927C5.94693 10.7116 6.04198 11.0037 6.19723 11.2485C5.9501 11.2832 5.72673 11.3858 5.54614 11.5358H8.43089C8.72555 11.3085 8.96475 10.8869 9.01228 10.5679C9.33703 10.7164 9.70931 10.8 10.1069 10.8C10.1988 10.8 10.2907 10.7969 10.3826 10.7858C10.3113 10.9548 10.2733 11.1537 10.2733 11.3543C10.2733 11.4158 10.2764 11.4758 10.2844 11.5358ZM8.9204 10.0879C8.43248 9.39952 7.03366 8.98899 6.29861 9.39636C6.72158 8.3653 6.57267 7.69583 6.04832 6.98215C7.0099 7.07057 8.14733 6.57636 8.60357 5.93688C8.73822 6.62846 9.49861 7.77952 10.202 8.01478C9.05822 8.53425 8.92832 9.35057 8.9204 10.0879Z" fill="black"/>
<path fill-rule="evenodd" clip-rule="evenodd" d="M4.75248 12.0095C3.9604 11.0621 3.52158 9.85583 3.52158 8.8532C3.52158 6.3332 5.5699 4.29162 8.09663 4.29162C10.6234 4.29162 12.6733 6.3332 12.6733 8.8532C12.6733 9.85583 12.1156 11.2564 11.5644 12.0095H15.1731V2.99004C15.1731 2.65688 14.9418 2.38688 14.6566 2.3853L1.55089 2.37794C1.26257 2.37636 1.02653 2.64794 1.02812 2.98425L1.03921 12.0095H4.75248Z" fill="black"/>
</svg>
