<svg width="17" height="16" viewBox="0 0 17 16" fill="none" xmlns="http://www.w3.org/2000/svg">
<g clip-path="url(#clip0_6_516)">
<path d="M12.0335 1.13984C11.9595 1.13484 11.873 1.13184 11.7855 1.13184C10.405 1.13184 9.1935 1.85534 8.5095 2.94384L8.5 2.95984C7.8065 1.85534 6.595 1.13184 5.2145 1.13184C5.1275 1.13184 5.041 1.13484 4.955 1.14034L4.9665 1.13984C2.353 1.13984 0.5 3.39984 0.5 6.11334C0.5 8.82684 4.1465 13.0668 8.5 14.8598C12.8535 13.0663 16.5 8.85984 16.5 6.11334C16.5 3.36684 14.6465 1.13984 12.0335 1.13984ZM13.6735 7.64634H10.6335L9.12 10.3998C9.0065 10.6153 8.784 10.7598 8.528 10.7598C8.525 10.7598 8.5225 10.7598 8.5195 10.7598C8.517 10.7598 8.515 10.7598 8.512 10.7598C8.256 10.7598 8.0335 10.6153 7.922 10.4033L7.92 10.3998L5.78 6.48634L5.3 7.33284C5.1835 7.53734 4.967 7.67284 4.719 7.67284C4.7145 7.67284 4.7105 7.67284 4.706 7.67284H3.3265C2.9455 7.67284 2.6365 7.36384 2.6365 6.98284C2.6365 6.60184 2.9455 6.29284 3.3265 6.29284H4.313L5.2065 4.73284C5.334 4.52734 5.5585 4.39234 5.8145 4.39234C5.821 4.39234 5.8275 4.39234 5.834 4.39284C5.8365 4.39284 5.838 4.39284 5.841 4.39284C6.097 4.39284 6.3195 4.53734 6.431 4.74934L6.433 4.75284L8.4995 8.62634L9.5995 6.62634C9.713 6.41084 9.9355 6.26634 10.1915 6.26634C10.1965 6.26634 10.202 6.26634 10.207 6.26634H13.6525C14.0335 6.26634 14.3425 6.57534 14.3425 6.95634C14.3425 7.33734 14.0335 7.64634 13.6525 7.64634H13.6735Z" fill="black"/>
</g>
<defs>
<clipPath id="clip0_6_516">
<rect width="16" height="16" fill="white" transform="translate(0.5)"/>
</clipPath>
</defs>
</svg>
