<svg width="16" height="16" viewBox="0 0 16 16" fill="none" xmlns="http://www.w3.org/2000/svg">
<g clip-path="url(#clip0_245_125)">
<path fill-rule="evenodd" clip-rule="evenodd" d="M8 16.001C12.4185 16.001 16 12.4195 16 8.00098C16 3.58248 12.4185 0.000976562 8 0.000976562C3.5815 0.000976562 0 3.58248 0 8.00098C0 12.4195 3.5815 16.001 8 16.001ZM9.05998 4.86787H11L11.007 4.85487V3.90137H5.00048V5.30137H6.87398C7.48698 5.30137 7.92698 5.56787 8.10048 6.04787H5.00048V7.01437H8.06698C7.89348 7.48087 7.45348 7.77437 6.85348 7.77437H4.97998V9.17437H6.29348L7.89998 12.0809H9.91348L8.05998 8.96737C8.84648 8.78737 9.66648 8.14737 9.82648 7.02087H10.993V6.05437H9.80648C9.69998 5.58137 9.43998 5.17437 9.05998 4.86787Z" fill="black"/>
</g>
<defs>
<clipPath id="clip0_245_125">
<rect width="16" height="16" fill="white" transform="translate(0 0.000976562)"/>
</clipPath>
</defs>
</svg>
