<svg width="17" height="16" viewBox="0 0 17 16" fill="none" xmlns="http://www.w3.org/2000/svg">
<g clip-path="url(#clip0_6_423)">
<path d="M8.50002 4.00018L9.27352 5.44018C9.70902 6.24468 10.477 6.82168 11.388 6.99068L11.4065 6.99368L13.013 7.28018L11.8865 8.46018C11.3615 9.00168 11.0375 9.74168 11.0375 10.5567C11.0375 10.7037 11.048 10.8482 11.0685 10.9897L11.0665 10.9737L11.2865 12.5872L9.90002 11.9207C9.49102 11.7187 9.00902 11.6002 8.50002 11.6002C7.99102 11.6002 7.50902 11.7182 7.08102 11.9287L7.10002 11.9202L5.71352 12.5867L5.93352 10.9732C5.95202 10.8482 5.96252 10.7032 5.96252 10.5562C5.96252 9.74068 5.63902 9.00118 5.11302 8.45868L5.11402 8.45968L3.98752 7.24618L5.59402 6.95968C6.52402 6.78768 7.29152 6.21068 7.71952 5.42218L7.72752 5.40618L8.50102 3.99968L8.50002 4.00018ZM8.50002 0.34668C8.49952 0.34668 8.49902 0.34668 8.49852 0.34668C8.16852 0.34668 7.88202 0.53068 7.73552 0.80218L7.73302 0.80668L5.83302 4.38018C5.70652 4.61068 5.48652 4.77618 5.22502 4.82618L5.21952 4.82718L1.21952 5.54718C0.808023 5.61968 0.499023 5.97468 0.499023 6.40118C0.499023 6.63368 0.590523 6.84468 0.739523 7.00068L3.54552 9.92668C3.69752 10.0797 3.79102 10.2902 3.79102 10.5232C3.79102 10.5742 3.78652 10.6237 3.77802 10.6722L3.77902 10.6672L3.23252 14.6672C3.22702 14.7032 3.22402 14.7447 3.22402 14.7872C3.22402 15.2657 3.61202 15.6537 4.09052 15.6537C4.09102 15.6537 4.09152 15.6537 4.09252 15.6537C4.10002 15.6542 4.10952 15.6542 4.11852 15.6542C4.25752 15.6542 4.38902 15.6197 4.50352 15.5582L4.49902 15.5602L8.06552 13.8402C8.20002 13.7732 8.35802 13.7337 8.52552 13.7337C8.69302 13.7337 8.85102 13.7732 8.99152 13.8427L8.98552 13.8402L12.499 15.5602C12.6075 15.6192 12.737 15.6537 12.874 15.6537C12.8755 15.6537 12.8775 15.6537 12.8795 15.6537C12.888 15.6542 12.8975 15.6542 12.9075 15.6542C13.386 15.6542 13.774 15.2662 13.774 14.7877C13.774 14.7452 13.771 14.7032 13.765 14.6627L13.7655 14.6672L13.219 10.6672C13.213 10.6292 13.2095 10.5852 13.2095 10.5407C13.2095 10.3097 13.302 10.0997 13.4525 9.94718L16.259 7.02068C16.4085 6.86518 16.5005 6.65368 16.5005 6.42068C16.5005 5.99568 16.1945 5.64218 15.791 5.56818L15.7855 5.56718L11.7855 4.84718C11.5125 4.79368 11.289 4.62018 11.168 4.38568L11.1655 4.38068L9.26552 0.80718C9.11702 0.53118 8.83002 0.34668 8.50002 0.34668Z" fill="black"/>
</g>
<defs>
<clipPath id="clip0_6_423">
<rect width="16" height="16" fill="white" transform="translate(0.5)"/>
</clipPath>
</defs>
</svg>
