<svg width="17" height="16" viewBox="0 0 17 16" fill="none" xmlns="http://www.w3.org/2000/svg">
<path d="M6.6736 0.00195312H10.3336V1.82845H6.6736V0.00195312Z" fill="black"/>
<path d="M13.2736 5.33545L14.2201 4.24895L12.8401 3.04895L11.8736 4.16895C10.9161 3.56195 9.7501 3.20195 8.5001 3.20195C7.2501 3.20195 6.0841 3.56195 5.1006 4.18445L5.1266 4.16895L4.1601 3.06245L2.7801 4.26245L3.7266 5.33595C2.7171 6.46245 2.1001 7.95895 2.1001 9.59945C2.1001 13.134 4.9656 15.9995 8.5001 15.9995C12.0346 15.9995 14.9001 13.134 14.9001 9.59945C14.9001 7.95895 14.2831 6.46295 13.2681 5.32995L13.2736 5.33545ZM8.5001 9.60195L5.5601 12.5285C4.8131 11.7785 4.3511 10.744 4.3511 9.60195C4.3511 7.31195 6.2076 5.45545 8.4976 5.45545H8.5001V9.60195Z" fill="black"/>
</svg>
