<svg width="16" height="17" viewBox="0 0 16 17" fill="none" xmlns="http://www.w3.org/2000/svg">
<g clip-path="url(#clip0_6_500)">
<path d="M9.11 0.51793C9.112 0.50893 9.113 0.49843 9.113 0.48793C9.113 0.47743 9.112 0.46693 9.1095 0.45693C8.7765 0.40643 8.3915 0.37843 8 0.37793C5.779 0.37893 3.769 1.28493 2.32 2.74743C4.882 3.84793 7.087 5.24893 9.0295 6.94343L8.9995 6.91793C9.9995 5.25793 10 3.01793 9.11 0.51793Z" fill="black"/>
<path d="M7.72 8.42793C5.8305 6.76343 3.6285 5.39643 1.222 4.43193L1.07 4.37793C0.3975 5.52443 0 6.90343 0 8.37493C0 8.37593 0 8.37693 0 8.37843C0.0045 8.73593 0.03 9.08243 0.075 9.42293L0.07 9.37843C3.13 10.1284 5.91 9.84793 7.72 8.42793Z" fill="black"/>
<path d="M10.47 15.9879C11.361 15.6909 12.1335 15.2764 12.8195 14.7534L12.8 14.7679C12.43 14.0979 12.05 13.4379 11.62 12.7679C10.9785 13.6699 10.5615 14.7724 10.4715 15.9664L10.47 15.9879Z" fill="black"/>
<path d="M9.18 9.80793C7.637 11.0214 5.6665 11.7544 3.5245 11.7544C3.4035 11.7544 3.283 11.7519 3.163 11.7474L3.1805 11.7479C2.27 11.7394 1.3855 11.6524 0.5265 11.4934L0.6205 11.5079C1.871 14.3949 4.695 16.3779 7.983 16.3779C7.989 16.3779 7.9955 16.3779 8.0015 16.3779H8.4405C8.4765 14.3894 9.2035 12.5774 10.391 11.1654L10.3805 11.1779C10.0005 10.7046 9.6 10.2479 9.18 9.80793Z" fill="black"/>
<path d="M10.51 8.30793C11 8.81793 11.51 9.30793 11.93 9.88793C13.003 9.25643 14.2935 8.88343 15.6715 8.88343C15.7625 8.88343 15.853 8.88493 15.943 8.88843L15.93 8.88793C15.93 8.71793 15.93 8.54793 15.93 8.36793C15.9275 5.18293 14.064 2.43393 11.3685 1.14893L11.32 1.12843C11.5865 1.93193 11.7405 2.85693 11.7405 3.81743C11.7405 5.47443 11.283 7.02443 10.488 8.34793L10.51 8.30793Z" fill="black"/>
<path d="M14.28 13.3779C14.831 12.6829 15.2765 11.8729 15.5735 10.9944L15.59 10.9379C14.6935 10.9409 13.85 11.1659 13.1115 11.5619L13.14 11.5479C13.54 12.1013 13.92 12.7113 14.28 13.3779Z" fill="black"/>
</g>
<defs>
<clipPath id="clip0_6_500">
<rect width="16" height="16" fill="white" transform="translate(0 0.37793)"/>
</clipPath>
</defs>
</svg>
