<svg width="17" height="16" viewBox="0 0 17 16" fill="none" xmlns="http://www.w3.org/2000/svg">
<g clip-path="url(#clip0_872_563)">
<path fill-rule="evenodd" clip-rule="evenodd" d="M0.850098 0.0996096H5.7501V1.89961H2.6501V4.99961H0.850098V0.0996096Z" fill="black"/>
<path fill-rule="evenodd" clip-rule="evenodd" d="M16.1501 15.8996L11.2501 15.8996V14.0996L14.3501 14.0996V10.9996H16.1501L16.1501 15.8996Z" fill="black"/>
<path fill-rule="evenodd" clip-rule="evenodd" d="M16.1501 0.0996096V4.99961H14.3501V1.89961L11.2501 1.89961V0.0996094L16.1501 0.0996096Z" fill="black"/>
<path fill-rule="evenodd" clip-rule="evenodd" d="M0.850098 15.8996L0.850098 10.9996H2.6501L2.6501 14.0996H5.7501V15.8996H0.850098Z" fill="black"/>
<path fill-rule="evenodd" clip-rule="evenodd" d="M10.6001 5.99961V3.99961H12.4001V5.99961H10.6001Z" fill="black"/>
<path fill-rule="evenodd" clip-rule="evenodd" d="M5.1001 5.99961V3.99961H6.9001V5.99961H5.1001Z" fill="black"/>
<path fill-rule="evenodd" clip-rule="evenodd" d="M8.52311 8.2038L8.11758 6.17611L9.88262 5.8231L10.4771 8.79542L9.13649 10.136L7.8637 8.86321L8.52311 8.2038Z" fill="black"/>
<path fill-rule="evenodd" clip-rule="evenodd" d="M8.7501 13.0246C7.6006 13.0246 6.53695 12.5272 5.4601 11.7196L6.5401 10.2796C7.46324 10.972 8.1496 11.2246 8.7501 11.2246C9.3506 11.2246 10.037 10.972 10.9601 10.2796L12.0401 11.7196C10.9632 12.5272 9.8996 13.0246 8.7501 13.0246Z" fill="black"/>
</g>
<defs>
<clipPath id="clip0_872_563">
<rect width="16" height="16" fill="white" transform="translate(0.5)"/>
</clipPath>
</defs>
</svg>
