<svg width="16" height="17" viewBox="0 0 16 17" fill="none" xmlns="http://www.w3.org/2000/svg">
<g clip-path="url(#clip0_6_548)">
<path d="M6.35349 6.94491C6.35349 5.91841 5.46699 5.99141 5.46699 5.99141H4.07349L3.81999 7.89791H5.31999C5.31999 7.89791 6.35999 7.97141 6.35999 6.94441L6.35349 6.94491Z" fill="black"/>
<path d="M14.94 4.41191L14.7535 6.11841L11.3735 6.09841L11.167 7.51841H14.087L13.8735 9.27191H10.9L10.3935 12.4454H8.38699L9.86049 4.31891H14.8805C13.494 1.96541 10.934 0.378906 8.00049 0.378906C3.58049 0.378906 0.000488281 3.95891 0.000488281 8.37891C0.000488281 9.82541 0.393988 11.1854 1.06699 12.3524L2.52049 4.31891H6.32699C6.32699 4.31891 8.38699 4.26541 8.38699 6.60541C8.38699 8.94541 6.25349 9.14541 6.25349 9.14541L7.90699 12.4454H5.84699L4.27349 9.27191H3.55999L3.05349 12.4454H1.11999C2.51349 14.7989 5.06649 16.3854 7.99999 16.3854C12.42 16.3854 16 12.8054 16 8.38541C16 6.93891 15.6135 5.58541 14.94 4.41891V4.41191Z" fill="black"/>
</g>
<defs>
<clipPath id="clip0_6_548">
<rect width="16" height="16" fill="white" transform="translate(0 0.37793)"/>
</clipPath>
</defs>
</svg>
