<svg width="16" height="16" viewBox="0 0 16 16" fill="none" xmlns="http://www.w3.org/2000/svg">
<g clip-path="url(#clip0_6_522)">
<path d="M9.9667 3.61302L11.4002 1.68652V4.14002L12.3537 4.35352L12.8537 3.92702C12.3737 1.69352 10.4002 0.0205236 8.0337 0.000523567L9.0872 3.61402H9.9672L9.9667 3.61302Z" fill="black"/>
<path d="M4.6002 4.13952V1.68602L6.0337 3.61252H6.9137L8.0337 -0.000976562C8.0337 -0.000976562 8.0137 -0.000976562 8.0002 -0.000976562C5.6137 -0.000976562 3.6267 1.67902 3.1537 3.92552L3.6537 4.35202L4.6072 4.13852L4.6002 4.13952Z" fill="black"/>
<path d="M11.0002 6.56602C11.2337 7.23952 11.3667 7.99252 11.3667 8.79952C11.3667 11.5395 9.8602 13.7595 7.9932 13.7595C6.1262 13.7595 4.6197 11.5395 4.6197 8.79952C4.6197 8.00602 4.7462 7.25952 4.9732 6.59302C4.0732 6.70652 3.3997 6.83952 3.0332 6.91302V13.5195C7.5267 17.706 10.2997 15.813 12.9532 13.5195V6.91302C12.2932 6.75952 11.6397 6.64652 10.9932 6.56652L11.0002 6.56602Z" fill="black"/>
</g>
<defs>
<clipPath id="clip0_6_522">
<rect width="16" height="16" fill="white"/>
</clipPath>
</defs>
</svg>
