<svg width="16" height="17" viewBox="0 0 16 17" fill="none" xmlns="http://www.w3.org/2000/svg">
<g clip-path="url(#clip0_6_253)">
<path d="M6.37999 10.8129C6.42599 10.2849 6.45199 9.67093 6.45199 9.05043C6.45199 8.42993 6.42599 7.81593 6.37449 7.20893L6.37999 7.28793C6.30849 6.25843 6.17349 5.31193 5.97599 4.38893L5.99999 4.52293C5.71199 3.18693 5.33449 2.02143 4.85649 0.90943L4.90499 1.03543C4.87499 0.96543 4.84999 0.94793 4.75749 0.98793C4.36149 1.16643 4.04149 1.33343 3.73149 1.51543L3.78249 1.48793C3.67999 1.54293 3.71499 1.59543 3.74749 1.65793C4.21649 2.55093 4.62199 3.59043 4.90899 4.67743L4.93249 4.78293C5.18849 5.72943 5.35549 6.82593 5.39649 7.95393L5.39749 7.98043C5.40399 8.15093 5.40799 8.35093 5.40799 8.55193C5.40799 9.71043 5.28199 10.8399 5.04349 11.9269L5.06249 11.8234C4.79199 13.0759 4.40599 14.1804 3.90349 15.2174L3.94249 15.1284C3.73999 15.5484 3.50499 15.9584 3.26499 16.3784C3.87249 16.3784 4.45249 16.3784 5.02999 16.3784C5.03499 16.3794 5.04049 16.3794 5.04649 16.3794C5.10349 16.3794 5.15049 16.3379 5.15999 16.2839C5.65649 15.0164 6.04399 13.5359 6.25599 11.9994L6.26749 11.8959C6.31749 11.5484 6.34749 11.1804 6.37999 10.8129Z" fill="black"/>
<path d="M12.045 15.0929C11.55 14.0759 11.1505 12.8939 10.9055 11.6564L10.89 11.5629C10.705 10.6589 10.5985 9.61993 10.5985 8.55593C10.5985 7.98593 10.629 7.42293 10.6885 6.86893L10.6825 6.93793C10.764 6.15793 10.8915 5.45743 11.067 4.77643L11.045 4.87793C11.3555 3.64143 11.774 2.55943 12.3065 1.54643L12.2675 1.62793C12.305 1.55793 12.2925 1.51793 12.215 1.47293C11.9615 1.32143 11.6495 1.15843 11.329 1.01193L11.265 0.98543C11.16 0.93543 11.13 0.96043 11.095 1.04293C10.8725 1.58543 10.6725 2.12793 10.5 2.66293C9.89549 4.55943 9.54699 6.74093 9.54699 9.00393C9.54699 9.05993 9.54699 9.11593 9.54749 9.17143V9.16293C9.54749 9.16993 9.54749 9.17793 9.54749 9.18593C9.54749 11.7374 10.02 14.1784 10.8815 16.4264L10.835 16.2879C10.865 16.3679 10.9075 16.4004 11.02 16.3979C11.5367 16.3979 12.0542 16.3979 12.5725 16.3979C12.7 16.3979 12.7425 16.3979 12.6775 16.2779C12.45 15.8779 12.235 15.4954 12.045 15.0929Z" fill="black"/>
<path d="M15.8775 16.3179C15.5885 16.1604 15.3435 16.0019 15.1105 15.8284L15.1275 15.8404C14.1975 15.1349 13.452 14.2344 12.944 13.1964L12.925 13.1529C12.4765 12.2759 12.1425 11.2579 11.977 10.1844L11.97 10.1279C11.8835 9.61593 11.8345 9.02643 11.8345 8.42543C11.8345 8.22143 11.84 8.01843 11.8515 7.81743L11.85 7.84543C11.9045 6.94593 12.078 6.10493 12.355 5.31243L12.335 5.37793C12.673 4.39943 13.1165 3.55043 13.6655 2.78243L13.645 2.81293C13.6725 2.77543 13.73 2.74043 13.6725 2.68293C13.4865 2.48943 13.292 2.30793 13.089 2.13743L13.0775 2.12793C13.065 2.12793 13.0525 2.12793 13.0475 2.14543L13 2.22043C12.1615 3.50393 11.5665 5.02393 11.3205 6.65793L11.3125 6.72043C11.21 7.32693 11.151 8.02543 11.151 8.73793C11.151 9.13943 11.1695 9.53643 11.206 9.92793L11.202 9.87793C11.2965 10.8834 11.4995 11.8084 11.802 12.6869L11.777 12.6029C12.26 14.0264 12.957 15.2574 13.8425 16.3274L13.827 16.3079C13.877 16.3709 13.9535 16.4104 14.039 16.4104C14.0525 16.4104 14.0655 16.4094 14.0785 16.4074H14.077C14.517 16.4074 14.9545 16.4074 15.3945 16.4074H15.9995C15.9345 16.3524 15.9075 16.3329 15.8775 16.3179Z" fill="black"/>
<path d="M4.78999 9.98543C4.83599 9.57993 4.86199 9.10943 4.86199 8.63293C4.86199 8.03893 4.82149 7.45393 4.74249 6.88143L4.74999 6.94793C4.54299 5.42693 4.06849 4.05293 3.37249 2.82043L3.40249 2.87793C3.24199 2.58393 3.08799 2.33893 2.92099 2.10343L2.93749 2.12793C2.71999 2.30693 2.52449 2.48643 2.33899 2.67643L2.33749 2.67793C2.29499 2.72043 2.31499 2.75043 2.33749 2.78543C2.41249 2.89543 2.48999 3.00543 2.56249 3.11543C3.57299 4.61493 4.17599 6.46243 4.17599 8.45043C4.17599 8.86093 4.15049 9.26593 4.10049 9.66293L4.10549 9.61543C4.00049 10.6309 3.76299 11.5624 3.40849 12.4334L3.43299 12.3654C2.79299 13.9579 1.83049 15.3779 0.000488281 16.3954H2.01799C2.07749 16.3954 2.12899 16.3634 2.15749 16.3159C2.29499 16.1384 2.43799 15.9629 2.57299 15.7854C2.95549 15.2739 3.31049 14.6954 3.61149 14.0854L3.64049 14.0204C4.22799 12.8464 4.63549 11.4799 4.78599 10.0369L4.78999 9.98543Z" fill="black"/>
<path d="M9.79249 16.2704C9.67599 15.9054 9.57349 15.4639 9.50599 15.0114L9.49999 14.9629C9.31399 13.8039 9.17999 12.4204 9.12699 11.0154L9.12499 10.9504C9.04249 9.24543 9.00749 7.54043 8.99749 5.83543C8.99749 4.83543 9.01249 3.81293 9.01999 2.80293L9.02999 0.51543C9.02999 0.43543 9.01499 0.40043 8.89999 0.38793L7.19249 0.37793C7.00749 0.37793 6.97249 0.44293 6.97499 0.58293C6.99166 1.84793 7.00582 3.11293 7.01749 4.37793C7.03249 6.55543 6.99499 8.73043 6.88499 10.9054C6.85249 11.5179 6.82499 12.1304 6.77749 12.7454C6.71999 13.4729 6.64249 14.2029 6.52749 14.9279C6.42899 15.4974 6.30949 15.9854 6.15999 16.4604L6.18249 16.3779C6.36249 16.3779 6.52999 16.3779 6.69749 16.3779C6.69899 16.3779 6.70049 16.3779 6.70199 16.3779C6.79199 16.3779 6.86999 16.3254 6.90699 16.2494L6.90749 16.2479C6.94699 16.1659 6.98649 16.0649 7.01999 15.9609L7.02499 15.9429C7.04249 15.8504 7.08999 15.8179 7.19499 15.7929C7.49249 15.7584 7.72499 15.5199 7.74999 15.2229V15.2204C7.74999 15.0679 7.74999 14.9154 7.74999 14.7629C7.74999 14.7354 7.73499 14.6979 7.76749 14.6754C7.46949 14.6334 7.22449 14.4419 7.10699 14.1809L7.10499 14.1754H6.94499C6.93949 14.1764 6.93299 14.1769 6.92599 14.1769C6.86199 14.1769 6.80949 14.1299 6.79999 14.0689V13.9209C6.80949 13.8589 6.86249 13.8119 6.92599 13.8119C6.93249 13.8119 6.93899 13.8124 6.94549 13.8134H7.08999C7.21899 13.4754 7.53999 13.2394 7.91699 13.2394C7.94649 13.2394 7.97549 13.2409 8.00399 13.2434L8.00049 13.2429C8.01899 13.2414 8.04049 13.2409 8.06249 13.2409C8.44299 13.2409 8.76749 13.4819 8.89099 13.8194L8.89299 13.8254H9.03799C9.04349 13.8244 9.04999 13.8239 9.05699 13.8239C9.12099 13.8239 9.17349 13.8709 9.18299 13.9319V14.0799C9.17349 14.1419 9.12049 14.1889 9.05699 14.1889C9.05049 14.1889 9.04399 14.1884 9.03749 14.1874H8.87799C8.75999 14.4514 8.51899 14.6414 8.23049 14.6869L8.22549 14.6874C8.24799 14.7099 8.22549 14.7374 8.22549 14.7649C8.22549 14.9024 8.22549 15.0424 8.22549 15.1824C8.22549 15.5149 8.41799 15.7149 8.81299 15.8199C8.89799 15.8449 8.95549 15.8649 8.96549 15.9524C9.00049 16.0749 9.04249 16.1804 9.09299 16.2804L9.08799 16.2699C9.13149 16.3469 9.21299 16.3979 9.30599 16.3979C9.31099 16.3979 9.31599 16.3979 9.32099 16.3974C9.37349 16.3944 9.43499 16.3929 9.49649 16.3929C9.55799 16.3929 9.61999 16.3944 9.68099 16.3979L9.67249 16.3974C9.81249 16.3924 9.81999 16.3579 9.79249 16.2704Z" fill="black"/>
</g>
<defs>
<clipPath id="clip0_6_253">
<rect width="16" height="16" fill="white" transform="translate(0 0.37793)"/>
</clipPath>
</defs>
</svg>
