<svg width="16" height="17" viewBox="0 0 16 17" fill="none" xmlns="http://www.w3.org/2000/svg">
<g clip-path="url(#clip0_6_257)">
<path d="M2.655 15.0504C2.655 15.7834 2.0605 16.3779 1.3275 16.3779C0.5945 16.3779 0 15.7834 0 15.0504C0 14.3174 0.5945 13.7229 1.3275 13.7229C2.0605 13.7229 2.655 14.3174 2.655 15.0504Z" fill="black"/>
<path d="M5.99 15.0504C5.99 15.7834 5.3955 16.3779 4.6625 16.3779C3.9295 16.3779 3.335 15.7834 3.335 15.0504C3.335 14.3174 3.9295 13.7229 4.6625 13.7229C5.3955 13.7229 5.99 14.3174 5.99 15.0504Z" fill="black"/>
<path d="M9.3275 15.0504C9.3275 15.7834 8.733 16.3779 8 16.3779C7.267 16.3779 6.6725 15.7834 6.6725 15.0504C6.6725 14.3174 7.267 13.7229 8 13.7229C8.733 13.7229 9.3275 14.3174 9.3275 15.0504Z" fill="black"/>
<path d="M12.665 15.0504C12.665 15.7834 12.0705 16.3779 11.3375 16.3779C10.6045 16.3779 10.01 15.7834 10.01 15.0504C10.01 14.3174 10.6045 13.7229 11.3375 13.7229C12.0705 13.7229 12.665 14.3174 12.665 15.0504Z" fill="black"/>
<path d="M16 15.0504C16 15.7834 15.4055 16.3779 14.6725 16.3779C13.9395 16.3779 13.345 15.7834 13.345 15.0504C13.345 14.3174 13.9395 13.7229 14.6725 13.7229C15.4055 13.7229 16 14.3174 16 15.0504Z" fill="black"/>
<path d="M4.3225 11.7154C4.3225 12.4484 3.728 13.0429 2.995 13.0429C2.262 13.0429 1.6675 12.4484 1.6675 11.7154C1.6675 10.9824 2.262 10.3879 2.995 10.3879C3.728 10.3879 4.3225 10.9824 4.3225 11.7154Z" fill="black"/>
<path d="M7.66 11.7154C7.66 12.4484 7.0655 13.0429 6.3325 13.0429C5.5995 13.0429 5.005 12.4484 5.005 11.7154C5.005 10.9824 5.5995 10.3879 6.3325 10.3879C7.0655 10.3879 7.66 10.9824 7.66 11.7154Z" fill="black"/>
<path d="M10.995 11.7154C10.995 12.4484 10.4005 13.0429 9.6675 13.0429C8.9345 13.0429 8.34 12.4484 8.34 11.7154C8.34 10.9824 8.9345 10.3879 9.6675 10.3879C10.4005 10.3879 10.995 10.9824 10.995 11.7154Z" fill="black"/>
<path d="M14.3325 11.7154C14.3325 12.4484 13.738 13.0429 13.005 13.0429C12.272 13.0429 11.6775 12.4484 11.6775 11.7154C11.6775 10.9824 12.272 10.3879 13.005 10.3879C13.738 10.3879 14.3325 10.9824 14.3325 11.7154Z" fill="black"/>
<path d="M5.99 8.37793C5.99 9.11093 5.3955 9.70543 4.6625 9.70543C3.9295 9.70543 3.335 9.11093 3.335 8.37793C3.335 7.64493 3.9295 7.05043 4.6625 7.05043C5.3955 7.05043 5.99 7.64493 5.99 8.37793Z" fill="black"/>
<path d="M9.3275 8.37793C9.3275 9.11093 8.733 9.70543 8 9.70543C7.267 9.70543 6.6725 9.11093 6.6725 8.37793C6.6725 7.64493 7.267 7.05043 8 7.05043C8.733 7.05043 9.3275 7.64493 9.3275 8.37793Z" fill="black"/>
<path d="M12.665 8.37793C12.665 9.11093 12.0705 9.70543 11.3375 9.70543C10.6045 9.70543 10.01 9.11093 10.01 8.37793C10.01 7.64493 10.6045 7.05043 11.3375 7.05043C12.0705 7.05043 12.665 7.64493 12.665 8.37793Z" fill="black"/>
<path d="M7.66 5.04043C7.66 5.77343 7.0655 6.36793 6.3325 6.36793C5.5995 6.36793 5.005 5.77343 5.005 5.04043C5.005 4.30743 5.5995 3.71293 6.3325 3.71293C7.0655 3.71293 7.66 4.30743 7.66 5.04043Z" fill="black"/>
<path d="M10.995 5.04043C10.995 5.77343 10.4005 6.36793 9.6675 6.36793C8.9345 6.36793 8.34 5.77343 8.34 5.04043C8.34 4.30743 8.9345 3.71293 9.6675 3.71293C10.4005 3.71293 10.995 4.30743 10.995 5.04043Z" fill="black"/>
<path d="M9.3275 1.70543C9.3275 2.43843 8.733 3.03293 8 3.03293C7.267 3.03293 6.6725 2.43843 6.6725 1.70543C6.6725 0.97243 7.267 0.37793 8 0.37793C8.733 0.37793 9.3275 0.97243 9.3275 1.70543Z" fill="black"/>
</g>
<defs>
<clipPath id="clip0_6_257">
<rect width="16" height="16" fill="white" transform="translate(0 0.37793)"/>
</clipPath>
</defs>
</svg>
