<svg width="16" height="17" viewBox="0 0 16 17" fill="none" xmlns="http://www.w3.org/2000/svg">
<g clip-path="url(#clip0_6_479)">
<path d="M9.15349 15.044L5.38699 11.2775C5.26699 11.157 5.19299 10.991 5.19299 10.8075C5.19299 10.624 5.26699 10.458 5.38699 10.3375C5.50749 10.2175 5.67349 10.1435 5.85699 10.1435C6.04049 10.1435 6.20649 10.2175 6.32699 10.3375L8.21349 12.224L8.68699 11.7505L5.85349 8.92395C5.73249 8.80295 5.65749 8.63545 5.65749 8.45045C5.65749 8.08095 5.95699 7.78095 6.32699 7.78095C6.51199 7.78095 6.67899 7.85595 6.80049 7.97695L9.62699 10.8105L10.1005 10.337L7.74049 7.97695C7.62049 7.85645 7.54649 7.69045 7.54649 7.50695C7.54649 7.32345 7.62049 7.15745 7.74049 7.03695C7.85999 6.92295 8.02199 6.85295 8.20049 6.85295C8.38249 6.85295 8.54699 6.92595 8.66749 7.04395L12.434 10.8175L12.9075 10.344L11.494 8.93045C11.372 8.80945 11.297 8.64195 11.297 8.45695C11.297 8.27195 11.3725 8.10445 11.494 7.98345C11.6145 7.86345 11.7805 7.78945 11.964 7.78945C12.1475 7.78945 12.3135 7.86345 12.434 7.98345L14.3205 9.86995C14.765 10.451 15.0555 11.1715 15.1195 11.9555L15.1205 11.97C15.67 10.9265 15.995 9.68995 16.0005 8.37845V8.37695C16.0005 3.95845 12.419 0.376953 8.00049 0.376953C3.58199 0.376953 0.000488281 3.95845 0.000488281 8.37695C0.000488281 12.7955 3.58199 16.377 8.00049 16.377H8.00399C8.90699 16.377 9.77449 16.2255 10.5825 15.947L10.527 15.9635C9.99899 15.7195 9.54549 15.4115 9.15099 15.041L9.15349 15.044Z" fill="black"/>
</g>
<defs>
<clipPath id="clip0_6_479">
<rect width="16" height="16" fill="white" transform="translate(0 0.37793)"/>
</clipPath>
</defs>
</svg>
