<svg width="16" height="17" viewBox="0 0 16 17" fill="none" xmlns="http://www.w3.org/2000/svg">
<g clip-path="url(#clip0_6_224)">
<path d="M11.3316 5.62381C11.5611 5.75931 11.8371 5.83931 12.1321 5.83931C13.0121 5.83931 13.7256 5.12581 13.7256 4.24581C13.7256 3.36581 13.0121 2.65231 12.1321 2.65231C11.5451 2.65231 11.0321 2.96981 10.7556 3.44231L10.7516 3.44981C10.6191 3.67781 10.5411 3.95131 10.5411 4.24281C10.5411 4.82781 10.8551 5.33981 11.3241 5.61881L11.3316 5.62381Z" fill="black"/>
<path d="M2.90508 11.3308H2.95158C3.02558 11.3768 3.11108 11.4193 3.20108 11.4538L3.21158 11.4573C3.43958 11.5503 3.70408 11.6038 3.98158 11.6038C3.98758 11.6038 3.99358 11.6038 3.99908 11.6038C4.01558 11.6043 4.03408 11.6043 4.05358 11.6043C4.58058 11.6043 5.06408 11.4178 5.44158 11.1073L5.43758 11.1103C6.12108 10.5858 6.98808 10.2698 7.92908 10.2698C7.95308 10.2698 7.97708 10.2698 8.00108 10.2703H7.99758C8.01508 10.2698 8.03608 10.2698 8.05708 10.2698C8.99908 10.2698 9.86658 10.5858 10.5606 11.1173L10.5506 11.1098C10.9246 11.4173 11.4081 11.6038 11.9351 11.6038C11.9571 11.6038 11.9786 11.6033 12.0006 11.6028H11.9976C12.0136 11.6033 12.0321 11.6033 12.0506 11.6033C12.5806 11.6033 13.0671 11.4168 13.4486 11.1063L13.4446 11.1093C14.1246 10.5848 14.9891 10.2688 15.9271 10.2688C15.9521 10.2688 15.9766 10.2688 16.0016 10.2693H15.9981V8.26931C15.9786 8.26881 15.9551 8.26881 15.9321 8.26881C14.9926 8.26881 14.1266 8.58481 13.4351 9.11631L13.4446 9.10931C13.0676 9.41681 12.5811 9.60331 12.0506 9.60331C12.0321 9.60331 12.0136 9.60331 11.9951 9.60281H11.9976C11.9791 9.60331 11.9576 9.60381 11.9356 9.60381C11.4086 9.60381 10.9246 9.41731 10.5471 9.10681L10.5511 9.10981C10.0431 8.72431 9.43008 8.44981 8.76258 8.33331L8.73758 8.32981H8.61108C8.42558 8.30131 8.21058 8.28431 7.99208 8.28331C7.96858 8.28281 7.94008 8.28231 7.91208 8.28231C6.97858 8.28231 6.11808 8.59331 5.42758 9.11731L5.43758 9.10981C5.06358 9.41731 4.58008 9.60381 4.05308 9.60381C4.03358 9.60381 4.01408 9.60381 3.99458 9.60281H3.99758C3.97858 9.60331 3.95608 9.60381 3.93308 9.60381C3.40658 9.60381 2.92358 9.41731 2.54708 9.10631L2.55058 9.10931L2.30408 8.94281L2.25058 8.90931L1.99708 8.77581L1.92358 8.73581L1.66358 8.60931H1.60358C1.13058 8.39681 0.578582 8.27181 -0.00241797 8.26931H-0.00341797V10.2693C0.015082 10.2688 0.036582 10.2688 0.058582 10.2688C0.999582 10.2688 1.86658 10.5848 2.56008 11.1163L2.55008 11.1093L2.90508 11.3308Z" fill="black"/>
<path d="M15.9981 11.6038C15.8846 11.6038 15.7781 11.6038 15.6716 11.6038C14.8241 11.6608 14.0581 11.9678 13.4356 12.4508L13.4451 12.4438C13.0681 12.7513 12.5816 12.9378 12.0511 12.9378C12.0326 12.9378 12.0141 12.9378 11.9956 12.9373H11.9981C11.9796 12.9378 11.9581 12.9383 11.9361 12.9383C11.4091 12.9383 10.9251 12.7518 10.5476 12.4413L10.5516 12.4443C9.93658 11.9758 9.17008 11.6753 8.33658 11.6248L8.32508 11.6243C8.21858 11.6243 8.11858 11.6243 8.00508 11.6243C7.89158 11.6243 7.78508 11.6243 7.68508 11.6243C6.83258 11.6713 6.05908 11.9723 5.42808 12.4518L5.43808 12.4443C5.06408 12.7518 4.58058 12.9383 4.05358 12.9383C4.03408 12.9383 4.01458 12.9383 3.99508 12.9373H3.99808C3.97908 12.9378 3.95658 12.9383 3.93358 12.9383C3.40708 12.9383 2.92408 12.7518 2.54758 12.4408L2.55108 12.4438C1.93758 11.9758 1.17408 11.6758 0.342582 11.6243L0.331082 11.6238C0.224582 11.6238 0.117582 11.6238 0.00458192 11.6238H-0.00191808V13.6238C0.0240819 13.6233 0.0550819 13.6228 0.0855819 13.6228C1.01508 13.6228 1.87258 13.9313 2.56158 14.4513L2.55108 14.4438C2.92408 14.7513 3.40708 14.9383 3.93358 14.9383C3.95608 14.9383 3.97858 14.9378 4.00108 14.9373H3.99758C4.01408 14.9378 4.03358 14.9378 4.05308 14.9378C4.58008 14.9378 5.06358 14.7513 5.44108 14.4408L5.43708 14.4438C6.12058 13.9193 6.98758 13.6033 7.92858 13.6033C7.95258 13.6033 7.97658 13.6033 8.00058 13.6038H7.99708C8.01458 13.6033 8.03558 13.6033 8.05658 13.6033C8.99858 13.6033 9.86608 13.9193 10.5601 14.4508L10.5501 14.4433C10.9241 14.7508 11.4076 14.9373 11.9346 14.9373C11.9566 14.9373 11.9781 14.9368 12.0001 14.9363H11.9971C12.0131 14.9368 12.0316 14.9368 12.0501 14.9368C12.5801 14.9368 13.0666 14.7503 13.4481 14.4398L13.4441 14.4428C14.1261 13.9183 14.9916 13.6023 15.9311 13.6023C15.9546 13.6023 15.9776 13.6023 16.0006 13.6028H15.9971V11.6028L15.9981 11.6038Z" fill="black"/>
<path d="M3.29158 7.99731C3.67808 8.25731 3.70508 8.27081 3.95808 8.27081C4.21108 8.27081 4.27808 8.27081 4.66458 7.99731C5.55308 7.33431 6.67308 6.93631 7.88608 6.93631C7.92558 6.93631 7.96458 6.93681 8.00408 6.93731H7.99808C8.01058 6.93731 8.02508 6.93731 8.03958 6.93731C9.27508 6.93731 10.4181 7.33481 11.3476 8.00881L11.3311 7.99731C11.7176 8.25731 11.7446 8.27081 12.0376 8.27081C12.3306 8.27081 12.3511 8.27081 12.7441 7.99731C13.5576 7.39881 14.5646 7.01831 15.6566 6.95781L15.6706 6.95731L14.9106 5.72381C11.3041 7.82381 10.1771 5.93731 9.80408 5.31731C8.36408 2.90381 5.69758 0.997306 2.99758 2.17731L3.66408 3.70381C4.99758 3.13031 6.23758 3.78381 7.17758 4.67731L1.99758 7.29081C2.49158 7.49181 2.91758 7.72881 3.30958 8.01031L3.29158 7.99731Z" fill="black"/>
</g>
<defs>
<clipPath id="clip0_6_224">
<rect width="16" height="16" fill="white" transform="translate(0 0.37793)"/>
</clipPath>
</defs>
</svg>
