<svg width="16" height="17" viewBox="0 0 16 17" fill="none" xmlns="http://www.w3.org/2000/svg">
<g clip-path="url(#clip0_6_221)">
<path d="M12.599 6.87879C12.6 6.88379 12.601 6.88929 12.601 6.89529C12.601 6.90129 12.6005 6.90679 12.599 6.91229V6.87879Z" fill="black"/>
<path d="M11.8125 10.7188C12.348 9.87129 12.666 8.83979 12.666 7.73379C12.666 7.44379 12.644 7.15879 12.602 6.88079L12.606 6.91229L6.53247 12.9858C6.77097 13.0238 7.04547 13.0458 7.32497 13.0458C7.32747 13.0458 7.32997 13.0458 7.33247 13.0458C7.33447 13.0458 7.33597 13.0458 7.33847 13.0458C8.45097 13.0458 9.48847 12.7228 10.3615 12.1658L10.339 12.1793L13.999 16.3793L15.999 14.3793L11.8125 10.7188Z" fill="black"/>
<path d="M10.4325 2.61229C7.76597 -0.0542061 3.76597 -0.381206 1.50597 1.88579C-0.75403 4.15279 -0.43403 8.14579 2.23247 10.8123C3.04497 11.6223 4.04097 12.2488 5.15247 12.6233L5.20597 12.6388L12.2795 5.59229C11.883 4.42379 11.25 3.42529 10.4325 2.61229ZM3.33247 8.37879C2.22797 8.37879 1.33247 7.48329 1.33247 6.37879C1.33247 5.27429 2.22797 4.37879 3.33247 4.37879C4.43697 4.37879 5.33247 5.27429 5.33247 6.37879C5.33247 7.48329 4.43697 8.37879 3.33247 8.37879Z" fill="black"/>
</g>
<defs>
<clipPath id="clip0_6_221">
<rect width="16" height="16" fill="white" transform="translate(0 0.37793)"/>
</clipPath>
</defs>
</svg>
