<svg width="16" height="16" viewBox="0 0 16 16" fill="none" xmlns="http://www.w3.org/2000/svg">
<g clip-path="url(#clip0_6_405)">
<path d="M1.83478 10.6021C2.08478 7.40459 5.51978 4.27459 6.31978 3.10209C7.01478 2.04959 6.74978 0.799594 6.52728 0.249594C6.52178 0.232094 6.51828 0.212094 6.51828 0.191094C6.51828 0.0835937 6.60578 -0.00390625 6.71328 -0.00390625C6.72628 -0.00390625 6.73878 -0.00240625 6.75078 -0.00040625C10.2258 0.729594 10.3998 3.37209 10.2948 4.55459C10.1898 5.73709 10.3998 6.53459 11.1648 6.36209C11.9298 6.18959 11.6723 4.24959 11.6723 4.24959C11.6723 4.24959 15.1848 8.42209 13.8973 12.5246C13.2498 14.6696 11.6373 15.5746 10.2823 15.9996C10.2123 16.0346 10.1423 15.9646 10.1423 15.8621C10.3173 15.2021 10.7698 14.6796 10.9073 13.9496C11.1873 12.7496 10.0748 11.6446 9.24978 11.0196C8.73378 10.6351 8.40278 10.0266 8.40278 9.34059C8.40278 9.30859 8.40328 9.27659 8.40478 9.24509V9.24959C8.40478 9.17959 8.29978 9.14459 8.26728 9.17959C7.72428 9.83359 7.17878 10.4231 6.60278 10.9816L6.59728 10.9871C5.31228 12.4121 4.64978 14.0121 5.79728 15.7846C5.83228 15.8546 5.76228 15.9571 5.69478 15.9246C2.84228 15.1571 1.66228 12.9996 1.83478 10.6021Z" fill="black"/>
</g>
<defs>
<clipPath id="clip0_6_405">
<rect width="16" height="16" fill="white"/>
</clipPath>
</defs>
</svg>
