<svg width="17" height="16" viewBox="0 0 17 16" fill="none" xmlns="http://www.w3.org/2000/svg">
<g clip-path="url(#clip0_6_484)">
<path d="M8.47494 6.39273C7.37994 5.93023 6.13494 6.43523 4.55744 8.34773C2.97994 10.2602 3.38994 11.7227 3.42494 12.2502C3.45994 12.7777 4.19494 15.9252 8.03244 16.0002C11.8699 16.0752 13.1724 9.92023 13.1724 9.92023C13.1724 9.92023 9.56744 6.85273 8.47494 6.39273Z" fill="black"/>
<path d="M8.91994 0.135234C8.79794 0.0827344 8.65594 0.0527344 8.50694 0.0527344C8.06644 0.0527344 7.68744 0.318734 7.52244 0.698734L7.51994 0.705734L3.76994 9.57573C3.75894 9.60223 3.75244 9.63274 3.75244 9.66473C3.75244 9.75974 3.80944 9.84173 3.89094 9.87773L3.89244 9.87823L5.43994 10.5307C5.46544 10.5412 5.49544 10.5477 5.52694 10.5477C5.62144 10.5477 5.70294 10.4912 5.73944 10.4097L5.73994 10.4082L9.49994 1.53573C9.55244 1.41423 9.58294 1.27223 9.58294 1.12373C9.58294 0.680234 9.31244 0.299734 8.92744 0.138734L8.92044 0.136234L8.91994 0.135234Z" fill="black"/>
<path d="M13.0124 2.38273C12.8229 2.21023 12.5704 2.10473 12.2929 2.10473C11.9854 2.10473 11.7079 2.23473 11.5129 2.44223L5.09244 9.40273C5.05444 9.44323 5.03144 9.49773 5.03144 9.55773C5.03144 9.62373 5.05944 9.68373 5.10494 9.72523L6.33994 10.8627C6.38094 10.9007 6.43594 10.9237 6.49644 10.9237C6.56294 10.9237 6.62294 10.8952 6.66494 10.8502L13.0749 3.89273C13.2504 3.70323 13.3579 3.44873 13.3579 3.16873C13.3579 2.85823 13.2254 2.57823 13.0134 2.38323L13.0124 2.38273Z" fill="black"/>
<path d="M9.94244 9.46273L8.80244 8.66523C8.06294 8.14173 7.14994 7.81723 6.16244 7.78523H6.15494L4.99994 7.75023C4.99344 7.74973 4.98594 7.74973 4.97794 7.74973C4.71844 7.74973 4.49544 7.90673 4.39894 8.13123L4.39744 8.13523L4.24994 8.47523L9.89994 10.3427L10.0324 10.1952C10.1069 10.1082 10.1524 9.99473 10.1524 9.87023C10.1524 9.70273 10.0699 9.55473 9.94394 9.46373L9.94244 9.46273Z" fill="black"/>
<path d="M9.09644 10.5372L9.08594 10.5307C8.58694 10.2197 8.43494 9.56323 8.74594 9.06423L9.02694 8.61373C9.33794 8.11473 9.99444 7.96274 10.4934 8.27374L10.5039 8.28023C11.0029 8.59123 11.1549 9.24774 10.8439 9.74673L10.5629 10.1972C10.2519 10.6962 9.59544 10.8482 9.09644 10.5372Z" fill="black"/>
<path d="M11.2499 7.25023C11.0884 7.14723 10.8909 7.08623 10.6799 7.08623C10.3014 7.08623 9.96844 7.28223 9.77794 7.57873L9.77544 7.58273L9.11544 8.63023C9.02544 8.78373 8.97194 8.96823 8.97194 9.16573C8.97194 9.75673 9.45094 10.2357 10.0419 10.2357C10.4059 10.2357 10.7274 10.0542 10.9204 9.77623L10.9229 9.77273L11.5829 8.72523C11.6864 8.56324 11.7479 8.36623 11.7479 8.15423C11.7479 7.77573 11.5514 7.44323 11.2544 7.25273L11.2499 7.25023Z" fill="black"/>
<path d="M11.0684 11.6352L11.0579 11.6287C10.5619 11.3152 10.4144 10.6587 10.7279 10.1627L11.0524 9.64923C11.3659 9.15323 12.0224 9.00573 12.5184 9.31923L12.5289 9.32573C13.0249 9.63923 13.1724 10.2957 12.8589 10.7917L12.5344 11.3052C12.2209 11.8012 11.5644 11.9487 11.0684 11.6352Z" fill="black"/>
<path d="M13.0324 8.51773C12.8704 8.41323 12.6729 8.35123 12.4604 8.35123C12.0829 8.35123 11.7514 8.54774 11.5624 8.84373L11.5599 8.84823L10.9999 9.73073C10.8959 9.89273 10.8344 10.0902 10.8344 10.3017C10.8344 10.8917 11.3124 11.3697 11.9024 11.3697C12.2804 11.3697 12.6124 11.1732 12.8024 10.8772L12.8049 10.8727L13.3649 10.0002C13.4719 9.83723 13.5354 9.63723 13.5354 9.42223C13.5354 9.04223 13.3364 8.70874 13.0369 8.52024L13.0324 8.51773Z" fill="black"/>
<path d="M9.89494 10.2502C9.89494 10.2502 9.65744 11.5252 7.72244 11.2252C5.78744 10.9252 5.24994 10.9627 5.24994 10.9627L6.21494 9.28773L9.89494 10.2502Z" fill="black"/>
<path d="M9.77494 9.48273L7.89494 8.52773C7.47094 8.30573 6.97444 8.15873 6.44794 8.11873L4.89744 8.00023C4.87594 7.99823 4.85044 7.99723 4.82494 7.99723C4.43994 7.99723 4.11344 8.24874 4.00144 8.59674L3.99994 8.60273L3.56244 10.0152C3.56244 10.0152 4.32744 13.1527 6.09244 10.8027C6.85994 9.78023 7.05994 10.9527 8.64994 10.8502C9.39994 10.8027 9.76994 10.5477 9.96494 10.2877C10.0309 10.1987 10.0709 10.0872 10.0709 9.96573C10.0709 9.75623 9.95194 9.57423 9.77794 9.48423L9.77494 9.48273Z" fill="black"/>
</g>
<defs>
<clipPath id="clip0_6_484">
<rect width="16" height="16" fill="white" transform="translate(0.5)"/>
</clipPath>
</defs>
</svg>
