<svg width="16" height="17" viewBox="0 0 16 17" fill="none" xmlns="http://www.w3.org/2000/svg">
<g clip-path="url(#clip0_6_428)">
<path d="M10.9274 5.75245C10.9624 5.72495 10.9849 5.75245 11.0074 5.77245C11.1089 5.83345 11.2259 5.88495 11.3494 5.91995L11.3594 5.92245C11.5069 5.95495 11.5869 5.86995 11.5544 5.71745C11.5164 5.58195 11.4589 5.46395 11.3844 5.35895L11.3869 5.36245C11.3069 5.24095 11.2589 5.09195 11.2589 4.93145C11.2589 4.84795 11.2719 4.76745 11.2959 4.69195L11.2944 4.69745C11.3894 4.40545 11.6589 4.19795 11.9769 4.19745C12.5944 4.16995 12.8369 4.84495 12.6169 5.29745C12.5664 5.39895 12.4944 5.48295 12.4064 5.54595L12.4044 5.54745C12.3184 5.60745 12.2429 5.67245 12.1749 5.74445C12.1364 5.78445 12.1049 5.83245 12.0829 5.88445L12.0819 5.88745C12.0469 5.98245 12.0819 6.04245 12.1794 6.04245C12.3364 6.03345 12.4774 5.97245 12.5879 5.87695L12.5869 5.87745C12.8279 5.69245 13.0254 5.46345 13.1689 5.20095L13.1744 5.18995C13.5094 4.60745 13.7689 3.93145 13.9169 3.21445L13.9244 3.16995C14.0099 2.82195 14.0654 2.41895 14.0789 2.00445V1.99495C14.0789 1.97495 14.0789 1.95495 14.0939 1.93995C14.3734 2.24395 14.6314 2.57845 14.8589 2.93345L14.8764 2.96245C14.8689 2.99145 14.8629 3.02645 14.8589 3.06195V3.06495C14.7344 4.00795 14.4544 4.86195 14.0439 5.63595L14.0639 5.59495C13.9764 5.77345 13.8874 5.92395 13.7884 6.06745L13.7964 6.05495C13.7214 6.07545 13.6559 6.10445 13.5959 6.14195L13.5989 6.13995C13.3799 6.28445 13.2369 6.52945 13.2369 6.80795C13.2369 6.83695 13.2384 6.86545 13.2414 6.89345L13.2409 6.88995C13.2489 7.04145 13.2994 7.17945 13.3799 7.29495L13.3784 7.29245C13.4109 7.33795 13.4394 7.38995 13.4614 7.44495L13.4629 7.44995C13.4979 7.55245 13.4629 7.61495 13.3554 7.62245C13.3414 7.62445 13.3254 7.62545 13.3089 7.62545C13.2924 7.62545 13.2764 7.62445 13.2609 7.62245H13.2629C13.1144 7.58945 12.9854 7.51945 12.8824 7.42195C12.8499 7.39445 12.8304 7.38495 12.7954 7.42245C12.6129 7.62495 12.4279 7.82495 12.2429 8.02495C12.2204 8.04745 12.2069 8.07845 12.2069 8.11295C12.2069 8.12345 12.2084 8.13345 12.2109 8.14345C12.2389 8.32245 12.2549 8.52795 12.2549 8.73845C12.2549 9.04645 12.2209 9.34645 12.1559 9.63445L12.1609 9.60745C11.9694 10.4525 11.6229 11.195 11.1494 11.839L11.1609 11.8225C11.1159 11.8815 11.0894 11.9565 11.0894 12.0375C11.0894 12.05 11.0899 12.062 11.0914 12.074V12.0725C11.1164 12.41 11.1714 12.74 11.2289 13.0725C11.2364 13.129 11.2729 13.1755 11.3229 13.197L11.3239 13.1975C11.9919 13.5235 12.5669 13.909 13.0829 14.3605L13.0739 14.3525C13.1594 14.442 13.2509 14.524 13.3484 14.5985L13.3539 14.6025L13.7839 15.0475C13.8189 15.0825 13.8189 15.1 13.7839 15.135C13.2724 15.592 12.6989 15.9975 12.0814 16.3335L12.0339 16.3575C12.0104 16.3695 11.9829 16.3765 11.9539 16.3765C11.9459 16.3765 11.9384 16.376 11.9309 16.375H11.9319C11.7634 16.345 11.6159 16.2695 11.4989 16.162C10.9159 15.6925 10.2214 15.336 9.46289 15.136L9.42439 15.1275C9.16989 15.0575 8.86789 15.0025 8.55789 14.974L8.53689 14.9725C8.35889 14.953 8.15189 14.942 7.94289 14.942C7.90989 14.942 7.87739 14.9425 7.84439 14.943H7.84939C7.09639 14.963 6.38689 15.1285 5.74089 15.412L5.77689 15.398C5.23589 15.641 4.76939 15.932 4.34839 16.277L4.35939 16.268C4.28639 16.337 4.18689 16.3795 4.07789 16.3795C4.00289 16.3795 3.93289 16.3595 3.87239 16.3245L3.87439 16.3255C3.24889 15.9755 2.70839 15.5895 2.21439 15.152L2.22389 15.1605C2.16139 15.1055 2.15889 15.0755 2.22389 15.018C2.36139 14.883 2.49139 14.7405 2.62389 14.603C2.65139 14.603 2.66389 14.583 2.67889 14.568C3.28439 14 3.98389 13.5225 4.74989 13.1635L4.79889 13.143C4.82989 13.131 4.85289 13.104 4.85889 13.071C4.97389 12.661 5.03989 12.1895 5.03989 11.7035C5.03989 11.4725 5.02489 11.245 4.99589 11.0215L4.99889 11.048C4.89789 10.268 4.67989 9.55995 4.36139 8.91045L4.37939 8.95045C4.35689 8.90045 4.33439 8.89295 4.28439 8.90295C4.01939 8.96545 3.75689 9.01795 3.49189 9.07545C3.45689 9.07545 3.42189 9.07545 3.41439 9.03545C3.37439 8.81545 3.32689 8.59545 3.30189 8.37295C3.28689 8.25045 3.28189 8.12295 3.27189 8.00295C3.24939 7.70545 3.21939 7.41045 3.19689 7.11545C3.19439 7.04645 3.17039 6.98295 3.13139 6.93195L3.13189 6.93295C2.93439 6.68295 2.72689 6.43295 2.53939 6.18295C2.35189 5.93295 2.21189 5.71295 2.06939 5.46295C1.92689 5.21295 1.74939 4.90795 1.62939 4.62795C1.39639 4.14345 1.22139 3.58095 1.13339 2.99045L1.12939 2.95795C1.30389 2.68295 1.47939 2.44545 1.66939 2.22095L1.66189 2.23045C1.74939 2.12795 1.84189 2.02045 1.93189 1.91545C1.93189 2.07045 1.95439 2.22545 1.96689 2.38045C1.99939 2.73395 2.06589 3.05845 2.16339 3.36895L2.15439 3.33545C2.29739 3.86445 2.51789 4.32795 2.80639 4.73995L2.79689 4.72595C2.93139 4.91495 3.09789 5.07195 3.28989 5.19195L3.29689 5.19595C3.42289 5.27645 3.57639 5.32445 3.74139 5.32445C3.75589 5.32445 3.76989 5.32395 3.78389 5.32345H3.78189C3.83939 5.32345 3.90189 5.31095 3.92939 5.24595C3.95689 5.18095 3.90939 5.12845 3.86939 5.08595C3.78989 5.00645 3.69289 4.94495 3.58489 4.90745L3.57939 4.90595C3.33589 4.80245 3.16689 4.56845 3.15939 4.29445V4.29345C3.15239 4.25745 3.14839 4.21645 3.14839 4.17395C3.14839 3.93445 3.27939 3.72545 3.47389 3.61495L3.47689 3.61345C3.58589 3.54195 3.71989 3.49945 3.86339 3.49945C3.98639 3.49945 4.10189 3.53045 4.20289 3.58545L4.19889 3.58345C4.40039 3.71345 4.53189 3.93645 4.53189 4.19045C4.53189 4.21345 4.53089 4.23645 4.52889 4.25845V4.25545C4.51589 4.39295 4.48589 4.51895 4.44039 4.63795L4.44389 4.62795C4.40739 4.71145 4.38339 4.80845 4.37639 4.91045V4.91295C4.37639 4.97545 4.36139 5.05045 4.43139 5.08045C4.50139 5.11045 4.54639 5.06045 4.58889 5.01295C4.69839 4.89545 4.78939 4.75895 4.85739 4.60995L4.86139 4.60045C4.91639 4.48045 4.96389 4.35045 5.01389 4.23545C5.01389 4.27045 5.01389 4.30545 5.01389 4.34045C5.01139 4.43195 5.00989 4.53945 5.00989 4.64795C5.00989 5.01595 5.02789 5.37995 5.06289 5.73845L5.05939 5.69295C5.12639 6.28745 5.24439 6.82695 5.41089 7.34495L5.39439 7.28545C5.65089 8.08295 5.98289 8.77595 6.39339 9.41295L6.37189 9.37795C6.5659 9.66595 6.73439 9.99595 6.86189 10.346L6.87189 10.378C6.91789 10.488 6.94489 10.6155 6.94489 10.7495C6.94489 10.777 6.94389 10.8045 6.94139 10.8315L6.94189 10.828C6.90439 11.0635 6.81639 11.273 6.68889 11.4525L6.69189 11.448C6.52439 11.698 6.31439 11.898 6.13439 12.1305C6.01539 12.262 5.92039 12.417 5.85739 12.588L5.85439 12.598C5.84989 12.611 5.84739 12.6255 5.84739 12.641C5.84739 12.67 5.85639 12.6965 5.87239 12.7185C5.89239 12.756 5.92689 12.718 5.95439 12.718C6.5799 12.5375 7.29889 12.434 8.04189 12.434C8.09889 12.434 8.15639 12.4345 8.21289 12.436H8.20439C8.32439 12.436 8.45439 12.436 8.56189 12.456C8.78439 12.4785 9.00689 12.496 9.22689 12.5335C9.56789 12.589 9.85789 12.655 10.1414 12.737L10.0869 12.7235C10.1419 12.7385 10.1544 12.7235 10.1569 12.6685C10.1569 12.664 10.1569 12.659 10.1569 12.654C10.1569 12.574 10.1354 12.4985 10.0979 12.434L10.0989 12.436C9.99289 12.2605 9.87739 12.108 9.74739 11.9695L9.74889 11.971C9.55189 11.757 9.37189 11.5205 9.21539 11.2685L9.20389 11.2485C9.11539 11.1005 9.06289 10.9225 9.06289 10.732C9.06289 10.605 9.08639 10.4835 9.12839 10.3715L9.1259 10.3785C9.29189 9.94895 9.48339 9.57995 9.70989 9.23595L9.69589 9.25845C10.1169 8.58445 10.4594 7.80495 10.6819 6.97645L10.6959 6.91595C10.7884 6.59295 10.8689 6.19895 10.9214 5.79645L10.9259 5.75345L10.9274 5.75245Z" fill="black"/>
<path d="M10.7899 4.25245C10.7834 4.64495 10.7349 5.02245 10.6479 5.38545L10.6549 5.34995C10.5474 5.84195 10.4279 6.25445 10.2844 6.65545L10.3074 6.58245C10.0784 7.25945 9.7944 7.84545 9.4479 8.38795L9.46739 8.35495C9.31039 8.60145 9.14039 8.81545 8.95139 9.01095L8.95239 9.00995C8.7369 9.24695 8.44789 9.41445 8.12189 9.47595L8.11239 9.47745C8.07289 9.48295 8.02739 9.48645 7.98139 9.48645C7.81839 9.48645 7.66439 9.44595 7.52939 9.37495L7.53489 9.37745C7.20589 9.19095 6.93489 8.93845 6.73289 8.63595L6.72739 8.62745C6.34439 8.09345 6.01839 7.48045 5.77939 6.82545L5.76239 6.77245C5.65989 6.51095 5.54989 6.16895 5.45689 5.81895L5.43989 5.74495C5.35089 5.44795 5.27789 5.09345 5.23539 4.72995L5.23239 4.69995C5.21539 4.58795 5.20589 4.45845 5.20589 4.32695C5.20589 4.08595 5.23839 3.85295 5.29939 3.63145L5.29489 3.64995C5.37139 3.41795 5.50089 3.22145 5.66889 3.06595L5.66989 3.06495C6.00789 2.76245 6.42089 2.53695 6.87739 2.41945L6.89739 2.41495C7.11739 2.34945 7.37339 2.30395 7.63739 2.28795L7.64739 2.28745C7.76189 2.27695 7.89539 2.27145 8.0304 2.27145C8.0669 2.27145 8.10389 2.27195 8.14039 2.27295H8.13489C8.69589 2.28795 9.22339 2.41695 9.69939 2.63795L9.67489 2.62795C9.98789 2.77195 10.2524 2.96995 10.4679 3.21295L10.4699 3.21545C10.6139 3.38995 10.7134 3.60645 10.7489 3.84345L10.7499 3.85045C10.7754 3.96995 10.7899 4.10745 10.7899 4.24845C10.7899 4.24995 10.7899 4.25095 10.7899 4.25245ZM7.93739 2.32745C7.93239 2.32745 7.92689 2.32745 7.92089 2.32745C7.74139 2.32745 7.56539 2.34295 7.39439 2.37245L7.41289 2.36995C7.07389 2.41345 6.76589 2.50395 6.48089 2.63545L6.50089 2.62745C6.20889 2.74895 5.95989 2.91795 5.75089 3.12745C5.65489 3.22295 5.57689 3.33645 5.52339 3.46295L5.52089 3.46995C5.44289 3.68945 5.39789 3.94245 5.39789 4.20595C5.39789 4.29895 5.40339 4.39045 5.41439 4.48095L5.41339 4.46995C5.45239 4.84645 5.52789 5.19045 5.63839 5.51895L5.62839 5.48495C5.80439 6.03345 6.00739 6.50345 6.25039 6.94845L6.22839 6.90495C6.44689 7.33045 6.71789 7.69445 7.03989 8.00645L7.04089 8.00745C7.22639 8.18545 7.45489 8.32045 7.70939 8.39445L7.72089 8.39745C7.80939 8.42195 7.91089 8.43545 8.01589 8.43545C8.23989 8.43545 8.44889 8.37195 8.6259 8.26195L8.62089 8.26495C8.9139 8.08595 9.15789 7.85695 9.34839 7.58745L9.3534 7.57995C9.5629 7.30345 9.75539 6.99145 9.9164 6.66095L9.93089 6.62745C10.1214 6.24345 10.2979 5.78845 10.4339 5.31645L10.4484 5.25745C10.5324 4.97795 10.5879 4.65495 10.6029 4.32095L10.6034 4.31245C10.6049 4.27845 10.6059 4.23795 10.6059 4.19795C10.6059 4.09295 10.5994 3.98945 10.5869 3.88795L10.5879 3.89995C10.5649 3.73645 10.5249 3.58895 10.4684 3.44995L10.4729 3.46245C10.3684 3.24345 10.2124 3.06345 10.0199 2.93295L10.0154 2.92995C9.82889 2.78495 9.61389 2.66345 9.38239 2.57545L9.36539 2.56995C8.95039 2.41645 8.47089 2.32745 7.97089 2.32745C7.95939 2.32745 7.94889 2.32745 7.93739 2.32745Z" fill="black"/>
<path d="M9.8399 2.36245V2.58495C9.8399 2.62995 9.8224 2.64745 9.7774 2.62245C9.5344 2.50245 9.25089 2.40045 8.95489 2.33045L8.92739 2.32495C8.79589 2.29295 8.63489 2.26545 8.47089 2.24895L8.45489 2.24745C8.33589 2.23495 8.19839 2.22795 8.05889 2.22795C8.01439 2.22795 7.97039 2.22845 7.92639 2.22995H7.93289C7.32139 2.23095 6.74289 2.37095 6.22689 2.61995L6.25039 2.60945C6.16039 2.64945 6.15789 2.64945 6.15789 2.55195C6.15339 2.49345 6.15089 2.42595 6.15089 2.35745C6.15089 2.17495 6.16889 1.99695 6.20339 1.82495L6.20039 1.84195C6.25439 1.54695 6.50939 1.32645 6.81589 1.32645C6.88189 1.32645 6.94539 1.33645 7.00489 1.35545L7.00039 1.35445C7.12289 1.37195 7.11789 1.37945 7.09789 1.25195C7.08339 1.15845 7.05339 1.07395 7.01089 0.997953L7.01289 1.00195C6.97389 0.897453 6.87789 0.823453 6.76389 0.816953C6.68589 0.806953 6.61439 0.780453 6.55339 0.740953L6.55539 0.741953C6.51539 0.719453 6.47039 0.694453 6.47039 0.646953C6.47039 0.599453 6.51789 0.576953 6.55539 0.554453C6.63889 0.513453 6.73589 0.483453 6.83839 0.469953L6.84289 0.469453C7.14639 0.415453 7.49889 0.381953 7.85839 0.376953H7.86289C8.06539 0.376953 8.2654 0.376953 8.4679 0.376953C8.7969 0.381453 9.11189 0.434953 9.40789 0.530953L9.3854 0.524453C9.4479 0.544453 9.5254 0.574453 9.5304 0.641953C9.5354 0.709453 9.45539 0.736953 9.40039 0.764453C9.32789 0.797953 9.24339 0.822453 9.15489 0.833953L9.15039 0.834453C9.09439 0.840453 9.04589 0.870453 9.01589 0.913953C8.93689 1.02045 8.88389 1.15195 8.87039 1.29395V1.29695C8.87039 1.35195 8.87039 1.37445 8.94289 1.35445C9.00239 1.33895 9.07039 1.32995 9.14039 1.32995C9.21039 1.32995 9.2784 1.33895 9.3434 1.35545L9.33789 1.35445C9.57239 1.40345 9.75289 1.58945 9.79239 1.82345L9.79289 1.82695C9.82639 1.94895 9.84539 2.08945 9.84539 2.23395C9.84539 2.27895 9.8434 2.32345 9.8399 2.36745L9.84039 2.36145L9.8399 2.36245Z" fill="black"/>
</g>
<defs>
<clipPath id="clip0_6_428">
<rect width="16" height="16" fill="white" transform="translate(0 0.37793)"/>
</clipPath>
</defs>
</svg>
