<svg width="16" height="17" viewBox="0 0 16 17" fill="none" xmlns="http://www.w3.org/2000/svg">
<g clip-path="url(#clip0_6_496)">
<path d="M15.58 8.65798C15.3095 7.71448 14.96 6.89398 14.524 6.12848L14.5535 6.18448L13.687 7.04448L12.7405 6.10448L13.814 5.04448C13.6005 4.75098 13.374 4.47098 13.1475 4.20448L11.641 5.71098L10.6675 4.74448L12.1675 3.25098C11.9165 3.02148 11.645 2.80098 11.361 2.59598L11.3345 2.57748L10.281 3.65098L9.33452 2.70448L10.208 1.83098C9.49852 1.42398 8.67802 1.07398 7.81452 0.823977L7.73452 0.803977C6.80402 0.531977 5.73552 0.375977 4.63002 0.375977C4.56352 0.375977 4.49752 0.376477 4.43102 0.377477H4.44102C2.49552 0.436477 0.860023 1.70048 0.251023 3.44548L0.241023 3.47748L5.07452 2.37748L5.58102 2.88398L5.00102 1.27048L7.48102 3.75698L5.00752 8.72348L5.06102 8.77698L8.90102 5.17698L12.4745 8.74348L11.541 9.82998L9.33452 7.61648L8.66802 8.28298L10.1345 9.75648L9.28102 10.71L7.76102 9.18998L6.22102 10.73L3.16102 7.66998L3.66752 6.85648L1.83402 5.04298L0.840523 5.36948L0.000523438 4.52948V4.81598C-0.000476563 4.87098 -0.000976562 4.93598 -0.000976562 5.00098C-0.000976562 6.10248 0.153023 7.16798 0.440523 8.17748L0.420523 8.09598C1.51352 11.91 4.45452 14.853 8.18702 15.9295L8.26702 15.9495C9.19652 16.2215 10.264 16.378 11.368 16.378C11.4355 16.378 11.503 16.3775 11.5705 16.3765H11.5605H11.847L8.98702 13.5165L12.7805 9.04298L15.0405 11.3095L13.387 10.643L13.8605 11.1165L11.607 14.03L13.467 15.89C14.9395 15.1435 15.944 13.6635 16 11.944V11.9365C16.001 11.8815 16.0015 11.8165 16.0015 11.7515C16.0015 10.65 15.8475 9.58448 15.56 8.57498L15.58 8.65648V8.65798Z" fill="black"/>
<path d="M5.50652 3.92448L5.42652 3.84448L2.96652 4.65798L4.24652 5.93798L5.50652 3.92448Z" fill="black"/>
</g>
<defs>
<clipPath id="clip0_6_496">
<rect width="16" height="16" fill="white" transform="translate(0 0.37793)"/>
</clipPath>
</defs>
</svg>
