<svg width="16" height="17" viewBox="0 0 16 17" fill="none" xmlns="http://www.w3.org/2000/svg">
<g clip-path="url(#clip0_6_397)">
<path d="M15 15.3779H13.875C13.392 15.3779 13 14.9859 13 14.5029V12.5954L15.5 12.3779L15.885 11.2204C15.2625 11.2204 12.18 11.3229 9.75 12.0354V12.8779L11.75 12.7029V14.5029C11.75 14.9859 11.358 15.3779 10.875 15.3779H6.375C5.892 15.3779 5.5 14.9859 5.5 14.5029V12.9729C5 13.0004 4.5 13.0129 4 13.0179V14.5029C4 14.9859 3.608 15.3779 3.125 15.3779H3.0625C2.3695 15.3779 1.7545 15.0464 1.3665 14.5334L1.3625 14.5279C1.292 14.4279 1.25 14.3034 1.25 14.1694V14.1679C1.2365 13.8674 0.99 13.6289 0.6875 13.6279H0.5625C0.252 13.6279 0 13.8799 0 14.1904V14.4404C0.0005 14.5634 0.0395 14.6769 0.106 14.7694L0.105 14.7679L0.605 15.4679C0.9995 16.0164 1.636 16.3694 2.355 16.3704H16C15.9955 15.8214 15.5495 15.3779 15 15.3779Z" fill="black"/>
<path d="M15.5 5.87782C15.25 5.22032 14.75 2.46782 14.75 2.46782C13.5325 0.877819 11.63 0.100319 8.75 0.467819C8.7695 0.696319 8.7805 0.962819 8.7805 1.23182C8.7805 1.50082 8.7695 1.76682 8.7475 2.02982L8.75 1.99532L10.31 2.37782L10.19 2.87782L8.7025 2.49782C8.6605 2.83132 8.608 3.11832 8.541 3.39982L8.5525 3.34282L9.8475 3.89782L9.6525 4.35782L8.42 3.83032C8.327 4.13382 8.2255 4.38982 8.1055 4.63532L8.12 4.60282L9.155 5.43282L8.845 5.82282L7.8775 5.04782C7.691 5.34732 7.4785 5.60582 7.237 5.83332L7.235 5.83532L7.945 6.72282L7.555 7.03282L6.8425 6.14532C6.672 6.26332 6.477 6.37132 6.272 6.45932L6.25 6.46782C6.1225 6.52032 6 6.57032 5.865 6.61782L6.2325 7.53532L5.7675 7.72032L5.3925 6.78532C2.6625 7.68782 0 7.71782 0 10.9678V11.5453C0 11.5803 0 11.6153 0 11.6503C0.0825 12.1078 0.68 12.4878 1.175 12.4953H1.485C3.55 12.5328 7.01 12.5903 8.39 11.9828C11.2125 10.7503 15.7975 10.7178 16 10.7178C16 9.84782 15.9225 6.93532 15.5 5.87782Z" fill="black"/>
</g>
<defs>
<clipPath id="clip0_6_397">
<rect width="16" height="16" fill="white" transform="translate(0 0.37793)"/>
</clipPath>
</defs>
</svg>
