<svg width="16" height="17" viewBox="0 0 16 17" fill="none" xmlns="http://www.w3.org/2000/svg">
<g clip-path="url(#clip0_6_336)">
<path d="M8 0.37793C3.5815 0.37793 0 3.95943 0 8.37793C0 12.7964 3.5815 16.3779 8 16.3779C12.4185 16.3779 16 12.7964 16 8.37793C16 3.95943 12.4185 0.37793 8 0.37793ZM7.7465 4.93143H11.333L10.933 5.94493H9.213V6.89143H10.6265L10.233 7.90493H9.213V9.58493H7.7465V4.93143ZM5.2935 4.93143H6.747V9.59793H5.2935V4.93143ZM1.2935 4.93143H4.847L4.467 5.94493H2.747V6.89143H4.1605L3.767 7.90493H2.747V9.58493H1.2735L1.2935 4.93143ZM13.96 11.8244H2.0935V10.7179H13.907L13.96 11.8244ZM13.8665 8.95143H12.1865L12 9.57793H10.6065L12.2665 4.91143H13.773L15.4595 9.57793H13.9995L13.8665 8.95143Z" fill="black"/>
<path d="M12.4335 8.06443H13.5735L12.9935 6.12443L12.4335 8.06443Z" fill="black"/>
</g>
<defs>
<clipPath id="clip0_6_336">
<rect width="16" height="16" fill="white" transform="translate(0 0.37793)"/>
</clipPath>
</defs>
</svg>
