<svg width="16" height="16" viewBox="0 0 16 16" fill="none" xmlns="http://www.w3.org/2000/svg">
<path d="M0.0838493 15.7995C0.171289 15.9255 0.315009 16.001 0.468817 16.001H15.5312C15.685 16.001 15.8287 15.9255 15.9162 15.7995C16.0041 15.6732 16.0242 15.5121 15.9702 15.3679C15.7875 14.8795 15.4461 14.451 15.3074 14.2899C15.2186 14.1859 15.0886 14.1259 14.9517 14.1259H1.04835C0.911473 14.1259 0.781473 14.1859 0.692665 14.2899C0.553977 14.451 0.212473 14.8795 0.0298174 15.3679C-0.0241826 15.5121 -0.00405466 15.6732 0.0838493 15.7995Z" fill="black"/>
<path d="M1.875 7.53226H4.71876V13.1885H1.875V7.53226Z" fill="black"/>
<path d="M6.59376 7.53226H9.40624V13.1885H6.59376V7.53226Z" fill="black"/>
<path d="M11.2813 7.53226H14.125V13.1885H11.2813V7.53226Z" fill="black"/>
<path d="M1.01459 6.45666C1.10259 6.54506 1.22507 6.59474 1.34619 6.59474L14.6534 6.59442C14.7745 6.59442 14.8974 6.54506 14.9854 6.45666C15.0808 6.3613 15.7936 5.61898 16 4.71973H1.39512e-06C0.206409 5.61898 0.919193 6.3613 1.01459 6.45666Z" fill="black"/>
<path d="M15.7018 3.78223L8.20976 0.0504106C8.07792 -0.0155014 7.92224 -0.0155014 7.7904 0.0504106L0.298393 3.78223H15.7018Z" fill="black"/>
</svg>
