<svg width="16" height="16" viewBox="0 0 16 16" fill="none" xmlns="http://www.w3.org/2000/svg">
<g clip-path="url(#clip0_245_127)">
<path d="M8.30702 5.62098H6.46052V6.16098H9.34702C9.14052 5.82748 8.76702 5.62098 8.30702 5.62098Z" fill="black"/>
<path d="M6.45302 8.70748H8.30652C8.76652 8.70748 9.14652 8.50748 9.34652 8.16748H6.45302V8.70748Z" fill="black"/>
<path d="M6.45302 7.42098H9.50652V6.91448H6.45302V7.42098Z" fill="black"/>
<path fill-rule="evenodd" clip-rule="evenodd" d="M8 16.001C12.4185 16.001 16 12.4195 16 8.00098C16 3.58248 12.4185 0.000976562 8 0.000976562C3.5815 0.000976562 0 3.58248 0 8.00098C0 12.4195 3.5815 16.001 8 16.001ZM12.4935 6.15398V6.90748H11.2935V7.41398H12.5V8.16748H11.2335C11 9.32098 10.06 10.201 8.54002 10.201H6.45352V12.301H4.71352V8.16748H3.50702V7.41398H4.71352V6.90748H3.50702V6.15398H4.71352V4.12048H8.54002C10.06 4.12048 10.9865 5.00048 11.22 6.15398H12.4935Z" fill="black"/>
</g>
<defs>
<clipPath id="clip0_245_127">
<rect width="16" height="16" fill="white" transform="translate(0 0.000976562)"/>
</clipPath>
</defs>
</svg>
