<svg width="17" height="16" viewBox="0 0 17 16" fill="none" xmlns="http://www.w3.org/2000/svg">
<g clip-path="url(#clip0_6_511)">
<path d="M14.9725 0H2.0275C1.1845 0.0015 0.5015 0.6845 0.5 1.5275V14.4725C0.5015 15.3155 1.1845 15.9985 2.0275 16H14.9725C15.8155 15.9985 16.4985 15.3155 16.5 14.4725V1.5275C16.4985 0.6845 15.8155 0.0015 14.9725 0ZM6.75 12.5225H3.2825C2.9155 12.5 2.6265 12.197 2.6265 11.8265C2.6265 11.456 2.9155 11.153 3.2805 11.1305H6.75C6.7625 11.1295 6.777 11.129 6.7915 11.129C7.1765 11.129 7.489 11.4415 7.489 11.8265C7.489 12.2115 7.1765 12.524 6.7915 12.524C6.777 12.524 6.762 12.5235 6.748 12.5225H6.75ZM6.4125 6.25C5.5105 6.2495 4.7425 5.6765 4.452 4.8745L4.4475 4.86H3.2825C2.9155 4.8375 2.6265 4.5345 2.6265 4.1635C2.6265 3.7925 2.9155 3.49 3.2805 3.4675H4.4475C4.743 2.652 5.511 2.08 6.4125 2.08C7.564 2.08 8.4975 3.0135 8.4975 4.165C8.4975 5.3165 7.564 6.25 6.4125 6.25ZM13.7175 12.5225H12.5525C12.257 13.34 11.488 13.9135 10.5845 13.9135C9.4315 13.9135 8.497 12.979 8.497 11.826C8.497 10.673 9.4315 9.7385 10.5845 9.7385C11.488 9.7385 12.257 10.3125 12.548 11.115L12.5525 11.1295H13.7175C14.0845 11.152 14.3735 11.455 14.3735 11.8255C14.3735 12.196 14.0845 12.499 13.7195 12.5215H13.7175V12.5225ZM13.7175 4.87H10.25C10.2375 4.871 10.223 4.871 10.2085 4.871C9.8235 4.871 9.511 4.5585 9.511 4.1735C9.511 3.7885 9.8235 3.476 10.2085 3.476C10.223 3.476 10.238 3.4765 10.252 3.4775H10.25H13.7175C14.0845 3.5 14.3735 3.803 14.3735 4.1735C14.3735 4.544 14.0845 4.847 13.7195 4.8695L13.7175 4.87Z" fill="black"/>
</g>
<defs>
<clipPath id="clip0_6_511">
<rect width="16" height="16" fill="white" transform="translate(0.5)"/>
</clipPath>
</defs>
</svg>
