<svg width="16" height="17" viewBox="0 0 16 17" fill="none" xmlns="http://www.w3.org/2000/svg">
<g clip-path="url(#clip0_6_509)">
<path d="M11.7899 9.99191L8.08994 5.40541C7.69044 5.34691 7.22894 5.31341 6.75994 5.31341C6.45594 5.31341 6.15544 5.32741 5.85844 5.35491L5.89644 5.35191L5.00994 4.46541L5.67644 2.91891L3.54994 0.378906L2.92994 2.75891L2.42344 3.30541L0.0234375 3.90541L2.56344 6.01891L4.02344 5.39241L4.96344 6.32591C4.94244 6.56241 4.93094 6.83791 4.93094 7.11641C4.93094 7.58541 4.96444 8.04641 5.02944 8.49741L5.02344 8.44591L9.60994 12.1459L11.7899 9.99191Z" fill="black"/>
<path d="M13.5364 12.9849C13.8499 12.6784 13.9299 12.2649 13.7164 12.0784L12.7699 11.2449L12.6364 11.0449L10.6899 12.9914L10.8764 13.1449L11.7099 14.0914C11.8899 14.3049 12.2899 14.2249 12.5964 13.9314L15.0364 16.3779L15.9764 15.4314L13.5364 12.9849Z" fill="black"/>
</g>
<defs>
<clipPath id="clip0_6_509">
<rect width="16" height="16" fill="white" transform="translate(0 0.37793)"/>
</clipPath>
</defs>
</svg>
