<svg width="16" height="17" viewBox="0 0 16 17" fill="none" xmlns="http://www.w3.org/2000/svg">
<g clip-path="url(#clip0_6_366)">
<path d="M7.13362 4.25143C7.30112 4.31693 7.49462 4.35443 7.69762 4.35443C8.57762 4.35443 9.29112 3.64093 9.29112 2.76093C9.29112 1.88093 8.57762 1.16743 7.69762 1.16743C7.02012 1.16743 6.44112 1.59043 6.21062 2.18693L6.20712 2.19793C6.14062 2.36643 6.10212 2.56093 6.10212 2.76493C6.10212 3.44193 6.52612 4.01943 7.12262 4.24743L7.13362 4.25143Z" fill="black"/>
<path d="M13.4466 13.8444C13.0611 14.1759 12.5556 14.3779 12.0031 14.3779C12.0021 14.3779 12.0006 14.3779 11.9996 14.3779C11.9841 14.3784 11.9661 14.3784 11.9476 14.3784C11.4161 14.3784 10.9286 14.1894 10.5491 13.8749L10.5526 13.8779C9.86962 13.3574 9.00412 13.0439 8.06512 13.0439C8.04212 13.0439 8.01862 13.0439 7.99562 13.0444H7.99912C7.96412 13.0434 7.92262 13.0429 7.88112 13.0429C6.96212 13.0429 6.11362 13.3439 5.42812 13.8524L5.43912 13.8444C5.05712 14.1759 4.55512 14.3779 4.00562 14.3779C4.00312 14.3779 4.00112 14.3779 3.99862 14.3779C3.98462 14.3784 3.96812 14.3784 3.95162 14.3784C3.42112 14.3784 2.93462 14.1894 2.55562 13.8749L2.55912 13.8779C1.87662 13.3574 1.01162 13.0439 0.0736172 13.0439C0.0471172 13.0439 0.0211172 13.0439 -0.00488281 13.0444H-0.000882813V15.0444C0.0321172 15.0434 0.0716172 15.0429 0.110617 15.0429C1.02962 15.0429 1.87812 15.3439 2.56362 15.8524L2.55262 15.8444C2.93362 16.1759 3.43512 16.3779 3.98362 16.3779C3.98912 16.3779 3.99462 16.3779 4.00012 16.3779C4.01562 16.3784 4.03262 16.3784 4.05112 16.3784C4.58262 16.3784 5.07012 16.1894 5.44962 15.8749L5.44612 15.8779C6.12862 15.3574 6.99312 15.0439 7.93112 15.0439C7.95512 15.0439 7.97912 15.0439 8.00312 15.0444H7.99962C8.02112 15.0439 8.04662 15.0439 8.07212 15.0439C9.01062 15.0439 9.87612 15.3574 10.5696 15.8854L10.5596 15.8779C10.9356 16.1894 11.4226 16.3784 11.9541 16.3784C11.9701 16.3784 11.9861 16.3784 12.0021 16.3779H11.9996C12.0121 16.3784 12.0271 16.3784 12.0421 16.3784C12.5766 16.3784 13.0671 16.1894 13.4501 15.8749L13.4461 15.8779C14.1246 15.3574 14.9861 15.0439 15.9201 15.0439C15.9481 15.0439 15.9756 15.0444 16.0036 15.0449H15.9996V13.0449C15.9631 13.0439 15.9206 13.0429 15.8776 13.0429C14.9621 13.0429 14.1171 13.3439 13.4356 13.8524L13.4466 13.8444Z" fill="black"/>
<path d="M3.29362 12.7379C3.68012 12.9979 3.70712 13.0114 3.96012 13.0114C4.21312 13.0114 4.28012 13.0114 4.66662 12.7379C5.52062 12.1079 6.59112 11.7249 7.75012 11.7114H7.75312L8.79962 10.2449L10.6661 7.59843C11.0641 7.39793 11.3961 7.12143 11.6546 6.78493L11.6596 6.77843L11.3861 6.58493L12.6661 4.81143H13.5596L15.5596 2.01143L13.2931 0.37793L11.3331 3.17793L11.5996 4.03793L10.2861 5.82443C9.85012 6.20143 9.27712 6.43093 8.65112 6.43093C8.52212 6.43093 8.39562 6.42143 8.27212 6.40243L8.28612 6.40393C7.89962 6.36243 7.55762 6.19993 7.29162 5.95593L7.29312 5.95693C7.16912 5.35293 6.74412 4.87043 6.18512 4.66743L6.17312 4.66343H6.10662C5.92012 4.58943 5.70362 4.54693 5.47762 4.54693C4.74112 4.54693 4.11012 5.00143 3.85062 5.64543L3.84662 5.65743L2.31312 9.71093C1.40562 9.49643 0.622117 9.05493 -0.00138283 8.44993L-0.000382828 8.45093L1.16612 11.7844C1.97712 11.9619 2.69112 12.2934 3.30812 12.7484L3.29262 12.7374L3.29362 12.7379ZM6.89362 7.71143C7.22862 7.88193 7.61812 8.00393 8.02912 8.05643L8.04662 8.05843C8.19612 8.07993 8.36912 8.09193 8.54512 8.09193C8.56212 8.09193 8.57912 8.09193 8.59612 8.09143H8.59362H8.66712L7.10712 10.2779C6.70712 10.2779 6.31362 10.2779 5.92712 10.2779L6.89362 7.71143Z" fill="black"/>
<path d="M9.33362 11.8179C10.0961 12.0069 10.7646 12.3244 11.3501 12.7494L11.3336 12.7379C11.7201 12.9979 11.7471 13.0114 12.0401 13.0114C12.3331 13.0114 12.3536 13.0114 12.7466 12.7379C13.3481 12.2944 14.0621 11.9654 14.8366 11.7979L14.8731 11.7914L16.0396 8.45793C14.4606 9.30193 12.6126 9.87443 10.6516 10.0599L10.5931 10.0644L9.33362 11.8179Z" fill="black"/>
</g>
<defs>
<clipPath id="clip0_6_366">
<rect width="16" height="16" fill="white" transform="translate(0 0.37793)"/>
</clipPath>
</defs>
</svg>
