<svg width="17" height="16" viewBox="0 0 17 16" fill="none" xmlns="http://www.w3.org/2000/svg">
<g clip-path="url(#clip0_6_521)">
<path d="M1.75 11.5H15.25C15.9405 11.5 16.5 12.0595 16.5 12.75C16.5 13.4405 15.9405 14 15.25 14H1.75C1.0595 14 0.5 13.4405 0.5 12.75C0.5 12.0595 1.0595 11.5 1.75 11.5Z" fill="black"/>
<path d="M1.75 6.75H15.25C15.9405 6.75 16.5 7.3095 16.5 8C16.5 8.6905 15.9405 9.25 15.25 9.25H1.75C1.0595 9.25 0.5 8.6905 0.5 8C0.5 7.3095 1.0595 6.75 1.75 6.75Z" fill="black"/>
<path d="M7.5 2H15.25C15.9405 2 16.5 2.5595 16.5 3.25C16.5 3.9405 15.9405 4.5 15.25 4.5H7.5C6.8095 4.5 6.25 3.9405 6.25 3.25C6.25 2.5595 6.8095 2 7.5 2Z" fill="black"/>
<path d="M1.75 2H3.5C4.1905 2 4.75 2.5595 4.75 3.25C4.75 3.9405 4.1905 4.5 3.5 4.5H1.75C1.0595 4.5 0.5 3.9405 0.5 3.25C0.5 2.5595 1.0595 2 1.75 2Z" fill="black"/>
</g>
<defs>
<clipPath id="clip0_6_521">
<rect width="16" height="16" fill="white" transform="translate(0.5)"/>
</clipPath>
</defs>
</svg>
