<svg width="16" height="17" viewBox="0 0 16 17" fill="none" xmlns="http://www.w3.org/2000/svg">
<g clip-path="url(#clip0_6_447)">
<path d="M16 5.75402L14.4023 4.15636C14.1574 4.30796 13.8659 4.40125 13.5627 4.40125C12.6997 4.40125 11.9883 3.68988 11.9883 2.81525C11.9883 2.51204 12.0816 2.2205 12.2332 1.98726L10.6239 0.37793C10.3324 0.891049 9.7726 1.2409 9.14286 1.2409C8.72303 1.2409 8.32653 1.0893 8.03499 0.821078L0.314869 8.54119C0.58309 8.8444 0.734694 9.22924 0.734694 9.66073C0.734694 10.2438 0.443149 10.7569 0 11.0718L1.56268 12.6345C1.81924 12.4362 2.13411 12.3196 2.48397 12.3196C3.3586 12.3196 4.06997 13.031 4.06997 13.894C4.06997 14.2438 3.95335 14.5703 3.7551 14.8269L5.30612 16.3779C5.62099 15.9348 6.13411 15.6432 6.7172 15.6432C7.13703 15.6432 7.52187 15.7948 7.81341 16.0397L15.5335 8.31962C15.2886 8.02808 15.137 7.64324 15.137 7.23507C15.137 6.60534 15.4869 6.04557 16 5.75402ZM5.60933 11.6782L4.67638 10.7453L5.6793 9.74236L6.61224 10.6753L5.60933 11.6782ZM7.94169 9.34586L7.00875 8.41292L8.01166 7.41L8.94461 8.34294L7.94169 9.34586ZM10.2741 7.0135L9.34111 6.08055L10.344 5.07764L11.277 6.01058L10.2741 7.0135Z" fill="black"/>
</g>
<defs>
<clipPath id="clip0_6_447">
<rect width="16" height="16" fill="white" transform="translate(0 0.37793)"/>
</clipPath>
</defs>
</svg>
