<svg width="17" height="16" viewBox="0 0 17 16" fill="none" xmlns="http://www.w3.org/2000/svg">
<g clip-path="url(#clip0_6_585)">
<path d="M7.794 5.23285C7.3495 6.02135 7.088 6.96335 7.088 7.96685C7.088 8.97035 7.35 9.91285 7.8085 10.7294L7.794 10.7009C7.583 10.7584 7.34 10.7924 7.0895 10.7949H7.088C5.5285 10.7949 4.2645 9.53085 4.2645 7.97135C4.2645 6.41185 5.5285 5.14785 7.088 5.14785C7.091 5.14785 7.0945 5.14785 7.098 5.14785C7.345 5.14785 7.585 5.17885 7.814 5.23685L7.794 5.23285ZM2.759 6.11735C2.5195 6.66285 2.3805 7.29835 2.3805 7.96685C2.3805 8.63535 2.52 9.27085 2.771 9.84635L2.759 9.81585C2.7025 9.82035 2.637 9.82285 2.571 9.82285C2.505 9.82285 2.439 9.82035 2.374 9.81535L2.3825 9.81585C1.343 9.81585 0.5 8.97285 0.5 7.93335C0.5 6.89385 1.3425 6.05085 2.3825 6.05085C2.524 6.06485 2.652 6.08835 2.7765 6.12085L2.759 6.11735ZM12.7355 11.7644C10.6565 11.7644 8.971 10.0789 8.971 7.99985C8.971 5.92085 10.6565 4.23535 12.7355 4.23535C14.8145 4.23535 16.5 5.92085 16.5 7.99985C16.484 10.0539 14.826 11.7154 12.775 11.7364H12.773L12.7355 11.7644Z" fill="black"/>
</g>
<defs>
<clipPath id="clip0_6_585">
<rect width="16" height="16" fill="white" transform="translate(0.5)"/>
</clipPath>
</defs>
</svg>
