<svg width="17" height="16" viewBox="0 0 17 16" fill="none" xmlns="http://www.w3.org/2000/svg">
<g clip-path="url(#clip0_6_393)">
<path d="M8.69999 12.7201C10.3735 12.7161 11.7295 11.3606 11.7335 9.68708L8.69999 9.68658L8.97349 6.66658C8.93249 6.66358 8.88499 6.66158 8.83699 6.66158C8.78899 6.66158 8.74099 6.66358 8.69399 6.66708L8.70049 6.66658C7.36299 6.67508 6.23149 7.55058 5.83999 8.75858L5.83399 8.78008H0.500488V10.4201H5.76699C6.10399 11.7496 7.28849 12.7176 8.69999 12.7201Z" fill="black"/>
<path d="M6.96649 0.580078H10.433V2.31358H6.96649V0.580078Z" fill="black"/>
<path d="M13.2265 5.65358L14.12 4.62008L12.7865 3.48008L11.893 4.53358C10.987 3.95508 9.88199 3.61108 8.69649 3.61108C6.97499 3.61108 5.42299 4.33608 4.32899 5.49708L4.32599 5.50008H2.13949V7.14008H6.20599V6.15358C6.89499 5.64358 7.76099 5.33608 8.69899 5.33358C10.99 5.46458 12.799 7.35458 12.799 9.66708C12.799 11.9796 10.9905 13.8696 8.71099 14.0001L8.69949 14.0006C8.69849 14.0006 8.69699 14.0006 8.69549 14.0006C7.76099 14.0006 6.89699 13.7006 6.19349 13.1921L6.20599 13.2006V12.0606H2.13949V13.7006H4.13949C5.25649 14.9576 6.87749 15.7461 8.68299 15.7461C12.0345 15.7461 14.7515 13.0291 14.7515 9.67758C14.7515 8.13108 14.173 6.71958 13.2205 5.64808L13.2265 5.65358Z" fill="black"/>
</g>
<defs>
<clipPath id="clip0_6_393">
<rect width="16" height="16" fill="white" transform="translate(0.5)"/>
</clipPath>
</defs>
</svg>
