<svg width="16" height="17" viewBox="0 0 16 17" fill="none" xmlns="http://www.w3.org/2000/svg">
<g clip-path="url(#clip0_6_239)">
<path d="M15.7615 8.85766C15.6495 8.76866 15.5055 8.71516 15.3495 8.71516C15.28 8.71516 15.213 8.72566 15.15 8.74566L15.1545 8.74416C14.5395 8.93816 13.812 9.09266 13.0635 9.17916L13.008 9.18416C12.948 8.48416 12.8945 7.80416 12.848 7.18416C13.468 6.93766 13.9945 6.75066 14.0145 6.74416C13.155 3.69266 10.396 1.49316 7.12404 1.49316C3.17704 1.49316 -0.0224609 4.69266 -0.0224609 8.63966C-0.0224609 10.6087 0.773539 12.3917 2.06154 13.6842C5.33504 13.6842 6.06154 15.0707 7.98804 15.0707C9.91454 15.0707 11.128 13.6972 11.128 12.4042C11.0965 11.7222 10.8715 11.0987 10.5075 10.5797L10.515 10.5907C10.8615 10.5907 11.3015 10.5907 11.8015 10.5907C11.893 11.8687 12.0895 13.0522 12.385 14.1957L12.3545 14.0572C12.7095 14.7767 13.438 15.2627 14.2795 15.2627C14.36 15.2627 14.439 15.2582 14.5175 15.2497L14.508 15.2507C14.51 15.2507 14.513 15.2507 14.5155 15.2507C14.77 15.2507 15.0185 15.2262 15.2595 15.1802L15.235 15.1842C15.531 15.1227 15.7525 14.8717 15.7685 14.5657V14.5642L16.022 9.41766C16.0225 9.40816 16.0225 9.39766 16.0225 9.38666C16.0225 9.17216 15.921 8.98116 15.7635 8.85916L15.7615 8.85766ZM14.6485 10.2642L14.595 11.2907C14.2245 11.3612 13.7675 11.4207 13.304 11.4547L13.262 11.4572C13.262 11.1572 13.1885 10.8372 13.1555 10.5107C13.741 10.4437 14.249 10.3572 14.748 10.2452L14.6485 10.2642ZM8.29504 13.4842C7.73904 13.4842 7.28854 13.0337 7.28854 12.4777C7.28854 11.9217 7.73904 11.4712 8.29504 11.4712C8.85104 11.4712 9.30154 11.9217 9.30154 12.4777C9.30154 13.0337 8.85104 13.4842 8.29504 13.4842ZM10.215 9.21066C10.3215 8.75766 10.5705 8.37416 10.911 8.10016L10.915 8.09716C11.1075 7.96016 11.327 7.83916 11.56 7.74466L11.5815 7.73716C11.5815 8.15716 11.655 8.67716 11.7015 9.25716C11.609 9.25916 11.5 9.26066 11.3905 9.26066C10.9765 9.26066 10.567 9.24266 10.1625 9.20666L10.215 9.21066ZM14.4685 13.9107C14.115 13.9107 13.702 13.8372 13.602 13.5707C13.524 13.3417 13.461 13.0712 13.4245 12.7927L13.422 12.7707C13.7355 12.7707 14.0885 12.7042 14.5285 12.6442L14.4685 13.9107Z" fill="black"/>
</g>
<defs>
<clipPath id="clip0_6_239">
<rect width="16" height="16" fill="white" transform="translate(0 0.37793)"/>
</clipPath>
</defs>
</svg>
