<svg width="16" height="17" viewBox="0 0 16 17" fill="none" xmlns="http://www.w3.org/2000/svg">
<g clip-path="url(#clip0_6_420)">
<path d="M6.6265 9.21169H7.333C7.366 9.21369 7.4045 9.21519 7.4435 9.21519C8.0885 9.21519 8.657 8.8857 8.989 8.3852L8.9935 8.3782C8.135 8.2102 7.388 7.8117 6.7985 7.2497L6.8005 7.2512C6.6965 7.1297 6.611 6.9882 6.5505 6.8347L6.547 6.8247C6.554 6.76419 6.558 6.6942 6.558 6.6232C6.558 5.7692 5.9675 5.0527 5.1725 4.8607L5.16 4.8582C5.024 4.8232 4.8675 4.8027 4.7065 4.8027C4.5455 4.8027 4.3895 4.8227 4.24 4.8607L4.253 4.8577L0.6665 5.5577C0.2835 5.6382 0 5.9732 0 6.3742C0 6.3752 0 6.3767 0 6.3777V9.0442H1.6665V7.0442L2.8465 6.8242L2.133 9.9642L0.7665 16.0242L2.393 16.3777L3.673 10.7642L5.1665 12.6442V16.3777H6.833V12.3777C6.833 12.3757 6.833 12.3732 6.833 12.3702C6.833 12.1757 6.765 11.9967 6.6515 11.8557L6.6525 11.8572L5.6925 10.6437L6.099 8.8502C6.2505 8.9682 6.4225 9.0872 6.601 9.1962L6.6255 9.2102L6.6265 9.21169Z" fill="black"/>
<path d="M14 12.8717L15.3335 11.6452C15.6775 11.3177 15.8915 10.8567 15.8915 10.3452C15.8915 9.8672 15.7045 9.4327 15.3995 9.1112L15.4005 9.1122L13.334 6.9257C13.013 6.5897 12.561 6.3807 12.0605 6.3807C11.593 6.3807 11.1685 6.5627 10.853 6.8602L10.854 6.8592L10.8075 6.9127C10.5165 7.1872 10.321 7.56019 10.275 7.9782L10.2745 7.9862C10.2095 8.2102 10.1325 8.40219 10.039 8.5852L10.0475 8.5662C9.969 8.7197 9.8915 8.8482 9.8065 8.9717L9.8145 8.9597C9.7235 9.0942 9.627 9.2122 9.521 9.3202L9.4815 9.3662C9.3695 9.4832 9.2475 9.5882 9.116 9.6812L9.108 9.6862H9.068C8.928 9.7827 8.7675 9.8702 8.5985 9.9397L8.5815 9.9462C8.234 10.0942 7.83 10.1802 7.406 10.1802C7.388 10.1802 7.37 10.1802 7.3525 10.1797H7.355V11.8462C7.3955 11.8477 7.4435 11.8482 7.4915 11.8482C9.034 11.8482 10.3925 11.0592 11.185 9.8627L11.195 9.8462L11.7485 10.4262C10.6705 10.8492 9.907 11.8502 9.8355 13.0377L9.835 13.0462V16.3797H11.5015V13.1062C11.5595 12.5422 11.9615 12.0857 12.492 11.9482L12.5015 11.9462C12.337 12.2117 12.239 12.5332 12.239 12.8782C12.239 13.3542 12.425 13.7867 12.7285 14.1072L12.7275 14.1062L14.7275 16.1062L16.001 14.8927L14 12.8717Z" fill="black"/>
<path d="M6.7935 4.1117C7.2735 3.8312 7.591 3.3182 7.591 2.7312C7.591 1.8512 6.8775 1.1377 5.9975 1.1377C5.1175 1.1377 4.404 1.8512 4.404 2.7312C4.404 3.0262 4.484 3.3022 4.6235 3.5392L4.6195 3.5317C4.8985 4.0102 5.4095 4.3272 5.995 4.3272C6.289 4.3272 6.5645 4.2472 6.8005 4.1077L6.7935 4.1117Z" fill="black"/>
<path d="M10.1265 7.0917C10.6085 6.8117 10.927 6.2977 10.927 5.7097C10.927 4.8297 10.2135 4.1162 9.3335 4.1162C8.4535 4.1162 7.74 4.8297 7.74 5.7097C7.74 6.0027 7.819 6.2767 7.957 6.5127L7.953 6.5052C8.2315 6.9867 8.744 7.3057 9.331 7.3057C9.624 7.3057 9.898 7.2262 10.1335 7.0882L10.1265 7.0917Z" fill="black"/>
</g>
<defs>
<clipPath id="clip0_6_420">
<rect width="16" height="16" fill="white" transform="translate(0 0.37793)"/>
</clipPath>
</defs>
</svg>
