<svg width="16" height="17" viewBox="0 0 16 17" fill="none" xmlns="http://www.w3.org/2000/svg">
<g clip-path="url(#clip0_6_343)">
<path d="M2.36001 15.4375L2.08001 16.251C2.05201 16.3255 1.98151 16.378 1.89851 16.378C1.83701 16.378 1.78251 16.3495 1.74701 16.305L1.21301 15.598C1.18001 15.5535 1.12751 15.5245 1.06801 15.5245C1.06801 15.5245 1.06701 15.5245 1.06601 15.5245H0.186012C0.0830117 15.5245 -0.000488281 15.441 -0.000488281 15.338C-0.000488281 15.298 0.0120117 15.261 0.0335117 15.2305L0.539512 14.5045C0.550512 14.481 0.557012 14.4535 0.557012 14.4245C0.557012 14.3955 0.550512 14.368 0.539012 14.3435L0.539512 14.3445L0.306012 13.478C0.300512 13.461 0.297012 13.441 0.297012 13.4205C0.297012 13.3175 0.380512 13.234 0.483512 13.234C0.506012 13.234 0.527512 13.238 0.547012 13.245L0.545512 13.2445L1.38551 13.498C1.41001 13.509 1.43851 13.5155 1.46901 13.5155C1.49951 13.5155 1.52801 13.509 1.55351 13.4975L1.55201 13.498L2.27851 12.9915C2.30801 12.9705 2.34501 12.958 2.38501 12.958C2.48801 12.958 2.57151 13.0415 2.57151 13.1445V14.026C2.57151 14.0855 2.60001 14.138 2.64451 14.1705L3.35151 14.711C3.40751 14.744 3.44501 14.804 3.44501 14.8725C3.44501 14.949 3.39901 15.015 3.33301 15.0435L3.33201 15.044L2.51201 15.3305C2.44651 15.343 2.39201 15.382 2.35901 15.436L2.35851 15.437L2.36001 15.4375ZM15.06 2.77045L15.8735 2.49045C15.948 2.46245 16.0005 2.39195 16.0005 2.30895C16.0005 2.24745 15.972 2.19295 15.9275 2.15745L15.2205 1.62345C15.176 1.59045 15.147 1.53795 15.147 1.47845C15.147 1.47845 15.147 1.47745 15.147 1.47645V0.596453C15.147 0.493453 15.0635 0.409953 14.9605 0.409953C14.9205 0.409953 14.8835 0.422453 14.853 0.443953L14.107 0.916953C14.0835 0.927953 14.056 0.934453 14.027 0.934453C13.998 0.934453 13.9705 0.927953 13.946 0.916453L13.947 0.916953L13.1005 0.683453C13.0835 0.677953 13.0635 0.674453 13.043 0.674453C12.94 0.674453 12.8565 0.757953 12.8565 0.860953C12.8565 0.883453 12.8605 0.904953 12.8675 0.924453L12.867 0.922953L13.1205 1.76295C13.1315 1.78745 13.138 1.81595 13.138 1.84645C13.138 1.87695 13.1315 1.90545 13.12 1.93095L13.1205 1.92945L12.614 2.65595C12.593 2.68545 12.5805 2.72245 12.5805 2.76245C12.5805 2.86545 12.664 2.94895 12.767 2.94895H13.6485C13.708 2.94895 13.7605 2.97745 13.793 3.02195L14.3335 3.72895C14.3665 3.78495 14.4265 3.82245 14.495 3.82245C14.5715 3.82245 14.6375 3.77645 14.666 3.71045L14.6665 3.70945L14.953 2.88945C14.9655 2.82395 15.0045 2.76945 15.0585 2.73645L15.0595 2.73595L15.06 2.77045Z" fill="black"/>
<path d="M6.66651 0.563953L0.186512 7.04395C0.0710117 6.44445 0.00301168 5.75295 1.16825e-05 5.04645V5.04395C0.00201168 3.62545 0.266012 2.26945 0.746012 1.01995L0.720012 1.09695C1.89201 0.642953 3.24801 0.378953 4.66601 0.376953C5.37501 0.379953 6.06751 0.447953 6.73751 0.574953L6.66651 0.563953ZM15.82 9.71045L9.33351 16.197C9.93401 16.31 10.6255 16.3755 11.332 16.377H11.3335C12.752 16.375 14.108 16.111 15.3575 15.631L15.2805 15.657C15.7345 14.485 15.9985 13.129 16.0005 11.711C15.999 11.003 15.9335 10.3105 15.8095 9.63945L15.82 9.71045ZM15.3335 7.88395L7.50701 15.7105C4.31151 14.541 1.83651 12.066 0.692512 8.94895L0.667012 8.87045L8.49351 1.04395C11.689 2.21345 14.164 4.68845 15.308 7.80545L15.3335 7.88395ZM11.5465 8.61745C11.425 8.49145 11.255 8.41345 11.0665 8.41345C10.878 8.41345 10.708 8.49145 10.5865 8.61745L10.1265 9.07745L9.19301 8.15095L9.65951 7.68445C9.77951 7.56045 9.85351 7.39095 9.85351 7.20445C9.85351 6.82295 9.54451 6.51395 9.16301 6.51395C8.96801 6.51395 8.79201 6.59445 8.66651 6.72445L8.19951 7.19145L7.33301 6.25795L7.79301 5.79795C7.91651 5.67545 7.99301 5.50545 7.99301 5.31795C7.99301 4.94445 7.69001 4.64145 7.31651 4.64145C7.13051 4.64145 6.96201 4.71645 6.84001 4.83795L4.46001 7.18445C4.33851 7.30695 4.26351 7.47495 4.26351 7.66095C4.26351 8.03445 4.56651 8.33745 4.94001 8.33745C5.12751 8.33745 5.29751 8.26095 5.42001 8.13745L5.88001 7.71095L6.81351 8.63745L6.35351 9.10395C6.24051 9.22395 6.17151 9.38595 6.17151 9.56395C6.17151 9.93495 6.47251 10.236 6.84351 10.236C7.03651 10.236 7.21051 10.1545 7.33301 10.0245L7.80001 9.56395L8.72651 10.4975L8.26651 10.9575C8.14301 11.08 8.06651 11.25 8.06651 11.4375C8.06651 11.811 8.36951 12.114 8.74301 12.114C8.92901 12.114 9.09751 12.039 9.21951 11.9175L11.566 9.57095C11.682 9.45095 11.7535 9.28745 11.7535 9.10745C11.7535 8.91395 11.671 8.73995 11.5395 8.61795L11.5465 8.61745Z" fill="black"/>
</g>
<defs>
<clipPath id="clip0_6_343">
<rect width="16" height="16" fill="white" transform="translate(0 0.37793)"/>
</clipPath>
</defs>
</svg>
