<svg width="16" height="17" viewBox="0 0 16 17" fill="none" xmlns="http://www.w3.org/2000/svg">
<g clip-path="url(#clip0_6_364)">
<path d="M15.25 2.37793H13V9.94543C13 11.0129 12.135 11.8779 11.0675 11.8779H6V16.3779H7.25C7.3575 15.6919 7.926 15.1674 8.6235 15.1279H8.6275C9.3275 15.1689 9.8935 15.6929 9.999 16.3694L10 16.3779H12C12.107 15.6914 12.6755 15.1664 13.3735 15.1279H13.3775C14.0825 15.1629 14.655 15.6889 14.7615 16.3694L14.7625 16.3779H16.0125V3.12793C16.0125 2.71393 15.6765 2.37793 15.2625 2.37793C15.258 2.37793 15.254 2.37793 15.25 2.37793Z" fill="black"/>
<path d="M10.5 0.37793H0.75C0.336 0.37793 0 0.71393 0 1.12793V9.37793C0 9.79193 0.336 10.1279 0.75 10.1279H1V12.8779L5.125 10.1279H10.5C10.914 10.1279 11.25 9.79193 11.25 9.37793V1.12793C11.25 0.71393 10.914 0.37793 10.5 0.37793Z" fill="black"/>
</g>
<defs>
<clipPath id="clip0_6_364">
<rect width="16" height="16" fill="white" transform="translate(0 0.37793)"/>
</clipPath>
</defs>
</svg>
