<svg width="17" height="16" viewBox="0 0 17 16" fill="none" xmlns="http://www.w3.org/2000/svg">
<g clip-path="url(#clip0_6_564)">
<path d="M8.05152 14.0966L4.5062 15.8974C4.39002 15.9623 4.25182 16 4.1051 16C3.62588 16 3.23729 15.5938 3.23729 15.0928C3.23729 15.0514 3.2398 15.0111 3.24481 14.9713L3.24431 14.976L3.79163 10.7881C3.79764 10.7483 3.80114 10.7023 3.80114 10.6557C3.80114 10.417 3.71101 10.2008 3.56429 10.0411L0.75407 6.94935C0.604345 6.78655 0.512207 6.56511 0.512207 6.32116C0.512207 5.87619 0.818667 5.50609 1.22277 5.42861L1.22828 5.42756L5.23429 4.67373C5.49969 4.62505 5.71902 4.45334 5.8397 4.21777L5.8417 4.21306L7.76459 0.478995C7.91231 0.192121 8.19774 0 8.52573 0C8.85372 0 9.13915 0.192121 9.28437 0.474283L9.28687 0.478995L11.1832 4.21306C11.3059 4.45334 11.5252 4.62505 11.7856 4.67321L11.7906 4.67373L15.7966 5.42756C16.2062 5.50609 16.5122 5.87619 16.5122 6.32064C16.5122 6.56459 16.4201 6.78602 16.2703 6.94935L13.4601 10.0128C13.3114 10.1725 13.2198 10.3908 13.2198 10.6311C13.2198 10.6866 13.2248 10.7405 13.2338 10.7928L13.2328 10.7876L13.7801 14.9755C13.7846 15.0106 13.7871 15.0509 13.7871 15.0923C13.7871 15.5932 13.3985 15.9995 12.9193 15.9995C12.7726 15.9995 12.6344 15.9613 12.5137 15.8943L8.95287 14.0961C8.82067 14.0296 8.66594 13.9908 8.50219 13.9908C8.33845 13.9908 8.18371 14.0296 8.04501 14.0987L8.05152 14.0955V14.0966Z" fill="black"/>
</g>
<defs>
<clipPath id="clip0_6_564">
<rect width="16" height="16" fill="white" transform="translate(0.5)"/>
</clipPath>
</defs>
</svg>
