<svg width="16" height="17" viewBox="0 0 16 17" fill="none" xmlns="http://www.w3.org/2000/svg">
<g clip-path="url(#clip0_6_454)">
<path d="M10.165 12.3454H2.8725L4.3425 10.8779L3.2825 9.81793L0 13.0954L3.2825 16.3779L4.3425 15.3179L2.8725 13.8454H10.165C12.098 13.8454 13.665 12.2784 13.665 10.3454H12.165C12.165 11.4499 11.2695 12.3454 10.165 12.3454Z" fill="black"/>
<path d="M5.835 4.41043H13.1275L11.6575 5.87793L12.7175 6.93793L16 3.66043L12.7175 0.37793L11.6575 1.43793L13.1275 2.91043H5.835C3.902 2.91043 2.335 4.47743 2.335 6.41043H3.835C3.835 5.30593 4.7305 4.41043 5.835 4.41043Z" fill="black"/>
<path d="M8.8575 11.3779V9.23543H11V7.52043H8.8575V5.37793H7.1425V7.52043H5V9.23543H7.1425V11.3779H8.8575Z" fill="black"/>
</g>
<defs>
<clipPath id="clip0_6_454">
<rect width="16" height="16" fill="white" transform="translate(0 0.37793)"/>
</clipPath>
</defs>
</svg>
