<svg width="16" height="17" viewBox="0 0 16 17" fill="none" xmlns="http://www.w3.org/2000/svg">
<g clip-path="url(#clip0_6_475)">
<path d="M8 0.37793C3.5815 0.37793 0 3.95943 0 8.37793C0 12.7964 3.5815 16.3779 8 16.3779C12.4185 16.3779 16 12.7964 16 8.37793C16 3.95943 12.4185 0.37793 8 0.37793ZM9.0935 3.71143L8.54 5.59143H10.04L10.5865 3.71143H11.84L10.4065 8.57143H9.173L9.753 6.57143H8.253L7.6665 8.57143H6.4265L7.84 3.71143H9.0935ZM1.84 8.57143L3.1 4.27793L2.36 3.71143H4.42L5.1665 6.51143L6 3.71143H7.24L5.82 8.57143H4.6665L3.92 5.75143L3.1 8.57143H1.84ZM7.1735 12.0579L5.44 12.5844C5.378 12.6049 5.331 12.6544 5.3135 12.7164L5.313 12.7179L5.193 13.1579H7.333L7.0465 14.1379H3.713L4.233 12.3779C4.329 12.0559 4.5775 11.8074 4.8925 11.7129L4.8995 11.7109L6.666 11.2309C6.726 11.2104 6.7725 11.1644 6.792 11.1054L6.7925 11.1039L7.039 10.2904H5.999L5.8255 10.9104L4.732 10.6904L4.872 10.1504C5.004 9.64793 5.454 9.28393 5.989 9.28393C5.9925 9.28393 5.9955 9.28393 5.999 9.28393H7.632C7.9825 9.30593 8.2585 9.59543 8.2585 9.94943C8.2585 10.0064 8.2515 10.0624 8.2375 10.1154L8.2385 10.1109L7.825 11.4044C7.7215 11.7164 7.4785 11.9569 7.172 12.0559L7.165 12.0579H7.1735ZM12.24 10.0579L11.3 13.3314C11.1605 13.7899 10.742 14.1174 10.2465 14.1179H8.4665C8.1215 14.1164 7.842 13.8364 7.842 13.4914C7.842 13.4299 7.851 13.3699 7.8675 13.3134L7.8665 13.3179L8.82 10.0514C8.9595 9.59293 9.378 9.26543 9.8735 9.26493H11.6335C11.6365 9.26493 11.6405 9.26493 11.6445 9.26493C11.987 9.26493 12.2645 9.54243 12.2645 9.88493C12.2645 9.95393 12.253 10.0204 12.2325 10.0829L12.234 10.0784L12.24 10.0579ZM12.24 8.55143H11L12.42 3.71143H13.6735L12.5335 7.58493H14.4535L14.167 8.57143L12.24 8.55143Z" fill="black"/>
<path d="M9.0935 13.1314H10.2L11.0335 10.2979H9.9135L9.0935 13.1314Z" fill="black"/>
</g>
<defs>
<clipPath id="clip0_6_475">
<rect width="16" height="16" fill="white" transform="translate(0 0.37793)"/>
</clipPath>
</defs>
</svg>
