<svg width="16" height="17" viewBox="0 0 16 17" fill="none" xmlns="http://www.w3.org/2000/svg">
<g clip-path="url(#clip0_6_250)">
<path d="M10.7948 14.9553L9.09734 12.4278C8.98734 12.2628 8.98484 12.2653 8.81734 12.3703C8.25984 12.7413 7.57484 12.9623 6.83784 12.9623C6.64984 12.9623 6.46484 12.9478 6.28484 12.9203L6.30484 12.9228C6.12234 12.8948 5.96634 12.8608 5.81334 12.8183L5.84234 12.8253C5.75234 12.8028 5.72484 12.8253 5.69484 12.9103C5.68834 12.9268 5.68234 12.9468 5.67784 12.9673L5.67734 12.9703C5.43734 13.8437 5.19651 14.7162 4.95484 15.5878C4.91984 15.7153 4.88234 15.8378 4.84984 15.9728C4.82734 16.0628 4.84984 16.0878 4.93484 16.1178L4.98234 16.1328C5.54834 16.2908 6.19834 16.3823 6.86934 16.3828C7.22434 16.3803 7.57134 16.3523 7.90984 16.3003L7.86984 16.3053C8.77034 16.1693 9.58034 15.8838 10.3103 15.4718L10.2748 15.4903C10.4523 15.3903 10.6273 15.2853 10.7948 15.1678C10.8698 15.1178 10.8748 15.0778 10.8298 15.0028L10.7948 14.9553Z" fill="black"/>
<path d="M8.11484 2.24785L8.36484 4.03535C8.38984 4.19785 8.41234 4.35785 8.43734 4.51785C8.45234 4.61285 8.47734 4.63035 8.56984 4.62285H8.63234C8.77434 4.60135 8.93834 4.58885 9.10484 4.58885C9.27134 4.58885 9.43534 4.60135 9.59534 4.62485L9.57734 4.62285C10.3238 4.71835 10.9853 5.02585 11.5148 5.48185L11.5103 5.47785C11.6178 5.56785 11.6403 5.56535 11.7328 5.45785C12.3995 4.68951 13.0662 3.92285 13.7328 3.15785C13.8703 2.99785 13.8703 2.99035 13.7078 2.85535C12.4818 1.80835 10.8803 1.16835 9.12934 1.16035H9.12784C8.96284 1.16035 8.77534 1.16035 8.59034 1.18535C8.40334 1.19685 8.23184 1.21835 8.06384 1.24935L8.09034 1.24535C7.99784 1.26535 7.98034 1.29535 7.99284 1.38535C8.02784 1.67285 8.07234 1.96035 8.11484 2.24785Z" fill="black"/>
<path d="M0.67984 9.90285C0.72734 10.0253 0.75234 10.0353 0.87734 9.99035L0.92234 9.97285L3.56234 8.95535L3.81234 8.85535C3.88484 8.82285 3.89734 8.79535 3.87734 8.71785C3.87734 8.68535 3.85484 8.65535 3.84484 8.62285C3.73384 8.33835 3.65734 8.00835 3.63084 7.66485L3.62984 7.65285C3.62184 7.56335 3.61734 7.45885 3.61734 7.35335C3.61734 6.73135 3.77384 6.14535 4.04934 5.63335L4.03984 5.65285C4.10984 5.51535 4.10484 5.49785 3.96234 5.42285L3.08484 4.95035L1.24984 3.97285C1.13734 3.91285 1.10984 3.92285 1.04984 4.02785L1.02234 4.08285C0.51084 5.03835 0.20984 6.17285 0.20984 7.37785C0.20984 7.38035 0.20984 7.38385 0.20984 7.38685C0.20984 7.98435 0.28484 8.56485 0.42534 9.11885L0.41484 9.07035C0.49684 9.40085 0.58734 9.67835 0.69534 9.94735L0.67984 9.90285Z" fill="black"/>
<path d="M2.33734 3.95785C2.35834 3.97235 2.38284 3.98735 2.40834 4.00085L2.41234 4.00285L5.02984 5.52535C5.19984 5.62535 5.19984 5.62535 5.30484 5.45285C5.80084 4.63185 6.59284 4.03235 7.52984 3.79835L7.55484 3.79285C7.63484 3.77035 7.71734 3.75785 7.80484 3.73785C7.89234 3.71785 7.89734 3.69785 7.89234 3.63535L7.87734 3.53535C7.84734 3.38035 7.81734 3.22535 7.78984 3.07035C7.62317 2.21368 7.46401 1.35618 7.31234 0.497847C7.27984 0.377847 7.24984 0.362847 7.13984 0.377847C7.02984 0.392847 6.91984 0.420347 6.80984 0.447847C4.88634 0.910847 3.30434 2.11435 2.35034 3.73235L2.33234 3.76535C2.32184 3.78085 2.31184 3.79885 2.30334 3.81785L2.30234 3.82035C2.27234 3.87785 2.27984 3.91785 2.33734 3.95785Z" fill="black"/>
<path d="M5.58984 11.8778C5.61734 11.7828 5.58984 11.7528 5.50484 11.7178L5.39984 11.6853C4.43734 11.3573 3.67334 10.6643 3.25934 9.77535L3.24984 9.75285C3.15734 9.55785 3.15734 9.55785 2.96484 9.64035L0.76234 10.5978L0.15734 10.8478C0.0573398 10.8928 0.0473398 10.9228 0.0873398 11.0228C0.0938398 11.0408 0.10034 11.0553 0.10834 11.0698L0.10734 11.0678C0.93484 12.9248 2.48434 14.3343 4.38984 14.9563L4.43984 14.9703L4.52734 14.9978C4.60234 14.9978 4.62484 14.9803 4.65984 14.8703C4.93817 13.977 5.21817 13.0845 5.49984 12.1928C5.52734 12.0903 5.55984 11.9853 5.58984 11.8778Z" fill="black"/>
<path d="M15.9323 9.30535C15.9328 9.27335 15.9333 9.23535 15.9333 9.19735C15.9333 8.85785 15.9058 8.52485 15.8528 8.20035L15.8578 8.23585C15.7648 7.64635 15.6153 7.11785 15.4103 6.61785L15.4278 6.66585C15.0333 5.69385 14.4643 4.86735 13.7533 4.18835L13.7503 4.18585C13.6478 4.08835 13.6128 4.08835 13.5153 4.18585L11.4478 6.37835C11.2803 6.55335 11.2728 6.54335 11.4478 6.71835C11.9198 7.18435 12.2643 7.77835 12.4253 8.44335L12.4303 8.46835C12.4913 8.72235 12.5258 9.01385 12.5258 9.31335C12.5258 9.36785 12.5248 9.42185 12.5223 9.47585L12.5228 9.46835C12.5228 9.60085 12.5228 9.61585 12.6578 9.62085L14.2778 9.69835L14.9003 9.73335C15.1978 9.73335 15.4978 9.76085 15.7978 9.77085C15.9003 9.77085 15.9253 9.75585 15.9303 9.65335C15.9353 9.55085 15.9323 9.42035 15.9323 9.30535Z" fill="black"/>
<path d="M14.7823 10.2428L13.2498 10.1278L12.0548 10.0328C11.9198 10.0328 11.7823 10.0103 11.6448 10.0028C11.5073 9.99535 11.4998 10.0128 11.4998 10.1278C11.4998 10.1903 11.4873 10.2528 11.4798 10.3128C11.3668 11.1818 10.9598 11.9398 10.3643 12.4983L10.3623 12.5003C10.2578 12.5998 10.1453 12.6943 10.0268 12.7813L10.0173 12.7878C9.93234 12.8528 9.92734 12.8853 9.98984 12.9753C10.0073 13.0028 10.0273 13.0278 10.0473 13.0553L11.7973 15.4703C11.9023 15.6128 11.9198 15.6153 12.0648 15.5053C12.2098 15.3953 12.3148 15.3253 12.4148 15.2278C13.7968 14.0473 14.7163 12.3603 14.8828 10.4573L14.8848 10.4303V10.3778C14.9023 10.2703 14.8848 10.2503 14.7823 10.2428Z" fill="black"/>
<path d="M5.18734 8.47535C5.18734 8.47685 5.18734 8.47835 5.18734 8.48035C5.18734 9.95485 6.38284 11.1503 7.85734 11.1503C9.33184 11.1503 10.5273 9.95485 10.5273 8.48035C10.5273 7.00685 9.33334 5.81185 7.85984 5.81035C7.85884 5.81035 7.85834 5.81035 7.85734 5.81035C6.38434 5.81035 5.19034 7.00335 5.18734 8.47535ZM7.93734 6.63785C7.96484 6.43785 7.93734 6.48035 8.11484 6.41785C8.25334 6.37285 8.41334 6.34685 8.57884 6.34685C8.61534 6.34685 8.65134 6.34785 8.68734 6.35035L8.68234 6.34985C8.71234 6.34985 8.74484 6.36485 8.77984 6.34985L8.60234 6.16735C8.91734 6.18485 9.47984 6.57985 9.83234 7.01985C9.81484 7.04735 9.78984 7.01985 9.76984 7.01985L9.62234 6.94235C9.59484 6.98735 9.62234 7.01735 9.64234 7.04735C9.70834 7.21935 9.74784 7.41835 9.74984 7.62635C9.75134 7.63485 9.75234 7.64585 9.75234 7.65585C9.75234 7.73085 9.70234 7.79435 9.63334 7.81435L9.63234 7.81485C9.48734 7.86985 9.34484 7.94235 9.20234 8.00735C9.15184 8.02835 9.10784 8.05435 9.06884 8.08585L9.06984 8.08485C9.29734 8.03985 9.50734 8.00235 9.71984 7.95235C9.72934 7.94935 9.74084 7.94735 9.75234 7.94735C9.79134 7.94735 9.82584 7.96835 9.84434 7.99935C9.99734 8.19235 10.1078 8.42685 10.1583 8.68235L10.1598 8.69235C10.2088 8.63235 10.2508 8.56435 10.2828 8.49035L10.2848 8.48485C10.2863 8.51535 10.2873 8.55085 10.2873 8.58685C10.2873 9.08785 10.1138 9.54835 9.82384 9.91135L9.82734 9.90685C9.82734 9.82435 9.86484 9.75185 9.84984 9.67185C9.80734 9.67185 9.78734 9.70935 9.75984 9.73185C9.60484 9.85585 9.42384 9.95535 9.22734 10.0208L9.21484 10.0243C9.19984 10.0303 9.18234 10.0343 9.16384 10.0343C9.11784 10.0343 9.07734 10.0118 9.05234 9.97735C8.92484 9.83485 8.80184 9.69435 8.66434 9.55435C8.65434 9.52985 8.63584 9.51035 8.61234 9.49985C8.59984 9.53235 8.61184 9.54935 8.63684 9.56935C8.72684 9.72935 8.80934 9.89185 8.90684 10.0468C8.92934 10.0748 8.94284 10.1108 8.94284 10.1498C8.94284 10.1953 8.92434 10.2368 8.89434 10.2668C8.77034 10.4303 8.62334 10.5678 8.45584 10.6778L8.44934 10.6818C8.42284 10.6988 8.39984 10.7153 8.37784 10.7328L8.37934 10.7318C8.37934 10.7318 8.37934 10.7318 8.37934 10.7493L8.60684 10.7868C8.38384 10.8703 8.12584 10.9183 7.85684 10.9183C7.58784 10.9183 7.32984 10.8703 7.09134 10.7818L7.10684 10.7868L7.34184 10.7468C7.34184 10.6993 7.30684 10.6968 7.28184 10.6818C7.08934 10.5588 6.92934 10.4028 6.80534 10.2198L6.80184 10.2143C6.78734 10.1963 6.77834 10.1733 6.77834 10.1478C6.77834 10.1223 6.78734 10.0993 6.80184 10.0813C6.90934 9.89635 7.01434 9.70635 7.10684 9.50635L6.98684 9.63385C6.88434 9.74385 6.78184 9.85135 6.68434 9.96635C6.65884 10.0038 6.61634 10.0283 6.56834 10.0283C6.54784 10.0283 6.52834 10.0238 6.51134 10.0163L6.51234 10.0168C6.30684 9.95085 6.12884 9.85285 5.97434 9.72685L5.97734 9.72935L5.89984 9.66685H5.87234L5.89984 9.88185C5.66484 9.72935 5.39984 8.90935 5.42984 8.45935C5.48484 8.53435 5.50234 8.61935 5.55734 8.68185C5.57784 8.65385 5.59234 8.61985 5.59734 8.58285C5.65684 8.35785 5.75684 8.16035 5.88984 7.99085L5.88734 7.99435C5.90734 7.96385 5.94134 7.94385 5.97984 7.94385C5.99234 7.94385 6.00434 7.94585 6.01534 7.94985C6.22534 7.99735 6.43684 8.03735 6.65684 8.07985C6.60184 8.03785 6.53784 8.00285 6.46934 7.97885L6.46434 7.97735C6.33684 7.91735 6.21434 7.85485 6.07934 7.80235C6.02384 7.78685 5.98334 7.73635 5.98334 7.67685C5.98334 7.67185 5.98384 7.66685 5.98434 7.66185C5.98434 7.65335 5.98384 7.64385 5.98384 7.63335C5.98384 7.42885 6.02134 7.23385 6.09034 7.05335L6.08684 7.06435C6.10784 7.02985 6.12134 6.98885 6.12434 6.94535C6.04184 6.96035 5.97934 7.01685 5.89934 7.03435C6.20284 6.60935 6.63184 6.29185 7.13234 6.13385L7.14934 6.12935C7.12634 6.17185 7.09534 6.20685 7.05784 6.23385L7.05684 6.23435C7.02834 6.26035 6.99734 6.28535 6.96484 6.30735L6.96184 6.30935C6.99434 6.36435 7.02434 6.34185 7.04934 6.33935C7.07734 6.33785 7.11034 6.33685 7.14384 6.33685C7.33784 6.33685 7.52484 6.36785 7.69934 6.42535L7.68684 6.42185C7.75534 6.43435 7.80684 6.49335 7.80684 6.56485C7.80684 6.56635 7.80684 6.56835 7.80684 6.56985C7.80684 6.73235 7.83934 6.89235 7.85934 7.05235C7.86184 7.09235 7.87434 7.12935 7.89484 7.16085L7.89434 7.15985C7.88934 6.99235 7.90684 6.81485 7.92934 6.62735L7.93734 6.63785Z" fill="black"/>
<path d="M6.83234 8.08785C6.80684 8.10085 6.78984 8.12685 6.78984 8.15685C6.78984 8.16885 6.79284 8.18035 6.79734 8.19085C6.92401 8.56918 7.04734 8.94785 7.16734 9.32785C7.17434 9.36835 7.20934 9.39835 7.25134 9.39835C7.25534 9.39835 7.25934 9.39785 7.26284 9.39735H7.84984C8.04734 9.39735 8.24734 9.39735 8.44734 9.39735C8.45184 9.39835 8.45734 9.39885 8.46284 9.39885C8.50884 9.39885 8.54634 9.36485 8.55234 9.32035C8.66984 8.94785 8.80234 8.56985 8.91484 8.20735C8.92184 8.19485 8.92584 8.17985 8.92584 8.16385C8.92584 8.12885 8.90634 8.09835 8.87784 8.08285C8.55534 7.85285 8.24984 7.62785 7.91984 7.37785C7.90434 7.36235 7.88334 7.35285 7.85984 7.35285C7.83634 7.35285 7.81534 7.36235 7.79984 7.37785C7.47984 7.61951 7.15734 7.85618 6.83234 8.08785Z" fill="black"/>
</g>
<defs>
<clipPath id="clip0_6_250">
<rect width="16" height="16" fill="white" transform="translate(0 0.37793)"/>
</clipPath>
</defs>
</svg>
