<svg width="16" height="17" viewBox="0 0 16 17" fill="none" xmlns="http://www.w3.org/2000/svg">
<g clip-path="url(#clip0_6_368)">
<path d="M13.9065 6.29486L16 4.18136L14.6665 2.89486L12.5465 5.04136C12.2325 5.37536 12.04 5.82636 12.04 6.32286C12.04 6.68786 12.1445 7.02836 12.3245 7.31586L12.32 7.30786C11.742 7.18186 11.309 6.69436 11.267 6.09886V1.70836H9.52051V6.13486C9.60751 7.37236 10.4025 8.40436 11.499 8.83436L11.5205 8.84186L10.767 9.63536C10.0275 8.75336 9.14401 8.02086 8.14751 7.46636L8.10001 7.44236C7.23601 6.99286 6.52751 6.35086 6.01301 5.56986L6.00001 5.54936C5.74601 4.78286 5.03601 4.23936 4.19851 4.23936C3.30301 4.23936 2.55251 4.86136 2.35551 5.69636L2.35301 5.70936L-0.000488281 15.9694L1.71951 16.3759L3.05301 10.4959L4.61951 12.4959V16.3759H6.37301V12.1494C6.37301 12.1464 6.37301 12.1434 6.37301 12.1399C6.37301 11.9384 6.30251 11.7534 6.18501 11.6079L6.18601 11.6094L5.17951 10.3359L5.73301 7.90936C6.16201 8.26586 6.63901 8.60286 7.14151 8.90136L7.19301 8.92936C8.38601 9.57486 9.34351 10.5239 9.98151 11.6739L9.99951 11.7094C10.089 12.0494 10.2635 12.3404 10.499 12.5689L10.5595 12.6229C10.8875 12.9334 11.331 13.1244 11.8195 13.1244C12.3445 13.1244 12.818 12.9039 13.152 12.5504L13.153 12.5494L15.333 10.2359C15.6575 9.90036 15.8575 9.44286 15.8575 8.93836C15.8575 8.39786 15.628 7.91086 15.2605 7.57036L15.2595 7.56936L13.9065 6.29486Z" fill="black"/>
<path d="M6.34001 3.48836C6.83951 3.19436 7.16951 2.65936 7.16951 2.04736C7.16951 1.12686 6.42351 0.380859 5.50301 0.380859C4.58251 0.380859 3.83651 1.12686 3.83651 2.04736C3.83651 2.35486 3.91951 2.64236 4.06451 2.88986L4.06051 2.88186C4.35401 3.38286 4.89001 3.71386 5.50301 3.71386C5.81151 3.71386 6.10051 3.62986 6.34801 3.48386L6.34001 3.48836Z" fill="black"/>
<path d="M9.83351 12.3749C9.59201 12.2314 9.30101 12.1469 8.99001 12.1469C8.06601 12.1469 7.31651 12.8959 7.31651 13.8204C7.31651 14.7449 8.06551 15.4939 8.99001 15.4939C9.60701 15.4939 10.1455 15.1599 10.436 14.6634L10.4405 14.6554C10.5825 14.4154 10.666 14.1264 10.666 13.8179C10.666 13.2049 10.335 12.6689 9.84151 12.3794L9.83351 12.3749Z" fill="black"/>
</g>
<defs>
<clipPath id="clip0_6_368">
<rect width="16" height="16" fill="white" transform="translate(0 0.37793)"/>
</clipPath>
</defs>
</svg>
