<svg width="16" height="17" viewBox="0 0 16 17" fill="none" xmlns="http://www.w3.org/2000/svg">
<g clip-path="url(#clip0_6_375)">
<path d="M7.99 0.37793C3.576 0.38393 0 3.96343 0 8.37793C0 10.2589 0.649 11.9884 1.7355 13.3544L1.723 13.3379C3.201 15.1969 5.4625 16.3779 8 16.3779C12.4185 16.3779 16 12.7964 16 8.37793C16 3.95943 12.4185 0.37793 8 0.37793C7.9965 0.37793 7.9935 0.37793 7.99 0.37793ZM7.99 1.71143C7.9925 1.71143 7.9955 1.71143 7.9985 1.71143C9.5735 1.71143 11.02 2.26193 12.156 3.18093L12.1435 3.17143C12.537 3.49793 13.0035 3.97793 12.97 4.37793C12.89 5.24443 11.99 4.61143 11.49 5.55143C10.99 6.49143 12.4235 7.51143 11.91 8.11793C11.3965 8.72443 10.3035 8.05143 9.5965 8.93793C8.7565 9.98443 9.843 10.9379 9.03 11.5579C8.217 12.1779 7.87 10.8914 6.6635 11.4379C5.457 11.9844 6.457 13.6179 5.3235 13.8444C4.5235 14.0044 3.6635 13.3979 3.237 13.0444C2.0585 11.8429 1.3315 10.1954 1.3315 8.37793C1.3315 4.69893 4.312 1.71543 7.99 1.71143Z" fill="black"/>
<path d="M3.843 11.7114C3.8785 11.7159 3.92 11.7184 3.9615 11.7184C4.514 11.7184 4.9615 11.2709 4.9615 10.7184C4.9615 10.1659 4.514 9.71843 3.9615 9.71843C3.454 9.71843 3.035 10.0964 2.97 10.5864L2.9695 10.5914C2.9645 10.6294 2.9615 10.6739 2.9615 10.7184C2.9615 11.2289 3.344 11.6499 3.838 11.7109L3.843 11.7114Z" fill="black"/>
<path d="M6.87 10.2579C7.3165 10.1514 7.644 9.75593 7.644 9.28393C7.644 8.73143 7.1965 8.28393 6.644 8.28393C6.0915 8.28393 5.644 8.73143 5.644 9.28393C5.644 9.36443 5.6535 9.44293 5.6715 9.51793L5.67 9.51093C5.777 9.95693 6.172 10.2834 6.644 10.2834C6.724 10.2834 6.802 10.2739 6.877 10.2559L6.87 10.2579Z" fill="black"/>
<path d="M9.23 7.88443C9.507 7.70343 9.6875 7.39493 9.6875 7.04443C9.6875 6.49193 9.24 6.04443 8.6875 6.04443C8.135 6.04443 7.6875 6.49193 7.6875 7.04443C7.6875 7.24793 7.748 7.43693 7.8525 7.59493L7.85 7.59143C8.028 7.86893 8.3345 8.04993 8.6835 8.04993C8.887 8.04993 9.0765 7.98843 9.2335 7.88243L9.23 7.88443Z" fill="black"/>
<path d="M4.33 8.02443C4.7775 7.91843 5.105 7.52243 5.105 7.04993C5.105 6.49743 4.6575 6.04993 4.105 6.04993C3.5525 6.04993 3.105 6.49743 3.105 7.04993C3.105 7.12843 3.114 7.20443 3.131 7.27793L3.1295 7.27093C3.234 7.72043 3.631 8.04993 4.1045 8.04993C4.184 8.04993 4.2615 8.04043 4.336 8.02293L4.33 8.02443Z" fill="black"/>
<path d="M7.043 5.51793C7.3175 5.33643 7.4955 5.02943 7.4955 4.68093C7.4955 4.12843 7.048 3.68093 6.4955 3.68093C5.943 3.68093 5.4955 4.12843 5.4955 4.68093C5.4955 4.88293 5.5555 5.07093 5.6585 5.22843L5.656 5.22443C5.8385 5.49943 6.147 5.67843 6.4975 5.67843C6.7 5.67843 6.889 5.61843 7.0465 5.51543L7.043 5.51793Z" fill="black"/>
<path d="M9.2365 5.04443C9.4025 5.17143 9.6125 5.24743 9.841 5.24743C10.3935 5.24743 10.841 4.79993 10.841 4.24743C10.841 3.69493 10.3935 3.24743 9.841 3.24743C9.5165 3.24743 9.228 3.40193 9.045 3.64193L9.043 3.64443C8.9165 3.80993 8.8405 4.01993 8.8405 4.24743C8.8405 4.57143 8.9945 4.85993 9.234 5.04243L9.2365 5.04443Z" fill="black"/>
</g>
<defs>
<clipPath id="clip0_6_375">
<rect width="16" height="16" fill="white" transform="translate(0 0.37793)"/>
</clipPath>
</defs>
</svg>
