<svg width="17" height="16" viewBox="0 0 17 16" fill="none" xmlns="http://www.w3.org/2000/svg">
<path d="M13.28 11.12L15.4065 12.0935C15.548 12.159 15.6445 12.3 15.6445 12.4635C15.6445 12.627 15.548 12.768 15.409 12.8325L15.4065 12.8335L8.49997 16L1.59347 12.8335C1.45197 12.768 1.35547 12.627 1.35547 12.4635C1.35547 12.3 1.45197 12.159 1.59097 12.0945L1.59347 12.0935L3.71997 11.12L7.83347 13.0065L8.49997 13.333L9.16647 13.0265L13.28 11.12ZM15.4065 3.9065C15.548 3.841 15.6445 3.7 15.6445 3.5365C15.6445 3.373 15.548 3.232 15.409 3.1675L15.4065 3.1665L8.49997 0L1.59347 3.1665C1.45197 3.232 1.35547 3.373 1.35547 3.5365C1.35547 3.7 1.45197 3.841 1.59097 3.9055L1.59347 3.9065L8.49997 7.073L15.4065 3.9065ZM9.17347 8.5735L8.50697 8.887L7.84047 8.5735L3.72047 6.667L1.59397 7.6335C1.45647 7.7005 1.36297 7.8395 1.36297 8C1.36297 8.1605 1.45597 8.2995 1.59147 8.3655L1.59397 8.3665L8.50047 11.533L15.407 8.3665C15.5445 8.2995 15.638 8.1605 15.638 8C15.638 7.8395 15.545 7.7005 15.4095 7.6345L15.407 7.6335L13.2805 6.667L9.17347 8.5735Z" fill="black"/>
</svg>
