<svg width="17" height="16" viewBox="0 0 17 16" fill="none" xmlns="http://www.w3.org/2000/svg">
<g clip-path="url(#clip0_6_1827)">
<path d="M1.21296 3C0.81898 3 0.5 3.29905 0.5 3.66842V12.3747C0.5 12.7197 0.797981 13 1.16696 13H15.833C16.201 13 16.5 12.7206 16.5 12.3747V3.66842C16.5 3.29905 16.181 3 15.787 3H1.21296ZM9.27145 4.67432H10.8184V5.92397H9.27145V4.67432ZM9.27145 7.36861H10.8184V8.61826H9.27145V7.36861ZM6.17864 4.67432H7.72555V5.92397H6.17864V4.67432ZM6.17864 7.36861H7.72555V8.61826H6.17864V7.36861ZM3.09184 4.67432H4.63874V5.92397H3.09184V4.67432ZM3.09184 7.36861H4.63874V8.61826H3.09184V7.36861ZM13.9052 11.3247H3.09284V10.0751H13.9052V11.3247ZM13.9052 8.63045H12.3583V7.37424H13.9052V8.63045ZM13.9052 5.94366H12.3583V4.69401H13.9052V5.94366Z" fill="black"/>
</g>
<defs>
<clipPath id="clip0_6_1827">
<rect width="16" height="16" fill="white" transform="translate(0.5)"/>
</clipPath>
</defs>
</svg>
