<svg width="16" height="17" viewBox="0 0 16 17" fill="none" xmlns="http://www.w3.org/2000/svg">
<g clip-path="url(#clip0_6_401)">
<path d="M15.9995 0.379883H14.2395L8.13949 12.7599C7.20899 12.9369 6.13899 13.0384 5.04499 13.0384C3.35999 13.0384 1.73099 12.7979 0.190488 12.3494L0.312988 12.3799C0.114988 12.8739 0.000488281 13.4469 0.000488281 14.0464C0.000488281 14.6459 0.114988 15.2189 0.323988 15.7444L0.312988 15.7134C1.76449 16.1349 3.43199 16.3774 5.15649 16.3774C6.88099 16.3774 8.54799 16.1349 10.127 15.6824L9.99999 15.7134C10.116 15.2719 10.183 14.7654 10.183 14.2434C10.183 13.7214 10.1165 13.2144 9.99099 12.7319L9.99999 12.7734L15.9995 0.379883ZM2.66649 14.8464C2.23999 14.7799 1.81999 14.7064 1.39999 14.6129C1.36049 14.4279 1.33649 14.2139 1.33349 13.9954V13.9929C1.77999 14.0864 2.21999 14.1529 2.66699 14.2129L2.66649 14.8464ZM5.99949 15.0464C5.71949 15.0464 5.43949 15.0464 5.15949 15.0464C4.77299 15.0464 4.37949 15.0464 3.99299 14.9999V14.3799C4.35299 14.3799 4.71949 14.4134 5.08649 14.4134C5.39299 14.4134 5.69999 14.4134 5.99999 14.4134L5.99949 15.0464ZM8.83299 14.6599C8.33299 14.7734 7.83299 14.8534 7.33299 14.9199V14.2534C7.83299 14.1869 8.33949 14.1134 8.84649 14.0069C8.85049 14.0744 8.85249 14.1534 8.85249 14.2329C8.85249 14.3739 8.84549 14.5134 8.83149 14.6509L8.83299 14.6334V14.6599Z" fill="black"/>
<path d="M5.49949 9.39988C6.20199 8.98888 6.66649 8.23838 6.66649 7.37888C6.66649 6.09038 5.62199 5.04538 4.33299 5.04538C3.04399 5.04538 1.99949 6.08988 1.99949 7.37888C1.99949 7.80888 2.11599 8.21138 2.31849 8.55738L2.31249 8.54638C2.72349 9.24838 3.47399 9.71238 4.33249 9.71238C4.76199 9.71238 5.16449 9.59638 5.50999 9.39388L5.49949 9.39988Z" fill="black"/>
</g>
<defs>
<clipPath id="clip0_6_401">
<rect width="16" height="16" fill="white" transform="translate(0 0.37793)"/>
</clipPath>
</defs>
</svg>
