<svg width="16" height="17" viewBox="0 0 16 17" fill="none" xmlns="http://www.w3.org/2000/svg">
<g clip-path="url(#clip0_6_594)">
<path d="M14.64 1.73805C12.8265 -0.0754453 9.88649 -0.0754453 8.07349 1.73805C7.30699 2.50455 6.87349 3.71155 6.74699 4.45155C6.54699 5.61155 5.93349 7.03155 5.15349 7.62505C4.91999 7.74505 4.69999 7.90506 4.50699 8.10505C3.68699 8.92505 3.52049 10.1516 4.00049 11.1386L0.000488281 15.1386L1.24049 16.3786L5.24049 12.3786C6.23399 12.8586 7.45399 12.6921 8.27399 11.8721C8.46749 11.6786 8.62749 11.4586 8.75399 11.2256C9.35399 10.4456 11.054 9.81205 11.9205 9.62556C12.9005 9.41206 13.8805 9.06555 14.6405 8.30555C16.454 6.49205 16.454 3.55205 14.6405 1.73905L14.64 1.73805ZM13.2265 3.15155C13.86 3.78505 14.1 4.66505 13.953 5.49155L10.8865 2.42505C11.04 2.39855 11.193 2.37855 11.353 2.37855C12.0595 2.37855 12.7265 2.65155 13.2265 3.15155ZM12.58 7.33155L9.05349 3.80505C9.17999 3.55155 9.31999 3.31155 9.47999 3.15855C9.51999 3.11855 9.57349 3.08505 9.61999 3.04505L13.34 6.76505C13.3 6.81155 13.2735 6.85855 13.2265 6.90505C13.06 7.07155 12.8465 7.21855 12.58 7.33855V7.33155ZM7.15999 10.0181L7.05999 10.1516L6.97999 10.3051C6.94649 10.3651 6.90649 10.4186 6.85999 10.4716C6.68649 10.6451 6.49349 10.6651 6.38649 10.6651C6.27949 10.6651 6.08649 10.6386 5.91299 10.4716C5.73949 10.2981 5.71949 10.1051 5.71949 9.99805C5.71949 9.89105 5.74599 9.69805 5.91299 9.52455C5.95949 9.47805 6.01949 9.43805 6.07949 9.40455L6.22599 9.32455L6.35949 9.22456C7.56599 8.30455 8.29949 6.60455 8.61299 5.25805L11.133 7.77805C10.293 8.00455 8.17949 8.69155 7.15949 10.0246L7.15999 10.0181Z" fill="black"/>
<path d="M10.8335 12.0246C9.71999 12.6711 9.33349 14.0981 9.97999 15.2111C10.6265 16.3241 12.0535 16.7111 13.1665 16.0646C14.2795 15.4181 14.6665 13.9911 14.02 12.8781C13.3735 11.7651 11.9465 11.3781 10.8335 12.0246Z" fill="black"/>
</g>
<defs>
<clipPath id="clip0_6_594">
<rect width="16" height="16" fill="white" transform="translate(0 0.37793)"/>
</clipPath>
</defs>
</svg>
