<svg width="17" height="16" viewBox="0 0 17 16" fill="none" xmlns="http://www.w3.org/2000/svg">
<g clip-path="url(#clip0_232_91)">
<path fill-rule="evenodd" clip-rule="evenodd" d="M14.5533 12.1075V9.51398L12.8263 9.53398V5.57312C12.8263 5.57307 12.8263 5.57317 12.8263 5.57312C12.8262 3.58456 11.485 1.90924 9.63328 1.3987C9.59471 1.38807 9.55592 1.37794 9.51692 1.36833C9.46705 1.35603 9.41683 1.34458 9.36628 1.33398V0.867477C9.36628 0.388977 8.97828 0.000976562 8.49978 0.000976562C8.02128 0.000976562 7.63328 0.388977 7.63328 0.867477V1.33398L7.60528 1.33898C7.56393 1.34767 7.5228 1.35696 7.48189 1.36683C7.44315 1.37618 7.40461 1.38605 7.36628 1.39643C5.53274 1.89305 4.18239 3.56448 4.17328 5.55398V9.51398H2.44678V12.1075H14.5533ZM10.8263 5.57298V10.1075V5.57298ZM10.8263 10.1075H6.17328V5.55925C6.18014 4.45597 6.95551 3.53174 7.99166 3.30162L8.5387 3.20393L8.95579 3.2914C10.0441 3.51963 10.8262 4.4628 10.8263 5.57298M11.0933 13.407H5.90678C5.90678 13.6497 5.9401 13.8847 6.00242 14.1075C6.14679 14.6236 6.44676 15.0747 6.84862 15.407C7.29704 15.7777 7.87231 16.0005 8.49978 16.0005C9.12724 16.0005 9.70261 15.7777 10.1511 15.407C10.5531 15.0747 10.8532 14.6236 10.9976 14.1075C11.0599 13.8847 11.0933 13.6497 11.0933 13.407Z" fill="black"/>
</g>
<defs>
<clipPath id="clip0_232_91">
<rect width="16" height="16" fill="white" transform="translate(0.5)"/>
</clipPath>
</defs>
</svg>
