<svg width="16" height="17" viewBox="0 0 16 17" fill="none" xmlns="http://www.w3.org/2000/svg">
<g clip-path="url(#clip0_6_414)">
<path d="M7.6072 12.2475C7.2832 12.8535 6.7662 13.321 6.1397 13.574L6.1202 13.581C5.8667 13.6725 5.5747 13.7255 5.2702 13.7255C4.8512 13.7255 4.4552 13.6255 4.1057 13.4475L4.1202 13.4545C3.4952 13.1555 3.0192 12.6295 2.7922 11.986L2.7867 11.968C2.6937 11.711 2.6397 11.414 2.6397 11.1045C2.6397 10.691 2.7357 10.3 2.9067 9.95252L2.8997 9.96802C3.0052 9.78152 3.0672 9.55852 3.0672 9.32152C3.0672 9.08452 3.0052 8.86102 2.8962 8.66802L2.8997 8.67452C2.6652 8.27202 2.2357 8.00552 1.7437 8.00552C1.2042 8.00552 0.739699 8.32552 0.529699 8.78652L0.526199 8.79502C0.189199 9.47052 -0.00830078 10.2665 -0.00830078 11.1085C-0.00830078 14.0215 2.3532 16.383 5.2662 16.383C7.3372 16.383 9.1292 15.1895 9.9922 13.4525L14.1062 4.50202L12.3127 3.60852C10.7992 6.48202 8.6727 10.495 7.6062 12.2485L7.6072 12.2475Z" fill="black"/>
<path d="M14.0072 0.374023C14.0072 0.374023 13.5807 1.20052 12.9337 2.42752L14.6737 3.29402L16.0072 0.374023H14.0072Z" fill="black"/>
<path d="M7.5072 9.39402C8.2097 8.98302 8.6742 8.23252 8.6742 7.37302C8.6742 6.08452 7.6297 5.03952 6.3407 5.03952C5.0517 5.03952 4.0072 6.08402 4.0072 7.37302C4.0072 7.80302 4.1237 8.20552 4.3262 8.55152L4.3202 8.54052C4.7312 9.24252 5.4817 9.70652 6.3402 9.70652C6.7697 9.70652 7.1722 9.59052 7.5177 9.38802L7.5072 9.39402Z" fill="black"/>
</g>
<defs>
<clipPath id="clip0_6_414">
<rect width="16" height="16" fill="white" transform="translate(0 0.37793)"/>
</clipPath>
</defs>
</svg>
