<svg width="16" height="17" viewBox="0 0 16 17" fill="none" xmlns="http://www.w3.org/2000/svg">
<g clip-path="url(#clip0_6_314)">
<path d="M10.855 11.9922C10.149 12.4057 9.68195 13.1602 9.68195 14.0242C9.68195 15.3202 10.7325 16.3707 12.0285 16.3707C13.3245 16.3707 14.375 15.3202 14.375 14.0242C14.375 13.5927 14.2585 13.1882 14.0555 12.8412L14.0615 12.8522C13.6485 12.1452 12.893 11.6777 12.0285 11.6777C11.5965 11.6777 11.1915 11.7947 10.844 11.9982L10.855 11.9922Z" fill="black"/>
<path d="M14.582 1.21924C13.9135 0.699242 13.0625 0.385742 12.138 0.385742C11.003 0.385742 9.97795 0.858742 9.24995 1.61774L8.18845 2.67924C7.00295 3.88224 6.27095 5.53424 6.27095 7.35774C6.27095 7.44024 6.27245 7.52224 6.27545 7.60424L6.27495 7.59224C6.27795 7.63974 6.27995 7.69474 6.27995 7.75074C6.27995 8.43324 6.00845 9.05274 5.56795 9.50624L3.66195 11.4122L3.11545 10.8657L0.00195312 13.9722L2.35545 16.3257L5.46895 13.2192L4.92245 12.6727L6.82895 10.7662C7.28195 10.3262 7.90145 10.0547 8.58395 10.0547C8.63945 10.0547 8.69495 10.0567 8.74945 10.0602L8.74195 10.0597C8.81195 10.0622 8.89395 10.0637 8.97645 10.0637C10.8 10.0637 12.4525 9.33174 13.656 8.14524L13.655 8.14624L14.835 6.99274C15.553 6.28724 15.998 5.30574 15.998 4.22024C15.998 3.01474 15.4495 1.93774 14.588 1.22474L14.582 1.21924ZM13.5885 5.70574L12.4085 6.87924C11.282 7.99924 9.30845 8.65924 8.49495 7.83924C7.68145 7.01924 8.32145 5.03924 9.45495 3.93274L10.495 2.86624C10.8995 2.42724 11.4775 2.15274 12.1195 2.15274C12.618 2.15274 13.078 2.31824 13.447 2.59674L13.4415 2.59274L13.6015 2.73274C13.985 3.11424 14.222 3.64224 14.222 4.22624C14.222 4.81024 13.9845 5.33774 13.6015 5.71924L13.5885 5.70574Z" fill="black"/>
</g>
<defs>
<clipPath id="clip0_6_314">
<rect width="16" height="16" fill="white" transform="translate(0 0.37793)"/>
</clipPath>
</defs>
</svg>
