<svg width="16" height="17" viewBox="0 0 16 17" fill="none" xmlns="http://www.w3.org/2000/svg">
<g clip-path="url(#clip0_6_553)">
<path d="M8.00009 16.3779C7.98309 16.3779 7.96259 16.3784 7.94259 16.3784C6.24409 16.3784 4.68959 15.7619 3.49059 14.7399L3.50009 14.7479C2.09659 13.5659 1.16959 11.8579 1.02409 9.93143L1.02259 9.90793C1.01059 9.75143 1.00359 9.56943 1.00359 9.38543C1.00359 8.92843 1.04609 8.48143 1.12709 8.04793L1.12009 8.09293C1.33909 6.94393 1.81209 5.93093 2.47909 5.07743L2.46759 5.09293C2.57259 4.95543 2.57259 4.95543 2.65009 5.11793C2.80509 5.44043 2.95759 5.76543 3.11259 6.09043C3.12409 6.11143 3.13109 6.13643 3.13109 6.16293C3.13109 6.19893 3.11859 6.23243 3.09759 6.25843C2.71759 6.84643 2.43409 7.53443 2.28859 8.27343L2.28259 8.31043C2.21859 8.62643 2.18209 8.98993 2.18209 9.36193C2.18209 9.51993 2.18859 9.67593 2.20159 9.83093L2.20009 9.81093C2.38759 12.2099 4.00109 14.1879 6.18659 14.9089L6.22759 14.9209C6.28009 14.9384 6.31759 14.9484 6.33009 14.8809C6.45359 14.3934 6.52959 13.8314 6.54009 13.2529V13.2459C6.51809 12.4934 6.32059 11.7914 5.98809 11.1734L6.00009 11.1984C5.65659 10.5629 5.28459 10.0154 4.86409 9.50943L4.87759 9.52593C4.85559 9.50593 4.84159 9.47743 4.84159 9.44593C4.84159 9.42343 4.84859 9.40293 4.86009 9.38543C5.70842 7.8471 6.55342 6.3101 7.39509 4.77343C7.58009 4.43343 7.76509 4.09093 7.95259 3.75093C7.96759 3.72593 7.97009 3.68343 8.00259 3.68093C8.03509 3.67843 8.04759 3.72343 8.06259 3.75343C8.78092 5.05843 9.49759 6.36343 10.2126 7.66843C10.5193 8.2301 10.8276 8.79093 11.1376 9.35093C11.1571 9.37593 11.1691 9.40793 11.1691 9.44243C11.1691 9.48643 11.1501 9.52543 11.1206 9.55293C10.6431 10.1134 10.2266 10.7484 9.89409 11.4324L9.87059 11.4854C9.61559 12.0224 9.46709 12.6524 9.46709 13.3174C9.46709 13.4269 9.47109 13.5349 9.47909 13.6424L9.47809 13.6279C9.51959 14.0909 9.58759 14.5094 9.68259 14.9179L9.67059 14.8554C9.68559 14.9229 9.70559 14.9404 9.77559 14.9154C11.5686 14.3364 12.9546 12.9554 13.5291 11.2064L13.5406 11.1654C13.6666 10.7989 13.7551 10.3739 13.7896 9.93343L13.7906 9.91543C13.8051 9.76543 13.8131 9.59143 13.8131 9.41543C13.8131 9.23943 13.8051 9.06543 13.7886 8.89343L13.7901 8.91543C13.7161 7.93343 13.4046 7.03793 12.9136 6.26743L12.9276 6.29043C12.8996 6.25393 12.8831 6.20743 12.8831 6.15693C12.8831 6.12393 12.8901 6.09243 12.9031 6.06443L12.9026 6.06593C13.0501 5.70593 13.1876 5.34343 13.3301 4.98093C13.3701 4.88093 13.3726 4.88093 13.4401 4.96343C13.8166 5.42643 14.1421 5.95393 14.3946 6.52143L14.4126 6.56593C14.6861 7.17093 14.8786 7.87293 14.9526 8.60993L14.9551 8.63843C14.9781 8.85243 14.9911 9.10043 14.9911 9.35143C14.9911 9.81743 14.9461 10.2724 14.8606 10.7134L14.8681 10.6689C14.3786 13.2329 12.5446 15.2729 10.1426 16.0499L10.0931 16.0639C9.48759 16.2639 8.79059 16.3794 8.06659 16.3794C8.04359 16.3794 8.02009 16.3794 7.99709 16.3789H8.00059L8.00009 16.3779ZM8.00009 11.5429C9.20909 11.5424 10.1891 10.5619 10.1891 9.35293C10.1891 8.14393 9.20859 7.16293 7.99909 7.16293C6.78959 7.16293 5.80909 8.14343 5.80909 9.35293C5.80909 9.37393 5.80959 9.39493 5.81009 9.41593V9.41293C5.83959 10.5954 6.80509 11.5429 7.99209 11.5429C7.99509 11.5429 7.99709 11.5429 8.00009 11.5429Z" fill="black"/>
<path d="M10.6751 14.2879C10.6126 13.9379 10.5426 13.6004 10.4976 13.2579C10.4491 12.9809 10.4216 12.6619 10.4216 12.3364C10.4216 12.2999 10.4221 12.2639 10.4226 12.2274V12.2329C10.4456 11.7174 10.4956 11.2359 10.5721 10.7634L10.5626 10.8354C10.5761 10.7649 10.5866 10.6794 10.5921 10.5919L10.5926 10.5854C10.6411 10.3739 10.7451 10.1914 10.8876 10.0479C11.0126 9.87793 11.1376 9.71293 11.2751 9.54793C11.2951 9.52443 11.3071 9.49393 11.3071 9.46043C11.3071 9.42693 11.2951 9.39643 11.2746 9.37293L11.0246 8.91293C11.0041 8.87743 10.9921 8.83493 10.9921 8.78943C10.9921 8.76743 10.9951 8.74643 11.0001 8.72643L10.9996 8.72793C11.1621 8.11043 11.3246 7.49293 11.4996 6.88293C11.6746 6.27293 11.8546 5.71543 12.0296 5.13293C12.2271 4.48543 12.4396 3.84043 12.6446 3.19543C12.9296 2.30543 13.2221 1.42043 13.5321 0.54043C13.5426 0.48993 13.5871 0.45293 13.6396 0.45293C13.6411 0.45293 13.6431 0.45293 13.6446 0.45293C14.1071 0.40793 14.5621 0.40793 15.0171 0.37793C15.0771 0.37793 15.0971 0.37793 15.0696 0.45043C14.9396 0.77043 14.7871 1.08043 14.6471 1.39543C14.3621 2.04793 14.0721 2.69543 13.7946 3.35043C13.5563 3.91043 13.3238 4.47293 13.0971 5.03793C12.8471 5.67293 12.5971 6.31043 12.3646 6.95293C12.1946 7.42793 12.0246 7.90293 11.8646 8.38293C11.7046 8.86293 11.5446 9.38293 11.4121 9.90543C11.2746 10.3909 11.1496 10.9914 11.0631 11.6049L11.0546 11.6804C11.0381 11.8414 11.0286 12.0284 11.0286 12.2174C11.0286 12.3409 11.0326 12.4634 11.0406 12.5844L11.0396 12.5679C11.0581 12.9964 11.1136 13.4014 11.2031 13.7929L11.1946 13.7479C11.2471 13.9979 11.2746 13.9179 11.0621 14.0654C10.9501 14.1509 10.8226 14.2254 10.6861 14.2834L10.6751 14.2879Z" fill="black"/>
<path d="M5.32509 14.2879C5.38759 13.9379 5.45759 13.6004 5.50259 13.2579C5.55109 12.9809 5.57859 12.6619 5.57859 12.3364C5.57859 12.2999 5.57809 12.2639 5.57759 12.2274V12.2329C5.55459 11.7174 5.50459 11.2359 5.42809 10.7634L5.43759 10.8354C5.42409 10.7649 5.41359 10.6794 5.40809 10.5919L5.40759 10.5854C5.35909 10.3739 5.25509 10.1914 5.11259 10.0479C4.98759 9.87793 4.86259 9.71293 4.72509 9.54793C4.70509 9.52443 4.69309 9.49393 4.69309 9.46043C4.69309 9.42693 4.70509 9.39643 4.72559 9.37293L4.97559 8.91293C4.99609 8.87743 5.00809 8.83493 5.00809 8.78943C5.00809 8.76743 5.00509 8.74643 5.00009 8.72643L5.00059 8.72793C4.83809 8.11043 4.67559 7.49293 4.50059 6.88293C4.32559 6.27293 4.14559 5.71543 3.97059 5.13293C3.77309 4.48543 3.56059 3.84043 3.35559 3.19543C3.06309 2.30043 2.77059 1.41543 2.46059 0.53543C2.45009 0.48493 2.40559 0.44793 2.35309 0.44793C2.35159 0.44793 2.34959 0.44793 2.34809 0.44793C1.89309 0.40793 1.43809 0.40793 0.983086 0.37793C0.923086 0.37793 0.903086 0.37793 0.930586 0.45043C1.06059 0.77043 1.21309 1.08043 1.35309 1.39543C1.63809 2.04793 1.92809 2.69543 2.20559 3.35043C2.44225 3.91043 2.67475 4.47293 2.90309 5.03793C3.15309 5.67293 3.40309 6.31043 3.63559 6.95293C3.80559 7.42793 3.97559 7.90293 4.13559 8.38293C4.29559 8.86293 4.45559 9.38293 4.58809 9.90543C4.72559 10.3909 4.85059 10.9914 4.93709 11.6049L4.94559 11.6804C4.96209 11.8414 4.97159 12.0284 4.97159 12.2174C4.97159 12.3409 4.96759 12.4634 4.95959 12.5844L4.96059 12.5679C4.94209 12.9964 4.88659 13.4014 4.79709 13.7929L4.80559 13.7479C4.75309 13.9979 4.72559 13.9179 4.93809 14.0654C5.05009 14.1509 5.17759 14.2254 5.31409 14.2834L5.32509 14.2879Z" fill="black"/>
<path d="M6.27509 9.35543C6.27659 8.40243 7.04959 7.63043 8.00259 7.63043C8.95659 7.63043 9.73009 8.40393 9.73009 9.35793C9.73009 10.3119 8.95659 11.0854 8.00259 11.0854C7.99659 11.0854 7.99009 11.0854 7.98409 11.0854C7.03909 11.0824 6.27509 10.3159 6.27509 9.37043C6.27509 9.36493 6.27509 9.35993 6.27509 9.35443V9.35543Z" fill="black"/>
<path d="M6.43759 10.2404H6.45259V10.2254L6.43759 10.2404Z" fill="black"/>
<path d="M3.00009 0.62793L5.25009 7.12793L8.00009 2.31543L10.7501 7.12793L13.0001 0.62793C11.4966 0.91043 9.76709 1.07243 8.00009 1.07243C6.23309 1.07243 4.50359 0.91093 2.82559 0.60143L3.00009 0.62793Z" fill="black"/>
</g>
<defs>
<clipPath id="clip0_6_553">
<rect width="16" height="16" fill="white" transform="translate(0 0.37793)"/>
</clipPath>
</defs>
</svg>
