<svg width="16" height="17" viewBox="0 0 16 17" fill="none" xmlns="http://www.w3.org/2000/svg">
<g clip-path="url(#clip0_6_332)">
<path d="M11.3335 5.55838C11.563 5.69388 11.839 5.77388 12.134 5.77388C13.014 5.77388 13.7275 5.06038 13.7275 4.18038C13.7275 3.30038 13.014 2.58688 12.134 2.58688C11.547 2.58688 11.034 2.90438 10.7575 3.37688L10.7535 3.38438C10.621 3.61238 10.543 3.88588 10.543 4.17738C10.543 4.76238 10.857 5.27438 11.326 5.55338L11.3335 5.55838Z" fill="black"/>
<path d="M2.90655 11.2649H2.95305C3.02705 11.3109 3.11255 11.3534 3.20255 11.3879L3.21305 11.3914C3.44105 11.4844 3.70555 11.5379 3.98305 11.5379C3.98905 11.5379 3.99505 11.5379 4.00055 11.5379C4.01705 11.5384 4.03555 11.5384 4.05505 11.5384C4.58205 11.5384 5.06555 11.3519 5.44305 11.0414L5.43905 11.0444C6.12255 10.5199 6.98955 10.2039 7.93055 10.2039C7.95455 10.2039 7.97855 10.2039 8.00255 10.2044H7.99905C8.01655 10.2039 8.03755 10.2039 8.05855 10.2039C9.00055 10.2039 9.86805 10.5199 10.562 11.0514L10.552 11.0439C10.926 11.3514 11.4095 11.5379 11.9365 11.5379C11.9585 11.5379 11.98 11.5374 12.002 11.5369H11.999C12.015 11.5374 12.0335 11.5374 12.052 11.5374C12.582 11.5374 13.0685 11.3509 13.45 11.0404L13.446 11.0434C14.126 10.5189 14.9905 10.2029 15.9285 10.2029C15.9535 10.2029 15.978 10.2029 16.003 10.2034H15.9995V8.20338C15.98 8.20288 15.9565 8.20288 15.9335 8.20288C14.994 8.20288 14.128 8.51888 13.4365 9.05038L13.446 9.04338C13.069 9.35088 12.5825 9.53738 12.052 9.53738C12.0335 9.53738 12.015 9.53738 11.9965 9.53688H11.999C11.9805 9.53738 11.959 9.53788 11.937 9.53788C11.41 9.53788 10.926 9.35138 10.5485 9.04088L10.5525 9.04388C10.0445 8.65838 9.43155 8.38388 8.76405 8.26738L8.73905 8.26388H8.61255C8.42705 8.23538 8.21205 8.21838 7.99355 8.21738H7.99255C7.96905 8.21688 7.94155 8.21638 7.91355 8.21638C6.98005 8.21638 6.11955 8.52738 5.42905 9.05138L5.43905 9.04388C5.06505 9.35138 4.58155 9.53788 4.05455 9.53788C4.03505 9.53788 4.01555 9.53788 3.99605 9.53688H3.99905C3.98005 9.53738 3.95755 9.53788 3.93455 9.53788C3.40805 9.53788 2.92505 9.35138 2.54855 9.04038L2.55205 9.04338L2.30555 8.87688L2.25205 8.84338L1.99855 8.70988L1.92505 8.66988L1.66505 8.54338H1.60505C1.13205 8.33088 0.580047 8.20588 -0.000953125 8.20338H-0.00195312V10.2034C0.0165469 10.2029 0.0380469 10.2029 0.0600469 10.2029C1.00105 10.2029 1.86805 10.5189 2.56155 11.0504L2.55155 11.0434L2.90655 11.2649Z" fill="black"/>
<path d="M16 11.5384C15.8865 11.5384 15.78 11.5384 15.6735 11.5384C14.826 11.5954 14.06 11.9024 13.4375 12.3854L13.447 12.3784C13.07 12.6859 12.5835 12.8724 12.053 12.8724C12.0345 12.8724 12.016 12.8724 11.9975 12.8719H12C11.9815 12.8724 11.96 12.8729 11.938 12.8729C11.411 12.8729 10.927 12.6864 10.5495 12.3759L10.5535 12.3789C9.93855 11.9104 9.17205 11.6099 8.33855 11.5594L8.32705 11.5589C8.22055 11.5589 8.12055 11.5589 8.00705 11.5589C7.89355 11.5589 7.78705 11.5589 7.68705 11.5589C6.83455 11.6059 6.06105 11.9069 5.43005 12.3864L5.44005 12.3789C5.06605 12.6864 4.58255 12.8729 4.05555 12.8729C4.03605 12.8729 4.01655 12.8729 3.99705 12.8719H4.00005C3.98105 12.8724 3.95855 12.8729 3.93555 12.8729C3.40905 12.8729 2.92605 12.6864 2.54955 12.3754L2.55305 12.3784C1.93955 11.9104 1.17605 11.6104 0.344547 11.5589L0.333047 11.5584C0.226547 11.5584 0.119547 11.5584 0.00654697 11.5584H4.69685e-05V13.5584C0.026047 13.5579 0.057047 13.5574 0.087547 13.5574C1.01705 13.5574 1.87455 13.8659 2.56355 14.3859L2.55305 14.3784C2.92605 14.6859 3.40905 14.8729 3.93555 14.8729C3.95805 14.8729 3.98055 14.8724 4.00305 14.8719H3.99955C4.01605 14.8724 4.03555 14.8724 4.05505 14.8724C4.58205 14.8724 5.06555 14.6859 5.44305 14.3754L5.43905 14.3784C6.12255 13.8539 6.98955 13.5379 7.93055 13.5379C7.95455 13.5379 7.97855 13.5379 8.00255 13.5384H7.99905C8.01655 13.5379 8.03755 13.5379 8.05855 13.5379C9.00055 13.5379 9.86805 13.8539 10.562 14.3854L10.552 14.3779C10.926 14.6854 11.4095 14.8719 11.9365 14.8719C11.9585 14.8719 11.98 14.8714 12.002 14.8709H11.999C12.015 14.8714 12.0335 14.8714 12.052 14.8714C12.582 14.8714 13.0685 14.6849 13.45 14.3744L13.446 14.3774C14.128 13.8529 14.9935 13.5369 15.933 13.5369C15.9565 13.5369 15.9795 13.5369 16.0025 13.5374H15.999V11.5374L16 11.5384Z" fill="black"/>
<path d="M3.29355 7.93188C3.68005 8.19188 3.70705 8.20538 3.96005 8.20538C4.21305 8.20538 4.28005 8.20538 4.66655 7.93188C5.55505 7.26888 6.67505 6.87088 7.88805 6.87088C7.92755 6.87088 7.96655 6.87138 8.00605 6.87188H8.00005C8.01255 6.87188 8.02705 6.87188 8.04155 6.87188C9.27705 6.87188 10.42 7.26938 11.3495 7.94338L11.333 7.93188C11.7195 8.19188 11.7465 8.20538 12.0395 8.20538C12.3325 8.20538 12.353 8.20538 12.746 7.93188C13.5595 7.33338 14.5665 6.95288 15.6585 6.89238L15.6725 6.89188L14.9125 5.65838C11.306 7.75838 10.179 5.87188 9.80605 5.25188C8.36605 2.83838 5.69955 0.931876 2.99955 2.11188L3.66605 3.63838C4.99955 3.06488 6.23955 3.71838 7.17955 4.61188L1.99955 7.22538C2.49355 7.42638 2.91955 7.66338 3.31155 7.94488L3.29355 7.93188Z" fill="black"/>
</g>
<defs>
<clipPath id="clip0_6_332">
<rect width="16" height="16" fill="white" transform="translate(0 0.37793)"/>
</clipPath>
</defs>
</svg>
