<svg width="16" height="17" viewBox="0 0 16 17" fill="none" xmlns="http://www.w3.org/2000/svg">
<g clip-path="url(#clip0_6_245)">
<path d="M2.2502 2.82754C2.8502 3.12754 3.3502 3.27754 3.8502 3.47754H3.8002L4.10019 2.72754C4.1502 2.57754 4.2002 2.47754 4.2502 2.37754C4.5002 2.12754 4.95019 2.12754 5.20019 2.37754C5.4002 2.57754 5.45019 2.87754 5.35019 3.12754L5.10019 3.72754C5.9002 3.87754 6.60019 3.97754 7.35019 3.97754V2.62754C7.35019 2.47754 7.4002 2.27754 7.5502 2.17754C7.8002 1.92754 8.2502 1.92754 8.5002 2.17754C8.6502 2.32754 8.7002 2.47754 8.7002 2.62754V4.02754C9.35019 4.02754 10.0002 3.92754 10.6502 3.82754H10.7002L10.4502 3.17754C10.3502 2.92754 10.4002 2.62754 10.6002 2.42754C10.8502 2.17754 11.3002 2.17754 11.5502 2.42754C11.6002 2.47754 11.7002 2.57754 11.7002 2.67754L12.0002 3.47754C12.5002 3.32754 13.1002 3.12754 13.6502 2.82754L13.7002 2.77754C13.7002 2.77754 13.6502 2.72754 13.6002 2.67754C10.5002 -0.422461 5.4002 -0.422461 2.3002 2.67754L2.2502 2.82754Z" fill="black"/>
<path d="M12.4502 4.72754L12.7502 5.52754C12.8502 5.77754 12.8002 6.02754 12.6002 6.22754C12.5502 6.27754 12.4502 6.32754 12.3502 6.37754C12.1002 6.47754 11.8502 6.42754 11.6502 6.22754C11.6002 6.17754 11.5502 6.07754 11.5002 5.97754L11.1502 5.02754C10.2502 5.22754 8.6502 5.32754 8.6502 5.32754V5.92754C8.6502 6.07754 8.60019 6.27754 8.4502 6.37754C8.3002 6.52754 8.1502 6.57754 8.0002 6.57754C7.8502 6.57754 7.6502 6.52754 7.5502 6.37754C7.4502 6.22754 7.3502 6.07754 7.3502 5.92754V5.32754C6.5002 5.27754 5.6002 5.17754 4.7502 4.97754H4.7002L4.3502 5.92754C4.3002 6.02754 4.2502 6.07754 4.2002 6.17754C3.9502 6.42754 3.5002 6.42754 3.2502 6.17754C3.0002 6.07754 2.9502 5.77754 3.0002 5.52754L3.3502 4.67754C2.7502 4.47754 2.1002 4.22754 1.5002 3.87754L1.4002 3.82754C-0.449805 6.57754 -0.449805 10.1775 1.4002 12.8775L1.4502 12.9275C2.1502 12.5775 3.3502 12.0775 3.3502 12.0775L3.0002 11.2275C2.9502 10.9775 3.0002 10.7275 3.1502 10.5775C3.4002 10.3275 3.8502 10.3275 4.1002 10.5775C4.1502 10.6275 4.2002 10.7275 4.2502 10.7775L4.6502 11.7775C5.6002 11.5775 6.5002 11.4775 7.3502 11.4275V10.8275C7.3502 10.6775 7.4502 10.5275 7.5502 10.4275C7.8002 10.1775 8.2502 10.1775 8.5002 10.4275C8.6002 10.5275 8.7002 10.6775 8.7002 10.8275V11.4275C9.5002 11.4775 10.3502 11.5775 11.1502 11.7275H11.2002L11.5502 10.7775C11.5502 10.6275 11.6502 10.4775 11.7502 10.3775C12.0002 10.1275 12.4502 10.1275 12.7002 10.3775C12.9502 10.6275 12.9502 10.9775 12.7502 11.2275L12.4502 12.0275C13.1002 12.2275 13.8002 12.5275 14.5002 12.8775L14.6002 12.9275C16.5002 10.1775 16.5002 6.57754 14.6502 3.87754H14.5502C13.8002 4.22754 12.4502 4.72754 12.4502 4.72754Z" fill="black"/>
<path d="M13.7502 13.9775C13.1002 13.6775 12.5502 13.4275 11.9502 13.2775H12.0002L11.7002 14.1275C11.6502 14.2275 11.6002 14.2775 11.5502 14.3775C11.3002 14.6275 10.8502 14.6275 10.6002 14.3775C10.4002 14.1775 10.3502 13.8775 10.4502 13.6775L10.7002 13.0275C10.0002 12.8775 9.35019 12.8275 8.6502 12.7775L8.6002 14.1275C8.6002 14.2775 8.5502 14.4275 8.4002 14.5775C8.25019 14.7275 8.10019 14.7775 7.95019 14.7775C7.80019 14.7775 7.60019 14.7275 7.5002 14.5775C7.35019 14.4275 7.3002 14.2775 7.3002 14.1275V12.7775C6.6002 12.8275 5.85019 12.9275 5.1502 13.0775H5.10019L5.35019 13.6775C5.45019 13.9275 5.4002 14.1775 5.20019 14.3775C5.1502 14.4275 5.05019 14.4775 4.95019 14.5275C4.70019 14.6275 4.4502 14.5775 4.2502 14.3775C4.2002 14.3275 4.1502 14.2275 4.10019 14.1275L3.80019 13.3775C3.35019 13.5275 2.85019 13.7275 2.30019 13.9275L2.2002 13.9775C2.2502 14.0275 2.2502 14.0275 2.30019 14.0775C5.4002 17.1775 10.5002 17.1775 13.6002 14.0775L13.7502 13.9775Z" fill="black"/>
</g>
<defs>
<clipPath id="clip0_6_245">
<rect width="16" height="16" fill="white" transform="translate(0 0.37793)"/>
</clipPath>
</defs>
</svg>
