<svg width="17" height="16" viewBox="0 0 17 16" fill="none" xmlns="http://www.w3.org/2000/svg">
<g clip-path="url(#clip0_6_361)">
<path d="M14.5025 7.82288C14.406 8.20188 14.286 8.52988 14.1375 8.84188L14.1515 8.80888C13.984 9.16138 13.803 9.46288 13.5975 9.74488L13.609 9.72838C14.109 10.1694 14.4225 10.8114 14.4225 11.5269C14.4225 11.8999 14.337 12.2529 14.185 12.5679L14.191 12.5534C13.794 13.3809 12.963 13.9419 12.001 13.9419C11.626 13.9419 11.2715 13.8569 10.9545 13.7049L10.969 13.7114L7.28398 11.9779C6.48198 11.5929 5.93248 10.7969 5.90798 9.87038V9.86738C5.90348 9.81288 5.90048 9.74938 5.90048 9.68538C5.90048 9.62138 5.90298 9.55788 5.90848 9.49538L5.90798 9.50338C5.90798 9.43038 5.90798 9.36438 5.90798 9.29188C5.91698 9.23238 5.92848 9.18088 5.94348 9.13088L5.94148 9.13988C5.98548 8.98788 6.03248 8.86038 6.08798 8.73738L6.08048 8.75638C6.15498 8.60888 6.23148 8.48288 6.31748 8.36438L6.31198 8.37238L6.37148 8.29938C6.46248 8.18188 6.55998 8.07788 6.66698 7.98388L6.66948 7.98188C7.09148 7.61538 7.64648 7.39188 8.25348 7.39188C8.28048 7.39188 8.30698 7.39238 8.33398 7.39338H8.32998C8.33448 7.39338 8.33998 7.39338 8.34498 7.39338C8.71498 7.39338 9.06448 7.47888 9.37598 7.63138L9.36198 7.62538L10.4735 8.14788C10.0535 8.50188 9.50648 8.71738 8.90898 8.71738C8.89598 8.71738 8.88348 8.71738 8.87048 8.71688H8.87248H8.32998C7.91098 8.71938 7.54948 8.96438 7.37998 9.31938L7.37748 9.32588C7.31448 9.45638 7.27748 9.60988 7.27748 9.77188C7.27748 10.1094 7.43748 10.4099 7.68598 10.6009L7.68848 10.6029C8.04298 10.7054 8.44998 10.7654 8.87148 10.7684H8.87298C11.325 10.7489 13.305 8.75688 13.305 6.30238C13.305 4.54138 12.2855 3.01838 10.805 2.29138L10.7785 2.27988L7.10648 0.546383C6.48998 0.205383 5.75498 0.00488281 4.97348 0.00488281C2.50348 0.00488281 0.500977 2.00738 0.500977 4.47738C0.500977 6.35038 1.65198 7.95438 3.28548 8.62038L3.31548 8.63138L3.97698 8.93588C3.92398 9.19388 3.89398 9.49038 3.89398 9.79438C3.89398 11.5674 4.92748 13.0994 6.42498 13.8204L6.45148 13.8319L10.13 15.5654C10.6905 15.8384 11.3495 15.9979 12.0455 15.9979C13.822 15.9979 15.356 14.9589 16.073 13.4554L16.0845 13.4284C16.347 12.8764 16.5005 12.2294 16.5005 11.5459C16.5005 9.99888 15.714 8.63588 14.5195 7.83438L14.5035 7.82438L14.5025 7.82288ZM3.01048 3.55538C3.40848 2.72888 4.23848 2.16788 5.19998 2.16588C5.57248 2.16638 5.92598 2.25138 6.24048 2.40388L6.22598 2.39788L9.93098 4.13138C10.71 4.53238 11.237 5.32338 11.254 6.23988V6.24238L10.2085 5.74638C9.65298 5.47938 9.00048 5.32388 8.31198 5.32388C6.87398 5.32388 5.59448 6.00388 4.77748 7.05938L4.76998 7.06988L4.10848 6.77238C3.30798 6.36788 2.76848 5.55188 2.76848 4.60988C2.76848 4.22688 2.85748 3.86438 3.01648 3.54288L3.00998 3.55688L3.01048 3.55538Z" fill="black"/>
</g>
<defs>
<clipPath id="clip0_6_361">
<rect width="16" height="16" fill="white" transform="translate(0.5)"/>
</clipPath>
</defs>
</svg>
