<svg width="17" height="16" viewBox="0 0 17 16" fill="none" xmlns="http://www.w3.org/2000/svg">
<g clip-path="url(#clip0_6_517)">
<path d="M8.5 0C4.084 0 0.5 3.584 0.5 8C0.5 12.416 4.084 16 8.5 16C12.916 16 16.5 12.416 16.5 8C16.5 3.584 12.916 0 8.5 0ZM14.852 7.2H12.084C11.996 5.176 11.564 3.368 10.916 2.072C13.02 2.928 14.564 4.872 14.852 7.2ZM2.148 8.8H4.916C5.004 10.824 5.436 12.632 6.084 13.928C3.98 13.072 2.444 11.128 2.148 8.8ZM4.916 7.2H2.148C2.436 4.872 3.98 2.928 6.084 2.072C5.436 3.368 5.012 5.176 4.916 7.2ZM9.588 13C9.316 13.6 9.036 13.992 8.804 14.208C8.692 14.312 8.612 14.36 8.564 14.384C8.524 14.4 8.508 14.4 8.5 14.4C8.492 14.4 8.476 14.4 8.436 14.384C8.388 14.36 8.308 14.312 8.196 14.208C7.964 13.992 7.684 13.6 7.412 13C6.948 11.96 6.604 10.496 6.516 8.8H10.476C10.396 10.496 10.052 11.96 9.588 13ZM6.516 7.2C6.596 5.504 6.94 4.04 7.412 3C7.684 2.4 7.964 2.008 8.196 1.792C8.308 1.688 8.388 1.64 8.436 1.616C8.476 1.6 8.492 1.6 8.5 1.6C8.508 1.6 8.524 1.6 8.564 1.616C8.612 1.64 8.692 1.688 8.804 1.792C9.036 2.008 9.316 2.4 9.588 3C10.052 4.04 10.396 5.504 10.484 7.2H6.516ZM10.916 13.928C11.556 12.632 11.988 10.824 12.084 8.8H14.852C14.564 11.128 13.02 13.072 10.916 13.928Z" fill="black"/>
</g>
<defs>
<clipPath id="clip0_6_517">
<rect width="16" height="16" fill="white" transform="translate(0.5)"/>
</clipPath>
</defs>
</svg>
