<svg width="16" height="17" viewBox="0 0 16 17" fill="none" xmlns="http://www.w3.org/2000/svg">
<g clip-path="url(#clip0_6_546)">
<path d="M7.88342 0.37793C8.09942 0.98393 8.32392 1.48993 8.58142 1.97643L8.54992 1.91143L9.27642 1.58493C9.36642 1.53643 9.47342 1.50793 9.58742 1.50793C9.95542 1.50793 10.2539 1.80643 10.2539 2.17443C10.2539 2.45793 10.0769 2.69993 9.82792 2.79643L9.82342 2.79793L9.21692 3.07143C9.65842 3.73543 10.1144 4.31443 10.6124 4.85443L10.6034 4.84493L11.5634 3.87843C11.6844 3.75743 11.8519 3.68243 12.0369 3.68243C12.4064 3.68243 12.7064 3.98193 12.7064 4.35193C12.7064 4.53693 12.6314 4.70393 12.5104 4.82543L11.5239 5.79193C12.0034 6.23643 12.5259 6.65293 13.0779 7.02893L13.1239 7.05843L13.4104 6.39193C13.5219 6.15243 13.7604 5.98943 14.0369 5.98943C14.4174 5.98943 14.7259 6.29793 14.7259 6.67843C14.7259 6.78243 14.7029 6.88093 14.6619 6.96943L14.6639 6.96543L14.3039 7.75193C14.7769 8.01043 15.3364 8.25843 15.9169 8.46093L15.9974 8.48543C15.9974 8.45193 15.9974 8.41893 15.9974 8.37893C15.9974 3.96043 12.4159 0.37893 7.99742 0.37893L7.88342 0.37793Z" fill="black"/>
<path d="M13.7299 8.95143L13.3764 9.71143C13.2694 9.94493 13.0384 10.1039 12.7699 10.1049C12.6709 10.1044 12.5769 10.0824 12.4924 10.0434L12.4964 10.0449C12.2634 9.93743 12.1049 9.70593 12.1049 9.43743C12.1049 9.33843 12.1264 9.24493 12.1649 9.16043L12.1634 9.16443L12.5699 8.25093C11.8199 7.75893 11.1669 7.24993 10.5579 6.69343L10.5699 6.70443L10.1364 7.13793C10.0164 7.25693 9.85192 7.33043 9.66992 7.33143C9.66892 7.33143 9.66742 7.33143 9.66592 7.33143C9.48292 7.33143 9.31692 7.25743 9.19642 7.13793C9.07642 7.01743 9.00242 6.85143 9.00242 6.66793C9.00242 6.48443 9.07642 6.31843 9.19642 6.19793L9.62292 5.76443C9.04642 5.12943 8.51042 4.43243 8.03442 3.69393L7.99642 3.63093L7.04992 4.05743C6.96992 4.09493 6.87592 4.11693 6.77692 4.11743C6.77192 4.11743 6.76542 4.11743 6.75942 4.11743C6.39142 4.11743 6.09292 3.81893 6.09292 3.45093C6.09292 3.18293 6.25142 2.95143 6.47942 2.84593L6.48342 2.84443L7.32992 2.45793C7.04592 1.91043 6.78342 1.26543 6.57842 0.59493L6.55642 0.51143C3.28492 1.12693 0.745418 3.66643 0.137418 6.88843L0.129418 6.93793C0.883418 7.16443 1.52892 7.42743 2.14242 7.74243L2.07592 7.71143L2.46242 6.86493C2.57642 6.65143 2.79792 6.50893 3.05242 6.50893C3.42042 6.50893 3.71892 6.80743 3.71892 7.17543C3.71892 7.26043 3.70292 7.34143 3.67442 7.41593L3.67592 7.41143L3.24942 8.37793C4.06042 8.90143 4.76592 9.44793 5.42142 10.0484L5.40942 10.0379L5.84292 9.61143C5.95892 9.51193 6.11042 9.45093 6.27642 9.45093C6.64442 9.45093 6.94292 9.74943 6.94292 10.1174C6.94292 10.2834 6.88242 10.4354 6.78192 10.5519L6.78242 10.5509L6.35592 10.9844C6.90892 11.5799 7.41842 12.2334 7.86892 12.9289L7.90292 12.9844L8.80942 12.5779C8.92242 12.4874 9.06692 12.4329 9.22442 12.4329C9.59242 12.4329 9.89092 12.7314 9.89092 13.0994C9.89092 13.4304 9.64942 13.7054 9.33292 13.7574L9.32892 13.7579L8.54242 14.1114C8.86492 14.7149 9.15942 15.4214 9.38592 16.1579L9.40892 16.2449C12.6804 15.6294 15.2199 13.0899 15.8279 9.86793L15.8359 9.81843C15.0199 9.56243 14.3224 9.26843 13.6594 8.91843L13.7289 8.95193L13.7299 8.95143Z" fill="black"/>
<path d="M8.10342 16.3779C7.87842 15.7069 7.63042 15.1389 7.33992 14.5964L7.36992 14.6579L6.58342 15.0444C6.50342 15.0819 6.40942 15.1039 6.31042 15.1044C6.30442 15.1044 6.29792 15.1049 6.29092 15.1049C5.92292 15.1049 5.62442 14.8064 5.62442 14.4384C5.62442 14.1644 5.78992 13.9289 6.02592 13.8264L6.03042 13.8249L6.69692 13.5384C6.29142 12.9404 5.87492 12.4179 5.42242 11.9299L5.43042 11.9384L4.45042 12.8719C4.33242 12.9794 4.17492 13.0454 4.00192 13.0454C4.00042 13.0454 3.99842 13.0454 3.99692 13.0454C3.99592 13.0454 3.99492 13.0454 3.99342 13.0454C3.81042 13.0454 3.64442 12.9714 3.52392 12.8519C3.40192 12.7309 3.32692 12.5634 3.32692 12.3784C3.32692 12.1934 3.40242 12.0259 3.52392 11.9049L4.49042 10.9449C3.95642 10.4639 3.37092 10.0139 2.75142 9.61143L2.69692 9.57843L2.42342 10.1849C2.31642 10.4184 2.08542 10.5774 1.81692 10.5784C1.71792 10.5779 1.62392 10.5559 1.53942 10.5169L1.54342 10.5184C1.31042 10.4109 1.15192 10.1794 1.15192 9.91093C1.15192 9.81193 1.17342 9.71843 1.21192 9.63393L1.21042 9.63793L1.53692 8.91143C1.11592 8.68543 0.609918 8.46043 0.086918 8.27093L0.00341797 8.24443C0.00341797 8.28443 0.00341797 8.31793 0.00341797 8.35793C0.00341797 8.36393 0.00341797 8.37093 0.00341797 8.37793C0.00341797 12.7939 3.58142 16.3739 7.99642 16.3779H8.10342Z" fill="black"/>
</g>
<defs>
<clipPath id="clip0_6_546">
<rect width="16" height="16" fill="white" transform="translate(0 0.37793)"/>
</clipPath>
</defs>
</svg>
