<svg width="16" height="17" viewBox="0 0 16 17" fill="none" xmlns="http://www.w3.org/2000/svg">
<g clip-path="url(#clip0_6_512)">
<path d="M2.82716 8.10154C3.12566 7.61554 3.38566 7.05504 3.57816 6.46454L3.59416 6.40854C3.96066 4.80854 6.14766 1.91504 8.92766 1.91504V3.58154C7.65416 3.58154 6.45416 4.70804 5.79416 5.76154H5.86066C5.86066 5.76154 9.55416 7.22154 9.63416 7.26804H9.66766C10.0082 7.46754 10.2337 7.83154 10.2342 8.24804C10.2347 8.25954 10.2347 8.27304 10.2347 8.28654C10.2347 8.52104 10.1622 8.73854 10.0382 8.91804L10.0407 8.91454C9.99766 8.97704 9.95166 9.03154 9.90067 9.08104C9.80567 9.17704 9.69267 9.25554 9.56767 9.31154L9.56067 9.31454L7.74716 10.1345L12.2937 13.508H13.0802V14.8415H9.12667V13.508H9.48666L5.60666 10.6545C5.40066 10.501 5.26866 10.258 5.26866 9.98404C5.26866 9.95254 5.27066 9.92104 5.27366 9.89054L5.27316 9.89454C5.30916 9.59854 5.49316 9.35254 5.74816 9.23004L5.75316 9.22804L6.33966 8.98804L4.80616 8.32154C4.75366 8.30004 4.71016 8.27754 4.66816 8.25204L4.67266 8.25454C4.39266 8.77454 4.09916 9.23454 4.00616 9.38104C3.85666 9.61404 3.59916 9.76654 3.30616 9.76754H0.00616407V8.10104L2.82716 8.10154Z" fill="black"/>
<path d="M12.5137 12.3215V11.068L10.2737 10.0545C10.7452 9.72704 11.0767 9.22704 11.1787 8.64754L11.1807 8.63454L16.0072 10.828L15.3407 12.3215H12.5137Z" fill="black"/>
<path d="M0.873664 5.91454C0.344164 5.60954 -0.00683594 5.04654 -0.00683594 4.40154C-0.00683594 3.44054 0.772164 2.66154 1.73316 2.66154C2.69416 2.66154 3.47316 3.44054 3.47316 4.40154C3.47316 4.71204 3.39166 5.00404 3.24916 5.25654L3.25366 5.24804C2.95066 5.78504 2.38366 6.14204 1.73316 6.14204C1.41716 6.14204 1.12066 6.05754 0.865164 5.91054L0.873664 5.91454Z" fill="black"/>
</g>
<defs>
<clipPath id="clip0_6_512">
<rect width="16" height="16" fill="white" transform="translate(0 0.37793)"/>
</clipPath>
</defs>
</svg>
