<svg width="17" height="16" viewBox="0 0 17 16" fill="none" xmlns="http://www.w3.org/2000/svg">
<g clip-path="url(#clip0_6_525)">
<path d="M11.1665 0.953492C10.5675 0.771992 9.87951 0.667492 9.16701 0.666992C5.40601 0.687492 2.31601 3.53699 1.91601 7.19449L1.91301 7.22699H0.499512L2.97951 10.7405L5.45301 7.22699H4.15301C4.54001 4.77199 6.63401 2.91449 9.16501 2.90049H9.16651C9.65351 2.90199 10.124 2.96999 10.57 3.09599L10.5335 3.08699C12.6995 3.71099 14.257 5.67499 14.257 8.00299C14.257 9.76899 13.361 11.325 11.9985 12.2425L11.9805 12.254C11.188 12.7655 10.2195 13.07 9.18051 13.07C7.90301 13.07 6.73251 12.6105 5.82601 11.8475L5.83401 11.854L4.39401 13.5275C5.67151 14.635 7.35001 15.31 9.18651 15.31C10.6885 15.31 12.085 14.8585 13.2475 14.084L13.2205 14.101C15.197 12.7665 16.4795 10.535 16.4795 8.00349C16.4795 4.67349 14.2595 1.86149 11.219 0.966992L11.1665 0.953492Z" fill="black"/>
<path d="M7.25351 11.5465H11.4735V9.77299L9.92001 7.99949L11.4735 6.22599V4.45249H7.25351V6.22599L8.84701 7.98599L7.25351 9.77249V11.5465Z" fill="black"/>
</g>
<defs>
<clipPath id="clip0_6_525">
<rect width="16" height="16" fill="white" transform="translate(0.5)"/>
</clipPath>
</defs>
</svg>
