<svg width="16" height="17" viewBox="0 0 16 17" fill="none" xmlns="http://www.w3.org/2000/svg">
<g clip-path="url(#clip0_6_344)">
<path d="M10.2635 9.77084C10.276 9.86434 10.2865 9.95334 10.2965 10.0393C10.3285 10.2668 10.412 10.4703 10.535 10.6438L10.532 10.6393C10.5725 10.7053 10.628 10.6923 10.6765 10.6723C10.7775 10.6273 10.8625 10.5618 10.929 10.4808L10.93 10.4798C11.004 10.3908 11.1145 10.3343 11.2385 10.3343C11.2575 10.3343 11.276 10.3358 11.294 10.3383H11.292C11.299 10.3388 11.3075 10.3393 11.316 10.3393C11.3245 10.3393 11.333 10.3388 11.341 10.3383C11.3665 10.3383 11.388 10.3383 11.3955 10.2878C11.403 10.2373 11.378 10.2373 11.3625 10.2168C11.347 10.1963 11.269 10.2168 11.2715 10.1358C11.274 10.0548 11.335 10.0903 11.3625 10.0548C11.39 10.0193 11.4055 10.0143 11.393 9.98384C11.387 9.96284 11.383 9.93884 11.383 9.91434C11.383 9.86534 11.397 9.81934 11.4215 9.78034L11.421 9.78134C11.459 9.69784 11.436 9.64484 11.3525 9.59884C11.38 9.57284 11.3975 9.53634 11.3975 9.49534C11.3975 9.47684 11.394 9.45934 11.3875 9.44334L11.388 9.44434C11.3675 9.39384 11.335 9.37084 11.292 9.38084C11.2605 9.38334 11.236 9.40984 11.236 9.44134C11.236 9.44234 11.236 9.44334 11.236 9.44434C11.236 9.51284 11.1855 9.52784 11.15 9.55084C11.1145 9.57384 11.0995 9.57384 11.079 9.55084C11.07 9.53534 11.0645 9.51634 11.0645 9.49634C11.0645 9.47634 11.07 9.45734 11.0795 9.44134C11.09 9.41184 11.096 9.37884 11.0965 9.34334C11.0975 9.33784 11.098 9.33084 11.098 9.32434C11.098 9.28784 11.0805 9.25484 11.0535 9.23434C11.0155 9.21384 11.0075 9.26734 10.995 9.30034C10.943 9.41734 10.9 9.55384 10.873 9.69584L10.871 9.70784C10.871 9.76584 10.833 9.76584 10.7975 9.77634C10.8015 9.71234 10.804 9.63734 10.804 9.56184C10.804 9.34984 10.785 9.14184 10.7485 8.93984L10.7515 8.96084C10.7515 8.93034 10.7515 8.91284 10.769 8.91034C10.7865 8.90784 10.812 8.87234 10.8045 8.82184C10.7895 8.69034 10.7715 8.56884 10.7465 8.43184C10.7465 8.41134 10.7235 8.37884 10.7465 8.36334C10.7695 8.34784 10.782 8.36334 10.7945 8.39134C10.8095 8.43134 10.833 8.46534 10.8625 8.49234C10.8935 8.52634 10.938 8.54734 10.9875 8.54734C11.049 8.54734 11.103 8.51434 11.133 8.46534L11.1335 8.46434C11.151 8.44384 11.159 8.46434 11.1715 8.46434C11.255 8.50734 11.2705 8.49734 11.298 8.37084C11.326 8.40384 11.351 8.43934 11.3765 8.46684C11.402 8.49434 11.422 8.51984 11.455 8.49734C11.4775 8.47534 11.491 8.44484 11.491 8.41084C11.491 8.40084 11.49 8.39134 11.4875 8.38234V8.38334C11.4725 8.29234 11.4875 8.28484 11.556 8.27684C11.615 8.26334 11.6825 8.25584 11.752 8.25584C11.919 8.25584 12.076 8.30034 12.211 8.37834L12.2065 8.37584C12.359 8.48384 12.492 8.59034 12.6185 8.70384L12.6145 8.70034C12.8335 8.90534 13.116 9.04534 13.43 9.08684L13.4375 9.08784C13.4545 9.08934 13.475 9.08984 13.495 9.08984C13.7695 9.08984 14.013 8.95534 14.1625 8.74834L14.164 8.74584C14.304 8.53584 14.39 8.27934 14.397 8.00334V8.00134C14.458 7.40384 14.174 7.07984 13.8195 7.01384C13.3665 6.92534 12.9635 7.11534 12.5915 7.47234C12.4035 7.68284 12.1595 7.83984 11.883 7.92034L11.8725 7.92284C11.7005 7.95334 11.5255 7.96334 11.351 7.98084C11.346 7.98284 11.3405 7.98434 11.3345 7.98434C11.3285 7.98434 11.323 7.98284 11.318 7.98084C11.1915 7.81634 11.0295 7.84134 10.88 7.79834C10.508 7.69434 10.143 7.82134 9.77846 7.87184C9.76596 7.87184 9.76096 7.87184 9.75046 7.85184L10.257 7.61884L10.5305 7.47934C10.576 7.46184 10.571 7.43884 10.5305 7.40084C10.497 7.35684 10.459 7.31934 10.4155 7.28784L10.414 7.28684C10.3535 7.24184 10.284 7.19584 10.2125 7.15334L10.2015 7.14734C10.108 7.08934 10.1 7.07884 10.1355 6.93984C10.148 6.83884 10.196 6.75034 10.267 6.68684C10.357 6.58784 10.4155 6.45834 10.4245 6.31584V6.31384C10.351 6.14184 10.455 6.03034 10.493 5.89584C10.503 5.84084 10.509 5.77784 10.509 5.71384C10.509 5.59784 10.49 5.48634 10.4555 5.38234L10.4575 5.38984C10.4575 5.37734 10.4575 5.36684 10.4575 5.35684C10.4575 5.34684 10.4725 5.34184 10.4805 5.34184C11.711 5.34184 12.944 5.34184 14.175 5.34184C14.1825 5.34184 14.1915 5.34184 14.2005 5.34184C14.5805 5.34184 14.9305 5.47034 15.2095 5.68684L15.2055 5.68384C15.605 6.01684 15.86 6.51084 15.8715 7.06434V7.06634C15.8875 7.21934 15.897 7.39684 15.897 7.57634C15.897 8.42284 15.692 9.22184 15.329 9.92584L15.3425 9.89734C15.1155 10.3543 14.7105 10.6943 14.2205 10.8288L14.208 10.8318C13.999 10.8933 13.7585 10.9283 13.51 10.9283C13.4935 10.9283 13.4775 10.9283 13.4615 10.9278H13.464C13.016 10.9278 12.57 10.9278 12.122 10.9278C12.0665 10.9278 12.041 10.9278 12.031 11.0318C11.973 11.4698 11.907 11.9053 11.8485 12.3433C11.8485 12.4293 11.813 12.4523 11.755 12.4523C11.3245 12.4523 10.8965 12.4523 10.4685 12.4523C10.357 12.4523 10.266 12.3028 10.291 12.1483C10.3 12.1113 10.3055 12.0693 10.3055 12.0258C10.3055 11.9098 10.2675 11.8028 10.204 11.7163L10.205 11.7178C10.1325 11.5843 10.088 11.4263 10.0835 11.2583V11.2568C10.0835 11.1578 10.0455 11.1203 9.97446 11.1253C9.43696 11.1263 8.94296 11.3113 8.55146 11.6203L8.55646 11.6168L8.51846 11.6423C8.50096 11.6548 8.48296 11.6653 8.46796 11.6423C8.46196 11.6318 8.45846 11.6188 8.45846 11.6058C8.45846 11.5928 8.46196 11.5798 8.46796 11.5688C8.50796 11.4978 8.55796 11.4383 8.61646 11.3878L8.61746 11.3868C8.93446 11.0943 9.31246 10.8618 9.72896 10.7103L9.75196 10.7028C10.1265 10.5663 10.208 10.4318 10.243 9.87484C10.243 9.83684 10.233 9.80134 10.2635 9.77084Z" fill="black"/>
<path d="M5.72096 12.1408C5.40196 9.90251 5.08129 7.66334 4.75896 5.42334C4.75896 5.35234 4.72846 5.33984 4.68546 5.33984C4.20446 5.33984 3.72329 5.33984 3.24196 5.33984C3.19646 5.33984 3.17096 5.36534 3.14846 5.41834L1.79646 8.44184C1.78096 8.46634 1.77046 8.49584 1.76596 8.52684L3.61446 8.52784C3.54846 8.48134 3.47196 8.43484 3.39296 8.39384L3.38146 8.38834C3.36646 8.38834 3.33096 8.38834 3.35346 8.33284C3.43446 8.13284 3.51796 7.93284 3.60646 7.72284L3.88246 9.59384C3.88246 9.66484 3.86746 9.66734 3.82946 9.67734L2.00896 10.1508C1.10496 10.3863 0.800961 10.5508 -0.102539 10.7888L0.674961 10.9408C0.449461 11.4473 0.226961 11.9538 0.00146094 12.4598H1.59396C1.63946 12.4598 1.65496 12.4268 1.67496 12.3838C1.86229 11.9265 2.05129 11.4682 2.24196 11.0088C2.26196 10.9558 2.28496 10.9303 2.32796 10.9303H4.00946C4.05246 10.9303 4.07046 10.9303 4.08046 11.0088C4.14396 11.4618 4.21196 11.9128 4.27296 12.3658C4.27296 12.4418 4.30346 12.4568 4.35146 12.4568H5.72146C5.74146 12.4568 5.76446 12.4568 5.78496 12.4568C5.75696 12.3453 5.74396 12.2423 5.72096 12.1408Z" fill="black"/>
<path d="M8.32396 10.0543C8.77446 9.71234 9.22546 9.45434 9.74446 9.46184C9.72396 9.50884 9.68196 9.54334 9.63146 9.55284H9.63046C9.28196 9.69834 8.98196 9.88884 8.72096 10.1228L8.72396 10.1203C8.67546 10.1538 8.63746 10.1993 8.61346 10.2523L8.61246 10.2543C8.78846 10.1508 8.99846 10.0863 9.22246 10.0773H9.22496C9.20746 10.1353 9.17446 10.1328 9.14646 10.1458C8.78346 10.3288 8.47346 10.5583 8.20796 10.8313L8.20696 10.8323C8.10296 10.9183 8.03746 11.0473 8.03746 11.1918C8.03746 11.1933 8.03746 11.1953 8.03746 11.1973C8.03746 11.1983 8.03746 11.1988 8.03746 11.1998C8.03746 11.2288 8.01846 11.2538 7.99246 11.2623C7.95896 11.2798 7.92996 11.3018 7.90596 11.3278C7.85046 11.3988 7.85046 11.4443 7.90596 11.5053C7.96146 11.5663 7.99946 11.6623 7.90596 11.7583C7.82796 11.8373 7.77946 11.9463 7.77946 12.0658C7.77946 12.0983 7.78296 12.1303 7.78996 12.1608L7.78946 12.1578C7.79246 12.1753 7.79446 12.1953 7.79446 12.2158C7.79446 12.2783 7.77746 12.3368 7.74796 12.3873L7.74896 12.3858C7.72546 12.4368 7.67446 12.4718 7.61546 12.4718C7.19496 12.4718 6.77196 12.4718 6.34896 12.4718C6.29096 12.4718 6.27796 12.4513 6.29096 12.3703C6.43596 11.3577 6.57946 10.3525 6.72146 9.35484C6.73396 9.28134 6.72146 9.25584 6.66846 9.25584C6.31146 9.25584 5.95196 9.25584 5.59496 9.25584C5.59096 9.25634 5.58646 9.25634 5.58196 9.25634C5.55496 9.25634 5.52946 9.24884 5.50796 9.23534L8.11646 8.55234V8.53484H6.84796C6.89846 8.17784 6.94946 7.82834 6.99746 7.47884C7.01796 7.38284 7.03146 7.27034 7.03546 7.15534V7.15184H6.80996C6.30346 7.15184 5.81246 7.15184 5.31346 7.15184C5.26296 7.15184 5.24496 7.12884 5.23496 7.05834C5.15896 6.52001 5.08129 5.98151 5.00196 5.44284C5.00196 5.38484 4.98196 5.34434 5.04746 5.34434H9.53446C9.53146 5.38634 9.52096 5.42534 9.50346 5.45984L9.50446 5.45834C9.49896 5.47434 9.49596 5.49234 9.49596 5.51134C9.49596 5.53034 9.49896 5.54884 9.50446 5.56584L9.50396 5.56484C9.51246 5.60234 9.51696 5.64534 9.51696 5.68984C9.51696 5.77534 9.49896 5.85734 9.46696 5.93084L9.46846 5.92684C9.46296 5.95034 9.45996 5.97734 9.45996 6.00534C9.45996 6.03334 9.46296 6.06034 9.46896 6.08634L9.46846 6.08384C9.47696 6.10734 9.48196 6.13434 9.48196 6.16234C9.48196 6.19034 9.47696 6.21734 9.46796 6.24234L9.46846 6.24084C9.42846 6.34084 9.40546 6.45734 9.40546 6.57884C9.40546 6.65134 9.41346 6.72184 9.42896 6.78934L9.42796 6.78284C9.44846 6.93234 9.44546 6.92984 9.34696 6.97784C9.27296 7.00884 9.18746 7.03134 9.09796 7.04084L9.09396 7.04134C8.75796 7.09034 8.48996 7.33434 8.40646 7.65334L8.40496 7.65934C8.39196 7.71634 8.38446 7.78184 8.38446 7.84884C8.38446 8.00284 8.42396 8.14784 8.49346 8.27434L8.49096 8.26984C8.61746 8.42684 8.74396 8.58134 8.87096 8.74084C8.88346 8.75984 8.90446 8.77234 8.92846 8.77234C8.93296 8.77234 8.93746 8.77184 8.94196 8.77084L9.92646 8.55584C9.94146 8.55234 9.95896 8.55034 9.97696 8.55034C9.99496 8.55034 10.0125 8.55234 10.029 8.55634L10.0275 8.55584C10.015 8.58384 9.99196 8.58634 9.97446 8.59384L8.90846 9.12284C8.88946 9.13434 8.86596 9.14084 8.84146 9.14084C8.81696 9.14084 8.79346 9.13434 8.77396 9.12234C8.69546 9.08184 8.61496 9.05434 8.53896 9.01384C8.46296 8.97334 8.48096 9.01384 8.48346 9.05934C8.45546 9.24584 8.43746 9.46484 8.43296 9.68684V9.69234C8.42346 9.82684 8.38446 9.95034 8.32196 10.0583L8.32396 10.0543Z" fill="black"/>
<path d="M12.6235 7.87184C12.595 7.99634 12.576 8.14184 12.5705 8.29034V8.29484C12.5705 8.34284 12.54 8.37334 12.502 8.34534C12.3965 8.26784 12.2765 8.19984 12.149 8.14684L12.1375 8.14284C12.1195 8.13934 12.106 8.12384 12.106 8.10534C12.106 8.10234 12.1065 8.09984 12.107 8.09684C12.107 8.06634 12.1195 8.05434 12.1375 8.04934C12.299 7.97884 12.438 7.89384 12.564 7.79334L12.56 7.79634C12.608 7.75584 12.621 7.80334 12.6235 7.87184Z" fill="black"/>
</g>
<defs>
<clipPath id="clip0_6_344">
<rect width="16" height="16" fill="white" transform="translate(0 0.37793)"/>
</clipPath>
</defs>
</svg>
