<svg width="16" height="17" viewBox="0 0 16 17" fill="none" xmlns="http://www.w3.org/2000/svg">
<g clip-path="url(#clip0_6_538)">
<path d="M13.3169 7.71191C12.9069 7.71541 12.5199 7.81091 12.1744 7.97891L12.1904 7.97191L11.5239 7.18541C12.0389 6.88691 12.6569 6.71041 13.3164 6.71041C13.7969 6.71041 14.2554 6.80391 14.6749 6.97391L14.6504 6.96541C14.6059 5.15941 13.1309 3.71191 11.3179 3.71191H8.65039L9.98389 5.04541H3.98389L2.65039 4.37891H-0.0161133L3.45739 7.85241C3.21739 7.76641 2.94039 7.71541 2.65189 7.71241H2.65039C1.17739 7.71241 -0.0161133 8.90641 -0.0161133 10.3789C-0.0161133 11.8514 1.17789 13.0454 2.65039 13.0454C4.12339 13.0454 5.31689 11.8514 5.31689 10.3789C5.31489 10.0894 5.26339 9.81241 5.17139 9.55491L5.17689 9.57241L6.65039 11.0459L9.87689 11.6124C9.74189 11.2474 9.66389 10.8259 9.66389 10.3859C9.66389 9.49541 9.98389 8.67941 10.5149 8.04691L10.5104 8.05241L11.1769 8.83241C10.8679 9.26191 10.6829 9.79891 10.6829 10.3789C10.6829 11.8519 11.8769 13.0454 13.3494 13.0454C14.8219 13.0454 16.0159 11.8514 16.0159 10.3789C16.0159 8.90591 14.8219 7.71241 13.3494 7.71241C13.3379 7.71241 13.3264 7.71241 13.3154 7.71241L13.3169 7.71191ZM2.65039 11.7119C1.91389 11.7119 1.31689 11.1149 1.31689 10.3784C1.31689 9.64191 1.91389 9.04491 2.65039 9.04491C3.38689 9.04491 3.98389 9.64191 3.98389 10.3784C3.98389 11.1149 3.38689 11.7119 2.65039 11.7119ZM13.3169 11.7119C12.5804 11.7119 11.9834 11.1149 11.9834 10.3784C11.9834 9.64191 12.5804 9.04491 13.3169 9.04491C14.0534 9.04491 14.6504 9.64191 14.6504 10.3784C14.6504 11.1149 14.0534 11.7119 13.3169 11.7119Z" fill="black"/>
</g>
<defs>
<clipPath id="clip0_6_538">
<rect width="16" height="16" fill="white" transform="translate(0 0.37793)"/>
</clipPath>
</defs>
</svg>
