<svg width="17" height="16" viewBox="0 0 17 16" fill="none" xmlns="http://www.w3.org/2000/svg">
<g clip-path="url(#clip0_872_562)">
<path fill-rule="evenodd" clip-rule="evenodd" d="M12.6352 3.73553C10.8759 1.72387 7.87204 1.29066 5.48336 2.81083L4.51694 1.29226C7.62825 -0.687791 11.6244 -0.154413 13.9901 2.55055C16.3854 5.2894 16.8977 9.96012 13.7981 15.901L12.2022 15.0683C15.1026 9.50924 14.3649 5.71331 12.6352 3.73553Z" fill="black"/>
<path fill-rule="evenodd" clip-rule="evenodd" d="M2.05042 4.61735C2.3323 3.82294 2.73338 3.0295 3.36377 2.39911L4.63656 3.6719C4.26695 4.04151 3.98053 4.56057 3.74679 5.21929C3.51283 5.87862 3.35139 6.6185 3.19519 7.39951C3.17365 7.5072 3.15213 7.6162 3.13044 7.726C3 8.38655 2.86378 9.07632 2.68391 9.68789C2.47678 10.3921 2.17487 11.1336 1.63656 11.6719L0.36377 10.3991C0.575458 10.1874 0.773551 9.80389 0.957049 9.17999C1.11177 8.65393 1.2299 8.05704 1.36187 7.39026C1.38415 7.27766 1.40683 7.16308 1.43014 7.0465C1.58644 6.26501 1.76875 5.41114 2.05042 4.61735Z" fill="black"/>
<path fill-rule="evenodd" clip-rule="evenodd" d="M5.3626 10.8484C5.03229 11.9555 4.54903 13.122 3.68472 14.1346L2.31561 12.966C2.9513 12.2213 3.34303 11.3216 3.63773 10.3338C3.78499 9.84015 3.90457 9.33713 4.02116 8.82627C4.04041 8.74193 4.05966 8.65699 4.07898 8.57171C4.17458 8.14989 4.27206 7.7197 4.38061 7.31309C4.63605 6.35627 4.99769 5.33446 5.74853 4.60615C6.55232 3.82647 7.65582 3.51235 9.08972 3.65575C10.6891 3.8157 11.8329 4.77617 12.3899 6.07612C12.9345 7.3471 12.9105 8.9038 12.3381 10.364L10.6623 9.70707C11.0898 8.61647 11.0658 7.55604 10.7354 6.7851C10.4175 6.04312 9.8112 5.53688 8.91061 5.44681C7.8445 5.3402 7.323 5.5866 7.00179 5.89817C6.62763 6.26111 6.36427 6.86128 6.11971 7.77737C6.02082 8.1478 5.93238 8.53785 5.83685 8.95916C5.81694 9.04697 5.79672 9.13614 5.77604 9.22677C5.65826 9.74285 5.52783 10.2945 5.3626 10.8484Z" fill="black"/>
<path fill-rule="evenodd" clip-rule="evenodd" d="M6.54961 11.7415C7.154 10.3495 7.60015 8.85653 7.60015 7.53552H9.40015C9.40015 9.21451 8.8463 10.9715 8.20069 12.4584C7.54939 13.9585 6.77121 15.2589 6.25137 16.0468L4.74893 15.0555C5.22909 14.3278 5.95092 13.1204 6.54961 11.7415Z" fill="black"/>
<path fill-rule="evenodd" clip-rule="evenodd" d="M8.48474 15.0621C9.07625 14.1058 9.64837 12.6276 10.1503 11.1884L11.8499 11.7811C11.3519 13.2091 10.724 14.8636 10.0155 16.009L8.48474 15.0621Z" fill="black"/>
</g>
<defs>
<clipPath id="clip0_872_562">
<rect width="16" height="16" fill="white" transform="translate(0.5)"/>
</clipPath>
</defs>
</svg>
