<svg width="16" height="17" viewBox="0 0 16 17" fill="none" xmlns="http://www.w3.org/2000/svg">
<g clip-path="url(#clip0_6_579)">
<path d="M10 8.46132C9.988 8.46082 9.9745 8.46082 9.9605 8.46082C8.9185 8.46082 8.074 9.30532 8.074 10.3473C8.074 11.3893 8.9185 12.2338 9.9605 12.2338C10.9905 12.2338 11.828 11.4083 11.847 10.3828V10.3808C11.847 10.3708 11.8475 10.3588 11.8475 10.3473C11.8475 9.31932 11.0255 8.48332 10.0025 8.46132H10Z" fill="black"/>
<path d="M11.9135 1.15432V0.34082L8.4735 2.33432L11.9135 4.32082V3.50732H13.64V13.1938H11.82V15.5538H16V1.15382L11.9135 1.15432Z" fill="black"/>
<path d="M4.0865 13.2478H2.36V3.50782H4.1935V1.15432H0V15.6078H4.0865V16.4143L7.5265 14.4278L4.0865 12.4413V13.2478Z" fill="black"/>
<path d="M6.0335 4.53432C4.9915 4.53432 4.147 5.37882 4.147 6.42082C4.147 7.46282 4.9915 8.30732 6.0335 8.30732C7.0755 8.30732 7.92 7.46282 7.92 6.42082C7.92 6.41832 7.92 6.41632 7.92 6.41382C7.92 5.37532 7.0785 4.53432 6.04 4.53432C6.0375 4.53432 6.036 4.53432 6.0335 4.53432Z" fill="black"/>
</g>
<defs>
<clipPath id="clip0_6_579">
<rect width="16" height="16" fill="white" transform="translate(0 0.37793)"/>
</clipPath>
</defs>
</svg>
