<svg width="16" height="16" viewBox="0 0 16 16" fill="none" xmlns="http://www.w3.org/2000/svg">
<g clip-path="url(#clip0_6_551)">
<path d="M11.0134 4.17395H11.4199V4.28045H11.0134V4.17395Z" fill="black"/>
<path d="M15.6399 1.74695C7.01994 -2.12655 0.346436 1.74695 0.346436 1.74695C0.832936 15.5534 7.99294 15.9804 7.99294 15.9804C16.3464 13.9204 15.6399 1.74695 15.6399 1.74695ZM7.14644 10.4004H6.59994L5.97994 10.0804L6.05344 8.73395L5.53994 7.95395H5.09994L4.87994 8.73395L4.56644 9.16045L4.21294 10.7804V11.4404L4.07944 11.6939L3.66594 11.8274L3.49244 11.6209L3.73894 10.5009L3.67894 9.02745L3.76544 8.51395L4.21894 7.10045L4.03894 6.95395L4.02544 6.43395L4.21894 6.22745L4.11244 5.98095L4.13894 5.30095L3.43244 5.26745L3.39894 4.38095H2.45894V4.54095H2.31244V4.38095H1.26594V4.24745H0.879436V4.06745H1.17294V3.59395H1.37944L1.64594 4.06745H2.26594V3.86095H2.42594V3.71445H4.91944V3.49445L4.67294 3.02095V2.70745L4.75944 2.36745L5.11294 2.05395H5.62644L5.87994 2.36745V2.95395L5.79344 3.20745V3.59395L6.21994 3.75395L6.70644 4.30045L6.93994 4.77395V5.39395L6.70644 5.94045L6.24644 5.80695L6.13994 6.04045V6.33395L6.27344 6.94045L6.50694 7.80695L6.82044 8.56045L6.71394 9.04695V9.78695L7.16744 10.1669V10.4134L7.14644 10.4004ZM15.1334 4.79395H13.3869L13.1069 5.21395L12.7534 5.28045L11.2599 6.11395L10.5799 5.86745L10.4399 6.50745L10.1864 7.24095L10.2864 7.74095L10.8729 8.77445V9.79445L10.7129 10.3609L11.3729 10.8744V11.1209H10.6464L10.0664 10.8074V9.20095L9.56643 8.60745H9.35293L8.93944 9.80745L8.20594 10.8009L8.17244 11.4009L7.82594 11.9274H7.40594V11.4209L7.62594 11.1074L7.79944 10.5139L8.06594 9.76045V7.87395L8.21944 6.50745L8.41944 5.03395L8.87294 4.42045L9.33294 4.26045V3.76045L9.92644 3.28695H10.5529L11.0194 3.96695H12.1794L12.5929 3.84045H13.3794V4.16045H12.2729V4.26695H14.4864V4.56045H15.1264V4.78695L15.1334 4.79395Z" fill="black"/>
</g>
<defs>
<clipPath id="clip0_6_551">
<rect width="16" height="16" fill="white"/>
</clipPath>
</defs>
</svg>
