<svg width="16" height="16" viewBox="0 0 16 16" fill="none" xmlns="http://www.w3.org/2000/svg">
<g clip-path="url(#clip0_6_452)">
<path d="M4.88015 1.06469C5.40015 2.94469 5.91932 4.82635 6.43765 6.70969C6.56765 7.18469 6.68765 7.66219 6.83765 8.12969C6.86365 8.18669 6.87865 8.25369 6.87865 8.32419C6.87865 8.47269 6.81165 8.60569 6.70615 8.69419L6.70515 8.69469C6.23515 9.16469 5.79015 9.65969 5.29015 10.1947C5.16265 9.98969 5.08765 9.87469 5.01765 9.75469C3.42765 6.99969 1.83849 4.24802 0.250152 1.49969C0.163652 1.36519 0.0816523 1.25119 -0.00634766 1.14119L0.000152344 1.14969C0.0816523 1.11369 0.175652 1.08669 0.274652 1.07269L0.280152 1.07219C1.81265 1.06219 3.34765 1.06469 4.88015 1.06469Z" fill="black"/>
<path d="M16.0002 1.14469C15.8302 1.40969 15.6527 1.67219 15.5002 1.94219C14.9377 2.90719 14.3727 3.87219 13.8227 4.84469C13.7732 4.98319 13.6427 5.08019 13.4902 5.08019C13.4407 5.08019 13.3932 5.06969 13.3502 5.05119L13.3527 5.05219C11.0002 4.40469 8.64765 3.77469 6.30515 3.12219C6.14565 3.05069 6.02515 2.91769 5.97115 2.75419L5.97015 2.74969C5.79765 2.19219 5.66515 1.61969 5.52015 1.05469C8.90849 1.05469 12.2952 1.05469 15.6802 1.05469C15.8002 1.07319 15.9077 1.10469 16.0092 1.14819L16.0002 1.14469Z" fill="black"/>
<path d="M8.04765 14.9372C7.25015 13.5422 6.48265 12.2072 5.72765 10.8622C5.71565 10.8277 5.70865 10.7882 5.70865 10.7467C5.70865 10.6657 5.73565 10.5912 5.78115 10.5312L5.78065 10.5322C7.52065 8.74886 9.27065 6.97302 11.0307 5.20469C11.1002 5.13719 11.1952 5.09569 11.3002 5.09569C11.3117 5.09569 11.3232 5.09619 11.3347 5.09719H11.3332C12.0032 5.26219 12.6682 5.44969 13.3707 5.64219L8.04765 14.9372Z" fill="black"/>
<path d="M7.37265 7.62969L6.32265 3.81969L10.2902 4.84719L7.37265 7.62969Z" fill="black"/>
</g>
<defs>
<clipPath id="clip0_6_452">
<rect width="16" height="16" fill="white"/>
</clipPath>
</defs>
</svg>
