<svg width="16" height="17" viewBox="0 0 16 17" fill="none" xmlns="http://www.w3.org/2000/svg">
<g clip-path="url(#clip0_6_385)">
<path d="M5.40883 9.39793C6.11133 8.98693 6.57583 8.23643 6.57583 7.37693C6.57583 6.08843 5.53133 5.04343 4.24233 5.04343C2.95333 5.04343 1.90883 6.08793 1.90883 7.37693C1.90883 7.80693 2.02533 8.20943 2.22783 8.55543L2.22183 8.54443C2.63283 9.24643 3.38333 9.71043 4.24183 9.71043C4.67133 9.71043 5.07383 9.59443 5.41933 9.39193L5.40883 9.39793Z" fill="black"/>
<path d="M14.5753 0.37793L6.48183 9.63143C5.69233 10.5289 4.64833 11.1854 3.46333 11.4889L3.42183 11.4979L1.10183 12.0779C0.516332 12.2269 0.090332 12.7499 0.090332 13.3719C0.090332 13.4494 0.096832 13.5254 0.109832 13.5994L0.108832 13.5914L0.202332 14.1514C0.420832 15.4229 1.51483 16.3784 2.83233 16.3784C2.84533 16.3784 2.85783 16.3784 2.87083 16.3779H2.86883H4.93533C5.54033 16.3769 6.05083 15.9734 6.21283 15.4209L6.21533 15.4114L6.78883 13.4114C7.13583 12.2249 7.66983 11.1919 8.36533 10.2894L8.34883 10.3114L15.9088 0.37793H14.5753Z" fill="black"/>
</g>
<defs>
<clipPath id="clip0_6_385">
<rect width="16" height="16" fill="white" transform="translate(0 0.37793)"/>
</clipPath>
</defs>
</svg>
