<svg width="17" height="16" viewBox="0 0 17 16" fill="none" xmlns="http://www.w3.org/2000/svg">
<g clip-path="url(#clip0_6_351)">
<path d="M9.21355 0.713867C5.46955 0.735367 2.39155 3.55937 1.97005 7.19287L1.96705 7.22687H0.560547L3.02705 10.7269L5.50055 7.22687H4.20055C4.59405 4.78637 6.68505 2.94537 9.20605 2.94537C12.004 2.94537 14.2725 5.21387 14.2725 8.01187C14.2725 10.8099 12.004 13.0784 9.20605 13.0784C7.93355 13.0784 6.77105 12.6094 5.88105 11.8349L5.88705 11.8399L4.44055 13.5064C5.71155 14.6124 7.38305 15.2864 9.21255 15.2864C13.237 15.2864 16.499 12.0239 16.499 7.99987C16.499 3.97587 13.2375 0.714367 9.21355 0.713867Z" fill="black"/>
<path d="M8.10655 4.90687V8.46037L10.78 11.1339L12.3465 9.56737L10.32 7.54087V4.90737L8.10655 4.90687Z" fill="black"/>
</g>
<defs>
<clipPath id="clip0_6_351">
<rect width="16" height="16" fill="white" transform="translate(0.5)"/>
</clipPath>
</defs>
</svg>
