<svg width="16" height="17" viewBox="0 0 16 17" fill="none" xmlns="http://www.w3.org/2000/svg">
<g clip-path="url(#clip0_6_503)">
<path d="M10.418 3.37538C9.93698 3.09188 9.61898 2.57638 9.61898 1.98638C9.61898 1.09888 10.3385 0.379883 11.2255 0.379883C12.1125 0.379883 12.832 1.09938 12.832 1.98638C12.832 2.28188 12.7525 2.55838 12.6135 2.79588L12.6175 2.78838C12.3365 3.27388 11.82 3.59538 11.228 3.59538C10.929 3.59538 10.6495 3.51338 10.4105 3.37088L10.418 3.37538Z" fill="black"/>
<path d="M3.99798 13.5089L5.74448 6.84238L6.88448 4.84238C6.73698 4.83088 6.56498 4.82438 6.39098 4.82438C6.21698 4.82438 6.04548 4.83088 5.87498 4.84388L5.89748 4.84238C5.84548 4.84088 5.78498 4.83988 5.72398 4.83988C4.61348 4.83988 3.57848 5.16388 2.70898 5.72238L2.73098 5.70888L1.63748 4.44888C2.66398 3.56888 4.48398 3.20888 5.83748 3.17538C5.89998 3.17388 5.97348 3.17288 6.04748 3.17288C6.80448 3.17288 7.53848 3.27088 8.23698 3.45538L8.17748 3.44188C8.35798 3.37388 8.56648 3.33488 8.78398 3.33488C9.10748 3.33488 9.41098 3.42138 9.67248 3.57288L9.66398 3.56838H9.72398C10.266 3.87688 10.6255 4.45088 10.6255 5.10838C10.6255 5.43238 10.5385 5.73538 10.3865 5.99638L10.391 5.98788L9.01098 8.37438L9.51098 9.62088L9.21748 10.7274L11.9975 9.28738C12.3705 9.08238 12.619 8.69238 12.619 8.24388C12.619 8.04788 12.5715 7.86338 12.4875 7.70088L12.4905 7.70738L14.0905 6.84738C14.3075 7.25088 14.435 7.73038 14.435 8.23988C14.435 9.38388 13.7915 10.3779 12.8465 10.8794L12.8305 10.8874L11.997 11.3409L11.6105 11.5409L6.61698 14.1674L5.36348 14.8339L2.40348 16.3739L1.56348 14.7739L3.99798 13.5089ZM7.19798 11.8089L7.73798 9.76238L7.39148 8.89588L6.93798 8.80238L5.99798 12.4559L7.19798 11.8089Z" fill="black"/>
</g>
<defs>
<clipPath id="clip0_6_503">
<rect width="16" height="16" fill="white" transform="translate(0 0.37793)"/>
</clipPath>
</defs>
</svg>
