<svg width="16" height="17" viewBox="0 0 16 17" fill="none" xmlns="http://www.w3.org/2000/svg">
<g clip-path="url(#clip0_6_394)">
<path d="M3.8125 14.8779H12.3125V16.3779H3.8125V14.8779Z" fill="black"/>
<path d="M0 2.12793V13.6279H16V2.12793H0ZM7.625 10.8779C7.625 11.4304 7.1775 11.8779 6.625 11.8779H2.625C2.0725 11.8779 1.625 11.4304 1.625 10.8779V4.87793C1.625 4.32543 2.0725 3.87793 2.625 3.87793H6.625C7.1775 3.87793 7.625 4.32543 7.625 4.87793V10.8779ZM14.375 10.8779C14.375 11.4304 13.9275 11.8779 13.375 11.8779H9.375C8.8225 11.8779 8.375 11.4304 8.375 10.8779V4.87793C8.375 4.32543 8.8225 3.87793 9.375 3.87793H13.375C13.9275 3.87793 14.375 4.32543 14.375 4.87793V10.8779Z" fill="black"/>
<path d="M4.625 5.37793C3.465 5.37793 2.805 6.31043 2.805 7.87793C2.805 9.44543 3.465 10.3779 4.625 10.3779C5.785 10.3779 6.445 9.44543 6.445 7.87793C6.445 6.31043 5.7825 5.37793 4.625 5.37793ZM4.625 9.32293C4.19 9.32293 3.95 8.80543 3.95 7.86543C3.95 6.92543 4.2 6.40793 4.625 6.40793C5.05 6.40793 5.3 6.93543 5.3 7.86543C5.3 8.79543 5.0575 9.32293 4.625 9.32293Z" fill="black"/>
<path d="M11.375 5.37793C10.215 5.37793 9.555 6.31043 9.555 7.87793C9.555 9.44543 10.215 10.3779 11.375 10.3779C12.535 10.3779 13.195 9.44543 13.195 7.87793C13.195 6.31043 12.5325 5.37793 11.375 5.37793ZM11.375 9.32293C10.94 9.32293 10.7 8.80543 10.7 7.86543C10.7 6.92543 10.95 6.40793 11.375 6.40793C11.8 6.40793 12.05 6.93543 12.05 7.86543C12.05 8.79543 11.8075 9.32293 11.375 9.32293Z" fill="black"/>
</g>
<defs>
<clipPath id="clip0_6_394">
<rect width="16" height="16" fill="white" transform="translate(0 0.37793)"/>
</clipPath>
</defs>
</svg>
