<svg width="16" height="16" viewBox="0 0 16 16" fill="none" xmlns="http://www.w3.org/2000/svg">
<g clip-path="url(#clip0_6_550)">
<path d="M16.0002 8.96737C15.9052 9.39737 15.8427 9.83737 15.7077 10.2549C14.6602 13.4324 12.5002 15.3399 9.19016 15.9174C8.81616 15.9834 8.38516 16.0209 7.94566 16.0209C6.94116 16.0209 5.98316 15.8239 5.10716 15.4664L5.15716 15.4844C5.08966 15.4594 5.02466 15.4269 4.90716 15.3744C7.13966 15.0194 8.94466 14.0169 10.2847 12.2494C11.6247 10.4819 12.1072 8.47937 11.8472 6.26187C11.9297 6.30937 11.9922 6.34437 12.0547 6.38437L15.8772 8.81937C15.9172 8.84437 15.9597 8.86437 15.9997 8.88437L16.0002 8.96737ZM12.4077 10.2624C12.8602 10.4549 12.7777 10.0324 12.9327 9.88237C13.1147 10.0719 13.2352 10.3209 13.2622 10.5974L13.2627 10.6024C13.3332 10.9349 13.6222 11.1814 13.9697 11.1849C14.0572 11.1619 14.1292 11.1059 14.1717 11.0314L14.1727 11.0299C14.1762 11.0154 14.1787 10.9994 14.1787 10.9824C14.1787 10.9289 14.1572 10.8804 14.1227 10.8449C14.0577 10.7874 13.9677 10.7249 13.8727 10.8449C13.8527 10.8699 13.7752 10.8649 13.7327 10.8449C13.5052 10.7649 13.6027 10.5399 13.5202 10.4024C13.9377 10.0924 14.1702 10.4599 14.5002 10.6199L14.4027 10.0874C14.1077 10.1899 13.9927 9.96987 13.8052 9.90487C13.9152 9.65487 14.1027 9.40487 13.9127 9.15487C13.8977 9.13237 13.9377 9.06987 13.9527 9.02737C13.9677 8.98487 13.9752 8.94737 13.9927 8.88737C13.8952 8.95037 13.7832 9.00687 13.6647 9.05087L13.6527 9.05487C13.5302 9.08487 13.5027 9.12987 13.5602 9.23487C13.6202 9.38387 13.6547 9.55637 13.6547 9.73687C13.6547 9.85687 13.6392 9.97337 13.6107 10.0844L13.6127 10.0749C13.5927 10.2374 13.4627 10.2699 13.3627 10.1474C13.2642 10.0419 13.1762 9.92487 13.1007 9.79937L13.0952 9.78987C13.0782 9.73987 13.0687 9.68287 13.0687 9.62337C13.0687 9.59387 13.0712 9.56487 13.0757 9.53687L13.0752 9.53987C13.0752 9.48487 13.0752 9.43237 13.0752 9.37987C13.0127 9.37987 12.9127 9.37987 12.8902 9.41237C12.7227 9.68237 12.5727 9.96737 12.4077 10.2624ZM12.8727 11.5949C12.7937 11.5369 12.7042 11.4844 12.6097 11.4414L12.6002 11.4374C12.5787 11.4309 12.5542 11.4269 12.5287 11.4269C12.4782 11.4269 12.4307 11.4419 12.3917 11.4679L12.3927 11.4674C12.1427 11.6999 11.8927 11.9374 11.6677 12.1849C11.4777 12.3874 11.4877 12.5824 11.7177 12.7324C11.9287 12.8619 12.1752 12.9874 12.4317 13.0944L12.4677 13.1074C12.6902 13.2024 12.8077 13.1324 12.8302 12.8874C12.8272 12.7359 12.8062 12.5909 12.7697 12.4519L12.7727 12.4649C12.5927 12.7649 12.4727 12.7899 12.2252 12.6374C12.1802 12.6074 12.1327 12.5774 12.0902 12.5449C11.8827 12.3924 11.8752 12.3174 12.0902 12.1599C12.3302 11.9674 12.5952 11.7924 12.8727 11.5949ZM10.7927 13.5549L10.7327 13.5374C10.6977 13.6049 10.6152 13.7024 10.6327 13.7299C10.7377 13.8699 10.6202 13.9799 10.5627 14.0524C10.5377 14.0849 10.3902 14.0324 10.3277 14.0249L10.5002 13.6574L10.4377 13.6174L9.89016 14.0249L10.2427 14.2049C10.2202 14.2624 10.2027 14.3074 10.1877 14.3499C10.1727 14.3924 10.1477 14.4524 10.1352 14.5049C10.1027 14.6374 10.1852 14.7199 10.3127 14.6799C10.3832 14.6469 10.4442 14.6084 10.4992 14.5634L10.4977 14.5649C10.4727 14.5274 10.4602 14.5124 10.4502 14.4949L10.3777 14.3574C10.3997 14.3534 10.4252 14.3509 10.4517 14.3509C10.4782 14.3509 10.5032 14.3534 10.5282 14.3579L10.5257 14.3574C10.6307 14.3899 10.7282 14.4399 10.8307 14.4774C10.8587 14.4934 10.8922 14.5034 10.9282 14.5034C11.0347 14.5034 11.1217 14.4189 11.1257 14.3129L10.8757 14.1874C11.0107 14.0949 11.0107 14.0974 11.2032 14.1674C11.3007 14.1999 11.4157 14.2724 11.4832 14.1299C11.5682 13.9474 11.6357 13.7549 11.7157 13.5549L11.5332 13.4824C11.4132 13.6424 11.3257 13.8774 11.2007 13.8974C11.1927 13.8979 11.1832 13.8984 11.1737 13.8984C10.9762 13.8984 10.8137 13.7489 10.7932 13.5564L10.7927 13.5549ZM8.75016 14.6424L8.68766 14.7049L8.96766 15.2049C9.26016 15.2049 9.31766 15.0899 9.26016 14.5374L9.04266 14.9074L8.75016 14.6424ZM13.4252 12.2324C13.4267 12.2214 13.4272 12.2094 13.4272 12.1964C13.4272 12.0334 13.2952 11.9014 13.1322 11.9014C13.1242 11.9014 13.1167 11.9019 13.1092 11.9024C13.0497 11.9069 12.9987 11.9369 12.9657 11.9819C12.9457 12.0219 12.9652 12.0949 12.9977 12.1424C13.0477 12.2299 13.1077 12.3099 13.1652 12.3924C13.1902 12.4274 13.2277 12.4899 13.2452 12.4874C13.2952 12.4729 13.3362 12.4404 13.3622 12.3984L13.3627 12.3974C13.3877 12.3504 13.4087 12.2954 13.4242 12.2379L13.4252 12.2324ZM14.6277 9.19987L14.5002 9.51737C14.5602 9.53237 14.6452 9.58237 14.6802 9.55737C14.8127 9.47237 14.7827 9.36487 14.6277 9.19987Z" fill="black"/>
<path d="M4.64766 5.52987C4.64766 5.05237 4.63266 4.57737 4.64766 4.10237C4.68766 2.99987 4.75016 1.89737 4.79266 0.794874C4.79266 0.642374 4.88766 0.619874 4.98766 0.582374C7.38266 -0.337626 9.72016 -0.227626 11.9552 1.03487C14.1902 2.29737 15.5152 4.28487 15.9552 6.82487C15.9552 6.87237 15.9552 6.91987 15.9677 7.01987C14.5552 5.24987 12.7777 4.19987 10.5777 3.92237C10.2607 3.87737 9.89416 3.85187 9.52166 3.85187C7.67566 3.85187 5.97716 4.48387 4.63066 5.54287L4.64766 5.52987ZM8.19016 1.72487C8.23266 1.70487 8.27516 1.65987 8.31516 1.66487C8.63266 1.69737 8.95266 1.72987 9.26516 1.78987C9.36016 1.80987 9.43766 1.92237 9.51516 1.98987C9.53266 2.00487 9.55516 2.01737 9.60016 2.04737V1.88987C10.0132 2.03237 10.3702 2.23987 10.6772 2.50337L10.6727 2.49987C10.7317 2.54137 10.7987 2.58037 10.8692 2.61387L10.8777 2.61737L10.9177 2.51487C10.2652 1.91737 9.39166 1.55137 8.43316 1.55137C8.25116 1.55137 8.07266 1.56437 7.89816 1.58987L7.91816 1.58737C8.08716 1.53037 8.30566 1.47287 8.52816 1.42687L8.56816 1.41987C8.78016 1.36537 9.02316 1.33387 9.27366 1.33387C9.81767 1.33387 10.3272 1.48187 10.7642 1.73987L10.7507 1.73237C10.8607 1.81887 10.9467 1.93187 10.9987 2.06187L11.0007 2.06737L11.1132 1.96987L11.1832 1.89987C11.3882 2.14987 11.5957 2.37237 11.7957 2.61237C12.3217 3.24287 12.9377 3.77637 13.6282 4.19887L13.6607 4.21737C13.8482 4.32587 14.0677 4.42787 14.2962 4.51037L14.3257 4.51937C14.3632 4.52637 14.4067 4.53037 14.4507 4.53037C14.4947 4.53037 14.5382 4.52637 14.5802 4.51837L14.5757 4.51887L14.6032 4.40887C14.1712 4.40637 13.7762 4.25187 13.4677 3.99637L13.4707 3.99887C13.5937 4.02987 13.7377 4.05137 13.8852 4.05887H13.8907C13.9782 4.04837 14.0517 3.99737 14.0927 3.92537L14.0932 3.92387C14.1007 3.89787 14.1047 3.86737 14.1047 3.83637C14.1047 3.77137 14.0867 3.71137 14.0547 3.65987L14.0557 3.66137C13.9982 3.56637 13.9082 3.53887 13.8482 3.68137C13.8282 3.72887 13.7782 3.79637 13.7407 3.79887C13.7227 3.79987 13.7017 3.79987 13.6802 3.79987C13.3032 3.79987 12.9572 3.66537 12.6882 3.44187L12.6907 3.44387C12.8297 3.46837 12.9942 3.48537 13.1617 3.49137H13.1682C13.1712 3.49137 13.1747 3.49137 13.1782 3.49137C13.3372 3.49137 13.4657 3.36287 13.4657 3.20387C13.4657 3.18537 13.4637 3.16687 13.4607 3.14937L13.4612 3.15137C13.4327 3.07337 13.3742 3.01187 13.3007 2.97987L13.2987 2.97887C13.2637 2.96387 13.1837 3.05137 13.1337 3.10137C13.0837 3.15137 13.0637 3.22887 13.0137 3.24387C12.9822 3.24787 12.9462 3.25037 12.9092 3.25037C12.6027 3.25037 12.3327 3.09337 12.1757 2.85487L12.1737 2.85137C12.5812 2.90387 12.7012 2.85137 12.7287 2.60137C12.7052 2.59837 12.6787 2.59687 12.6512 2.59687C12.6237 2.59687 12.5972 2.59837 12.5707 2.60187L12.5737 2.60137C12.5122 2.62037 12.4412 2.63137 12.3682 2.63137C12.2122 2.63137 12.0672 2.58187 11.9492 2.49737L11.9512 2.49887C11.8067 2.39787 11.6797 2.28937 11.5647 2.16987L11.5637 2.16887C10.9852 1.58587 10.1967 1.21187 9.32166 1.16937L9.31366 1.16887C9.21166 1.15937 9.09366 1.15387 8.97416 1.15387C8.31216 1.15387 7.68966 1.32137 7.14616 1.61637L7.16616 1.60637C6.90016 1.41487 6.56766 1.30037 6.20866 1.30037C6.18666 1.30037 6.16466 1.30087 6.14316 1.30187H6.14616C6.47666 1.35537 6.76766 1.49587 7.00316 1.69887L7.00066 1.69687C6.54016 1.96287 6.17266 2.34387 5.93016 2.80187L5.92316 2.81687C6.24066 2.41037 6.65016 2.09037 7.12066 1.88437L7.14066 1.87687C7.16816 1.92937 7.18816 1.96437 7.20316 1.99937C7.29816 2.24937 7.28816 2.24937 7.05316 2.35187C6.86366 2.43137 6.70316 2.51537 6.55116 2.61037L6.56566 2.60187C6.19516 2.85837 5.90466 3.20637 5.72416 3.61387L5.71816 3.62937C6.15566 3.17687 6.46816 2.56437 7.26066 2.55687L7.19066 2.90937C7.27216 2.79237 7.33366 2.65537 7.36666 2.50687L7.36816 2.49937C7.38816 2.36687 7.44316 2.29937 7.56816 2.28937C8.03566 2.25187 8.51316 2.17937 8.84316 2.63687C8.91066 2.39437 8.56766 1.91737 8.19016 1.72487Z" fill="black"/>
<path d="M7.61516 12.2049L5.61516 13.2374C4.88516 13.6149 4.15266 13.9874 3.42766 14.3799C3.38516 14.4094 3.33266 14.4274 3.27566 14.4274C3.20116 14.4274 3.13366 14.3969 3.08516 14.3474C1.51866 13.1339 0.431164 11.3669 0.115664 9.34387L0.110164 9.29987C0.0356641 8.89487 -0.00683594 8.42937 -0.00683594 7.95337C-0.00683594 5.96487 0.736164 4.15037 1.95966 2.77187L1.95266 2.77987C2.30016 2.40687 2.65816 2.05987 3.03316 1.73187L3.05016 1.71737C3.08866 1.68737 3.13216 1.65987 3.17816 1.63687L3.18266 1.63487C2.37766 3.73237 2.33516 5.79987 3.20016 7.84987C4.06516 9.89987 5.54516 11.3174 7.61516 12.2049ZM2.01766 3.56737C1.99466 3.59137 1.97466 3.61837 1.95866 3.64787L1.95766 3.64987C1.68016 4.36487 1.40766 5.08237 1.12766 5.79487C1.09516 5.85937 1.07566 5.93587 1.07566 6.01687C1.07566 6.18187 1.15566 6.32787 1.27866 6.41937L1.28016 6.42037C1.39966 6.51487 1.48766 6.64387 1.52916 6.79287L1.53016 6.79787C1.61016 7.34287 1.64516 7.89287 1.71516 8.44037C1.74016 8.55187 1.79566 8.64837 1.87266 8.72287C1.97766 8.83787 2.12266 8.90787 2.22016 9.03287C2.50266 9.44037 2.76766 9.86037 3.03016 10.2829C3.05216 10.3179 3.06466 10.3604 3.06466 10.4059C3.06466 10.4324 3.06016 10.4584 3.05216 10.4824L3.05266 10.4809C3.01066 10.5444 2.98616 10.6229 2.98616 10.7064C2.98616 10.8389 3.04816 10.9564 3.14466 11.0324L3.14566 11.0329C3.63066 11.5329 4.12066 12.0329 4.61566 12.5079C4.65366 12.5324 4.69966 12.5464 4.74916 12.5464C4.77816 12.5464 4.80616 12.5414 4.83216 12.5324L4.83016 12.5329C5.11016 12.4154 5.38266 12.2829 5.65516 12.1504C5.33266 11.9204 5.02266 11.6929 4.70266 11.4729C4.65466 11.4429 4.59616 11.4254 4.53416 11.4254C4.51966 11.4254 4.50516 11.4264 4.49116 11.4284H4.49266C4.47066 11.4314 4.44516 11.4334 4.41916 11.4334C4.24766 11.4334 4.09466 11.3549 3.99366 11.2319L3.99266 11.2309C3.91666 11.1444 3.83466 11.0664 3.74666 10.9964L3.74266 10.9934C3.67966 10.9614 3.63766 10.8974 3.63766 10.8234C3.63766 10.7944 3.64416 10.7669 3.65566 10.7424L3.65516 10.7434C3.66566 10.7034 3.67216 10.6569 3.67216 10.6094C3.67216 10.4534 3.60616 10.3124 3.50066 10.2134C2.67866 9.21337 2.12766 7.96087 1.97766 6.58887L1.97516 6.55787C1.96966 6.38987 1.88266 6.24337 1.75216 6.15637L1.75016 6.15537C1.62866 6.08587 1.54816 5.95687 1.54816 5.80937C1.54816 5.77137 1.55366 5.73487 1.56316 5.70037L1.56266 5.70337C1.61266 5.45337 1.62766 5.17587 1.68516 4.91837C1.78016 4.47587 1.90016 4.03737 2.01766 3.56737ZM1.11516 9.71237C1.19766 10.0974 1.30016 10.4149 1.71516 10.4999C2.00616 10.5879 2.24316 10.7799 2.38716 11.0319L2.39016 11.0374C2.64016 11.3799 2.69516 11.6624 2.36766 11.9674C2.28266 12.0449 2.29266 12.1249 2.36766 12.2174C2.65516 12.5449 2.93516 12.8774 3.22016 13.2174C3.24266 13.2424 3.29766 13.2699 3.32266 13.2599C3.46016 13.1999 3.59516 13.1349 3.72516 13.0624C3.74416 13.0414 3.75616 13.0129 3.75616 12.9819C3.75616 12.9684 3.75416 12.9559 3.75016 12.9439C3.59766 12.7589 3.72016 12.6049 3.79016 12.4449C3.81766 12.3824 3.84766 12.2849 3.82016 12.2449C3.72416 12.1224 3.62566 12.0129 3.52066 11.9104L3.31766 12.2499C3.18616 12.1844 3.09766 12.0514 3.09766 11.8974C3.09766 11.8154 3.12266 11.7389 3.16616 11.6759L3.16516 11.6774C3.17716 11.6474 3.18366 11.6124 3.18366 11.5754C3.18366 11.5209 3.16816 11.4694 3.14166 11.4259L3.14216 11.4274C2.92466 11.0524 2.69716 10.6774 2.46966 10.3099C2.43616 10.2449 2.38766 10.1914 2.32866 10.1534L2.32716 10.1524C1.93466 10.0174 1.54016 9.87237 1.11516 9.71237ZM1.72516 9.67237C1.69516 9.07987 1.42516 8.81737 0.910164 8.86987C0.950164 9.03487 0.985164 9.20237 1.03016 9.36987C1.04066 9.41437 1.06916 9.45087 1.10666 9.47187L1.10766 9.47237C1.30766 9.53987 1.51266 9.60237 1.72516 9.67237ZM1.46266 8.70737C1.49516 8.18487 1.36766 8.03987 0.840164 7.98237C0.790164 8.56237 0.805164 8.58237 1.36766 8.68987L1.46266 8.70737ZM1.40266 7.88737C1.40266 7.32237 1.32016 7.18237 0.845164 7.01987C0.845164 7.18987 0.820164 7.35737 0.820164 7.51987C0.826164 7.57787 0.857164 7.62787 0.902164 7.65937C1.05716 7.74937 1.22266 7.80987 1.40266 7.88737Z" fill="black"/>
<path d="M8.19016 1.72487L8.63016 2.22487H7.41266L7.33516 1.78737C7.48566 1.73187 7.65966 1.69937 7.84116 1.69937C7.96766 1.69937 8.09066 1.71487 8.20766 1.74437L8.19716 1.74237L8.19016 1.72487Z" fill="black"/>
</g>
<defs>
<clipPath id="clip0_6_550">
<rect width="16" height="16" fill="white"/>
</clipPath>
</defs>
</svg>
