<svg width="16" height="17" viewBox="0 0 16 17" fill="none" xmlns="http://www.w3.org/2000/svg">
<g clip-path="url(#clip0_6_377)">
<path d="M12.5001 5.44043C12.1571 5.10743 11.7801 4.80493 11.3766 4.54043L11.3476 4.52293C11.1906 4.41293 11.0111 4.30893 10.8226 4.21993L10.8001 4.21043C10.6601 4.14793 10.6851 4.12043 10.6551 4.29043C10.6251 4.46643 10.5711 4.62443 10.4956 4.76943L10.5001 4.76043L10.4576 4.83043C10.2501 4.67043 10.0001 4.51043 9.7751 4.37793C9.6076 4.27543 9.4376 4.18043 9.2751 4.08793C9.1946 4.03743 9.0961 4.00793 8.9916 4.00793C8.9506 4.00793 8.9101 4.01243 8.8716 4.02143L8.8751 4.02093C8.3006 4.12243 7.7876 4.32443 7.3321 4.60893L7.3501 4.59843C7.2356 4.67243 7.1376 4.74393 7.0441 4.82043L7.0501 4.81593C7.0176 4.84343 7.0126 4.85843 7.0501 4.88843C7.1401 4.96093 7.2251 5.03843 7.3201 5.11843C6.9061 5.27043 6.5596 5.52243 6.2986 5.84643L6.2951 5.85093C6.4626 5.87593 6.6151 5.90343 6.7676 5.92343C6.8201 5.92343 6.8451 5.94343 6.8501 6.00593C6.9381 6.54743 7.3451 6.97393 7.8686 7.08943L7.8776 7.09093C8.0651 7.12543 8.2811 7.14543 8.5016 7.14543C8.6241 7.14543 8.7456 7.13943 8.8651 7.12743L8.8501 7.12843C8.9426 7.11993 9.0506 7.11543 9.1596 7.11543C9.4841 7.11543 9.7986 7.15743 10.0981 7.23693L10.0726 7.23143L10.1876 7.26643C10.1876 7.26643 10.1876 7.26643 10.2126 7.26643C10.0226 7.05143 9.8351 6.83893 9.6276 6.64643C9.5051 6.52893 9.3776 6.41893 9.2476 6.30393C9.2051 6.26843 9.1521 6.24393 9.0941 6.23643H9.0926C8.9536 6.21393 8.7931 6.20143 8.6301 6.20143C8.5546 6.20143 8.4796 6.20393 8.4051 6.20943L8.4151 6.20893C8.4126 6.20893 8.4096 6.20893 8.4066 6.20893C8.1606 6.20893 7.9286 6.14993 7.7241 6.04493L7.7326 6.04893C7.5831 5.97393 7.4586 5.90043 7.3396 5.82043L7.3526 5.82893C7.6341 5.55793 7.9941 5.36643 8.3946 5.29093L8.4076 5.28893C8.4086 5.28893 8.4096 5.28893 8.4106 5.28893C8.4791 5.28893 8.5426 5.30843 8.5966 5.34243L8.5951 5.34143C8.9001 5.44743 9.1646 5.58343 9.4061 5.75093L9.3951 5.74393C9.4426 5.77643 9.4676 5.76893 9.5101 5.73143C9.6546 5.59793 9.8451 5.51243 10.0556 5.50143H10.0576C9.9851 5.58793 9.9231 5.68693 9.8756 5.79343L9.8726 5.80143C9.8521 5.85843 9.8381 5.92493 9.8326 5.99393V5.99643C9.8321 6.00193 9.8321 6.00843 9.8321 6.01493C9.8321 6.08643 9.8621 6.15093 9.9101 6.19643C10.2071 6.47043 10.4816 6.75543 10.7386 7.05543L10.7501 7.06893C10.7626 7.08893 10.7846 7.10193 10.8096 7.10193C10.8246 7.10193 10.8391 7.09693 10.8506 7.08893C11.0191 7.01043 11.2151 6.95993 11.4216 6.94893H11.4256C11.5076 6.93893 11.6026 6.93343 11.6986 6.93343C11.9581 6.93343 12.2086 6.97493 12.4426 7.05143L12.4256 7.04643L12.5206 7.08393L12.5381 7.10143H12.5531C12.5531 7.10143 12.5531 7.10143 12.5356 7.10143C12.5181 7.10143 12.5356 7.07893 12.5356 7.06893C12.3091 6.81643 12.0636 6.58993 11.7986 6.38843L11.7856 6.37893C11.6826 6.29993 11.5986 6.20143 11.5381 6.08893L11.5356 6.08393C11.4311 5.89393 11.3201 5.73043 11.1961 5.57793L11.2006 5.58393C11.2206 5.56143 11.2381 5.58393 11.2556 5.58393C11.4386 5.66193 11.5961 5.76093 11.7356 5.88093L11.7331 5.87893C11.7756 5.91393 11.7956 5.90893 11.8281 5.87893C11.9206 5.77443 12.0396 5.69543 12.1751 5.65293L12.1806 5.65143C12.1921 5.64543 12.2061 5.64193 12.2206 5.64193C12.2476 5.64193 12.2721 5.65443 12.2881 5.67393C12.3921 5.78093 12.4671 5.91693 12.4996 6.06843L12.5006 6.07393C12.5031 6.08343 12.5046 6.09393 12.5046 6.10543C12.5046 6.14593 12.4841 6.18193 12.4531 6.20393L12.3151 6.32193L12.8276 6.87943L12.8826 6.47193C13.4451 7.23943 13.8761 8.14193 14.1211 9.11893L14.1326 9.17193C14.2316 9.59643 14.2881 10.0839 14.2881 10.5849C14.2881 11.3784 14.1461 12.1389 13.8856 12.8419L13.9001 12.7969L13.3551 12.1919C13.3321 12.2564 13.3186 12.3314 13.3176 12.4089C13.1971 13.3689 12.8341 14.2274 12.2931 14.9424L12.3026 14.9294C11.9231 15.4244 11.4771 15.8444 10.9726 16.1844L10.9526 16.1969C10.8676 16.2544 10.8676 16.2544 10.8451 16.1569C10.7776 15.8919 10.7126 15.6269 10.6451 15.3544C10.4976 15.4594 10.3251 15.5689 10.1476 15.6689L10.1181 15.6844C9.5891 15.9839 8.9721 16.2039 8.3171 16.3079L8.2856 16.3119C8.0536 16.3539 7.7866 16.3774 7.5141 16.3774C6.7386 16.3774 6.0081 16.1839 5.3686 15.8424L5.3931 15.8544C5.3566 15.8414 5.3311 15.8074 5.3311 15.7669C5.3311 15.7544 5.3336 15.7419 5.3381 15.7309C5.4256 15.3184 5.4931 14.9039 5.5406 14.4814C5.5676 14.2599 5.5826 14.0034 5.5826 13.7434C5.5826 13.5444 5.5736 13.3479 5.5561 13.1539L5.5581 13.1789C5.5186 12.7359 5.4346 12.3284 5.3096 11.9389L5.3206 11.9789L5.0706 12.3414C4.7141 12.8574 4.3371 13.3089 3.9231 13.7239C3.7686 13.8774 3.6056 14.0229 3.4351 14.1594L3.4231 14.1689C3.3581 14.2214 3.3431 14.1939 3.3156 14.1414C3.1746 13.8729 3.0591 13.5619 2.9856 13.2344L2.9806 13.2089C2.8881 12.8144 2.8241 12.3524 2.8011 11.8794L2.8006 11.8614C2.7931 11.7229 2.7891 11.5609 2.7891 11.3984C2.7891 11.1004 2.8031 10.8054 2.8311 10.5144L2.8281 10.5514C2.8456 10.3369 2.8806 10.1394 2.9336 9.94893L2.9281 9.97143L1.7706 10.3314C1.7506 9.69143 2.2506 7.96643 3.1531 6.90893C3.0721 6.88643 2.9756 6.86793 2.8761 6.85693L2.8681 6.85643C2.7456 6.83143 2.6181 6.81643 2.5006 6.80143C2.4406 6.80143 2.4406 6.76893 2.4656 6.72143C2.7206 6.22093 3.0071 5.78943 3.3371 5.39543L3.3281 5.40643C3.6736 4.98693 4.0586 4.62043 4.4831 4.30393L4.5006 4.29143C4.5006 4.29143 4.5231 4.25393 4.5481 4.27643C4.4546 4.46643 4.3996 4.69043 4.3996 4.92743C4.3996 5.24493 4.4981 5.53893 4.6666 5.78143L4.6631 5.77643C4.7686 5.92543 4.9061 6.04493 5.0666 6.12593L5.0731 6.12893C5.0731 6.12843 5.0731 6.12793 5.0731 6.12743C5.0731 6.09443 5.0606 6.06443 5.0406 6.04143C4.9046 5.78693 4.8251 5.48543 4.8251 5.16493C4.8251 5.11343 4.8271 5.06293 4.8311 5.01243L4.8306 5.01893C4.8311 4.66143 5.0576 4.35693 5.3746 4.24093L5.3806 4.23893C5.4636 4.21493 5.5591 4.20143 5.6581 4.20143C5.8536 4.20143 6.0366 4.25543 6.1926 4.34943L6.1881 4.34693C6.2531 4.37943 6.3106 4.41943 6.3781 4.44943C6.2406 4.05193 5.8961 3.75993 5.4766 3.69993L5.4706 3.69943C5.8131 3.51793 6.2136 3.35443 6.6316 3.23143L6.6781 3.21943C7.2771 3.04743 7.9656 2.94793 8.6771 2.94793C8.7611 2.94793 8.8446 2.94943 8.9276 2.95193L8.9156 2.95143C9.2201 2.96893 9.4911 3.09843 9.6906 3.29893C9.8726 3.45343 10.0361 3.61693 10.1856 3.79293L10.1906 3.79893C10.2056 3.81393 10.2131 3.84143 10.2431 3.83893C10.2316 3.57593 10.1691 3.32993 10.0656 3.10693L10.0706 3.11893C10.2651 3.15743 10.4326 3.20493 10.5946 3.26393L10.5706 3.25643C11.0971 3.42643 11.5536 3.67593 11.9516 3.99543L11.9431 3.98893C12.0551 4.07293 12.1306 4.20093 12.1431 4.34693V4.34893C12.2111 4.72443 12.3246 5.05993 12.4806 5.37043L12.4706 5.34893L12.5081 5.43643L12.5001 5.44043ZM11.6051 8.58043C11.6051 8.45043 11.6051 8.33043 11.6051 8.19543C11.6051 8.14543 11.5901 8.12293 11.5401 8.10293C11.2676 7.99693 11.0326 7.86243 10.8211 7.69793L10.8276 7.70293C10.8006 7.68243 10.7671 7.67043 10.7301 7.67043C10.7161 7.67043 10.7021 7.67243 10.6891 7.67593L10.6901 7.67543C10.5991 7.69543 10.5236 7.71693 10.4501 7.74243L10.4651 7.73793C9.8636 7.95843 9.3446 8.25993 8.8886 8.63543L8.8976 8.62793C8.8601 8.65543 8.8676 8.68043 8.8851 8.71543C9.1151 9.14543 9.34343 9.57543 9.5701 10.0054C9.5841 10.0394 9.6171 10.0624 9.6551 10.0629C9.6751 10.0644 9.6991 10.0649 9.7226 10.0649C9.8786 10.0649 10.0271 10.0329 10.1621 9.97493L10.1546 9.97793C10.7021 9.73643 11.1731 9.42743 11.5841 9.05393L11.5796 9.05793C11.6031 9.03793 11.6176 9.00893 11.6176 8.97593C11.6176 8.97243 11.6176 8.96843 11.6171 8.96493C11.6021 8.83993 11.6051 8.71043 11.6051 8.58043ZM11.4926 11.0804C11.5661 11.3379 11.6081 11.6339 11.6081 11.9394C11.6081 11.9889 11.6071 12.0384 11.6046 12.0874V12.0804L11.6646 12.0479L11.7671 11.9679C12.0941 11.6744 12.3316 11.2869 12.4366 10.8479L12.4396 10.8329C12.4596 10.7869 12.4711 10.7334 12.4711 10.6774C12.4711 10.6439 12.4671 10.6114 12.4591 10.5799L12.4596 10.5829C12.3831 10.3529 12.2771 10.1529 12.1431 9.97493L12.1471 9.98043C12.1286 9.95693 12.1001 9.94243 12.0686 9.94243C12.0646 9.94243 12.0606 9.94243 12.0566 9.94293H11.4921C11.4531 9.94393 11.4181 9.95993 11.3921 9.98543C11.1816 10.1609 10.9481 10.3264 10.7016 10.4719L10.6771 10.4854C10.4971 10.6049 10.2856 10.6924 10.0576 10.7339L10.0476 10.7354C9.9726 10.7354 9.9801 10.7679 10.0076 10.8179C10.1401 11.0679 10.2726 11.3179 10.4001 11.5679C10.4251 11.6129 10.4426 11.6229 10.4926 11.6079C10.8826 11.5069 11.2211 11.3239 11.5031 11.0779L11.5001 11.0804H11.4926ZM12.7501 7.70043C12.5816 7.84243 12.3946 7.97693 12.1976 8.09643L12.1776 8.10793C12.1411 8.12643 12.1166 8.16343 12.1166 8.20643C12.1166 8.21143 12.1171 8.21643 12.1176 8.22093C12.1176 8.47093 12.1176 8.70793 12.1176 8.95293C12.1176 8.95643 12.1171 8.96093 12.1171 8.96543C12.1171 9.03293 12.1461 9.09343 12.1921 9.13543C12.3981 9.33543 12.5751 9.56443 12.7166 9.81543L12.7246 9.83043C12.7396 9.87843 12.7646 9.91943 12.7971 9.95293C13.1521 9.19293 13.0401 8.45043 12.7501 7.70043Z" fill="black"/>
<path d="M4.2701 1.74543C4.3026 1.72543 4.3226 1.74543 4.3451 1.76293C4.7441 1.96043 5.0876 2.18443 5.4021 2.44293L5.3926 2.43543C5.4166 2.45543 5.4436 2.47493 5.4716 2.49343L5.4751 2.49543L5.2251 0.90043C5.4501 1.05293 5.6576 1.19793 5.8651 1.34293C6.1926 1.56793 6.5176 1.79293 6.8401 2.02293C6.8976 2.06293 6.9151 2.05293 6.9376 1.99043C7.10426 1.47543 7.27843 0.96043 7.4601 0.44543C7.4646 0.42393 7.4741 0.40543 7.4876 0.39043C7.7001 0.73293 7.9101 1.07543 8.1226 1.41543C8.2076 1.55543 8.2976 1.69293 8.3726 1.83543C8.4001 1.88043 8.4151 1.89043 8.4576 1.83543C8.7026 1.56043 8.9526 1.2871 9.2076 1.01543L9.7901 0.37793L9.9026 1.99293C10.0151 1.86043 10.1126 1.74293 10.2201 1.61293C10.4266 1.37843 10.6516 1.17043 10.8961 0.98643L10.9076 0.97793C10.9226 1.00543 10.9076 1.02543 10.8901 1.04543C10.7256 1.42293 10.6036 1.86093 10.5451 2.31893L10.5426 2.34293C10.5226 2.47543 10.5051 2.61043 10.4901 2.74543C10.4901 2.81043 10.4401 2.77543 10.4201 2.77043C10.2736 2.72193 10.0846 2.67293 9.8921 2.63393L9.8576 2.62793C9.4961 2.56293 9.0801 2.52543 8.6556 2.52543C8.5921 2.52543 8.5291 2.52643 8.4661 2.52793H8.4756C7.8496 2.53693 7.2481 2.62743 6.6766 2.78993L6.7256 2.77793C6.1431 2.93793 5.6346 3.15043 5.1621 3.41793L5.1956 3.40043C5.1306 3.43543 5.1031 3.44293 5.0756 3.35793C4.9086 2.83643 4.6931 2.38393 4.4266 1.96693L4.4406 1.99043C4.3881 1.90793 4.3306 1.83043 4.2756 1.74043L4.2701 1.74543Z" fill="black"/>
<path d="M12.5001 5.43043V5.45043C12.5001 5.45043 12.5001 5.45043 12.4876 5.45043L12.5001 5.43043Z" fill="black"/>
</g>
<defs>
<clipPath id="clip0_6_377">
<rect width="16" height="16" fill="white" transform="translate(0 0.37793)"/>
</clipPath>
</defs>
</svg>
