<svg width="16" height="17" viewBox="0 0 16 17" fill="none" xmlns="http://www.w3.org/2000/svg">
<g clip-path="url(#clip0_6_560)">
<path d="M10.8312 12.0059C10.1217 12.4139 9.65124 13.1679 9.65124 14.0319C9.65124 15.3184 10.6942 16.3609 11.9802 16.3609C13.2662 16.3609 14.3092 15.3179 14.3092 14.0319C14.3092 13.5994 14.1912 13.1944 13.9857 12.8469L13.9917 12.8579C13.5802 12.1619 12.8337 11.7029 11.9802 11.7029C11.5577 11.7029 11.1612 11.8154 10.8197 12.0124L10.8312 12.0059Z" fill="black"/>
<path d="M15.7757 2.06341L14.3052 0.592906C14.1832 0.460906 14.0092 0.378906 13.8162 0.378906C13.6232 0.378906 13.4492 0.461406 13.3277 0.592906L13.0812 0.832906L13.5072 1.88441L9.51424 5.45791L5.47474 8.18641L0.430242 13.2374C0.171242 13.4914 0.0107422 13.8449 0.0107422 14.2359C0.0107422 14.6269 0.171242 14.9804 0.429742 15.2339L1.15524 15.9594C1.40924 16.2184 1.76274 16.3789 2.15324 16.3789C2.54374 16.3789 2.89774 16.2184 3.15124 15.9599L8.20224 10.9089L10.9307 6.87591L14.5042 2.88291L15.5492 3.30891L15.7757 3.04291C15.9077 2.92091 15.9897 2.74691 15.9897 2.55391C15.9897 2.36091 15.9072 2.18691 15.7757 2.06541V2.06341Z" fill="black"/>
</g>
<defs>
<clipPath id="clip0_6_560">
<rect width="16" height="16" fill="white" transform="translate(0 0.37793)"/>
</clipPath>
</defs>
</svg>
