<svg width="16" height="17" viewBox="0 0 16 17" fill="none" xmlns="http://www.w3.org/2000/svg">
<g clip-path="url(#clip0_463_76)">
<path d="M7.13001 0.37793C6.65001 1.20793 7.02001 2.36793 7.72001 3.04793H7.74001L5.51001 6.92793C4.16001 6.65793 2.60001 7.13793 1.92001 8.29793L1.57001 8.90793L4.94001 10.8579L3.11001 14.0279C1.90001 14.1679 1.01001 14.5879 1.01001 15.0979C1.01001 15.7179 2.35001 16.2179 3.99001 16.2179C5.63001 16.2179 6.97001 15.7179 6.97001 15.0979C6.97001 14.7979 6.65001 14.5179 6.13001 14.3179L5.62001 15.2279H4.97001L5.41001 14.4479L6.84001 11.9679L10.21 13.9179L10.56 13.3079C11.23 12.1379 10.86 10.5479 9.95001 9.51793L12.18 5.64793H12.2C13.14 5.92793 14.32 5.66793 14.8 4.83793L7.13001 0.37793Z" fill="black"/>
</g>
<defs>
<clipPath id="clip0_463_76">
<rect width="16" height="16" fill="white" transform="translate(0 0.37793)"/>
</clipPath>
</defs>
</svg>
