<svg width="16" height="17" viewBox="0 0 16 17" fill="none" xmlns="http://www.w3.org/2000/svg">
<g clip-path="url(#clip0_6_249)">
<path d="M13.3505 0.37793V3.02693H15.9995V0.37793H13.3505Z" fill="black"/>
<path d="M13.3505 7.00093V3.02693L9.377 3.02743V7.00093H11.364V8.98743H9.377V7.00093H5.4035V3.02743H9.377V0.49743C8.963 0.42143 8.4865 0.37793 8 0.37793C3.5815 0.37793 0 3.95943 0 8.37793C0 12.7964 3.5815 16.3779 8 16.3779C12.4185 16.3779 16 12.7964 16 8.37793C16 7.89143 15.9565 7.41493 15.8735 6.95193L15.881 7.00043L13.3505 7.00093Z" fill="black"/>
</g>
<defs>
<clipPath id="clip0_6_249">
<rect width="16" height="16" fill="white" transform="translate(0 0.37793)"/>
</clipPath>
</defs>
</svg>
