<svg width="16" height="17" viewBox="0 0 16 17" fill="none" xmlns="http://www.w3.org/2000/svg">
<g clip-path="url(#clip0_6_519)">
<path d="M11.94 5.71095C11.94 3.87095 10.18 2.37745 8.00001 2.37745C5.82001 2.37745 4.06001 3.87095 4.06001 5.71095C4.06001 7.55095 5.82001 9.04445 8.00001 9.04445C10.18 9.04445 11.94 7.55095 11.94 5.71095Z" fill="black"/>
<path d="M11.2735 1.08395C10.312 0.637453 9.18651 0.376953 8.00001 0.376953C6.81351 0.376953 5.68801 0.637453 4.67751 1.10395L4.72651 1.08345C4.94651 1.22345 5.87301 1.70995 8.00001 1.70995C10.127 1.70995 11.0535 1.22395 11.2735 1.08395Z" fill="black"/>
<path d="M3.02651 5.71095C3.55451 4.83545 3.86701 3.77845 3.86701 2.64845C3.86701 2.27495 3.83301 1.90895 3.76751 1.55445L3.77301 1.59145C1.49401 3.02645 0.00151172 5.52745 -0.000488281 8.37795C0.00151172 8.76545 0.0330117 9.14445 0.0915117 9.51395L0.0860117 9.47195C1.27251 8.42395 2.25601 7.17895 2.99201 5.78245L3.02601 5.71195L3.02651 5.71095Z" fill="black"/>
<path d="M12.2135 1.58395C12.1545 1.90095 12.121 2.26495 12.121 2.63745C12.121 3.77095 12.433 4.83145 12.9755 5.73795L12.96 5.71045C13.73 7.19345 14.7185 8.45245 15.9 9.49845L15.9135 9.51045C15.968 9.17045 15.9995 8.77795 16 8.37795C15.9975 5.52245 14.499 3.01695 12.2465 1.60295L12.2135 1.58395Z" fill="black"/>
<path d="M1.06001 9.31095C0.714012 9.66145 0.456512 10.1005 0.324512 10.591L0.320012 10.611C1.01401 12.923 2.66201 14.7585 4.79501 15.691L4.84651 15.711C5.55701 15.647 6.18751 15.3465 6.66801 14.89L6.66651 14.891C8.00001 13.5575 7.78651 11.2775 6.24651 9.73745C4.70651 8.19745 2.36651 8.00395 1.06001 9.31095Z" fill="black"/>
<path d="M9.78651 9.71095C8.24651 11.251 8.05301 13.5575 9.36001 14.8645C9.82651 15.326 10.445 15.635 11.1335 15.71L11.147 15.711C13.3345 14.756 14.983 12.915 15.659 10.6545L15.6735 10.598C15.5445 10.0755 15.288 9.62445 14.9395 9.26395L14.9405 9.26495C13.634 8.00495 11.3335 8.19795 9.78651 9.71095Z" fill="black"/>
</g>
<defs>
<clipPath id="clip0_6_519">
<rect width="16" height="16" fill="white" transform="translate(0 0.37793)"/>
</clipPath>
</defs>
</svg>
