<svg width="16" height="17" viewBox="0 0 16 17" fill="none" xmlns="http://www.w3.org/2000/svg">
<g clip-path="url(#clip0_6_534)">
<path d="M10.6665 15.924C11.7805 15.5325 12.735 14.9365 13.529 14.175L13.5265 14.1775C13.061 13.3595 12.62 12.678 12.146 12.0225L12.193 12.091C11.317 13.1265 10.755 14.4525 10.667 15.906L10.6665 15.924Z" fill="black"/>
<path d="M14.4265 13.124C15.0175 12.351 15.476 11.4405 15.747 10.4525L15.76 10.397C14.812 10.477 13.949 10.779 13.2035 11.2505L13.2265 11.237C13.64 11.8505 14.0465 12.4775 14.4265 13.124Z" fill="black"/>
<path d="M2.3865 2.684C5.168 3.8325 7.558 5.3605 9.6275 7.236L9.6065 7.2175C10.733 5.5375 10.94 3.251 10.1265 0.671C9.482 0.483 8.742 0.375 7.9765 0.375C5.797 0.375 3.822 1.252 2.3855 2.672L2.3865 2.671V2.684Z" fill="black"/>
<path d="M3.6265 11.2775C3.0765 11.275 2.537 11.2415 2.007 11.1775L2.0735 11.184C1.4205 11.107 0.856 11.009 0.302 10.8825L0.4135 10.904C1.504 14.11 4.4875 16.3755 8 16.3775C8.4725 16.376 8.9335 16.3325 9.381 16.2505L9.3335 16.2575C9.354 14.2525 10.1085 12.428 11.341 11.0355L11.3335 11.044C10.7945 10.364 10.256 9.7575 9.6855 9.1825L9.687 9.184C8.178 10.4905 6.196 11.2865 4.028 11.2865C3.887 11.2865 3.7465 11.283 3.6075 11.2765L3.6265 11.2775Z" fill="black"/>
<path d="M8.7535 8.231C6.697 6.37 4.2825 4.8575 1.6325 3.813L1.4735 3.7575C0.552 5.0395 0 6.641 0 8.371C0 8.3735 0 8.3755 0 8.378C0.003 8.762 0.032 9.1355 0.0855 9.502L0.08 9.4575C0.6715 9.6195 1.3975 9.762 2.1385 9.856L2.22 9.8645C4.98 10.1645 7.2535 9.591 8.7535 8.231Z" fill="black"/>
<path d="M10.5865 8.144C11.2115 8.7645 11.802 9.4165 12.3575 10.0985L12.3935 10.144C13.4135 9.4775 14.6565 9.0705 15.993 9.044H16C16 8.8175 16.0335 8.584 16.0335 8.3775C16.0255 5.2935 14.273 2.6205 11.7115 1.292L11.667 1.271C12.267 3.9375 11.9 6.324 10.5865 8.144Z" fill="black"/>
</g>
<defs>
<clipPath id="clip0_6_534">
<rect width="16" height="16" fill="white" transform="translate(0 0.37793)"/>
</clipPath>
</defs>
</svg>
