<svg width="16" height="17" viewBox="0 0 16 17" fill="none" xmlns="http://www.w3.org/2000/svg">
<path d="M13.3335 7.04424C11.867 7.04424 10.667 8.24424 10.667 9.71074C10.667 11.1772 11.867 12.3772 13.3335 12.3772C14.8 12.3772 16 11.1772 16 9.71074C16 8.24424 14.8 7.04424 13.3335 7.04424ZM13.3335 11.0442C12.6 11.0442 12 10.4442 12 9.71074C12 8.97724 12.6 8.37724 13.3335 8.37724C14.067 8.37724 14.667 8.97724 14.667 9.71074C14.667 10.4442 14.067 11.0442 13.3335 11.0442Z" fill="black"/>
<path d="M9.9335 11.0442C9.2 9.17774 10.067 7.04424 11.9335 6.31074C12.2 6.17724 12.5335 6.11074 12.8 6.11074L12 3.51074L10.7335 3.91074L11.267 5.44424L7.6005 6.71074L4.267 5.51074L3.9335 6.31074C5.8 6.97724 6.8 9.11074 6.067 10.9772V11.0437L9.9335 11.0442Z" fill="black"/>
<path d="M2.6665 7.04424C1.2 7.04424 0 8.24424 0 9.71074C0 11.1772 1.2 12.3772 2.6665 12.3772C4.133 12.3772 5.333 11.1772 5.333 9.71074C5.333 8.24424 4.133 7.04424 2.6665 7.04424ZM2.6665 10.3777C2.2665 10.3777 2 10.1112 2 9.71124C2 9.31124 2.2665 9.04474 2.6665 9.04474C3.0665 9.04474 3.333 9.31124 3.333 9.71124C3.333 10.1112 3.0665 10.3777 2.6665 10.3777Z" fill="black"/>
</svg>
