<svg width="16" height="17" viewBox="0 0 16 17" fill="none" xmlns="http://www.w3.org/2000/svg">
<g clip-path="url(#clip0_6_216)">
<path d="M9.79354 3.35095C10.0215 3.48495 10.296 3.56395 10.589 3.56395C11.469 3.56395 12.1825 2.85045 12.1825 1.97045C12.1825 1.09045 11.469 0.376953 10.589 0.376953C10.001 0.376953 9.48704 0.695953 9.21104 1.16995L9.20704 1.17745C9.07403 1.40495 8.99604 1.67845 8.99604 1.97045C8.99604 2.55745 9.31354 3.07045 9.78654 3.34695L9.79354 3.35095Z" fill="black"/>
<path d="M16 13.044H15.6735C14.831 13.0995 14.068 13.399 13.443 13.8715L13.4535 13.864C13.0715 14.1835 12.575 14.3775 12.0335 14.3775C12.022 14.3775 12.01 14.3775 11.9985 14.377H12.0005C11.997 14.377 11.9925 14.377 11.988 14.377C11.754 14.377 11.529 14.338 11.319 14.266L11.3335 14.2705V11.1305C11.3335 11.127 11.3335 11.123 11.3335 11.119C11.3335 10.4045 11.043 9.75745 10.5735 9.29045L9.16004 7.87695L9.72004 6.98345C9.75254 6.93045 9.78604 6.86695 9.81554 6.80145L9.82003 6.79045L10.92 7.71045C11.335 8.03895 11.866 8.23695 12.4435 8.23695H12.451C12.7865 8.23695 13.106 8.16845 13.396 8.04445L13.3805 8.05045L15.454 7.20395L14.8205 5.66395L12.747 6.47745C12.6545 6.51745 12.547 6.54095 12.4335 6.54095C12.25 6.54095 12.0805 6.47945 11.945 6.37595L11.947 6.37745L6.82704 2.37745C6.41304 2.05045 5.88404 1.85295 5.30904 1.85295C4.95404 1.85295 4.61654 1.92795 4.31154 2.06345L4.32704 2.05745L2.13354 2.97095L2.80003 4.49745L4.98654 3.55095C5.07954 3.51095 5.18804 3.48745 5.30204 3.48745C5.49054 3.48745 5.66404 3.55145 5.80204 3.65895L5.80004 3.65745L6.72654 4.37745C6.56154 4.51245 6.42004 4.66845 6.30454 4.84295L5.57304 6.01745C5.38204 6.31845 5.26854 6.68495 5.26854 7.07845C5.26854 7.38295 5.33654 7.67145 5.45804 7.92995L5.45304 7.91795L4.99304 8.53145C4.82104 8.75495 4.55353 8.89745 4.25304 8.89795H1.46604V10.5645H4.25254C5.09654 10.563 5.84604 10.1605 6.32104 9.53745L6.32554 9.53095L6.72554 8.99745C6.89604 9.05145 7.09204 9.08245 7.29554 9.08245C7.49903 9.08245 7.69503 9.05145 7.87954 8.99395L7.86554 8.99745L9.33204 10.471C9.50103 10.638 9.60554 10.8695 9.60554 11.1255C9.60554 11.13 9.60554 11.134 9.60554 11.1385V13.3645C9.21354 13.1975 8.75853 13.0895 8.28203 13.065L8.27254 13.0645L7.99903 13.0445H7.67904C6.83454 13.099 6.06854 13.3985 5.44204 13.872L5.45254 13.8645C5.07404 14.184 4.58053 14.378 4.04204 14.378C4.02704 14.378 4.01203 14.378 3.99704 14.3775H3.99904C3.98504 14.378 3.96803 14.378 3.95153 14.378C3.42104 14.378 2.93454 14.189 2.55554 13.8745L2.55904 13.8775C1.94404 13.4065 1.17854 13.1025 0.345035 13.045L0.332035 13.0445H-0.00146484V15.0445C0.0190352 15.044 0.0425352 15.044 0.0665352 15.044C1.00454 15.044 1.86904 15.3575 2.56154 15.8855L2.55154 15.878C2.92654 16.1895 3.41303 16.3785 3.94404 16.3785C3.96304 16.3785 3.98204 16.378 4.00104 16.378H3.99803C4.01354 16.3785 4.03154 16.3785 4.05004 16.3785C4.58154 16.3785 5.06904 16.1895 5.44854 15.875L5.44504 15.878C6.12754 15.3575 6.99203 15.044 7.93004 15.044C7.95404 15.044 7.97803 15.044 8.00204 15.0445H7.99854C8.02003 15.044 8.04554 15.044 8.07104 15.044C9.00954 15.044 9.87504 15.3575 10.5685 15.8855L10.5585 15.878C10.9345 16.1895 11.4215 16.3785 11.953 16.3785C11.969 16.3785 11.985 16.3785 12.001 16.378H11.9985C12.011 16.3785 12.026 16.3785 12.041 16.3785C12.5755 16.3785 13.066 16.1895 13.449 15.875L13.445 15.878C14.125 15.3575 14.988 15.044 15.9235 15.044C15.95 15.044 15.976 15.044 16.002 15.0445H15.998V13.0445L16 13.044Z" fill="black"/>
</g>
<defs>
<clipPath id="clip0_6_216">
<rect width="16" height="16" fill="white" transform="translate(0 0.37793)"/>
</clipPath>
</defs>
</svg>
