<svg width="16" height="16" viewBox="0 0 16 16" fill="none" xmlns="http://www.w3.org/2000/svg">
<g clip-path="url(#clip0_245_139)">
<path fill-rule="evenodd" clip-rule="evenodd" d="M0 8.00098C0 3.5827 3.58172 0.000976562 8 0.000976562C12.4183 0.000976562 16 3.5827 16 8.00098C16 12.4193 12.4183 16.001 8 16.001C3.58172 16.001 0 12.4193 0 8.00098ZM9.50942 4.70216C9.24777 4.57134 8.92368 4.48808 8.53715 4.4524V3.49798H7.68976V4.4524C7.42217 4.48214 7.16646 4.53863 6.92265 4.62188C6.67884 4.70513 6.46477 4.82109 6.28042 4.96976C6.10203 5.11247 5.95633 5.29087 5.84335 5.50495C5.73631 5.71308 5.68279 5.95689 5.68279 6.23638C5.68279 6.5575 5.74226 6.82509 5.86119 7.03917C5.98012 7.25325 6.1377 7.43759 6.33394 7.5922C6.53613 7.74681 6.76804 7.88061 7.02969 7.9936C7.29729 8.10658 7.57381 8.21957 7.85924 8.33255C8.1863 8.46338 8.42417 8.57934 8.57283 8.68043C8.72744 8.77557 8.80475 8.90937 8.80475 9.08182C8.80475 9.24833 8.74826 9.37915 8.63527 9.4743C8.52823 9.56944 8.37957 9.61702 8.18928 9.61702C7.95141 9.61702 7.76112 9.54268 7.6184 9.39402C7.47569 9.23941 7.40433 9.01938 7.40433 8.73395H5.54899C5.54899 9.39997 5.73928 9.92624 6.11986 10.3128C6.50045 10.6933 7.02375 10.9193 7.68976 10.9907V11.9362H8.53715V10.9907C9.20912 10.9253 9.73242 10.7201 10.1071 10.3752C10.4817 10.0303 10.669 9.56052 10.669 8.96586C10.669 8.64475 10.6006 8.37418 10.4638 8.15415C10.333 7.92818 10.1576 7.73789 9.93758 7.58328C9.7235 7.42867 9.47969 7.29785 9.20614 7.19081C8.93855 7.08377 8.67095 6.98268 8.40335 6.88753C8.11792 6.78644 7.90384 6.68237 7.76112 6.57534C7.6184 6.4683 7.54705 6.3345 7.54705 6.17394C7.54705 6.00149 7.60354 5.87661 7.71652 5.79931C7.82951 5.722 7.96331 5.68335 8.11792 5.68335C8.52823 5.68335 8.73339 5.94202 8.73339 6.45938H10.5887C10.5887 6.23341 10.553 6.01041 10.4817 5.79039C10.4163 5.56442 10.3033 5.35926 10.1427 5.17491C9.98217 4.98462 9.77107 4.82704 9.50942 4.70216Z" fill="black"/>
</g>
<defs>
<clipPath id="clip0_245_139">
<rect width="16" height="16" fill="white" transform="translate(0 0.000976562)"/>
</clipPath>
</defs>
</svg>
