<svg width="17" height="16" viewBox="0 0 17 16" fill="none" xmlns="http://www.w3.org/2000/svg">
<g clip-path="url(#clip0_6_580)">
<path d="M0.500012 6.4535V8.3335C0.500012 10.1135 4.08001 11.5535 8.50001 11.5535C12.92 11.5535 16.5 10.1135 16.5 8.3335V6.4535C14.78 7.8335 11.6265 8.547 8.50001 8.547C5.37351 8.547 2.22001 7.8335 0.500012 6.4535Z" fill="black"/>
<path d="M0.500012 10.9V12.78C0.500012 14.56 4.08001 16 8.50001 16C12.92 16 16.5 14.56 16.5 12.78V10.9C14.78 12.28 11.6265 12.9935 8.50001 12.9935C5.37351 12.9935 2.22001 12.28 0.500012 10.9Z" fill="black"/>
<path d="M8.50001 7.2135C9.70001 7.2135 10.84 7.107 11.86 6.9135C11.5135 6.6735 11.28 6.2735 11.28 5.8135V5.22H10.68C9.94651 5.22 9.34651 4.62 9.34651 3.8865V1.933C9.34651 1.473 9.58001 1.0665 9.93301 0.8265C9.47301 0.793 8.99301 0.773 8.49951 0.773C4.07951 0.773 0.499512 2.213 0.499512 3.993C0.499512 5.773 4.08001 7.2135 8.50001 7.2135Z" fill="black"/>
<path d="M14.6465 1.9335C14.6465 1.9335 14.593 1.907 14.5665 1.8935V0H12.613V1.9335H10.6795V3.887H12.613V5.8135H14.5665V3.887H16.5V1.9335H14.6465Z" fill="black"/>
</g>
<defs>
<clipPath id="clip0_6_580">
<rect width="16" height="16" fill="white" transform="translate(0.5)"/>
</clipPath>
</defs>
</svg>
