<svg width="16" height="16" viewBox="0 0 16 16" fill="none" xmlns="http://www.w3.org/2000/svg">
<g clip-path="url(#clip0_366_99)">
<path fill-rule="evenodd" clip-rule="evenodd" d="M8 14.001C11.3137 14.001 14 11.3147 14 8.00098C14 4.68727 11.3137 2.00098 8 2.00098C4.68629 2.00098 2 4.68727 2 8.00098C2 11.3147 4.68629 14.001 8 14.001ZM8 16.001C12.4183 16.001 16 12.4193 16 8.00098C16 3.5827 12.4183 0.000976562 8 0.000976562C3.58172 0.000976562 0 3.5827 0 8.00098C0 12.4193 3.58172 16.001 8 16.001Z" fill="black"/>
<path d="M5 11.001L9.49325 9.50098L11 5.00098L6.5 6.50098L5 11.001Z" fill="black"/>
</g>
<defs>
<clipPath id="clip0_366_99">
<rect width="16" height="16" fill="white" transform="translate(0 0.000976562)"/>
</clipPath>
</defs>
</svg>
