<svg width="16" height="16" viewBox="0 0 16 16" fill="none" xmlns="http://www.w3.org/2000/svg">
<g clip-path="url(#clip0_6_236)">
<path d="M12.3668 8.5015C12.3468 6.475 14.0193 5.5035 14.0938 5.455C13.1538 4.0795 11.6898 3.8915 11.1683 3.8695C9.92227 3.7435 8.73727 4.603 8.10477 4.603C7.47427 4.603 6.49827 3.888 5.46477 3.907C4.10677 3.927 2.85427 4.6965 2.15527 5.913C0.744267 8.3615 1.79377 11.9885 3.16927 13.9745C3.84127 14.9465 4.64277 16.038 5.69477 15.999C6.70777 15.9585 7.09127 15.3435 8.31577 15.3435C9.54027 15.3435 9.88477 15.999 10.9573 15.979C12.0473 15.9585 12.7383 14.9885 13.4058 14.0135C14.1773 12.886 14.4953 11.794 14.5138 11.738C14.4898 11.727 12.3878 10.922 12.3668 8.5015ZM10.3523 2.555C10.9108 1.8775 11.2878 0.9375 11.1848 0C10.3803 0.033 9.40527 0.536 8.82827 1.2115C8.31027 1.811 7.85727 2.768 7.97877 3.687C8.87677 3.757 9.79327 3.2305 10.3523 2.555Z" fill="black"/>
</g>
<defs>
<clipPath id="clip0_6_236">
<rect width="16" height="16" fill="white"/>
</clipPath>
</defs>
</svg>
