<svg width="17" height="16" viewBox="0 0 17 16" fill="none" xmlns="http://www.w3.org/2000/svg">
<g clip-path="url(#clip0_6_419)">
<path d="M10.8735 10.3735C10.8735 11.6845 9.81101 12.747 8.50001 12.747C7.18901 12.747 6.12651 11.6845 6.12651 10.3735C6.12651 9.0625 7.18901 8 8.50001 8C9.81101 8 10.8735 9.0625 10.8735 10.3735Z" fill="black"/>
<path d="M13.4465 4.7535L12.113 2H4.88651L3.55301 4.78H0.499512V16H16.4995V4.7535H13.4465ZM8.50001 14.5935C6.16951 14.5935 4.28001 12.704 4.28001 10.3735C4.28001 8.043 6.16951 6.1535 8.50001 6.1535C10.8305 6.1535 12.72 8.043 12.72 10.3735C12.72 12.704 10.8305 14.5935 8.50001 14.5935ZM14.8335 7.3335C14.443 7.329 14.1285 7.0115 14.1285 6.62C14.1285 6.226 14.448 5.9065 14.842 5.9065C15.236 5.9065 15.5555 6.226 15.5555 6.62C15.5555 6.6365 15.555 6.6525 15.554 6.669V6.667C15.529 7.0405 15.2195 7.3335 14.842 7.3335C14.839 7.3335 14.836 7.3335 14.8335 7.3335Z" fill="black"/>
</g>
<defs>
<clipPath id="clip0_6_419">
<rect width="16" height="16" fill="white" transform="translate(0.5)"/>
</clipPath>
</defs>
</svg>
