<svg width="16" height="17" viewBox="0 0 16 17" fill="none" xmlns="http://www.w3.org/2000/svg">
<g clip-path="url(#clip0_6_251)">
<path d="M8.04733 0.545898C8.19233 0.620898 8.24233 0.710898 8.20483 0.825898C8.17733 0.914898 8.09533 0.978398 7.99933 0.978398C7.98833 0.978398 7.97683 0.977398 7.96633 0.975898H7.96733C7.87783 0.973398 7.80333 0.913898 7.77783 0.832398L7.77733 0.830898C7.77083 0.811898 7.76733 0.789898 7.76733 0.766898C7.76733 0.686398 7.81233 0.616898 7.87883 0.581398L7.87983 0.580898L7.92733 0.550898L8.04733 0.545898Z" fill="black"/>
<path d="M4.49983 3.8534C4.21483 4.2609 3.88983 4.5834 3.38733 4.6609C3.15133 4.6929 2.87833 4.7109 2.60083 4.7109C2.53883 4.7109 2.47733 4.7099 2.41583 4.7084H2.42483C2.19483 4.7084 1.96733 4.7084 1.73733 4.7084C1.67483 4.7084 1.64983 4.7234 1.64983 4.7934C1.64983 6.0909 1.64983 7.3859 1.64983 8.6834C1.65133 9.3124 1.76833 9.9139 1.98133 10.4674L1.96983 10.4334C2.20383 11.1049 2.68533 11.6399 3.30183 11.9389L3.31733 11.9459C3.62233 12.0924 3.97683 12.1919 4.35033 12.2249L4.36233 12.2259C4.46933 12.2374 4.59333 12.2434 4.71883 12.2434C5.03633 12.2434 5.34433 12.2024 5.63733 12.1249L5.61233 12.1304C6.04033 12.0104 6.40983 11.8034 6.71733 11.5279L6.71483 11.5304C7.11683 11.1594 7.43883 10.7079 7.65533 10.2009L7.66483 10.1754C7.95083 9.5294 8.16683 8.7789 8.27483 7.9949L8.27983 7.9504C8.34983 7.4904 8.40483 7.0279 8.43233 6.5604C8.43233 6.3279 8.45733 6.0954 8.46733 5.8604C8.46733 5.6654 8.46733 5.4679 8.48233 5.2729C8.48233 5.2279 8.49733 5.2129 8.54233 5.2129C8.64983 5.2129 8.75983 5.2129 8.86733 5.2129C9.78983 5.2129 10.7123 5.2129 11.6348 5.2129C11.7223 5.2129 11.7398 5.2404 11.7348 5.3204C11.7173 5.7579 11.7023 6.1954 11.6498 6.6329C11.5808 7.2834 11.4513 7.8769 11.2648 8.4444L11.2823 8.3829C11.0988 8.9549 10.8638 9.4514 10.5738 9.9099L10.5898 9.8829C10.3978 10.2024 10.1848 10.4794 9.94333 10.7294L9.94483 10.7279C9.73183 10.9444 9.50583 11.1469 9.26733 11.3339L9.25233 11.3454C8.95133 11.5689 8.60983 11.7824 8.25183 11.9679L8.20983 11.9879C7.87183 12.1624 7.47733 12.3134 7.06583 12.4214L7.02483 12.4304C6.64283 12.5394 6.19683 12.6174 5.73783 12.6494L5.71733 12.6504C5.57033 12.6594 5.39783 12.6644 5.22483 12.6644C5.05183 12.6644 4.87933 12.6594 4.70883 12.6494L4.73233 12.6504C4.09083 12.6329 3.49133 12.4704 2.95933 12.1944L2.98233 12.2049C2.35683 11.8804 1.85733 11.3874 1.53383 10.7854L1.52483 10.7674C1.29933 10.3419 1.12583 9.8479 1.02983 9.3269L1.02483 9.2949C0.951831 8.9364 0.903331 8.5174 0.890331 8.0894L0.889831 8.0774C0.859831 7.3124 0.889831 6.5474 0.877331 5.7824C0.877331 5.1649 0.877331 4.5499 0.877331 3.9324C0.877331 3.8724 0.877331 3.8399 0.959831 3.8399H4.49983V3.8534Z" fill="black"/>
<path d="M4.24983 8.4884C4.24983 7.43173 4.24983 6.37506 4.24983 5.3184C4.24983 5.2384 4.27233 5.2209 4.34983 5.2209H7.47483C7.54733 5.2209 7.57233 5.2359 7.56983 5.3134C7.54983 5.8134 7.54983 6.3134 7.51483 6.8134C7.47183 7.5419 7.38283 8.2174 7.24883 8.8764L7.26483 8.7834C7.14833 9.3904 6.96383 9.9304 6.71533 10.4334L6.73233 10.3959C6.52533 10.8379 6.21433 11.2014 5.82883 11.4649L5.81983 11.4709C5.55883 11.6414 5.24433 11.7524 4.90633 11.7779L4.89983 11.7784C4.84133 11.7819 4.77283 11.7844 4.70383 11.7844C4.56583 11.7844 4.42983 11.7759 4.29633 11.7594L4.31233 11.7609C4.24733 11.7609 4.23983 11.7284 4.23983 11.6759C4.23983 11.0942 4.23983 10.5109 4.23983 9.9259L4.24983 8.4884Z" fill="black"/>
<path d="M11.6998 9.7084C11.7063 9.8299 11.7103 9.9724 11.7103 10.1159C11.7103 10.2594 11.7068 10.4019 11.6993 10.5434L11.7003 10.5234C11.7003 10.7959 11.6753 11.0684 11.6428 11.3409C11.5993 11.9064 11.4593 12.4289 11.2388 12.9064L11.2503 12.8784C11.1068 13.1754 10.9103 13.4249 10.6713 13.6254L10.6678 13.6284C10.3313 13.9054 9.93633 14.1264 9.50633 14.2709L9.48033 14.2784C9.04583 14.4244 8.54183 14.5259 8.01933 14.5624L8.00033 14.5634C7.81583 14.5814 7.60183 14.5914 7.38533 14.5914C6.76683 14.5914 6.16733 14.5084 5.59833 14.3524L5.64583 14.3634C5.26083 14.2664 4.92533 14.0934 4.64133 13.8599L4.64583 13.8634C4.40383 13.6614 4.25033 13.3599 4.25033 13.0224C4.25033 13.0139 4.25033 13.0054 4.25083 12.9974V12.9989C4.25083 12.9339 4.27333 12.9264 4.32833 12.9389C4.60933 13.0019 4.95483 13.0559 5.30633 13.0889L5.34083 13.0914C5.53383 13.1099 5.75783 13.1204 5.98433 13.1204C6.45183 13.1204 6.90883 13.0754 7.35083 12.9889L7.30583 12.9964C7.78783 12.8989 8.21383 12.7594 8.61583 12.5759L8.57833 12.5914C9.24833 12.2894 9.82533 11.9149 10.3363 11.4669L10.3283 11.4739C10.8783 11.0034 11.3298 10.4364 11.6613 9.7974L11.6758 9.7664L11.6998 9.7084Z" fill="black"/>
<path d="M12.1798 12.5534C12.6758 12.0509 13.0988 11.4744 13.4308 10.8429L13.4498 10.8034C13.8188 10.0899 14.0888 9.2609 14.2148 8.3854L14.2198 8.3434C14.2803 7.9324 14.3148 7.4579 14.3148 6.9759C14.3148 6.9604 14.3148 6.9444 14.3148 6.9289V6.9314C14.3148 6.2239 14.3148 5.5139 14.3148 4.8064C14.3148 4.7364 14.2973 4.7139 14.2248 4.7164C13.8073 4.7164 13.3923 4.7164 12.9748 4.7164C12.9488 4.7179 12.9188 4.7189 12.8883 4.7189C12.3868 4.7189 11.9413 4.4789 11.6598 4.1079L11.6568 4.1039C11.5943 4.0264 11.5318 3.9489 11.4718 3.8689C11.4968 3.8439 11.5243 3.8539 11.5493 3.8539H15.0218C15.0918 3.8539 15.1118 3.8689 15.1118 3.9414C15.1118 5.0914 15.1118 6.2439 15.1118 7.3939C15.0973 8.3099 14.8993 9.1754 14.5528 9.9614L14.5693 9.9189C14.3693 10.3809 14.1353 10.7789 13.8588 11.1434L13.8693 11.1289C13.4333 11.7054 12.8938 12.1784 12.2753 12.5279L12.2493 12.5414C12.2358 12.5509 12.2188 12.5564 12.2003 12.5564C12.1928 12.5564 12.1858 12.5554 12.1788 12.5539L12.1798 12.5534Z" fill="black"/>
<path d="M7.99983 1.0809C8.07033 1.2349 8.13883 1.3619 8.21383 1.4844L8.20483 1.4684C8.29883 1.6214 8.42533 1.7459 8.57483 1.8359L8.57983 1.8384C8.67483 1.8854 8.78683 1.9129 8.90533 1.9129C9.06383 1.9129 9.21133 1.8634 9.33233 1.7794L9.32983 1.7809C9.44733 1.7184 9.44483 1.7159 9.49483 1.8334C9.56533 2.0204 9.66033 2.1814 9.77733 2.3239L9.77483 2.3209C9.88433 2.4554 10.0498 2.5404 10.2348 2.5404C10.3113 2.5404 10.3843 2.5259 10.4513 2.4999L10.4473 2.5014C10.4773 2.5014 10.5148 2.4614 10.5348 2.4864C10.5548 2.5114 10.5198 2.5464 10.5023 2.5739C10.2223 2.9964 9.93983 3.4189 9.66233 3.8439C9.62983 3.8914 9.60483 3.9014 9.55233 3.8739C9.21433 3.7004 8.82083 3.5754 8.40583 3.5209L8.38733 3.5189C8.27183 3.5039 8.13783 3.4954 8.00183 3.4954C7.76533 3.4954 7.53533 3.5214 7.31383 3.5704L7.33483 3.5664C7.01333 3.6369 6.73033 3.7369 6.46433 3.8664L6.48733 3.8564C6.40733 3.8939 6.36983 3.8889 6.31983 3.8089C6.06983 3.4064 5.79483 3.0064 5.53233 2.6064L5.44983 2.4739C5.53883 2.4834 5.61933 2.5004 5.69683 2.5239L5.68733 2.5214C5.71783 2.5269 5.75283 2.5299 5.78883 2.5299C5.99483 2.5299 6.17683 2.4289 6.28883 2.2734L6.28983 2.2714C6.39533 2.1374 6.48033 1.9814 6.53683 1.8124L6.53983 1.8014C6.56233 1.7364 6.58983 1.7239 6.64983 1.7589C6.79333 1.8434 6.96533 1.8944 7.14883 1.8989C7.15283 1.8989 7.15833 1.8989 7.16283 1.8989C7.35983 1.8989 7.53733 1.8154 7.66233 1.6819C7.80533 1.5119 7.92033 1.3119 7.99633 1.0944L7.99983 1.0809Z" fill="black"/>
<path d="M11.8998 16.2259C11.5723 16.1684 11.2448 16.1059 10.9148 16.0534C10.7173 16.0209 10.5173 16.0009 10.3198 15.9784C9.81983 15.9159 9.31983 15.8784 8.83483 15.8484C8.37983 15.8184 7.92233 15.8209 7.46733 15.8334C7.05983 15.8334 6.65233 15.8784 6.24733 15.9284C5.72983 15.9909 5.21483 16.0559 4.70233 16.1559C4.56233 16.1834 4.42483 16.2034 4.28483 16.2234C4.25233 16.2234 4.19983 16.2684 4.18983 16.1784C4.17983 16.0884 4.23483 16.0809 4.27483 16.0634C4.58983 15.9384 4.90983 15.8334 5.22983 15.7384C5.61683 15.6139 6.08533 15.5049 6.56533 15.4324L6.61733 15.4259C6.93233 15.3834 7.24733 15.3559 7.56483 15.3309C7.73033 15.3174 7.92283 15.3099 8.11733 15.3099C8.22033 15.3099 8.32233 15.3119 8.42433 15.3164L8.40983 15.3159C8.89933 15.3359 9.35983 15.3864 9.81033 15.4649L9.74733 15.4559C10.2888 15.5424 10.7648 15.6609 11.2243 15.8144L11.1598 15.7959C11.4098 15.8784 11.6798 15.9759 11.9398 16.0659C11.9588 16.0724 11.9753 16.0809 11.9903 16.0914C12.0128 16.1074 12.0268 16.1329 12.0268 16.1624C12.0268 16.1689 12.0263 16.1754 12.0248 16.1814C12.0248 16.2289 11.9923 16.2309 11.9698 16.2309H11.8998V16.2259Z" fill="black"/>
<path d="M9.36983 1.4884C9.36933 1.4829 9.36933 1.4764 9.36933 1.4699C9.36933 1.3859 9.40383 1.3104 9.45983 1.2564C9.48583 1.2254 9.52433 1.2059 9.56783 1.2059C9.57833 1.2059 9.58883 1.2069 9.59833 1.2094H9.59733C9.64633 1.2264 9.68133 1.2709 9.68483 1.3239C9.68783 1.3389 9.68983 1.3569 9.68983 1.3749C9.68983 1.4679 9.64283 1.5499 9.57083 1.5984L9.56983 1.5989C9.55133 1.6104 9.52883 1.6174 9.50483 1.6174C9.48083 1.6174 9.45833 1.6104 9.43933 1.5984C9.40033 1.5754 9.37433 1.5349 9.36983 1.4884Z" fill="black"/>
<path d="M6.60733 1.4434C6.60733 1.5284 6.59233 1.5909 6.52983 1.6159C6.51733 1.6199 6.50233 1.6219 6.48733 1.6219C6.43633 1.6219 6.39083 1.5969 6.36283 1.5589C6.31783 1.5094 6.28983 1.4429 6.28983 1.3704C6.28983 1.3409 6.29433 1.3129 6.30283 1.2864L6.30233 1.2884C6.31183 1.2449 6.34733 1.2114 6.39183 1.2059C6.39333 1.2059 6.39533 1.2059 6.39733 1.2059C6.46083 1.2059 6.51683 1.2384 6.54983 1.2879C6.58483 1.3299 6.60633 1.3844 6.60733 1.4434Z" fill="black"/>
<path d="M5.42233 2.2609C5.42233 2.3059 5.40483 2.3609 5.33233 2.3634C5.25333 2.3569 5.19183 2.2914 5.19183 2.2114C5.19183 2.2079 5.19183 2.2039 5.19233 2.2004C5.19233 2.1479 5.19233 2.0784 5.27483 2.0734C5.35733 2.0684 5.42233 2.1684 5.42233 2.2609Z" fill="black"/>
<path d="M10.6498 2.3634C10.5673 2.3634 10.5648 2.3009 10.5598 2.2484C10.5598 2.2449 10.5593 2.2414 10.5593 2.2374C10.5593 2.1594 10.6183 2.0949 10.6938 2.0859C10.7638 2.0859 10.7868 2.1209 10.7893 2.1784C10.7898 2.1834 10.7903 2.1899 10.7903 2.1959C10.7903 2.2794 10.7293 2.3489 10.6498 2.3634Z" fill="black"/>
</g>
<defs>
<clipPath id="clip0_6_251">
<rect width="16" height="16" fill="white" transform="translate(0 0.37793)"/>
</clipPath>
</defs>
</svg>
