<svg width="17" height="16" viewBox="0 0 17 16" fill="none" xmlns="http://www.w3.org/2000/svg">
<g clip-path="url(#clip0_6_430)">
<path d="M14.87 2.36545C13.215 1.03545 10.7925 1.25045 9.28752 2.75045L8.80002 3.25045C8.72352 3.32845 8.61752 3.37645 8.50002 3.37645C8.38252 3.37645 8.27652 3.32845 8.20002 3.25045L7.71252 2.75045C6.21252 1.25045 3.78502 1.02795 2.13002 2.35795C1.17702 3.12195 0.572021 4.28645 0.572021 5.59195C0.572021 6.73495 1.03552 7.76945 1.78502 8.51795L8.06252 14.7505C8.17502 14.8615 8.32952 14.93 8.50002 14.93C8.67052 14.93 8.82502 14.8615 8.93752 14.7505L15.215 8.51795C15.962 7.76995 16.424 6.73695 16.424 5.59595C16.424 4.29245 15.8205 3.12945 14.878 2.37145L14.87 2.36545Z" fill="black"/>
<path d="M13.75 3.25045C13.75 3.66445 13.1905 4.00045 12.5 4.00045C11.8095 4.00045 11.25 3.66445 11.25 3.25045C11.25 2.83645 11.8095 2.50045 12.5 2.50045C13.1905 2.50045 13.75 2.83645 13.75 3.25045Z" fill="black"/>
</g>
<defs>
<clipPath id="clip0_6_430">
<rect width="16" height="16" fill="white" transform="translate(0.5)"/>
</clipPath>
</defs>
</svg>
