<svg width="16" height="17" viewBox="0 0 16 17" fill="none" xmlns="http://www.w3.org/2000/svg">
<g clip-path="url(#clip0_6_390)">
<path d="M13.8799 3.41175C14.2314 3.11725 14.4534 2.67825 14.4534 2.18725C14.4534 1.30725 13.7399 0.59375 12.8599 0.59375C11.9799 0.59375 11.2664 1.30725 11.2664 2.18725C11.2664 2.57825 11.4074 2.93675 11.6414 3.21425L11.6394 3.21175C11.9324 3.56225 12.3699 3.78325 12.8589 3.78325C13.2484 3.78325 13.6054 3.64275 13.8819 3.40975L13.8799 3.41175Z" fill="black"/>
<path d="M14.3734 5.08475L13.5669 6.91125L12.0334 4.30475C11.9744 4.20375 11.8989 4.11975 11.8089 4.05325L11.8069 4.05175L8.22038 1.30525C8.07337 1.19475 7.88787 1.12875 7.68687 1.12875C7.63987 1.12875 7.59338 1.13225 7.54838 1.13925L7.55338 1.13875L3.61337 1.80525L3.91987 3.55875L7.47337 2.93225L9.26688 4.29875L7.02038 6.96525C6.80188 7.18475 6.66687 7.48725 6.66687 7.82125C6.66687 7.82275 6.66687 7.82425 6.66687 7.82575V7.82775C6.66687 8.24175 6.87687 8.60725 7.19588 8.82275L7.19987 8.82525L9.67338 10.2517L7.00688 12.2517L8.04037 13.5852L11.7539 10.7653C11.9589 10.6062 12.0894 10.3602 12.0894 10.0837C12.0894 10.0632 12.0889 10.0428 12.0874 10.0223V10.0247C12.0614 9.73725 11.8949 9.49325 11.6584 9.36025L11.6539 9.35825L10.0804 8.51175L11.4669 6.85825L12.9134 9.31175C13.0699 9.57675 13.3544 9.75175 13.6794 9.75175H13.7269C14.0694 9.72975 14.3579 9.51925 14.4914 9.22425L14.4939 9.21875L16.0004 5.79875L14.3734 5.08475Z" fill="black"/>
<path d="M5.77338 8.53825L4.04688 11.4447L0.046875 14.7782L1.14037 16.1117L5.27388 12.6718C5.34938 12.6112 5.41138 12.5382 5.45837 12.4552L5.46037 12.4517L6.99388 9.87175C6.41838 9.61575 5.97938 9.14025 5.77838 8.55425L5.77338 8.53825Z" fill="black"/>
</g>
<defs>
<clipPath id="clip0_6_390">
<rect width="16" height="16" fill="white" transform="translate(0 0.37793)"/>
</clipPath>
</defs>
</svg>
