<svg width="16" height="16" viewBox="0 0 16 16" fill="none" xmlns="http://www.w3.org/2000/svg">
<g clip-path="url(#clip0_599_1306)">
<path d="M15.47 5.22C14.28 2 11.23 0 7.97 0C7.05 0 6.11 0.16 5.19 0.5C2.2 1.6 0.26 4.31 0 7.3V8.69C0.06 9.39 0.22 10.09 0.47 10.78C1.55 13.71 4.18 15.63 7.1 15.95C7.1 15.95 7.93 16.04 8.82 15.95C9.47 15.88 10.11 15.74 10.75 15.5C13.97 14.31 15.97 11.26 15.97 8C15.97 7.08 15.81 6.14 15.47 5.22ZM12.92 2.94C13.71 3.71 14.32 4.68 14.67 5.72L13.25 6.2C12.97 5.38 12.5 4.62 11.87 4.01L12.92 2.94ZM7.97 0.92C9.09 0.92 10.15 1.17 11.13 1.66L10.46 3C9.69 2.62 8.86 2.42 7.99 2.42L7.95 1.34L7.97 0.92ZM5.76 1.29L6.23 2.71C5.41 2.98 4.65 3.46 4.04 4.08L2.97 3.03C3.74 2.24 4.71 1.63 5.76 1.29ZM0.94 7.97C0.94 6.87 1.19 5.8 1.68 4.81L3.03 5.49C2.64 6.26 2.44 7.1 2.44 7.97L0.94 8.01V7.97ZM3.03 12.98C2.24 12.2 1.64 11.24 1.29 10.19L2.72 9.72C2.99 10.54 3.46 11.3 4.08 11.92L3.03 12.98ZM5.08 7.74L7.83 4.78L10.79 7.52C11.07 7.75 11.24 8.09 11.27 8.48C11.28 9.22 10.7 9.85 9.97 9.89C9.57 9.89 9.21 9.75 8.97 9.5L8.04 8.65L7.98 8.59L7.06 9.58C7.01 9.63 6.95 9.68 6.88 9.73H6.87C6.67 9.88 6.42 9.97 6.16 9.98C5.41 10 4.78 9.42 4.75 8.68C4.75 8.32 4.86 8 5.08 7.74ZM4.81 14.27L5.49 12.93C6.27 13.32 7.11 13.52 7.99 13.52L8.01 15.02H7.99C6.87 15.02 5.8 14.77 4.81 14.27ZM6.79 10.88L7.04 10.61L8.01 9.57L9.05 10.53L9.33 10.78L6.79 10.88ZM10.18 14.68L9.72 13.25C10.54 12.98 11.3 12.51 11.92 11.89L12.98 12.95C12.2 13.74 11.23 14.33 10.18 14.68ZM14.27 11.17L12.94 10.49C13.34 9.71 13.54 8.86 13.54 7.97L14.63 7.92L15.04 7.95C15.04 9.1 14.78 10.18 14.27 11.17Z" fill="black"/>
</g>
<defs>
<clipPath id="clip0_599_1306">
<rect width="16" height="16" fill="white"/>
</clipPath>
</defs>
</svg>
