<svg width="17" height="16" viewBox="0 0 17 16" fill="none" xmlns="http://www.w3.org/2000/svg">
<path d="M14.0999 3.26689H14.0334C13.4334 3.26689 12.9669 3.73339 12.9669 4.33339V5.53339H12.3004V3.33339C12.2339 2.73339 11.7669 2.33339 11.1669 2.39989C10.6334 2.46639 10.2334 2.86639 10.2334 3.33339V5.53339H9.56688V2.46689C9.56688 1.86689 9.10038 1.40039 8.50038 1.40039C7.90038 1.40039 7.43388 1.86689 7.43388 2.46689V5.53339H6.76738V3.13339C6.76738 2.53339 6.30088 2.06689 5.70088 2.06689C5.10088 2.06689 4.70088 2.53339 4.70088 3.13339V8.99989H3.96738V6.66639C3.96738 6.53289 3.90088 6.46639 3.76738 6.46639C3.70088 6.46639 3.63388 6.53289 3.56738 6.59989L2.56738 7.53339C2.16738 7.93339 1.90088 8.46689 1.90088 8.99989V10.1999C1.90088 10.7334 2.10088 11.1999 2.50088 11.5334L4.83438 13.7334C5.36788 14.2669 6.16788 14.5334 6.90088 14.5334H12.4344C13.9679 14.5334 15.2344 13.2669 15.2344 11.7334V4.33339C15.1679 3.73339 14.6999 3.26689 14.0999 3.26689Z" fill="black"/>
</svg>
