<svg width="16" height="17" viewBox="0 0 16 17" fill="none" xmlns="http://www.w3.org/2000/svg">
<g clip-path="url(#clip0_6_404)">
<path d="M5.66651 11.0644C5.66651 11.9849 4.92051 12.7309 4.00001 12.7309C3.07951 12.7309 2.33351 11.9849 2.33351 11.0644C2.33351 10.1439 3.07951 9.39791 4.00001 9.39791C4.92051 9.39791 5.66651 10.1439 5.66651 11.0644Z" fill="black"/>
<path d="M13.6665 11.0644C13.6665 11.9849 12.9205 12.7309 12 12.7309C11.0795 12.7309 10.3335 11.9849 10.3335 11.0644C10.3335 10.1439 11.0795 9.39791 12 9.39791C12.9205 9.39791 13.6665 10.1439 13.6665 11.0644Z" fill="black"/>
<path d="M15.56 8.09141C15.42 7.27741 14.8035 6.63841 14.013 6.46691L14 6.46441L12 6.06441L10.6665 4.73091L4.66651 4.02441L2.15301 5.31791L-0.000488281 4.15791V5.67141L0.666012 6.03141V7.36491L-0.000488281 8.69841V10.6984H1.36601C1.57601 9.41741 2.67501 8.45191 3.99951 8.45191C5.32401 8.45191 6.42251 9.41741 6.63051 10.6829L6.63251 10.6984H9.36601C9.57601 9.41741 10.675 8.45191 11.9995 8.45191C13.324 8.45191 14.4225 9.41741 14.6305 10.6829L14.6325 10.6984H15.999L15.56 8.09141Z" fill="black"/>
</g>
<defs>
<clipPath id="clip0_6_404">
<rect width="16" height="16" fill="white" transform="translate(0 0.37793)"/>
</clipPath>
</defs>
</svg>
