<svg width="16" height="16" viewBox="0 0 16 16" fill="none" xmlns="http://www.w3.org/2000/svg">
<g clip-path="url(#clip0_14_351)">
<path d="M15.899 11.3521L6.72686 4.39362C6.56047 4.26755 6.32322 4.38754 6.32322 4.59777V15.7441C6.32322 15.9681 6.58831 16.0832 6.74901 15.9293L10.4169 12.4163C10.4574 12.3776 10.5093 12.3533 10.5646 12.3479L15.7731 11.81C16.0018 11.7863 16.0824 11.4916 15.899 11.3521Z" fill="black"/>
<path d="M5.2363 5.72408C5.19644 5.58905 5.05599 5.51321 4.92281 5.55481L2.17956 6.40914C2.04638 6.45074 1.97078 6.59377 2.01064 6.72879L2.19 7.33515C2.22986 7.47018 2.37031 7.54601 2.50349 7.50441L5.24642 6.65008C5.3796 6.60848 5.4552 6.46546 5.41503 6.33043L5.2363 5.72408Z" fill="black"/>
<path d="M5.36979 3.57001L2.82109 2.22196C2.69772 2.15668 2.54619 2.20564 2.48324 2.33107L2.20076 2.89358C2.13749 3.01933 2.18652 3.17388 2.30989 3.23947L4.85891 4.58753C4.98228 4.6528 5.13381 4.60385 5.19676 4.47842L5.47924 3.9159C5.54251 3.79015 5.49316 3.6356 5.36979 3.57001Z" fill="black"/>
<path d="M8.84788 4.49921C8.94816 4.59713 9.10665 4.59329 9.20218 4.49057L11.1808 2.35986C11.2764 2.25715 11.2723 2.09461 11.172 1.99637L10.7269 1.56121C10.6266 1.4633 10.4681 1.46714 10.3726 1.56985L8.39394 3.70056C8.29841 3.80327 8.30252 3.96582 8.4028 4.06405L8.84788 4.49921Z" fill="black"/>
<path d="M6.51321 0.251953L6.47456 3.19898C6.47271 3.33999 6.58422 3.45581 6.72362 3.45768L7.33441 3.46588C7.47381 3.46775 7.58832 3.35496 7.59017 3.21395L7.62882 0.266922C7.63067 0.125915 7.51916 0.0100889 7.37976 0.00821844L6.76897 2.29324e-05C6.62957 -0.00184757 6.51506 0.110945 6.51321 0.251953Z" fill="black"/>
</g>
<defs>
<clipPath id="clip0_14_351">
<rect width="16" height="16" fill="white"/>
</clipPath>
</defs>
</svg>
