<svg width="16" height="17" viewBox="0 0 16 17" fill="none" xmlns="http://www.w3.org/2000/svg">
<g clip-path="url(#clip0_6_418)">
<path d="M11.1735 0.37793C10.4345 1.31893 9.29698 1.91793 8.01948 1.91793C8.01248 1.91793 8.00598 1.91793 7.99948 1.91793C7.99398 1.91793 7.98798 1.91793 7.98148 1.91793C6.70398 1.91793 5.56598 1.31893 4.83398 0.38643L4.82748 0.37793L0.000976562 1.51143V6.69793H2.14098V16.3779H13.861V6.69793H16.001V1.51143L11.1735 0.37793ZM7.99998 12.3314C6.40948 12.3314 5.11998 11.0419 5.11998 9.45143C5.11998 7.86093 6.40948 6.57143 7.99998 6.57143C9.59048 6.57143 10.88 7.86093 10.88 9.45143C10.88 9.45343 10.88 9.45593 10.88 9.45793C10.88 11.0449 9.59348 12.3314 8.00648 12.3314C8.00398 12.3314 8.00248 12.3314 7.99998 12.3314Z" fill="black"/>
</g>
<defs>
<clipPath id="clip0_6_418">
<rect width="16" height="16" fill="white" transform="translate(0 0.37793)"/>
</clipPath>
</defs>
</svg>
