<svg width="16" height="16" viewBox="0 0 16 16" fill="none" xmlns="http://www.w3.org/2000/svg">
<g clip-path="url(#clip0_6_233)">
<path d="M15.9465 12.7132C15.272 11.4572 14.5715 10.3817 13.792 9.37116L13.833 9.42666C13.833 9.42666 14.593 7.00666 15.693 7.00666L13.7465 5.53316C13.6755 5.51516 13.5945 5.50466 13.5105 5.50466C13.1965 5.50466 12.9165 5.65016 12.7345 5.87766L12.733 5.87966C12.542 6.14366 12.3685 6.44366 12.226 6.76066L12.213 6.79316C11.9695 6.29816 11.676 5.87266 11.3295 5.49616L11.333 5.50016C12.0245 4.56916 12.5625 3.47666 12.884 2.29516L12.9 2.22716C13.3665 0.520664 14.5 0.313664 14.5 0.313664C14.16 0.112164 13.751 -0.00683594 13.314 -0.00683594C12.639 -0.00683594 12.0305 0.277164 11.601 0.732664L11.6 0.733664C10.04 0.593664 10.4065 1.82716 10.4065 1.82716C11.153 1.42716 11.3 2.16066 11.3 2.16066C11.3335 2.31066 11.3525 2.48266 11.3525 2.65916C11.3525 3.49566 10.9245 4.23216 10.2755 4.66166L10.2665 4.66716C9.93046 4.47516 9.54196 4.31766 9.13196 4.21416L9.09996 4.20716C9.17296 4.07416 9.21696 3.91616 9.21996 3.74816V3.74716C9.18146 3.14166 8.68096 2.66516 8.06896 2.66516C8.04496 2.66516 8.02046 2.66616 7.99696 2.66716H8.00046C7.97946 2.66566 7.95546 2.66516 7.93046 2.66516C7.32346 2.66516 6.82546 3.13466 6.78046 3.73016V3.73416C6.78346 3.90316 6.82746 4.06116 6.90296 4.19966L6.90046 4.19416C6.45746 4.30916 6.06946 4.47116 5.71146 4.67966L5.73346 4.66766C5.07546 4.23266 4.64796 3.49616 4.64796 2.65966C4.64796 2.48316 4.66696 2.31116 4.70346 2.14516L4.70046 2.16116C4.70046 2.16116 4.84696 1.42766 5.59396 1.82766C5.59396 1.82766 5.96046 0.594164 4.40046 0.734164C3.97046 0.277664 3.36146 -0.00633594 2.68646 -0.00633594C2.24946 -0.00633594 1.83996 0.112664 1.48946 0.320164L1.50046 0.314164C1.50046 0.314164 2.66696 0.520664 3.10046 2.22766C3.43746 3.47766 3.97546 4.56966 4.68546 5.52716L4.66696 5.50116C4.32396 5.87366 4.03046 6.29966 3.80096 6.76266L3.78696 6.79416C3.63146 6.44466 3.45796 6.14466 3.25646 5.86566L3.26696 5.88066C3.08346 5.65116 2.80346 5.50566 2.48946 5.50566C2.40596 5.50566 2.32446 5.51616 2.24696 5.53566L2.25396 5.53416L0.30746 7.00766C1.40746 7.00766 2.16746 9.42766 2.16746 9.42766C1.42896 10.3832 0.72846 11.4582 0.11646 12.5882L0.0539597 12.7142C-0.19954 13.4942 0.56046 14.7877 0.56046 14.7877L4.36046 8.78766C5.45146 8.47366 6.70496 8.29266 8.00046 8.29266C9.29596 8.29266 10.5495 8.47316 11.7365 8.81116L11.6405 8.78766L15.4405 14.7877C15.4405 14.7877 16.2005 13.4942 15.947 12.7142L15.9465 12.7132Z" fill="black"/>
<path d="M11.16 9.77316C10.5665 9.85966 10.5665 10.8132 9.82646 10.6397C9.38196 10.4907 8.99946 10.2632 8.67696 9.97066L8.67946 9.97316C8.50246 9.81766 8.26846 9.72316 8.01296 9.72316C7.75746 9.72316 7.52346 9.81816 7.34496 9.97416L7.34596 9.97316C7.02096 10.2657 6.63146 10.4937 6.20196 10.6337L6.17946 10.6402C5.41946 10.8137 5.41946 9.86016 4.84596 9.77366C4.27246 9.68716 3.90596 10.6672 3.90596 10.6672C3.90596 10.6672 4.49946 14.2737 5.33246 15.0472C6.16546 15.8207 7.99896 16.0007 7.99896 16.0007C7.99896 16.0007 9.79246 15.8272 10.6655 15.0472C11.5385 14.2672 12.092 10.6672 12.092 10.6672C12.092 10.6672 11.752 9.68716 11.1585 9.77366L11.16 9.77316ZM9.69346 14.3597C9.54246 14.3562 9.39846 14.3322 9.26246 14.2902L9.27346 14.2932C8.89246 14.1757 8.45396 14.1082 7.99996 14.1082C7.54596 14.1082 7.10796 14.1757 6.69496 14.3017L6.72646 14.2932C6.60146 14.3322 6.45746 14.3567 6.30846 14.3597H6.30646C5.54646 14.3597 6.14646 12.6332 6.55996 12.7132C7.31996 12.8667 7.99996 12.9397 7.99996 12.9397C7.99996 12.9397 8.66646 12.8662 9.43996 12.7132C9.85346 12.6667 10.4535 14.3597 9.69346 14.3597Z" fill="black"/>
</g>
<defs>
<clipPath id="clip0_6_233">
<rect width="16" height="16" fill="white"/>
</clipPath>
</defs>
</svg>
