<svg width="16" height="17" viewBox="0 0 16 17" fill="none" xmlns="http://www.w3.org/2000/svg">
<g clip-path="url(#clip0_6_315)">
<path d="M16.0002 6.72415C16.0002 6.71765 16.0002 6.71015 16.0002 6.70215C16.0002 5.04515 14.6572 3.70215 13.0002 3.70215C11.9612 3.70215 11.0452 4.23065 10.5072 5.03315L10.5002 5.04415C9.95518 4.23065 9.03918 3.70265 8.00018 3.70265C6.96118 3.70265 6.04518 4.23115 5.50718 5.03365L5.50018 5.04465C4.95118 4.26015 4.05218 3.75365 3.03418 3.75365C1.37718 3.75365 0.0341797 5.09665 0.0341797 6.75365C0.0341797 8.23365 1.10568 9.46315 2.51518 9.70915L2.53318 9.71165C2.52968 9.76465 2.52818 9.82615 2.52818 9.88815C2.52818 9.95015 2.53018 10.0121 2.53368 10.0731L2.53318 10.0646C2.56668 11.6956 3.89668 13.0046 5.53268 13.0046C6.55118 13.0046 7.45118 12.4971 7.99368 11.7211L8.00018 11.7116C8.54518 12.5251 9.46118 13.0531 10.5002 13.0531C12.1572 13.0531 13.5002 11.7101 13.5002 10.0531C13.5002 10.0526 13.5002 10.0521 13.5002 10.0511C13.4947 9.92615 13.4832 9.80865 13.4647 9.69365L13.4672 9.71115C14.9112 9.47765 16.0007 8.23965 16.0007 6.74765C16.0007 6.73965 16.0007 6.73115 16.0007 6.72315L16.0002 6.72415ZM8.00018 5.04415C8.92068 5.04415 9.66668 5.79015 9.66668 6.71065C9.66218 6.87865 9.63568 7.03865 9.59018 7.19015L9.59368 7.17715C8.92668 7.39115 8.37668 7.81315 8.00718 8.36615L8.00018 8.37715C7.62168 7.81865 7.07218 7.40065 6.42818 7.19615L6.40718 7.19015C6.36518 7.05165 6.33868 6.89165 6.33368 6.72615V6.72365C6.33368 6.71965 6.33368 6.71515 6.33368 6.71015C6.33368 5.78965 7.07968 5.04415 8.00018 5.04415ZM1.33368 6.72415C1.33368 5.80365 2.07968 5.05765 3.00018 5.05765C3.92068 5.05765 4.66668 5.80365 4.66668 6.72415C4.66218 6.89215 4.63568 7.05215 4.59018 7.20365L4.59368 7.19065C3.92518 7.39915 3.37318 7.81715 3.00018 8.36665L2.99368 8.37715C2.08068 8.37365 1.34118 7.63565 1.33368 6.72415ZM5.50018 11.7111C4.57968 11.7111 3.83368 10.9651 3.83368 10.0446C3.83818 9.87665 3.86468 9.71665 3.91018 9.56515L3.90668 9.57815C4.57368 9.36415 5.12368 8.94215 5.49318 8.38915L5.50018 8.37815C5.87868 8.93665 6.42818 9.35465 7.07218 9.55915L7.09318 9.56515C7.13518 9.70365 7.16168 9.86365 7.16668 10.0291V10.0316C7.16668 10.0356 7.16668 10.0401 7.16668 10.0451C7.16668 10.9656 6.42068 11.7111 5.50018 11.7111ZM10.5002 11.7111C9.57968 11.7111 8.83368 10.9651 8.83368 10.0446C8.83818 9.87665 8.86468 9.71665 8.91018 9.56515L8.90668 9.57815C9.57368 9.36415 10.1237 8.94215 10.4932 8.38915L10.5002 8.37815C10.8787 8.93665 11.4282 9.35465 12.0722 9.55915L12.0932 9.56515C12.1352 9.70365 12.1617 9.86365 12.1667 10.0291V10.0316C12.1667 10.0356 12.1667 10.0401 12.1667 10.0451C12.1667 10.9656 11.4207 11.7111 10.5002 11.7111ZM13.0067 8.37765C12.6282 7.81515 12.0757 7.39465 11.4277 7.19015L11.4067 7.18465C11.3647 7.04615 11.3382 6.88615 11.3332 6.72065V6.71815C11.3332 6.71615 11.3332 6.71365 11.3332 6.71165C11.3332 5.79115 12.0792 5.04515 12.9997 5.04515C13.9202 5.04515 14.6662 5.79115 14.6662 6.71165C14.6662 7.62965 13.9237 8.37415 13.0067 8.37765Z" fill="black"/>
</g>
<defs>
<clipPath id="clip0_6_315">
<rect width="16" height="16" fill="white" transform="translate(0 0.37793)"/>
</clipPath>
</defs>
</svg>
