<svg width="16" height="17" viewBox="0 0 16 17" fill="none" xmlns="http://www.w3.org/2000/svg">
<g clip-path="url(#clip0_6_459)">
<path d="M13.7335 2.84443C15.1335 4.24443 16 6.24443 16 8.37793C16 10.1114 15.4665 11.7114 14.5335 12.9779C14.3335 12.9114 14.067 12.7779 13.867 12.7114C13.667 12.5779 13.5335 12.5779 13.4005 12.4449C14.0005 10.9114 14.334 9.11143 14.334 7.24493C14.334 7.04493 14.334 6.84493 14.334 6.64493C14.2675 5.24493 14.0675 3.91143 13.734 2.64493L13.7335 2.84443ZM11.6665 1.31143C12.2665 2.91143 12.6 4.77793 12.733 6.71143V6.77793C12.733 6.97793 12.733 7.17793 12.733 7.44443C12.733 8.97793 12.4665 10.3779 11.9995 11.7779V11.7114C11.666 11.5114 11.333 11.2449 10.9995 10.9779C11.1995 9.91143 11.333 8.64443 11.333 7.31143C11.333 6.57793 11.2665 5.84493 11.1995 5.17793V5.24443C10.9995 3.57793 10.733 2.11093 10.1995 0.71093L10.266 0.84443C10.9325 0.91093 11.333 1.11143 11.6665 1.31143ZM7.40001 16.3779C6.93351 15.9114 6.46651 15.5114 6.06651 15.0444C6.46651 14.8444 6.93301 14.6444 7.33301 14.3779C7.99951 15.0444 8.79951 15.7114 9.59951 16.2444L9.66601 16.3109C9.13251 16.3109 8.59951 16.3774 7.99951 16.3774C7.79951 16.3774 7.60001 16.3779 7.40001 16.3779ZM11.5335 15.5114L11.4 15.4449C10.3335 14.8449 9.40001 14.1784 8.60001 13.4449C9.13351 13.0449 9.66651 12.6449 10.2 12.1784C11.0665 12.8449 12 13.5119 13.0665 14.0449L13.133 14.1114C13.1995 14.1779 13.333 14.1779 13.3995 14.2449C12.933 14.7114 12.2665 15.1784 11.5335 15.5114ZM2.80001 14.4444C1.86651 13.6444 1.06651 12.5779 0.600012 11.4444V11.3779C1.20001 10.9779 1.93351 10.5779 2.66651 10.2444L2.73301 10.1779C4.79951 9.24443 7.13301 8.51143 9.66651 8.11143H9.80001C9.73351 9.11143 9.60001 10.0449 9.46651 10.9114V10.7779C8.13301 11.9779 6.66651 12.9779 5.00001 13.7779L4.86651 13.8444C4.26651 14.1109 3.53301 14.3109 2.86651 14.5109L2.80001 14.4444ZM8.60001 0.37793C8.80001 0.91143 9.00001 1.44443 9.13351 1.97793C7.00001 2.04443 5.00001 2.51143 3.13351 3.17793L3.26701 3.11143C2.46701 3.44493 1.80051 3.77793 1.13351 4.11143L1.26701 4.04493C2.73351 1.84493 5.20051 0.37843 8.00051 0.37843C8.20051 0.37843 8.40001 0.37793 8.60001 0.37793ZM9.86651 6.51143C6.93301 6.97793 4.33301 7.77793 1.93301 8.84493L2.13301 8.77843C1.33301 9.11193 0.666512 9.51193 0.0665117 9.84493L0.133012 9.77843C0.0665117 9.37843 -0.000488281 8.91193 -0.000488281 8.44493V8.37843C-0.000488281 7.71193 0.0660117 6.97843 0.266012 6.37843V6.44493C1.26601 5.77843 2.46601 5.17843 3.73251 4.71143L3.86601 4.64493C5.53251 3.97843 7.53251 3.57843 9.59951 3.57843C9.73301 4.17843 9.79951 4.71193 9.86601 5.31193C9.86601 5.71193 9.86651 6.11143 9.86651 6.51143Z" fill="black"/>
</g>
<defs>
<clipPath id="clip0_6_459">
<rect width="16" height="16" fill="white" transform="translate(0 0.37793)"/>
</clipPath>
</defs>
</svg>
