<svg width="17" height="16" viewBox="0 0 17 16" fill="none" xmlns="http://www.w3.org/2000/svg">
<g clip-path="url(#clip0_6_372)">
<path d="M8.77978 0C4.36128 0 0.779785 3.5815 0.779785 8C0.779785 12.4185 4.36128 16 8.77978 16C10.0263 16 11.0533 15.3335 11.0533 14.24C11.0533 12.6 10.5998 12.0865 10.5998 11.1265C10.5998 7.553 16.2198 9.733 16.2198 5.68C16.2198 3 12.8398 0 8.77978 0ZM3.88629 10.2535C3.20579 10.2385 2.65979 9.6835 2.65979 9.0005C2.65979 8.3085 3.22079 7.747 3.91329 7.747C4.60579 7.747 5.16628 8.308 5.16678 9C5.16678 9.692 4.60579 10.254 3.91329 10.254C3.90379 10.254 3.89579 10.254 3.88629 10.2535ZM4.77979 6.2535C4.77779 6.2535 4.77529 6.2535 4.77329 6.2535C4.08129 6.2535 3.51979 5.6925 3.51979 5C3.51979 4.3075 4.08079 3.7465 4.77329 3.7465C5.46529 3.7465 6.02678 4.3075 6.02678 5C6.02678 5.69 5.46879 6.2495 4.77979 6.2535ZM8.77978 4.2535C8.77778 4.2535 8.77529 4.2535 8.77329 4.2535C8.08129 4.2535 7.51978 3.6925 7.51978 3C7.51978 2.3075 8.08079 1.7465 8.77329 1.7465C9.46529 1.7465 10.0268 2.3075 10.0268 3C10.0228 3.687 9.46729 4.243 8.78029 4.2465L8.77978 4.2535ZM12.7798 6.2535C12.7778 6.2535 12.7753 6.2535 12.7733 6.2535C12.0813 6.2535 11.5198 5.6925 11.5198 5C11.5198 4.3075 12.0808 3.7465 12.7733 3.7465C13.4653 3.7465 14.0268 4.3075 14.0268 5C14.0268 5.69 13.4688 6.2495 12.7798 6.2535Z" fill="black"/>
</g>
<defs>
<clipPath id="clip0_6_372">
<rect width="16" height="16" fill="white" transform="translate(0.5)"/>
</clipPath>
</defs>
</svg>
