<svg width="16" height="17" viewBox="0 0 16 17" fill="none" xmlns="http://www.w3.org/2000/svg">
<g clip-path="url(#clip0_6_494)">
<path d="M2.21362 4.53045L4.44012 6.02395C4.41462 6.12945 4.39962 6.25045 4.39962 6.37495C4.39962 6.94345 4.70762 7.43995 5.16612 7.70695L5.17362 7.71095L8.97362 9.85745C9.12362 9.94295 9.29862 10.006 9.48462 10.0365L9.49362 10.0375C9.56262 10.047 9.64262 10.0525 9.72362 10.0525C9.80462 10.0525 9.88462 10.047 9.96262 10.0365L9.95362 10.0375L10.1401 10.784C10.1866 10.962 10.2856 11.1125 10.4186 11.223L10.4201 11.224L13.0866 13.5105L14.1466 12.224L11.6931 10.1105L11.2266 8.23045C11.1356 7.78445 10.8641 7.41495 10.4936 7.19445L10.4866 7.19045L6.66662 5.04395C6.44962 4.91845 6.18912 4.84395 5.91162 4.84395C5.82512 4.84395 5.74012 4.85095 5.65762 4.86495L5.66662 4.86395L3.33312 3.29045L2.14662 0.376953H0.340117L1.90662 4.15695C1.97012 4.31245 2.07612 4.43995 2.21012 4.52845L2.21362 4.53045Z" fill="black"/>
<path d="M13.4466 13.877C13.0671 14.1885 12.5771 14.3775 12.0426 14.3775C12.0276 14.3775 12.0126 14.3775 11.9976 14.377H11.9996C11.9841 14.3775 11.9661 14.3775 11.9476 14.3775C11.4161 14.3775 10.9286 14.1885 10.5491 13.874L10.5526 13.877C9.86962 13.3565 9.00412 13.043 8.06512 13.043C8.04212 13.043 8.01862 13.043 7.99562 13.0435H7.99912C7.97862 13.043 7.95512 13.043 7.93112 13.043C6.99312 13.043 6.12862 13.3565 5.43612 13.8845L5.44612 13.877C5.07012 14.1885 4.58262 14.3775 4.05112 14.3775C4.03262 14.3775 4.01462 14.3775 3.99662 14.377H3.99912C3.98512 14.3775 3.96812 14.3775 3.95162 14.3775C3.42112 14.3775 2.93462 14.1885 2.55562 13.874L2.55912 13.877C1.87662 13.3565 1.01162 13.043 0.0736172 13.043C0.0471172 13.043 0.0211172 13.043 -0.00488281 13.0435H-0.000882813V15.0435C0.0196172 15.043 0.0431172 15.043 0.0671172 15.043C1.00512 15.043 1.86962 15.3565 2.56212 15.8845L2.55212 15.877C2.92712 16.1885 3.41362 16.3775 3.94462 16.3775C3.96362 16.3775 3.98262 16.377 4.00162 16.377H3.99862C4.01412 16.3775 4.03212 16.3775 4.05062 16.3775C4.58212 16.3775 5.06962 16.1885 5.44912 15.874L5.44562 15.877C6.12812 15.3565 6.99262 15.043 7.93062 15.043C7.95462 15.043 7.97862 15.043 8.00262 15.0435H7.99912C8.02062 15.043 8.04612 15.043 8.07162 15.043C9.01012 15.043 9.87562 15.3565 10.5691 15.8845L10.5591 15.877C10.9351 16.1885 11.4221 16.3775 11.9536 16.3775C11.9696 16.3775 11.9856 16.3775 12.0016 16.377H11.9991C12.0116 16.3775 12.0266 16.3775 12.0416 16.3775C12.5761 16.3775 13.0666 16.1885 13.4496 15.874L13.4456 15.877C14.1256 15.3565 14.9886 15.043 15.9241 15.043C15.9506 15.043 15.9766 15.043 16.0026 15.0435H15.9986V13.0435C15.9766 13.043 15.9501 13.043 15.9241 13.043C14.9881 13.043 14.1256 13.3565 13.4356 13.8845L13.4466 13.877Z" fill="black"/>
<path d="M15.0936 7.99695C14.8246 7.53745 14.3336 7.23395 13.7716 7.23395C12.9286 7.23395 12.2451 7.91745 12.2451 8.76045C12.2451 9.60345 12.9286 10.287 13.7716 10.287C14.0521 10.287 14.3151 10.2115 14.5406 10.0795L14.5336 10.0835C14.9926 9.81295 15.2961 9.32095 15.2961 8.75795C15.2961 8.47795 15.2211 8.21545 15.0896 7.98945L15.0936 7.99695Z" fill="black"/>
</g>
<defs>
<clipPath id="clip0_6_494">
<rect width="16" height="16" fill="white" transform="translate(0 0.37793)"/>
</clipPath>
</defs>
</svg>
