<svg width="16" height="16" viewBox="0 0 16 16" fill="none" xmlns="http://www.w3.org/2000/svg">
<path d="M12.8667 10.8667H13.8667C14.1332 10.8667 14.3332 11.2002 14.1332 11.4002L10.7332 15.2667C10.4667 15.6002 9.9997 15.6002 9.7332 15.2667L6.3332 11.4002C6.1332 11.2002 6.2667 10.8667 6.5997 10.8667H7.5997C7.7997 10.8667 7.9332 10.7332 7.9332 10.5332V6.93318C7.9332 6.53318 8.1997 6.26668 8.5997 6.26668H11.8662C12.2662 6.26668 12.5327 6.53318 12.5327 6.93318V10.5332C12.5327 10.7332 12.6667 10.8667 12.8667 10.8667ZM4.4667 10.2002C4.7332 9.60018 5.2667 9.13368 5.9332 8.93368V6.86718C5.9332 5.40068 7.1332 4.20068 8.5997 4.20068H9.1997V1.20068C9.1997 0.80068 8.9332 0.53418 8.5332 0.53418H2.5332C2.1332 0.53418 1.8667 0.80068 1.8667 1.20068V11.1342C1.8667 11.5342 2.1332 11.8007 2.5332 11.8007H4.3332C4.1997 11.2672 4.1997 10.7337 4.4667 10.2002Z" fill="black"/>
</svg>
