<svg width="16" height="17" viewBox="0 0 16 17" fill="none" xmlns="http://www.w3.org/2000/svg">
<path d="M15.7865 11.6094L13.754 4.88693C13.481 4.00643 12.674 3.37793 11.7205 3.37793C11.5005 3.37793 11.2885 3.41143 11.089 3.47343L11.104 3.46943C10.783 3.56893 10.507 3.73093 10.2775 3.94343L10.279 3.94193H5.599C5.371 3.73093 5.095 3.56893 4.789 3.47343L4.774 3.46943C4.5895 3.41143 4.3775 3.37793 4.1575 3.37793C3.2035 3.37793 2.3965 4.00643 2.128 4.87193L2.124 4.88693L0.0915 11.6094C0.0335 11.7939 0 12.0059 0 12.2259C0 13.3994 0.9515 14.3509 2.125 14.3509C3.079 14.3509 3.886 13.7224 4.1545 12.8569L4.1585 12.8419L4.9085 10.3569C5.065 10.4164 5.2465 10.4514 5.4355 10.4519C6.175 10.4509 6.7895 9.91543 6.912 9.21093L6.9135 9.20193H8.9585C9.0825 9.91543 9.6965 10.4509 10.436 10.4519C10.437 10.4519 10.4385 10.4519 10.44 10.4519C10.629 10.4519 10.8095 10.4179 10.977 10.3559L10.9665 10.3594L11.7165 12.8444C11.99 13.7249 12.7975 14.3534 13.7515 14.3534C14.926 14.3534 15.878 13.4014 15.878 12.2269C15.878 12.0064 15.8445 11.7939 15.7825 11.5944L15.7865 11.6094ZM3.2865 6.51193H2.564V5.88443H3.284C3.443 5.89893 3.566 6.03193 3.566 6.19293C3.566 6.35393 3.4425 6.48693 3.285 6.50143L3.2865 6.51193ZM4.3115 7.63943H3.689V6.91193C3.689 6.74193 3.8265 6.60443 3.9965 6.60443C4.1665 6.60443 4.304 6.74193 4.304 6.91193L4.3115 7.63943ZM4.3115 5.48443C4.3115 5.65443 4.174 5.79193 4.004 5.79193C3.834 5.79193 3.6965 5.65443 3.6965 5.48443V4.75443H4.3115V5.48443ZM5.439 6.50193H4.719C4.56 6.48743 4.437 6.35443 4.437 6.19343C4.437 6.03243 4.5605 5.89943 4.718 5.88493H5.439V6.50193ZM10.814 6.56693C10.538 6.56693 10.314 6.34293 10.314 6.06693C10.314 5.79093 10.538 5.56693 10.814 5.56693C11.09 5.56693 11.314 5.79093 11.314 6.06693C11.314 6.34293 11.09 6.56693 10.814 6.56693ZM11.939 7.69193C11.663 7.69193 11.439 7.46793 11.439 7.19193C11.439 6.91593 11.663 6.69193 11.939 6.69193C12.215 6.69193 12.439 6.91593 12.439 7.19193C12.439 7.46793 12.215 7.69193 11.939 7.69193ZM11.939 5.44193C11.663 5.44193 11.439 5.21793 11.439 4.94193C11.439 4.66593 11.663 4.44193 11.939 4.44193C12.215 4.44193 12.439 4.66593 12.439 4.94193C12.439 5.21793 12.215 5.44193 11.939 5.44193ZM13.064 6.56693C12.788 6.56693 12.564 6.34293 12.564 6.06693C12.564 5.79093 12.788 5.56693 13.064 5.56693C13.34 5.56693 13.564 5.79093 13.564 6.06693C13.564 6.34293 13.34 6.56693 13.064 6.56693Z" fill="black"/>
</svg>
