<svg width="16" height="17" viewBox="0 0 16 17" fill="none" xmlns="http://www.w3.org/2000/svg">
<path d="M4.69998 4.20305L4.63248 3.66805C4.97248 3.60305 5.29748 3.52805 5.63248 3.48305C6.08648 3.41305 6.61048 3.37305 7.14348 3.37305C8.47548 3.37305 9.74948 3.62255 10.921 4.07705L10.85 4.05255C11.858 4.41605 12.718 4.97405 13.422 5.68705C13.8895 6.15555 14.2465 6.73555 14.4495 7.38305L14.4575 7.41255C14.5275 7.64505 14.565 7.89255 14.62 8.15005H16V8.66255H15.3175C15.115 8.66255 14.915 8.66255 14.715 8.66255C14.657 8.67305 14.6105 8.71455 14.593 8.76905L14.5925 8.77005C14.4415 9.80155 13.922 10.69 13.174 11.315L13.1675 11.32C12.301 12.0845 11.2475 12.6585 10.0855 12.9655L10.0325 12.9775C9.14748 13.2315 8.13148 13.378 7.08098 13.378C7.05248 13.378 7.02398 13.378 6.99598 13.3775H7.00048C6.88548 13.3775 6.85048 13.325 6.83048 13.185C6.78298 12.8125 6.77798 12.815 6.47298 12.795C5.37948 12.7275 4.36698 12.446 3.45498 11.992L3.50048 12.0125C3.44798 11.9875 3.40048 11.9575 3.31548 11.9125C3.49798 11.6625 3.66298 11.4425 3.83798 11.2275C3.86548 11.195 3.94298 11.2275 3.99298 11.2275C4.56848 11.47 5.23748 11.6555 5.93548 11.7525L5.97798 11.7575C6.30298 11.807 6.67848 11.8355 7.06048 11.8355C8.38748 11.8355 9.63398 11.4925 10.7165 10.89L10.678 10.9095C11.269 10.585 11.752 10.1305 12.101 9.58255L12.1105 9.56705C12.336 9.20805 12.4695 8.77105 12.4695 8.30355C12.4695 7.83605 12.336 7.39905 12.1045 7.02955L12.1105 7.03955C11.8765 6.66005 11.5905 6.33855 11.258 6.07255L11.2505 6.06705C10.4935 5.47605 9.57498 5.05655 8.57198 4.88205L8.53548 4.87705C8.08848 4.78555 7.57448 4.73305 7.04798 4.73305C6.77398 4.73305 6.50348 4.74705 6.23698 4.77505L6.27048 4.77205C4.99398 4.85305 3.83598 5.30055 2.88348 6.00905L2.90048 5.99705C2.53048 6.27955 2.21948 6.61755 1.97498 7.00155L1.96548 7.01705C1.73348 7.37255 1.59598 7.80755 1.59598 8.27505C1.59598 8.31105 1.59698 8.34655 1.59848 8.38205V8.37705C1.59848 8.44705 1.59848 8.51705 1.59848 8.62705C1.45848 8.62705 1.32598 8.62705 1.19348 8.62705C0.958477 8.62705 0.720977 8.62705 0.485977 8.62705C0.440977 8.62705 0.365977 8.61455 0.353477 8.57955C0.235977 8.23955 0.128477 7.88955 0.000976562 7.49205C0.293477 7.49205 0.540977 7.49205 0.790977 7.49205C0.863477 7.49205 0.908477 7.46955 0.938477 7.37455C1.17248 6.66705 1.57848 6.06955 2.10848 5.61105L2.11348 5.60705C2.79098 5.00905 3.60198 4.54405 4.49398 4.26255L4.54098 4.24955L4.69998 4.20305Z" fill="black"/>
<path d="M9.24998 8.20805V8.58805C8.99998 8.58805 8.76748 8.58805 8.52998 8.58805C8.43998 8.58805 8.39248 8.62055 8.33498 8.71805C8.26248 8.85555 8.16398 8.97005 8.04498 9.05855L8.04248 9.06055C7.79248 9.23605 7.48148 9.34105 7.14598 9.34105C6.81048 9.34105 6.49998 9.23605 6.24448 9.05705L6.24948 9.06055C6.16598 9.00255 6.09398 8.93455 6.03348 8.85755L6.03198 8.85555C5.94148 8.74305 5.88698 8.59855 5.88698 8.44105C5.88698 8.26205 5.95748 8.10005 6.07248 7.98055C6.25948 7.79005 6.50498 7.65805 6.77998 7.61405L6.78748 7.61305C6.90198 7.58405 7.03348 7.56705 7.16898 7.56705C7.43398 7.56705 7.68398 7.63105 7.90398 7.74455L7.89498 7.74055C8.05598 7.86305 8.19898 7.98905 8.33198 8.12505C8.37598 8.17005 8.43398 8.20255 8.49798 8.21505L8.49998 8.21555C8.74998 8.21305 8.99998 8.20805 9.24998 8.20805Z" fill="black"/>
</svg>
