<svg width="16" height="16" viewBox="0 0 16 16" fill="none" xmlns="http://www.w3.org/2000/svg">
<path d="M13.3573 10.1125C12.7498 9.8475 15.0398 6.2175 11.1423 3.03C11.1423 3.03 11.3248 5.5075 10.2573 5.5075C9.46234 5.5 10.9673 1.75 7.37984 0C7.37984 0 8.24984 2 5.24984 4C2.74984 5.6725 2.95484 7.475 3.21984 8.715C3.48484 9.955 2.16234 9.6 1.80484 8.715C1.80484 8.715 1.44984 16 7.82234 16C14.1948 16 14.1973 9.4475 14.1973 9.4475C14.1973 9.4475 13.9773 10.3775 13.3573 10.1125ZM11.5098 9.6125L10.2723 10.825C10.1843 10.9115 10.1298 11.032 10.1298 11.1655C10.1298 11.1955 10.1328 11.2245 10.1378 11.253L10.1373 11.25L10.4298 12.9525C10.4348 12.978 10.4373 13.0075 10.4373 13.0375C10.4373 13.297 10.2268 13.5075 9.96734 13.5075C9.88684 13.5075 9.81084 13.487 9.74484 13.4515L9.74734 13.4525L8.21984 12.6475C8.15584 12.6155 8.07984 12.5965 7.99984 12.5965C7.91984 12.5965 7.84384 12.6155 7.77684 12.649L7.77984 12.6475L6.24984 13.44C6.18584 13.4745 6.11034 13.495 6.02984 13.495C5.77034 13.495 5.55984 13.2845 5.55984 13.025C5.55984 12.995 5.56284 12.9655 5.56784 12.9375L5.56734 12.9405L5.86234 11.2505C5.86634 11.227 5.86884 11.2 5.86884 11.172C5.86884 11.0395 5.81484 10.9195 5.72734 10.833L4.49984 9.6205C4.41084 9.535 4.35584 9.415 4.35584 9.282C4.35584 9.049 4.52484 8.856 4.74734 8.8185L4.75034 8.818L6.46034 8.568C6.61534 8.5475 6.74434 8.4525 6.81184 8.3205L6.81284 8.318L7.57784 6.7705C7.65734 6.6145 7.81634 6.5095 8.00034 6.5095C8.18434 6.5095 8.34334 6.6145 8.42184 6.768L8.42284 6.7705L9.18784 8.318C9.25634 8.4525 9.38534 8.5475 9.53784 8.568H9.54034L11.2503 8.818C11.4753 8.856 11.6443 9.049 11.6443 9.282C11.6443 9.415 11.5893 9.535 11.5003 9.6205L11.5098 9.6125Z" fill="black"/>
</svg>
