<svg width="16" height="16" viewBox="0 0 16 16" fill="none" xmlns="http://www.w3.org/2000/svg">
<g clip-path="url(#clip0_6_371)">
<path d="M10.36 5.3335L8.78004 8.2335L5.92654 6.807C5.75404 6.7195 5.55054 6.6685 5.33504 6.6685C4.85304 6.6685 4.43054 6.9245 4.19654 7.3075L4.19304 7.3135L0.193045 13.98C0.0770449 14.1735 0.00854492 14.4075 0.00854492 14.657C0.00854492 15.1445 0.270045 15.5705 0.660545 15.8035L0.666545 15.807C0.856045 15.926 1.08604 15.9975 1.33254 16.0005C1.81754 15.995 2.24054 15.731 2.46954 15.34L2.47304 15.3335L5.83954 9.727L8.73954 11.1735C8.91854 11.269 9.13104 11.325 9.35654 11.325C9.84404 11.325 10.27 11.0635 10.503 10.673L10.5065 10.667L12.7 6.667C11.758 6.4965 10.949 6.017 10.3645 5.339L10.36 5.3335Z" fill="black"/>
<path d="M16 2.6665C16 4.1395 14.806 5.333 13.3335 5.333C11.861 5.333 10.667 4.139 10.667 2.6665C10.667 1.1935 11.861 0 13.3335 0C14.806 0 16 1.194 16 2.6665Z" fill="black"/>
</g>
<defs>
<clipPath id="clip0_6_371">
<rect width="16" height="16" fill="white"/>
</clipPath>
</defs>
</svg>
