<svg width="17" height="16" viewBox="0 0 17 16" fill="none" xmlns="http://www.w3.org/2000/svg">
<path d="M11.9986 0.796875C12.3396 0.796875 12.6165 1.05432 12.6165 1.37262V3.10173C12.6165 3.41909 12.3396 3.67747 11.9986 3.67747C11.6576 3.67747 11.3808 3.41909 11.3808 3.10173V1.37262C11.3808 1.05432 11.6576 0.796875 11.9986 0.796875ZM5.00087 0.796875C5.34288 0.796875 5.6187 1.05432 5.6187 1.37262V3.10173C5.6187 3.41909 5.34288 3.67747 5.00087 3.67747C4.65985 3.67747 4.38404 3.41909 4.38404 3.10173V1.37262C4.38404 1.05432 4.65985 0.796875 5.00087 0.796875ZM15.7031 7.71189V14.0507C15.7031 14.6873 15.1505 15.2031 14.4685 15.2031H2.53204C1.85002 15.2031 1.29738 14.6873 1.29738 14.0507V7.71189H15.7031ZM10.1456 1.75739V3.10266C10.1456 4.05755 10.9751 4.8313 11.9981 4.8313C13.0212 4.8313 13.8501 4.05755 13.8501 3.10266V1.75739H14.468C15.15 1.75739 15.7026 2.27321 15.7026 2.90981V6.55947H1.29688V2.90981C1.29688 2.27321 1.84951 1.75739 2.53154 1.75739H3.14837V3.10266C3.14837 4.05755 3.97733 4.8313 5.00037 4.8313C6.0234 4.8313 6.85286 4.05755 6.85286 3.10266V1.75739H10.1456Z" fill="black"/>
</svg>
