<svg width="16" height="17" viewBox="0 0 16 17" fill="none" xmlns="http://www.w3.org/2000/svg">
<g clip-path="url(#clip0_6_541)">
<path d="M6.51491 15.9279C5.74991 15.1554 3.03741 11.8379 3.85241 4.20793C3.85291 4.20443 3.85291 4.19993 3.85291 4.19593C3.85291 4.14093 3.80791 4.09593 3.75291 4.09593C3.73191 4.09593 3.71291 4.10243 3.69691 4.11293C3.33191 4.36293 2.49491 4.94043 2.00991 5.36293C1.88591 5.46993 1.80141 5.61993 1.78041 5.78943L1.77991 5.79293C1.62741 7.16543 1.17741 13.8254 6.45741 16.0179C6.46541 16.0234 6.47541 16.0264 6.48591 16.0264C6.51541 16.0264 6.53941 16.0024 6.53941 15.9729C6.53941 15.9539 6.52991 15.9374 6.51491 15.9279Z" fill="black"/>
<path d="M9.46491 16.0429C10.5874 15.5629 16.6149 12.3779 13.2149 0.56793C13.1869 0.45793 13.0889 0.37793 12.9724 0.37793C12.9699 0.37793 12.9674 0.37793 12.9649 0.37793C12.9604 0.37793 12.9554 0.37793 12.9499 0.37793C12.5534 0.37793 12.1719 0.44293 11.8154 0.56293L11.8404 0.55543C11.7339 0.58543 11.6569 0.68193 11.6569 0.79643C11.6569 0.81943 11.6599 0.84143 11.6654 0.86243L11.6649 0.86093C12.0124 2.28593 13.7124 10.3434 9.40241 15.9659C9.39291 15.9749 9.38741 15.9879 9.38741 16.0019C9.38741 16.0294 9.40991 16.0519 9.43741 16.0519C9.44791 16.0519 9.45691 16.0484 9.46491 16.0429Z" fill="black"/>
<path d="M9.80241 1.17543C8.60241 1.34543 6.43741 2.53293 5.83741 2.87043C5.74241 2.92693 5.67941 3.02893 5.67741 3.14493C5.44491 17.1274 7.99991 16.3779 7.99991 16.3779C10.8524 15.6654 10.1999 3.33543 10.0799 1.41543C10.0754 1.28093 9.96491 1.17393 9.82991 1.17393C9.82041 1.17393 9.81041 1.17443 9.80091 1.17543H9.80241ZM8.30241 10.1529C8.21091 10.1719 8.10541 10.1834 7.99741 10.1834C7.14141 10.1834 6.44741 9.48943 6.44741 8.63343C6.44741 7.77743 7.14141 7.08343 7.99741 7.08343C8.85341 7.08343 9.54741 7.77743 9.54741 8.63343C9.54741 8.74143 9.53641 8.84643 9.51541 8.94843L9.51691 8.93843C9.39091 9.55143 8.91691 10.0264 8.31441 10.1519L8.30441 10.1534L8.30241 10.1529Z" fill="black"/>
</g>
<defs>
<clipPath id="clip0_6_541">
<rect width="16" height="16" fill="white" transform="translate(0 0.37793)"/>
</clipPath>
</defs>
</svg>
