<svg width="16" height="17" viewBox="0 0 16 17" fill="none" xmlns="http://www.w3.org/2000/svg">
<g clip-path="url(#clip0_6_262)">
<path d="M13.18 8.1577C12.878 7.6712 12.618 7.1107 12.4285 6.5182L12.4135 6.4642C12.047 4.8642 9.86001 1.9707 7.08001 1.9707V3.6372C8.35351 3.6372 9.55351 4.7637 10.2135 5.8172H10.147C10.147 5.8172 6.46701 7.2972 6.38701 7.3437H6.35351C6.01301 7.5432 5.78751 7.9072 5.78701 8.3237C5.78651 8.3352 5.78651 8.3487 5.78651 8.3622C5.78651 8.5967 5.85901 8.8142 5.98301 8.9937L5.98051 8.9902C6.02351 9.0527 6.06951 9.1072 6.12051 9.1567C6.21551 9.2527 6.32851 9.3312 6.45351 9.3872L6.46051 9.3902L8.27401 10.2102L3.72751 13.5837H2.94101V14.9172H6.88101V13.5837H6.52101L10.401 10.7102C10.607 10.5567 10.739 10.3137 10.739 10.0397C10.739 10.0082 10.737 9.9767 10.734 9.9462L10.7345 9.9502C10.6985 9.6522 10.5115 9.4052 10.253 9.2857L10.248 9.2837L9.66801 9.0437L11.1945 8.3772C11.2525 8.3527 11.2985 8.3302 11.3435 8.3062L11.3345 8.3107C11.6145 8.8307 11.908 9.2907 12.001 9.4372C12.1505 9.6702 12.408 9.8227 12.701 9.8237H16.001V8.1572L13.18 8.1577Z" fill="black"/>
<path d="M3.49301 12.3777V11.1242L5.73301 10.1107C5.26151 9.7832 4.93001 9.2832 4.82801 8.7037L4.82601 8.6907L-0.000488281 10.8842L0.666012 12.3777H3.49301Z" fill="black"/>
<path d="M15.1265 5.9712C15.659 5.6667 16.012 5.1022 16.012 4.4557C16.012 3.4947 15.233 2.7157 14.272 2.7157C13.311 2.7157 12.532 3.4947 12.532 4.4557C12.532 4.7677 12.614 5.0602 12.7575 5.3132L12.753 5.3047C13.0545 5.8412 13.62 6.1982 14.269 6.1982C14.584 6.1982 14.88 6.1142 15.1345 5.9672L15.1265 5.9712Z" fill="black"/>
</g>
<defs>
<clipPath id="clip0_6_262">
<rect width="16" height="16" fill="white" transform="translate(0 0.37793)"/>
</clipPath>
</defs>
</svg>
