<svg width="16" height="16" viewBox="0 0 16 16" fill="none" xmlns="http://www.w3.org/2000/svg">
<g clip-path="url(#clip0_21_72)">
<path d="M0.909964 3.9985C0.938633 3.9763 0.962678 3.95781 0.984873 3.93654C1.16059 3.76545 1.37329 3.68961 1.61651 3.67852C2.03822 3.65817 2.496 3.98925 2.54501 4.44795C2.54779 4.472 2.53577 4.50344 2.52097 4.52378C2.30457 4.79753 2.23705 5.11288 2.30549 5.44489C2.37578 5.77874 2.57461 6.03584 2.88072 6.19583C3.11562 6.3179 3.37456 6.36044 3.62888 6.29108C3.94331 6.20508 4.20133 6.02566 4.35578 5.72603C4.47785 5.48928 4.51854 5.23958 4.45011 4.95289L4.38907 5.01578C3.89707 5.52627 3.14614 5.41437 2.83448 4.77903L2.82338 4.75683C2.77991 4.67175 2.73275 4.57742 2.80396 4.47847C3.04163 4.14554 3.10637 3.79227 2.95933 3.40108C2.74292 2.824 2.08539 2.53084 1.463 2.8092C1.14486 2.95162 0.952505 3.20872 0.866498 3.54165C0.826732 3.69701 0.816559 3.8607 0.864649 4.03549C0.881295 4.02254 0.897017 4.01052 0.910889 3.99942L0.909964 3.9985Z" fill="black"/>
<path d="M3.63351 6.50656C3.62888 6.50656 3.62426 6.50471 3.62056 6.50471C3.61316 6.50471 3.60946 6.50286 3.60669 6.50471C3.59929 6.50934 3.59374 6.51488 3.58727 6.52136H3.58542C3.57894 6.52598 3.57247 6.53245 3.566 6.53708C3.52438 6.56575 3.48369 6.59812 3.443 6.63048C3.35237 6.70077 3.26359 6.77198 3.16093 6.81175C2.65692 7.00873 2.05394 6.66655 1.94574 6.13572C1.93742 6.0904 1.95129 6.02566 1.97996 5.98867C2.16122 5.751 2.23798 5.48003 2.19636 5.18964C2.08909 4.45443 1.37606 4.00775 0.60293 4.34992C0.300519 4.48309 0.130356 4.73741 0.0415749 5.04537C-0.00559001 5.20906 -0.010214 5.382 0.0267781 5.57344C0.0424997 5.56049 0.0572965 5.54847 0.0711686 5.53737C0.0998374 5.51425 0.122957 5.49483 0.144228 5.47263C0.317166 5.28582 0.544667 5.22201 0.785116 5.20906C1.2096 5.18594 1.59432 5.47911 1.71454 5.90729C1.72656 5.9489 1.71084 6.01179 1.68495 6.04786C1.47964 6.32715 1.40381 6.64528 1.47594 6.97544C1.54808 7.30282 1.74136 7.56269 2.05579 7.71805C2.46363 7.91966 2.85482 7.87804 3.2118 7.61632C3.58449 7.34258 3.70564 6.95786 3.63628 6.50656H3.63351Z" fill="black"/>
<path d="M13.2551 6.04046C13.0387 5.86105 12.9426 5.69551 12.9426 5.69458C13.0776 5.69458 13.2348 5.69181 13.417 5.68626C13.6473 5.68071 13.8544 5.65204 14.0394 5.60765C16.0462 5.259 16 3.96335 16 3.96335H12.9407C12.9407 3.96335 15.4774 3.51945 16 2H12.4432C11.1947 2 9.94621 2 8.69772 2.00462C8.22885 2.0074 7.84783 2.22103 7.57779 2.61037C7.526 2.68528 7.47328 2.71025 7.3845 2.71025C6.64559 2.70747 5.90852 2.70747 5.17145 2.7084H4.50652C4.26515 2.7084 4.17729 2.7981 4.17729 3.04225V3.31137C4.17636 3.5213 4.17636 3.7303 4.17729 3.94023C4.18006 4.31663 4.41311 4.63754 4.76639 4.76423C4.82465 4.78458 4.88199 4.82157 4.9273 4.86504C5.05308 4.98711 5.177 5.11103 5.30092 5.23496C5.36289 5.29784 5.42485 5.35981 5.48681 5.42177C5.50346 5.43749 5.52103 5.45229 5.54322 5.47263C5.55709 5.48373 5.57189 5.49668 5.58854 5.5124V4.81232H5.75038C5.8965 4.8114 6.03892 4.81047 6.18041 4.81695C6.23405 4.8188 6.29879 4.84654 6.33855 4.88353C6.46248 5.00098 6.58362 5.12306 6.70385 5.24421C6.75841 5.29969 6.81298 5.35426 6.86846 5.40882C6.88603 5.42639 6.90638 5.44304 6.93412 5.46708C6.94707 5.47818 6.96094 5.49113 6.97759 5.50592V4.81417C7.04695 4.81417 7.11631 4.81417 7.18475 4.81417C7.403 4.81417 7.61478 4.81417 7.82656 4.81695C7.85893 4.81787 7.89869 4.84654 7.92459 4.87151C8.02909 4.97324 8.13174 5.07682 8.2344 5.17947C8.28156 5.22663 8.32965 5.27472 8.37682 5.32189C8.41011 5.35518 8.4434 5.38755 8.48132 5.42547C8.50906 5.45229 8.53866 5.48096 8.57195 5.51332V4.8151H8.682C8.75136 4.8151 8.81795 4.8151 8.88361 4.8151C9.19249 4.81602 9.43294 5.0426 9.43386 5.33391C9.43479 5.62152 9.19157 5.85365 8.88453 5.85457C8.52386 5.85457 8.16319 5.85457 7.80251 5.85457C7.78032 5.85457 7.7572 5.85365 7.72945 5.85088C7.71558 5.84995 7.69986 5.8481 7.68229 5.8481V5.18132C7.67582 5.1767 7.66934 5.173 7.66194 5.16837C7.65547 5.16467 7.64807 5.16005 7.6416 5.15542C7.6342 5.16745 7.62588 5.18039 7.6194 5.19242C7.60368 5.21831 7.58981 5.24421 7.56946 5.26455C7.3956 5.44211 7.22081 5.61875 7.0414 5.79076C7.00441 5.82591 6.94245 5.84995 6.89158 5.85273C6.8065 5.8555 6.7205 5.8555 6.63541 5.85457C6.55496 5.85457 6.4745 5.85365 6.39497 5.85642C6.30341 5.86012 6.27567 5.83053 6.27937 5.74082C6.28306 5.61043 6.28214 5.48003 6.28121 5.34131V5.16097C6.26642 5.17392 6.2544 5.18502 6.2433 5.19519C6.21925 5.21646 6.20261 5.23126 6.18596 5.2479C6.14527 5.2886 6.10458 5.32929 6.06296 5.36905C5.93534 5.49575 5.80679 5.62337 5.68194 5.75377C5.61258 5.82683 5.54137 5.85827 5.43779 5.85735C4.9273 5.85642 4.52871 6.25964 4.52687 6.77105C4.52687 6.80712 4.52779 6.84319 4.52871 6.87926C4.53056 6.96249 4.53149 7.04572 4.52502 7.12803C4.51484 7.2427 4.55831 7.26397 4.66374 7.26397C7.26705 7.26397 9.87684 7.09104 12.4422 7.64129C12.6355 7.68291 12.8297 7.76984 13.0276 7.78094C13.1109 7.78556 13.1941 7.77354 13.2764 7.75874C14.2058 7.59043 14.8486 7.07994 15.4969 6.43258C15.4987 6.43073 15.5006 6.42703 15.5006 6.42703C15.544 6.38264 15.5709 6.34749 15.5819 6.3327C15.5838 6.329 15.5866 6.3253 15.5875 6.32345C14.3631 6.70447 13.6288 6.35212 13.2551 6.04231V6.04046ZM9.75477 3.68591H8.74859C8.73009 3.52222 8.79205 3.39923 8.88083 3.28917C8.99366 3.15045 9.1407 3.06815 9.31919 3.06445C9.53374 3.05982 9.7483 3.06075 9.96285 3.06167C10.0424 3.06167 10.1238 3.06167 10.2033 3.06167C10.2135 3.06167 10.2236 3.06445 10.2329 3.0663C10.2357 3.0663 10.2394 3.06907 10.2431 3.06907C10.3217 3.43252 10.1191 3.68591 9.75477 3.68591Z" fill="black"/>
<path d="M12.63 9.74059C12.3202 9.68603 12.0769 9.51402 11.9965 9.18571L12.7336 9.52326C12.8593 9.11173 12.6531 8.79082 12.2564 8.71036C11.904 8.63915 11.5452 8.59754 11.1947 8.51893C10.8544 8.44032 10.5085 8.36264 10.1876 8.22854C9.20821 7.8207 8.25382 7.8207 7.31237 8.3275C7.26613 8.35154 7.22451 8.38391 7.16995 8.41998C7.2652 8.51061 7.34936 8.59106 7.43629 8.6706C7.41687 8.70666 7.41872 8.70297 7.40022 8.73811C7.25503 8.70667 7.10799 8.6817 6.96557 8.63915C6.93228 8.62991 6.89991 8.61881 6.86569 8.60771C6.50594 8.49581 6.15174 8.36264 5.78737 8.27756L5.78275 8.27478C5.40265 8.186 5.03366 8.24056 4.7035 8.45974C4.67946 8.47639 4.65264 8.49304 4.62859 8.51338C4.3493 8.72609 4.25682 8.96098 4.35948 9.21531C4.3826 9.27542 4.41681 9.33553 4.46213 9.39657C4.4797 9.42246 4.50005 9.44836 4.52224 9.47425C4.87737 9.88671 5.3074 10.1253 5.93719 10.0143C5.75593 10.2335 5.56634 10.3019 5.35364 10.314C5.0614 10.3315 4.80985 10.2141 4.6027 10.0227C4.53056 9.95607 4.45843 9.90151 4.38167 9.85712C4.36965 9.85065 4.35763 9.84417 4.3456 9.83862C4.34468 9.86082 3.19977 11.0196 2.64489 12.2218C2.64489 12.2218 3.33757 11.8547 4.1292 11.6901C4.39554 11.6337 4.67483 11.6004 4.94118 11.6133C4.79598 11.7992 4.62027 12.084 4.3678 12.6121C4.20596 12.9478 4.05152 13.3455 3.93962 13.794C3.93962 13.794 4.22723 13.597 4.63044 13.3575C5.22417 13.0033 5.97788 12.6472 6.52906 12.5918C6.52906 12.5918 5.70691 13.6377 5.47386 14.7891C5.44797 14.9186 5.42855 15.0499 5.4193 15.1812C5.4193 15.1812 7.00441 14.1796 7.63882 13.8865C8.14007 13.6544 10.0433 12.9617 10.5593 13.4047C10.7637 13.5794 10.9108 13.8227 11.0624 14.0483C11.228 14.2906 11.2391 14.3082 11.4934 14.1565C11.8384 13.9503 12.0936 13.6571 12.249 13.2872C12.3738 12.9857 12.2924 12.6981 12.1269 12.367C12.0954 12.4752 12.0834 12.5252 12.0668 12.5742C11.9512 12.896 11.6543 13.056 11.3538 12.8951C11.142 12.7832 10.9367 12.6019 10.809 12.4003C10.3439 11.6633 10.6722 10.7939 11.4888 10.5294C11.9687 10.3732 12.1944 10.5322 12.2018 11.0344C12.2018 11.0779 12.2018 11.1232 12.2009 11.211C12.2721 11.1518 12.3303 11.1269 12.3544 11.0816C12.5236 10.7588 12.8575 10.5341 12.9065 10.1383C12.9333 9.91816 12.8908 9.78498 12.63 9.74059ZM6.2211 9.4909C5.91129 9.67123 5.57559 9.76741 5.20844 9.62499C4.94488 9.52326 4.77564 9.29391 4.81263 9.09971C4.85055 8.90087 5.11504 8.72424 5.38508 8.72978C5.49791 8.73256 5.61536 8.74643 5.72078 8.78527C5.89742 8.85371 6.07221 8.93509 6.23405 9.0322C6.49299 9.19034 6.48745 9.31888 6.2211 9.4909ZM9.7594 9.13762C9.50508 9.25415 9.02048 9.11265 8.84569 8.84169C8.79575 8.75845 8.78373 8.64563 8.92245 8.56609C9.16845 8.42553 9.68911 8.54112 9.8491 8.77048C9.94066 8.90457 9.89997 9.07104 9.7594 9.13762Z" fill="black"/>
</g>
<defs>
<clipPath id="clip0_21_72">
<rect width="16" height="16" fill="white"/>
</clipPath>
</defs>
</svg>
