<svg width="17" height="16" viewBox="0 0 17 16" fill="none" xmlns="http://www.w3.org/2000/svg">
<g clip-path="url(#clip0_6_346)">
<path d="M6.72254 11.9102L7.79004 13.5102L12.75 10.7502L10.99 8.17766L6.72254 11.9102Z" fill="black"/>
<path d="M4.85003 5.20516C3.94003 5.66516 3.57753 6.76016 3.95253 8.85766C4.32753 10.9552 5.51254 11.5002 5.87753 11.7677C6.24253 12.0352 8.71004 13.3052 10.89 10.8352C13.07 8.36516 9.76753 4.08516 9.76753 4.08516C9.76753 4.08516 5.75003 4.75016 4.85003 5.20516Z" fill="black"/>
<path d="M1.00004 1.43766C0.700035 1.59266 0.498535 1.90066 0.498535 2.25566C0.498535 2.40716 0.535035 2.54966 0.600035 2.67566L0.597535 2.67066L4.32504 10.0482C4.35704 10.1122 4.42253 10.1557 4.49753 10.1557C4.53054 10.1557 4.56154 10.1472 4.58854 10.1327L4.58754 10.1332L5.87504 9.48566C5.94004 9.45216 5.98354 9.38616 5.98354 9.30916C5.98354 9.27666 5.97554 9.24616 5.96204 9.21916L5.96254 9.22016L2.25004 1.84266C2.09754 1.53716 1.78704 1.33116 1.42854 1.33116C1.27154 1.33116 1.12404 1.37066 0.995035 1.44016L1.00004 1.43766Z" fill="black"/>
<path d="M4.75004 0.000164063C4.29304 0.0556641 3.94203 0.441164 3.94203 0.908664C3.94203 0.951664 3.94503 0.993664 3.95054 1.03466L3.95004 1.02966L4.95004 9.08966C4.96104 9.18816 5.04354 9.26366 5.14404 9.26366C5.15254 9.26366 5.16054 9.26316 5.16854 9.26216L6.60003 9.08716C6.69753 9.07366 6.77153 8.99116 6.77153 8.89116C6.77153 8.88266 6.77103 8.87416 6.77003 8.86616L5.77003 0.804664C5.71503 0.345664 5.32803 -0.00683594 4.85853 -0.00683594C4.82003 -0.00683594 4.78254 -0.00433594 4.74553 0.000164063H4.75004Z" fill="black"/>
<path d="M7.67504 5.95016L6.52003 6.25016C5.70253 6.46916 5.00654 6.90666 4.47604 7.49616L4.47254 7.50016L3.80003 8.25016C3.71354 8.34616 3.66054 8.47416 3.66054 8.61466C3.66054 8.70316 3.68154 8.78716 3.71904 8.86066L3.71754 8.85766L3.86253 9.14016L8.22754 6.46766L8.20253 6.30016C8.17153 6.09316 7.99503 5.93666 7.78203 5.93666C7.74403 5.93666 7.70704 5.94166 7.67204 5.95116L7.67504 5.95016Z" fill="black"/>
<path d="M7.95054 7.04916L7.94104 7.05216C7.46004 7.20266 6.94804 6.93416 6.79804 6.45316L6.66254 6.01866C6.51204 5.53766 6.78054 5.02566 7.26154 4.87566L7.27104 4.87266C7.75204 4.72216 8.26404 4.99066 8.41404 5.47166L8.54954 5.90616C8.70004 6.38716 8.43154 6.89916 7.95054 7.04916Z" fill="black"/>
<path d="M6.95003 3.86766C6.57503 3.98766 6.30803 4.33316 6.30803 4.74116C6.30803 4.83916 6.32353 4.93316 6.35204 5.02166L6.35003 5.01516L6.66503 6.03016C6.79503 6.38866 7.13303 6.64016 7.52953 6.64016C8.03603 6.64016 8.44703 6.22916 8.44703 5.72266C8.44703 5.63716 8.43553 5.55466 8.41353 5.47616L8.41503 5.48266L8.10003 4.47016C7.98103 4.09366 7.63453 3.82516 7.22553 3.82516C7.12704 3.82516 7.03203 3.84066 6.94353 3.86966L6.95003 3.86766Z" fill="black"/>
<path d="M9.72104 6.42366L9.71154 6.42666C9.23054 6.57716 8.71853 6.30866 8.56853 5.82766L8.41254 5.32916C8.26204 4.84816 8.53054 4.33616 9.01154 4.18616L9.02104 4.18316C9.50204 4.03266 10.014 4.30116 10.164 4.78216L10.32 5.28066C10.4705 5.76166 10.202 6.27366 9.72104 6.42366Z" fill="black"/>
<path d="M8.77254 3.40266C8.39654 3.52466 8.12954 3.87216 8.12954 4.28166C8.12954 4.37816 8.14454 4.47166 8.17204 4.55916L8.17004 4.55266L8.43754 5.40766C8.56754 5.76616 8.90554 6.01766 9.30204 6.01766C9.80854 6.01766 10.2195 5.60666 10.2195 5.10016C10.2195 5.01466 10.208 4.93216 10.186 4.85366L10.1875 4.86016L9.92253 4.00016C9.80004 3.62616 9.45404 3.36116 9.04654 3.36116C8.94854 3.36116 8.85454 3.37616 8.76604 3.40466L8.77254 3.40266Z" fill="black"/>
<path d="M8.16754 6.42266C8.16754 6.42266 8.87004 7.28766 7.59754 8.38516C6.32504 9.48266 6.05254 9.85016 6.05254 9.85016L5.50004 8.28766L8.16754 6.42266Z" fill="black"/>
<path d="M7.59503 6.07266L5.92504 6.77016C5.50454 6.94866 5.14554 7.19516 4.84554 7.49966L3.91253 8.43766C3.78053 8.57266 3.69954 8.75766 3.69954 8.96166C3.69954 9.10866 3.74154 9.24516 3.81454 9.36116L3.81254 9.35816L4.50004 10.4282C4.50004 10.4282 6.97754 11.6782 6.42004 9.21317C6.17004 8.14067 7.05503 8.66316 7.87253 7.56566C8.25253 7.05316 8.29753 6.66316 8.23503 6.39066C8.18454 6.18416 8.00103 6.03366 7.78253 6.03366C7.71453 6.03366 7.65004 6.04816 7.59204 6.07466L7.59503 6.07266Z" fill="black"/>
<path d="M7.96754 14.9327L7.07754 13.3327L12.59 9.77766L13.8325 11.7327L7.96754 14.9327Z" fill="black"/>
<path d="M7.07754 14.4002L13.655 10.3102L16.5 14.3102V16.0002H7.96754L7.07754 14.4002Z" fill="black"/>
<path d="M14.1875 12.0902C14.1875 12.3842 13.949 12.6227 13.655 12.6227C13.361 12.6227 13.1225 12.3842 13.1225 12.0902C13.1225 11.7962 13.361 11.5577 13.655 11.5577C13.949 11.5577 14.1875 11.7962 14.1875 12.0902Z" fill="black"/>
</g>
<defs>
<clipPath id="clip0_6_346">
<rect width="16" height="16" fill="white" transform="translate(0.5)"/>
</clipPath>
</defs>
</svg>
