<svg width="16" height="17" viewBox="0 0 16 17" fill="none" xmlns="http://www.w3.org/2000/svg">
<g clip-path="url(#clip0_6_441)">
<path d="M2.00002 3.11827C2.14002 2.95827 2.28652 2.79827 2.44002 2.65177C5.15902 2.78727 7.62552 3.76977 9.60602 5.33827L9.58002 5.31827C11.8865 7.24977 13.6825 9.71577 14.785 12.5303L14.827 12.6518C14.685 12.8823 14.551 13.0758 14.408 13.2623L14.4205 13.2453C13.2795 10.4993 11.5955 8.18227 9.48852 6.33677L9.46702 6.31827C7.43602 4.59877 4.87702 3.44327 2.06452 3.12427L2.00002 3.11827ZM0.953523 4.58477C3.83502 4.71577 6.44052 5.79977 8.48552 7.52677L8.46702 7.51127C10.553 9.36127 12.182 11.6803 13.1935 14.3053L13.234 14.4243C11.8395 15.6363 10.0055 16.3748 7.99902 16.3748C3.58052 16.3748 -0.000976562 12.7933 -0.000976562 8.37477C-0.000976562 6.98627 0.353023 5.68027 0.975023 4.54227L0.953523 4.58477ZM4.28652 1.29827C5.36302 0.722766 6.64152 0.384766 7.99902 0.384766C12.4175 0.384766 15.999 3.96627 15.999 8.38477C15.999 9.21477 15.8725 10.0158 15.638 10.7683L15.653 10.7118C14.4245 8.05577 12.6825 5.82727 10.539 4.07127L10.5065 4.04527C8.77002 2.67727 6.65702 1.70777 4.34852 1.31027L4.26652 1.29877L4.28652 1.29827Z" fill="black"/>
</g>
<defs>
<clipPath id="clip0_6_441">
<rect width="16" height="16" fill="white" transform="translate(0 0.37793)"/>
</clipPath>
</defs>
</svg>
