<svg width="16" height="16" viewBox="0 0 16 16" fill="none" xmlns="http://www.w3.org/2000/svg">
<g clip-path="url(#clip0_6_373)">
<path d="M7.99985 1.04289L8.16485 1.21039C8.88818 1.95539 9.61318 2.69789 10.3399 3.43789C10.5009 3.60139 10.7064 3.72039 10.9364 3.77639L10.9449 3.77789C11.9274 4.00539 12.9099 4.22789 13.8924 4.45289L14.2374 4.53039L14.1624 4.78039C13.8657 5.73872 13.5707 6.69706 13.2774 7.65539C13.2439 7.76189 13.2249 7.88439 13.2249 8.01139C13.2249 8.13839 13.2439 8.26089 13.2799 8.37639L13.2774 8.36789C13.5724 9.32456 13.8699 10.2854 14.1699 11.2504L14.2374 11.4704L13.6749 11.6004C12.7699 11.8054 11.864 12.0129 10.9574 12.2229C10.7094 12.2854 10.4959 12.4094 10.3274 12.5779C9.60902 13.3062 8.89402 14.0387 8.18235 14.7754L8.00235 14.9579L7.81485 14.7654C7.10485 14.0337 6.39152 13.3029 5.67485 12.5729C5.50535 12.4059 5.29235 12.2829 5.05435 12.2224L5.04485 12.2204C3.94735 11.9704 2.86485 11.7204 1.76485 11.4704L1.94735 10.8879C2.21068 10.0396 2.47235 9.19122 2.73235 8.34289C2.76385 8.24089 2.78185 8.12339 2.78185 8.00139C2.78185 7.87939 2.76385 7.76239 2.72985 7.65189L2.73185 7.66039C2.43518 6.69206 2.13685 5.72206 1.83685 4.75039L1.76685 4.52539L2.31935 4.39789L5.04685 3.77289C5.29335 3.71289 5.50585 3.59139 5.67435 3.42539C6.39685 2.69039 7.11685 1.95039 7.83685 1.21289L7.99985 1.04289ZM7.99985 0.0253906C7.95235 0.0253906 7.90485 0.0653906 7.82735 0.142891C6.93235 1.06289 6.03568 1.97956 5.13735 2.89289C5.07085 2.96189 4.98635 3.01339 4.89135 3.03939L4.88735 3.04039C3.60568 3.34706 2.32735 3.64206 1.05235 3.92539C0.837351 3.97539 0.819851 4.01039 0.884851 4.22039C1.26235 5.44039 1.63485 6.65789 2.01485 7.87789C2.02635 7.91539 2.03285 7.95839 2.03285 8.00289C2.03285 8.04739 2.02635 8.09039 2.01435 8.13089L2.01535 8.12789C1.68285 9.21789 1.34285 10.3054 1.01535 11.3929C0.962851 11.5629 0.910351 11.7354 0.857851 11.9129C0.857851 12.0229 0.932851 12.0529 1.03035 12.0754C2.30868 12.3587 3.59035 12.6504 4.87535 12.9504C4.97935 12.9779 5.06885 13.0299 5.14035 13.1004C6.04035 14.0154 6.93285 14.9379 7.83035 15.8504C7.90535 15.9279 7.95535 15.9679 8.00285 15.9679C8.05035 15.9679 8.09785 15.9279 8.17285 15.8504C9.07035 14.9304 9.96285 14.0104 10.8629 13.1004C10.9344 13.0309 11.0239 12.9794 11.1239 12.9539L11.1279 12.9529C12.4029 12.6512 13.6779 12.3587 14.9529 12.0754C15.1679 12.0254 15.1854 11.9929 15.1204 11.7804C14.7437 10.5654 14.3704 9.35122 14.0004 8.13789C13.9874 8.09739 13.9799 8.05039 13.9799 8.00139C13.9799 7.95239 13.9874 7.90589 14.0014 7.86189L14.0004 7.86539C14.3654 6.66039 14.7345 5.45539 15.1079 4.25039C15.1879 4.00039 15.1729 3.97289 14.9229 3.91539C13.6529 3.62539 12.3837 3.33539 11.1154 3.04539C11.0174 3.02289 10.9324 2.97539 10.8654 2.91039C9.97035 1.99206 9.07368 1.07039 8.17535 0.145391C8.09785 0.0653906 8.04985 0.0253906 7.99985 0.0253906Z" fill="black"/>
<path d="M8.10985 12.8679C6.45485 12.8279 5.12735 12.2779 4.10985 11.1029C3.38235 10.3089 2.93635 9.24589 2.93635 8.07939C2.93635 7.93639 2.94285 7.79489 2.95635 7.65539L2.95485 7.67339C3.12485 5.74339 4.15485 4.39839 5.88985 3.59589C6.50285 3.30039 7.22285 3.12789 7.98285 3.12789C8.46535 3.12789 8.93185 3.19739 9.37235 3.32689L9.33735 3.31789C11.0474 3.78289 12.2574 4.83539 12.8374 6.52289C13.0049 6.97189 13.1019 7.49089 13.1019 8.03289C13.1019 8.91289 12.8459 9.73339 12.4044 10.4234L12.4149 10.4054C11.6664 11.6564 10.4129 12.5389 8.94285 12.7744L8.91485 12.7779C8.60735 12.8329 8.30735 12.8454 8.10985 12.8679ZM7.99985 11.6779H9.97485C10.2549 11.6779 10.3699 11.5604 10.3749 11.2829C10.3749 11.1054 10.3749 10.9229 10.3749 10.7454C10.3844 10.6739 10.4184 10.6114 10.4674 10.5654C10.6674 10.3929 10.8899 10.2454 11.0749 10.0654C11.6714 9.50189 12.0429 8.70539 12.0429 7.82239C12.0429 7.80339 12.0429 7.78389 12.0424 7.76489V7.76789C12.0254 6.76339 11.5419 5.87539 10.7999 5.30839L10.7924 5.30289C10.0509 4.69139 9.09085 4.32089 8.04435 4.32089C7.83835 4.32089 7.63535 4.33539 7.43685 4.36339L7.45985 4.36089C6.45985 4.45239 5.57685 4.88989 4.91735 5.55089C4.31935 6.11389 3.94735 6.91089 3.94735 7.79489C3.94735 7.80839 3.94735 7.82189 3.94785 7.83539V7.83339C3.96185 8.83439 4.43285 9.72289 5.16135 10.3009L5.16785 10.3059C5.31285 10.4284 5.52535 10.5134 5.59535 10.6659C5.62635 10.7804 5.64385 10.9119 5.64385 11.0474C5.64385 11.1189 5.63885 11.1899 5.62935 11.2589L5.63035 11.2509C5.63035 11.5909 5.73285 11.6909 6.07785 11.6909L7.99985 11.6779Z" fill="black"/>
<path d="M4.94485 8.75039C4.98635 8.07289 5.54585 7.53939 6.22985 7.53939C6.24735 7.53939 6.26485 7.53989 6.28235 7.54039H6.27985C6.28585 7.54039 6.29285 7.54039 6.29985 7.54039C7.00535 7.54039 7.57735 8.11239 7.57735 8.81789C7.57735 9.52339 7.00535 10.0954 6.29985 10.0954C6.27285 10.0954 6.24585 10.0944 6.21885 10.0929H6.22235C6.22085 10.0929 6.22035 10.0929 6.21885 10.0929C5.51485 10.0929 4.94285 9.52189 4.94285 8.81789C4.94285 8.79439 4.94335 8.77039 4.94485 8.74689V8.75039Z" fill="black"/>
<path d="M11.0649 8.81539C11.0334 9.52039 10.4539 10.0804 9.74335 10.0804C9.03285 10.0804 8.45385 9.52039 8.42235 8.81839V8.81539C8.45385 8.11039 9.03335 7.55039 9.74335 7.55039C10.4534 7.55039 11.0329 8.11039 11.0644 8.81239L11.0649 8.81539Z" fill="black"/>
<path d="M8.03235 9.19289L8.44485 10.0729H7.56235L7.97235 9.19039L8.03235 9.19289Z" fill="black"/>
<path d="M8.88985 7.04789C8.96485 7.12039 9.03735 7.16289 9.06235 7.22539C9.06535 7.23839 9.06735 7.25339 9.06735 7.26939C9.06735 7.32039 9.04735 7.36639 9.01485 7.40089C8.84535 7.51289 8.64785 7.62439 8.44285 7.72289L8.41235 7.73589C8.36735 7.75589 8.26485 7.70839 8.22735 7.66339C8.18985 7.61839 8.18735 7.50089 8.22735 7.48339C8.42735 7.33339 8.64985 7.20039 8.88985 7.04789Z" fill="black"/>
<path d="M7.21735 7.05539C7.28485 7.07789 7.32235 7.08539 7.35485 7.10039C7.51735 7.19039 7.67985 7.27789 7.83735 7.37039C7.90585 7.39839 7.95335 7.46489 7.95335 7.54189C7.95335 7.64389 7.87035 7.72689 7.76835 7.72689C7.72985 7.72689 7.69385 7.71489 7.66435 7.69489C7.45585 7.59039 7.28535 7.49189 7.12035 7.38439L7.14235 7.39789C7.10035 7.35639 7.07435 7.29839 7.07435 7.23489C7.07435 7.22189 7.07535 7.20939 7.07735 7.19689V7.19839C7.08985 7.14089 7.17235 7.09789 7.21735 7.05539Z" fill="black"/>
</g>
<defs>
<clipPath id="clip0_6_373">
<rect width="16" height="16" fill="white"/>
</clipPath>
</defs>
</svg>
