<svg width="17" height="16" viewBox="0 0 17 16" fill="none" xmlns="http://www.w3.org/2000/svg">
<g clip-path="url(#clip0_18_56)">
<path d="M12.9269 14.7307L12.9587 14.7125C12.9587 14.7125 12.9405 14.7216 12.9314 14.7261L12.9269 14.7307Z" fill="black"/>
<path d="M10.735 0.326744L10.676 0.313129C10.0225 0.113453 9.26466 0 8.4841 0C4.3635 0.0226905 0.973539 3.14491 0.533343 7.15659V7.1929C0.165756 11.554 3.25167 14.0999 3.25167 14.0999C4.65394 15.3161 6.49187 16.0558 8.50679 16.0558C10.1405 16.0558 11.6653 15.5657 12.9314 14.7261C12.9405 14.7216 12.9496 14.7125 12.9587 14.708C15.1143 13.2376 16.5029 10.8052 16.5029 8.04152C16.5029 4.39288 14.0705 1.30697 10.735 0.326744ZM11.5882 12.6931L11.57 12.7022C10.7032 13.2649 9.64132 13.5962 8.50225 13.5962C7.10452 13.5962 5.82023 13.097 4.83093 12.262C2.23513 9.79777 2.98846 7.1929 2.98846 7.1929C3.4105 4.5018 5.70678 2.46419 8.4841 2.44604C9.00598 2.45058 9.50517 2.52319 9.98168 2.65025C12.3596 3.33551 14.066 5.49111 14.066 8.04152C14.066 9.97929 13.0857 11.6856 11.5882 12.6931Z" fill="black"/>
<path d="M9.28735 5.44572H7.06821V8.67686L8.76093 11.3498L10.6034 10.2062L9.28735 8.0506V5.44572Z" fill="black"/>
</g>
<defs>
<clipPath id="clip0_18_56">
<rect width="16" height="16" fill="white" transform="translate(0.5)"/>
</clipPath>
</defs>
</svg>
