<svg width="16" height="17" viewBox="0 0 16 17" fill="none" xmlns="http://www.w3.org/2000/svg">
<path d="M14.8064 13.9577C14.7414 14.0762 14.6364 14.1657 14.5104 14.2097L14.5064 14.2107C14.4659 14.2192 14.4194 14.2242 14.3719 14.2242C14.2329 14.2242 14.1039 14.1817 13.9974 14.1092L13.9999 14.1107L0.666371 6.87068L0.052871 8.04418L13.3329 15.2777C13.6294 15.4522 13.9849 15.5577 14.3644 15.5642H14.3664C14.3704 15.5642 14.3754 15.5642 14.3799 15.5642C14.5654 15.5642 14.7444 15.5347 14.9119 15.4807L14.8999 15.4842C15.3864 15.3242 15.7754 14.9827 15.9949 14.5417L15.9999 14.5307L14.8064 13.9577Z" fill="black"/>
<path d="M3.92637 7.17118L9.37287 10.2512L14.2264 13.0447L15.0529 11.5912L10.2529 8.85768L10.3194 8.76418L15.2394 10.8777L15.9059 9.34418L9.75937 6.67768L5.53287 4.31118C5.37137 4.22018 5.18287 4.15268 4.98287 4.11918L4.97237 4.11768C4.89787 4.10568 4.81237 4.09868 4.72487 4.09868C3.81887 4.09868 3.08487 4.83318 3.08487 5.73868C3.08487 6.35118 3.42037 6.88468 3.91737 7.16668L3.92637 7.17118Z" fill="black"/>
<path d="M2.17337 4.78418C2.76687 4.54568 3.17837 3.97468 3.17837 3.30818C3.17837 2.43168 2.46787 1.72168 1.59187 1.72168C0.715871 1.72168 0.00537109 2.43218 0.00537109 3.30818C0.00537109 3.51568 0.0453711 3.71368 0.117371 3.89518L0.113371 3.88468C0.350371 4.48118 0.922871 4.89518 1.59187 4.89518C1.80137 4.89518 2.00137 4.85468 2.18437 4.78068L2.17337 4.78418Z" fill="black"/>
</svg>
