<svg width="16" height="17" viewBox="0 0 16 17" fill="none" xmlns="http://www.w3.org/2000/svg">
<g clip-path="url(#clip0_6_444)">
<path d="M4.0335 16.3779L0 12.3779C0.2665 12.1269 0.432 11.7719 0.432 11.3779C0.432 10.9839 0.266 10.6289 0.0005 10.3784L10 0.37793C10.251 0.64443 10.606 0.80993 11 0.80993C11.394 0.80993 11.749 0.64393 11.9995 0.37843L16 4.41143C15.744 4.66093 15.5855 5.00943 15.5855 5.39493C15.5855 5.78043 15.744 6.12843 16 6.37793L6.0005 16.3784C5.751 16.1224 5.4025 15.9639 5.017 15.9639C4.6315 15.9639 4.283 16.1219 4.0335 16.3779Z" fill="black"/>
</g>
<defs>
<clipPath id="clip0_6_444">
<rect width="16" height="16" fill="white" transform="translate(0 0.37793)"/>
</clipPath>
</defs>
</svg>
