<svg width="16" height="16" viewBox="0 0 16 16" fill="none" xmlns="http://www.w3.org/2000/svg">
<g clip-path="url(#clip0_245_124)">
<path d="M4.65347 5.98748H3.23347V7.74098H4.65347C5.19347 7.74098 5.60697 7.40098 5.60697 6.86748C5.60697 6.33398 5.20047 5.99398 4.65347 5.99398V5.98748Z" fill="black"/>
<path fill-rule="evenodd" clip-rule="evenodd" d="M16 8.00098C16 12.4195 12.4185 16.001 8 16.001C3.5815 16.001 0 12.4195 0 8.00098C0 3.58248 3.5815 0.000976562 8 0.000976562C12.4185 0.000976562 16 3.58248 16 8.00098ZM4.22647 8.90098H3.23297V11.181H1.88647V4.82098H4.85997C6.18647 4.82098 6.99347 5.68748 6.99347 6.86748C6.99347 8.04748 6.28697 8.59398 5.59997 8.75398L7.02647 11.174H5.47297L4.22647 8.89398V8.90098ZM12.7525 6.61004L10.96 11.181H10.3665L8.57298 6.60748V11.181H7.21948V4.82098H9.11298L10.6595 8.78098L12.206 4.82098H14.1125V11.1745H12.7525V6.61004Z" fill="black"/>
</g>
<defs>
<clipPath id="clip0_245_124">
<rect width="16" height="16" fill="white" transform="translate(0 0.000976562)"/>
</clipPath>
</defs>
</svg>
