<svg width="16" height="16" viewBox="0 0 16 16" fill="none" xmlns="http://www.w3.org/2000/svg">
<g clip-path="url(#clip0_6_518)">
<path d="M12.6388 1.64222C11.5328 0.743716 10.4878 0.294716 9.6583 0.130216C9.0883 0.0177164 8.5353 0.000716383 7.9998 0.000716383C7.3778 0.000716383 5.4943 -0.0857837 3.3693 1.64222C3.0153 1.97922 2.5918 2.49722 2.5918 3.04172V7.47372L3.9223 6.71372V4.31222L11.8008 6.50672L10.8763 4.31222L13.4073 5.12422V3.04222C13.4073 2.49822 12.9843 1.97922 12.6388 1.64222Z" fill="black"/>
<path d="M10.7468 11.5077L9.7103 9.70222H6.5573L5.4773 11.5077L4.2593 9.52922L2.5918 8.79472V11.5162C2.6003 11.7927 2.6438 12.0432 2.7043 12.2762C3.2918 14.4707 5.8923 15.9997 7.9998 15.9997C10.1073 15.9997 12.7078 14.4707 13.2953 12.2762C13.3558 12.0432 13.3988 11.7922 13.4078 11.5162V8.85522L12.2328 9.30422L10.7468 11.5077ZM9.4858 12.9072H6.7558C6.7558 12.9072 6.5053 12.7172 6.5313 12.5187L7.1878 11.1277H9.0363L9.7273 12.5447C9.7273 12.5447 9.7538 12.8377 9.4858 12.9072Z" fill="black"/>
</g>
<defs>
<clipPath id="clip0_6_518">
<rect width="16" height="16" fill="white"/>
</clipPath>
</defs>
</svg>
