<svg width="16" height="17" viewBox="0 0 16 17" fill="none" xmlns="http://www.w3.org/2000/svg">
<g clip-path="url(#clip0_6_264)">
<path d="M15.2 13.7111C14.6 12.3776 14.4 10.9111 14.5335 9.44463L14.7335 7.77813L13.267 3.97813C12.867 3.11163 11.8005 2.71163 10.9335 3.17813H10.867C10.667 3.31163 10.467 3.44463 10.267 3.64463L10.2005 3.71113C10.134 3.77763 10.134 3.77763 10.067 3.84463L8.00048 6.84463H5.40048L5.80048 5.84463H7.13398L5.86748 3.84463C5.66748 3.57813 5.46748 3.31113 5.13398 3.17813H5.06748C4.20098 2.71163 3.20098 3.11163 2.73398 3.97813L1.26748 7.77813L1.46748 9.44463C1.60098 10.9111 1.40098 12.3781 0.800977 13.7111L0.000976562 15.6446L1.53448 16.3111L2.33448 14.3776C3.00098 12.7776 3.26798 11.0441 3.13448 9.31113L3.06798 8.84463L5.06798 10.2446C6.00148 10.9111 6.33448 12.0446 6.00148 13.1111L5.06798 15.6446L6.66798 16.1781L7.60148 13.6446C8.20148 11.9111 7.60148 9.91113 6.06798 8.84463L5.60148 8.51113H9.13498L10.535 6.57763L11.2015 8.11113L10.2015 8.84463C8.80148 9.84463 8.13498 11.7111 8.66798 13.3781L9.46798 16.2446L11.068 15.7781L10.268 12.9116C10.0015 11.9116 10.3345 10.8451 11.2015 10.1781L13.068 8.84463L13.0015 9.31113C12.668 11.0446 12.935 12.7776 13.668 14.3776L14.468 16.2441L16.0015 15.5776L15.2015 13.7111H15.2Z" fill="black"/>
<path d="M8.66648 3.91113C9.39998 3.44463 9.66648 2.51113 9.26648 1.71113C8.86648 0.911133 7.86648 0.711133 7.06648 1.11113C6.33298 1.57763 6.06648 2.57763 6.53298 3.31113C6.93298 4.11113 7.93298 4.31113 8.66648 3.91113Z" fill="black"/>
</g>
<defs>
<clipPath id="clip0_6_264">
<rect width="16" height="16" fill="white" transform="translate(0 0.37793)"/>
</clipPath>
</defs>
</svg>
