<svg width="16" height="17" viewBox="0 0 16 17" fill="none" xmlns="http://www.w3.org/2000/svg">
<g clip-path="url(#clip0_6_588)">
<path d="M5.44002 4.93109C6.14702 4.75809 6.66302 4.13009 6.66302 3.38159C6.66302 2.50159 5.94952 1.78809 5.06952 1.78809C4.18952 1.78809 3.47602 2.50159 3.47602 3.38159C3.47602 3.51259 3.49202 3.64009 3.52152 3.76209L3.51902 3.75109C3.69202 4.45809 4.32002 4.97459 5.06902 4.97459C5.20052 4.97459 5.32802 4.95859 5.45002 4.92859L5.44002 4.93109Z" fill="black"/>
<path d="M13.88 3.91109L14.5465 2.96459H12.9265C9.25302 2.96459 8.00002 6.33109 6.66652 8.61809C7.25252 8.86359 7.93352 9.00659 8.64802 9.00659C8.69702 9.00659 8.74552 9.00609 8.79402 9.00459H8.78702H9.80052V11.2046H8.90702V9.87109H8.82052C8.71952 9.87859 8.60202 9.88259 8.48352 9.88259C7.26252 9.88259 6.14602 9.43659 5.28752 8.69909L5.29402 8.70459C5.32352 8.57059 5.34052 8.41709 5.34052 8.25909C5.34052 7.06959 4.37652 6.10559 3.18702 6.10559C2.25902 6.10559 1.46802 6.69309 1.16502 7.51609L1.16002 7.53109L0.113523 10.5711C0.0410234 10.7781 -0.000976562 11.0166 -0.000976562 11.2651C-0.000976562 12.2031 0.596524 13.0011 1.43202 13.2996L1.44702 13.3041C1.65452 13.3736 1.89352 13.4141 2.14252 13.4141C2.21702 13.4141 2.29052 13.4106 2.36302 13.4036L2.35402 13.4041L4.19402 14.1906C4.64102 14.3866 4.94752 14.8251 4.94752 15.3356C4.94752 15.3356 4.94752 15.3366 4.94752 15.3376V16.3776H12.6675C13.2155 15.5176 13.5405 14.4696 13.5405 13.3461C13.5405 12.3136 13.266 11.3451 12.786 10.5101L12.8005 10.5376C12.801 10.5306 12.8015 10.5226 12.8015 10.5141C12.8015 10.5056 12.801 10.4976 12.8005 10.4896C12.3785 9.72559 12.13 8.81559 12.13 7.84659C12.13 7.77309 12.1315 7.69959 12.1345 7.62659L12.134 7.63709C12.134 7.63709 12.834 9.63709 14.3805 8.97059L15.187 10.2441L16.0005 8.99059L13.88 3.91109ZM7.46652 16.3776H6.66652V15.3376C6.66152 14.1476 5.94402 13.1261 4.91852 12.6781L4.90002 12.6706L4.07352 12.3171C4.13552 12.2156 4.18952 12.0991 4.23002 11.9756L4.23352 11.9636L4.73352 10.3771C4.92302 10.5116 5.14102 10.6466 5.36702 10.7676L5.40002 10.7836C5.26402 11.0561 5.12002 11.3971 4.99502 11.7476L4.97352 11.8171L5.16702 11.8971C6.51452 12.4861 7.43902 13.8066 7.44052 15.3436L7.46652 16.3776Z" fill="black"/>
</g>
<defs>
<clipPath id="clip0_6_588">
<rect width="16" height="16" fill="white" transform="translate(0 0.37793)"/>
</clipPath>
</defs>
</svg>
