<svg width="16" height="17" viewBox="0 0 16 17" fill="none" xmlns="http://www.w3.org/2000/svg">
<g clip-path="url(#clip0_6_528)">
<path d="M15.9465 16.3289L15.9065 16.2754L15.833 16.1754L15.7665 16.0889L15.66 15.9489L15.4335 15.6554L15.287 15.4619L15.1605 15.3019L14.9805 15.0754L14.847 14.9019L14.667 14.6484C14.667 14.6084 14.607 14.5749 14.5805 14.5419L14.0805 13.9354L13.9405 13.7689L13.7005 13.4954L13.5405 13.3089L13.3005 13.0424L13.127 12.8559L12.8935 12.6094L12.667 12.4229L12.4335 12.1964C12.379 12.1374 12.3225 12.0829 12.263 12.0319L12.2605 12.0294L12.0405 11.8229L11.907 11.7094L11.7005 11.5359C11.587 11.4494 11.4805 11.3759 11.374 11.3094C11.282 11.2469 11.177 11.1889 11.0665 11.1409L11.054 11.1359C10.972 11.0954 10.876 11.0709 10.7745 11.0694C10.7465 11.0654 10.7135 11.0634 10.6805 11.0634C10.6475 11.0634 10.615 11.0654 10.5835 11.0699L10.587 11.0694L10.507 11.1029L10.367 11.1629L10.127 11.2964L9.96699 11.3964C9.83349 11.4829 9.68699 11.5899 9.54049 11.7029L9.48049 11.7429C8.40249 12.6039 7.43949 13.4654 6.52649 14.3769L6.34049 14.5629L5.79399 14.2294C5.40749 14.0029 4.87399 13.6894 4.40049 13.4629C4.13549 13.3054 3.82649 13.1894 3.49699 13.1319L3.48049 13.1294C3.46049 13.1259 3.43749 13.1244 3.41399 13.1244C3.39049 13.1244 3.36749 13.1264 3.34499 13.1299L3.34749 13.1294C2.89199 13.4164 2.49799 13.7429 2.15049 14.1129L2.14749 14.1159C1.56099 14.6824 0.927488 15.3624 0.513988 15.8094L0.000488281 16.3759H16.0005L15.9465 16.3289Z" fill="black"/>
<path d="M5.70649 5.04236C5.20149 5.09186 4.75799 5.16036 4.32199 5.25036L4.40649 5.23586C4.42299 6.77686 4.72249 8.24336 5.25549 9.59186L5.22649 9.50936C5.59599 10.5284 6.04599 11.4084 6.58849 12.2214L6.55999 12.1759C6.75499 12.2289 6.99849 12.2779 7.24749 12.3124L7.27999 12.3159C7.76649 11.8694 8.18649 11.5159 8.54649 11.2294C8.47299 11.0759 8.39999 10.9359 8.32649 10.7759C7.56799 9.09636 6.98149 7.14536 6.66299 5.10536L6.64649 4.97586C6.31299 4.96236 5.99999 4.97586 5.70649 5.04236Z" fill="black"/>
<path d="M9.84649 4.05536C10.0465 3.80186 10.2265 3.55536 10.4 3.30186C9.45149 2.96586 8.35799 2.77186 7.21899 2.77186C7.06449 2.77186 6.91099 2.77536 6.75849 2.78236L6.77999 2.78136C5.27949 2.87386 3.87799 3.16436 2.55749 3.62786L2.66649 3.59436C2.52249 3.86536 2.38649 4.18536 2.27849 4.51736L2.26649 4.56086C3.23299 4.22836 4.36299 3.97686 5.53099 3.85336L5.59949 3.84736C6.01699 3.80686 6.50149 3.78336 6.99199 3.78336C8.00149 3.78336 8.98799 3.88186 9.94249 4.06986L9.84599 4.05386L9.84649 4.05536Z" fill="black"/>
<path d="M4.76649 11.3824C4.55949 10.9889 4.33499 10.4924 4.13649 9.98286L4.09949 9.87586C3.59999 8.57736 3.29099 7.07586 3.24649 5.50836L3.24599 5.48936C2.84599 5.60286 2.44599 5.72936 2.03949 5.88286C1.99949 6.03636 1.99949 6.19636 1.99949 6.37636C2.01649 8.47136 3.10499 10.3084 4.74249 11.3689L4.76649 11.3824Z" fill="black"/>
<path d="M11.7935 5.87536C12.378 5.26986 12.8885 4.58686 13.3075 3.84536L13.3335 3.79536C13.3345 3.78236 13.335 3.76736 13.335 3.75186C13.335 3.73636 13.3345 3.72136 13.3335 3.70636V3.70836C13.057 3.15686 12.7235 2.68286 12.3305 2.26536L12.3335 2.26836C12.304 2.34786 12.27 2.41586 12.2305 2.47986L12.2335 2.47486C11.803 3.31536 11.3335 4.03836 10.7995 4.70836L10.82 4.68186C11.1865 5.04186 11.5065 5.46836 11.7935 5.87536Z" fill="black"/>
<path d="M12.9265 7.81536C13.3005 7.49936 13.638 7.17036 13.951 6.81886L13.9595 6.80886C13.9595 6.65536 13.9595 6.50886 13.9595 6.35536C13.958 5.92286 13.912 5.50136 13.8255 5.09536L13.8325 5.13536C13.394 5.78886 12.929 6.35986 12.417 6.88436L12.4195 6.88186C12.5805 7.13636 12.749 7.44236 12.901 7.75786L12.9265 7.81536Z" fill="black"/>
<path d="M11.0335 2.29536L11.22 1.94186C11.2935 1.78186 11.3735 1.62186 11.44 1.46186C10.482 0.785359 9.29049 0.380859 8.00449 0.380859C6.38949 0.380859 4.92349 1.01886 3.84449 2.05686L3.84649 2.05486C4.69449 1.83036 5.68199 1.67586 6.69699 1.62286L6.73299 1.62136C6.87499 1.61486 7.04149 1.61086 7.20849 1.61086C8.58149 1.61086 9.89599 1.86136 11.109 2.31986L11.0335 2.29536Z" fill="black"/>
<path d="M9.47999 10.5154C9.82999 10.2414 10.2685 10.0654 10.747 10.0359L10.7535 10.0354C11.298 10.0919 11.783 10.3094 12.1705 10.6384L12.167 10.6354C12.2935 10.5089 12.427 10.3754 12.547 10.2419C12.402 9.62686 12.226 9.09786 12.009 8.58986L12.034 8.65536C11.448 7.33486 10.689 6.20186 9.76799 5.22236L9.77399 5.22886C9.21049 5.11086 8.53649 5.02086 7.84949 4.97786L7.80699 4.97586C8.11499 6.95436 8.64749 8.73236 9.38749 10.3979L9.33349 10.2624C9.39999 10.3759 9.43999 10.4284 9.47999 10.5154Z" fill="black"/>
</g>
<defs>
<clipPath id="clip0_6_528">
<rect width="16" height="16" fill="white" transform="translate(0 0.37793)"/>
</clipPath>
</defs>
</svg>
