<svg width="16" height="16" viewBox="0 0 16 16" fill="none" xmlns="http://www.w3.org/2000/svg">
<path d="M10.4333 1.18378C10.3668 1.18378 10.2998 1.18378 10.2333 1.18378L7.9668 1.98378L5.7003 1.18378C5.3003 1.05028 4.8338 1.31728 4.7668 1.78378C4.7668 1.85028 4.7668 1.91728 4.7668 1.98378V3.45028C4.7668 3.91678 5.1668 4.25028 5.5668 4.25028C5.6333 4.25028 5.7003 4.25028 5.7668 4.25028L7.9668 3.25028L10.2333 4.25028C10.6998 4.38378 11.0998 4.11678 11.2333 3.65028C11.2333 3.58378 11.2333 3.51678 11.2333 3.45028V1.98378C11.2333 1.51728 10.8333 1.18378 10.4333 1.18378Z" fill="black"/>
<path d="M6.8333 13.7838L3.8333 3.78378C3.6333 3.38378 3.2333 3.18378 2.7668 3.31728L1.7668 3.65078C1.4333 3.71728 1.2333 4.05078 1.2333 4.38428L0.633301 13.9843C0.633301 14.4508 0.966801 14.7843 1.3668 14.8508C1.3668 14.8508 1.3668 14.8508 1.4333 14.8508H6.0333C6.4998 14.8508 6.8333 14.5173 6.8333 14.0508C6.8998 13.9843 6.8333 13.8503 6.8333 13.7838Z" fill="black"/>
<path d="M14.7003 4.38378C14.7003 4.05028 14.5003 3.78378 14.1668 3.65028L13.1668 3.25028C12.7668 3.11678 12.3003 3.31678 12.1668 3.71678L9.1668 13.7168C9.0333 14.1168 9.3003 14.5833 9.7003 14.7168C9.7668 14.7168 9.8338 14.7833 9.9668 14.7833H14.5668C15.0333 14.7833 15.3668 14.4498 15.3668 13.9833L14.7003 4.38378Z" fill="black"/>
</svg>
